ISO-10303-21;
HEADER;
/* Generated by software containing ST-Developer
 * from STEP Tools, Inc. (www.steptools.com) 
 */

FILE_DESCRIPTION(
/* description */ (''),
/* implementation_level */ '2;1');

FILE_NAME(
/* name */ 'ESP32_Controller_PCB_Clamps.step',
/* time_stamp */ '2026-08-31T23:18:49+01:00',
/* author */ (''),
/* organization */ (''),
/* preprocessor_version */ 'ST-DEVELOPER v20.1',
/* originating_system */ 'Autodesk Translation Framework v15.8.0.0',
/* authorisation */ '');

FILE_SCHEMA (('AUTOMOTIVE_DESIGN { 1 0 10303 214 3 1 1 }'));
ENDSEC;

DATA;
#10=MECHANICAL_DESIGN_GEOMETRIC_PRESENTATION_REPRESENTATION('',(#13,#14),
#1042);
#11=SHAPE_REPRESENTATION_RELATIONSHIP('SRR','None',#1049,#12);
#12=ADVANCED_BREP_SHAPE_REPRESENTATION('',(#15,#16),#1041);
#13=STYLED_ITEM('',(#1058),#15);
#14=STYLED_ITEM('',(#1058),#16);
#15=MANIFOLD_SOLID_BREP('Body1',#605);
#16=MANIFOLD_SOLID_BREP('Body2',#606);
#17=FACE_BOUND('',#102,.T.);
#18=FACE_BOUND('',#103,.T.);
#19=FACE_BOUND('',#107,.T.);
#20=FACE_BOUND('',#108,.T.);
#21=FACE_BOUND('',#129,.T.);
#22=FACE_BOUND('',#130,.T.);
#23=FACE_BOUND('',#134,.T.);
#24=FACE_BOUND('',#135,.T.);
#25=CIRCLE('',#624,2.);
#26=CIRCLE('',#625,2.);
#27=CIRCLE('',#627,2.);
#28=CIRCLE('',#628,2.);
#29=CIRCLE('',#629,2.);
#30=CIRCLE('',#630,1.7);
#31=CIRCLE('',#631,1.7);
#32=CIRCLE('',#633,1.7);
#33=CIRCLE('',#635,1.7);
#34=CIRCLE('',#637,2.);
#35=CIRCLE('',#638,2.);
#36=CIRCLE('',#639,2.);
#37=CIRCLE('',#652,2.);
#38=CIRCLE('',#653,2.);
#39=CIRCLE('',#655,1.7);
#40=CIRCLE('',#656,1.7);
#41=CIRCLE('',#659,1.7);
#42=CIRCLE('',#660,1.7);
#43=CIRCLE('',#663,1.7);
#44=CIRCLE('',#664,1.7);
#45=CIRCLE('',#667,1.7);
#46=CIRCLE('',#668,1.7);
#47=CIRCLE('',#671,2.);
#48=CIRCLE('',#672,2.);
#49=CIRCLE('',#674,2.);
#50=CIRCLE('',#675,2.);
#51=CIRCLE('',#677,2.);
#52=CIRCLE('',#679,2.);
#53=CYLINDRICAL_SURFACE('',#623,2.);
#54=CYLINDRICAL_SURFACE('',#632,1.7);
#55=CYLINDRICAL_SURFACE('',#634,1.7);
#56=CYLINDRICAL_SURFACE('',#640,2.);
#57=CYLINDRICAL_SURFACE('',#641,2.);
#58=CYLINDRICAL_SURFACE('',#642,2.);
#59=CYLINDRICAL_SURFACE('',#651,2.);
#60=CYLINDRICAL_SURFACE('',#654,1.7);
#61=CYLINDRICAL_SURFACE('',#658,1.7);
#62=CYLINDRICAL_SURFACE('',#662,1.7);
#63=CYLINDRICAL_SURFACE('',#666,1.7);
#64=CYLINDRICAL_SURFACE('',#670,2.);
#65=CYLINDRICAL_SURFACE('',#676,2.);
#66=CYLINDRICAL_SURFACE('',#678,2.);
#67=FACE_OUTER_BOUND('',#99,.T.);
#68=FACE_OUTER_BOUND('',#100,.T.);
#69=FACE_OUTER_BOUND('',#101,.T.);
#70=FACE_OUTER_BOUND('',#104,.T.);
#71=FACE_OUTER_BOUND('',#105,.T.);
#72=FACE_OUTER_BOUND('',#106,.T.);
#73=FACE_OUTER_BOUND('',#109,.T.);
#74=FACE_OUTER_BOUND('',#110,.T.);
#75=FACE_OUTER_BOUND('',#111,.T.);
#76=FACE_OUTER_BOUND('',#112,.T.);
#77=FACE_OUTER_BOUND('',#113,.T.);
#78=FACE_OUTER_BOUND('',#114,.T.);
#79=FACE_OUTER_BOUND('',#115,.T.);
#80=FACE_OUTER_BOUND('',#116,.T.);
#81=FACE_OUTER_BOUND('',#117,.T.);
#82=FACE_OUTER_BOUND('',#118,.T.);
#83=FACE_OUTER_BOUND('',#119,.T.);
#84=FACE_OUTER_BOUND('',#120,.T.);
#85=FACE_OUTER_BOUND('',#121,.T.);
#86=FACE_OUTER_BOUND('',#122,.T.);
#87=FACE_OUTER_BOUND('',#123,.T.);
#88=FACE_OUTER_BOUND('',#124,.T.);
#89=FACE_OUTER_BOUND('',#125,.T.);
#90=FACE_OUTER_BOUND('',#126,.T.);
#91=FACE_OUTER_BOUND('',#127,.T.);
#92=FACE_OUTER_BOUND('',#128,.T.);
#93=FACE_OUTER_BOUND('',#131,.T.);
#94=FACE_OUTER_BOUND('',#132,.T.);
#95=FACE_OUTER_BOUND('',#133,.T.);
#96=FACE_OUTER_BOUND('',#136,.T.);
#97=FACE_OUTER_BOUND('',#137,.T.);
#98=FACE_OUTER_BOUND('',#138,.T.);
#99=EDGE_LOOP('',(#387,#388,#389,#390));
#100=EDGE_LOOP('',(#391,#392,#393,#394,#395));
#101=EDGE_LOOP('',(#396,#397,#398,#399,#400,#401,#402,#403));
#102=EDGE_LOOP('',(#404));
#103=EDGE_LOOP('',(#405));
#104=EDGE_LOOP('',(#406,#407,#408,#409));
#105=EDGE_LOOP('',(#410,#411,#412,#413));
#106=EDGE_LOOP('',(#414,#415,#416,#417,#418,#419,#420,#421));
#107=EDGE_LOOP('',(#422));
#108=EDGE_LOOP('',(#423));
#109=EDGE_LOOP('',(#424,#425,#426,#427,#428));
#110=EDGE_LOOP('',(#429,#430,#431,#432));
#111=EDGE_LOOP('',(#433,#434,#435,#436));
#112=EDGE_LOOP('',(#437,#438,#439,#440));
#113=EDGE_LOOP('',(#441,#442,#443,#444));
#114=EDGE_LOOP('',(#445,#446,#447,#448));
#115=EDGE_LOOP('',(#449,#450,#451,#452));
#116=EDGE_LOOP('',(#453,#454,#455,#456));
#117=EDGE_LOOP('',(#457,#458,#459,#460));
#118=EDGE_LOOP('',(#461,#462,#463,#464,#465));
#119=EDGE_LOOP('',(#466,#467,#468,#469));
#120=EDGE_LOOP('',(#470,#471,#472,#473));
#121=EDGE_LOOP('',(#474,#475,#476,#477));
#122=EDGE_LOOP('',(#478,#479,#480,#481));
#123=EDGE_LOOP('',(#482,#483,#484,#485));
#124=EDGE_LOOP('',(#486,#487,#488,#489));
#125=EDGE_LOOP('',(#490,#491,#492,#493));
#126=EDGE_LOOP('',(#494,#495,#496,#497));
#127=EDGE_LOOP('',(#498,#499,#500,#501));
#128=EDGE_LOOP('',(#502,#503,#504,#505,#506,#507,#508,#509));
#129=EDGE_LOOP('',(#510,#511,#512,#513));
#130=EDGE_LOOP('',(#514,#515,#516,#517));
#131=EDGE_LOOP('',(#518,#519,#520,#521));
#132=EDGE_LOOP('',(#522,#523,#524,#525,#526));
#133=EDGE_LOOP('',(#527,#528,#529,#530,#531,#532,#533,#534));
#134=EDGE_LOOP('',(#535,#536,#537,#538));
#135=EDGE_LOOP('',(#539,#540,#541,#542));
#136=EDGE_LOOP('',(#543,#544,#545,#546));
#137=EDGE_LOOP('',(#547,#548,#549,#550));
#138=EDGE_LOOP('',(#551,#552,#553,#554));
#139=LINE('',#872,#191);
#140=LINE('',#875,#192);
#141=LINE('',#880,#193);
#142=LINE('',#883,#194);
#143=LINE('',#888,#195);
#144=LINE('',#892,#196);
#145=LINE('',#895,#197);
#146=LINE('',#902,#198);
#147=LINE('',#906,#199);
#148=LINE('',#910,#200);
#149=LINE('',#914,#201);
#150=LINE('',#918,#202);
#151=LINE('',#921,#203);
#152=LINE('',#923,#204);
#153=LINE('',#924,#205);
#154=LINE('',#926,#206);
#155=LINE('',#927,#207);
#156=LINE('',#929,#208);
#157=LINE('',#930,#209);
#158=LINE('',#940,#210);
#159=LINE('',#943,#211);
#160=LINE('',#946,#212);
#161=LINE('',#948,#213);
#162=LINE('',#949,#214);
#163=LINE('',#954,#215);
#164=LINE('',#961,#216);
#165=LINE('',#964,#217);
#166=LINE('',#967,#218);
#167=LINE('',#969,#219);
#168=LINE('',#970,#220);
#169=LINE('',#976,#221);
#170=LINE('',#978,#222);
#171=LINE('',#979,#223);
#172=LINE('',#985,#224);
#173=LINE('',#988,#225);
#174=LINE('',#991,#226);
#175=LINE('',#993,#227);
#176=LINE('',#994,#228);
#177=LINE('',#1000,#229);
#178=LINE('',#1002,#230);
#179=LINE('',#1003,#231);
#180=LINE('',#1007,#232);
#181=LINE('',#1011,#233);
#182=LINE('',#1015,#234);
#183=LINE('',#1018,#235);
#184=LINE('',#1021,#236);
#185=LINE('',#1024,#237);
#186=LINE('',#1027,#238);
#187=LINE('',#1030,#239);
#188=LINE('',#1033,#240);
#189=LINE('',#1034,#241);
#190=LINE('',#1035,#242);
#191=VECTOR('',#690,10.);
#192=VECTOR('',#693,10.);
#193=VECTOR('',#698,10.);
#194=VECTOR('',#701,10.);
#195=VECTOR('',#706,10.);
#196=VECTOR('',#709,10.);
#197=VECTOR('',#712,10.);
#198=VECTOR('',#719,1.7);
#199=VECTOR('',#724,1.7);
#200=VECTOR('',#729,10.);
#201=VECTOR('',#732,10.);
#202=VECTOR('',#735,10.);
#203=VECTOR('',#738,10.);
#204=VECTOR('',#741,10.);
#205=VECTOR('',#742,10.);
#206=VECTOR('',#745,10.);
#207=VECTOR('',#746,10.);
#208=VECTOR('',#749,10.);
#209=VECTOR('',#750,10.);
#210=VECTOR('',#763,10.);
#211=VECTOR('',#766,10.);
#212=VECTOR('',#769,10.);
#213=VECTOR('',#770,10.);
#214=VECTOR('',#771,10.);
#215=VECTOR('',#776,10.);
#216=VECTOR('',#783,10.);
#217=VECTOR('',#786,10.);
#218=VECTOR('',#789,10.);
#219=VECTOR('',#790,10.);
#220=VECTOR('',#791,10.);
#221=VECTOR('',#798,10.);
#222=VECTOR('',#801,10.);
#223=VECTOR('',#802,10.);
#224=VECTOR('',#807,10.);
#225=VECTOR('',#810,10.);
#226=VECTOR('',#813,10.);
#227=VECTOR('',#814,10.);
#228=VECTOR('',#815,10.);
#229=VECTOR('',#822,10.);
#230=VECTOR('',#825,10.);
#231=VECTOR('',#826,10.);
#232=VECTOR('',#829,10.);
#233=VECTOR('',#832,10.);
#234=VECTOR('',#837,10.);
#235=VECTOR('',#840,10.);
#236=VECTOR('',#843,10.);
#237=VECTOR('',#846,10.);
#238=VECTOR('',#849,10.);
#239=VECTOR('',#852,10.);
#240=VECTOR('',#857,10.);
#241=VECTOR('',#858,10.);
#242=VECTOR('',#859,10.);
#243=ELLIPSE('',#621,2.82842712474619,2.);
#244=ELLIPSE('',#622,2.82842712474619,2.);
#245=ELLIPSE('',#648,2.82842712474619,2.);
#246=ELLIPSE('',#649,2.82842712474619,2.);
#247=VERTEX_POINT('',#868);
#248=VERTEX_POINT('',#869);
#249=VERTEX_POINT('',#871);
#250=VERTEX_POINT('',#873);
#251=VERTEX_POINT('',#877);
#252=VERTEX_POINT('',#879);
#253=VERTEX_POINT('',#881);
#254=VERTEX_POINT('',#885);
#255=VERTEX_POINT('',#887);
#256=VERTEX_POINT('',#889);
#257=VERTEX_POINT('',#891);
#258=VERTEX_POINT('',#893);
#259=VERTEX_POINT('',#896);
#260=VERTEX_POINT('',#898);
#261=VERTEX_POINT('',#901);
#262=VERTEX_POINT('',#905);
#263=VERTEX_POINT('',#909);
#264=VERTEX_POINT('',#911);
#265=VERTEX_POINT('',#913);
#266=VERTEX_POINT('',#915);
#267=VERTEX_POINT('',#917);
#268=VERTEX_POINT('',#919);
#269=VERTEX_POINT('',#936);
#270=VERTEX_POINT('',#937);
#271=VERTEX_POINT('',#939);
#272=VERTEX_POINT('',#941);
#273=VERTEX_POINT('',#945);
#274=VERTEX_POINT('',#947);
#275=VERTEX_POINT('',#951);
#276=VERTEX_POINT('',#953);
#277=VERTEX_POINT('',#957);
#278=VERTEX_POINT('',#958);
#279=VERTEX_POINT('',#960);
#280=VERTEX_POINT('',#962);
#281=VERTEX_POINT('',#966);
#282=VERTEX_POINT('',#968);
#283=VERTEX_POINT('',#972);
#284=VERTEX_POINT('',#974);
#285=VERTEX_POINT('',#981);
#286=VERTEX_POINT('',#982);
#287=VERTEX_POINT('',#984);
#288=VERTEX_POINT('',#986);
#289=VERTEX_POINT('',#990);
#290=VERTEX_POINT('',#992);
#291=VERTEX_POINT('',#996);
#292=VERTEX_POINT('',#998);
#293=VERTEX_POINT('',#1005);
#294=VERTEX_POINT('',#1006);
#295=VERTEX_POINT('',#1008);
#296=VERTEX_POINT('',#1010);
#297=VERTEX_POINT('',#1014);
#298=VERTEX_POINT('',#1017);
#299=VERTEX_POINT('',#1019);
#300=VERTEX_POINT('',#1023);
#301=VERTEX_POINT('',#1025);
#302=VERTEX_POINT('',#1029);
#303=EDGE_CURVE('',#247,#248,#243,.T.);
#304=EDGE_CURVE('',#249,#247,#139,.T.);
#305=EDGE_CURVE('',#250,#249,#244,.T.);
#306=EDGE_CURVE('',#248,#250,#140,.T.);
#307=EDGE_CURVE('',#251,#248,#25,.T.);
#308=EDGE_CURVE('',#252,#251,#141,.T.);
#309=EDGE_CURVE('',#253,#252,#26,.T.);
#310=EDGE_CURVE('',#253,#247,#142,.T.);
#311=EDGE_CURVE('',#250,#254,#27,.T.);
#312=EDGE_CURVE('',#254,#255,#143,.T.);
#313=EDGE_CURVE('',#255,#256,#28,.T.);
#314=EDGE_CURVE('',#256,#257,#144,.T.);
#315=EDGE_CURVE('',#257,#258,#29,.T.);
#316=EDGE_CURVE('',#258,#251,#145,.T.);
#317=EDGE_CURVE('',#259,#259,#30,.T.);
#318=EDGE_CURVE('',#260,#260,#31,.T.);
#319=EDGE_CURVE('',#260,#261,#146,.T.);
#320=EDGE_CURVE('',#261,#261,#32,.T.);
#321=EDGE_CURVE('',#259,#262,#147,.T.);
#322=EDGE_CURVE('',#262,#262,#33,.T.);
#323=EDGE_CURVE('',#252,#263,#148,.T.);
#324=EDGE_CURVE('',#263,#264,#34,.T.);
#325=EDGE_CURVE('',#264,#265,#149,.T.);
#326=EDGE_CURVE('',#265,#266,#35,.T.);
#327=EDGE_CURVE('',#266,#267,#150,.T.);
#328=EDGE_CURVE('',#267,#268,#36,.T.);
#329=EDGE_CURVE('',#268,#253,#151,.T.);
#330=EDGE_CURVE('',#268,#249,#152,.T.);
#331=EDGE_CURVE('',#267,#254,#153,.T.);
#332=EDGE_CURVE('',#264,#257,#154,.T.);
#333=EDGE_CURVE('',#263,#258,#155,.T.);
#334=EDGE_CURVE('',#266,#255,#156,.T.);
#335=EDGE_CURVE('',#265,#256,#157,.T.);
#336=EDGE_CURVE('',#269,#270,#245,.T.);
#337=EDGE_CURVE('',#271,#269,#158,.T.);
#338=EDGE_CURVE('',#272,#271,#246,.T.);
#339=EDGE_CURVE('',#270,#272,#159,.T.);
#340=EDGE_CURVE('',#273,#272,#160,.T.);
#341=EDGE_CURVE('',#274,#273,#161,.T.);
#342=EDGE_CURVE('',#274,#270,#162,.T.);
#343=EDGE_CURVE('',#275,#271,#37,.T.);
#344=EDGE_CURVE('',#276,#275,#163,.T.);
#345=EDGE_CURVE('',#273,#276,#38,.T.);
#346=EDGE_CURVE('',#277,#278,#39,.T.);
#347=EDGE_CURVE('',#277,#279,#164,.T.);
#348=EDGE_CURVE('',#280,#279,#40,.T.);
#349=EDGE_CURVE('',#278,#280,#165,.T.);
#350=EDGE_CURVE('',#278,#281,#166,.T.);
#351=EDGE_CURVE('',#282,#280,#167,.T.);
#352=EDGE_CURVE('',#281,#282,#168,.T.);
#353=EDGE_CURVE('',#281,#283,#41,.T.);
#354=EDGE_CURVE('',#284,#282,#42,.T.);
#355=EDGE_CURVE('',#283,#284,#169,.T.);
#356=EDGE_CURVE('',#283,#277,#170,.T.);
#357=EDGE_CURVE('',#279,#284,#171,.T.);
#358=EDGE_CURVE('',#285,#286,#43,.T.);
#359=EDGE_CURVE('',#285,#287,#172,.T.);
#360=EDGE_CURVE('',#288,#287,#44,.T.);
#361=EDGE_CURVE('',#286,#288,#173,.T.);
#362=EDGE_CURVE('',#286,#289,#174,.T.);
#363=EDGE_CURVE('',#290,#288,#175,.T.);
#364=EDGE_CURVE('',#289,#290,#176,.T.);
#365=EDGE_CURVE('',#289,#291,#45,.T.);
#366=EDGE_CURVE('',#292,#290,#46,.T.);
#367=EDGE_CURVE('',#291,#292,#177,.T.);
#368=EDGE_CURVE('',#291,#285,#178,.T.);
#369=EDGE_CURVE('',#287,#292,#179,.T.);
#370=EDGE_CURVE('',#293,#294,#180,.T.);
#371=EDGE_CURVE('',#295,#294,#47,.T.);
#372=EDGE_CURVE('',#296,#295,#181,.T.);
#373=EDGE_CURVE('',#293,#296,#48,.T.);
#374=EDGE_CURVE('',#296,#297,#182,.T.);
#375=EDGE_CURVE('',#297,#274,#49,.T.);
#376=EDGE_CURVE('',#276,#298,#183,.T.);
#377=EDGE_CURVE('',#298,#299,#50,.T.);
#378=EDGE_CURVE('',#299,#293,#184,.T.);
#379=EDGE_CURVE('',#298,#300,#185,.T.);
#380=EDGE_CURVE('',#301,#300,#51,.T.);
#381=EDGE_CURVE('',#299,#301,#186,.T.);
#382=EDGE_CURVE('',#297,#302,#187,.T.);
#383=EDGE_CURVE('',#269,#302,#52,.T.);
#384=EDGE_CURVE('',#302,#295,#188,.T.);
#385=EDGE_CURVE('',#294,#301,#189,.T.);
#386=EDGE_CURVE('',#300,#275,#190,.T.);
#387=ORIENTED_EDGE('',*,*,#303,.F.);
#388=ORIENTED_EDGE('',*,*,#304,.F.);
#389=ORIENTED_EDGE('',*,*,#305,.F.);
#390=ORIENTED_EDGE('',*,*,#306,.F.);
#391=ORIENTED_EDGE('',*,*,#303,.T.);
#392=ORIENTED_EDGE('',*,*,#307,.F.);
#393=ORIENTED_EDGE('',*,*,#308,.F.);
#394=ORIENTED_EDGE('',*,*,#309,.F.);
#395=ORIENTED_EDGE('',*,*,#310,.T.);
#396=ORIENTED_EDGE('',*,*,#306,.T.);
#397=ORIENTED_EDGE('',*,*,#311,.T.);
#398=ORIENTED_EDGE('',*,*,#312,.T.);
#399=ORIENTED_EDGE('',*,*,#313,.T.);
#400=ORIENTED_EDGE('',*,*,#314,.T.);
#401=ORIENTED_EDGE('',*,*,#315,.T.);
#402=ORIENTED_EDGE('',*,*,#316,.T.);
#403=ORIENTED_EDGE('',*,*,#307,.T.);
#404=ORIENTED_EDGE('',*,*,#317,.T.);
#405=ORIENTED_EDGE('',*,*,#318,.T.);
#406=ORIENTED_EDGE('',*,*,#318,.F.);
#407=ORIENTED_EDGE('',*,*,#319,.T.);
#408=ORIENTED_EDGE('',*,*,#320,.F.);
#409=ORIENTED_EDGE('',*,*,#319,.F.);
#410=ORIENTED_EDGE('',*,*,#317,.F.);
#411=ORIENTED_EDGE('',*,*,#321,.T.);
#412=ORIENTED_EDGE('',*,*,#322,.F.);
#413=ORIENTED_EDGE('',*,*,#321,.F.);
#414=ORIENTED_EDGE('',*,*,#323,.T.);
#415=ORIENTED_EDGE('',*,*,#324,.T.);
#416=ORIENTED_EDGE('',*,*,#325,.T.);
#417=ORIENTED_EDGE('',*,*,#326,.T.);
#418=ORIENTED_EDGE('',*,*,#327,.T.);
#419=ORIENTED_EDGE('',*,*,#328,.T.);
#420=ORIENTED_EDGE('',*,*,#329,.T.);
#421=ORIENTED_EDGE('',*,*,#309,.T.);
#422=ORIENTED_EDGE('',*,*,#320,.T.);
#423=ORIENTED_EDGE('',*,*,#322,.T.);
#424=ORIENTED_EDGE('',*,*,#305,.T.);
#425=ORIENTED_EDGE('',*,*,#330,.F.);
#426=ORIENTED_EDGE('',*,*,#328,.F.);
#427=ORIENTED_EDGE('',*,*,#331,.T.);
#428=ORIENTED_EDGE('',*,*,#311,.F.);
#429=ORIENTED_EDGE('',*,*,#332,.F.);
#430=ORIENTED_EDGE('',*,*,#324,.F.);
#431=ORIENTED_EDGE('',*,*,#333,.T.);
#432=ORIENTED_EDGE('',*,*,#315,.F.);
#433=ORIENTED_EDGE('',*,*,#334,.F.);
#434=ORIENTED_EDGE('',*,*,#326,.F.);
#435=ORIENTED_EDGE('',*,*,#335,.T.);
#436=ORIENTED_EDGE('',*,*,#313,.F.);
#437=ORIENTED_EDGE('',*,*,#332,.T.);
#438=ORIENTED_EDGE('',*,*,#314,.F.);
#439=ORIENTED_EDGE('',*,*,#335,.F.);
#440=ORIENTED_EDGE('',*,*,#325,.F.);
#441=ORIENTED_EDGE('',*,*,#304,.T.);
#442=ORIENTED_EDGE('',*,*,#310,.F.);
#443=ORIENTED_EDGE('',*,*,#329,.F.);
#444=ORIENTED_EDGE('',*,*,#330,.T.);
#445=ORIENTED_EDGE('',*,*,#334,.T.);
#446=ORIENTED_EDGE('',*,*,#312,.F.);
#447=ORIENTED_EDGE('',*,*,#331,.F.);
#448=ORIENTED_EDGE('',*,*,#327,.F.);
#449=ORIENTED_EDGE('',*,*,#308,.T.);
#450=ORIENTED_EDGE('',*,*,#316,.F.);
#451=ORIENTED_EDGE('',*,*,#333,.F.);
#452=ORIENTED_EDGE('',*,*,#323,.F.);
#453=ORIENTED_EDGE('',*,*,#336,.F.);
#454=ORIENTED_EDGE('',*,*,#337,.F.);
#455=ORIENTED_EDGE('',*,*,#338,.F.);
#456=ORIENTED_EDGE('',*,*,#339,.F.);
#457=ORIENTED_EDGE('',*,*,#339,.T.);
#458=ORIENTED_EDGE('',*,*,#340,.F.);
#459=ORIENTED_EDGE('',*,*,#341,.F.);
#460=ORIENTED_EDGE('',*,*,#342,.T.);
#461=ORIENTED_EDGE('',*,*,#338,.T.);
#462=ORIENTED_EDGE('',*,*,#343,.F.);
#463=ORIENTED_EDGE('',*,*,#344,.F.);
#464=ORIENTED_EDGE('',*,*,#345,.F.);
#465=ORIENTED_EDGE('',*,*,#340,.T.);
#466=ORIENTED_EDGE('',*,*,#346,.F.);
#467=ORIENTED_EDGE('',*,*,#347,.T.);
#468=ORIENTED_EDGE('',*,*,#348,.F.);
#469=ORIENTED_EDGE('',*,*,#349,.F.);
#470=ORIENTED_EDGE('',*,*,#350,.F.);
#471=ORIENTED_EDGE('',*,*,#349,.T.);
#472=ORIENTED_EDGE('',*,*,#351,.F.);
#473=ORIENTED_EDGE('',*,*,#352,.F.);
#474=ORIENTED_EDGE('',*,*,#353,.F.);
#475=ORIENTED_EDGE('',*,*,#352,.T.);
#476=ORIENTED_EDGE('',*,*,#354,.F.);
#477=ORIENTED_EDGE('',*,*,#355,.F.);
#478=ORIENTED_EDGE('',*,*,#356,.F.);
#479=ORIENTED_EDGE('',*,*,#355,.T.);
#480=ORIENTED_EDGE('',*,*,#357,.F.);
#481=ORIENTED_EDGE('',*,*,#347,.F.);
#482=ORIENTED_EDGE('',*,*,#358,.F.);
#483=ORIENTED_EDGE('',*,*,#359,.T.);
#484=ORIENTED_EDGE('',*,*,#360,.F.);
#485=ORIENTED_EDGE('',*,*,#361,.F.);
#486=ORIENTED_EDGE('',*,*,#362,.F.);
#487=ORIENTED_EDGE('',*,*,#361,.T.);
#488=ORIENTED_EDGE('',*,*,#363,.F.);
#489=ORIENTED_EDGE('',*,*,#364,.F.);
#490=ORIENTED_EDGE('',*,*,#365,.F.);
#491=ORIENTED_EDGE('',*,*,#364,.T.);
#492=ORIENTED_EDGE('',*,*,#366,.F.);
#493=ORIENTED_EDGE('',*,*,#367,.F.);
#494=ORIENTED_EDGE('',*,*,#368,.F.);
#495=ORIENTED_EDGE('',*,*,#367,.T.);
#496=ORIENTED_EDGE('',*,*,#369,.F.);
#497=ORIENTED_EDGE('',*,*,#359,.F.);
#498=ORIENTED_EDGE('',*,*,#370,.T.);
#499=ORIENTED_EDGE('',*,*,#371,.F.);
#500=ORIENTED_EDGE('',*,*,#372,.F.);
#501=ORIENTED_EDGE('',*,*,#373,.F.);
#502=ORIENTED_EDGE('',*,*,#374,.T.);
#503=ORIENTED_EDGE('',*,*,#375,.T.);
#504=ORIENTED_EDGE('',*,*,#341,.T.);
#505=ORIENTED_EDGE('',*,*,#345,.T.);
#506=ORIENTED_EDGE('',*,*,#376,.T.);
#507=ORIENTED_EDGE('',*,*,#377,.T.);
#508=ORIENTED_EDGE('',*,*,#378,.T.);
#509=ORIENTED_EDGE('',*,*,#373,.T.);
#510=ORIENTED_EDGE('',*,*,#353,.T.);
#511=ORIENTED_EDGE('',*,*,#356,.T.);
#512=ORIENTED_EDGE('',*,*,#346,.T.);
#513=ORIENTED_EDGE('',*,*,#350,.T.);
#514=ORIENTED_EDGE('',*,*,#365,.T.);
#515=ORIENTED_EDGE('',*,*,#368,.T.);
#516=ORIENTED_EDGE('',*,*,#358,.T.);
#517=ORIENTED_EDGE('',*,*,#362,.T.);
#518=ORIENTED_EDGE('',*,*,#379,.T.);
#519=ORIENTED_EDGE('',*,*,#380,.F.);
#520=ORIENTED_EDGE('',*,*,#381,.F.);
#521=ORIENTED_EDGE('',*,*,#377,.F.);
#522=ORIENTED_EDGE('',*,*,#336,.T.);
#523=ORIENTED_EDGE('',*,*,#342,.F.);
#524=ORIENTED_EDGE('',*,*,#375,.F.);
#525=ORIENTED_EDGE('',*,*,#382,.T.);
#526=ORIENTED_EDGE('',*,*,#383,.F.);
#527=ORIENTED_EDGE('',*,*,#337,.T.);
#528=ORIENTED_EDGE('',*,*,#383,.T.);
#529=ORIENTED_EDGE('',*,*,#384,.T.);
#530=ORIENTED_EDGE('',*,*,#371,.T.);
#531=ORIENTED_EDGE('',*,*,#385,.T.);
#532=ORIENTED_EDGE('',*,*,#380,.T.);
#533=ORIENTED_EDGE('',*,*,#386,.T.);
#534=ORIENTED_EDGE('',*,*,#343,.T.);
#535=ORIENTED_EDGE('',*,*,#354,.T.);
#536=ORIENTED_EDGE('',*,*,#351,.T.);
#537=ORIENTED_EDGE('',*,*,#348,.T.);
#538=ORIENTED_EDGE('',*,*,#357,.T.);
#539=ORIENTED_EDGE('',*,*,#366,.T.);
#540=ORIENTED_EDGE('',*,*,#363,.T.);
#541=ORIENTED_EDGE('',*,*,#360,.T.);
#542=ORIENTED_EDGE('',*,*,#369,.T.);
#543=ORIENTED_EDGE('',*,*,#381,.T.);
#544=ORIENTED_EDGE('',*,*,#385,.F.);
#545=ORIENTED_EDGE('',*,*,#370,.F.);
#546=ORIENTED_EDGE('',*,*,#378,.F.);
#547=ORIENTED_EDGE('',*,*,#344,.T.);
#548=ORIENTED_EDGE('',*,*,#386,.F.);
#549=ORIENTED_EDGE('',*,*,#379,.F.);
#550=ORIENTED_EDGE('',*,*,#376,.F.);
#551=ORIENTED_EDGE('',*,*,#372,.T.);
#552=ORIENTED_EDGE('',*,*,#384,.F.);
#553=ORIENTED_EDGE('',*,*,#382,.F.);
#554=ORIENTED_EDGE('',*,*,#374,.F.);
#555=PLANE('',#620);
#556=PLANE('',#626);
#557=PLANE('',#636);
#558=PLANE('',#643);
#559=PLANE('',#644);
#560=PLANE('',#645);
#561=PLANE('',#646);
#562=PLANE('',#647);
#563=PLANE('',#650);
#564=PLANE('',#657);
#565=PLANE('',#661);
#566=PLANE('',#665);
#567=PLANE('',#669);
#568=PLANE('',#673);
#569=PLANE('',#680);
#570=PLANE('',#681);
#571=PLANE('',#682);
#572=PLANE('',#683);
#573=ADVANCED_FACE('',(#67),#555,.F.);
#574=ADVANCED_FACE('',(#68),#53,.T.);
#575=ADVANCED_FACE('',(#69,#17,#18),#556,.F.);
#576=ADVANCED_FACE('',(#70),#54,.F.);
#577=ADVANCED_FACE('',(#71),#55,.F.);
#578=ADVANCED_FACE('',(#72,#19,#20),#557,.T.);
#579=ADVANCED_FACE('',(#73),#56,.T.);
#580=ADVANCED_FACE('',(#74),#57,.T.);
#581=ADVANCED_FACE('',(#75),#58,.T.);
#582=ADVANCED_FACE('',(#76),#558,.F.);
#583=ADVANCED_FACE('',(#77),#559,.F.);
#584=ADVANCED_FACE('',(#78),#560,.F.);
#585=ADVANCED_FACE('',(#79),#561,.F.);
#586=ADVANCED_FACE('',(#80),#562,.T.);
#587=ADVANCED_FACE('',(#81),#563,.F.);
#588=ADVANCED_FACE('',(#82),#59,.T.);
#589=ADVANCED_FACE('',(#83),#60,.F.);
#590=ADVANCED_FACE('',(#84),#564,.T.);
#591=ADVANCED_FACE('',(#85),#61,.F.);
#592=ADVANCED_FACE('',(#86),#565,.T.);
#593=ADVANCED_FACE('',(#87),#62,.F.);
#594=ADVANCED_FACE('',(#88),#566,.T.);
#595=ADVANCED_FACE('',(#89),#63,.F.);
#596=ADVANCED_FACE('',(#90),#567,.T.);
#597=ADVANCED_FACE('',(#91),#64,.T.);
#598=ADVANCED_FACE('',(#92,#21,#22),#568,.T.);
#599=ADVANCED_FACE('',(#93),#65,.T.);
#600=ADVANCED_FACE('',(#94),#66,.T.);
#601=ADVANCED_FACE('',(#95,#23,#24),#569,.F.);
#602=ADVANCED_FACE('',(#96),#570,.F.);
#603=ADVANCED_FACE('',(#97),#571,.F.);
#604=ADVANCED_FACE('',(#98),#572,.F.);
#605=CLOSED_SHELL('',(#573,#574,#575,#576,#577,#578,#579,#580,#581,#582,
#583,#584,#585));
#606=CLOSED_SHELL('',(#586,#587,#588,#589,#590,#591,#592,#593,#594,#595,
#596,#597,#598,#599,#600,#601,#602,#603,#604));
#607=DERIVED_UNIT_ELEMENT(#609,1.);
#608=DERIVED_UNIT_ELEMENT(#1044,-3.);
#609=(
MASS_UNIT()
NAMED_UNIT(*)
SI_UNIT(.KILO.,.GRAM.)
);
#610=DERIVED_UNIT((#607,#608));
#611=MEASURE_REPRESENTATION_ITEM('density measure',
POSITIVE_RATIO_MEASURE(7850.),#610);
#612=PROPERTY_DEFINITION_REPRESENTATION(#617,#614);
#613=PROPERTY_DEFINITION_REPRESENTATION(#618,#615);
#614=REPRESENTATION('material name',(#616),#1041);
#615=REPRESENTATION('density',(#611),#1041);
#616=DESCRIPTIVE_REPRESENTATION_ITEM('Steel','Steel');
#617=PROPERTY_DEFINITION('material property','material name',#1051);
#618=PROPERTY_DEFINITION('material property','density of part',#1051);
#619=AXIS2_PLACEMENT_3D('',#866,#684,#685);
#620=AXIS2_PLACEMENT_3D('',#867,#686,#687);
#621=AXIS2_PLACEMENT_3D('',#870,#688,#689);
#622=AXIS2_PLACEMENT_3D('',#874,#691,#692);
#623=AXIS2_PLACEMENT_3D('',#876,#694,#695);
#624=AXIS2_PLACEMENT_3D('',#878,#696,#697);
#625=AXIS2_PLACEMENT_3D('',#882,#699,#700);
#626=AXIS2_PLACEMENT_3D('',#884,#702,#703);
#627=AXIS2_PLACEMENT_3D('',#886,#704,#705);
#628=AXIS2_PLACEMENT_3D('',#890,#707,#708);
#629=AXIS2_PLACEMENT_3D('',#894,#710,#711);
#630=AXIS2_PLACEMENT_3D('',#897,#713,#714);
#631=AXIS2_PLACEMENT_3D('',#899,#715,#716);
#632=AXIS2_PLACEMENT_3D('',#900,#717,#718);
#633=AXIS2_PLACEMENT_3D('',#903,#720,#721);
#634=AXIS2_PLACEMENT_3D('',#904,#722,#723);
#635=AXIS2_PLACEMENT_3D('',#907,#725,#726);
#636=AXIS2_PLACEMENT_3D('',#908,#727,#728);
#637=AXIS2_PLACEMENT_3D('',#912,#730,#731);
#638=AXIS2_PLACEMENT_3D('',#916,#733,#734);
#639=AXIS2_PLACEMENT_3D('',#920,#736,#737);
#640=AXIS2_PLACEMENT_3D('',#922,#739,#740);
#641=AXIS2_PLACEMENT_3D('',#925,#743,#744);
#642=AXIS2_PLACEMENT_3D('',#928,#747,#748);
#643=AXIS2_PLACEMENT_3D('',#931,#751,#752);
#644=AXIS2_PLACEMENT_3D('',#932,#753,#754);
#645=AXIS2_PLACEMENT_3D('',#933,#755,#756);
#646=AXIS2_PLACEMENT_3D('',#934,#757,#758);
#647=AXIS2_PLACEMENT_3D('',#935,#759,#760);
#648=AXIS2_PLACEMENT_3D('',#938,#761,#762);
#649=AXIS2_PLACEMENT_3D('',#942,#764,#765);
#650=AXIS2_PLACEMENT_3D('',#944,#767,#768);
#651=AXIS2_PLACEMENT_3D('',#950,#772,#773);
#652=AXIS2_PLACEMENT_3D('',#952,#774,#775);
#653=AXIS2_PLACEMENT_3D('',#955,#777,#778);
#654=AXIS2_PLACEMENT_3D('',#956,#779,#780);
#655=AXIS2_PLACEMENT_3D('',#959,#781,#782);
#656=AXIS2_PLACEMENT_3D('',#963,#784,#785);
#657=AXIS2_PLACEMENT_3D('',#965,#787,#788);
#658=AXIS2_PLACEMENT_3D('',#971,#792,#793);
#659=AXIS2_PLACEMENT_3D('',#973,#794,#795);
#660=AXIS2_PLACEMENT_3D('',#975,#796,#797);
#661=AXIS2_PLACEMENT_3D('',#977,#799,#800);
#662=AXIS2_PLACEMENT_3D('',#980,#803,#804);
#663=AXIS2_PLACEMENT_3D('',#983,#805,#806);
#664=AXIS2_PLACEMENT_3D('',#987,#808,#809);
#665=AXIS2_PLACEMENT_3D('',#989,#811,#812);
#666=AXIS2_PLACEMENT_3D('',#995,#816,#817);
#667=AXIS2_PLACEMENT_3D('',#997,#818,#819);
#668=AXIS2_PLACEMENT_3D('',#999,#820,#821);
#669=AXIS2_PLACEMENT_3D('',#1001,#823,#824);
#670=AXIS2_PLACEMENT_3D('',#1004,#827,#828);
#671=AXIS2_PLACEMENT_3D('',#1009,#830,#831);
#672=AXIS2_PLACEMENT_3D('',#1012,#833,#834);
#673=AXIS2_PLACEMENT_3D('',#1013,#835,#836);
#674=AXIS2_PLACEMENT_3D('',#1016,#838,#839);
#675=AXIS2_PLACEMENT_3D('',#1020,#841,#842);
#676=AXIS2_PLACEMENT_3D('',#1022,#844,#845);
#677=AXIS2_PLACEMENT_3D('',#1026,#847,#848);
#678=AXIS2_PLACEMENT_3D('',#1028,#850,#851);
#679=AXIS2_PLACEMENT_3D('',#1031,#853,#854);
#680=AXIS2_PLACEMENT_3D('',#1032,#855,#856);
#681=AXIS2_PLACEMENT_3D('',#1036,#860,#861);
#682=AXIS2_PLACEMENT_3D('',#1037,#862,#863);
#683=AXIS2_PLACEMENT_3D('',#1038,#864,#865);
#684=DIRECTION('axis',(0.,0.,1.));
#685=DIRECTION('refdir',(1.,0.,0.));
#686=DIRECTION('center_axis',(-0.707106781186548,0.,0.707106781186548));
#687=DIRECTION('ref_axis',(0.707106781186548,0.,0.707106781186548));
#688=DIRECTION('center_axis',(-0.707106781186548,0.,0.707106781186548));
#689=DIRECTION('ref_axis',(0.707106781186547,0.,0.707106781186547));
#690=DIRECTION('',(0.,1.,0.));
#691=DIRECTION('center_axis',(-0.707106781186548,0.,0.707106781186548));
#692=DIRECTION('ref_axis',(0.707106781186547,0.,0.707106781186547));
#693=DIRECTION('',(0.,-1.,0.));
#694=DIRECTION('center_axis',(0.,0.,1.));
#695=DIRECTION('ref_axis',(1.,0.,0.));
#696=DIRECTION('center_axis',(0.,0.,-1.));
#697=DIRECTION('ref_axis',(1.,0.,0.));
#698=DIRECTION('',(0.,0.,-1.));
#699=DIRECTION('center_axis',(0.,0.,1.));
#700=DIRECTION('ref_axis',(1.,0.,0.));
#701=DIRECTION('',(0.,0.,-1.));
#702=DIRECTION('center_axis',(0.,0.,1.));
#703=DIRECTION('ref_axis',(1.,0.,0.));
#704=DIRECTION('center_axis',(0.,0.,-1.));
#705=DIRECTION('ref_axis',(1.,0.,0.));
#706=DIRECTION('',(-1.,0.,0.));
#707=DIRECTION('center_axis',(0.,0.,-1.));
#708=DIRECTION('ref_axis',(1.,0.,0.));
#709=DIRECTION('',(0.,1.,0.));
#710=DIRECTION('center_axis',(0.,0.,-1.));
#711=DIRECTION('ref_axis',(1.,0.,0.));
#712=DIRECTION('',(1.,0.,0.));
#713=DIRECTION('center_axis',(0.,0.,1.));
#714=DIRECTION('ref_axis',(1.,0.,0.));
#715=DIRECTION('center_axis',(0.,0.,1.));
#716=DIRECTION('ref_axis',(1.,0.,0.));
#717=DIRECTION('center_axis',(0.,0.,1.));
#718=DIRECTION('ref_axis',(1.,0.,0.));
#719=DIRECTION('',(0.,0.,1.));
#720=DIRECTION('center_axis',(0.,0.,-1.));
#721=DIRECTION('ref_axis',(1.,0.,0.));
#722=DIRECTION('center_axis',(0.,0.,1.));
#723=DIRECTION('ref_axis',(1.,0.,0.));
#724=DIRECTION('',(0.,0.,1.));
#725=DIRECTION('center_axis',(0.,0.,-1.));
#726=DIRECTION('ref_axis',(1.,0.,0.));
#727=DIRECTION('center_axis',(0.,0.,1.));
#728=DIRECTION('ref_axis',(1.,0.,0.));
#729=DIRECTION('',(-1.,0.,0.));
#730=DIRECTION('center_axis',(0.,0.,1.));
#731=DIRECTION('ref_axis',(1.,0.,0.));
#732=DIRECTION('',(0.,-1.,0.));
#733=DIRECTION('center_axis',(0.,0.,1.));
#734=DIRECTION('ref_axis',(1.,0.,0.));
#735=DIRECTION('',(1.,0.,0.));
#736=DIRECTION('center_axis',(0.,0.,1.));
#737=DIRECTION('ref_axis',(1.,0.,0.));
#738=DIRECTION('',(0.,1.,0.));
#739=DIRECTION('center_axis',(0.,0.,1.));
#740=DIRECTION('ref_axis',(1.,0.,0.));
#741=DIRECTION('',(0.,0.,-1.));
#742=DIRECTION('',(0.,0.,-1.));
#743=DIRECTION('center_axis',(0.,0.,1.));
#744=DIRECTION('ref_axis',(1.,0.,0.));
#745=DIRECTION('',(0.,0.,-1.));
#746=DIRECTION('',(0.,0.,-1.));
#747=DIRECTION('center_axis',(0.,0.,1.));
#748=DIRECTION('ref_axis',(1.,0.,0.));
#749=DIRECTION('',(0.,0.,-1.));
#750=DIRECTION('',(0.,0.,-1.));
#751=DIRECTION('center_axis',(1.,0.,0.));
#752=DIRECTION('ref_axis',(0.,0.,-1.));
#753=DIRECTION('center_axis',(-1.,0.,0.));
#754=DIRECTION('ref_axis',(0.,0.,1.));
#755=DIRECTION('center_axis',(0.,1.,0.));
#756=DIRECTION('ref_axis',(0.,0.,1.));
#757=DIRECTION('center_axis',(0.,-1.,0.));
#758=DIRECTION('ref_axis',(0.,0.,-1.));
#759=DIRECTION('center_axis',(-0.707106781186548,0.,-0.707106781186548));
#760=DIRECTION('ref_axis',(-0.707106781186548,0.,0.707106781186548));
#761=DIRECTION('center_axis',(0.707106781186548,0.,0.707106781186548));
#762=DIRECTION('ref_axis',(0.707106781186547,0.,-0.707106781186547));
#763=DIRECTION('',(0.,1.,0.));
#764=DIRECTION('center_axis',(0.707106781186548,0.,0.707106781186548));
#765=DIRECTION('ref_axis',(0.707106781186547,0.,-0.707106781186547));
#766=DIRECTION('',(0.,-1.,0.));
#767=DIRECTION('center_axis',(1.,0.,0.));
#768=DIRECTION('ref_axis',(0.,0.,-1.));
#769=DIRECTION('',(0.,0.,-1.));
#770=DIRECTION('',(0.,-1.,0.));
#771=DIRECTION('',(0.,0.,-1.));
#772=DIRECTION('center_axis',(0.,0.,1.));
#773=DIRECTION('ref_axis',(1.,0.,0.));
#774=DIRECTION('center_axis',(0.,0.,-1.));
#775=DIRECTION('ref_axis',(1.,0.,0.));
#776=DIRECTION('',(0.,0.,-1.));
#777=DIRECTION('center_axis',(0.,0.,1.));
#778=DIRECTION('ref_axis',(1.,0.,0.));
#779=DIRECTION('center_axis',(0.,0.,1.));
#780=DIRECTION('ref_axis',(1.,0.,0.));
#781=DIRECTION('center_axis',(0.,0.,-1.));
#782=DIRECTION('ref_axis',(1.,0.,0.));
#783=DIRECTION('',(0.,0.,-1.));
#784=DIRECTION('center_axis',(0.,0.,1.));
#785=DIRECTION('ref_axis',(1.,0.,0.));
#786=DIRECTION('',(0.,0.,-1.));
#787=DIRECTION('center_axis',(0.,1.,0.));
#788=DIRECTION('ref_axis',(0.,0.,1.));
#789=DIRECTION('',(-1.,0.,0.));
#790=DIRECTION('',(1.,0.,0.));
#791=DIRECTION('',(0.,0.,-1.));
#792=DIRECTION('center_axis',(0.,0.,1.));
#793=DIRECTION('ref_axis',(-1.,1.22464679914735E-16,0.));
#794=DIRECTION('center_axis',(0.,0.,-1.));
#795=DIRECTION('ref_axis',(1.,0.,0.));
#796=DIRECTION('center_axis',(0.,0.,1.));
#797=DIRECTION('ref_axis',(1.,0.,0.));
#798=DIRECTION('',(0.,0.,-1.));
#799=DIRECTION('center_axis',(0.,-1.,0.));
#800=DIRECTION('ref_axis',(0.,0.,-1.));
#801=DIRECTION('',(1.,0.,0.));
#802=DIRECTION('',(-1.,0.,0.));
#803=DIRECTION('center_axis',(0.,0.,1.));
#804=DIRECTION('ref_axis',(1.,0.,0.));
#805=DIRECTION('center_axis',(0.,0.,-1.));
#806=DIRECTION('ref_axis',(1.,0.,0.));
#807=DIRECTION('',(0.,0.,-1.));
#808=DIRECTION('center_axis',(0.,0.,1.));
#809=DIRECTION('ref_axis',(1.,0.,0.));
#810=DIRECTION('',(0.,0.,-1.));
#811=DIRECTION('center_axis',(0.,1.,0.));
#812=DIRECTION('ref_axis',(0.,0.,1.));
#813=DIRECTION('',(-1.,0.,0.));
#814=DIRECTION('',(1.,0.,0.));
#815=DIRECTION('',(0.,0.,-1.));
#816=DIRECTION('center_axis',(0.,0.,1.));
#817=DIRECTION('ref_axis',(-1.,1.22464679914735E-16,0.));
#818=DIRECTION('center_axis',(0.,0.,-1.));
#819=DIRECTION('ref_axis',(1.,0.,0.));
#820=DIRECTION('center_axis',(0.,0.,1.));
#821=DIRECTION('ref_axis',(1.,0.,0.));
#822=DIRECTION('',(0.,0.,-1.));
#823=DIRECTION('center_axis',(0.,-1.,0.));
#824=DIRECTION('ref_axis',(0.,0.,-1.));
#825=DIRECTION('',(1.,0.,0.));
#826=DIRECTION('',(-1.,0.,0.));
#827=DIRECTION('center_axis',(0.,0.,1.));
#828=DIRECTION('ref_axis',(1.,0.,0.));
#829=DIRECTION('',(0.,0.,-1.));
#830=DIRECTION('center_axis',(0.,0.,-1.));
#831=DIRECTION('ref_axis',(1.,0.,0.));
#832=DIRECTION('',(0.,0.,-1.));
#833=DIRECTION('center_axis',(0.,0.,1.));
#834=DIRECTION('ref_axis',(1.,0.,0.));
#835=DIRECTION('center_axis',(0.,0.,1.));
#836=DIRECTION('ref_axis',(1.,0.,0.));
#837=DIRECTION('',(-1.,0.,0.));
#838=DIRECTION('center_axis',(0.,0.,1.));
#839=DIRECTION('ref_axis',(1.,0.,0.));
#840=DIRECTION('',(1.,0.,0.));
#841=DIRECTION('center_axis',(0.,0.,1.));
#842=DIRECTION('ref_axis',(1.,0.,0.));
#843=DIRECTION('',(0.,1.,0.));
#844=DIRECTION('center_axis',(0.,0.,1.));
#845=DIRECTION('ref_axis',(1.,0.,0.));
#846=DIRECTION('',(0.,0.,-1.));
#847=DIRECTION('center_axis',(0.,0.,-1.));
#848=DIRECTION('ref_axis',(1.,0.,0.));
#849=DIRECTION('',(0.,0.,-1.));
#850=DIRECTION('center_axis',(0.,0.,1.));
#851=DIRECTION('ref_axis',(1.,0.,0.));
#852=DIRECTION('',(0.,0.,-1.));
#853=DIRECTION('center_axis',(0.,0.,-1.));
#854=DIRECTION('ref_axis',(1.,0.,0.));
#855=DIRECTION('center_axis',(0.,0.,1.));
#856=DIRECTION('ref_axis',(1.,0.,0.));
#857=DIRECTION('',(1.,0.,0.));
#858=DIRECTION('',(0.,-1.,0.));
#859=DIRECTION('',(-1.,0.,0.));
#860=DIRECTION('center_axis',(-1.,0.,0.));
#861=DIRECTION('ref_axis',(0.,0.,1.));
#862=DIRECTION('center_axis',(0.,1.,0.));
#863=DIRECTION('ref_axis',(0.,0.,1.));
#864=DIRECTION('center_axis',(0.,-1.,0.));
#865=DIRECTION('ref_axis',(0.,0.,-1.));
#866=CARTESIAN_POINT('',(0.,0.,0.));
#867=CARTESIAN_POINT('Origin',(-30.8,0.,7.6));
#868=CARTESIAN_POINT('',(-30.5,21.,7.9));
#869=CARTESIAN_POINT('',(-31.1,22.4282856857086,7.3));
#870=CARTESIAN_POINT('Origin',(-32.5,21.,5.9));
#871=CARTESIAN_POINT('',(-30.5,-21.,7.9));
#872=CARTESIAN_POINT('',(-30.5,0.,7.89999999999999));
#873=CARTESIAN_POINT('',(-31.1,-22.4282856857086,7.3));
#874=CARTESIAN_POINT('Origin',(-32.5,-21.,5.9));
#875=CARTESIAN_POINT('',(-31.1,0.,7.3));
#876=CARTESIAN_POINT('Origin',(-32.5,21.,8.8));
#877=CARTESIAN_POINT('',(-32.5,23.,7.3));
#878=CARTESIAN_POINT('Origin',(-32.5,21.,7.3));
#879=CARTESIAN_POINT('',(-32.5,23.,10.3));
#880=CARTESIAN_POINT('',(-32.5,23.,8.8));
#881=CARTESIAN_POINT('',(-30.5,21.,10.3));
#882=CARTESIAN_POINT('Origin',(-32.5,21.,10.3));
#883=CARTESIAN_POINT('',(-30.5,21.,8.8));
#884=CARTESIAN_POINT('Origin',(-35.4,0.,7.3));
#885=CARTESIAN_POINT('',(-32.5,-23.,7.3));
#886=CARTESIAN_POINT('Origin',(-32.5,-21.,7.3));
#887=CARTESIAN_POINT('',(-38.3,-23.,7.3));
#888=CARTESIAN_POINT('',(-35.4,-23.,7.3));
#889=CARTESIAN_POINT('',(-40.3,-21.,7.3));
#890=CARTESIAN_POINT('Origin',(-38.3,-21.,7.3));
#891=CARTESIAN_POINT('',(-40.3,21.,7.3));
#892=CARTESIAN_POINT('',(-40.3,0.,7.3));
#893=CARTESIAN_POINT('',(-38.3,23.,7.3));
#894=CARTESIAN_POINT('Origin',(-38.3,21.,7.3));
#895=CARTESIAN_POINT('',(-35.4,23.,7.3));
#896=CARTESIAN_POINT('',(-38.7,19.,7.3));
#897=CARTESIAN_POINT('Origin',(-37.,19.,7.3));
#898=CARTESIAN_POINT('',(-38.7,-19.,7.3));
#899=CARTESIAN_POINT('Origin',(-37.,-19.,7.3));
#900=CARTESIAN_POINT('Origin',(-37.,-19.,8.8));
#901=CARTESIAN_POINT('',(-38.7,-19.,10.3));
#902=CARTESIAN_POINT('',(-38.7,-19.,8.8));
#903=CARTESIAN_POINT('Origin',(-37.,-19.,10.3));
#904=CARTESIAN_POINT('Origin',(-37.,19.,8.8));
#905=CARTESIAN_POINT('',(-38.7,19.,10.3));
#906=CARTESIAN_POINT('',(-38.7,19.,8.8));
#907=CARTESIAN_POINT('Origin',(-37.,19.,10.3));
#908=CARTESIAN_POINT('Origin',(-35.4,0.,10.3));
#909=CARTESIAN_POINT('',(-38.3,23.,10.3));
#910=CARTESIAN_POINT('',(-35.4,23.,10.3));
#911=CARTESIAN_POINT('',(-40.3,21.,10.3));
#912=CARTESIAN_POINT('Origin',(-38.3,21.,10.3));
#913=CARTESIAN_POINT('',(-40.3,-21.,10.3));
#914=CARTESIAN_POINT('',(-40.3,0.,10.3));
#915=CARTESIAN_POINT('',(-38.3,-23.,10.3));
#916=CARTESIAN_POINT('Origin',(-38.3,-21.,10.3));
#917=CARTESIAN_POINT('',(-32.5,-23.,10.3));
#918=CARTESIAN_POINT('',(-35.4,-23.,10.3));
#919=CARTESIAN_POINT('',(-30.5,-21.,10.3));
#920=CARTESIAN_POINT('Origin',(-32.5,-21.,10.3));
#921=CARTESIAN_POINT('',(-30.5,0.,10.3));
#922=CARTESIAN_POINT('Origin',(-32.5,-21.,8.8));
#923=CARTESIAN_POINT('',(-30.5,-21.,8.8));
#924=CARTESIAN_POINT('',(-32.5,-23.,8.8));
#925=CARTESIAN_POINT('Origin',(-38.3,21.,8.8));
#926=CARTESIAN_POINT('',(-40.3,21.,8.8));
#927=CARTESIAN_POINT('',(-38.3,23.,8.8));
#928=CARTESIAN_POINT('Origin',(-38.3,-21.,8.8));
#929=CARTESIAN_POINT('',(-38.3,-23.,8.8));
#930=CARTESIAN_POINT('',(-40.3,-21.,8.8));
#931=CARTESIAN_POINT('Origin',(-40.3,0.,8.8));
#932=CARTESIAN_POINT('Origin',(-30.5,0.,8.8));
#933=CARTESIAN_POINT('Origin',(-35.4,-23.,8.8));
#934=CARTESIAN_POINT('Origin',(-35.4,23.,8.8));
#935=CARTESIAN_POINT('Origin',(30.8,0.,7.6));
#936=CARTESIAN_POINT('',(31.1,22.4282856857086,7.3));
#937=CARTESIAN_POINT('',(30.5,21.,7.9));
#938=CARTESIAN_POINT('Origin',(32.5,21.,5.9));
#939=CARTESIAN_POINT('',(31.1,-22.4282856857086,7.3));
#940=CARTESIAN_POINT('',(31.1,0.,7.3));
#941=CARTESIAN_POINT('',(30.5,-21.,7.9));
#942=CARTESIAN_POINT('Origin',(32.5,-21.,5.9));
#943=CARTESIAN_POINT('',(30.5,0.,7.9));
#944=CARTESIAN_POINT('Origin',(30.5,0.,8.8));
#945=CARTESIAN_POINT('',(30.5,-21.,10.3));
#946=CARTESIAN_POINT('',(30.5,-21.,8.8));
#947=CARTESIAN_POINT('',(30.5,21.,10.3));
#948=CARTESIAN_POINT('',(30.5,0.,10.3));
#949=CARTESIAN_POINT('',(30.5,21.,8.8));
#950=CARTESIAN_POINT('Origin',(32.5,-21.,8.8));
#951=CARTESIAN_POINT('',(32.5,-23.,7.3));
#952=CARTESIAN_POINT('Origin',(32.5,-21.,7.3));
#953=CARTESIAN_POINT('',(32.5,-23.,10.3));
#954=CARTESIAN_POINT('',(32.5,-23.,8.8));
#955=CARTESIAN_POINT('Origin',(32.5,-21.,10.3));
#956=CARTESIAN_POINT('Origin',(39.5,-19.,8.8));
#957=CARTESIAN_POINT('',(39.5,-17.3,10.3));
#958=CARTESIAN_POINT('',(39.5,-20.7,10.3));
#959=CARTESIAN_POINT('Origin',(39.5,-19.,10.3));
#960=CARTESIAN_POINT('',(39.5,-17.3,7.3));
#961=CARTESIAN_POINT('',(39.5,-17.3,8.8));
#962=CARTESIAN_POINT('',(39.5,-20.7,7.3));
#963=CARTESIAN_POINT('Origin',(39.5,-19.,7.3));
#964=CARTESIAN_POINT('',(39.5,-20.7,8.8));
#965=CARTESIAN_POINT('Origin',(38.5,-20.7,8.8));
#966=CARTESIAN_POINT('',(37.5,-20.7,10.3));
#967=CARTESIAN_POINT('',(37.575,-20.7,10.3));
#968=CARTESIAN_POINT('',(37.5,-20.7,7.3));
#969=CARTESIAN_POINT('',(37.575,-20.7,7.3));
#970=CARTESIAN_POINT('',(37.5,-20.7,8.8));
#971=CARTESIAN_POINT('Origin',(37.5,-19.,8.8));
#972=CARTESIAN_POINT('',(37.5,-17.3,10.3));
#973=CARTESIAN_POINT('Origin',(37.5,-19.,10.3));
#974=CARTESIAN_POINT('',(37.5,-17.3,7.3));
#975=CARTESIAN_POINT('Origin',(37.5,-19.,7.3));
#976=CARTESIAN_POINT('',(37.5,-17.3,8.8));
#977=CARTESIAN_POINT('Origin',(38.5,-17.3,8.8));
#978=CARTESIAN_POINT('',(37.575,-17.3,10.3));
#979=CARTESIAN_POINT('',(37.575,-17.3,7.3));
#980=CARTESIAN_POINT('Origin',(39.5,19.,8.8));
#981=CARTESIAN_POINT('',(39.5,20.7,10.3));
#982=CARTESIAN_POINT('',(39.5,17.3,10.3));
#983=CARTESIAN_POINT('Origin',(39.5,19.,10.3));
#984=CARTESIAN_POINT('',(39.5,20.7,7.3));
#985=CARTESIAN_POINT('',(39.5,20.7,8.8));
#986=CARTESIAN_POINT('',(39.5,17.3,7.3));
#987=CARTESIAN_POINT('Origin',(39.5,19.,7.3));
#988=CARTESIAN_POINT('',(39.5,17.3,8.8));
#989=CARTESIAN_POINT('Origin',(38.5,17.3,8.8));
#990=CARTESIAN_POINT('',(37.5,17.3,10.3));
#991=CARTESIAN_POINT('',(37.575,17.3,10.3));
#992=CARTESIAN_POINT('',(37.5,17.3,7.3));
#993=CARTESIAN_POINT('',(37.575,17.3,7.3));
#994=CARTESIAN_POINT('',(37.5,17.3,8.8));
#995=CARTESIAN_POINT('Origin',(37.5,19.,8.8));
#996=CARTESIAN_POINT('',(37.5,20.7,10.3));
#997=CARTESIAN_POINT('Origin',(37.5,19.,10.3));
#998=CARTESIAN_POINT('',(37.5,20.7,7.3));
#999=CARTESIAN_POINT('Origin',(37.5,19.,7.3));
#1000=CARTESIAN_POINT('',(37.5,20.7,8.8));
#1001=CARTESIAN_POINT('Origin',(38.5,20.7,8.8));
#1002=CARTESIAN_POINT('',(37.575,20.7,10.3));
#1003=CARTESIAN_POINT('',(37.575,20.7,7.3));
#1004=CARTESIAN_POINT('Origin',(40.8,21.,8.8));
#1005=CARTESIAN_POINT('',(42.8,21.,10.3));
#1006=CARTESIAN_POINT('',(42.8,21.,7.3));
#1007=CARTESIAN_POINT('',(42.8,21.,8.8));
#1008=CARTESIAN_POINT('',(40.8,23.,7.3));
#1009=CARTESIAN_POINT('Origin',(40.8,21.,7.3));
#1010=CARTESIAN_POINT('',(40.8,23.,10.3));
#1011=CARTESIAN_POINT('',(40.8,23.,8.8));
#1012=CARTESIAN_POINT('Origin',(40.8,21.,10.3));
#1013=CARTESIAN_POINT('Origin',(36.65,0.,10.3));
#1014=CARTESIAN_POINT('',(32.5,23.,10.3));
#1015=CARTESIAN_POINT('',(36.65,23.,10.3));
#1016=CARTESIAN_POINT('Origin',(32.5,21.,10.3));
#1017=CARTESIAN_POINT('',(40.8,-23.,10.3));
#1018=CARTESIAN_POINT('',(36.65,-23.,10.3));
#1019=CARTESIAN_POINT('',(42.8,-21.,10.3));
#1020=CARTESIAN_POINT('Origin',(40.8,-21.,10.3));
#1021=CARTESIAN_POINT('',(42.8,0.,10.3));
#1022=CARTESIAN_POINT('Origin',(40.8,-21.,8.8));
#1023=CARTESIAN_POINT('',(40.8,-23.,7.3));
#1024=CARTESIAN_POINT('',(40.8,-23.,8.8));
#1025=CARTESIAN_POINT('',(42.8,-21.,7.3));
#1026=CARTESIAN_POINT('Origin',(40.8,-21.,7.3));
#1027=CARTESIAN_POINT('',(42.8,-21.,8.8));
#1028=CARTESIAN_POINT('Origin',(32.5,21.,8.8));
#1029=CARTESIAN_POINT('',(32.5,23.,7.3));
#1030=CARTESIAN_POINT('',(32.5,23.,8.8));
#1031=CARTESIAN_POINT('Origin',(32.5,21.,7.3));
#1032=CARTESIAN_POINT('Origin',(36.65,0.,7.3));
#1033=CARTESIAN_POINT('',(36.65,23.,7.3));
#1034=CARTESIAN_POINT('',(42.8,0.,7.3));
#1035=CARTESIAN_POINT('',(36.65,-23.,7.3));
#1036=CARTESIAN_POINT('Origin',(42.8,0.,8.8));
#1037=CARTESIAN_POINT('Origin',(36.65,-23.,8.8));
#1038=CARTESIAN_POINT('Origin',(36.65,23.,8.8));
#1039=UNCERTAINTY_MEASURE_WITH_UNIT(LENGTH_MEASURE(0.01),#1043,
'DISTANCE_ACCURACY_VALUE',
'Maximum model space distance between geometric entities at asserted c
onnectivities');
#1040=UNCERTAINTY_MEASURE_WITH_UNIT(LENGTH_MEASURE(0.01),#1043,
'DISTANCE_ACCURACY_VALUE',
'Maximum model space distance between geometric entities at asserted c
onnectivities');
#1041=(
GEOMETRIC_REPRESENTATION_CONTEXT(3)
GLOBAL_UNCERTAINTY_ASSIGNED_CONTEXT((#1039))
GLOBAL_UNIT_ASSIGNED_CONTEXT((#1043,#1045,#1046))
REPRESENTATION_CONTEXT('','3D')
);
#1042=(
GEOMETRIC_REPRESENTATION_CONTEXT(3)
GLOBAL_UNCERTAINTY_ASSIGNED_CONTEXT((#1040))
GLOBAL_UNIT_ASSIGNED_CONTEXT((#1043,#1045,#1046))
REPRESENTATION_CONTEXT('','3D')
);
#1043=(
LENGTH_UNIT()
NAMED_UNIT(*)
SI_UNIT(.MILLI.,.METRE.)
);
#1044=(
LENGTH_UNIT()
NAMED_UNIT(*)
SI_UNIT($,.METRE.)
);
#1045=(
NAMED_UNIT(*)
PLANE_ANGLE_UNIT()
SI_UNIT($,.RADIAN.)
);
#1046=(
NAMED_UNIT(*)
SI_UNIT($,.STERADIAN.)
SOLID_ANGLE_UNIT()
);
#1047=SHAPE_DEFINITION_REPRESENTATION(#1048,#1049);
#1048=PRODUCT_DEFINITION_SHAPE('',$,#1051);
#1049=SHAPE_REPRESENTATION('',(#619),#1041);
#1050=PRODUCT_DEFINITION_CONTEXT('part definition',#1055,'design');
#1051=PRODUCT_DEFINITION('EXPORT_PCB_Clamps','EXPORT_PCB_Clamps',#1052,
#1050);
#1052=PRODUCT_DEFINITION_FORMATION('',$,#1057);
#1053=PRODUCT_RELATED_PRODUCT_CATEGORY('EXPORT_PCB_Clamps',
'EXPORT_PCB_Clamps',(#1057));
#1054=APPLICATION_PROTOCOL_DEFINITION('international standard',
'automotive_design',2009,#1055);
#1055=APPLICATION_CONTEXT(
'Core Data for Automotive Mechanical Design Process');
#1056=PRODUCT_CONTEXT('part definition',#1055,'mechanical');
#1057=PRODUCT('EXPORT_PCB_Clamps','EXPORT_PCB_Clamps',$,(#1056));
#1058=PRESENTATION_STYLE_ASSIGNMENT((#1059));
#1059=SURFACE_STYLE_USAGE(.BOTH.,#1060);
#1060=SURFACE_SIDE_STYLE('',(#1061));
#1061=SURFACE_STYLE_FILL_AREA(#1062);
#1062=FILL_AREA_STYLE('Steel - Satin',(#1063));
#1063=FILL_AREA_STYLE_COLOUR('Steel - Satin',#1064);
#1064=COLOUR_RGB('Steel - Satin',0.627450980392157,0.627450980392157,0.627450980392157);
ENDSEC;
END-ISO-10303-21;
