ISO-10303-21;
HEADER;
/* Generated by software containing ST-Developer
 * from STEP Tools, Inc. (www.steptools.com) 
 */

FILE_DESCRIPTION(
/* description */ (
'PROTOTYPE TOOL. Not a production part; excluded from the specificatio
n section 9 material gates.'),
/* implementation_level */ '2;1');

FILE_NAME(
/* name */ 'ESP32_Controller_Carrier_Fit_Gauge.step',
/* time_stamp */ '2026-09-01T15:04:24+01:00',
/* author */ (''),
/* organization */ (''),
/* preprocessor_version */ 'ST-DEVELOPER v20.1',
/* originating_system */ 'Autodesk Translation Framework v15.8.0.0',
/* authorisation */ '');

FILE_SCHEMA (('AUTOMOTIVE_DESIGN { 1 0 10303 214 3 1 1 }'));
ENDSEC;

DATA;
#10=MECHANICAL_DESIGN_GEOMETRIC_PRESENTATION_REPRESENTATION('',(#13),#1218);
#11=SHAPE_REPRESENTATION_RELATIONSHIP('SRR','None',#1225,#12);
#12=ADVANCED_BREP_SHAPE_REPRESENTATION('',(#14),#1217);
#13=STYLED_ITEM('',(#1234),#14);
#14=MANIFOLD_SOLID_BREP('ESP32_Controller_Carrier_Fit_Gauge',#762);
#15=FACE_BOUND('',#95,.T.);
#16=PLANE('',#779);
#17=PLANE('',#780);
#18=PLANE('',#781);
#19=PLANE('',#782);
#20=PLANE('',#783);
#21=PLANE('',#784);
#22=PLANE('',#785);
#23=PLANE('',#786);
#24=PLANE('',#787);
#25=PLANE('',#788);
#26=PLANE('',#789);
#27=PLANE('',#790);
#28=PLANE('',#791);
#29=PLANE('',#792);
#30=PLANE('',#793);
#31=PLANE('',#794);
#32=PLANE('',#795);
#33=PLANE('',#796);
#34=PLANE('',#797);
#35=PLANE('',#798);
#36=PLANE('',#799);
#37=PLANE('',#800);
#38=PLANE('',#801);
#39=PLANE('',#802);
#40=PLANE('',#803);
#41=PLANE('',#804);
#42=PLANE('',#805);
#43=PLANE('',#806);
#44=PLANE('',#807);
#45=PLANE('',#808);
#46=PLANE('',#809);
#47=PLANE('',#810);
#48=PLANE('',#811);
#49=PLANE('',#812);
#50=PLANE('',#813);
#51=PLANE('',#814);
#52=PLANE('',#815);
#53=FACE_OUTER_BOUND('',#91,.T.);
#54=FACE_OUTER_BOUND('',#92,.T.);
#55=FACE_OUTER_BOUND('',#93,.T.);
#56=FACE_OUTER_BOUND('',#94,.T.);
#57=FACE_OUTER_BOUND('',#96,.T.);
#58=FACE_OUTER_BOUND('',#97,.T.);
#59=FACE_OUTER_BOUND('',#98,.T.);
#60=FACE_OUTER_BOUND('',#99,.T.);
#61=FACE_OUTER_BOUND('',#100,.T.);
#62=FACE_OUTER_BOUND('',#101,.T.);
#63=FACE_OUTER_BOUND('',#102,.T.);
#64=FACE_OUTER_BOUND('',#103,.T.);
#65=FACE_OUTER_BOUND('',#104,.T.);
#66=FACE_OUTER_BOUND('',#105,.T.);
#67=FACE_OUTER_BOUND('',#106,.T.);
#68=FACE_OUTER_BOUND('',#107,.T.);
#69=FACE_OUTER_BOUND('',#108,.T.);
#70=FACE_OUTER_BOUND('',#109,.T.);
#71=FACE_OUTER_BOUND('',#110,.T.);
#72=FACE_OUTER_BOUND('',#111,.T.);
#73=FACE_OUTER_BOUND('',#112,.T.);
#74=FACE_OUTER_BOUND('',#113,.T.);
#75=FACE_OUTER_BOUND('',#114,.T.);
#76=FACE_OUTER_BOUND('',#115,.T.);
#77=FACE_OUTER_BOUND('',#116,.T.);
#78=FACE_OUTER_BOUND('',#117,.T.);
#79=FACE_OUTER_BOUND('',#118,.T.);
#80=FACE_OUTER_BOUND('',#119,.T.);
#81=FACE_OUTER_BOUND('',#120,.T.);
#82=FACE_OUTER_BOUND('',#121,.T.);
#83=FACE_OUTER_BOUND('',#122,.T.);
#84=FACE_OUTER_BOUND('',#123,.T.);
#85=FACE_OUTER_BOUND('',#124,.T.);
#86=FACE_OUTER_BOUND('',#125,.T.);
#87=FACE_OUTER_BOUND('',#126,.T.);
#88=FACE_OUTER_BOUND('',#127,.T.);
#89=FACE_OUTER_BOUND('',#128,.T.);
#90=FACE_OUTER_BOUND('',#129,.T.);
#91=EDGE_LOOP('',(#513,#514,#515,#516));
#92=EDGE_LOOP('',(#517));
#93=EDGE_LOOP('',(#518,#519,#520,#521,#522,#523,#524,#525,#526,#527,#528,
#529,#530,#531,#532,#533,#534,#535));
#94=EDGE_LOOP('',(#536,#537,#538,#539));
#95=EDGE_LOOP('',(#540));
#96=EDGE_LOOP('',(#541,#542,#543,#544));
#97=EDGE_LOOP('',(#545,#546,#547,#548));
#98=EDGE_LOOP('',(#549,#550,#551,#552));
#99=EDGE_LOOP('',(#553,#554,#555,#556,#557,#558,#559,#560));
#100=EDGE_LOOP('',(#561,#562,#563,#564));
#101=EDGE_LOOP('',(#565,#566,#567,#568,#569,#570,#571,#572,#573,#574,#575,
#576,#577,#578));
#102=EDGE_LOOP('',(#579,#580,#581,#582));
#103=EDGE_LOOP('',(#583,#584,#585,#586));
#104=EDGE_LOOP('',(#587,#588,#589,#590));
#105=EDGE_LOOP('',(#591,#592,#593,#594));
#106=EDGE_LOOP('',(#595,#596,#597,#598));
#107=EDGE_LOOP('',(#599,#600,#601,#602,#603,#604));
#108=EDGE_LOOP('',(#605,#606,#607,#608));
#109=EDGE_LOOP('',(#609,#610,#611,#612));
#110=EDGE_LOOP('',(#613,#614,#615,#616));
#111=EDGE_LOOP('',(#617,#618,#619,#620));
#112=EDGE_LOOP('',(#621,#622,#623,#624));
#113=EDGE_LOOP('',(#625,#626,#627,#628));
#114=EDGE_LOOP('',(#629,#630,#631,#632));
#115=EDGE_LOOP('',(#633,#634,#635,#636));
#116=EDGE_LOOP('',(#637,#638,#639,#640));
#117=EDGE_LOOP('',(#641,#642,#643,#644,#645,#646,#647,#648,#649,#650,#651,
#652,#653,#654,#655,#656));
#118=EDGE_LOOP('',(#657,#658,#659,#660));
#119=EDGE_LOOP('',(#661,#662,#663,#664,#665));
#120=EDGE_LOOP('',(#666,#667,#668,#669));
#121=EDGE_LOOP('',(#670,#671,#672,#673,#674));
#122=EDGE_LOOP('',(#675,#676,#677,#678));
#123=EDGE_LOOP('',(#679,#680,#681,#682,#683,#684,#685,#686));
#124=EDGE_LOOP('',(#687,#688,#689,#690));
#125=EDGE_LOOP('',(#691,#692,#693,#694));
#126=EDGE_LOOP('',(#695,#696,#697,#698,#699,#700,#701,#702,#703,#704));
#127=EDGE_LOOP('',(#705,#706,#707,#708));
#128=EDGE_LOOP('',(#709,#710,#711,#712,#713,#714,#715,#716,#717,#718));
#129=EDGE_LOOP('',(#719,#720,#721,#722));
#130=LINE('',#1006,#233);
#131=LINE('',#1012,#234);
#132=LINE('',#1014,#235);
#133=LINE('',#1016,#236);
#134=LINE('',#1018,#237);
#135=LINE('',#1020,#238);
#136=LINE('',#1022,#239);
#137=LINE('',#1024,#240);
#138=LINE('',#1026,#241);
#139=LINE('',#1028,#242);
#140=LINE('',#1030,#243);
#141=LINE('',#1032,#244);
#142=LINE('',#1034,#245);
#143=LINE('',#1036,#246);
#144=LINE('',#1038,#247);
#145=LINE('',#1040,#248);
#146=LINE('',#1042,#249);
#147=LINE('',#1044,#250);
#148=LINE('',#1045,#251);
#149=LINE('',#1049,#252);
#150=LINE('',#1050,#253);
#151=LINE('',#1051,#254);
#152=LINE('',#1054,#255);
#153=LINE('',#1056,#256);
#154=LINE('',#1057,#257);
#155=LINE('',#1060,#258);
#156=LINE('',#1062,#259);
#157=LINE('',#1063,#260);
#158=LINE('',#1066,#261);
#159=LINE('',#1067,#262);
#160=LINE('',#1070,#263);
#161=LINE('',#1072,#264);
#162=LINE('',#1074,#265);
#163=LINE('',#1076,#266);
#164=LINE('',#1078,#267);
#165=LINE('',#1079,#268);
#166=LINE('',#1082,#269);
#167=LINE('',#1083,#270);
#168=LINE('',#1086,#271);
#169=LINE('',#1088,#272);
#170=LINE('',#1090,#273);
#171=LINE('',#1091,#274);
#172=LINE('',#1093,#275);
#173=LINE('',#1095,#276);
#174=LINE('',#1096,#277);
#175=LINE('',#1098,#278);
#176=LINE('',#1100,#279);
#177=LINE('',#1101,#280);
#178=LINE('',#1104,#281);
#179=LINE('',#1106,#282);
#180=LINE('',#1107,#283);
#181=LINE('',#1110,#284);
#182=LINE('',#1111,#285);
#183=LINE('',#1114,#286);
#184=LINE('',#1116,#287);
#185=LINE('',#1117,#288);
#186=LINE('',#1119,#289);
#187=LINE('',#1120,#290);
#188=LINE('',#1124,#291);
#189=LINE('',#1125,#292);
#190=LINE('',#1128,#293);
#191=LINE('',#1129,#294);
#192=LINE('',#1131,#295);
#193=LINE('',#1135,#296);
#194=LINE('',#1136,#297);
#195=LINE('',#1139,#298);
#196=LINE('',#1140,#299);
#197=LINE('',#1142,#300);
#198=LINE('',#1146,#301);
#199=LINE('',#1147,#302);
#200=LINE('',#1150,#303);
#201=LINE('',#1151,#304);
#202=LINE('',#1154,#305);
#203=LINE('',#1156,#306);
#204=LINE('',#1158,#307);
#205=LINE('',#1160,#308);
#206=LINE('',#1162,#309);
#207=LINE('',#1164,#310);
#208=LINE('',#1166,#311);
#209=LINE('',#1167,#312);
#210=LINE('',#1171,#313);
#211=LINE('',#1173,#314);
#212=LINE('',#1175,#315);
#213=LINE('',#1176,#316);
#214=LINE('',#1178,#317);
#215=LINE('',#1180,#318);
#216=LINE('',#1181,#319);
#217=LINE('',#1183,#320);
#218=LINE('',#1186,#321);
#219=LINE('',#1187,#322);
#220=LINE('',#1189,#323);
#221=LINE('',#1192,#324);
#222=LINE('',#1194,#325);
#223=LINE('',#1195,#326);
#224=LINE('',#1197,#327);
#225=LINE('',#1201,#328);
#226=LINE('',#1203,#329);
#227=LINE('',#1205,#330);
#228=LINE('',#1206,#331);
#229=LINE('',#1208,#332);
#230=LINE('',#1209,#333);
#231=LINE('',#1211,#334);
#232=LINE('',#1213,#335);
#233=VECTOR('',#822,2.);
#234=VECTOR('',#829,10.);
#235=VECTOR('',#830,10.);
#236=VECTOR('',#831,10.);
#237=VECTOR('',#832,10.);
#238=VECTOR('',#833,10.);
#239=VECTOR('',#834,10.);
#240=VECTOR('',#835,10.);
#241=VECTOR('',#836,10.);
#242=VECTOR('',#837,10.);
#243=VECTOR('',#838,10.);
#244=VECTOR('',#839,10.);
#245=VECTOR('',#840,10.);
#246=VECTOR('',#841,10.);
#247=VECTOR('',#842,10.);
#248=VECTOR('',#843,10.);
#249=VECTOR('',#844,10.);
#250=VECTOR('',#845,10.);
#251=VECTOR('',#846,10.);
#252=VECTOR('',#849,10.);
#253=VECTOR('',#850,10.);
#254=VECTOR('',#851,10.);
#255=VECTOR('',#854,10.);
#256=VECTOR('',#855,10.);
#257=VECTOR('',#856,10.);
#258=VECTOR('',#859,10.);
#259=VECTOR('',#860,10.);
#260=VECTOR('',#861,10.);
#261=VECTOR('',#864,10.);
#262=VECTOR('',#865,10.);
#263=VECTOR('',#868,10.);
#264=VECTOR('',#869,10.);
#265=VECTOR('',#870,10.);
#266=VECTOR('',#871,10.);
#267=VECTOR('',#872,10.);
#268=VECTOR('',#873,10.);
#269=VECTOR('',#876,10.);
#270=VECTOR('',#877,10.);
#271=VECTOR('',#880,10.);
#272=VECTOR('',#881,10.);
#273=VECTOR('',#882,10.);
#274=VECTOR('',#883,10.);
#275=VECTOR('',#884,10.);
#276=VECTOR('',#885,10.);
#277=VECTOR('',#886,10.);
#278=VECTOR('',#887,10.);
#279=VECTOR('',#888,10.);
#280=VECTOR('',#889,10.);
#281=VECTOR('',#892,10.);
#282=VECTOR('',#893,10.);
#283=VECTOR('',#894,10.);
#284=VECTOR('',#897,10.);
#285=VECTOR('',#898,10.);
#286=VECTOR('',#901,10.);
#287=VECTOR('',#902,10.);
#288=VECTOR('',#903,10.);
#289=VECTOR('',#906,10.);
#290=VECTOR('',#907,10.);
#291=VECTOR('',#912,10.);
#292=VECTOR('',#913,10.);
#293=VECTOR('',#916,10.);
#294=VECTOR('',#917,10.);
#295=VECTOR('',#920,10.);
#296=VECTOR('',#925,10.);
#297=VECTOR('',#926,10.);
#298=VECTOR('',#929,10.);
#299=VECTOR('',#930,10.);
#300=VECTOR('',#933,10.);
#301=VECTOR('',#938,10.);
#302=VECTOR('',#939,10.);
#303=VECTOR('',#942,10.);
#304=VECTOR('',#943,10.);
#305=VECTOR('',#946,10.);
#306=VECTOR('',#947,10.);
#307=VECTOR('',#948,10.);
#308=VECTOR('',#949,10.);
#309=VECTOR('',#950,10.);
#310=VECTOR('',#951,10.);
#311=VECTOR('',#952,10.);
#312=VECTOR('',#953,10.);
#313=VECTOR('',#956,10.);
#314=VECTOR('',#957,10.);
#315=VECTOR('',#958,10.);
#316=VECTOR('',#959,10.);
#317=VECTOR('',#962,10.);
#318=VECTOR('',#963,10.);
#319=VECTOR('',#964,10.);
#320=VECTOR('',#967,10.);
#321=VECTOR('',#970,10.);
#322=VECTOR('',#971,10.);
#323=VECTOR('',#974,10.);
#324=VECTOR('',#977,10.);
#325=VECTOR('',#978,10.);
#326=VECTOR('',#979,10.);
#327=VECTOR('',#982,10.);
#328=VECTOR('',#985,10.);
#329=VECTOR('',#986,10.);
#330=VECTOR('',#987,10.);
#331=VECTOR('',#988,10.);
#332=VECTOR('',#991,10.);
#333=VECTOR('',#992,10.);
#334=VECTOR('',#995,10.);
#335=VECTOR('',#998,10.);
#336=CIRCLE('',#777,2.);
#337=CIRCLE('',#778,2.);
#338=VERTEX_POINT('',#1003);
#339=VERTEX_POINT('',#1005);
#340=VERTEX_POINT('',#1010);
#341=VERTEX_POINT('',#1011);
#342=VERTEX_POINT('',#1013);
#343=VERTEX_POINT('',#1015);
#344=VERTEX_POINT('',#1017);
#345=VERTEX_POINT('',#1019);
#346=VERTEX_POINT('',#1021);
#347=VERTEX_POINT('',#1023);
#348=VERTEX_POINT('',#1025);
#349=VERTEX_POINT('',#1027);
#350=VERTEX_POINT('',#1029);
#351=VERTEX_POINT('',#1031);
#352=VERTEX_POINT('',#1033);
#353=VERTEX_POINT('',#1035);
#354=VERTEX_POINT('',#1037);
#355=VERTEX_POINT('',#1039);
#356=VERTEX_POINT('',#1041);
#357=VERTEX_POINT('',#1043);
#358=VERTEX_POINT('',#1047);
#359=VERTEX_POINT('',#1048);
#360=VERTEX_POINT('',#1053);
#361=VERTEX_POINT('',#1055);
#362=VERTEX_POINT('',#1059);
#363=VERTEX_POINT('',#1061);
#364=VERTEX_POINT('',#1065);
#365=VERTEX_POINT('',#1069);
#366=VERTEX_POINT('',#1071);
#367=VERTEX_POINT('',#1073);
#368=VERTEX_POINT('',#1075);
#369=VERTEX_POINT('',#1077);
#370=VERTEX_POINT('',#1081);
#371=VERTEX_POINT('',#1085);
#372=VERTEX_POINT('',#1087);
#373=VERTEX_POINT('',#1089);
#374=VERTEX_POINT('',#1092);
#375=VERTEX_POINT('',#1094);
#376=VERTEX_POINT('',#1097);
#377=VERTEX_POINT('',#1099);
#378=VERTEX_POINT('',#1103);
#379=VERTEX_POINT('',#1105);
#380=VERTEX_POINT('',#1109);
#381=VERTEX_POINT('',#1113);
#382=VERTEX_POINT('',#1115);
#383=VERTEX_POINT('',#1123);
#384=VERTEX_POINT('',#1127);
#385=VERTEX_POINT('',#1134);
#386=VERTEX_POINT('',#1138);
#387=VERTEX_POINT('',#1145);
#388=VERTEX_POINT('',#1149);
#389=VERTEX_POINT('',#1153);
#390=VERTEX_POINT('',#1155);
#391=VERTEX_POINT('',#1157);
#392=VERTEX_POINT('',#1159);
#393=VERTEX_POINT('',#1161);
#394=VERTEX_POINT('',#1163);
#395=VERTEX_POINT('',#1165);
#396=VERTEX_POINT('',#1169);
#397=VERTEX_POINT('',#1170);
#398=VERTEX_POINT('',#1172);
#399=VERTEX_POINT('',#1174);
#400=VERTEX_POINT('',#1179);
#401=VERTEX_POINT('',#1185);
#402=VERTEX_POINT('',#1191);
#403=VERTEX_POINT('',#1193);
#404=VERTEX_POINT('',#1199);
#405=VERTEX_POINT('',#1200);
#406=VERTEX_POINT('',#1202);
#407=VERTEX_POINT('',#1204);
#408=EDGE_CURVE('',#338,#338,#336,.T.);
#409=EDGE_CURVE('',#338,#339,#130,.T.);
#410=EDGE_CURVE('',#339,#339,#337,.T.);
#411=EDGE_CURVE('',#340,#341,#131,.T.);
#412=EDGE_CURVE('',#342,#340,#132,.T.);
#413=EDGE_CURVE('',#343,#342,#133,.T.);
#414=EDGE_CURVE('',#344,#343,#134,.T.);
#415=EDGE_CURVE('',#345,#344,#135,.T.);
#416=EDGE_CURVE('',#346,#345,#136,.T.);
#417=EDGE_CURVE('',#347,#346,#137,.T.);
#418=EDGE_CURVE('',#348,#347,#138,.T.);
#419=EDGE_CURVE('',#349,#348,#139,.T.);
#420=EDGE_CURVE('',#350,#349,#140,.T.);
#421=EDGE_CURVE('',#351,#350,#141,.T.);
#422=EDGE_CURVE('',#352,#351,#142,.T.);
#423=EDGE_CURVE('',#353,#352,#143,.T.);
#424=EDGE_CURVE('',#354,#353,#144,.T.);
#425=EDGE_CURVE('',#355,#354,#145,.T.);
#426=EDGE_CURVE('',#356,#355,#146,.T.);
#427=EDGE_CURVE('',#356,#357,#147,.T.);
#428=EDGE_CURVE('',#341,#357,#148,.T.);
#429=EDGE_CURVE('',#358,#359,#149,.T.);
#430=EDGE_CURVE('',#359,#356,#150,.T.);
#431=EDGE_CURVE('',#355,#358,#151,.T.);
#432=EDGE_CURVE('',#358,#360,#152,.T.);
#433=EDGE_CURVE('',#361,#360,#153,.T.);
#434=EDGE_CURVE('',#359,#361,#154,.T.);
#435=EDGE_CURVE('',#362,#352,#155,.T.);
#436=EDGE_CURVE('',#363,#362,#156,.T.);
#437=EDGE_CURVE('',#353,#363,#157,.T.);
#438=EDGE_CURVE('',#351,#364,#158,.T.);
#439=EDGE_CURVE('',#362,#364,#159,.T.);
#440=EDGE_CURVE('',#365,#350,#160,.T.);
#441=EDGE_CURVE('',#365,#366,#161,.T.);
#442=EDGE_CURVE('',#366,#367,#162,.T.);
#443=EDGE_CURVE('',#367,#368,#163,.T.);
#444=EDGE_CURVE('',#369,#368,#164,.T.);
#445=EDGE_CURVE('',#364,#369,#165,.T.);
#446=EDGE_CURVE('',#363,#370,#166,.T.);
#447=EDGE_CURVE('',#370,#354,#167,.T.);
#448=EDGE_CURVE('',#345,#371,#168,.T.);
#449=EDGE_CURVE('',#371,#372,#169,.T.);
#450=EDGE_CURVE('',#372,#373,#170,.T.);
#451=EDGE_CURVE('',#373,#369,#171,.T.);
#452=EDGE_CURVE('',#368,#374,#172,.T.);
#453=EDGE_CURVE('',#374,#375,#173,.T.);
#454=EDGE_CURVE('',#375,#365,#174,.T.);
#455=EDGE_CURVE('',#349,#376,#175,.T.);
#456=EDGE_CURVE('',#376,#377,#176,.T.);
#457=EDGE_CURVE('',#377,#346,#177,.T.);
#458=EDGE_CURVE('',#360,#378,#178,.T.);
#459=EDGE_CURVE('',#378,#379,#179,.T.);
#460=EDGE_CURVE('',#379,#361,#180,.T.);
#461=EDGE_CURVE('',#380,#348,#181,.T.);
#462=EDGE_CURVE('',#380,#376,#182,.T.);
#463=EDGE_CURVE('',#372,#381,#183,.T.);
#464=EDGE_CURVE('',#382,#371,#184,.T.);
#465=EDGE_CURVE('',#381,#382,#185,.T.);
#466=EDGE_CURVE('',#381,#343,#186,.T.);
#467=EDGE_CURVE('',#382,#344,#187,.T.);
#468=EDGE_CURVE('',#383,#342,#188,.T.);
#469=EDGE_CURVE('',#373,#383,#189,.T.);
#470=EDGE_CURVE('',#347,#384,#190,.T.);
#471=EDGE_CURVE('',#384,#380,#191,.T.);
#472=EDGE_CURVE('',#384,#377,#192,.T.);
#473=EDGE_CURVE('',#385,#375,#193,.T.);
#474=EDGE_CURVE('',#366,#385,#194,.T.);
#475=EDGE_CURVE('',#385,#386,#195,.T.);
#476=EDGE_CURVE('',#386,#367,#196,.T.);
#477=EDGE_CURVE('',#386,#374,#197,.T.);
#478=EDGE_CURVE('',#340,#387,#198,.T.);
#479=EDGE_CURVE('',#383,#387,#199,.T.);
#480=EDGE_CURVE('',#388,#341,#200,.T.);
#481=EDGE_CURVE('',#387,#388,#201,.T.);
#482=EDGE_CURVE('',#389,#388,#202,.T.);
#483=EDGE_CURVE('',#390,#389,#203,.T.);
#484=EDGE_CURVE('',#391,#390,#204,.T.);
#485=EDGE_CURVE('',#391,#392,#205,.T.);
#486=EDGE_CURVE('',#392,#393,#206,.T.);
#487=EDGE_CURVE('',#393,#394,#207,.T.);
#488=EDGE_CURVE('',#395,#394,#208,.T.);
#489=EDGE_CURVE('',#395,#370,#209,.T.);
#490=EDGE_CURVE('',#396,#397,#210,.T.);
#491=EDGE_CURVE('',#397,#398,#211,.T.);
#492=EDGE_CURVE('',#398,#399,#212,.T.);
#493=EDGE_CURVE('',#399,#396,#213,.T.);
#494=EDGE_CURVE('',#392,#397,#214,.T.);
#495=EDGE_CURVE('',#400,#391,#215,.T.);
#496=EDGE_CURVE('',#400,#398,#216,.T.);
#497=EDGE_CURVE('',#396,#393,#217,.T.);
#498=EDGE_CURVE('',#401,#399,#218,.T.);
#499=EDGE_CURVE('',#394,#401,#219,.T.);
#500=EDGE_CURVE('',#401,#400,#220,.T.);
#501=EDGE_CURVE('',#390,#402,#221,.T.);
#502=EDGE_CURVE('',#402,#403,#222,.T.);
#503=EDGE_CURVE('',#403,#395,#223,.T.);
#504=EDGE_CURVE('',#357,#389,#224,.T.);
#505=EDGE_CURVE('',#404,#405,#225,.T.);
#506=EDGE_CURVE('',#405,#406,#226,.T.);
#507=EDGE_CURVE('',#406,#407,#227,.T.);
#508=EDGE_CURVE('',#407,#404,#228,.T.);
#509=EDGE_CURVE('',#403,#406,#229,.T.);
#510=EDGE_CURVE('',#378,#405,#230,.T.);
#511=EDGE_CURVE('',#402,#407,#231,.T.);
#512=EDGE_CURVE('',#379,#404,#232,.T.);
#513=ORIENTED_EDGE('',*,*,#408,.T.);
#514=ORIENTED_EDGE('',*,*,#409,.T.);
#515=ORIENTED_EDGE('',*,*,#410,.F.);
#516=ORIENTED_EDGE('',*,*,#409,.F.);
#517=ORIENTED_EDGE('',*,*,#408,.F.);
#518=ORIENTED_EDGE('',*,*,#411,.F.);
#519=ORIENTED_EDGE('',*,*,#412,.F.);
#520=ORIENTED_EDGE('',*,*,#413,.F.);
#521=ORIENTED_EDGE('',*,*,#414,.F.);
#522=ORIENTED_EDGE('',*,*,#415,.F.);
#523=ORIENTED_EDGE('',*,*,#416,.F.);
#524=ORIENTED_EDGE('',*,*,#417,.F.);
#525=ORIENTED_EDGE('',*,*,#418,.F.);
#526=ORIENTED_EDGE('',*,*,#419,.F.);
#527=ORIENTED_EDGE('',*,*,#420,.F.);
#528=ORIENTED_EDGE('',*,*,#421,.F.);
#529=ORIENTED_EDGE('',*,*,#422,.F.);
#530=ORIENTED_EDGE('',*,*,#423,.F.);
#531=ORIENTED_EDGE('',*,*,#424,.F.);
#532=ORIENTED_EDGE('',*,*,#425,.F.);
#533=ORIENTED_EDGE('',*,*,#426,.F.);
#534=ORIENTED_EDGE('',*,*,#427,.T.);
#535=ORIENTED_EDGE('',*,*,#428,.F.);
#536=ORIENTED_EDGE('',*,*,#429,.T.);
#537=ORIENTED_EDGE('',*,*,#430,.T.);
#538=ORIENTED_EDGE('',*,*,#426,.T.);
#539=ORIENTED_EDGE('',*,*,#431,.T.);
#540=ORIENTED_EDGE('',*,*,#410,.T.);
#541=ORIENTED_EDGE('',*,*,#432,.T.);
#542=ORIENTED_EDGE('',*,*,#433,.F.);
#543=ORIENTED_EDGE('',*,*,#434,.F.);
#544=ORIENTED_EDGE('',*,*,#429,.F.);
#545=ORIENTED_EDGE('',*,*,#423,.T.);
#546=ORIENTED_EDGE('',*,*,#435,.F.);
#547=ORIENTED_EDGE('',*,*,#436,.F.);
#548=ORIENTED_EDGE('',*,*,#437,.F.);
#549=ORIENTED_EDGE('',*,*,#422,.T.);
#550=ORIENTED_EDGE('',*,*,#438,.T.);
#551=ORIENTED_EDGE('',*,*,#439,.F.);
#552=ORIENTED_EDGE('',*,*,#435,.T.);
#553=ORIENTED_EDGE('',*,*,#421,.T.);
#554=ORIENTED_EDGE('',*,*,#440,.F.);
#555=ORIENTED_EDGE('',*,*,#441,.T.);
#556=ORIENTED_EDGE('',*,*,#442,.T.);
#557=ORIENTED_EDGE('',*,*,#443,.T.);
#558=ORIENTED_EDGE('',*,*,#444,.F.);
#559=ORIENTED_EDGE('',*,*,#445,.F.);
#560=ORIENTED_EDGE('',*,*,#438,.F.);
#561=ORIENTED_EDGE('',*,*,#424,.T.);
#562=ORIENTED_EDGE('',*,*,#437,.T.);
#563=ORIENTED_EDGE('',*,*,#446,.T.);
#564=ORIENTED_EDGE('',*,*,#447,.T.);
#565=ORIENTED_EDGE('',*,*,#416,.T.);
#566=ORIENTED_EDGE('',*,*,#448,.T.);
#567=ORIENTED_EDGE('',*,*,#449,.T.);
#568=ORIENTED_EDGE('',*,*,#450,.T.);
#569=ORIENTED_EDGE('',*,*,#451,.T.);
#570=ORIENTED_EDGE('',*,*,#444,.T.);
#571=ORIENTED_EDGE('',*,*,#452,.T.);
#572=ORIENTED_EDGE('',*,*,#453,.T.);
#573=ORIENTED_EDGE('',*,*,#454,.T.);
#574=ORIENTED_EDGE('',*,*,#440,.T.);
#575=ORIENTED_EDGE('',*,*,#420,.T.);
#576=ORIENTED_EDGE('',*,*,#455,.T.);
#577=ORIENTED_EDGE('',*,*,#456,.T.);
#578=ORIENTED_EDGE('',*,*,#457,.T.);
#579=ORIENTED_EDGE('',*,*,#433,.T.);
#580=ORIENTED_EDGE('',*,*,#458,.T.);
#581=ORIENTED_EDGE('',*,*,#459,.T.);
#582=ORIENTED_EDGE('',*,*,#460,.T.);
#583=ORIENTED_EDGE('',*,*,#419,.T.);
#584=ORIENTED_EDGE('',*,*,#461,.F.);
#585=ORIENTED_EDGE('',*,*,#462,.T.);
#586=ORIENTED_EDGE('',*,*,#455,.F.);
#587=ORIENTED_EDGE('',*,*,#463,.F.);
#588=ORIENTED_EDGE('',*,*,#449,.F.);
#589=ORIENTED_EDGE('',*,*,#464,.F.);
#590=ORIENTED_EDGE('',*,*,#465,.F.);
#591=ORIENTED_EDGE('',*,*,#414,.T.);
#592=ORIENTED_EDGE('',*,*,#466,.F.);
#593=ORIENTED_EDGE('',*,*,#465,.T.);
#594=ORIENTED_EDGE('',*,*,#467,.T.);
#595=ORIENTED_EDGE('',*,*,#415,.T.);
#596=ORIENTED_EDGE('',*,*,#467,.F.);
#597=ORIENTED_EDGE('',*,*,#464,.T.);
#598=ORIENTED_EDGE('',*,*,#448,.F.);
#599=ORIENTED_EDGE('',*,*,#413,.T.);
#600=ORIENTED_EDGE('',*,*,#468,.F.);
#601=ORIENTED_EDGE('',*,*,#469,.F.);
#602=ORIENTED_EDGE('',*,*,#450,.F.);
#603=ORIENTED_EDGE('',*,*,#463,.T.);
#604=ORIENTED_EDGE('',*,*,#466,.T.);
#605=ORIENTED_EDGE('',*,*,#418,.T.);
#606=ORIENTED_EDGE('',*,*,#470,.T.);
#607=ORIENTED_EDGE('',*,*,#471,.T.);
#608=ORIENTED_EDGE('',*,*,#461,.T.);
#609=ORIENTED_EDGE('',*,*,#472,.T.);
#610=ORIENTED_EDGE('',*,*,#456,.F.);
#611=ORIENTED_EDGE('',*,*,#462,.F.);
#612=ORIENTED_EDGE('',*,*,#471,.F.);
#613=ORIENTED_EDGE('',*,*,#417,.T.);
#614=ORIENTED_EDGE('',*,*,#457,.F.);
#615=ORIENTED_EDGE('',*,*,#472,.F.);
#616=ORIENTED_EDGE('',*,*,#470,.F.);
#617=ORIENTED_EDGE('',*,*,#441,.F.);
#618=ORIENTED_EDGE('',*,*,#454,.F.);
#619=ORIENTED_EDGE('',*,*,#473,.F.);
#620=ORIENTED_EDGE('',*,*,#474,.F.);
#621=ORIENTED_EDGE('',*,*,#442,.F.);
#622=ORIENTED_EDGE('',*,*,#474,.T.);
#623=ORIENTED_EDGE('',*,*,#475,.T.);
#624=ORIENTED_EDGE('',*,*,#476,.T.);
#625=ORIENTED_EDGE('',*,*,#443,.F.);
#626=ORIENTED_EDGE('',*,*,#476,.F.);
#627=ORIENTED_EDGE('',*,*,#477,.T.);
#628=ORIENTED_EDGE('',*,*,#452,.F.);
#629=ORIENTED_EDGE('',*,*,#473,.T.);
#630=ORIENTED_EDGE('',*,*,#453,.F.);
#631=ORIENTED_EDGE('',*,*,#477,.F.);
#632=ORIENTED_EDGE('',*,*,#475,.F.);
#633=ORIENTED_EDGE('',*,*,#412,.T.);
#634=ORIENTED_EDGE('',*,*,#478,.T.);
#635=ORIENTED_EDGE('',*,*,#479,.F.);
#636=ORIENTED_EDGE('',*,*,#468,.T.);
#637=ORIENTED_EDGE('',*,*,#411,.T.);
#638=ORIENTED_EDGE('',*,*,#480,.F.);
#639=ORIENTED_EDGE('',*,*,#481,.F.);
#640=ORIENTED_EDGE('',*,*,#478,.F.);
#641=ORIENTED_EDGE('',*,*,#469,.T.);
#642=ORIENTED_EDGE('',*,*,#479,.T.);
#643=ORIENTED_EDGE('',*,*,#481,.T.);
#644=ORIENTED_EDGE('',*,*,#482,.F.);
#645=ORIENTED_EDGE('',*,*,#483,.F.);
#646=ORIENTED_EDGE('',*,*,#484,.F.);
#647=ORIENTED_EDGE('',*,*,#485,.T.);
#648=ORIENTED_EDGE('',*,*,#486,.T.);
#649=ORIENTED_EDGE('',*,*,#487,.T.);
#650=ORIENTED_EDGE('',*,*,#488,.F.);
#651=ORIENTED_EDGE('',*,*,#489,.T.);
#652=ORIENTED_EDGE('',*,*,#446,.F.);
#653=ORIENTED_EDGE('',*,*,#436,.T.);
#654=ORIENTED_EDGE('',*,*,#439,.T.);
#655=ORIENTED_EDGE('',*,*,#445,.T.);
#656=ORIENTED_EDGE('',*,*,#451,.F.);
#657=ORIENTED_EDGE('',*,*,#490,.T.);
#658=ORIENTED_EDGE('',*,*,#491,.T.);
#659=ORIENTED_EDGE('',*,*,#492,.T.);
#660=ORIENTED_EDGE('',*,*,#493,.T.);
#661=ORIENTED_EDGE('',*,*,#491,.F.);
#662=ORIENTED_EDGE('',*,*,#494,.F.);
#663=ORIENTED_EDGE('',*,*,#485,.F.);
#664=ORIENTED_EDGE('',*,*,#495,.F.);
#665=ORIENTED_EDGE('',*,*,#496,.T.);
#666=ORIENTED_EDGE('',*,*,#490,.F.);
#667=ORIENTED_EDGE('',*,*,#497,.T.);
#668=ORIENTED_EDGE('',*,*,#486,.F.);
#669=ORIENTED_EDGE('',*,*,#494,.T.);
#670=ORIENTED_EDGE('',*,*,#493,.F.);
#671=ORIENTED_EDGE('',*,*,#498,.F.);
#672=ORIENTED_EDGE('',*,*,#499,.F.);
#673=ORIENTED_EDGE('',*,*,#487,.F.);
#674=ORIENTED_EDGE('',*,*,#497,.F.);
#675=ORIENTED_EDGE('',*,*,#492,.F.);
#676=ORIENTED_EDGE('',*,*,#496,.F.);
#677=ORIENTED_EDGE('',*,*,#500,.F.);
#678=ORIENTED_EDGE('',*,*,#498,.T.);
#679=ORIENTED_EDGE('',*,*,#488,.T.);
#680=ORIENTED_EDGE('',*,*,#499,.T.);
#681=ORIENTED_EDGE('',*,*,#500,.T.);
#682=ORIENTED_EDGE('',*,*,#495,.T.);
#683=ORIENTED_EDGE('',*,*,#484,.T.);
#684=ORIENTED_EDGE('',*,*,#501,.T.);
#685=ORIENTED_EDGE('',*,*,#502,.T.);
#686=ORIENTED_EDGE('',*,*,#503,.T.);
#687=ORIENTED_EDGE('',*,*,#428,.T.);
#688=ORIENTED_EDGE('',*,*,#504,.T.);
#689=ORIENTED_EDGE('',*,*,#482,.T.);
#690=ORIENTED_EDGE('',*,*,#480,.T.);
#691=ORIENTED_EDGE('',*,*,#505,.T.);
#692=ORIENTED_EDGE('',*,*,#506,.T.);
#693=ORIENTED_EDGE('',*,*,#507,.T.);
#694=ORIENTED_EDGE('',*,*,#508,.T.);
#695=ORIENTED_EDGE('',*,*,#509,.T.);
#696=ORIENTED_EDGE('',*,*,#506,.F.);
#697=ORIENTED_EDGE('',*,*,#510,.F.);
#698=ORIENTED_EDGE('',*,*,#458,.F.);
#699=ORIENTED_EDGE('',*,*,#432,.F.);
#700=ORIENTED_EDGE('',*,*,#431,.F.);
#701=ORIENTED_EDGE('',*,*,#425,.T.);
#702=ORIENTED_EDGE('',*,*,#447,.F.);
#703=ORIENTED_EDGE('',*,*,#489,.F.);
#704=ORIENTED_EDGE('',*,*,#503,.F.);
#705=ORIENTED_EDGE('',*,*,#511,.T.);
#706=ORIENTED_EDGE('',*,*,#507,.F.);
#707=ORIENTED_EDGE('',*,*,#509,.F.);
#708=ORIENTED_EDGE('',*,*,#502,.F.);
#709=ORIENTED_EDGE('',*,*,#512,.T.);
#710=ORIENTED_EDGE('',*,*,#508,.F.);
#711=ORIENTED_EDGE('',*,*,#511,.F.);
#712=ORIENTED_EDGE('',*,*,#501,.F.);
#713=ORIENTED_EDGE('',*,*,#483,.T.);
#714=ORIENTED_EDGE('',*,*,#504,.F.);
#715=ORIENTED_EDGE('',*,*,#427,.F.);
#716=ORIENTED_EDGE('',*,*,#430,.F.);
#717=ORIENTED_EDGE('',*,*,#434,.T.);
#718=ORIENTED_EDGE('',*,*,#460,.F.);
#719=ORIENTED_EDGE('',*,*,#510,.T.);
#720=ORIENTED_EDGE('',*,*,#505,.F.);
#721=ORIENTED_EDGE('',*,*,#512,.F.);
#722=ORIENTED_EDGE('',*,*,#459,.F.);
#723=CYLINDRICAL_SURFACE('',#776,2.);
#724=ADVANCED_FACE('',(#53),#723,.F.);
#725=ADVANCED_FACE('',(#54),#16,.F.);
#726=ADVANCED_FACE('',(#55),#17,.F.);
#727=ADVANCED_FACE('',(#56,#15),#18,.T.);
#728=ADVANCED_FACE('',(#57),#19,.F.);
#729=ADVANCED_FACE('',(#58),#20,.F.);
#730=ADVANCED_FACE('',(#59),#21,.T.);
#731=ADVANCED_FACE('',(#60),#22,.F.);
#732=ADVANCED_FACE('',(#61),#23,.T.);
#733=ADVANCED_FACE('',(#62),#24,.T.);
#734=ADVANCED_FACE('',(#63),#25,.T.);
#735=ADVANCED_FACE('',(#64),#26,.F.);
#736=ADVANCED_FACE('',(#65),#27,.F.);
#737=ADVANCED_FACE('',(#66),#28,.T.);
#738=ADVANCED_FACE('',(#67),#29,.F.);
#739=ADVANCED_FACE('',(#68),#30,.F.);
#740=ADVANCED_FACE('',(#69),#31,.T.);
#741=ADVANCED_FACE('',(#70),#32,.F.);
#742=ADVANCED_FACE('',(#71),#33,.F.);
#743=ADVANCED_FACE('',(#72),#34,.F.);
#744=ADVANCED_FACE('',(#73),#35,.T.);
#745=ADVANCED_FACE('',(#74),#36,.F.);
#746=ADVANCED_FACE('',(#75),#37,.F.);
#747=ADVANCED_FACE('',(#76),#38,.T.);
#748=ADVANCED_FACE('',(#77),#39,.F.);
#749=ADVANCED_FACE('',(#78),#40,.F.);
#750=ADVANCED_FACE('',(#79),#41,.F.);
#751=ADVANCED_FACE('',(#80),#42,.F.);
#752=ADVANCED_FACE('',(#81),#43,.F.);
#753=ADVANCED_FACE('',(#82),#44,.F.);
#754=ADVANCED_FACE('',(#83),#45,.F.);
#755=ADVANCED_FACE('',(#84),#46,.T.);
#756=ADVANCED_FACE('',(#85),#47,.T.);
#757=ADVANCED_FACE('',(#86),#48,.F.);
#758=ADVANCED_FACE('',(#87),#49,.F.);
#759=ADVANCED_FACE('',(#88),#50,.F.);
#760=ADVANCED_FACE('',(#89),#51,.F.);
#761=ADVANCED_FACE('',(#90),#52,.F.);
#762=CLOSED_SHELL('',(#724,#725,#726,#727,#728,#729,#730,#731,#732,#733,
#734,#735,#736,#737,#738,#739,#740,#741,#742,#743,#744,#745,#746,#747,#748,
#749,#750,#751,#752,#753,#754,#755,#756,#757,#758,#759,#760,#761));
#763=DERIVED_UNIT_ELEMENT(#765,1.);
#764=DERIVED_UNIT_ELEMENT(#1220,-3.);
#765=(
MASS_UNIT()
NAMED_UNIT(*)
SI_UNIT(.KILO.,.GRAM.)
);
#766=DERIVED_UNIT((#763,#764));
#767=MEASURE_REPRESENTATION_ITEM('density measure',
POSITIVE_RATIO_MEASURE(7850.),#766);
#768=PROPERTY_DEFINITION_REPRESENTATION(#773,#770);
#769=PROPERTY_DEFINITION_REPRESENTATION(#774,#771);
#770=REPRESENTATION('material name',(#772),#1217);
#771=REPRESENTATION('density',(#767),#1217);
#772=DESCRIPTIVE_REPRESENTATION_ITEM('Steel','Steel');
#773=PROPERTY_DEFINITION('material property','material name',#1227);
#774=PROPERTY_DEFINITION('material property','density of part',#1227);
#775=AXIS2_PLACEMENT_3D('',#1001,#816,#817);
#776=AXIS2_PLACEMENT_3D('',#1002,#818,#819);
#777=AXIS2_PLACEMENT_3D('',#1004,#820,#821);
#778=AXIS2_PLACEMENT_3D('',#1007,#823,#824);
#779=AXIS2_PLACEMENT_3D('',#1008,#825,#826);
#780=AXIS2_PLACEMENT_3D('',#1009,#827,#828);
#781=AXIS2_PLACEMENT_3D('',#1046,#847,#848);
#782=AXIS2_PLACEMENT_3D('',#1052,#852,#853);
#783=AXIS2_PLACEMENT_3D('',#1058,#857,#858);
#784=AXIS2_PLACEMENT_3D('',#1064,#862,#863);
#785=AXIS2_PLACEMENT_3D('',#1068,#866,#867);
#786=AXIS2_PLACEMENT_3D('',#1080,#874,#875);
#787=AXIS2_PLACEMENT_3D('',#1084,#878,#879);
#788=AXIS2_PLACEMENT_3D('',#1102,#890,#891);
#789=AXIS2_PLACEMENT_3D('',#1108,#895,#896);
#790=AXIS2_PLACEMENT_3D('',#1112,#899,#900);
#791=AXIS2_PLACEMENT_3D('',#1118,#904,#905);
#792=AXIS2_PLACEMENT_3D('',#1121,#908,#909);
#793=AXIS2_PLACEMENT_3D('',#1122,#910,#911);
#794=AXIS2_PLACEMENT_3D('',#1126,#914,#915);
#795=AXIS2_PLACEMENT_3D('',#1130,#918,#919);
#796=AXIS2_PLACEMENT_3D('',#1132,#921,#922);
#797=AXIS2_PLACEMENT_3D('',#1133,#923,#924);
#798=AXIS2_PLACEMENT_3D('',#1137,#927,#928);
#799=AXIS2_PLACEMENT_3D('',#1141,#931,#932);
#800=AXIS2_PLACEMENT_3D('',#1143,#934,#935);
#801=AXIS2_PLACEMENT_3D('',#1144,#936,#937);
#802=AXIS2_PLACEMENT_3D('',#1148,#940,#941);
#803=AXIS2_PLACEMENT_3D('',#1152,#944,#945);
#804=AXIS2_PLACEMENT_3D('',#1168,#954,#955);
#805=AXIS2_PLACEMENT_3D('',#1177,#960,#961);
#806=AXIS2_PLACEMENT_3D('',#1182,#965,#966);
#807=AXIS2_PLACEMENT_3D('',#1184,#968,#969);
#808=AXIS2_PLACEMENT_3D('',#1188,#972,#973);
#809=AXIS2_PLACEMENT_3D('',#1190,#975,#976);
#810=AXIS2_PLACEMENT_3D('',#1196,#980,#981);
#811=AXIS2_PLACEMENT_3D('',#1198,#983,#984);
#812=AXIS2_PLACEMENT_3D('',#1207,#989,#990);
#813=AXIS2_PLACEMENT_3D('',#1210,#993,#994);
#814=AXIS2_PLACEMENT_3D('',#1212,#996,#997);
#815=AXIS2_PLACEMENT_3D('',#1214,#999,#1000);
#816=DIRECTION('axis',(0.,0.,1.));
#817=DIRECTION('refdir',(1.,0.,0.));
#818=DIRECTION('center_axis',(0.,0.,1.));
#819=DIRECTION('ref_axis',(1.,0.,0.));
#820=DIRECTION('center_axis',(0.,0.,-1.));
#821=DIRECTION('ref_axis',(1.,0.,0.));
#822=DIRECTION('',(0.,0.,1.));
#823=DIRECTION('center_axis',(0.,0.,-1.));
#824=DIRECTION('ref_axis',(1.,0.,0.));
#825=DIRECTION('center_axis',(0.,0.,-1.));
#826=DIRECTION('ref_axis',(-1.,0.,0.));
#827=DIRECTION('center_axis',(1.,0.,0.));
#828=DIRECTION('ref_axis',(0.,0.,-1.));
#829=DIRECTION('',(0.,0.,-1.));
#830=DIRECTION('',(0.,1.,0.));
#831=DIRECTION('',(0.,0.,1.));
#832=DIRECTION('',(0.,1.,0.));
#833=DIRECTION('',(0.,0.,1.));
#834=DIRECTION('',(0.,1.,0.));
#835=DIRECTION('',(0.,0.,-1.));
#836=DIRECTION('',(0.,1.,0.));
#837=DIRECTION('',(0.,0.,1.));
#838=DIRECTION('',(0.,1.,0.));
#839=DIRECTION('',(0.,0.,-1.));
#840=DIRECTION('',(0.,1.,0.));
#841=DIRECTION('',(0.,0.,1.));
#842=DIRECTION('',(0.,1.,0.));
#843=DIRECTION('',(0.,0.,-1.));
#844=DIRECTION('',(0.,-1.,0.));
#845=DIRECTION('',(0.,0.,-1.));
#846=DIRECTION('',(0.,1.,0.));
#847=DIRECTION('center_axis',(0.,0.,1.));
#848=DIRECTION('ref_axis',(1.,0.,0.));
#849=DIRECTION('',(0.,1.,0.));
#850=DIRECTION('',(-1.,0.,0.));
#851=DIRECTION('',(1.,0.,0.));
#852=DIRECTION('center_axis',(-1.,0.,0.));
#853=DIRECTION('ref_axis',(0.,0.,1.));
#854=DIRECTION('',(0.,0.,-1.));
#855=DIRECTION('',(0.,-1.,0.));
#856=DIRECTION('',(0.,0.,-1.));
#857=DIRECTION('center_axis',(0.,1.,0.));
#858=DIRECTION('ref_axis',(0.,0.,1.));
#859=DIRECTION('',(1.,0.,0.));
#860=DIRECTION('',(0.,0.,1.));
#861=DIRECTION('',(-1.,0.,0.));
#862=DIRECTION('center_axis',(0.,0.,1.));
#863=DIRECTION('ref_axis',(1.,0.,0.));
#864=DIRECTION('',(-1.,0.,0.));
#865=DIRECTION('',(0.,1.,0.));
#866=DIRECTION('center_axis',(0.,-1.,0.));
#867=DIRECTION('ref_axis',(0.,0.,-1.));
#868=DIRECTION('',(1.,0.,0.));
#869=DIRECTION('',(0.,0.,1.));
#870=DIRECTION('',(-1.,0.,0.));
#871=DIRECTION('',(0.,0.,-1.));
#872=DIRECTION('',(1.,0.,0.));
#873=DIRECTION('',(0.,0.,-1.));
#874=DIRECTION('center_axis',(0.,0.,1.));
#875=DIRECTION('ref_axis',(1.,0.,0.));
#876=DIRECTION('',(0.,-1.,0.));
#877=DIRECTION('',(1.,0.,0.));
#878=DIRECTION('center_axis',(0.,0.,1.));
#879=DIRECTION('ref_axis',(1.,0.,0.));
#880=DIRECTION('',(-1.,0.,0.));
#881=DIRECTION('',(0.,1.,0.));
#882=DIRECTION('',(-1.,0.,0.));
#883=DIRECTION('',(0.,-1.,0.));
#884=DIRECTION('',(0.,1.,0.));
#885=DIRECTION('',(1.,0.,0.));
#886=DIRECTION('',(0.,-1.,0.));
#887=DIRECTION('',(-1.,0.,0.));
#888=DIRECTION('',(0.,1.,0.));
#889=DIRECTION('',(1.,0.,0.));
#890=DIRECTION('center_axis',(0.,0.,1.));
#891=DIRECTION('ref_axis',(1.,0.,0.));
#892=DIRECTION('',(1.,0.,0.));
#893=DIRECTION('',(0.,1.,0.));
#894=DIRECTION('',(-1.,0.,0.));
#895=DIRECTION('center_axis',(0.,1.,0.));
#896=DIRECTION('ref_axis',(0.,0.,1.));
#897=DIRECTION('',(1.,0.,0.));
#898=DIRECTION('',(0.,0.,-1.));
#899=DIRECTION('center_axis',(1.,0.,0.));
#900=DIRECTION('ref_axis',(0.,0.,-1.));
#901=DIRECTION('',(0.,0.,1.));
#902=DIRECTION('',(0.,0.,-1.));
#903=DIRECTION('',(0.,-1.,0.));
#904=DIRECTION('center_axis',(0.,0.,1.));
#905=DIRECTION('ref_axis',(1.,0.,0.));
#906=DIRECTION('',(1.,0.,0.));
#907=DIRECTION('',(1.,0.,0.));
#908=DIRECTION('center_axis',(0.,1.,0.));
#909=DIRECTION('ref_axis',(0.,0.,1.));
#910=DIRECTION('center_axis',(0.,1.,0.));
#911=DIRECTION('ref_axis',(0.,0.,1.));
#912=DIRECTION('',(1.,0.,0.));
#913=DIRECTION('',(0.,0.,1.));
#914=DIRECTION('center_axis',(0.,0.,1.));
#915=DIRECTION('ref_axis',(1.,0.,0.));
#916=DIRECTION('',(-1.,0.,0.));
#917=DIRECTION('',(0.,-1.,0.));
#918=DIRECTION('center_axis',(1.,0.,0.));
#919=DIRECTION('ref_axis',(0.,0.,-1.));
#920=DIRECTION('',(0.,0.,-1.));
#921=DIRECTION('center_axis',(0.,-1.,0.));
#922=DIRECTION('ref_axis',(0.,0.,-1.));
#923=DIRECTION('center_axis',(-1.,0.,0.));
#924=DIRECTION('ref_axis',(0.,0.,1.));
#925=DIRECTION('',(0.,0.,-1.));
#926=DIRECTION('',(0.,1.,0.));
#927=DIRECTION('center_axis',(0.,0.,1.));
#928=DIRECTION('ref_axis',(1.,0.,0.));
#929=DIRECTION('',(-1.,0.,0.));
#930=DIRECTION('',(0.,-1.,0.));
#931=DIRECTION('center_axis',(1.,0.,0.));
#932=DIRECTION('ref_axis',(0.,0.,-1.));
#933=DIRECTION('',(0.,0.,-1.));
#934=DIRECTION('center_axis',(0.,-1.,0.));
#935=DIRECTION('ref_axis',(0.,0.,-1.));
#936=DIRECTION('center_axis',(0.,0.,1.));
#937=DIRECTION('ref_axis',(1.,0.,0.));
#938=DIRECTION('',(-1.,0.,0.));
#939=DIRECTION('',(0.,1.,0.));
#940=DIRECTION('center_axis',(0.,-1.,0.));
#941=DIRECTION('ref_axis',(0.,0.,-1.));
#942=DIRECTION('',(1.,0.,0.));
#943=DIRECTION('',(0.,0.,-1.));
#944=DIRECTION('center_axis',(-1.,0.,0.));
#945=DIRECTION('ref_axis',(0.,0.,1.));
#946=DIRECTION('',(0.,-1.,0.));
#947=DIRECTION('',(0.,0.,-1.));
#948=DIRECTION('',(0.,1.,0.));
#949=DIRECTION('',(0.,0.,-1.));
#950=DIRECTION('',(0.,-1.,0.));
#951=DIRECTION('',(0.,0.,1.));
#952=DIRECTION('',(0.,1.,0.));
#953=DIRECTION('',(0.,0.,-1.));
#954=DIRECTION('center_axis',(-0.707106781186548,0.,0.707106781186548));
#955=DIRECTION('ref_axis',(0.707106781186548,0.,0.707106781186548));
#956=DIRECTION('',(0.,1.,0.));
#957=DIRECTION('',(0.707106781186548,0.,0.707106781186548));
#958=DIRECTION('',(0.,-1.,0.));
#959=DIRECTION('',(-0.707106781186548,0.,-0.707106781186548));
#960=DIRECTION('center_axis',(0.,-1.,0.));
#961=DIRECTION('ref_axis',(0.,0.,-1.));
#962=DIRECTION('',(1.,0.,0.));
#963=DIRECTION('',(-1.,0.,0.));
#964=DIRECTION('',(0.,0.,-1.));
#965=DIRECTION('center_axis',(0.,0.,1.));
#966=DIRECTION('ref_axis',(1.,0.,0.));
#967=DIRECTION('',(-1.,0.,0.));
#968=DIRECTION('center_axis',(0.,1.,0.));
#969=DIRECTION('ref_axis',(0.,0.,1.));
#970=DIRECTION('',(0.,0.,-1.));
#971=DIRECTION('',(1.,0.,0.));
#972=DIRECTION('center_axis',(-1.,0.,0.));
#973=DIRECTION('ref_axis',(0.,0.,1.));
#974=DIRECTION('',(0.,1.,0.));
#975=DIRECTION('center_axis',(0.,0.,1.));
#976=DIRECTION('ref_axis',(1.,0.,0.));
#977=DIRECTION('',(-1.,0.,0.));
#978=DIRECTION('',(0.,-1.,0.));
#979=DIRECTION('',(1.,0.,0.));
#980=DIRECTION('center_axis',(0.,0.,1.));
#981=DIRECTION('ref_axis',(1.,0.,0.));
#982=DIRECTION('',(-1.,0.,0.));
#983=DIRECTION('center_axis',(0.,0.,1.));
#984=DIRECTION('ref_axis',(1.,0.,0.));
#985=DIRECTION('',(0.,-1.,0.));
#986=DIRECTION('',(-1.,0.,0.));
#987=DIRECTION('',(0.,1.,0.));
#988=DIRECTION('',(1.,0.,0.));
#989=DIRECTION('center_axis',(0.,1.,0.));
#990=DIRECTION('ref_axis',(0.,0.,1.));
#991=DIRECTION('',(0.,0.,-1.));
#992=DIRECTION('',(0.,0.,-1.));
#993=DIRECTION('center_axis',(1.,0.,0.));
#994=DIRECTION('ref_axis',(0.,0.,-1.));
#995=DIRECTION('',(0.,0.,-1.));
#996=DIRECTION('center_axis',(0.,-1.,0.));
#997=DIRECTION('ref_axis',(0.,0.,-1.));
#998=DIRECTION('',(0.,0.,-1.));
#999=DIRECTION('center_axis',(-1.,0.,0.));
#1000=DIRECTION('ref_axis',(0.,0.,1.));
#1001=CARTESIAN_POINT('',(0.,0.,0.));
#1002=CARTESIAN_POINT('Origin',(38.1,0.,4.3));
#1003=CARTESIAN_POINT('',(36.1,-2.44929359829471E-16,1.3));
#1004=CARTESIAN_POINT('Origin',(38.1,0.,1.3));
#1005=CARTESIAN_POINT('',(36.1,2.44929359829471E-16,6.3));
#1006=CARTESIAN_POINT('',(36.1,-2.44929359829471E-16,4.3));
#1007=CARTESIAN_POINT('Origin',(38.1,0.,6.3));
#1008=CARTESIAN_POINT('Origin',(38.1,0.,1.3));
#1009=CARTESIAN_POINT('Origin',(34.5,0.,3.15));
#1010=CARTESIAN_POINT('',(34.5,7.5,4.5));
#1011=CARTESIAN_POINT('',(34.5,7.5,0.));
#1012=CARTESIAN_POINT('',(34.5,7.5,2.7));
#1013=CARTESIAN_POINT('',(34.5,4.5,4.5));
#1014=CARTESIAN_POINT('',(34.5,3.,4.5));
#1015=CARTESIAN_POINT('',(34.5,4.5,4.3));
#1016=CARTESIAN_POINT('',(34.5,4.5,2.7));
#1017=CARTESIAN_POINT('',(34.5,2.5,4.3));
#1018=CARTESIAN_POINT('',(34.5,2.3,4.3));
#1019=CARTESIAN_POINT('',(34.5,2.5,0.));
#1020=CARTESIAN_POINT('',(34.5,2.5,2.65));
#1021=CARTESIAN_POINT('',(34.5,1.7,0.));
#1022=CARTESIAN_POINT('',(34.5,0.,0.));
#1023=CARTESIAN_POINT('',(34.5,1.7,4.3));
#1024=CARTESIAN_POINT('',(34.5,1.7,2.65));
#1025=CARTESIAN_POINT('',(34.5,-2.5,4.3));
#1026=CARTESIAN_POINT('',(34.5,-0.2,4.3));
#1027=CARTESIAN_POINT('',(34.5,-2.5,0.));
#1028=CARTESIAN_POINT('',(34.5,-2.5,2.65));
#1029=CARTESIAN_POINT('',(34.5,-4.5,0.));
#1030=CARTESIAN_POINT('',(34.5,0.,0.));
#1031=CARTESIAN_POINT('',(34.5,-4.5,4.5));
#1032=CARTESIAN_POINT('',(34.5,-4.5,2.7));
#1033=CARTESIAN_POINT('',(34.5,-7.5,4.5));
#1034=CARTESIAN_POINT('',(34.5,-3.,4.5));
#1035=CARTESIAN_POINT('',(34.5,-7.5,0.));
#1036=CARTESIAN_POINT('',(34.5,-7.5,2.7));
#1037=CARTESIAN_POINT('',(34.5,-9.,0.));
#1038=CARTESIAN_POINT('',(34.5,0.,0.));
#1039=CARTESIAN_POINT('',(34.5,-9.,6.3));
#1040=CARTESIAN_POINT('',(34.5,-9.,3.15));
#1041=CARTESIAN_POINT('',(34.5,9.,6.3));
#1042=CARTESIAN_POINT('',(34.5,0.,6.3));
#1043=CARTESIAN_POINT('',(34.5,9.,0.));
#1044=CARTESIAN_POINT('',(34.5,9.,3.15));
#1045=CARTESIAN_POINT('',(34.5,0.,0.));
#1046=CARTESIAN_POINT('Origin',(38.1,0.,6.3));
#1047=CARTESIAN_POINT('',(41.7,-9.,6.3));
#1048=CARTESIAN_POINT('',(41.7,9.,6.3));
#1049=CARTESIAN_POINT('',(41.7,0.,6.3));
#1050=CARTESIAN_POINT('',(38.1,9.,6.3));
#1051=CARTESIAN_POINT('',(38.1,-9.,6.3));
#1052=CARTESIAN_POINT('Origin',(41.7,0.,3.15));
#1053=CARTESIAN_POINT('',(41.7,-9.,0.));
#1054=CARTESIAN_POINT('',(41.7,-9.,3.15));
#1055=CARTESIAN_POINT('',(41.7,9.,0.));
#1056=CARTESIAN_POINT('',(41.7,0.,0.));
#1057=CARTESIAN_POINT('',(41.7,9.,3.15));
#1058=CARTESIAN_POINT('Origin',(2.,-7.5,2.25));
#1059=CARTESIAN_POINT('',(-33.,-7.5,4.5));
#1060=CARTESIAN_POINT('',(2.,-7.5,4.5));
#1061=CARTESIAN_POINT('',(-33.,-7.5,0.));
#1062=CARTESIAN_POINT('',(-33.,-7.5,3.375));
#1063=CARTESIAN_POINT('',(2.975,-7.5,0.));
#1064=CARTESIAN_POINT('Origin',(2.,-6.,4.5));
#1065=CARTESIAN_POINT('',(-33.,-4.5,4.5));
#1066=CARTESIAN_POINT('',(2.,-4.5,4.5));
#1067=CARTESIAN_POINT('',(-33.,-3.,4.5));
#1068=CARTESIAN_POINT('Origin',(2.,-4.5,2.25));
#1069=CARTESIAN_POINT('',(34.,-4.5,0.));
#1070=CARTESIAN_POINT('',(2.975,-4.5,0.));
#1071=CARTESIAN_POINT('',(34.,-4.5,4.3));
#1072=CARTESIAN_POINT('',(34.,-4.5,2.2));
#1073=CARTESIAN_POINT('',(32.,-4.5,4.3));
#1074=CARTESIAN_POINT('',(17.5,-4.5,4.3));
#1075=CARTESIAN_POINT('',(32.,-4.5,0.));
#1076=CARTESIAN_POINT('',(32.,-4.5,2.2));
#1077=CARTESIAN_POINT('',(-33.,-4.5,0.));
#1078=CARTESIAN_POINT('',(2.975,-4.5,0.));
#1079=CARTESIAN_POINT('',(-33.,-4.5,3.375));
#1080=CARTESIAN_POINT('Origin',(3.95,0.,0.));
#1081=CARTESIAN_POINT('',(-33.,-9.,0.));
#1082=CARTESIAN_POINT('',(-33.,0.,0.));
#1083=CARTESIAN_POINT('',(3.95,-9.,0.));
#1084=CARTESIAN_POINT('Origin',(3.95,0.,0.));
#1085=CARTESIAN_POINT('',(34.,2.5,0.));
#1086=CARTESIAN_POINT('',(19.475,2.5,0.));
#1087=CARTESIAN_POINT('',(34.,4.5,0.));
#1088=CARTESIAN_POINT('',(34.,2.3,0.));
#1089=CARTESIAN_POINT('',(-33.,4.5,0.));
#1090=CARTESIAN_POINT('',(2.975,4.5,0.));
#1091=CARTESIAN_POINT('',(-33.,0.,0.));
#1092=CARTESIAN_POINT('',(32.,-3.3,0.));
#1093=CARTESIAN_POINT('',(32.,-2.7,0.));
#1094=CARTESIAN_POINT('',(34.,-3.3,0.));
#1095=CARTESIAN_POINT('',(18.475,-3.3,0.));
#1096=CARTESIAN_POINT('',(34.,-2.7,0.));
#1097=CARTESIAN_POINT('',(33.,-2.5,0.));
#1098=CARTESIAN_POINT('',(18.975,-2.5,0.));
#1099=CARTESIAN_POINT('',(33.,1.7,0.));
#1100=CARTESIAN_POINT('',(33.,-0.2,0.));
#1101=CARTESIAN_POINT('',(18.975,1.7,0.));
#1102=CARTESIAN_POINT('Origin',(3.95,0.,0.));
#1103=CARTESIAN_POINT('',(43.3,-9.,0.));
#1104=CARTESIAN_POINT('',(3.95,-9.,0.));
#1105=CARTESIAN_POINT('',(43.3,9.,0.));
#1106=CARTESIAN_POINT('',(43.3,0.,0.));
#1107=CARTESIAN_POINT('',(3.95,9.,0.));
#1108=CARTESIAN_POINT('Origin',(34.,-2.5,2.15));
#1109=CARTESIAN_POINT('',(33.,-2.5,4.3));
#1110=CARTESIAN_POINT('',(34.,-2.5,4.3));
#1111=CARTESIAN_POINT('',(33.,-2.5,2.15));
#1112=CARTESIAN_POINT('Origin',(34.,4.6,2.15));
#1113=CARTESIAN_POINT('',(34.,4.5,4.3));
#1114=CARTESIAN_POINT('',(34.,4.5,2.2));
#1115=CARTESIAN_POINT('',(34.,2.5,4.3));
#1116=CARTESIAN_POINT('',(34.,2.5,2.15));
#1117=CARTESIAN_POINT('',(34.,4.6,4.3));
#1118=CARTESIAN_POINT('Origin',(35.,4.6,4.3));
#1119=CARTESIAN_POINT('',(18.5,4.5,4.3));
#1120=CARTESIAN_POINT('',(35.,2.5,4.3));
#1121=CARTESIAN_POINT('Origin',(35.,2.5,2.15));
#1122=CARTESIAN_POINT('Origin',(2.,4.5,2.25));
#1123=CARTESIAN_POINT('',(-33.,4.5,4.5));
#1124=CARTESIAN_POINT('',(2.,4.5,4.5));
#1125=CARTESIAN_POINT('',(-33.,4.5,3.375));
#1126=CARTESIAN_POINT('Origin',(34.,-0.4,4.3));
#1127=CARTESIAN_POINT('',(33.,1.7,4.3));
#1128=CARTESIAN_POINT('',(34.,1.7,4.3));
#1129=CARTESIAN_POINT('',(33.,-0.4,4.3));
#1130=CARTESIAN_POINT('Origin',(33.,-0.4,2.15));
#1131=CARTESIAN_POINT('',(33.,1.7,2.15));
#1132=CARTESIAN_POINT('Origin',(34.,1.7,2.15));
#1133=CARTESIAN_POINT('Origin',(34.,-5.4,2.15));
#1134=CARTESIAN_POINT('',(34.,-3.3,4.3));
#1135=CARTESIAN_POINT('',(34.,-3.3,2.15));
#1136=CARTESIAN_POINT('',(34.,-5.4,4.3));
#1137=CARTESIAN_POINT('Origin',(33.,-5.4,4.3));
#1138=CARTESIAN_POINT('',(32.,-3.3,4.3));
#1139=CARTESIAN_POINT('',(33.,-3.3,4.3));
#1140=CARTESIAN_POINT('',(32.,-5.4,4.3));
#1141=CARTESIAN_POINT('Origin',(32.,-5.4,2.15));
#1142=CARTESIAN_POINT('',(32.,-3.3,2.15));
#1143=CARTESIAN_POINT('Origin',(33.,-3.3,2.15));
#1144=CARTESIAN_POINT('Origin',(2.,6.,4.5));
#1145=CARTESIAN_POINT('',(-33.,7.5,4.5));
#1146=CARTESIAN_POINT('',(2.,7.5,4.5));
#1147=CARTESIAN_POINT('',(-33.,3.,4.5));
#1148=CARTESIAN_POINT('Origin',(2.,7.5,2.25));
#1149=CARTESIAN_POINT('',(-33.,7.5,0.));
#1150=CARTESIAN_POINT('',(2.975,7.5,0.));
#1151=CARTESIAN_POINT('',(-33.,7.5,3.375));
#1152=CARTESIAN_POINT('Origin',(-33.,0.,4.5));
#1153=CARTESIAN_POINT('',(-33.,9.,0.));
#1154=CARTESIAN_POINT('',(-33.,0.,0.));
#1155=CARTESIAN_POINT('',(-33.,9.,9.));
#1156=CARTESIAN_POINT('',(-33.,9.,4.5));
#1157=CARTESIAN_POINT('',(-33.,8.,9.));
#1158=CARTESIAN_POINT('',(-33.,0.,9.));
#1159=CARTESIAN_POINT('',(-33.,8.,6.3));
#1160=CARTESIAN_POINT('',(-33.,8.,6.075));
#1161=CARTESIAN_POINT('',(-33.,-8.,6.3));
#1162=CARTESIAN_POINT('',(-33.,0.,6.3));
#1163=CARTESIAN_POINT('',(-33.,-8.,9.));
#1164=CARTESIAN_POINT('',(-33.,-8.,6.075));
#1165=CARTESIAN_POINT('',(-33.,-9.,9.));
#1166=CARTESIAN_POINT('',(-33.,0.,9.));
#1167=CARTESIAN_POINT('',(-33.,-9.,4.5));
#1168=CARTESIAN_POINT('Origin',(-31.4,0.,6.69999999999999));
#1169=CARTESIAN_POINT('',(-31.8,-8.,6.3));
#1170=CARTESIAN_POINT('',(-31.8,8.,6.3));
#1171=CARTESIAN_POINT('',(-31.8,0.,6.3));
#1172=CARTESIAN_POINT('',(-31.,8.,7.09999999999998));
#1173=CARTESIAN_POINT('',(-31.3125,8.,6.78749999999999));
#1174=CARTESIAN_POINT('',(-31.,-8.,7.09999999999998));
#1175=CARTESIAN_POINT('',(-31.,0.,7.09999999999998));
#1176=CARTESIAN_POINT('',(-31.3125,-8.,6.78749999999999));
#1177=CARTESIAN_POINT('Origin',(-32.,8.,7.65));
#1178=CARTESIAN_POINT('',(-32.,8.,6.3));
#1179=CARTESIAN_POINT('',(-31.,8.,9.));
#1180=CARTESIAN_POINT('',(-32.,8.,9.));
#1181=CARTESIAN_POINT('',(-31.,8.,7.65));
#1182=CARTESIAN_POINT('Origin',(-32.,0.,6.3));
#1183=CARTESIAN_POINT('',(-32.,-8.,6.3));
#1184=CARTESIAN_POINT('Origin',(-32.,-8.,7.65));
#1185=CARTESIAN_POINT('',(-31.,-8.,9.));
#1186=CARTESIAN_POINT('',(-31.,-8.,7.65));
#1187=CARTESIAN_POINT('',(-32.,-8.,9.));
#1188=CARTESIAN_POINT('Origin',(-31.,0.,7.65));
#1189=CARTESIAN_POINT('',(-31.,0.,9.));
#1190=CARTESIAN_POINT('Origin',(-34.2,0.,9.));
#1191=CARTESIAN_POINT('',(-35.4,9.,9.));
#1192=CARTESIAN_POINT('',(-34.2,9.,9.));
#1193=CARTESIAN_POINT('',(-35.4,-9.,9.));
#1194=CARTESIAN_POINT('',(-35.4,0.,9.));
#1195=CARTESIAN_POINT('',(-34.2,-9.,9.));
#1196=CARTESIAN_POINT('Origin',(3.95,0.,0.));
#1197=CARTESIAN_POINT('',(3.95,9.,0.));
#1198=CARTESIAN_POINT('Origin',(3.95,0.,-1.6));
#1199=CARTESIAN_POINT('',(43.3,9.,-1.6));
#1200=CARTESIAN_POINT('',(43.3,-9.,-1.6));
#1201=CARTESIAN_POINT('',(43.3,0.,-1.6));
#1202=CARTESIAN_POINT('',(-35.4,-9.,-1.6));
#1203=CARTESIAN_POINT('',(3.95,-9.,-1.6));
#1204=CARTESIAN_POINT('',(-35.4,9.,-1.6));
#1205=CARTESIAN_POINT('',(-35.4,0.,-1.6));
#1206=CARTESIAN_POINT('',(3.95,9.,-1.6));
#1207=CARTESIAN_POINT('Origin',(3.95,-9.,-0.8));
#1208=CARTESIAN_POINT('',(-35.4,-9.,4.5));
#1209=CARTESIAN_POINT('',(43.3,-9.,-0.8));
#1210=CARTESIAN_POINT('Origin',(-35.4,0.,-0.8));
#1211=CARTESIAN_POINT('',(-35.4,9.,4.5));
#1212=CARTESIAN_POINT('Origin',(3.95,9.,-0.8));
#1213=CARTESIAN_POINT('',(43.3,9.,-0.8));
#1214=CARTESIAN_POINT('Origin',(43.3,0.,-0.8));
#1215=UNCERTAINTY_MEASURE_WITH_UNIT(LENGTH_MEASURE(0.01),#1219,
'DISTANCE_ACCURACY_VALUE',
'Maximum model space distance between geometric entities at asserted c
onnectivities');
#1216=UNCERTAINTY_MEASURE_WITH_UNIT(LENGTH_MEASURE(0.01),#1219,
'DISTANCE_ACCURACY_VALUE',
'Maximum model space distance between geometric entities at asserted c
onnectivities');
#1217=(
GEOMETRIC_REPRESENTATION_CONTEXT(3)
GLOBAL_UNCERTAINTY_ASSIGNED_CONTEXT((#1215))
GLOBAL_UNIT_ASSIGNED_CONTEXT((#1219,#1221,#1222))
REPRESENTATION_CONTEXT('','3D')
);
#1218=(
GEOMETRIC_REPRESENTATION_CONTEXT(3)
GLOBAL_UNCERTAINTY_ASSIGNED_CONTEXT((#1216))
GLOBAL_UNIT_ASSIGNED_CONTEXT((#1219,#1221,#1222))
REPRESENTATION_CONTEXT('','3D')
);
#1219=(
LENGTH_UNIT()
NAMED_UNIT(*)
SI_UNIT(.MILLI.,.METRE.)
);
#1220=(
LENGTH_UNIT()
NAMED_UNIT(*)
SI_UNIT($,.METRE.)
);
#1221=(
NAMED_UNIT(*)
PLANE_ANGLE_UNIT()
SI_UNIT($,.RADIAN.)
);
#1222=(
NAMED_UNIT(*)
SI_UNIT($,.STERADIAN.)
SOLID_ANGLE_UNIT()
);
#1223=SHAPE_DEFINITION_REPRESENTATION(#1224,#1225);
#1224=PRODUCT_DEFINITION_SHAPE('',$,#1227);
#1225=SHAPE_REPRESENTATION('',(#775),#1217);
#1226=PRODUCT_DEFINITION_CONTEXT('part definition',#1231,'design');
#1227=PRODUCT_DEFINITION('Carrier_Fit_Gauge','Carrier_Fit_Gauge',#1228,
#1226);
#1228=PRODUCT_DEFINITION_FORMATION('',$,#1233);
#1229=PRODUCT_RELATED_PRODUCT_CATEGORY('Carrier_Fit_Gauge',
'Carrier_Fit_Gauge',(#1233));
#1230=APPLICATION_PROTOCOL_DEFINITION('international standard',
'automotive_design',2009,#1231);
#1231=APPLICATION_CONTEXT(
'Core Data for Automotive Mechanical Design Process');
#1232=PRODUCT_CONTEXT('part definition',#1231,'mechanical');
#1233=PRODUCT('Carrier_Fit_Gauge','Carrier_Fit_Gauge',
'PROTOTYPE TOOL. Not a production part; excluded from the specificatio
n section 9 material gates.',(#1232));
#1234=PRESENTATION_STYLE_ASSIGNMENT((#1235));
#1235=SURFACE_STYLE_USAGE(.BOTH.,#1236);
#1236=SURFACE_SIDE_STYLE('',(#1237));
#1237=SURFACE_STYLE_FILL_AREA(#1238);
#1238=FILL_AREA_STYLE('Steel - Satin',(#1239));
#1239=FILL_AREA_STYLE_COLOUR('Steel - Satin',#1240);
#1240=COLOUR_RGB('Steel - Satin',0.627450980392157,0.627450980392157,0.627450980392157);
ENDSEC;
END-ISO-10303-21;
