ISO-10303-21;
HEADER;
/* Generated by software containing ST-Developer
 * from STEP Tools, Inc. (www.steptools.com) 
 */

FILE_DESCRIPTION(
/* description */ (''),
/* implementation_level */ '2;1');

FILE_NAME(
/* name */ 'ESP32_Controller_Housing_Lid.step',
/* time_stamp */ '2026-09-06T12:56:05+01:00',
/* author */ (''),
/* organization */ (''),
/* preprocessor_version */ 'ST-DEVELOPER v20.1',
/* originating_system */ 'Autodesk Translation Framework v15.8.0.0',
/* authorisation */ '');

FILE_SCHEMA (('AUTOMOTIVE_DESIGN { 1 0 10303 214 3 1 1 }'));
ENDSEC;

DATA;
#10=MECHANICAL_DESIGN_GEOMETRIC_PRESENTATION_REPRESENTATION('',(#13),#2099);
#11=SHAPE_REPRESENTATION_RELATIONSHIP('SRR','None',#2106,#12);
#12=ADVANCED_BREP_SHAPE_REPRESENTATION('',(#14),#2098);
#13=STYLED_ITEM('',(#2115),#14);
#14=MANIFOLD_SOLID_BREP('ESP32_Controller_Housing_Lid',#1303);
#15=CYLINDRICAL_SURFACE('',#1356,1.7);
#16=CYLINDRICAL_SURFACE('',#1358,1.7);
#17=CYLINDRICAL_SURFACE('',#1374,3.25);
#18=CYLINDRICAL_SURFACE('',#1375,3.25);
#19=CYLINDRICAL_SURFACE('',#1376,3.25);
#20=CYLINDRICAL_SURFACE('',#1379,3.25);
#21=CYLINDRICAL_SURFACE('',#1388,4.45);
#22=CYLINDRICAL_SURFACE('',#1394,4.45);
#23=CYLINDRICAL_SURFACE('',#1395,4.45);
#24=CYLINDRICAL_SURFACE('',#1396,4.45);
#25=FACE_BOUND('',#150,.T.);
#26=FACE_BOUND('',#151,.T.);
#27=FACE_BOUND('',#152,.T.);
#28=FACE_BOUND('',#153,.T.);
#29=FACE_BOUND('',#154,.T.);
#30=FACE_BOUND('',#155,.T.);
#31=FACE_BOUND('',#156,.T.);
#32=FACE_BOUND('',#160,.T.);
#33=FACE_BOUND('',#162,.T.);
#34=FACE_BOUND('',#191,.T.);
#35=FACE_BOUND('',#192,.T.);
#36=FACE_BOUND('',#193,.T.);
#37=FACE_BOUND('',#194,.T.);
#38=FACE_BOUND('',#195,.T.);
#39=FACE_BOUND('',#196,.T.);
#40=FACE_BOUND('',#197,.T.);
#41=CIRCLE('',#1342,3.25);
#42=CIRCLE('',#1343,3.25);
#43=CIRCLE('',#1344,3.25);
#44=CIRCLE('',#1345,3.25);
#45=CIRCLE('',#1346,1.7);
#46=CIRCLE('',#1347,1.7);
#47=CIRCLE('',#1349,4.45);
#48=CIRCLE('',#1350,3.25);
#49=CIRCLE('',#1352,3.25);
#50=CIRCLE('',#1353,4.45);
#51=CIRCLE('',#1357,1.7);
#52=CIRCLE('',#1359,1.7);
#53=CIRCLE('',#1377,3.25);
#54=CIRCLE('',#1380,3.25);
#55=CIRCLE('',#1383,4.45);
#56=CIRCLE('',#1384,4.45);
#57=CIRCLE('',#1389,4.45);
#58=CIRCLE('',#1391,4.45);
#59=CIRCLE('',#1392,4.45);
#60=CIRCLE('',#1393,4.45);
#61=FACE_OUTER_BOUND('',#125,.T.);
#62=FACE_OUTER_BOUND('',#126,.T.);
#63=FACE_OUTER_BOUND('',#127,.T.);
#64=FACE_OUTER_BOUND('',#128,.T.);
#65=FACE_OUTER_BOUND('',#129,.T.);
#66=FACE_OUTER_BOUND('',#130,.T.);
#67=FACE_OUTER_BOUND('',#131,.T.);
#68=FACE_OUTER_BOUND('',#132,.T.);
#69=FACE_OUTER_BOUND('',#133,.T.);
#70=FACE_OUTER_BOUND('',#134,.T.);
#71=FACE_OUTER_BOUND('',#135,.T.);
#72=FACE_OUTER_BOUND('',#136,.T.);
#73=FACE_OUTER_BOUND('',#137,.T.);
#74=FACE_OUTER_BOUND('',#138,.T.);
#75=FACE_OUTER_BOUND('',#139,.T.);
#76=FACE_OUTER_BOUND('',#140,.T.);
#77=FACE_OUTER_BOUND('',#141,.T.);
#78=FACE_OUTER_BOUND('',#142,.T.);
#79=FACE_OUTER_BOUND('',#143,.T.);
#80=FACE_OUTER_BOUND('',#144,.T.);
#81=FACE_OUTER_BOUND('',#145,.T.);
#82=FACE_OUTER_BOUND('',#146,.T.);
#83=FACE_OUTER_BOUND('',#147,.T.);
#84=FACE_OUTER_BOUND('',#148,.T.);
#85=FACE_OUTER_BOUND('',#149,.T.);
#86=FACE_OUTER_BOUND('',#157,.T.);
#87=FACE_OUTER_BOUND('',#158,.T.);
#88=FACE_OUTER_BOUND('',#159,.T.);
#89=FACE_OUTER_BOUND('',#161,.T.);
#90=FACE_OUTER_BOUND('',#163,.T.);
#91=FACE_OUTER_BOUND('',#164,.T.);
#92=FACE_OUTER_BOUND('',#165,.T.);
#93=FACE_OUTER_BOUND('',#166,.T.);
#94=FACE_OUTER_BOUND('',#167,.T.);
#95=FACE_OUTER_BOUND('',#168,.T.);
#96=FACE_OUTER_BOUND('',#169,.T.);
#97=FACE_OUTER_BOUND('',#170,.T.);
#98=FACE_OUTER_BOUND('',#171,.T.);
#99=FACE_OUTER_BOUND('',#172,.T.);
#100=FACE_OUTER_BOUND('',#173,.T.);
#101=FACE_OUTER_BOUND('',#174,.T.);
#102=FACE_OUTER_BOUND('',#175,.T.);
#103=FACE_OUTER_BOUND('',#176,.T.);
#104=FACE_OUTER_BOUND('',#177,.T.);
#105=FACE_OUTER_BOUND('',#178,.T.);
#106=FACE_OUTER_BOUND('',#179,.T.);
#107=FACE_OUTER_BOUND('',#180,.T.);
#108=FACE_OUTER_BOUND('',#181,.T.);
#109=FACE_OUTER_BOUND('',#182,.T.);
#110=FACE_OUTER_BOUND('',#183,.T.);
#111=FACE_OUTER_BOUND('',#184,.T.);
#112=FACE_OUTER_BOUND('',#185,.T.);
#113=FACE_OUTER_BOUND('',#186,.T.);
#114=FACE_OUTER_BOUND('',#187,.T.);
#115=FACE_OUTER_BOUND('',#188,.T.);
#116=FACE_OUTER_BOUND('',#189,.T.);
#117=FACE_OUTER_BOUND('',#190,.T.);
#118=FACE_OUTER_BOUND('',#198,.T.);
#119=FACE_OUTER_BOUND('',#199,.T.);
#120=FACE_OUTER_BOUND('',#200,.T.);
#121=FACE_OUTER_BOUND('',#201,.T.);
#122=FACE_OUTER_BOUND('',#202,.T.);
#123=FACE_OUTER_BOUND('',#203,.T.);
#124=FACE_OUTER_BOUND('',#204,.T.);
#125=EDGE_LOOP('',(#825,#826,#827,#828));
#126=EDGE_LOOP('',(#829,#830,#831,#832));
#127=EDGE_LOOP('',(#833,#834,#835,#836));
#128=EDGE_LOOP('',(#837,#838,#839,#840));
#129=EDGE_LOOP('',(#841,#842,#843,#844));
#130=EDGE_LOOP('',(#845,#846,#847,#848));
#131=EDGE_LOOP('',(#849,#850,#851,#852));
#132=EDGE_LOOP('',(#853,#854,#855,#856));
#133=EDGE_LOOP('',(#857,#858,#859,#860));
#134=EDGE_LOOP('',(#861,#862,#863,#864));
#135=EDGE_LOOP('',(#865,#866,#867,#868));
#136=EDGE_LOOP('',(#869,#870,#871,#872));
#137=EDGE_LOOP('',(#873,#874,#875,#876));
#138=EDGE_LOOP('',(#877,#878,#879,#880));
#139=EDGE_LOOP('',(#881,#882,#883,#884));
#140=EDGE_LOOP('',(#885,#886,#887,#888));
#141=EDGE_LOOP('',(#889,#890,#891,#892));
#142=EDGE_LOOP('',(#893,#894,#895,#896));
#143=EDGE_LOOP('',(#897,#898,#899,#900));
#144=EDGE_LOOP('',(#901,#902,#903,#904));
#145=EDGE_LOOP('',(#905,#906,#907,#908,#909,#910));
#146=EDGE_LOOP('',(#911,#912,#913,#914));
#147=EDGE_LOOP('',(#915,#916,#917,#918));
#148=EDGE_LOOP('',(#919,#920,#921,#922,#923,#924));
#149=EDGE_LOOP('',(#925,#926,#927,#928,#929,#930,#931,#932,#933,#934,#935,
#936,#937,#938,#939,#940,#941,#942,#943,#944));
#150=EDGE_LOOP('',(#945,#946,#947,#948));
#151=EDGE_LOOP('',(#949,#950,#951,#952));
#152=EDGE_LOOP('',(#953,#954,#955,#956));
#153=EDGE_LOOP('',(#957,#958,#959,#960));
#154=EDGE_LOOP('',(#961,#962,#963,#964));
#155=EDGE_LOOP('',(#965));
#156=EDGE_LOOP('',(#966));
#157=EDGE_LOOP('',(#967,#968,#969,#970,#971,#972,#973,#974));
#158=EDGE_LOOP('',(#975,#976,#977,#978,#979,#980,#981,#982));
#159=EDGE_LOOP('',(#983,#984,#985,#986));
#160=EDGE_LOOP('',(#987,#988,#989,#990));
#161=EDGE_LOOP('',(#991,#992,#993,#994));
#162=EDGE_LOOP('',(#995,#996,#997,#998));
#163=EDGE_LOOP('',(#999,#1000,#1001,#1002));
#164=EDGE_LOOP('',(#1003,#1004,#1005,#1006));
#165=EDGE_LOOP('',(#1007,#1008,#1009,#1010));
#166=EDGE_LOOP('',(#1011,#1012,#1013,#1014));
#167=EDGE_LOOP('',(#1015,#1016,#1017,#1018));
#168=EDGE_LOOP('',(#1019,#1020,#1021,#1022));
#169=EDGE_LOOP('',(#1023,#1024,#1025,#1026));
#170=EDGE_LOOP('',(#1027,#1028,#1029,#1030));
#171=EDGE_LOOP('',(#1031,#1032,#1033,#1034));
#172=EDGE_LOOP('',(#1035,#1036,#1037,#1038));
#173=EDGE_LOOP('',(#1039,#1040,#1041,#1042));
#174=EDGE_LOOP('',(#1043,#1044,#1045,#1046));
#175=EDGE_LOOP('',(#1047,#1048,#1049,#1050));
#176=EDGE_LOOP('',(#1051,#1052,#1053,#1054));
#177=EDGE_LOOP('',(#1055,#1056,#1057,#1058));
#178=EDGE_LOOP('',(#1059,#1060,#1061,#1062));
#179=EDGE_LOOP('',(#1063,#1064,#1065,#1066));
#180=EDGE_LOOP('',(#1067,#1068,#1069,#1070));
#181=EDGE_LOOP('',(#1071,#1072,#1073,#1074));
#182=EDGE_LOOP('',(#1075,#1076,#1077,#1078));
#183=EDGE_LOOP('',(#1079,#1080,#1081,#1082));
#184=EDGE_LOOP('',(#1083,#1084,#1085,#1086));
#185=EDGE_LOOP('',(#1087,#1088,#1089,#1090,#1091,#1092,#1093,#1094,#1095,
#1096,#1097,#1098));
#186=EDGE_LOOP('',(#1099,#1100,#1101,#1102));
#187=EDGE_LOOP('',(#1103,#1104,#1105,#1106));
#188=EDGE_LOOP('',(#1107,#1108,#1109,#1110));
#189=EDGE_LOOP('',(#1111,#1112,#1113,#1114));
#190=EDGE_LOOP('',(#1115,#1116,#1117,#1118,#1119,#1120,#1121,#1122));
#191=EDGE_LOOP('',(#1123,#1124,#1125,#1126));
#192=EDGE_LOOP('',(#1127,#1128,#1129,#1130));
#193=EDGE_LOOP('',(#1131,#1132,#1133,#1134));
#194=EDGE_LOOP('',(#1135,#1136,#1137,#1138));
#195=EDGE_LOOP('',(#1139,#1140,#1141,#1142));
#196=EDGE_LOOP('',(#1143));
#197=EDGE_LOOP('',(#1144));
#198=EDGE_LOOP('',(#1145,#1146,#1147,#1148));
#199=EDGE_LOOP('',(#1149,#1150,#1151,#1152));
#200=EDGE_LOOP('',(#1153,#1154,#1155,#1156));
#201=EDGE_LOOP('',(#1157,#1158,#1159,#1160,#1161,#1162,#1163,#1164));
#202=EDGE_LOOP('',(#1165,#1166,#1167,#1168));
#203=EDGE_LOOP('',(#1169,#1170,#1171,#1172,#1173,#1174,#1175,#1176));
#204=EDGE_LOOP('',(#1177,#1178,#1179,#1180,#1181,#1182,#1183,#1184));
#205=LINE('',#1735,#365);
#206=LINE('',#1737,#366);
#207=LINE('',#1739,#367);
#208=LINE('',#1740,#368);
#209=LINE('',#1743,#369);
#210=LINE('',#1745,#370);
#211=LINE('',#1746,#371);
#212=LINE('',#1749,#372);
#213=LINE('',#1751,#373);
#214=LINE('',#1752,#374);
#215=LINE('',#1754,#375);
#216=LINE('',#1755,#376);
#217=LINE('',#1759,#377);
#218=LINE('',#1761,#378);
#219=LINE('',#1763,#379);
#220=LINE('',#1764,#380);
#221=LINE('',#1767,#381);
#222=LINE('',#1769,#382);
#223=LINE('',#1770,#383);
#224=LINE('',#1773,#384);
#225=LINE('',#1775,#385);
#226=LINE('',#1776,#386);
#227=LINE('',#1778,#387);
#228=LINE('',#1779,#388);
#229=LINE('',#1783,#389);
#230=LINE('',#1785,#390);
#231=LINE('',#1787,#391);
#232=LINE('',#1788,#392);
#233=LINE('',#1791,#393);
#234=LINE('',#1793,#394);
#235=LINE('',#1794,#395);
#236=LINE('',#1797,#396);
#237=LINE('',#1799,#397);
#238=LINE('',#1800,#398);
#239=LINE('',#1802,#399);
#240=LINE('',#1803,#400);
#241=LINE('',#1807,#401);
#242=LINE('',#1809,#402);
#243=LINE('',#1811,#403);
#244=LINE('',#1812,#404);
#245=LINE('',#1815,#405);
#246=LINE('',#1817,#406);
#247=LINE('',#1818,#407);
#248=LINE('',#1821,#408);
#249=LINE('',#1823,#409);
#250=LINE('',#1824,#410);
#251=LINE('',#1826,#411);
#252=LINE('',#1827,#412);
#253=LINE('',#1831,#413);
#254=LINE('',#1833,#414);
#255=LINE('',#1835,#415);
#256=LINE('',#1836,#416);
#257=LINE('',#1839,#417);
#258=LINE('',#1841,#418);
#259=LINE('',#1842,#419);
#260=LINE('',#1845,#420);
#261=LINE('',#1847,#421);
#262=LINE('',#1848,#422);
#263=LINE('',#1850,#423);
#264=LINE('',#1851,#424);
#265=LINE('',#1855,#425);
#266=LINE('',#1857,#426);
#267=LINE('',#1859,#427);
#268=LINE('',#1861,#428);
#269=LINE('',#1863,#429);
#270=LINE('',#1864,#430);
#271=LINE('',#1867,#431);
#272=LINE('',#1869,#432);
#273=LINE('',#1870,#433);
#274=LINE('',#1873,#434);
#275=LINE('',#1874,#435);
#276=LINE('',#1877,#436);
#277=LINE('',#1879,#437);
#278=LINE('',#1881,#438);
#279=LINE('',#1882,#439);
#280=LINE('',#1885,#440);
#281=LINE('',#1889,#441);
#282=LINE('',#1891,#442);
#283=LINE('',#1893,#443);
#284=LINE('',#1895,#444);
#285=LINE('',#1897,#445);
#286=LINE('',#1901,#446);
#287=LINE('',#1905,#447);
#288=LINE('',#1907,#448);
#289=LINE('',#1909,#449);
#290=LINE('',#1911,#450);
#291=LINE('',#1913,#451);
#292=LINE('',#1916,#452);
#293=LINE('',#1923,#453);
#294=LINE('',#1927,#454);
#295=LINE('',#1929,#455);
#296=LINE('',#1931,#456);
#297=LINE('',#1934,#457);
#298=LINE('',#1937,#458);
#299=LINE('',#1941,#459);
#300=LINE('',#1943,#460);
#301=LINE('',#1945,#461);
#302=LINE('',#1948,#462);
#303=LINE('',#1950,#463);
#304=LINE('',#1953,#464);
#305=LINE('',#1955,#465);
#306=LINE('',#1957,#466);
#307=LINE('',#1958,#467);
#308=LINE('',#1960,#468);
#309=LINE('',#1963,#469);
#310=LINE('',#1965,#470);
#311=LINE('',#1967,#471);
#312=LINE('',#1968,#472);
#313=LINE('',#1971,#473);
#314=LINE('',#1975,#474);
#315=LINE('',#1980,#475);
#316=LINE('',#1981,#476);
#317=LINE('',#1982,#477);
#318=LINE('',#1986,#478);
#319=LINE('',#1987,#479);
#320=LINE('',#1988,#480);
#321=LINE('',#1990,#481);
#322=LINE('',#1992,#482);
#323=LINE('',#1997,#483);
#324=LINE('',#1998,#484);
#325=LINE('',#1999,#485);
#326=LINE('',#2003,#486);
#327=LINE('',#2004,#487);
#328=LINE('',#2005,#488);
#329=LINE('',#2007,#489);
#330=LINE('',#2009,#490);
#331=LINE('',#2012,#491);
#332=LINE('',#2013,#492);
#333=LINE('',#2015,#493);
#334=LINE('',#2016,#494);
#335=LINE('',#2018,#495);
#336=LINE('',#2020,#496);
#337=LINE('',#2025,#497);
#338=LINE('',#2028,#498);
#339=LINE('',#2031,#499);
#340=LINE('',#2032,#500);
#341=LINE('',#2035,#501);
#342=LINE('',#2039,#502);
#343=LINE('',#2040,#503);
#344=LINE('',#2044,#504);
#345=LINE('',#2045,#505);
#346=LINE('',#2047,#506);
#347=LINE('',#2049,#507);
#348=LINE('',#2053,#508);
#349=LINE('',#2056,#509);
#350=LINE('',#2058,#510);
#351=LINE('',#2060,#511);
#352=LINE('',#2062,#512);
#353=LINE('',#2065,#513);
#354=LINE('',#2067,#514);
#355=LINE('',#2071,#515);
#356=LINE('',#2075,#516);
#357=LINE('',#2079,#517);
#358=LINE('',#2082,#518);
#359=LINE('',#2084,#519);
#360=LINE('',#2085,#520);
#361=LINE('',#2087,#521);
#362=LINE('',#2088,#522);
#363=LINE('',#2090,#523);
#364=LINE('',#2091,#524);
#365=VECTOR('',#1405,10.);
#366=VECTOR('',#1406,10.);
#367=VECTOR('',#1407,10.);
#368=VECTOR('',#1408,10.);
#369=VECTOR('',#1411,10.);
#370=VECTOR('',#1412,10.);
#371=VECTOR('',#1413,10.);
#372=VECTOR('',#1416,10.);
#373=VECTOR('',#1417,10.);
#374=VECTOR('',#1418,10.);
#375=VECTOR('',#1421,10.);
#376=VECTOR('',#1422,10.);
#377=VECTOR('',#1425,10.);
#378=VECTOR('',#1426,10.);
#379=VECTOR('',#1427,10.);
#380=VECTOR('',#1428,10.);
#381=VECTOR('',#1431,10.);
#382=VECTOR('',#1432,10.);
#383=VECTOR('',#1433,10.);
#384=VECTOR('',#1436,10.);
#385=VECTOR('',#1437,10.);
#386=VECTOR('',#1438,10.);
#387=VECTOR('',#1441,10.);
#388=VECTOR('',#1442,10.);
#389=VECTOR('',#1445,10.);
#390=VECTOR('',#1446,10.);
#391=VECTOR('',#1447,10.);
#392=VECTOR('',#1448,10.);
#393=VECTOR('',#1451,10.);
#394=VECTOR('',#1452,10.);
#395=VECTOR('',#1453,10.);
#396=VECTOR('',#1456,10.);
#397=VECTOR('',#1457,10.);
#398=VECTOR('',#1458,10.);
#399=VECTOR('',#1461,10.);
#400=VECTOR('',#1462,10.);
#401=VECTOR('',#1465,10.);
#402=VECTOR('',#1466,10.);
#403=VECTOR('',#1467,10.);
#404=VECTOR('',#1468,10.);
#405=VECTOR('',#1471,10.);
#406=VECTOR('',#1472,10.);
#407=VECTOR('',#1473,10.);
#408=VECTOR('',#1476,10.);
#409=VECTOR('',#1477,10.);
#410=VECTOR('',#1478,10.);
#411=VECTOR('',#1481,10.);
#412=VECTOR('',#1482,10.);
#413=VECTOR('',#1485,10.);
#414=VECTOR('',#1486,10.);
#415=VECTOR('',#1487,10.);
#416=VECTOR('',#1488,10.);
#417=VECTOR('',#1491,10.);
#418=VECTOR('',#1492,10.);
#419=VECTOR('',#1493,10.);
#420=VECTOR('',#1496,10.);
#421=VECTOR('',#1497,10.);
#422=VECTOR('',#1498,10.);
#423=VECTOR('',#1501,10.);
#424=VECTOR('',#1502,10.);
#425=VECTOR('',#1505,10.);
#426=VECTOR('',#1506,10.);
#427=VECTOR('',#1507,10.);
#428=VECTOR('',#1508,10.);
#429=VECTOR('',#1509,10.);
#430=VECTOR('',#1510,10.);
#431=VECTOR('',#1513,10.);
#432=VECTOR('',#1514,10.);
#433=VECTOR('',#1515,10.);
#434=VECTOR('',#1518,10.);
#435=VECTOR('',#1519,10.);
#436=VECTOR('',#1522,10.);
#437=VECTOR('',#1523,10.);
#438=VECTOR('',#1524,10.);
#439=VECTOR('',#1525,10.);
#440=VECTOR('',#1528,10.);
#441=VECTOR('',#1531,10.);
#442=VECTOR('',#1532,10.);
#443=VECTOR('',#1533,10.);
#444=VECTOR('',#1534,10.);
#445=VECTOR('',#1535,10.);
#446=VECTOR('',#1538,10.);
#447=VECTOR('',#1541,10.);
#448=VECTOR('',#1542,10.);
#449=VECTOR('',#1543,10.);
#450=VECTOR('',#1544,10.);
#451=VECTOR('',#1545,10.);
#452=VECTOR('',#1548,10.);
#453=VECTOR('',#1555,10.);
#454=VECTOR('',#1558,10.);
#455=VECTOR('',#1559,10.);
#456=VECTOR('',#1560,10.);
#457=VECTOR('',#1563,10.);
#458=VECTOR('',#1566,10.);
#459=VECTOR('',#1569,10.);
#460=VECTOR('',#1570,10.);
#461=VECTOR('',#1571,10.);
#462=VECTOR('',#1574,10.);
#463=VECTOR('',#1577,10.);
#464=VECTOR('',#1578,10.);
#465=VECTOR('',#1579,10.);
#466=VECTOR('',#1580,10.);
#467=VECTOR('',#1581,10.);
#468=VECTOR('',#1584,10.);
#469=VECTOR('',#1585,10.);
#470=VECTOR('',#1586,10.);
#471=VECTOR('',#1587,10.);
#472=VECTOR('',#1588,10.);
#473=VECTOR('',#1591,1.7);
#474=VECTOR('',#1596,1.7);
#475=VECTOR('',#1601,10.);
#476=VECTOR('',#1602,10.);
#477=VECTOR('',#1603,10.);
#478=VECTOR('',#1606,10.);
#479=VECTOR('',#1607,10.);
#480=VECTOR('',#1608,10.);
#481=VECTOR('',#1611,10.);
#482=VECTOR('',#1614,10.);
#483=VECTOR('',#1619,10.);
#484=VECTOR('',#1620,10.);
#485=VECTOR('',#1621,10.);
#486=VECTOR('',#1624,10.);
#487=VECTOR('',#1625,10.);
#488=VECTOR('',#1626,10.);
#489=VECTOR('',#1629,10.);
#490=VECTOR('',#1632,10.);
#491=VECTOR('',#1637,10.);
#492=VECTOR('',#1638,10.);
#493=VECTOR('',#1641,10.);
#494=VECTOR('',#1642,10.);
#495=VECTOR('',#1645,10.);
#496=VECTOR('',#1648,10.);
#497=VECTOR('',#1655,10.);
#498=VECTOR('',#1658,10.);
#499=VECTOR('',#1661,10.);
#500=VECTOR('',#1662,10.);
#501=VECTOR('',#1665,10.);
#502=VECTOR('',#1670,10.);
#503=VECTOR('',#1671,10.);
#504=VECTOR('',#1674,10.);
#505=VECTOR('',#1675,10.);
#506=VECTOR('',#1676,10.);
#507=VECTOR('',#1677,10.);
#508=VECTOR('',#1680,10.);
#509=VECTOR('',#1683,10.);
#510=VECTOR('',#1686,10.);
#511=VECTOR('',#1689,10.);
#512=VECTOR('',#1692,10.);
#513=VECTOR('',#1695,10.);
#514=VECTOR('',#1696,10.);
#515=VECTOR('',#1701,10.);
#516=VECTOR('',#1704,10.);
#517=VECTOR('',#1707,10.);
#518=VECTOR('',#1710,10.);
#519=VECTOR('',#1713,10.);
#520=VECTOR('',#1714,10.);
#521=VECTOR('',#1717,10.);
#522=VECTOR('',#1718,10.);
#523=VECTOR('',#1721,10.);
#524=VECTOR('',#1722,10.);
#525=VERTEX_POINT('',#1733);
#526=VERTEX_POINT('',#1734);
#527=VERTEX_POINT('',#1736);
#528=VERTEX_POINT('',#1738);
#529=VERTEX_POINT('',#1742);
#530=VERTEX_POINT('',#1744);
#531=VERTEX_POINT('',#1748);
#532=VERTEX_POINT('',#1750);
#533=VERTEX_POINT('',#1757);
#534=VERTEX_POINT('',#1758);
#535=VERTEX_POINT('',#1760);
#536=VERTEX_POINT('',#1762);
#537=VERTEX_POINT('',#1766);
#538=VERTEX_POINT('',#1768);
#539=VERTEX_POINT('',#1772);
#540=VERTEX_POINT('',#1774);
#541=VERTEX_POINT('',#1781);
#542=VERTEX_POINT('',#1782);
#543=VERTEX_POINT('',#1784);
#544=VERTEX_POINT('',#1786);
#545=VERTEX_POINT('',#1790);
#546=VERTEX_POINT('',#1792);
#547=VERTEX_POINT('',#1796);
#548=VERTEX_POINT('',#1798);
#549=VERTEX_POINT('',#1805);
#550=VERTEX_POINT('',#1806);
#551=VERTEX_POINT('',#1808);
#552=VERTEX_POINT('',#1810);
#553=VERTEX_POINT('',#1814);
#554=VERTEX_POINT('',#1816);
#555=VERTEX_POINT('',#1820);
#556=VERTEX_POINT('',#1822);
#557=VERTEX_POINT('',#1829);
#558=VERTEX_POINT('',#1830);
#559=VERTEX_POINT('',#1832);
#560=VERTEX_POINT('',#1834);
#561=VERTEX_POINT('',#1838);
#562=VERTEX_POINT('',#1840);
#563=VERTEX_POINT('',#1844);
#564=VERTEX_POINT('',#1846);
#565=VERTEX_POINT('',#1853);
#566=VERTEX_POINT('',#1854);
#567=VERTEX_POINT('',#1856);
#568=VERTEX_POINT('',#1858);
#569=VERTEX_POINT('',#1860);
#570=VERTEX_POINT('',#1862);
#571=VERTEX_POINT('',#1866);
#572=VERTEX_POINT('',#1868);
#573=VERTEX_POINT('',#1872);
#574=VERTEX_POINT('',#1876);
#575=VERTEX_POINT('',#1878);
#576=VERTEX_POINT('',#1880);
#577=VERTEX_POINT('',#1884);
#578=VERTEX_POINT('',#1886);
#579=VERTEX_POINT('',#1888);
#580=VERTEX_POINT('',#1890);
#581=VERTEX_POINT('',#1892);
#582=VERTEX_POINT('',#1894);
#583=VERTEX_POINT('',#1896);
#584=VERTEX_POINT('',#1898);
#585=VERTEX_POINT('',#1900);
#586=VERTEX_POINT('',#1902);
#587=VERTEX_POINT('',#1904);
#588=VERTEX_POINT('',#1906);
#589=VERTEX_POINT('',#1908);
#590=VERTEX_POINT('',#1910);
#591=VERTEX_POINT('',#1912);
#592=VERTEX_POINT('',#1914);
#593=VERTEX_POINT('',#1917);
#594=VERTEX_POINT('',#1919);
#595=VERTEX_POINT('',#1922);
#596=VERTEX_POINT('',#1924);
#597=VERTEX_POINT('',#1926);
#598=VERTEX_POINT('',#1928);
#599=VERTEX_POINT('',#1930);
#600=VERTEX_POINT('',#1932);
#601=VERTEX_POINT('',#1936);
#602=VERTEX_POINT('',#1938);
#603=VERTEX_POINT('',#1940);
#604=VERTEX_POINT('',#1942);
#605=VERTEX_POINT('',#1944);
#606=VERTEX_POINT('',#1946);
#607=VERTEX_POINT('',#1951);
#608=VERTEX_POINT('',#1952);
#609=VERTEX_POINT('',#1954);
#610=VERTEX_POINT('',#1956);
#611=VERTEX_POINT('',#1961);
#612=VERTEX_POINT('',#1962);
#613=VERTEX_POINT('',#1964);
#614=VERTEX_POINT('',#1966);
#615=VERTEX_POINT('',#1970);
#616=VERTEX_POINT('',#1974);
#617=VERTEX_POINT('',#1978);
#618=VERTEX_POINT('',#1979);
#619=VERTEX_POINT('',#1984);
#620=VERTEX_POINT('',#1985);
#621=VERTEX_POINT('',#1995);
#622=VERTEX_POINT('',#1996);
#623=VERTEX_POINT('',#2001);
#624=VERTEX_POINT('',#2002);
#625=VERTEX_POINT('',#2024);
#626=VERTEX_POINT('',#2026);
#627=VERTEX_POINT('',#2030);
#628=VERTEX_POINT('',#2034);
#629=VERTEX_POINT('',#2038);
#630=VERTEX_POINT('',#2042);
#631=VERTEX_POINT('',#2043);
#632=VERTEX_POINT('',#2046);
#633=VERTEX_POINT('',#2048);
#634=VERTEX_POINT('',#2050);
#635=VERTEX_POINT('',#2052);
#636=VERTEX_POINT('',#2054);
#637=VERTEX_POINT('',#2064);
#638=VERTEX_POINT('',#2066);
#639=VERTEX_POINT('',#2070);
#640=VERTEX_POINT('',#2072);
#641=VERTEX_POINT('',#2074);
#642=VERTEX_POINT('',#2076);
#643=VERTEX_POINT('',#2078);
#644=VERTEX_POINT('',#2080);
#645=EDGE_CURVE('',#525,#526,#205,.T.);
#646=EDGE_CURVE('',#527,#525,#206,.T.);
#647=EDGE_CURVE('',#528,#527,#207,.T.);
#648=EDGE_CURVE('',#528,#526,#208,.T.);
#649=EDGE_CURVE('',#526,#529,#209,.T.);
#650=EDGE_CURVE('',#530,#528,#210,.T.);
#651=EDGE_CURVE('',#530,#529,#211,.T.);
#652=EDGE_CURVE('',#529,#531,#212,.T.);
#653=EDGE_CURVE('',#532,#530,#213,.T.);
#654=EDGE_CURVE('',#532,#531,#214,.T.);
#655=EDGE_CURVE('',#531,#525,#215,.T.);
#656=EDGE_CURVE('',#527,#532,#216,.T.);
#657=EDGE_CURVE('',#533,#534,#217,.T.);
#658=EDGE_CURVE('',#535,#533,#218,.T.);
#659=EDGE_CURVE('',#536,#535,#219,.T.);
#660=EDGE_CURVE('',#536,#534,#220,.T.);
#661=EDGE_CURVE('',#534,#537,#221,.T.);
#662=EDGE_CURVE('',#538,#536,#222,.T.);
#663=EDGE_CURVE('',#538,#537,#223,.T.);
#664=EDGE_CURVE('',#537,#539,#224,.T.);
#665=EDGE_CURVE('',#540,#538,#225,.T.);
#666=EDGE_CURVE('',#540,#539,#226,.T.);
#667=EDGE_CURVE('',#539,#533,#227,.T.);
#668=EDGE_CURVE('',#535,#540,#228,.T.);
#669=EDGE_CURVE('',#541,#542,#229,.T.);
#670=EDGE_CURVE('',#543,#541,#230,.T.);
#671=EDGE_CURVE('',#544,#543,#231,.T.);
#672=EDGE_CURVE('',#544,#542,#232,.T.);
#673=EDGE_CURVE('',#542,#545,#233,.T.);
#674=EDGE_CURVE('',#546,#544,#234,.T.);
#675=EDGE_CURVE('',#546,#545,#235,.T.);
#676=EDGE_CURVE('',#545,#547,#236,.T.);
#677=EDGE_CURVE('',#548,#546,#237,.T.);
#678=EDGE_CURVE('',#548,#547,#238,.T.);
#679=EDGE_CURVE('',#547,#541,#239,.T.);
#680=EDGE_CURVE('',#543,#548,#240,.T.);
#681=EDGE_CURVE('',#549,#550,#241,.T.);
#682=EDGE_CURVE('',#551,#549,#242,.T.);
#683=EDGE_CURVE('',#552,#551,#243,.T.);
#684=EDGE_CURVE('',#552,#550,#244,.T.);
#685=EDGE_CURVE('',#550,#553,#245,.T.);
#686=EDGE_CURVE('',#554,#552,#246,.T.);
#687=EDGE_CURVE('',#554,#553,#247,.T.);
#688=EDGE_CURVE('',#553,#555,#248,.T.);
#689=EDGE_CURVE('',#556,#554,#249,.T.);
#690=EDGE_CURVE('',#556,#555,#250,.T.);
#691=EDGE_CURVE('',#555,#549,#251,.T.);
#692=EDGE_CURVE('',#551,#556,#252,.T.);
#693=EDGE_CURVE('',#557,#558,#253,.T.);
#694=EDGE_CURVE('',#559,#557,#254,.T.);
#695=EDGE_CURVE('',#560,#559,#255,.T.);
#696=EDGE_CURVE('',#560,#558,#256,.T.);
#697=EDGE_CURVE('',#558,#561,#257,.T.);
#698=EDGE_CURVE('',#562,#560,#258,.T.);
#699=EDGE_CURVE('',#562,#561,#259,.T.);
#700=EDGE_CURVE('',#561,#563,#260,.T.);
#701=EDGE_CURVE('',#564,#562,#261,.T.);
#702=EDGE_CURVE('',#564,#563,#262,.T.);
#703=EDGE_CURVE('',#563,#557,#263,.T.);
#704=EDGE_CURVE('',#559,#564,#264,.T.);
#705=EDGE_CURVE('',#565,#566,#265,.T.);
#706=EDGE_CURVE('',#565,#567,#266,.T.);
#707=EDGE_CURVE('',#567,#568,#267,.T.);
#708=EDGE_CURVE('',#569,#568,#268,.T.);
#709=EDGE_CURVE('',#570,#569,#269,.T.);
#710=EDGE_CURVE('',#566,#570,#270,.T.);
#711=EDGE_CURVE('',#568,#571,#271,.T.);
#712=EDGE_CURVE('',#567,#572,#272,.T.);
#713=EDGE_CURVE('',#572,#571,#273,.T.);
#714=EDGE_CURVE('',#573,#565,#274,.T.);
#715=EDGE_CURVE('',#572,#573,#275,.T.);
#716=EDGE_CURVE('',#574,#573,#276,.T.);
#717=EDGE_CURVE('',#575,#574,#277,.T.);
#718=EDGE_CURVE('',#576,#575,#278,.T.);
#719=EDGE_CURVE('',#571,#576,#279,.T.);
#720=EDGE_CURVE('',#576,#577,#280,.T.);
#721=EDGE_CURVE('',#577,#578,#41,.T.);
#722=EDGE_CURVE('',#578,#579,#281,.T.);
#723=EDGE_CURVE('',#579,#580,#282,.T.);
#724=EDGE_CURVE('',#580,#581,#283,.T.);
#725=EDGE_CURVE('',#581,#582,#284,.T.);
#726=EDGE_CURVE('',#582,#583,#285,.T.);
#727=EDGE_CURVE('',#583,#584,#42,.T.);
#728=EDGE_CURVE('',#584,#585,#286,.T.);
#729=EDGE_CURVE('',#585,#586,#43,.T.);
#730=EDGE_CURVE('',#586,#587,#287,.T.);
#731=EDGE_CURVE('',#587,#588,#288,.T.);
#732=EDGE_CURVE('',#588,#589,#289,.T.);
#733=EDGE_CURVE('',#589,#590,#290,.T.);
#734=EDGE_CURVE('',#590,#591,#291,.T.);
#735=EDGE_CURVE('',#591,#592,#44,.T.);
#736=EDGE_CURVE('',#592,#569,#292,.T.);
#737=EDGE_CURVE('',#593,#593,#45,.T.);
#738=EDGE_CURVE('',#594,#594,#46,.T.);
#739=EDGE_CURVE('',#574,#595,#293,.T.);
#740=EDGE_CURVE('',#595,#596,#47,.T.);
#741=EDGE_CURVE('',#596,#597,#294,.T.);
#742=EDGE_CURVE('',#598,#597,#295,.T.);
#743=EDGE_CURVE('',#598,#599,#296,.T.);
#744=EDGE_CURVE('',#599,#600,#48,.T.);
#745=EDGE_CURVE('',#600,#575,#297,.T.);
#746=EDGE_CURVE('',#570,#601,#298,.T.);
#747=EDGE_CURVE('',#601,#602,#49,.T.);
#748=EDGE_CURVE('',#602,#603,#299,.T.);
#749=EDGE_CURVE('',#604,#603,#300,.T.);
#750=EDGE_CURVE('',#604,#605,#301,.T.);
#751=EDGE_CURVE('',#605,#606,#50,.T.);
#752=EDGE_CURVE('',#606,#566,#302,.T.);
#753=EDGE_CURVE('',#577,#600,#303,.T.);
#754=EDGE_CURVE('',#607,#608,#304,.T.);
#755=EDGE_CURVE('',#608,#609,#305,.T.);
#756=EDGE_CURVE('',#609,#610,#306,.T.);
#757=EDGE_CURVE('',#610,#607,#307,.T.);
#758=EDGE_CURVE('',#592,#601,#308,.T.);
#759=EDGE_CURVE('',#611,#612,#309,.T.);
#760=EDGE_CURVE('',#612,#613,#310,.T.);
#761=EDGE_CURVE('',#613,#614,#311,.T.);
#762=EDGE_CURVE('',#614,#611,#312,.T.);
#763=EDGE_CURVE('',#594,#615,#313,.T.);
#764=EDGE_CURVE('',#615,#615,#51,.T.);
#765=EDGE_CURVE('',#593,#616,#314,.T.);
#766=EDGE_CURVE('',#616,#616,#52,.T.);
#767=EDGE_CURVE('',#617,#618,#315,.T.);
#768=EDGE_CURVE('',#618,#610,#316,.T.);
#769=EDGE_CURVE('',#609,#617,#317,.T.);
#770=EDGE_CURVE('',#619,#620,#318,.T.);
#771=EDGE_CURVE('',#620,#608,#319,.T.);
#772=EDGE_CURVE('',#607,#619,#320,.T.);
#773=EDGE_CURVE('',#617,#620,#321,.T.);
#774=EDGE_CURVE('',#618,#619,#322,.T.);
#775=EDGE_CURVE('',#621,#622,#323,.T.);
#776=EDGE_CURVE('',#622,#614,#324,.T.);
#777=EDGE_CURVE('',#613,#621,#325,.T.);
#778=EDGE_CURVE('',#623,#624,#326,.T.);
#779=EDGE_CURVE('',#624,#612,#327,.T.);
#780=EDGE_CURVE('',#611,#623,#328,.T.);
#781=EDGE_CURVE('',#621,#624,#329,.T.);
#782=EDGE_CURVE('',#622,#623,#330,.T.);
#783=EDGE_CURVE('',#579,#598,#331,.T.);
#784=EDGE_CURVE('',#597,#580,#332,.T.);
#785=EDGE_CURVE('',#603,#590,#333,.T.);
#786=EDGE_CURVE('',#589,#604,#334,.T.);
#787=EDGE_CURVE('',#591,#602,#335,.T.);
#788=EDGE_CURVE('',#578,#599,#336,.T.);
#789=EDGE_CURVE('',#585,#625,#337,.T.);
#790=EDGE_CURVE('',#626,#625,#53,.T.);
#791=EDGE_CURVE('',#586,#626,#338,.T.);
#792=EDGE_CURVE('',#584,#627,#339,.T.);
#793=EDGE_CURVE('',#625,#627,#340,.T.);
#794=EDGE_CURVE('',#583,#628,#341,.T.);
#795=EDGE_CURVE('',#627,#628,#54,.T.);
#796=EDGE_CURVE('',#629,#582,#342,.T.);
#797=EDGE_CURVE('',#628,#629,#343,.T.);
#798=EDGE_CURVE('',#630,#631,#344,.T.);
#799=EDGE_CURVE('',#630,#626,#345,.T.);
#800=EDGE_CURVE('',#632,#629,#346,.T.);
#801=EDGE_CURVE('',#632,#633,#347,.T.);
#802=EDGE_CURVE('',#633,#634,#55,.T.);
#803=EDGE_CURVE('',#634,#635,#348,.T.);
#804=EDGE_CURVE('',#635,#636,#56,.T.);
#805=EDGE_CURVE('',#636,#631,#349,.T.);
#806=EDGE_CURVE('',#587,#630,#350,.T.);
#807=EDGE_CURVE('',#631,#588,#351,.T.);
#808=EDGE_CURVE('',#581,#632,#352,.T.);
#809=EDGE_CURVE('',#637,#634,#353,.T.);
#810=EDGE_CURVE('',#638,#633,#354,.T.);
#811=EDGE_CURVE('',#637,#638,#57,.T.);
#812=EDGE_CURVE('',#638,#639,#355,.T.);
#813=EDGE_CURVE('',#639,#640,#58,.T.);
#814=EDGE_CURVE('',#640,#641,#356,.T.);
#815=EDGE_CURVE('',#641,#642,#59,.T.);
#816=EDGE_CURVE('',#642,#643,#357,.T.);
#817=EDGE_CURVE('',#643,#644,#60,.T.);
#818=EDGE_CURVE('',#644,#637,#358,.T.);
#819=EDGE_CURVE('',#643,#636,#359,.T.);
#820=EDGE_CURVE('',#644,#635,#360,.T.);
#821=EDGE_CURVE('',#640,#595,#361,.T.);
#822=EDGE_CURVE('',#639,#596,#362,.T.);
#823=EDGE_CURVE('',#642,#605,#363,.T.);
#824=EDGE_CURVE('',#641,#606,#364,.T.);
#825=ORIENTED_EDGE('',*,*,#645,.F.);
#826=ORIENTED_EDGE('',*,*,#646,.F.);
#827=ORIENTED_EDGE('',*,*,#647,.F.);
#828=ORIENTED_EDGE('',*,*,#648,.T.);
#829=ORIENTED_EDGE('',*,*,#649,.F.);
#830=ORIENTED_EDGE('',*,*,#648,.F.);
#831=ORIENTED_EDGE('',*,*,#650,.F.);
#832=ORIENTED_EDGE('',*,*,#651,.T.);
#833=ORIENTED_EDGE('',*,*,#652,.F.);
#834=ORIENTED_EDGE('',*,*,#651,.F.);
#835=ORIENTED_EDGE('',*,*,#653,.F.);
#836=ORIENTED_EDGE('',*,*,#654,.T.);
#837=ORIENTED_EDGE('',*,*,#655,.F.);
#838=ORIENTED_EDGE('',*,*,#654,.F.);
#839=ORIENTED_EDGE('',*,*,#656,.F.);
#840=ORIENTED_EDGE('',*,*,#646,.T.);
#841=ORIENTED_EDGE('',*,*,#657,.F.);
#842=ORIENTED_EDGE('',*,*,#658,.F.);
#843=ORIENTED_EDGE('',*,*,#659,.F.);
#844=ORIENTED_EDGE('',*,*,#660,.T.);
#845=ORIENTED_EDGE('',*,*,#661,.F.);
#846=ORIENTED_EDGE('',*,*,#660,.F.);
#847=ORIENTED_EDGE('',*,*,#662,.F.);
#848=ORIENTED_EDGE('',*,*,#663,.T.);
#849=ORIENTED_EDGE('',*,*,#664,.F.);
#850=ORIENTED_EDGE('',*,*,#663,.F.);
#851=ORIENTED_EDGE('',*,*,#665,.F.);
#852=ORIENTED_EDGE('',*,*,#666,.T.);
#853=ORIENTED_EDGE('',*,*,#667,.F.);
#854=ORIENTED_EDGE('',*,*,#666,.F.);
#855=ORIENTED_EDGE('',*,*,#668,.F.);
#856=ORIENTED_EDGE('',*,*,#658,.T.);
#857=ORIENTED_EDGE('',*,*,#669,.F.);
#858=ORIENTED_EDGE('',*,*,#670,.F.);
#859=ORIENTED_EDGE('',*,*,#671,.F.);
#860=ORIENTED_EDGE('',*,*,#672,.T.);
#861=ORIENTED_EDGE('',*,*,#673,.F.);
#862=ORIENTED_EDGE('',*,*,#672,.F.);
#863=ORIENTED_EDGE('',*,*,#674,.F.);
#864=ORIENTED_EDGE('',*,*,#675,.T.);
#865=ORIENTED_EDGE('',*,*,#676,.F.);
#866=ORIENTED_EDGE('',*,*,#675,.F.);
#867=ORIENTED_EDGE('',*,*,#677,.F.);
#868=ORIENTED_EDGE('',*,*,#678,.T.);
#869=ORIENTED_EDGE('',*,*,#679,.F.);
#870=ORIENTED_EDGE('',*,*,#678,.F.);
#871=ORIENTED_EDGE('',*,*,#680,.F.);
#872=ORIENTED_EDGE('',*,*,#670,.T.);
#873=ORIENTED_EDGE('',*,*,#681,.F.);
#874=ORIENTED_EDGE('',*,*,#682,.F.);
#875=ORIENTED_EDGE('',*,*,#683,.F.);
#876=ORIENTED_EDGE('',*,*,#684,.T.);
#877=ORIENTED_EDGE('',*,*,#685,.F.);
#878=ORIENTED_EDGE('',*,*,#684,.F.);
#879=ORIENTED_EDGE('',*,*,#686,.F.);
#880=ORIENTED_EDGE('',*,*,#687,.T.);
#881=ORIENTED_EDGE('',*,*,#688,.F.);
#882=ORIENTED_EDGE('',*,*,#687,.F.);
#883=ORIENTED_EDGE('',*,*,#689,.F.);
#884=ORIENTED_EDGE('',*,*,#690,.T.);
#885=ORIENTED_EDGE('',*,*,#691,.F.);
#886=ORIENTED_EDGE('',*,*,#690,.F.);
#887=ORIENTED_EDGE('',*,*,#692,.F.);
#888=ORIENTED_EDGE('',*,*,#682,.T.);
#889=ORIENTED_EDGE('',*,*,#693,.F.);
#890=ORIENTED_EDGE('',*,*,#694,.F.);
#891=ORIENTED_EDGE('',*,*,#695,.F.);
#892=ORIENTED_EDGE('',*,*,#696,.T.);
#893=ORIENTED_EDGE('',*,*,#697,.F.);
#894=ORIENTED_EDGE('',*,*,#696,.F.);
#895=ORIENTED_EDGE('',*,*,#698,.F.);
#896=ORIENTED_EDGE('',*,*,#699,.T.);
#897=ORIENTED_EDGE('',*,*,#700,.F.);
#898=ORIENTED_EDGE('',*,*,#699,.F.);
#899=ORIENTED_EDGE('',*,*,#701,.F.);
#900=ORIENTED_EDGE('',*,*,#702,.T.);
#901=ORIENTED_EDGE('',*,*,#703,.F.);
#902=ORIENTED_EDGE('',*,*,#702,.F.);
#903=ORIENTED_EDGE('',*,*,#704,.F.);
#904=ORIENTED_EDGE('',*,*,#694,.T.);
#905=ORIENTED_EDGE('',*,*,#705,.F.);
#906=ORIENTED_EDGE('',*,*,#706,.T.);
#907=ORIENTED_EDGE('',*,*,#707,.T.);
#908=ORIENTED_EDGE('',*,*,#708,.F.);
#909=ORIENTED_EDGE('',*,*,#709,.F.);
#910=ORIENTED_EDGE('',*,*,#710,.F.);
#911=ORIENTED_EDGE('',*,*,#711,.F.);
#912=ORIENTED_EDGE('',*,*,#707,.F.);
#913=ORIENTED_EDGE('',*,*,#712,.T.);
#914=ORIENTED_EDGE('',*,*,#713,.T.);
#915=ORIENTED_EDGE('',*,*,#714,.F.);
#916=ORIENTED_EDGE('',*,*,#715,.F.);
#917=ORIENTED_EDGE('',*,*,#712,.F.);
#918=ORIENTED_EDGE('',*,*,#706,.F.);
#919=ORIENTED_EDGE('',*,*,#716,.F.);
#920=ORIENTED_EDGE('',*,*,#717,.F.);
#921=ORIENTED_EDGE('',*,*,#718,.F.);
#922=ORIENTED_EDGE('',*,*,#719,.F.);
#923=ORIENTED_EDGE('',*,*,#713,.F.);
#924=ORIENTED_EDGE('',*,*,#715,.T.);
#925=ORIENTED_EDGE('',*,*,#708,.T.);
#926=ORIENTED_EDGE('',*,*,#711,.T.);
#927=ORIENTED_EDGE('',*,*,#719,.T.);
#928=ORIENTED_EDGE('',*,*,#720,.T.);
#929=ORIENTED_EDGE('',*,*,#721,.T.);
#930=ORIENTED_EDGE('',*,*,#722,.T.);
#931=ORIENTED_EDGE('',*,*,#723,.T.);
#932=ORIENTED_EDGE('',*,*,#724,.T.);
#933=ORIENTED_EDGE('',*,*,#725,.T.);
#934=ORIENTED_EDGE('',*,*,#726,.T.);
#935=ORIENTED_EDGE('',*,*,#727,.T.);
#936=ORIENTED_EDGE('',*,*,#728,.T.);
#937=ORIENTED_EDGE('',*,*,#729,.T.);
#938=ORIENTED_EDGE('',*,*,#730,.T.);
#939=ORIENTED_EDGE('',*,*,#731,.T.);
#940=ORIENTED_EDGE('',*,*,#732,.T.);
#941=ORIENTED_EDGE('',*,*,#733,.T.);
#942=ORIENTED_EDGE('',*,*,#734,.T.);
#943=ORIENTED_EDGE('',*,*,#735,.T.);
#944=ORIENTED_EDGE('',*,*,#736,.T.);
#945=ORIENTED_EDGE('',*,*,#652,.T.);
#946=ORIENTED_EDGE('',*,*,#655,.T.);
#947=ORIENTED_EDGE('',*,*,#645,.T.);
#948=ORIENTED_EDGE('',*,*,#649,.T.);
#949=ORIENTED_EDGE('',*,*,#664,.T.);
#950=ORIENTED_EDGE('',*,*,#667,.T.);
#951=ORIENTED_EDGE('',*,*,#657,.T.);
#952=ORIENTED_EDGE('',*,*,#661,.T.);
#953=ORIENTED_EDGE('',*,*,#676,.T.);
#954=ORIENTED_EDGE('',*,*,#679,.T.);
#955=ORIENTED_EDGE('',*,*,#669,.T.);
#956=ORIENTED_EDGE('',*,*,#673,.T.);
#957=ORIENTED_EDGE('',*,*,#688,.T.);
#958=ORIENTED_EDGE('',*,*,#691,.T.);
#959=ORIENTED_EDGE('',*,*,#681,.T.);
#960=ORIENTED_EDGE('',*,*,#685,.T.);
#961=ORIENTED_EDGE('',*,*,#700,.T.);
#962=ORIENTED_EDGE('',*,*,#703,.T.);
#963=ORIENTED_EDGE('',*,*,#693,.T.);
#964=ORIENTED_EDGE('',*,*,#697,.T.);
#965=ORIENTED_EDGE('',*,*,#737,.T.);
#966=ORIENTED_EDGE('',*,*,#738,.T.);
#967=ORIENTED_EDGE('',*,*,#717,.T.);
#968=ORIENTED_EDGE('',*,*,#739,.T.);
#969=ORIENTED_EDGE('',*,*,#740,.T.);
#970=ORIENTED_EDGE('',*,*,#741,.T.);
#971=ORIENTED_EDGE('',*,*,#742,.F.);
#972=ORIENTED_EDGE('',*,*,#743,.T.);
#973=ORIENTED_EDGE('',*,*,#744,.T.);
#974=ORIENTED_EDGE('',*,*,#745,.T.);
#975=ORIENTED_EDGE('',*,*,#710,.T.);
#976=ORIENTED_EDGE('',*,*,#746,.T.);
#977=ORIENTED_EDGE('',*,*,#747,.T.);
#978=ORIENTED_EDGE('',*,*,#748,.T.);
#979=ORIENTED_EDGE('',*,*,#749,.F.);
#980=ORIENTED_EDGE('',*,*,#750,.T.);
#981=ORIENTED_EDGE('',*,*,#751,.T.);
#982=ORIENTED_EDGE('',*,*,#752,.T.);
#983=ORIENTED_EDGE('',*,*,#718,.T.);
#984=ORIENTED_EDGE('',*,*,#745,.F.);
#985=ORIENTED_EDGE('',*,*,#753,.F.);
#986=ORIENTED_EDGE('',*,*,#720,.F.);
#987=ORIENTED_EDGE('',*,*,#754,.T.);
#988=ORIENTED_EDGE('',*,*,#755,.T.);
#989=ORIENTED_EDGE('',*,*,#756,.T.);
#990=ORIENTED_EDGE('',*,*,#757,.T.);
#991=ORIENTED_EDGE('',*,*,#709,.T.);
#992=ORIENTED_EDGE('',*,*,#736,.F.);
#993=ORIENTED_EDGE('',*,*,#758,.T.);
#994=ORIENTED_EDGE('',*,*,#746,.F.);
#995=ORIENTED_EDGE('',*,*,#759,.T.);
#996=ORIENTED_EDGE('',*,*,#760,.T.);
#997=ORIENTED_EDGE('',*,*,#761,.T.);
#998=ORIENTED_EDGE('',*,*,#762,.T.);
#999=ORIENTED_EDGE('',*,*,#738,.F.);
#1000=ORIENTED_EDGE('',*,*,#763,.T.);
#1001=ORIENTED_EDGE('',*,*,#764,.F.);
#1002=ORIENTED_EDGE('',*,*,#763,.F.);
#1003=ORIENTED_EDGE('',*,*,#737,.F.);
#1004=ORIENTED_EDGE('',*,*,#765,.T.);
#1005=ORIENTED_EDGE('',*,*,#766,.F.);
#1006=ORIENTED_EDGE('',*,*,#765,.F.);
#1007=ORIENTED_EDGE('',*,*,#767,.T.);
#1008=ORIENTED_EDGE('',*,*,#768,.T.);
#1009=ORIENTED_EDGE('',*,*,#756,.F.);
#1010=ORIENTED_EDGE('',*,*,#769,.T.);
#1011=ORIENTED_EDGE('',*,*,#770,.T.);
#1012=ORIENTED_EDGE('',*,*,#771,.T.);
#1013=ORIENTED_EDGE('',*,*,#754,.F.);
#1014=ORIENTED_EDGE('',*,*,#772,.T.);
#1015=ORIENTED_EDGE('',*,*,#755,.F.);
#1016=ORIENTED_EDGE('',*,*,#771,.F.);
#1017=ORIENTED_EDGE('',*,*,#773,.F.);
#1018=ORIENTED_EDGE('',*,*,#769,.F.);
#1019=ORIENTED_EDGE('',*,*,#774,.T.);
#1020=ORIENTED_EDGE('',*,*,#772,.F.);
#1021=ORIENTED_EDGE('',*,*,#757,.F.);
#1022=ORIENTED_EDGE('',*,*,#768,.F.);
#1023=ORIENTED_EDGE('',*,*,#773,.T.);
#1024=ORIENTED_EDGE('',*,*,#770,.F.);
#1025=ORIENTED_EDGE('',*,*,#774,.F.);
#1026=ORIENTED_EDGE('',*,*,#767,.F.);
#1027=ORIENTED_EDGE('',*,*,#775,.T.);
#1028=ORIENTED_EDGE('',*,*,#776,.T.);
#1029=ORIENTED_EDGE('',*,*,#761,.F.);
#1030=ORIENTED_EDGE('',*,*,#777,.T.);
#1031=ORIENTED_EDGE('',*,*,#778,.T.);
#1032=ORIENTED_EDGE('',*,*,#779,.T.);
#1033=ORIENTED_EDGE('',*,*,#759,.F.);
#1034=ORIENTED_EDGE('',*,*,#780,.T.);
#1035=ORIENTED_EDGE('',*,*,#760,.F.);
#1036=ORIENTED_EDGE('',*,*,#779,.F.);
#1037=ORIENTED_EDGE('',*,*,#781,.F.);
#1038=ORIENTED_EDGE('',*,*,#777,.F.);
#1039=ORIENTED_EDGE('',*,*,#782,.T.);
#1040=ORIENTED_EDGE('',*,*,#780,.F.);
#1041=ORIENTED_EDGE('',*,*,#762,.F.);
#1042=ORIENTED_EDGE('',*,*,#776,.F.);
#1043=ORIENTED_EDGE('',*,*,#781,.T.);
#1044=ORIENTED_EDGE('',*,*,#778,.F.);
#1045=ORIENTED_EDGE('',*,*,#782,.F.);
#1046=ORIENTED_EDGE('',*,*,#775,.F.);
#1047=ORIENTED_EDGE('',*,*,#783,.T.);
#1048=ORIENTED_EDGE('',*,*,#742,.T.);
#1049=ORIENTED_EDGE('',*,*,#784,.T.);
#1050=ORIENTED_EDGE('',*,*,#723,.F.);
#1051=ORIENTED_EDGE('',*,*,#785,.T.);
#1052=ORIENTED_EDGE('',*,*,#733,.F.);
#1053=ORIENTED_EDGE('',*,*,#786,.T.);
#1054=ORIENTED_EDGE('',*,*,#749,.T.);
#1055=ORIENTED_EDGE('',*,*,#785,.F.);
#1056=ORIENTED_EDGE('',*,*,#748,.F.);
#1057=ORIENTED_EDGE('',*,*,#787,.F.);
#1058=ORIENTED_EDGE('',*,*,#734,.F.);
#1059=ORIENTED_EDGE('',*,*,#783,.F.);
#1060=ORIENTED_EDGE('',*,*,#722,.F.);
#1061=ORIENTED_EDGE('',*,*,#788,.T.);
#1062=ORIENTED_EDGE('',*,*,#743,.F.);
#1063=ORIENTED_EDGE('',*,*,#721,.F.);
#1064=ORIENTED_EDGE('',*,*,#753,.T.);
#1065=ORIENTED_EDGE('',*,*,#744,.F.);
#1066=ORIENTED_EDGE('',*,*,#788,.F.);
#1067=ORIENTED_EDGE('',*,*,#735,.F.);
#1068=ORIENTED_EDGE('',*,*,#787,.T.);
#1069=ORIENTED_EDGE('',*,*,#747,.F.);
#1070=ORIENTED_EDGE('',*,*,#758,.F.);
#1071=ORIENTED_EDGE('',*,*,#729,.F.);
#1072=ORIENTED_EDGE('',*,*,#789,.T.);
#1073=ORIENTED_EDGE('',*,*,#790,.F.);
#1074=ORIENTED_EDGE('',*,*,#791,.F.);
#1075=ORIENTED_EDGE('',*,*,#728,.F.);
#1076=ORIENTED_EDGE('',*,*,#792,.T.);
#1077=ORIENTED_EDGE('',*,*,#793,.F.);
#1078=ORIENTED_EDGE('',*,*,#789,.F.);
#1079=ORIENTED_EDGE('',*,*,#727,.F.);
#1080=ORIENTED_EDGE('',*,*,#794,.T.);
#1081=ORIENTED_EDGE('',*,*,#795,.F.);
#1082=ORIENTED_EDGE('',*,*,#792,.F.);
#1083=ORIENTED_EDGE('',*,*,#796,.F.);
#1084=ORIENTED_EDGE('',*,*,#797,.F.);
#1085=ORIENTED_EDGE('',*,*,#794,.F.);
#1086=ORIENTED_EDGE('',*,*,#726,.F.);
#1087=ORIENTED_EDGE('',*,*,#798,.F.);
#1088=ORIENTED_EDGE('',*,*,#799,.T.);
#1089=ORIENTED_EDGE('',*,*,#790,.T.);
#1090=ORIENTED_EDGE('',*,*,#793,.T.);
#1091=ORIENTED_EDGE('',*,*,#795,.T.);
#1092=ORIENTED_EDGE('',*,*,#797,.T.);
#1093=ORIENTED_EDGE('',*,*,#800,.F.);
#1094=ORIENTED_EDGE('',*,*,#801,.T.);
#1095=ORIENTED_EDGE('',*,*,#802,.T.);
#1096=ORIENTED_EDGE('',*,*,#803,.T.);
#1097=ORIENTED_EDGE('',*,*,#804,.T.);
#1098=ORIENTED_EDGE('',*,*,#805,.T.);
#1099=ORIENTED_EDGE('',*,*,#806,.F.);
#1100=ORIENTED_EDGE('',*,*,#730,.F.);
#1101=ORIENTED_EDGE('',*,*,#791,.T.);
#1102=ORIENTED_EDGE('',*,*,#799,.F.);
#1103=ORIENTED_EDGE('',*,*,#806,.T.);
#1104=ORIENTED_EDGE('',*,*,#798,.T.);
#1105=ORIENTED_EDGE('',*,*,#807,.T.);
#1106=ORIENTED_EDGE('',*,*,#731,.F.);
#1107=ORIENTED_EDGE('',*,*,#796,.T.);
#1108=ORIENTED_EDGE('',*,*,#725,.F.);
#1109=ORIENTED_EDGE('',*,*,#808,.T.);
#1110=ORIENTED_EDGE('',*,*,#800,.T.);
#1111=ORIENTED_EDGE('',*,*,#809,.T.);
#1112=ORIENTED_EDGE('',*,*,#802,.F.);
#1113=ORIENTED_EDGE('',*,*,#810,.F.);
#1114=ORIENTED_EDGE('',*,*,#811,.F.);
#1115=ORIENTED_EDGE('',*,*,#812,.T.);
#1116=ORIENTED_EDGE('',*,*,#813,.T.);
#1117=ORIENTED_EDGE('',*,*,#814,.T.);
#1118=ORIENTED_EDGE('',*,*,#815,.T.);
#1119=ORIENTED_EDGE('',*,*,#816,.T.);
#1120=ORIENTED_EDGE('',*,*,#817,.T.);
#1121=ORIENTED_EDGE('',*,*,#818,.T.);
#1122=ORIENTED_EDGE('',*,*,#811,.T.);
#1123=ORIENTED_EDGE('',*,*,#653,.T.);
#1124=ORIENTED_EDGE('',*,*,#650,.T.);
#1125=ORIENTED_EDGE('',*,*,#647,.T.);
#1126=ORIENTED_EDGE('',*,*,#656,.T.);
#1127=ORIENTED_EDGE('',*,*,#665,.T.);
#1128=ORIENTED_EDGE('',*,*,#662,.T.);
#1129=ORIENTED_EDGE('',*,*,#659,.T.);
#1130=ORIENTED_EDGE('',*,*,#668,.T.);
#1131=ORIENTED_EDGE('',*,*,#677,.T.);
#1132=ORIENTED_EDGE('',*,*,#674,.T.);
#1133=ORIENTED_EDGE('',*,*,#671,.T.);
#1134=ORIENTED_EDGE('',*,*,#680,.T.);
#1135=ORIENTED_EDGE('',*,*,#689,.T.);
#1136=ORIENTED_EDGE('',*,*,#686,.T.);
#1137=ORIENTED_EDGE('',*,*,#683,.T.);
#1138=ORIENTED_EDGE('',*,*,#692,.T.);
#1139=ORIENTED_EDGE('',*,*,#701,.T.);
#1140=ORIENTED_EDGE('',*,*,#698,.T.);
#1141=ORIENTED_EDGE('',*,*,#695,.T.);
#1142=ORIENTED_EDGE('',*,*,#704,.T.);
#1143=ORIENTED_EDGE('',*,*,#764,.T.);
#1144=ORIENTED_EDGE('',*,*,#766,.T.);
#1145=ORIENTED_EDGE('',*,*,#819,.T.);
#1146=ORIENTED_EDGE('',*,*,#804,.F.);
#1147=ORIENTED_EDGE('',*,*,#820,.F.);
#1148=ORIENTED_EDGE('',*,*,#817,.F.);
#1149=ORIENTED_EDGE('',*,*,#821,.F.);
#1150=ORIENTED_EDGE('',*,*,#813,.F.);
#1151=ORIENTED_EDGE('',*,*,#822,.T.);
#1152=ORIENTED_EDGE('',*,*,#740,.F.);
#1153=ORIENTED_EDGE('',*,*,#823,.F.);
#1154=ORIENTED_EDGE('',*,*,#815,.F.);
#1155=ORIENTED_EDGE('',*,*,#824,.T.);
#1156=ORIENTED_EDGE('',*,*,#751,.F.);
#1157=ORIENTED_EDGE('',*,*,#705,.T.);
#1158=ORIENTED_EDGE('',*,*,#752,.F.);
#1159=ORIENTED_EDGE('',*,*,#824,.F.);
#1160=ORIENTED_EDGE('',*,*,#814,.F.);
#1161=ORIENTED_EDGE('',*,*,#821,.T.);
#1162=ORIENTED_EDGE('',*,*,#739,.F.);
#1163=ORIENTED_EDGE('',*,*,#716,.T.);
#1164=ORIENTED_EDGE('',*,*,#714,.T.);
#1165=ORIENTED_EDGE('',*,*,#820,.T.);
#1166=ORIENTED_EDGE('',*,*,#803,.F.);
#1167=ORIENTED_EDGE('',*,*,#809,.F.);
#1168=ORIENTED_EDGE('',*,*,#818,.F.);
#1169=ORIENTED_EDGE('',*,*,#823,.T.);
#1170=ORIENTED_EDGE('',*,*,#750,.F.);
#1171=ORIENTED_EDGE('',*,*,#786,.F.);
#1172=ORIENTED_EDGE('',*,*,#732,.F.);
#1173=ORIENTED_EDGE('',*,*,#807,.F.);
#1174=ORIENTED_EDGE('',*,*,#805,.F.);
#1175=ORIENTED_EDGE('',*,*,#819,.F.);
#1176=ORIENTED_EDGE('',*,*,#816,.F.);
#1177=ORIENTED_EDGE('',*,*,#810,.T.);
#1178=ORIENTED_EDGE('',*,*,#801,.F.);
#1179=ORIENTED_EDGE('',*,*,#808,.F.);
#1180=ORIENTED_EDGE('',*,*,#724,.F.);
#1181=ORIENTED_EDGE('',*,*,#784,.F.);
#1182=ORIENTED_EDGE('',*,*,#741,.F.);
#1183=ORIENTED_EDGE('',*,*,#822,.F.);
#1184=ORIENTED_EDGE('',*,*,#812,.F.);
#1185=PLANE('',#1317);
#1186=PLANE('',#1318);
#1187=PLANE('',#1319);
#1188=PLANE('',#1320);
#1189=PLANE('',#1321);
#1190=PLANE('',#1322);
#1191=PLANE('',#1323);
#1192=PLANE('',#1324);
#1193=PLANE('',#1325);
#1194=PLANE('',#1326);
#1195=PLANE('',#1327);
#1196=PLANE('',#1328);
#1197=PLANE('',#1329);
#1198=PLANE('',#1330);
#1199=PLANE('',#1331);
#1200=PLANE('',#1332);
#1201=PLANE('',#1333);
#1202=PLANE('',#1334);
#1203=PLANE('',#1335);
#1204=PLANE('',#1336);
#1205=PLANE('',#1337);
#1206=PLANE('',#1338);
#1207=PLANE('',#1339);
#1208=PLANE('',#1340);
#1209=PLANE('',#1341);
#1210=PLANE('',#1348);
#1211=PLANE('',#1351);
#1212=PLANE('',#1354);
#1213=PLANE('',#1355);
#1214=PLANE('',#1360);
#1215=PLANE('',#1361);
#1216=PLANE('',#1362);
#1217=PLANE('',#1363);
#1218=PLANE('',#1364);
#1219=PLANE('',#1365);
#1220=PLANE('',#1366);
#1221=PLANE('',#1367);
#1222=PLANE('',#1368);
#1223=PLANE('',#1369);
#1224=PLANE('',#1370);
#1225=PLANE('',#1371);
#1226=PLANE('',#1372);
#1227=PLANE('',#1373);
#1228=PLANE('',#1378);
#1229=PLANE('',#1381);
#1230=PLANE('',#1382);
#1231=PLANE('',#1385);
#1232=PLANE('',#1386);
#1233=PLANE('',#1387);
#1234=PLANE('',#1390);
#1235=PLANE('',#1397);
#1236=PLANE('',#1398);
#1237=PLANE('',#1399);
#1238=PLANE('',#1400);
#1239=ADVANCED_FACE('',(#61),#1185,.T.);
#1240=ADVANCED_FACE('',(#62),#1186,.T.);
#1241=ADVANCED_FACE('',(#63),#1187,.T.);
#1242=ADVANCED_FACE('',(#64),#1188,.T.);
#1243=ADVANCED_FACE('',(#65),#1189,.T.);
#1244=ADVANCED_FACE('',(#66),#1190,.T.);
#1245=ADVANCED_FACE('',(#67),#1191,.T.);
#1246=ADVANCED_FACE('',(#68),#1192,.T.);
#1247=ADVANCED_FACE('',(#69),#1193,.T.);
#1248=ADVANCED_FACE('',(#70),#1194,.T.);
#1249=ADVANCED_FACE('',(#71),#1195,.T.);
#1250=ADVANCED_FACE('',(#72),#1196,.T.);
#1251=ADVANCED_FACE('',(#73),#1197,.T.);
#1252=ADVANCED_FACE('',(#74),#1198,.T.);
#1253=ADVANCED_FACE('',(#75),#1199,.T.);
#1254=ADVANCED_FACE('',(#76),#1200,.T.);
#1255=ADVANCED_FACE('',(#77),#1201,.T.);
#1256=ADVANCED_FACE('',(#78),#1202,.T.);
#1257=ADVANCED_FACE('',(#79),#1203,.T.);
#1258=ADVANCED_FACE('',(#80),#1204,.T.);
#1259=ADVANCED_FACE('',(#81),#1205,.T.);
#1260=ADVANCED_FACE('',(#82),#1206,.T.);
#1261=ADVANCED_FACE('',(#83),#1207,.F.);
#1262=ADVANCED_FACE('',(#84),#1208,.T.);
#1263=ADVANCED_FACE('',(#85,#25,#26,#27,#28,#29,#30,#31),#1209,.F.);
#1264=ADVANCED_FACE('',(#86),#1210,.F.);
#1265=ADVANCED_FACE('',(#87),#1211,.F.);
#1266=ADVANCED_FACE('',(#88,#32),#1212,.T.);
#1267=ADVANCED_FACE('',(#89,#33),#1213,.T.);
#1268=ADVANCED_FACE('',(#90),#15,.F.);
#1269=ADVANCED_FACE('',(#91),#16,.F.);
#1270=ADVANCED_FACE('',(#92),#1214,.T.);
#1271=ADVANCED_FACE('',(#93),#1215,.F.);
#1272=ADVANCED_FACE('',(#94),#1216,.F.);
#1273=ADVANCED_FACE('',(#95),#1217,.F.);
#1274=ADVANCED_FACE('',(#96),#1218,.F.);
#1275=ADVANCED_FACE('',(#97),#1219,.T.);
#1276=ADVANCED_FACE('',(#98),#1220,.F.);
#1277=ADVANCED_FACE('',(#99),#1221,.F.);
#1278=ADVANCED_FACE('',(#100),#1222,.F.);
#1279=ADVANCED_FACE('',(#101),#1223,.F.);
#1280=ADVANCED_FACE('',(#102),#1224,.F.);
#1281=ADVANCED_FACE('',(#103),#1225,.F.);
#1282=ADVANCED_FACE('',(#104),#1226,.T.);
#1283=ADVANCED_FACE('',(#105),#1227,.T.);
#1284=ADVANCED_FACE('',(#106),#17,.F.);
#1285=ADVANCED_FACE('',(#107),#18,.F.);
#1286=ADVANCED_FACE('',(#108),#19,.F.);
#1287=ADVANCED_FACE('',(#109),#1228,.T.);
#1288=ADVANCED_FACE('',(#110),#20,.F.);
#1289=ADVANCED_FACE('',(#111),#1229,.T.);
#1290=ADVANCED_FACE('',(#112),#1230,.F.);
#1291=ADVANCED_FACE('',(#113),#1231,.T.);
#1292=ADVANCED_FACE('',(#114),#1232,.F.);
#1293=ADVANCED_FACE('',(#115),#1233,.F.);
#1294=ADVANCED_FACE('',(#116),#21,.T.);
#1295=ADVANCED_FACE('',(#117,#34,#35,#36,#37,#38,#39,#40),#1234,.T.);
#1296=ADVANCED_FACE('',(#118),#22,.T.);
#1297=ADVANCED_FACE('',(#119),#23,.T.);
#1298=ADVANCED_FACE('',(#120),#24,.T.);
#1299=ADVANCED_FACE('',(#121),#1235,.F.);
#1300=ADVANCED_FACE('',(#122),#1236,.F.);
#1301=ADVANCED_FACE('',(#123),#1237,.F.);
#1302=ADVANCED_FACE('',(#124),#1238,.F.);
#1303=CLOSED_SHELL('',(#1239,#1240,#1241,#1242,#1243,#1244,#1245,#1246,
#1247,#1248,#1249,#1250,#1251,#1252,#1253,#1254,#1255,#1256,#1257,#1258,
#1259,#1260,#1261,#1262,#1263,#1264,#1265,#1266,#1267,#1268,#1269,#1270,
#1271,#1272,#1273,#1274,#1275,#1276,#1277,#1278,#1279,#1280,#1281,#1282,
#1283,#1284,#1285,#1286,#1287,#1288,#1289,#1290,#1291,#1292,#1293,#1294,
#1295,#1296,#1297,#1298,#1299,#1300,#1301,#1302));
#1304=DERIVED_UNIT_ELEMENT(#1306,1.);
#1305=DERIVED_UNIT_ELEMENT(#2101,-3.);
#1306=(
MASS_UNIT()
NAMED_UNIT(*)
SI_UNIT(.KILO.,.GRAM.)
);
#1307=DERIVED_UNIT((#1304,#1305));
#1308=MEASURE_REPRESENTATION_ITEM('density measure',
POSITIVE_RATIO_MEASURE(7850.),#1307);
#1309=PROPERTY_DEFINITION_REPRESENTATION(#1314,#1311);
#1310=PROPERTY_DEFINITION_REPRESENTATION(#1315,#1312);
#1311=REPRESENTATION('material name',(#1313),#2098);
#1312=REPRESENTATION('density',(#1308),#2098);
#1313=DESCRIPTIVE_REPRESENTATION_ITEM('Steel','Steel');
#1314=PROPERTY_DEFINITION('material property','material name',#2108);
#1315=PROPERTY_DEFINITION('material property','density of part',#2108);
#1316=AXIS2_PLACEMENT_3D('',#1731,#1401,#1402);
#1317=AXIS2_PLACEMENT_3D('',#1732,#1403,#1404);
#1318=AXIS2_PLACEMENT_3D('',#1741,#1409,#1410);
#1319=AXIS2_PLACEMENT_3D('',#1747,#1414,#1415);
#1320=AXIS2_PLACEMENT_3D('',#1753,#1419,#1420);
#1321=AXIS2_PLACEMENT_3D('',#1756,#1423,#1424);
#1322=AXIS2_PLACEMENT_3D('',#1765,#1429,#1430);
#1323=AXIS2_PLACEMENT_3D('',#1771,#1434,#1435);
#1324=AXIS2_PLACEMENT_3D('',#1777,#1439,#1440);
#1325=AXIS2_PLACEMENT_3D('',#1780,#1443,#1444);
#1326=AXIS2_PLACEMENT_3D('',#1789,#1449,#1450);
#1327=AXIS2_PLACEMENT_3D('',#1795,#1454,#1455);
#1328=AXIS2_PLACEMENT_3D('',#1801,#1459,#1460);
#1329=AXIS2_PLACEMENT_3D('',#1804,#1463,#1464);
#1330=AXIS2_PLACEMENT_3D('',#1813,#1469,#1470);
#1331=AXIS2_PLACEMENT_3D('',#1819,#1474,#1475);
#1332=AXIS2_PLACEMENT_3D('',#1825,#1479,#1480);
#1333=AXIS2_PLACEMENT_3D('',#1828,#1483,#1484);
#1334=AXIS2_PLACEMENT_3D('',#1837,#1489,#1490);
#1335=AXIS2_PLACEMENT_3D('',#1843,#1494,#1495);
#1336=AXIS2_PLACEMENT_3D('',#1849,#1499,#1500);
#1337=AXIS2_PLACEMENT_3D('',#1852,#1503,#1504);
#1338=AXIS2_PLACEMENT_3D('',#1865,#1511,#1512);
#1339=AXIS2_PLACEMENT_3D('',#1871,#1516,#1517);
#1340=AXIS2_PLACEMENT_3D('',#1875,#1520,#1521);
#1341=AXIS2_PLACEMENT_3D('',#1883,#1526,#1527);
#1342=AXIS2_PLACEMENT_3D('',#1887,#1529,#1530);
#1343=AXIS2_PLACEMENT_3D('',#1899,#1536,#1537);
#1344=AXIS2_PLACEMENT_3D('',#1903,#1539,#1540);
#1345=AXIS2_PLACEMENT_3D('',#1915,#1546,#1547);
#1346=AXIS2_PLACEMENT_3D('',#1918,#1549,#1550);
#1347=AXIS2_PLACEMENT_3D('',#1920,#1551,#1552);
#1348=AXIS2_PLACEMENT_3D('',#1921,#1553,#1554);
#1349=AXIS2_PLACEMENT_3D('',#1925,#1556,#1557);
#1350=AXIS2_PLACEMENT_3D('',#1933,#1561,#1562);
#1351=AXIS2_PLACEMENT_3D('',#1935,#1564,#1565);
#1352=AXIS2_PLACEMENT_3D('',#1939,#1567,#1568);
#1353=AXIS2_PLACEMENT_3D('',#1947,#1572,#1573);
#1354=AXIS2_PLACEMENT_3D('',#1949,#1575,#1576);
#1355=AXIS2_PLACEMENT_3D('',#1959,#1582,#1583);
#1356=AXIS2_PLACEMENT_3D('',#1969,#1589,#1590);
#1357=AXIS2_PLACEMENT_3D('',#1972,#1592,#1593);
#1358=AXIS2_PLACEMENT_3D('',#1973,#1594,#1595);
#1359=AXIS2_PLACEMENT_3D('',#1976,#1597,#1598);
#1360=AXIS2_PLACEMENT_3D('',#1977,#1599,#1600);
#1361=AXIS2_PLACEMENT_3D('',#1983,#1604,#1605);
#1362=AXIS2_PLACEMENT_3D('',#1989,#1609,#1610);
#1363=AXIS2_PLACEMENT_3D('',#1991,#1612,#1613);
#1364=AXIS2_PLACEMENT_3D('',#1993,#1615,#1616);
#1365=AXIS2_PLACEMENT_3D('',#1994,#1617,#1618);
#1366=AXIS2_PLACEMENT_3D('',#2000,#1622,#1623);
#1367=AXIS2_PLACEMENT_3D('',#2006,#1627,#1628);
#1368=AXIS2_PLACEMENT_3D('',#2008,#1630,#1631);
#1369=AXIS2_PLACEMENT_3D('',#2010,#1633,#1634);
#1370=AXIS2_PLACEMENT_3D('',#2011,#1635,#1636);
#1371=AXIS2_PLACEMENT_3D('',#2014,#1639,#1640);
#1372=AXIS2_PLACEMENT_3D('',#2017,#1643,#1644);
#1373=AXIS2_PLACEMENT_3D('',#2019,#1646,#1647);
#1374=AXIS2_PLACEMENT_3D('',#2021,#1649,#1650);
#1375=AXIS2_PLACEMENT_3D('',#2022,#1651,#1652);
#1376=AXIS2_PLACEMENT_3D('',#2023,#1653,#1654);
#1377=AXIS2_PLACEMENT_3D('',#2027,#1656,#1657);
#1378=AXIS2_PLACEMENT_3D('',#2029,#1659,#1660);
#1379=AXIS2_PLACEMENT_3D('',#2033,#1663,#1664);
#1380=AXIS2_PLACEMENT_3D('',#2036,#1666,#1667);
#1381=AXIS2_PLACEMENT_3D('',#2037,#1668,#1669);
#1382=AXIS2_PLACEMENT_3D('',#2041,#1672,#1673);
#1383=AXIS2_PLACEMENT_3D('',#2051,#1678,#1679);
#1384=AXIS2_PLACEMENT_3D('',#2055,#1681,#1682);
#1385=AXIS2_PLACEMENT_3D('',#2057,#1684,#1685);
#1386=AXIS2_PLACEMENT_3D('',#2059,#1687,#1688);
#1387=AXIS2_PLACEMENT_3D('',#2061,#1690,#1691);
#1388=AXIS2_PLACEMENT_3D('',#2063,#1693,#1694);
#1389=AXIS2_PLACEMENT_3D('',#2068,#1697,#1698);
#1390=AXIS2_PLACEMENT_3D('',#2069,#1699,#1700);
#1391=AXIS2_PLACEMENT_3D('',#2073,#1702,#1703);
#1392=AXIS2_PLACEMENT_3D('',#2077,#1705,#1706);
#1393=AXIS2_PLACEMENT_3D('',#2081,#1708,#1709);
#1394=AXIS2_PLACEMENT_3D('',#2083,#1711,#1712);
#1395=AXIS2_PLACEMENT_3D('',#2086,#1715,#1716);
#1396=AXIS2_PLACEMENT_3D('',#2089,#1719,#1720);
#1397=AXIS2_PLACEMENT_3D('',#2092,#1723,#1724);
#1398=AXIS2_PLACEMENT_3D('',#2093,#1725,#1726);
#1399=AXIS2_PLACEMENT_3D('',#2094,#1727,#1728);
#1400=AXIS2_PLACEMENT_3D('',#2095,#1729,#1730);
#1401=DIRECTION('axis',(0.,0.,1.));
#1402=DIRECTION('refdir',(1.,0.,0.));
#1403=DIRECTION('center_axis',(0.,-1.,0.));
#1404=DIRECTION('ref_axis',(0.,0.,-1.));
#1405=DIRECTION('',(-1.,0.,0.));
#1406=DIRECTION('',(0.,0.,-1.));
#1407=DIRECTION('',(1.,0.,0.));
#1408=DIRECTION('',(0.,0.,-1.));
#1409=DIRECTION('center_axis',(1.,0.,0.));
#1410=DIRECTION('ref_axis',(0.,0.,-1.));
#1411=DIRECTION('',(0.,-1.,0.));
#1412=DIRECTION('',(0.,1.,0.));
#1413=DIRECTION('',(0.,0.,-1.));
#1414=DIRECTION('center_axis',(0.,1.,0.));
#1415=DIRECTION('ref_axis',(0.,0.,1.));
#1416=DIRECTION('',(1.,0.,0.));
#1417=DIRECTION('',(-1.,0.,0.));
#1418=DIRECTION('',(0.,0.,-1.));
#1419=DIRECTION('center_axis',(-1.,0.,0.));
#1420=DIRECTION('ref_axis',(0.,0.,1.));
#1421=DIRECTION('',(0.,1.,0.));
#1422=DIRECTION('',(0.,-1.,0.));
#1423=DIRECTION('center_axis',(0.,-1.,0.));
#1424=DIRECTION('ref_axis',(0.,0.,-1.));
#1425=DIRECTION('',(-1.,0.,0.));
#1426=DIRECTION('',(0.,0.,-1.));
#1427=DIRECTION('',(1.,0.,0.));
#1428=DIRECTION('',(0.,0.,-1.));
#1429=DIRECTION('center_axis',(1.,0.,0.));
#1430=DIRECTION('ref_axis',(0.,0.,-1.));
#1431=DIRECTION('',(0.,-1.,0.));
#1432=DIRECTION('',(0.,1.,0.));
#1433=DIRECTION('',(0.,0.,-1.));
#1434=DIRECTION('center_axis',(0.,1.,0.));
#1435=DIRECTION('ref_axis',(0.,0.,1.));
#1436=DIRECTION('',(1.,0.,0.));
#1437=DIRECTION('',(-1.,0.,0.));
#1438=DIRECTION('',(0.,0.,-1.));
#1439=DIRECTION('center_axis',(-1.,0.,0.));
#1440=DIRECTION('ref_axis',(0.,0.,1.));
#1441=DIRECTION('',(0.,1.,0.));
#1442=DIRECTION('',(0.,-1.,0.));
#1443=DIRECTION('center_axis',(0.,-1.,0.));
#1444=DIRECTION('ref_axis',(0.,0.,-1.));
#1445=DIRECTION('',(-1.,0.,0.));
#1446=DIRECTION('',(0.,0.,-1.));
#1447=DIRECTION('',(1.,0.,0.));
#1448=DIRECTION('',(0.,0.,-1.));
#1449=DIRECTION('center_axis',(1.,0.,0.));
#1450=DIRECTION('ref_axis',(0.,0.,-1.));
#1451=DIRECTION('',(0.,-1.,0.));
#1452=DIRECTION('',(0.,1.,0.));
#1453=DIRECTION('',(0.,0.,-1.));
#1454=DIRECTION('center_axis',(0.,1.,0.));
#1455=DIRECTION('ref_axis',(0.,0.,1.));
#1456=DIRECTION('',(1.,0.,0.));
#1457=DIRECTION('',(-1.,0.,0.));
#1458=DIRECTION('',(0.,0.,-1.));
#1459=DIRECTION('center_axis',(-1.,0.,0.));
#1460=DIRECTION('ref_axis',(0.,0.,1.));
#1461=DIRECTION('',(0.,1.,0.));
#1462=DIRECTION('',(0.,-1.,0.));
#1463=DIRECTION('center_axis',(0.,-1.,0.));
#1464=DIRECTION('ref_axis',(0.,0.,-1.));
#1465=DIRECTION('',(-1.,0.,0.));
#1466=DIRECTION('',(0.,0.,-1.));
#1467=DIRECTION('',(1.,0.,0.));
#1468=DIRECTION('',(0.,0.,-1.));
#1469=DIRECTION('center_axis',(1.,0.,0.));
#1470=DIRECTION('ref_axis',(0.,0.,-1.));
#1471=DIRECTION('',(0.,-1.,0.));
#1472=DIRECTION('',(0.,1.,0.));
#1473=DIRECTION('',(0.,0.,-1.));
#1474=DIRECTION('center_axis',(0.,1.,0.));
#1475=DIRECTION('ref_axis',(0.,0.,1.));
#1476=DIRECTION('',(1.,0.,0.));
#1477=DIRECTION('',(-1.,0.,0.));
#1478=DIRECTION('',(0.,0.,-1.));
#1479=DIRECTION('center_axis',(-1.,0.,0.));
#1480=DIRECTION('ref_axis',(0.,0.,1.));
#1481=DIRECTION('',(0.,1.,0.));
#1482=DIRECTION('',(0.,-1.,0.));
#1483=DIRECTION('center_axis',(0.,-1.,0.));
#1484=DIRECTION('ref_axis',(0.,0.,-1.));
#1485=DIRECTION('',(-1.,0.,0.));
#1486=DIRECTION('',(0.,0.,-1.));
#1487=DIRECTION('',(1.,0.,0.));
#1488=DIRECTION('',(0.,0.,-1.));
#1489=DIRECTION('center_axis',(1.,0.,0.));
#1490=DIRECTION('ref_axis',(0.,0.,-1.));
#1491=DIRECTION('',(0.,-1.,0.));
#1492=DIRECTION('',(0.,1.,0.));
#1493=DIRECTION('',(0.,0.,-1.));
#1494=DIRECTION('center_axis',(0.,1.,0.));
#1495=DIRECTION('ref_axis',(0.,0.,1.));
#1496=DIRECTION('',(1.,0.,0.));
#1497=DIRECTION('',(-1.,0.,0.));
#1498=DIRECTION('',(0.,0.,-1.));
#1499=DIRECTION('center_axis',(-1.,0.,0.));
#1500=DIRECTION('ref_axis',(0.,0.,1.));
#1501=DIRECTION('',(0.,1.,0.));
#1502=DIRECTION('',(0.,-1.,0.));
#1503=DIRECTION('center_axis',(0.,1.,0.));
#1504=DIRECTION('ref_axis',(0.,0.,1.));
#1505=DIRECTION('',(0.,0.,-1.));
#1506=DIRECTION('',(1.,0.,0.));
#1507=DIRECTION('',(0.,0.,-1.));
#1508=DIRECTION('',(1.,0.,0.));
#1509=DIRECTION('',(0.,0.,1.));
#1510=DIRECTION('',(1.,0.,0.));
#1511=DIRECTION('center_axis',(-1.,0.,0.));
#1512=DIRECTION('ref_axis',(0.,0.,1.));
#1513=DIRECTION('',(0.,1.,0.));
#1514=DIRECTION('',(0.,1.,0.));
#1515=DIRECTION('',(0.,0.,-1.));
#1516=DIRECTION('center_axis',(0.,0.,1.));
#1517=DIRECTION('ref_axis',(1.,0.,0.));
#1518=DIRECTION('',(0.,-1.,0.));
#1519=DIRECTION('',(-1.,0.,0.));
#1520=DIRECTION('center_axis',(0.,-1.,0.));
#1521=DIRECTION('ref_axis',(0.,0.,-1.));
#1522=DIRECTION('',(0.,0.,1.));
#1523=DIRECTION('',(-1.,0.,0.));
#1524=DIRECTION('',(0.,0.,-1.));
#1525=DIRECTION('',(-1.,0.,0.));
#1526=DIRECTION('center_axis',(0.,0.,1.));
#1527=DIRECTION('ref_axis',(1.,0.,0.));
#1528=DIRECTION('',(0.,1.,0.));
#1529=DIRECTION('center_axis',(0.,0.,-1.));
#1530=DIRECTION('ref_axis',(1.,0.,0.));
#1531=DIRECTION('',(1.,0.,0.));
#1532=DIRECTION('',(0.,1.,0.));
#1533=DIRECTION('',(1.,0.,0.));
#1534=DIRECTION('',(0.,-1.,0.));
#1535=DIRECTION('',(1.,0.,0.));
#1536=DIRECTION('center_axis',(0.,0.,-1.));
#1537=DIRECTION('ref_axis',(1.,0.,0.));
#1538=DIRECTION('',(0.,-1.,0.));
#1539=DIRECTION('center_axis',(0.,0.,-1.));
#1540=DIRECTION('ref_axis',(1.,0.,0.));
#1541=DIRECTION('',(-1.,0.,0.));
#1542=DIRECTION('',(0.,-1.,0.));
#1543=DIRECTION('',(-1.,0.,0.));
#1544=DIRECTION('',(0.,1.,0.));
#1545=DIRECTION('',(-1.,0.,0.));
#1546=DIRECTION('center_axis',(0.,0.,-1.));
#1547=DIRECTION('ref_axis',(1.,0.,0.));
#1548=DIRECTION('',(0.,1.,0.));
#1549=DIRECTION('center_axis',(0.,0.,1.));
#1550=DIRECTION('ref_axis',(1.,0.,0.));
#1551=DIRECTION('center_axis',(0.,0.,1.));
#1552=DIRECTION('ref_axis',(1.,0.,0.));
#1553=DIRECTION('center_axis',(0.,0.,1.));
#1554=DIRECTION('ref_axis',(1.,0.,0.));
#1555=DIRECTION('',(0.,1.,0.));
#1556=DIRECTION('center_axis',(0.,0.,-1.));
#1557=DIRECTION('ref_axis',(1.,0.,0.));
#1558=DIRECTION('',(1.,0.,0.));
#1559=DIRECTION('',(0.,1.,0.));
#1560=DIRECTION('',(-1.,0.,0.));
#1561=DIRECTION('center_axis',(0.,0.,1.));
#1562=DIRECTION('ref_axis',(1.,0.,0.));
#1563=DIRECTION('',(0.,-1.,0.));
#1564=DIRECTION('center_axis',(0.,0.,1.));
#1565=DIRECTION('ref_axis',(1.,0.,0.));
#1566=DIRECTION('',(0.,-1.,0.));
#1567=DIRECTION('center_axis',(0.,0.,1.));
#1568=DIRECTION('ref_axis',(1.,0.,0.));
#1569=DIRECTION('',(1.,0.,0.));
#1570=DIRECTION('',(0.,1.,0.));
#1571=DIRECTION('',(-1.,0.,0.));
#1572=DIRECTION('center_axis',(0.,0.,-1.));
#1573=DIRECTION('ref_axis',(1.,0.,0.));
#1574=DIRECTION('',(0.,1.,0.));
#1575=DIRECTION('center_axis',(1.,0.,0.));
#1576=DIRECTION('ref_axis',(0.,0.,-1.));
#1577=DIRECTION('',(0.,0.,-1.));
#1578=DIRECTION('',(0.,-1.,0.));
#1579=DIRECTION('',(0.,0.,1.));
#1580=DIRECTION('',(0.,1.,0.));
#1581=DIRECTION('',(0.,0.,-1.));
#1582=DIRECTION('center_axis',(1.,0.,0.));
#1583=DIRECTION('ref_axis',(0.,0.,-1.));
#1584=DIRECTION('',(0.,0.,-1.));
#1585=DIRECTION('',(0.,-1.,0.));
#1586=DIRECTION('',(0.,0.,1.));
#1587=DIRECTION('',(0.,1.,0.));
#1588=DIRECTION('',(0.,0.,-1.));
#1589=DIRECTION('center_axis',(0.,0.,1.));
#1590=DIRECTION('ref_axis',(1.,0.,0.));
#1591=DIRECTION('',(0.,0.,1.));
#1592=DIRECTION('center_axis',(0.,0.,-1.));
#1593=DIRECTION('ref_axis',(1.,0.,0.));
#1594=DIRECTION('center_axis',(0.,0.,1.));
#1595=DIRECTION('ref_axis',(1.,0.,0.));
#1596=DIRECTION('',(0.,0.,1.));
#1597=DIRECTION('center_axis',(0.,0.,-1.));
#1598=DIRECTION('ref_axis',(1.,0.,0.));
#1599=DIRECTION('center_axis',(0.,0.,1.));
#1600=DIRECTION('ref_axis',(1.,0.,0.));
#1601=DIRECTION('',(0.,1.,0.));
#1602=DIRECTION('',(-1.,0.,0.));
#1603=DIRECTION('',(1.,0.,0.));
#1604=DIRECTION('center_axis',(0.,0.,1.));
#1605=DIRECTION('ref_axis',(1.,0.,0.));
#1606=DIRECTION('',(0.,-1.,0.));
#1607=DIRECTION('',(-1.,0.,0.));
#1608=DIRECTION('',(1.,0.,0.));
#1609=DIRECTION('center_axis',(0.,1.,0.));
#1610=DIRECTION('ref_axis',(0.,0.,1.));
#1611=DIRECTION('',(0.,0.,-1.));
#1612=DIRECTION('center_axis',(0.,-1.,0.));
#1613=DIRECTION('ref_axis',(0.,0.,-1.));
#1614=DIRECTION('',(0.,0.,-1.));
#1615=DIRECTION('center_axis',(-1.,0.,0.));
#1616=DIRECTION('ref_axis',(0.,0.,1.));
#1617=DIRECTION('center_axis',(0.,0.,1.));
#1618=DIRECTION('ref_axis',(1.,0.,0.));
#1619=DIRECTION('',(0.,1.,0.));
#1620=DIRECTION('',(-1.,0.,0.));
#1621=DIRECTION('',(1.,0.,0.));
#1622=DIRECTION('center_axis',(0.,0.,1.));
#1623=DIRECTION('ref_axis',(1.,0.,0.));
#1624=DIRECTION('',(0.,-1.,0.));
#1625=DIRECTION('',(-1.,0.,0.));
#1626=DIRECTION('',(1.,0.,0.));
#1627=DIRECTION('center_axis',(0.,1.,0.));
#1628=DIRECTION('ref_axis',(0.,0.,1.));
#1629=DIRECTION('',(0.,0.,-1.));
#1630=DIRECTION('center_axis',(0.,-1.,0.));
#1631=DIRECTION('ref_axis',(0.,0.,-1.));
#1632=DIRECTION('',(0.,0.,-1.));
#1633=DIRECTION('center_axis',(-1.,0.,0.));
#1634=DIRECTION('ref_axis',(0.,0.,1.));
#1635=DIRECTION('center_axis',(-1.,0.,0.));
#1636=DIRECTION('ref_axis',(0.,0.,1.));
#1637=DIRECTION('',(0.,0.,-1.));
#1638=DIRECTION('',(0.,0.,1.));
#1639=DIRECTION('center_axis',(-1.,0.,0.));
#1640=DIRECTION('ref_axis',(0.,0.,1.));
#1641=DIRECTION('',(0.,0.,1.));
#1642=DIRECTION('',(0.,0.,-1.));
#1643=DIRECTION('center_axis',(0.,1.,0.));
#1644=DIRECTION('ref_axis',(0.,0.,1.));
#1645=DIRECTION('',(0.,0.,-1.));
#1646=DIRECTION('center_axis',(0.,-1.,0.));
#1647=DIRECTION('ref_axis',(0.,0.,-1.));
#1648=DIRECTION('',(0.,0.,-1.));
#1649=DIRECTION('center_axis',(0.,0.,1.));
#1650=DIRECTION('ref_axis',(1.,0.,0.));
#1651=DIRECTION('center_axis',(0.,0.,1.));
#1652=DIRECTION('ref_axis',(1.,0.,0.));
#1653=DIRECTION('center_axis',(0.,0.,1.));
#1654=DIRECTION('ref_axis',(1.,0.,0.));
#1655=DIRECTION('',(0.,0.,-1.));
#1656=DIRECTION('center_axis',(0.,0.,1.));
#1657=DIRECTION('ref_axis',(1.,0.,0.));
#1658=DIRECTION('',(0.,0.,-1.));
#1659=DIRECTION('center_axis',(-1.,0.,0.));
#1660=DIRECTION('ref_axis',(0.,0.,1.));
#1661=DIRECTION('',(0.,0.,-1.));
#1662=DIRECTION('',(0.,1.,0.));
#1663=DIRECTION('center_axis',(0.,0.,1.));
#1664=DIRECTION('ref_axis',(1.,0.,0.));
#1665=DIRECTION('',(0.,0.,-1.));
#1666=DIRECTION('center_axis',(0.,0.,1.));
#1667=DIRECTION('ref_axis',(1.,0.,0.));
#1668=DIRECTION('center_axis',(0.,-1.,0.));
#1669=DIRECTION('ref_axis',(0.,0.,-1.));
#1670=DIRECTION('',(0.,0.,1.));
#1671=DIRECTION('',(-1.,0.,0.));
#1672=DIRECTION('center_axis',(0.,0.,1.));
#1673=DIRECTION('ref_axis',(1.,0.,0.));
#1674=DIRECTION('',(0.,-1.,0.));
#1675=DIRECTION('',(1.,0.,0.));
#1676=DIRECTION('',(0.,-1.,0.));
#1677=DIRECTION('',(1.,0.,0.));
#1678=DIRECTION('center_axis',(0.,0.,-1.));
#1679=DIRECTION('ref_axis',(1.,0.,0.));
#1680=DIRECTION('',(0.,-1.,0.));
#1681=DIRECTION('center_axis',(0.,0.,-1.));
#1682=DIRECTION('ref_axis',(1.,0.,0.));
#1683=DIRECTION('',(-1.,0.,0.));
#1684=DIRECTION('center_axis',(0.,1.,0.));
#1685=DIRECTION('ref_axis',(0.,0.,1.));
#1686=DIRECTION('',(0.,0.,-1.));
#1687=DIRECTION('center_axis',(1.,0.,0.));
#1688=DIRECTION('ref_axis',(0.,0.,-1.));
#1689=DIRECTION('',(0.,0.,1.));
#1690=DIRECTION('center_axis',(1.,0.,0.));
#1691=DIRECTION('ref_axis',(0.,0.,-1.));
#1692=DIRECTION('',(0.,0.,-1.));
#1693=DIRECTION('center_axis',(0.,0.,1.));
#1694=DIRECTION('ref_axis',(1.,0.,0.));
#1695=DIRECTION('',(0.,0.,-1.));
#1696=DIRECTION('',(0.,0.,-1.));
#1697=DIRECTION('center_axis',(0.,0.,1.));
#1698=DIRECTION('ref_axis',(1.,0.,0.));
#1699=DIRECTION('center_axis',(0.,0.,1.));
#1700=DIRECTION('ref_axis',(1.,0.,0.));
#1701=DIRECTION('',(-1.,0.,0.));
#1702=DIRECTION('center_axis',(0.,0.,1.));
#1703=DIRECTION('ref_axis',(1.,0.,0.));
#1704=DIRECTION('',(0.,-1.,0.));
#1705=DIRECTION('center_axis',(0.,0.,1.));
#1706=DIRECTION('ref_axis',(1.,0.,0.));
#1707=DIRECTION('',(1.,0.,0.));
#1708=DIRECTION('center_axis',(0.,0.,1.));
#1709=DIRECTION('ref_axis',(1.,0.,0.));
#1710=DIRECTION('',(0.,1.,0.));
#1711=DIRECTION('center_axis',(0.,0.,1.));
#1712=DIRECTION('ref_axis',(1.,0.,0.));
#1713=DIRECTION('',(0.,0.,-1.));
#1714=DIRECTION('',(0.,0.,-1.));
#1715=DIRECTION('center_axis',(0.,0.,1.));
#1716=DIRECTION('ref_axis',(1.,0.,0.));
#1717=DIRECTION('',(0.,0.,-1.));
#1718=DIRECTION('',(0.,0.,-1.));
#1719=DIRECTION('center_axis',(0.,0.,1.));
#1720=DIRECTION('ref_axis',(1.,0.,0.));
#1721=DIRECTION('',(0.,0.,-1.));
#1722=DIRECTION('',(0.,0.,-1.));
#1723=DIRECTION('center_axis',(1.,0.,0.));
#1724=DIRECTION('ref_axis',(0.,0.,-1.));
#1725=DIRECTION('center_axis',(-1.,0.,0.));
#1726=DIRECTION('ref_axis',(0.,0.,1.));
#1727=DIRECTION('center_axis',(0.,1.,0.));
#1728=DIRECTION('ref_axis',(0.,0.,1.));
#1729=DIRECTION('center_axis',(0.,-1.,0.));
#1730=DIRECTION('ref_axis',(0.,0.,-1.));
#1731=CARTESIAN_POINT('',(0.,0.,0.));
#1732=CARTESIAN_POINT('Origin',(-15.,10.,24.8));
#1733=CARTESIAN_POINT('',(-8.,10.,24.));
#1734=CARTESIAN_POINT('',(-22.,10.,24.));
#1735=CARTESIAN_POINT('',(-5.5,10.,24.));
#1736=CARTESIAN_POINT('',(-8.,10.,25.6));
#1737=CARTESIAN_POINT('',(-8.,10.,24.8));
#1738=CARTESIAN_POINT('',(-22.,10.,25.6));
#1739=CARTESIAN_POINT('',(-5.5,10.,25.6));
#1740=CARTESIAN_POINT('',(-22.,10.,24.8));
#1741=CARTESIAN_POINT('Origin',(-22.,9.,24.8));
#1742=CARTESIAN_POINT('',(-22.,8.,24.));
#1743=CARTESIAN_POINT('',(-22.,4.5,24.));
#1744=CARTESIAN_POINT('',(-22.,8.,25.6));
#1745=CARTESIAN_POINT('',(-22.,4.5,25.6));
#1746=CARTESIAN_POINT('',(-22.,8.,24.8));
#1747=CARTESIAN_POINT('Origin',(-15.,8.,24.8));
#1748=CARTESIAN_POINT('',(-8.,8.,24.));
#1749=CARTESIAN_POINT('',(-5.5,8.,24.));
#1750=CARTESIAN_POINT('',(-8.,8.,25.6));
#1751=CARTESIAN_POINT('',(-5.5,8.,25.6));
#1752=CARTESIAN_POINT('',(-8.,8.,24.8));
#1753=CARTESIAN_POINT('Origin',(-8.,9.,24.8));
#1754=CARTESIAN_POINT('',(-8.,4.5,24.));
#1755=CARTESIAN_POINT('',(-8.,4.5,25.6));
#1756=CARTESIAN_POINT('Origin',(-15.,5.5,24.8));
#1757=CARTESIAN_POINT('',(-8.,5.5,24.));
#1758=CARTESIAN_POINT('',(-22.,5.5,24.));
#1759=CARTESIAN_POINT('',(-5.5,5.5,24.));
#1760=CARTESIAN_POINT('',(-8.,5.5,25.6));
#1761=CARTESIAN_POINT('',(-8.,5.5,24.8));
#1762=CARTESIAN_POINT('',(-22.,5.5,25.6));
#1763=CARTESIAN_POINT('',(-5.5,5.5,25.6));
#1764=CARTESIAN_POINT('',(-22.,5.5,24.8));
#1765=CARTESIAN_POINT('Origin',(-22.,4.5,24.8));
#1766=CARTESIAN_POINT('',(-22.,3.5,24.));
#1767=CARTESIAN_POINT('',(-22.,2.25,24.));
#1768=CARTESIAN_POINT('',(-22.,3.5,25.6));
#1769=CARTESIAN_POINT('',(-22.,2.25,25.6));
#1770=CARTESIAN_POINT('',(-22.,3.5,24.8));
#1771=CARTESIAN_POINT('Origin',(-15.,3.5,24.8));
#1772=CARTESIAN_POINT('',(-8.,3.5,24.));
#1773=CARTESIAN_POINT('',(-5.5,3.5,24.));
#1774=CARTESIAN_POINT('',(-8.,3.5,25.6));
#1775=CARTESIAN_POINT('',(-5.5,3.5,25.6));
#1776=CARTESIAN_POINT('',(-8.,3.5,24.8));
#1777=CARTESIAN_POINT('Origin',(-8.,4.5,24.8));
#1778=CARTESIAN_POINT('',(-8.,2.25,24.));
#1779=CARTESIAN_POINT('',(-8.,2.25,25.6));
#1780=CARTESIAN_POINT('Origin',(-15.,1.,24.8));
#1781=CARTESIAN_POINT('',(-8.,1.,24.));
#1782=CARTESIAN_POINT('',(-22.,1.,24.));
#1783=CARTESIAN_POINT('',(-5.5,1.,24.));
#1784=CARTESIAN_POINT('',(-8.,1.,25.6));
#1785=CARTESIAN_POINT('',(-8.,1.,24.8));
#1786=CARTESIAN_POINT('',(-22.,1.,25.6));
#1787=CARTESIAN_POINT('',(-5.5,1.,25.6));
#1788=CARTESIAN_POINT('',(-22.,1.,24.8));
#1789=CARTESIAN_POINT('Origin',(-22.,0.,24.8));
#1790=CARTESIAN_POINT('',(-22.,-1.,24.));
#1791=CARTESIAN_POINT('',(-22.,0.,24.));
#1792=CARTESIAN_POINT('',(-22.,-1.,25.6));
#1793=CARTESIAN_POINT('',(-22.,0.,25.6));
#1794=CARTESIAN_POINT('',(-22.,-1.,24.8));
#1795=CARTESIAN_POINT('Origin',(-15.,-1.,24.8));
#1796=CARTESIAN_POINT('',(-8.,-1.,24.));
#1797=CARTESIAN_POINT('',(-5.5,-1.,24.));
#1798=CARTESIAN_POINT('',(-8.,-1.,25.6));
#1799=CARTESIAN_POINT('',(-5.5,-1.,25.6));
#1800=CARTESIAN_POINT('',(-8.,-1.,24.8));
#1801=CARTESIAN_POINT('Origin',(-8.,0.,24.8));
#1802=CARTESIAN_POINT('',(-8.,0.,24.));
#1803=CARTESIAN_POINT('',(-8.,0.,25.6));
#1804=CARTESIAN_POINT('Origin',(-15.,-3.5,24.8));
#1805=CARTESIAN_POINT('',(-8.,-3.5,24.));
#1806=CARTESIAN_POINT('',(-22.,-3.5,24.));
#1807=CARTESIAN_POINT('',(-5.5,-3.5,24.));
#1808=CARTESIAN_POINT('',(-8.,-3.5,25.6));
#1809=CARTESIAN_POINT('',(-8.,-3.5,24.8));
#1810=CARTESIAN_POINT('',(-22.,-3.5,25.6));
#1811=CARTESIAN_POINT('',(-5.5,-3.5,25.6));
#1812=CARTESIAN_POINT('',(-22.,-3.5,24.8));
#1813=CARTESIAN_POINT('Origin',(-22.,-4.5,24.8));
#1814=CARTESIAN_POINT('',(-22.,-5.5,24.));
#1815=CARTESIAN_POINT('',(-22.,-2.25,24.));
#1816=CARTESIAN_POINT('',(-22.,-5.5,25.6));
#1817=CARTESIAN_POINT('',(-22.,-2.25,25.6));
#1818=CARTESIAN_POINT('',(-22.,-5.5,24.8));
#1819=CARTESIAN_POINT('Origin',(-15.,-5.5,24.8));
#1820=CARTESIAN_POINT('',(-8.,-5.5,24.));
#1821=CARTESIAN_POINT('',(-5.5,-5.5,24.));
#1822=CARTESIAN_POINT('',(-8.,-5.5,25.6));
#1823=CARTESIAN_POINT('',(-5.5,-5.5,25.6));
#1824=CARTESIAN_POINT('',(-8.,-5.5,24.8));
#1825=CARTESIAN_POINT('Origin',(-8.,-4.5,24.8));
#1826=CARTESIAN_POINT('',(-8.,-2.25,24.));
#1827=CARTESIAN_POINT('',(-8.,-2.25,25.6));
#1828=CARTESIAN_POINT('Origin',(-15.,-8.,24.8));
#1829=CARTESIAN_POINT('',(-8.,-8.,24.));
#1830=CARTESIAN_POINT('',(-22.,-8.,24.));
#1831=CARTESIAN_POINT('',(-5.5,-8.,24.));
#1832=CARTESIAN_POINT('',(-8.,-8.,25.6));
#1833=CARTESIAN_POINT('',(-8.,-8.,24.8));
#1834=CARTESIAN_POINT('',(-22.,-8.,25.6));
#1835=CARTESIAN_POINT('',(-5.5,-8.,25.6));
#1836=CARTESIAN_POINT('',(-22.,-8.,24.8));
#1837=CARTESIAN_POINT('Origin',(-22.,-9.,24.8));
#1838=CARTESIAN_POINT('',(-22.,-10.,24.));
#1839=CARTESIAN_POINT('',(-22.,-4.5,24.));
#1840=CARTESIAN_POINT('',(-22.,-10.,25.6));
#1841=CARTESIAN_POINT('',(-22.,-4.5,25.6));
#1842=CARTESIAN_POINT('',(-22.,-10.,24.8));
#1843=CARTESIAN_POINT('Origin',(-15.,-10.,24.8));
#1844=CARTESIAN_POINT('',(-8.,-10.,24.));
#1845=CARTESIAN_POINT('',(-5.5,-10.,24.));
#1846=CARTESIAN_POINT('',(-8.,-10.,25.6));
#1847=CARTESIAN_POINT('',(-5.5,-10.,25.6));
#1848=CARTESIAN_POINT('',(-8.,-10.,24.8));
#1849=CARTESIAN_POINT('Origin',(-8.,-9.,24.8));
#1850=CARTESIAN_POINT('',(-8.,-4.5,24.));
#1851=CARTESIAN_POINT('',(-8.,-4.5,25.6));
#1852=CARTESIAN_POINT('Origin',(-36.45,-8.,21.5));
#1853=CARTESIAN_POINT('',(-36.55,-8.,25.));
#1854=CARTESIAN_POINT('',(-36.55,-8.,20.));
#1855=CARTESIAN_POINT('',(-36.55,-8.,23.15));
#1856=CARTESIAN_POINT('',(-34.35,-8.,25.));
#1857=CARTESIAN_POINT('',(-36.45,-8.,25.));
#1858=CARTESIAN_POINT('',(-34.35,-8.,24.));
#1859=CARTESIAN_POINT('',(-34.35,-8.,21.5));
#1860=CARTESIAN_POINT('',(-35.35,-8.,24.));
#1861=CARTESIAN_POINT('',(-16.225,-8.,24.));
#1862=CARTESIAN_POINT('',(-35.35,-8.,20.));
#1863=CARTESIAN_POINT('',(-35.35,-8.,21.75));
#1864=CARTESIAN_POINT('',(-16.225,-8.,20.));
#1865=CARTESIAN_POINT('Origin',(-34.35,0.,21.5));
#1866=CARTESIAN_POINT('',(-34.35,8.,24.));
#1867=CARTESIAN_POINT('',(-34.35,0.,24.));
#1868=CARTESIAN_POINT('',(-34.35,8.,25.));
#1869=CARTESIAN_POINT('',(-34.35,0.,25.));
#1870=CARTESIAN_POINT('',(-34.35,8.,21.5));
#1871=CARTESIAN_POINT('Origin',(-36.45,0.,25.));
#1872=CARTESIAN_POINT('',(-36.55,8.,25.));
#1873=CARTESIAN_POINT('',(-36.55,0.,25.));
#1874=CARTESIAN_POINT('',(-36.45,8.,25.));
#1875=CARTESIAN_POINT('Origin',(-36.45,8.,21.5));
#1876=CARTESIAN_POINT('',(-36.55,8.,20.));
#1877=CARTESIAN_POINT('',(-36.55,8.,23.15));
#1878=CARTESIAN_POINT('',(-35.35,8.,20.));
#1879=CARTESIAN_POINT('',(-16.225,8.,20.));
#1880=CARTESIAN_POINT('',(-35.35,8.,24.));
#1881=CARTESIAN_POINT('',(-35.35,8.,21.75));
#1882=CARTESIAN_POINT('',(-16.225,8.,24.));
#1883=CARTESIAN_POINT('Origin',(4.,0.,24.));
#1884=CARTESIAN_POINT('',(-35.35,30.6,24.));
#1885=CARTESIAN_POINT('',(-35.35,0.,24.));
#1886=CARTESIAN_POINT('',(-32.1,33.85,24.));
#1887=CARTESIAN_POINT('Origin',(-32.1,30.6,24.));
#1888=CARTESIAN_POINT('',(-27.5,33.85,24.));
#1889=CARTESIAN_POINT('',(4.,33.85,24.));
#1890=CARTESIAN_POINT('',(-27.5,35.05,24.));
#1891=CARTESIAN_POINT('',(-27.5,0.,24.));
#1892=CARTESIAN_POINT('',(35.5,35.05,24.));
#1893=CARTESIAN_POINT('',(4.,35.05,24.));
#1894=CARTESIAN_POINT('',(35.5,33.85,24.));
#1895=CARTESIAN_POINT('',(35.5,0.,24.));
#1896=CARTESIAN_POINT('',(40.1,33.85,24.));
#1897=CARTESIAN_POINT('',(4.,33.85,24.));
#1898=CARTESIAN_POINT('',(43.35,30.6,24.));
#1899=CARTESIAN_POINT('Origin',(40.1,30.6,24.));
#1900=CARTESIAN_POINT('',(43.35,-30.6,24.));
#1901=CARTESIAN_POINT('',(43.35,0.,24.));
#1902=CARTESIAN_POINT('',(40.1,-33.85,24.));
#1903=CARTESIAN_POINT('Origin',(40.1,-30.6,24.));
#1904=CARTESIAN_POINT('',(35.5,-33.85,24.));
#1905=CARTESIAN_POINT('',(4.,-33.85,24.));
#1906=CARTESIAN_POINT('',(35.5,-35.05,24.));
#1907=CARTESIAN_POINT('',(35.5,0.,24.));
#1908=CARTESIAN_POINT('',(-27.5,-35.05,24.));
#1909=CARTESIAN_POINT('',(4.,-35.05,24.));
#1910=CARTESIAN_POINT('',(-27.5,-33.85,24.));
#1911=CARTESIAN_POINT('',(-27.5,0.,24.));
#1912=CARTESIAN_POINT('',(-32.1,-33.85,24.));
#1913=CARTESIAN_POINT('',(4.,-33.85,24.));
#1914=CARTESIAN_POINT('',(-35.35,-30.6,24.));
#1915=CARTESIAN_POINT('Origin',(-32.1,-30.6,24.));
#1916=CARTESIAN_POINT('',(-35.35,0.,24.));
#1917=CARTESIAN_POINT('',(37.9,-26.,24.));
#1918=CARTESIAN_POINT('Origin',(39.6,-26.,24.));
#1919=CARTESIAN_POINT('',(37.9,26.,24.));
#1920=CARTESIAN_POINT('Origin',(39.6,26.,24.));
#1921=CARTESIAN_POINT('Origin',(4.,0.,20.));
#1922=CARTESIAN_POINT('',(-36.55,30.6,20.));
#1923=CARTESIAN_POINT('',(-36.55,0.,20.));
#1924=CARTESIAN_POINT('',(-32.1,35.05,20.));
#1925=CARTESIAN_POINT('Origin',(-32.1,30.6,20.));
#1926=CARTESIAN_POINT('',(-27.5,35.05,20.));
#1927=CARTESIAN_POINT('',(4.,35.05,20.));
#1928=CARTESIAN_POINT('',(-27.5,33.85,20.));
#1929=CARTESIAN_POINT('',(-27.5,0.,20.));
#1930=CARTESIAN_POINT('',(-32.1,33.85,20.));
#1931=CARTESIAN_POINT('',(4.,33.85,20.));
#1932=CARTESIAN_POINT('',(-35.35,30.6,20.));
#1933=CARTESIAN_POINT('Origin',(-32.1,30.6,20.));
#1934=CARTESIAN_POINT('',(-35.35,0.,20.));
#1935=CARTESIAN_POINT('Origin',(4.,0.,20.));
#1936=CARTESIAN_POINT('',(-35.35,-30.6,20.));
#1937=CARTESIAN_POINT('',(-35.35,0.,20.));
#1938=CARTESIAN_POINT('',(-32.1,-33.85,20.));
#1939=CARTESIAN_POINT('Origin',(-32.1,-30.6,20.));
#1940=CARTESIAN_POINT('',(-27.5,-33.85,20.));
#1941=CARTESIAN_POINT('',(4.,-33.85,20.));
#1942=CARTESIAN_POINT('',(-27.5,-35.05,20.));
#1943=CARTESIAN_POINT('',(-27.5,0.,20.));
#1944=CARTESIAN_POINT('',(-32.1,-35.05,20.));
#1945=CARTESIAN_POINT('',(4.,-35.05,20.));
#1946=CARTESIAN_POINT('',(-36.55,-30.6,20.));
#1947=CARTESIAN_POINT('Origin',(-32.1,-30.6,20.));
#1948=CARTESIAN_POINT('',(-36.55,0.,20.));
#1949=CARTESIAN_POINT('Origin',(-35.35,0.,22.));
#1950=CARTESIAN_POINT('',(-35.35,30.6,22.));
#1951=CARTESIAN_POINT('',(-35.35,27.5,20.4));
#1952=CARTESIAN_POINT('',(-35.35,16.5,20.4));
#1953=CARTESIAN_POINT('',(-35.35,11.,20.4));
#1954=CARTESIAN_POINT('',(-35.35,16.5,22.2));
#1955=CARTESIAN_POINT('',(-35.35,16.5,21.65));
#1956=CARTESIAN_POINT('',(-35.35,27.5,22.2));
#1957=CARTESIAN_POINT('',(-35.35,11.,22.2));
#1958=CARTESIAN_POINT('',(-35.35,27.5,21.65));
#1959=CARTESIAN_POINT('Origin',(-35.35,0.,22.));
#1960=CARTESIAN_POINT('',(-35.35,-30.6,22.));
#1961=CARTESIAN_POINT('',(-35.35,-16.5,20.4));
#1962=CARTESIAN_POINT('',(-35.35,-27.5,20.4));
#1963=CARTESIAN_POINT('',(-35.35,-11.,20.4));
#1964=CARTESIAN_POINT('',(-35.35,-27.5,22.2));
#1965=CARTESIAN_POINT('',(-35.35,-27.5,21.65));
#1966=CARTESIAN_POINT('',(-35.35,-16.5,22.2));
#1967=CARTESIAN_POINT('',(-35.35,-11.,22.2));
#1968=CARTESIAN_POINT('',(-35.35,-16.5,21.65));
#1969=CARTESIAN_POINT('Origin',(39.6,26.,24.8));
#1970=CARTESIAN_POINT('',(37.9,26.,25.6));
#1971=CARTESIAN_POINT('',(37.9,26.,24.8));
#1972=CARTESIAN_POINT('Origin',(39.6,26.,25.6));
#1973=CARTESIAN_POINT('Origin',(39.6,-26.,24.8));
#1974=CARTESIAN_POINT('',(37.9,-26.,25.6));
#1975=CARTESIAN_POINT('',(37.9,-26.,24.8));
#1976=CARTESIAN_POINT('Origin',(39.6,-26.,25.6));
#1977=CARTESIAN_POINT('Origin',(-34.925,22.,22.2));
#1978=CARTESIAN_POINT('',(-34.5,16.5,22.2));
#1979=CARTESIAN_POINT('',(-34.5,27.5,22.2));
#1980=CARTESIAN_POINT('',(-34.5,22.,22.2));
#1981=CARTESIAN_POINT('',(-34.925,27.5,22.2));
#1982=CARTESIAN_POINT('',(-34.925,16.5,22.2));
#1983=CARTESIAN_POINT('Origin',(-34.925,22.,20.4));
#1984=CARTESIAN_POINT('',(-34.5,27.5,20.4));
#1985=CARTESIAN_POINT('',(-34.5,16.5,20.4));
#1986=CARTESIAN_POINT('',(-34.5,22.,20.4));
#1987=CARTESIAN_POINT('',(-34.925,16.5,20.4));
#1988=CARTESIAN_POINT('',(-34.925,27.5,20.4));
#1989=CARTESIAN_POINT('Origin',(-34.925,16.5,21.3));
#1990=CARTESIAN_POINT('',(-34.5,16.5,21.3));
#1991=CARTESIAN_POINT('Origin',(-34.925,27.5,21.3));
#1992=CARTESIAN_POINT('',(-34.5,27.5,21.3));
#1993=CARTESIAN_POINT('Origin',(-34.5,22.,21.3));
#1994=CARTESIAN_POINT('Origin',(-34.925,-22.,22.2));
#1995=CARTESIAN_POINT('',(-34.5,-27.5,22.2));
#1996=CARTESIAN_POINT('',(-34.5,-16.5,22.2));
#1997=CARTESIAN_POINT('',(-34.5,-22.,22.2));
#1998=CARTESIAN_POINT('',(-34.925,-16.5,22.2));
#1999=CARTESIAN_POINT('',(-34.925,-27.5,22.2));
#2000=CARTESIAN_POINT('Origin',(-34.925,-22.,20.4));
#2001=CARTESIAN_POINT('',(-34.5,-16.5,20.4));
#2002=CARTESIAN_POINT('',(-34.5,-27.5,20.4));
#2003=CARTESIAN_POINT('',(-34.5,-22.,20.4));
#2004=CARTESIAN_POINT('',(-34.925,-27.5,20.4));
#2005=CARTESIAN_POINT('',(-34.925,-16.5,20.4));
#2006=CARTESIAN_POINT('Origin',(-34.925,-27.5,21.3));
#2007=CARTESIAN_POINT('',(-34.5,-27.5,21.3));
#2008=CARTESIAN_POINT('Origin',(-34.925,-16.5,21.3));
#2009=CARTESIAN_POINT('',(-34.5,-16.5,21.3));
#2010=CARTESIAN_POINT('Origin',(-34.5,-22.,21.3));
#2011=CARTESIAN_POINT('Origin',(-27.5,0.,22.));
#2012=CARTESIAN_POINT('',(-27.5,33.85,22.));
#2013=CARTESIAN_POINT('',(-27.5,35.05,22.));
#2014=CARTESIAN_POINT('Origin',(-27.5,0.,22.));
#2015=CARTESIAN_POINT('',(-27.5,-33.85,22.));
#2016=CARTESIAN_POINT('',(-27.5,-35.05,22.));
#2017=CARTESIAN_POINT('Origin',(4.,-33.85,22.));
#2018=CARTESIAN_POINT('',(-32.1,-33.85,22.));
#2019=CARTESIAN_POINT('Origin',(4.,33.85,22.));
#2020=CARTESIAN_POINT('',(-32.1,33.85,22.));
#2021=CARTESIAN_POINT('Origin',(-32.1,30.6,22.));
#2022=CARTESIAN_POINT('Origin',(-32.1,-30.6,22.));
#2023=CARTESIAN_POINT('Origin',(40.1,-30.6,22.));
#2024=CARTESIAN_POINT('',(43.35,-30.6,20.));
#2025=CARTESIAN_POINT('',(43.35,-30.6,22.));
#2026=CARTESIAN_POINT('',(40.1,-33.85,20.));
#2027=CARTESIAN_POINT('Origin',(40.1,-30.6,20.));
#2028=CARTESIAN_POINT('',(40.1,-33.85,22.));
#2029=CARTESIAN_POINT('Origin',(43.35,0.,22.));
#2030=CARTESIAN_POINT('',(43.35,30.6,20.));
#2031=CARTESIAN_POINT('',(43.35,30.6,22.));
#2032=CARTESIAN_POINT('',(43.35,0.,20.));
#2033=CARTESIAN_POINT('Origin',(40.1,30.6,22.));
#2034=CARTESIAN_POINT('',(40.1,33.85,20.));
#2035=CARTESIAN_POINT('',(40.1,33.85,22.));
#2036=CARTESIAN_POINT('Origin',(40.1,30.6,20.));
#2037=CARTESIAN_POINT('Origin',(4.,33.85,22.));
#2038=CARTESIAN_POINT('',(35.5,33.85,20.));
#2039=CARTESIAN_POINT('',(35.5,33.85,22.));
#2040=CARTESIAN_POINT('',(4.,33.85,20.));
#2041=CARTESIAN_POINT('Origin',(4.,0.,20.));
#2042=CARTESIAN_POINT('',(35.5,-33.85,20.));
#2043=CARTESIAN_POINT('',(35.5,-35.05,20.));
#2044=CARTESIAN_POINT('',(35.5,0.,20.));
#2045=CARTESIAN_POINT('',(4.,-33.85,20.));
#2046=CARTESIAN_POINT('',(35.5,35.05,20.));
#2047=CARTESIAN_POINT('',(35.5,0.,20.));
#2048=CARTESIAN_POINT('',(40.1,35.05,20.));
#2049=CARTESIAN_POINT('',(4.,35.05,20.));
#2050=CARTESIAN_POINT('',(44.55,30.6,20.));
#2051=CARTESIAN_POINT('Origin',(40.1,30.6,20.));
#2052=CARTESIAN_POINT('',(44.55,-30.6,20.));
#2053=CARTESIAN_POINT('',(44.55,0.,20.));
#2054=CARTESIAN_POINT('',(40.1,-35.05,20.));
#2055=CARTESIAN_POINT('Origin',(40.1,-30.6,20.));
#2056=CARTESIAN_POINT('',(4.,-35.05,20.));
#2057=CARTESIAN_POINT('Origin',(4.,-33.85,22.));
#2058=CARTESIAN_POINT('',(35.5,-33.85,22.));
#2059=CARTESIAN_POINT('Origin',(35.5,0.,22.));
#2060=CARTESIAN_POINT('',(35.5,-35.05,22.));
#2061=CARTESIAN_POINT('Origin',(35.5,0.,22.));
#2062=CARTESIAN_POINT('',(35.5,35.05,22.));
#2063=CARTESIAN_POINT('Origin',(40.1,30.6,24.8));
#2064=CARTESIAN_POINT('',(44.55,30.6,25.6));
#2065=CARTESIAN_POINT('',(44.55,30.6,24.8));
#2066=CARTESIAN_POINT('',(40.1,35.05,25.6));
#2067=CARTESIAN_POINT('',(40.1,35.05,24.8));
#2068=CARTESIAN_POINT('Origin',(40.1,30.6,25.6));
#2069=CARTESIAN_POINT('Origin',(4.,0.,25.6));
#2070=CARTESIAN_POINT('',(-32.1,35.05,25.6));
#2071=CARTESIAN_POINT('',(4.,35.05,25.6));
#2072=CARTESIAN_POINT('',(-36.55,30.6,25.6));
#2073=CARTESIAN_POINT('Origin',(-32.1,30.6,25.6));
#2074=CARTESIAN_POINT('',(-36.55,-30.6,25.6));
#2075=CARTESIAN_POINT('',(-36.55,0.,25.6));
#2076=CARTESIAN_POINT('',(-32.1,-35.05,25.6));
#2077=CARTESIAN_POINT('Origin',(-32.1,-30.6,25.6));
#2078=CARTESIAN_POINT('',(40.1,-35.05,25.6));
#2079=CARTESIAN_POINT('',(4.,-35.05,25.6));
#2080=CARTESIAN_POINT('',(44.55,-30.6,25.6));
#2081=CARTESIAN_POINT('Origin',(40.1,-30.6,25.6));
#2082=CARTESIAN_POINT('',(44.55,0.,25.6));
#2083=CARTESIAN_POINT('Origin',(40.1,-30.6,24.8));
#2084=CARTESIAN_POINT('',(40.1,-35.05,24.8));
#2085=CARTESIAN_POINT('',(44.55,-30.6,24.8));
#2086=CARTESIAN_POINT('Origin',(-32.1,30.6,24.8));
#2087=CARTESIAN_POINT('',(-36.55,30.6,24.8));
#2088=CARTESIAN_POINT('',(-32.1,35.05,24.8));
#2089=CARTESIAN_POINT('Origin',(-32.1,-30.6,24.8));
#2090=CARTESIAN_POINT('',(-32.1,-35.05,24.8));
#2091=CARTESIAN_POINT('',(-36.55,-30.6,24.8));
#2092=CARTESIAN_POINT('Origin',(-36.55,0.,24.8));
#2093=CARTESIAN_POINT('Origin',(44.55,0.,24.8));
#2094=CARTESIAN_POINT('Origin',(4.,-35.05,24.8));
#2095=CARTESIAN_POINT('Origin',(4.,35.05,24.8));
#2096=UNCERTAINTY_MEASURE_WITH_UNIT(LENGTH_MEASURE(0.01),#2100,
'DISTANCE_ACCURACY_VALUE',
'Maximum model space distance between geometric entities at asserted c
onnectivities');
#2097=UNCERTAINTY_MEASURE_WITH_UNIT(LENGTH_MEASURE(0.01),#2100,
'DISTANCE_ACCURACY_VALUE',
'Maximum model space distance between geometric entities at asserted c
onnectivities');
#2098=(
GEOMETRIC_REPRESENTATION_CONTEXT(3)
GLOBAL_UNCERTAINTY_ASSIGNED_CONTEXT((#2096))
GLOBAL_UNIT_ASSIGNED_CONTEXT((#2100,#2102,#2103))
REPRESENTATION_CONTEXT('','3D')
);
#2099=(
GEOMETRIC_REPRESENTATION_CONTEXT(3)
GLOBAL_UNCERTAINTY_ASSIGNED_CONTEXT((#2097))
GLOBAL_UNIT_ASSIGNED_CONTEXT((#2100,#2102,#2103))
REPRESENTATION_CONTEXT('','3D')
);
#2100=(
LENGTH_UNIT()
NAMED_UNIT(*)
SI_UNIT(.MILLI.,.METRE.)
);
#2101=(
LENGTH_UNIT()
NAMED_UNIT(*)
SI_UNIT($,.METRE.)
);
#2102=(
NAMED_UNIT(*)
PLANE_ANGLE_UNIT()
SI_UNIT($,.RADIAN.)
);
#2103=(
NAMED_UNIT(*)
SI_UNIT($,.STERADIAN.)
SOLID_ANGLE_UNIT()
);
#2104=SHAPE_DEFINITION_REPRESENTATION(#2105,#2106);
#2105=PRODUCT_DEFINITION_SHAPE('',$,#2108);
#2106=SHAPE_REPRESENTATION('',(#1316),#2098);
#2107=PRODUCT_DEFINITION_CONTEXT('part definition',#2112,'design');
#2108=PRODUCT_DEFINITION('Housing_Lid','Housing_Lid',#2109,#2107);
#2109=PRODUCT_DEFINITION_FORMATION('',$,#2114);
#2110=PRODUCT_RELATED_PRODUCT_CATEGORY('Housing_Lid','Housing_Lid',(#2114));
#2111=APPLICATION_PROTOCOL_DEFINITION('international standard',
'automotive_design',2009,#2112);
#2112=APPLICATION_CONTEXT(
'Core Data for Automotive Mechanical Design Process');
#2113=PRODUCT_CONTEXT('part definition',#2112,'mechanical');
#2114=PRODUCT('Housing_Lid','Housing_Lid',$,(#2113));
#2115=PRESENTATION_STYLE_ASSIGNMENT((#2116));
#2116=SURFACE_STYLE_USAGE(.BOTH.,#2117);
#2117=SURFACE_SIDE_STYLE('',(#2118));
#2118=SURFACE_STYLE_FILL_AREA(#2119);
#2119=FILL_AREA_STYLE('Steel - Satin',(#2120));
#2120=FILL_AREA_STYLE_COLOUR('Steel - Satin',#2121);
#2121=COLOUR_RGB('Steel - Satin',0.627450980392157,0.627450980392157,0.627450980392157);
ENDSEC;
END-ISO-10303-21;
