ISO-10303-21;
HEADER;
/* Generated by software containing ST-Developer
 * from STEP Tools, Inc. (www.steptools.com) 
 */

FILE_DESCRIPTION(
/* description */ (''),
/* implementation_level */ '2;1');

FILE_NAME(
/* name */ 'ESP32_Controller_PCB_Clamp_Adjustable.step',
/* time_stamp */ '2026-09-06T12:56:05+01:00',
/* author */ (''),
/* organization */ (''),
/* preprocessor_version */ 'ST-DEVELOPER v20.1',
/* originating_system */ 'Autodesk Translation Framework v15.8.0.0',
/* authorisation */ '');

FILE_SCHEMA (('AUTOMOTIVE_DESIGN { 1 0 10303 214 3 1 1 }'));
ENDSEC;

DATA;
#10=MECHANICAL_DESIGN_GEOMETRIC_PRESENTATION_REPRESENTATION('',(#13),#463);
#11=SHAPE_REPRESENTATION_RELATIONSHIP('SRR','None',#470,#12);
#12=ADVANCED_BREP_SHAPE_REPRESENTATION('',(#14),#462);
#13=STYLED_ITEM('',(#479),#14);
#14=MANIFOLD_SOLID_BREP('ESP32_Controller_PCB_Clamp_Adjustable',#275);
#15=FACE_BOUND('',#52,.T.);
#16=FACE_BOUND('',#53,.T.);
#17=FACE_BOUND('',#55,.T.);
#18=FACE_BOUND('',#56,.T.);
#19=PLANE('',#292);
#20=PLANE('',#296);
#21=PLANE('',#300);
#22=PLANE('',#304);
#23=PLANE('',#305);
#24=PLANE('',#306);
#25=PLANE('',#307);
#26=PLANE('',#308);
#27=PLANE('',#309);
#28=PLANE('',#310);
#29=FACE_OUTER_BOUND('',#43,.T.);
#30=FACE_OUTER_BOUND('',#44,.T.);
#31=FACE_OUTER_BOUND('',#45,.T.);
#32=FACE_OUTER_BOUND('',#46,.T.);
#33=FACE_OUTER_BOUND('',#47,.T.);
#34=FACE_OUTER_BOUND('',#48,.T.);
#35=FACE_OUTER_BOUND('',#49,.T.);
#36=FACE_OUTER_BOUND('',#50,.T.);
#37=FACE_OUTER_BOUND('',#51,.T.);
#38=FACE_OUTER_BOUND('',#54,.T.);
#39=FACE_OUTER_BOUND('',#57,.T.);
#40=FACE_OUTER_BOUND('',#58,.T.);
#41=FACE_OUTER_BOUND('',#59,.T.);
#42=FACE_OUTER_BOUND('',#60,.T.);
#43=EDGE_LOOP('',(#185,#186,#187,#188));
#44=EDGE_LOOP('',(#189,#190,#191,#192));
#45=EDGE_LOOP('',(#193,#194,#195,#196));
#46=EDGE_LOOP('',(#197,#198,#199,#200));
#47=EDGE_LOOP('',(#201,#202,#203,#204));
#48=EDGE_LOOP('',(#205,#206,#207,#208));
#49=EDGE_LOOP('',(#209,#210,#211,#212));
#50=EDGE_LOOP('',(#213,#214,#215,#216));
#51=EDGE_LOOP('',(#217,#218,#219,#220));
#52=EDGE_LOOP('',(#221,#222,#223,#224));
#53=EDGE_LOOP('',(#225,#226,#227,#228));
#54=EDGE_LOOP('',(#229,#230,#231,#232));
#55=EDGE_LOOP('',(#233,#234,#235,#236));
#56=EDGE_LOOP('',(#237,#238,#239,#240));
#57=EDGE_LOOP('',(#241,#242,#243,#244));
#58=EDGE_LOOP('',(#245,#246,#247,#248));
#59=EDGE_LOOP('',(#249,#250,#251,#252));
#60=EDGE_LOOP('',(#253,#254,#255,#256));
#61=LINE('',#391,#89);
#62=LINE('',#394,#90);
#63=LINE('',#397,#91);
#64=LINE('',#399,#92);
#65=LINE('',#400,#93);
#66=LINE('',#406,#94);
#67=LINE('',#408,#95);
#68=LINE('',#409,#96);
#69=LINE('',#415,#97);
#70=LINE('',#418,#98);
#71=LINE('',#421,#99);
#72=LINE('',#423,#100);
#73=LINE('',#424,#101);
#74=LINE('',#430,#102);
#75=LINE('',#432,#103);
#76=LINE('',#433,#104);
#77=LINE('',#437,#105);
#78=LINE('',#439,#106);
#79=LINE('',#441,#107);
#80=LINE('',#442,#108);
#81=LINE('',#446,#109);
#82=LINE('',#448,#110);
#83=LINE('',#450,#111);
#84=LINE('',#451,#112);
#85=LINE('',#453,#113);
#86=LINE('',#454,#114);
#87=LINE('',#456,#115);
#88=LINE('',#458,#116);
#89=VECTOR('',#317,10.);
#90=VECTOR('',#320,10.);
#91=VECTOR('',#323,10.);
#92=VECTOR('',#324,10.);
#93=VECTOR('',#325,10.);
#94=VECTOR('',#332,10.);
#95=VECTOR('',#335,10.);
#96=VECTOR('',#336,10.);
#97=VECTOR('',#341,10.);
#98=VECTOR('',#344,10.);
#99=VECTOR('',#347,10.);
#100=VECTOR('',#348,10.);
#101=VECTOR('',#349,10.);
#102=VECTOR('',#356,10.);
#103=VECTOR('',#359,10.);
#104=VECTOR('',#360,10.);
#105=VECTOR('',#363,10.);
#106=VECTOR('',#364,10.);
#107=VECTOR('',#365,10.);
#108=VECTOR('',#366,10.);
#109=VECTOR('',#369,10.);
#110=VECTOR('',#370,10.);
#111=VECTOR('',#371,10.);
#112=VECTOR('',#372,10.);
#113=VECTOR('',#375,10.);
#114=VECTOR('',#376,10.);
#115=VECTOR('',#379,10.);
#116=VECTOR('',#382,10.);
#117=CIRCLE('',#290,1.7);
#118=CIRCLE('',#291,1.7);
#119=CIRCLE('',#294,1.7);
#120=CIRCLE('',#295,1.7);
#121=CIRCLE('',#298,1.7);
#122=CIRCLE('',#299,1.7);
#123=CIRCLE('',#302,1.7);
#124=CIRCLE('',#303,1.7);
#125=VERTEX_POINT('',#387);
#126=VERTEX_POINT('',#388);
#127=VERTEX_POINT('',#390);
#128=VERTEX_POINT('',#392);
#129=VERTEX_POINT('',#396);
#130=VERTEX_POINT('',#398);
#131=VERTEX_POINT('',#402);
#132=VERTEX_POINT('',#404);
#133=VERTEX_POINT('',#411);
#134=VERTEX_POINT('',#412);
#135=VERTEX_POINT('',#414);
#136=VERTEX_POINT('',#416);
#137=VERTEX_POINT('',#420);
#138=VERTEX_POINT('',#422);
#139=VERTEX_POINT('',#426);
#140=VERTEX_POINT('',#428);
#141=VERTEX_POINT('',#435);
#142=VERTEX_POINT('',#436);
#143=VERTEX_POINT('',#438);
#144=VERTEX_POINT('',#440);
#145=VERTEX_POINT('',#444);
#146=VERTEX_POINT('',#445);
#147=VERTEX_POINT('',#447);
#148=VERTEX_POINT('',#449);
#149=EDGE_CURVE('',#125,#126,#117,.T.);
#150=EDGE_CURVE('',#125,#127,#61,.T.);
#151=EDGE_CURVE('',#128,#127,#118,.T.);
#152=EDGE_CURVE('',#126,#128,#62,.T.);
#153=EDGE_CURVE('',#126,#129,#63,.T.);
#154=EDGE_CURVE('',#130,#128,#64,.T.);
#155=EDGE_CURVE('',#129,#130,#65,.T.);
#156=EDGE_CURVE('',#129,#131,#119,.T.);
#157=EDGE_CURVE('',#132,#130,#120,.T.);
#158=EDGE_CURVE('',#131,#132,#66,.T.);
#159=EDGE_CURVE('',#131,#125,#67,.T.);
#160=EDGE_CURVE('',#127,#132,#68,.T.);
#161=EDGE_CURVE('',#133,#134,#121,.T.);
#162=EDGE_CURVE('',#133,#135,#69,.T.);
#163=EDGE_CURVE('',#136,#135,#122,.T.);
#164=EDGE_CURVE('',#134,#136,#70,.T.);
#165=EDGE_CURVE('',#134,#137,#71,.T.);
#166=EDGE_CURVE('',#138,#136,#72,.T.);
#167=EDGE_CURVE('',#137,#138,#73,.T.);
#168=EDGE_CURVE('',#137,#139,#123,.T.);
#169=EDGE_CURVE('',#140,#138,#124,.T.);
#170=EDGE_CURVE('',#139,#140,#74,.T.);
#171=EDGE_CURVE('',#139,#133,#75,.T.);
#172=EDGE_CURVE('',#135,#140,#76,.T.);
#173=EDGE_CURVE('',#141,#142,#77,.T.);
#174=EDGE_CURVE('',#142,#143,#78,.T.);
#175=EDGE_CURVE('',#143,#144,#79,.T.);
#176=EDGE_CURVE('',#144,#141,#80,.T.);
#177=EDGE_CURVE('',#145,#146,#81,.T.);
#178=EDGE_CURVE('',#146,#147,#82,.T.);
#179=EDGE_CURVE('',#147,#148,#83,.T.);
#180=EDGE_CURVE('',#148,#145,#84,.T.);
#181=EDGE_CURVE('',#144,#147,#85,.T.);
#182=EDGE_CURVE('',#141,#146,#86,.T.);
#183=EDGE_CURVE('',#143,#148,#87,.T.);
#184=EDGE_CURVE('',#142,#145,#88,.T.);
#185=ORIENTED_EDGE('',*,*,#149,.F.);
#186=ORIENTED_EDGE('',*,*,#150,.T.);
#187=ORIENTED_EDGE('',*,*,#151,.F.);
#188=ORIENTED_EDGE('',*,*,#152,.F.);
#189=ORIENTED_EDGE('',*,*,#153,.F.);
#190=ORIENTED_EDGE('',*,*,#152,.T.);
#191=ORIENTED_EDGE('',*,*,#154,.F.);
#192=ORIENTED_EDGE('',*,*,#155,.F.);
#193=ORIENTED_EDGE('',*,*,#156,.F.);
#194=ORIENTED_EDGE('',*,*,#155,.T.);
#195=ORIENTED_EDGE('',*,*,#157,.F.);
#196=ORIENTED_EDGE('',*,*,#158,.F.);
#197=ORIENTED_EDGE('',*,*,#159,.F.);
#198=ORIENTED_EDGE('',*,*,#158,.T.);
#199=ORIENTED_EDGE('',*,*,#160,.F.);
#200=ORIENTED_EDGE('',*,*,#150,.F.);
#201=ORIENTED_EDGE('',*,*,#161,.F.);
#202=ORIENTED_EDGE('',*,*,#162,.T.);
#203=ORIENTED_EDGE('',*,*,#163,.F.);
#204=ORIENTED_EDGE('',*,*,#164,.F.);
#205=ORIENTED_EDGE('',*,*,#165,.F.);
#206=ORIENTED_EDGE('',*,*,#164,.T.);
#207=ORIENTED_EDGE('',*,*,#166,.F.);
#208=ORIENTED_EDGE('',*,*,#167,.F.);
#209=ORIENTED_EDGE('',*,*,#168,.F.);
#210=ORIENTED_EDGE('',*,*,#167,.T.);
#211=ORIENTED_EDGE('',*,*,#169,.F.);
#212=ORIENTED_EDGE('',*,*,#170,.F.);
#213=ORIENTED_EDGE('',*,*,#171,.F.);
#214=ORIENTED_EDGE('',*,*,#170,.T.);
#215=ORIENTED_EDGE('',*,*,#172,.F.);
#216=ORIENTED_EDGE('',*,*,#162,.F.);
#217=ORIENTED_EDGE('',*,*,#173,.T.);
#218=ORIENTED_EDGE('',*,*,#174,.T.);
#219=ORIENTED_EDGE('',*,*,#175,.T.);
#220=ORIENTED_EDGE('',*,*,#176,.T.);
#221=ORIENTED_EDGE('',*,*,#156,.T.);
#222=ORIENTED_EDGE('',*,*,#159,.T.);
#223=ORIENTED_EDGE('',*,*,#149,.T.);
#224=ORIENTED_EDGE('',*,*,#153,.T.);
#225=ORIENTED_EDGE('',*,*,#168,.T.);
#226=ORIENTED_EDGE('',*,*,#171,.T.);
#227=ORIENTED_EDGE('',*,*,#161,.T.);
#228=ORIENTED_EDGE('',*,*,#165,.T.);
#229=ORIENTED_EDGE('',*,*,#177,.T.);
#230=ORIENTED_EDGE('',*,*,#178,.T.);
#231=ORIENTED_EDGE('',*,*,#179,.T.);
#232=ORIENTED_EDGE('',*,*,#180,.T.);
#233=ORIENTED_EDGE('',*,*,#157,.T.);
#234=ORIENTED_EDGE('',*,*,#154,.T.);
#235=ORIENTED_EDGE('',*,*,#151,.T.);
#236=ORIENTED_EDGE('',*,*,#160,.T.);
#237=ORIENTED_EDGE('',*,*,#169,.T.);
#238=ORIENTED_EDGE('',*,*,#166,.T.);
#239=ORIENTED_EDGE('',*,*,#163,.T.);
#240=ORIENTED_EDGE('',*,*,#172,.T.);
#241=ORIENTED_EDGE('',*,*,#181,.T.);
#242=ORIENTED_EDGE('',*,*,#178,.F.);
#243=ORIENTED_EDGE('',*,*,#182,.F.);
#244=ORIENTED_EDGE('',*,*,#176,.F.);
#245=ORIENTED_EDGE('',*,*,#183,.T.);
#246=ORIENTED_EDGE('',*,*,#179,.F.);
#247=ORIENTED_EDGE('',*,*,#181,.F.);
#248=ORIENTED_EDGE('',*,*,#175,.F.);
#249=ORIENTED_EDGE('',*,*,#184,.T.);
#250=ORIENTED_EDGE('',*,*,#180,.F.);
#251=ORIENTED_EDGE('',*,*,#183,.F.);
#252=ORIENTED_EDGE('',*,*,#174,.F.);
#253=ORIENTED_EDGE('',*,*,#182,.T.);
#254=ORIENTED_EDGE('',*,*,#177,.F.);
#255=ORIENTED_EDGE('',*,*,#184,.F.);
#256=ORIENTED_EDGE('',*,*,#173,.F.);
#257=CYLINDRICAL_SURFACE('',#289,1.7);
#258=CYLINDRICAL_SURFACE('',#293,1.7);
#259=CYLINDRICAL_SURFACE('',#297,1.7);
#260=CYLINDRICAL_SURFACE('',#301,1.7);
#261=ADVANCED_FACE('',(#29),#257,.F.);
#262=ADVANCED_FACE('',(#30),#19,.T.);
#263=ADVANCED_FACE('',(#31),#258,.F.);
#264=ADVANCED_FACE('',(#32),#20,.T.);
#265=ADVANCED_FACE('',(#33),#259,.F.);
#266=ADVANCED_FACE('',(#34),#21,.T.);
#267=ADVANCED_FACE('',(#35),#260,.F.);
#268=ADVANCED_FACE('',(#36),#22,.T.);
#269=ADVANCED_FACE('',(#37,#15,#16),#23,.T.);
#270=ADVANCED_FACE('',(#38,#17,#18),#24,.F.);
#271=ADVANCED_FACE('',(#39),#25,.F.);
#272=ADVANCED_FACE('',(#40),#26,.F.);
#273=ADVANCED_FACE('',(#41),#27,.F.);
#274=ADVANCED_FACE('',(#42),#28,.F.);
#275=CLOSED_SHELL('',(#261,#262,#263,#264,#265,#266,#267,#268,#269,#270,
#271,#272,#273,#274));
#276=DERIVED_UNIT_ELEMENT(#278,1.);
#277=DERIVED_UNIT_ELEMENT(#465,-3.);
#278=(
MASS_UNIT()
NAMED_UNIT(*)
SI_UNIT(.KILO.,.GRAM.)
);
#279=DERIVED_UNIT((#276,#277));
#280=MEASURE_REPRESENTATION_ITEM('density measure',
POSITIVE_RATIO_MEASURE(7850.),#279);
#281=PROPERTY_DEFINITION_REPRESENTATION(#286,#283);
#282=PROPERTY_DEFINITION_REPRESENTATION(#287,#284);
#283=REPRESENTATION('material name',(#285),#462);
#284=REPRESENTATION('density',(#280),#462);
#285=DESCRIPTIVE_REPRESENTATION_ITEM('Steel','Steel');
#286=PROPERTY_DEFINITION('material property','material name',#472);
#287=PROPERTY_DEFINITION('material property','density of part',#472);
#288=AXIS2_PLACEMENT_3D('',#385,#311,#312);
#289=AXIS2_PLACEMENT_3D('',#386,#313,#314);
#290=AXIS2_PLACEMENT_3D('',#389,#315,#316);
#291=AXIS2_PLACEMENT_3D('',#393,#318,#319);
#292=AXIS2_PLACEMENT_3D('',#395,#321,#322);
#293=AXIS2_PLACEMENT_3D('',#401,#326,#327);
#294=AXIS2_PLACEMENT_3D('',#403,#328,#329);
#295=AXIS2_PLACEMENT_3D('',#405,#330,#331);
#296=AXIS2_PLACEMENT_3D('',#407,#333,#334);
#297=AXIS2_PLACEMENT_3D('',#410,#337,#338);
#298=AXIS2_PLACEMENT_3D('',#413,#339,#340);
#299=AXIS2_PLACEMENT_3D('',#417,#342,#343);
#300=AXIS2_PLACEMENT_3D('',#419,#345,#346);
#301=AXIS2_PLACEMENT_3D('',#425,#350,#351);
#302=AXIS2_PLACEMENT_3D('',#427,#352,#353);
#303=AXIS2_PLACEMENT_3D('',#429,#354,#355);
#304=AXIS2_PLACEMENT_3D('',#431,#357,#358);
#305=AXIS2_PLACEMENT_3D('',#434,#361,#362);
#306=AXIS2_PLACEMENT_3D('',#443,#367,#368);
#307=AXIS2_PLACEMENT_3D('',#452,#373,#374);
#308=AXIS2_PLACEMENT_3D('',#455,#377,#378);
#309=AXIS2_PLACEMENT_3D('',#457,#380,#381);
#310=AXIS2_PLACEMENT_3D('',#459,#383,#384);
#311=DIRECTION('axis',(0.,0.,1.));
#312=DIRECTION('refdir',(1.,0.,0.));
#313=DIRECTION('center_axis',(0.,0.,1.));
#314=DIRECTION('ref_axis',(1.,0.,0.));
#315=DIRECTION('center_axis',(0.,0.,-1.));
#316=DIRECTION('ref_axis',(1.,0.,0.));
#317=DIRECTION('',(0.,0.,-1.));
#318=DIRECTION('center_axis',(0.,0.,1.));
#319=DIRECTION('ref_axis',(1.,0.,0.));
#320=DIRECTION('',(0.,0.,-1.));
#321=DIRECTION('center_axis',(0.,1.,0.));
#322=DIRECTION('ref_axis',(0.,0.,1.));
#323=DIRECTION('',(-1.,0.,0.));
#324=DIRECTION('',(1.,0.,0.));
#325=DIRECTION('',(0.,0.,-1.));
#326=DIRECTION('center_axis',(0.,0.,1.));
#327=DIRECTION('ref_axis',(-1.,1.22464679914735E-16,0.));
#328=DIRECTION('center_axis',(0.,0.,-1.));
#329=DIRECTION('ref_axis',(1.,0.,0.));
#330=DIRECTION('center_axis',(0.,0.,1.));
#331=DIRECTION('ref_axis',(1.,0.,0.));
#332=DIRECTION('',(0.,0.,-1.));
#333=DIRECTION('center_axis',(0.,-1.,0.));
#334=DIRECTION('ref_axis',(0.,0.,-1.));
#335=DIRECTION('',(1.,0.,0.));
#336=DIRECTION('',(-1.,0.,0.));
#337=DIRECTION('center_axis',(0.,0.,1.));
#338=DIRECTION('ref_axis',(1.,0.,0.));
#339=DIRECTION('center_axis',(0.,0.,-1.));
#340=DIRECTION('ref_axis',(1.,0.,0.));
#341=DIRECTION('',(0.,0.,-1.));
#342=DIRECTION('center_axis',(0.,0.,1.));
#343=DIRECTION('ref_axis',(1.,0.,0.));
#344=DIRECTION('',(0.,0.,-1.));
#345=DIRECTION('center_axis',(0.,1.,0.));
#346=DIRECTION('ref_axis',(0.,0.,1.));
#347=DIRECTION('',(-1.,0.,0.));
#348=DIRECTION('',(1.,0.,0.));
#349=DIRECTION('',(0.,0.,-1.));
#350=DIRECTION('center_axis',(0.,0.,1.));
#351=DIRECTION('ref_axis',(-1.,1.22464679914735E-16,0.));
#352=DIRECTION('center_axis',(0.,0.,-1.));
#353=DIRECTION('ref_axis',(1.,0.,0.));
#354=DIRECTION('center_axis',(0.,0.,1.));
#355=DIRECTION('ref_axis',(1.,0.,0.));
#356=DIRECTION('',(0.,0.,-1.));
#357=DIRECTION('center_axis',(0.,-1.,0.));
#358=DIRECTION('ref_axis',(0.,0.,-1.));
#359=DIRECTION('',(1.,0.,0.));
#360=DIRECTION('',(-1.,0.,0.));
#361=DIRECTION('center_axis',(0.,0.,1.));
#362=DIRECTION('ref_axis',(1.,0.,0.));
#363=DIRECTION('',(0.,1.,0.));
#364=DIRECTION('',(-1.,0.,0.));
#365=DIRECTION('',(0.,-1.,0.));
#366=DIRECTION('',(1.,0.,0.));
#367=DIRECTION('center_axis',(0.,0.,1.));
#368=DIRECTION('ref_axis',(1.,0.,0.));
#369=DIRECTION('',(0.,-1.,0.));
#370=DIRECTION('',(-1.,0.,0.));
#371=DIRECTION('',(0.,1.,0.));
#372=DIRECTION('',(1.,0.,0.));
#373=DIRECTION('center_axis',(0.,1.,0.));
#374=DIRECTION('ref_axis',(0.,0.,1.));
#375=DIRECTION('',(0.,0.,-1.));
#376=DIRECTION('',(0.,0.,-1.));
#377=DIRECTION('center_axis',(1.,0.,0.));
#378=DIRECTION('ref_axis',(0.,0.,-1.));
#379=DIRECTION('',(0.,0.,-1.));
#380=DIRECTION('center_axis',(0.,-1.,0.));
#381=DIRECTION('ref_axis',(0.,0.,-1.));
#382=DIRECTION('',(0.,0.,-1.));
#383=DIRECTION('center_axis',(-1.,0.,0.));
#384=DIRECTION('ref_axis',(0.,0.,1.));
#385=CARTESIAN_POINT('',(0.,0.,0.));
#386=CARTESIAN_POINT('Origin',(37.6,16.,7.8));
#387=CARTESIAN_POINT('',(37.6,17.7,9.3));
#388=CARTESIAN_POINT('',(37.6,14.3,9.3));
#389=CARTESIAN_POINT('Origin',(37.6,16.,9.3));
#390=CARTESIAN_POINT('',(37.6,17.7,6.3));
#391=CARTESIAN_POINT('',(37.6,17.7,7.8));
#392=CARTESIAN_POINT('',(37.6,14.3,6.3));
#393=CARTESIAN_POINT('Origin',(37.6,16.,6.3));
#394=CARTESIAN_POINT('',(37.6,14.3,7.8));
#395=CARTESIAN_POINT('Origin',(36.6,14.3,7.8));
#396=CARTESIAN_POINT('',(35.6,14.3,9.3));
#397=CARTESIAN_POINT('',(36.,14.3,9.3));
#398=CARTESIAN_POINT('',(35.6,14.3,6.3));
#399=CARTESIAN_POINT('',(36.,14.3,6.3));
#400=CARTESIAN_POINT('',(35.6,14.3,7.8));
#401=CARTESIAN_POINT('Origin',(35.6,16.,7.8));
#402=CARTESIAN_POINT('',(35.6,17.7,9.3));
#403=CARTESIAN_POINT('Origin',(35.6,16.,9.3));
#404=CARTESIAN_POINT('',(35.6,17.7,6.3));
#405=CARTESIAN_POINT('Origin',(35.6,16.,6.3));
#406=CARTESIAN_POINT('',(35.6,17.7,7.8));
#407=CARTESIAN_POINT('Origin',(36.6,17.7,7.8));
#408=CARTESIAN_POINT('',(36.,17.7,9.3));
#409=CARTESIAN_POINT('',(36.,17.7,6.3));
#410=CARTESIAN_POINT('Origin',(37.6,-16.,7.8));
#411=CARTESIAN_POINT('',(37.6,-14.3,9.3));
#412=CARTESIAN_POINT('',(37.6,-17.7,9.3));
#413=CARTESIAN_POINT('Origin',(37.6,-16.,9.3));
#414=CARTESIAN_POINT('',(37.6,-14.3,6.3));
#415=CARTESIAN_POINT('',(37.6,-14.3,7.8));
#416=CARTESIAN_POINT('',(37.6,-17.7,6.3));
#417=CARTESIAN_POINT('Origin',(37.6,-16.,6.3));
#418=CARTESIAN_POINT('',(37.6,-17.7,7.8));
#419=CARTESIAN_POINT('Origin',(36.6,-17.7,7.8));
#420=CARTESIAN_POINT('',(35.6,-17.7,9.3));
#421=CARTESIAN_POINT('',(36.,-17.7,9.3));
#422=CARTESIAN_POINT('',(35.6,-17.7,6.3));
#423=CARTESIAN_POINT('',(36.,-17.7,6.3));
#424=CARTESIAN_POINT('',(35.6,-17.7,7.8));
#425=CARTESIAN_POINT('Origin',(35.6,-16.,7.8));
#426=CARTESIAN_POINT('',(35.6,-14.3,9.3));
#427=CARTESIAN_POINT('Origin',(35.6,-16.,9.3));
#428=CARTESIAN_POINT('',(35.6,-14.3,6.3));
#429=CARTESIAN_POINT('Origin',(35.6,-16.,6.3));
#430=CARTESIAN_POINT('',(35.6,-14.3,7.8));
#431=CARTESIAN_POINT('Origin',(36.6,-14.3,7.8));
#432=CARTESIAN_POINT('',(36.,-14.3,9.3));
#433=CARTESIAN_POINT('',(36.,-14.3,6.3));
#434=CARTESIAN_POINT('Origin',(35.4,0.,9.3));
#435=CARTESIAN_POINT('',(39.8,-20.5,9.3));
#436=CARTESIAN_POINT('',(39.8,20.5,9.3));
#437=CARTESIAN_POINT('',(39.8,0.,9.3));
#438=CARTESIAN_POINT('',(31.,20.5,9.3));
#439=CARTESIAN_POINT('',(35.4,20.5,9.3));
#440=CARTESIAN_POINT('',(31.,-20.5,9.3));
#441=CARTESIAN_POINT('',(31.,0.,9.3));
#442=CARTESIAN_POINT('',(35.4,-20.5,9.3));
#443=CARTESIAN_POINT('Origin',(35.4,0.,6.3));
#444=CARTESIAN_POINT('',(39.8,20.5,6.3));
#445=CARTESIAN_POINT('',(39.8,-20.5,6.3));
#446=CARTESIAN_POINT('',(39.8,0.,6.3));
#447=CARTESIAN_POINT('',(31.,-20.5,6.3));
#448=CARTESIAN_POINT('',(35.4,-20.5,6.3));
#449=CARTESIAN_POINT('',(31.,20.5,6.3));
#450=CARTESIAN_POINT('',(31.,0.,6.3));
#451=CARTESIAN_POINT('',(35.4,20.5,6.3));
#452=CARTESIAN_POINT('Origin',(35.4,-20.5,7.8));
#453=CARTESIAN_POINT('',(31.,-20.5,7.8));
#454=CARTESIAN_POINT('',(39.8,-20.5,7.8));
#455=CARTESIAN_POINT('Origin',(31.,0.,7.8));
#456=CARTESIAN_POINT('',(31.,20.5,7.8));
#457=CARTESIAN_POINT('Origin',(35.4,20.5,7.8));
#458=CARTESIAN_POINT('',(39.8,20.5,7.8));
#459=CARTESIAN_POINT('Origin',(39.8,0.,7.8));
#460=UNCERTAINTY_MEASURE_WITH_UNIT(LENGTH_MEASURE(0.01),#464,
'DISTANCE_ACCURACY_VALUE',
'Maximum model space distance between geometric entities at asserted c
onnectivities');
#461=UNCERTAINTY_MEASURE_WITH_UNIT(LENGTH_MEASURE(0.01),#464,
'DISTANCE_ACCURACY_VALUE',
'Maximum model space distance between geometric entities at asserted c
onnectivities');
#462=(
GEOMETRIC_REPRESENTATION_CONTEXT(3)
GLOBAL_UNCERTAINTY_ASSIGNED_CONTEXT((#460))
GLOBAL_UNIT_ASSIGNED_CONTEXT((#464,#466,#467))
REPRESENTATION_CONTEXT('','3D')
);
#463=(
GEOMETRIC_REPRESENTATION_CONTEXT(3)
GLOBAL_UNCERTAINTY_ASSIGNED_CONTEXT((#461))
GLOBAL_UNIT_ASSIGNED_CONTEXT((#464,#466,#467))
REPRESENTATION_CONTEXT('','3D')
);
#464=(
LENGTH_UNIT()
NAMED_UNIT(*)
SI_UNIT(.MILLI.,.METRE.)
);
#465=(
LENGTH_UNIT()
NAMED_UNIT(*)
SI_UNIT($,.METRE.)
);
#466=(
NAMED_UNIT(*)
PLANE_ANGLE_UNIT()
SI_UNIT($,.RADIAN.)
);
#467=(
NAMED_UNIT(*)
SI_UNIT($,.STERADIAN.)
SOLID_ANGLE_UNIT()
);
#468=SHAPE_DEFINITION_REPRESENTATION(#469,#470);
#469=PRODUCT_DEFINITION_SHAPE('',$,#472);
#470=SHAPE_REPRESENTATION('',(#288),#462);
#471=PRODUCT_DEFINITION_CONTEXT('part definition',#476,'design');
#472=PRODUCT_DEFINITION('PCB_Clamp_Adjustable','PCB_Clamp_Adjustable',#473,
#471);
#473=PRODUCT_DEFINITION_FORMATION('',$,#478);
#474=PRODUCT_RELATED_PRODUCT_CATEGORY('PCB_Clamp_Adjustable',
'PCB_Clamp_Adjustable',(#478));
#475=APPLICATION_PROTOCOL_DEFINITION('international standard',
'automotive_design',2009,#476);
#476=APPLICATION_CONTEXT(
'Core Data for Automotive Mechanical Design Process');
#477=PRODUCT_CONTEXT('part definition',#476,'mechanical');
#478=PRODUCT('PCB_Clamp_Adjustable','PCB_Clamp_Adjustable',$,(#477));
#479=PRESENTATION_STYLE_ASSIGNMENT((#480));
#480=SURFACE_STYLE_USAGE(.BOTH.,#481);
#481=SURFACE_SIDE_STYLE('',(#482));
#482=SURFACE_STYLE_FILL_AREA(#483);
#483=FILL_AREA_STYLE('Steel - Satin',(#484));
#484=FILL_AREA_STYLE_COLOUR('Steel - Satin',#485);
#485=COLOUR_RGB('Steel - Satin',0.627450980392157,0.627450980392157,0.627450980392157);
ENDSEC;
END-ISO-10303-21;
