ISO-10303-21;
HEADER;
/* Generated by software containing ST-Developer
 * from STEP Tools, Inc. (www.steptools.com) 
 */

FILE_DESCRIPTION(
/* description */ (
'PROTOTYPE TOOL. Not a production part; excluded from the specificatio
n section 9 material gates.'),
/* implementation_level */ '2;1');

FILE_NAME(
/* name */ 'ESP32_Controller_Carrier_Fit_Coupon.step',
/* time_stamp */ '2026-09-02T11:53:33+01:00',
/* author */ (''),
/* organization */ (''),
/* preprocessor_version */ 'ST-DEVELOPER v20.1',
/* originating_system */ 'Autodesk Translation Framework v15.8.0.0',
/* authorisation */ '');

FILE_SCHEMA (('AUTOMOTIVE_DESIGN { 1 0 10303 214 3 1 1 }'));
ENDSEC;

DATA;
#10=MECHANICAL_DESIGN_GEOMETRIC_PRESENTATION_REPRESENTATION('',(#13),#1502);
#11=SHAPE_REPRESENTATION_RELATIONSHIP('SRR','None',#1509,#12);
#12=ADVANCED_BREP_SHAPE_REPRESENTATION('',(#14),#1501);
#13=STYLED_ITEM('',(#1518),#14);
#14=MANIFOLD_SOLID_BREP('ESP32_Controller_Carrier_Fit_Coupon',#942);
#15=FACE_BOUND('',#117,.T.);
#16=FACE_BOUND('',#119,.T.);
#17=FACE_BOUND('',#120,.T.);
#18=PLANE('',#959);
#19=PLANE('',#960);
#20=PLANE('',#961);
#21=PLANE('',#962);
#22=PLANE('',#963);
#23=PLANE('',#964);
#24=PLANE('',#965);
#25=PLANE('',#966);
#26=PLANE('',#967);
#27=PLANE('',#968);
#28=PLANE('',#969);
#29=PLANE('',#970);
#30=PLANE('',#971);
#31=PLANE('',#972);
#32=PLANE('',#973);
#33=PLANE('',#974);
#34=PLANE('',#975);
#35=PLANE('',#976);
#36=PLANE('',#977);
#37=PLANE('',#978);
#38=PLANE('',#979);
#39=PLANE('',#980);
#40=PLANE('',#981);
#41=PLANE('',#982);
#42=PLANE('',#983);
#43=PLANE('',#984);
#44=PLANE('',#985);
#45=PLANE('',#986);
#46=PLANE('',#987);
#47=PLANE('',#988);
#48=PLANE('',#989);
#49=PLANE('',#990);
#50=PLANE('',#991);
#51=PLANE('',#992);
#52=PLANE('',#993);
#53=PLANE('',#994);
#54=PLANE('',#995);
#55=PLANE('',#996);
#56=PLANE('',#997);
#57=PLANE('',#998);
#58=PLANE('',#999);
#59=PLANE('',#1000);
#60=PLANE('',#1001);
#61=PLANE('',#1002);
#62=PLANE('',#1003);
#63=PLANE('',#1004);
#64=PLANE('',#1005);
#65=FACE_OUTER_BOUND('',#113,.T.);
#66=FACE_OUTER_BOUND('',#114,.T.);
#67=FACE_OUTER_BOUND('',#115,.T.);
#68=FACE_OUTER_BOUND('',#116,.T.);
#69=FACE_OUTER_BOUND('',#118,.T.);
#70=FACE_OUTER_BOUND('',#121,.T.);
#71=FACE_OUTER_BOUND('',#122,.T.);
#72=FACE_OUTER_BOUND('',#123,.T.);
#73=FACE_OUTER_BOUND('',#124,.T.);
#74=FACE_OUTER_BOUND('',#125,.T.);
#75=FACE_OUTER_BOUND('',#126,.T.);
#76=FACE_OUTER_BOUND('',#127,.T.);
#77=FACE_OUTER_BOUND('',#128,.T.);
#78=FACE_OUTER_BOUND('',#129,.T.);
#79=FACE_OUTER_BOUND('',#130,.T.);
#80=FACE_OUTER_BOUND('',#131,.T.);
#81=FACE_OUTER_BOUND('',#132,.T.);
#82=FACE_OUTER_BOUND('',#133,.T.);
#83=FACE_OUTER_BOUND('',#134,.T.);
#84=FACE_OUTER_BOUND('',#135,.T.);
#85=FACE_OUTER_BOUND('',#136,.T.);
#86=FACE_OUTER_BOUND('',#137,.T.);
#87=FACE_OUTER_BOUND('',#138,.T.);
#88=FACE_OUTER_BOUND('',#139,.T.);
#89=FACE_OUTER_BOUND('',#140,.T.);
#90=FACE_OUTER_BOUND('',#141,.T.);
#91=FACE_OUTER_BOUND('',#142,.T.);
#92=FACE_OUTER_BOUND('',#143,.T.);
#93=FACE_OUTER_BOUND('',#144,.T.);
#94=FACE_OUTER_BOUND('',#145,.T.);
#95=FACE_OUTER_BOUND('',#146,.T.);
#96=FACE_OUTER_BOUND('',#147,.T.);
#97=FACE_OUTER_BOUND('',#148,.T.);
#98=FACE_OUTER_BOUND('',#149,.T.);
#99=FACE_OUTER_BOUND('',#150,.T.);
#100=FACE_OUTER_BOUND('',#151,.T.);
#101=FACE_OUTER_BOUND('',#152,.T.);
#102=FACE_OUTER_BOUND('',#153,.T.);
#103=FACE_OUTER_BOUND('',#154,.T.);
#104=FACE_OUTER_BOUND('',#155,.T.);
#105=FACE_OUTER_BOUND('',#156,.T.);
#106=FACE_OUTER_BOUND('',#157,.T.);
#107=FACE_OUTER_BOUND('',#158,.T.);
#108=FACE_OUTER_BOUND('',#159,.T.);
#109=FACE_OUTER_BOUND('',#160,.T.);
#110=FACE_OUTER_BOUND('',#161,.T.);
#111=FACE_OUTER_BOUND('',#162,.T.);
#112=FACE_OUTER_BOUND('',#163,.T.);
#113=EDGE_LOOP('',(#635,#636,#637,#638));
#114=EDGE_LOOP('',(#639));
#115=EDGE_LOOP('',(#640,#641,#642,#643,#644,#645,#646,#647,#648,#649,#650,
#651));
#116=EDGE_LOOP('',(#652,#653,#654,#655));
#117=EDGE_LOOP('',(#656));
#118=EDGE_LOOP('',(#657,#658,#659,#660,#661,#662,#663,#664,#665,#666,#667,
#668,#669,#670,#671,#672,#673,#674,#675,#676));
#119=EDGE_LOOP('',(#677,#678,#679,#680));
#120=EDGE_LOOP('',(#681,#682,#683,#684,#685,#686,#687,#688));
#121=EDGE_LOOP('',(#689,#690,#691,#692));
#122=EDGE_LOOP('',(#693,#694,#695,#696));
#123=EDGE_LOOP('',(#697,#698,#699,#700));
#124=EDGE_LOOP('',(#701,#702,#703,#704));
#125=EDGE_LOOP('',(#705,#706,#707,#708));
#126=EDGE_LOOP('',(#709,#710,#711,#712));
#127=EDGE_LOOP('',(#713,#714,#715,#716));
#128=EDGE_LOOP('',(#717,#718,#719,#720));
#129=EDGE_LOOP('',(#721,#722,#723,#724));
#130=EDGE_LOOP('',(#725,#726,#727,#728,#729,#730));
#131=EDGE_LOOP('',(#731,#732,#733,#734));
#132=EDGE_LOOP('',(#735,#736,#737,#738));
#133=EDGE_LOOP('',(#739,#740,#741,#742));
#134=EDGE_LOOP('',(#743,#744,#745,#746,#747,#748));
#135=EDGE_LOOP('',(#749,#750,#751,#752));
#136=EDGE_LOOP('',(#753,#754,#755,#756));
#137=EDGE_LOOP('',(#757,#758,#759,#760));
#138=EDGE_LOOP('',(#761,#762,#763,#764));
#139=EDGE_LOOP('',(#765,#766,#767,#768));
#140=EDGE_LOOP('',(#769,#770,#771,#772));
#141=EDGE_LOOP('',(#773,#774,#775,#776));
#142=EDGE_LOOP('',(#777,#778,#779,#780));
#143=EDGE_LOOP('',(#781,#782,#783,#784,#785,#786));
#144=EDGE_LOOP('',(#787,#788,#789,#790));
#145=EDGE_LOOP('',(#791,#792,#793,#794));
#146=EDGE_LOOP('',(#795,#796,#797,#798));
#147=EDGE_LOOP('',(#799,#800,#801,#802));
#148=EDGE_LOOP('',(#803,#804,#805,#806,#807,#808,#809,#810,#811,#812,#813,
#814,#815,#816,#817,#818));
#149=EDGE_LOOP('',(#819,#820,#821,#822));
#150=EDGE_LOOP('',(#823,#824,#825,#826));
#151=EDGE_LOOP('',(#827,#828,#829,#830));
#152=EDGE_LOOP('',(#831,#832,#833,#834));
#153=EDGE_LOOP('',(#835,#836,#837,#838));
#154=EDGE_LOOP('',(#839,#840,#841,#842,#843));
#155=EDGE_LOOP('',(#844,#845,#846,#847));
#156=EDGE_LOOP('',(#848,#849,#850,#851,#852));
#157=EDGE_LOOP('',(#853,#854,#855,#856));
#158=EDGE_LOOP('',(#857,#858,#859,#860,#861,#862,#863,#864));
#159=EDGE_LOOP('',(#865,#866,#867,#868));
#160=EDGE_LOOP('',(#869,#870,#871,#872,#873,#874,#875,#876));
#161=EDGE_LOOP('',(#877,#878,#879,#880));
#162=EDGE_LOOP('',(#881,#882,#883,#884,#885,#886,#887,#888));
#163=EDGE_LOOP('',(#889,#890,#891,#892));
#164=LINE('',#1240,#291);
#165=LINE('',#1246,#292);
#166=LINE('',#1248,#293);
#167=LINE('',#1250,#294);
#168=LINE('',#1252,#295);
#169=LINE('',#1254,#296);
#170=LINE('',#1256,#297);
#171=LINE('',#1258,#298);
#172=LINE('',#1260,#299);
#173=LINE('',#1262,#300);
#174=LINE('',#1264,#301);
#175=LINE('',#1266,#302);
#176=LINE('',#1267,#303);
#177=LINE('',#1271,#304);
#178=LINE('',#1272,#305);
#179=LINE('',#1273,#306);
#180=LINE('',#1276,#307);
#181=LINE('',#1278,#308);
#182=LINE('',#1280,#309);
#183=LINE('',#1282,#310);
#184=LINE('',#1284,#311);
#185=LINE('',#1286,#312);
#186=LINE('',#1288,#313);
#187=LINE('',#1290,#314);
#188=LINE('',#1292,#315);
#189=LINE('',#1294,#316);
#190=LINE('',#1295,#317);
#191=LINE('',#1297,#318);
#192=LINE('',#1299,#319);
#193=LINE('',#1300,#320);
#194=LINE('',#1302,#321);
#195=LINE('',#1304,#322);
#196=LINE('',#1305,#323);
#197=LINE('',#1308,#324);
#198=LINE('',#1310,#325);
#199=LINE('',#1312,#326);
#200=LINE('',#1313,#327);
#201=LINE('',#1316,#328);
#202=LINE('',#1318,#329);
#203=LINE('',#1320,#330);
#204=LINE('',#1322,#331);
#205=LINE('',#1324,#332);
#206=LINE('',#1326,#333);
#207=LINE('',#1328,#334);
#208=LINE('',#1329,#335);
#209=LINE('',#1332,#336);
#210=LINE('',#1333,#337);
#211=LINE('',#1336,#338);
#212=LINE('',#1338,#339);
#213=LINE('',#1339,#340);
#214=LINE('',#1341,#341);
#215=LINE('',#1343,#342);
#216=LINE('',#1347,#343);
#217=LINE('',#1348,#344);
#218=LINE('',#1350,#345);
#219=LINE('',#1354,#346);
#220=LINE('',#1356,#347);
#221=LINE('',#1357,#348);
#222=LINE('',#1360,#349);
#223=LINE('',#1362,#350);
#224=LINE('',#1364,#351);
#225=LINE('',#1366,#352);
#226=LINE('',#1367,#353);
#227=LINE('',#1369,#354);
#228=LINE('',#1370,#355);
#229=LINE('',#1372,#356);
#230=LINE('',#1376,#357);
#231=LINE('',#1378,#358);
#232=LINE('',#1379,#359);
#233=LINE('',#1383,#360);
#234=LINE('',#1385,#361);
#235=LINE('',#1387,#362);
#236=LINE('',#1388,#363);
#237=LINE('',#1390,#364);
#238=LINE('',#1391,#365);
#239=LINE('',#1393,#366);
#240=LINE('',#1395,#367);
#241=LINE('',#1399,#368);
#242=LINE('',#1401,#369);
#243=LINE('',#1402,#370);
#244=LINE('',#1404,#371);
#245=LINE('',#1405,#372);
#246=LINE('',#1411,#373);
#247=LINE('',#1413,#374);
#248=LINE('',#1415,#375);
#249=LINE('',#1416,#376);
#250=LINE('',#1418,#377);
#251=LINE('',#1419,#378);
#252=LINE('',#1421,#379);
#253=LINE('',#1422,#380);
#254=LINE('',#1426,#381);
#255=LINE('',#1428,#382);
#256=LINE('',#1430,#383);
#257=LINE('',#1432,#384);
#258=LINE('',#1434,#385);
#259=LINE('',#1436,#386);
#260=LINE('',#1437,#387);
#261=LINE('',#1439,#388);
#262=LINE('',#1441,#389);
#263=LINE('',#1442,#390);
#264=LINE('',#1446,#391);
#265=LINE('',#1447,#392);
#266=LINE('',#1448,#393);
#267=LINE('',#1450,#394);
#268=LINE('',#1452,#395);
#269=LINE('',#1457,#396);
#270=LINE('',#1459,#397);
#271=LINE('',#1461,#398);
#272=LINE('',#1462,#399);
#273=LINE('',#1464,#400);
#274=LINE('',#1466,#401);
#275=LINE('',#1467,#402);
#276=LINE('',#1469,#403);
#277=LINE('',#1472,#404);
#278=LINE('',#1473,#405);
#279=LINE('',#1475,#406);
#280=LINE('',#1478,#407);
#281=LINE('',#1480,#408);
#282=LINE('',#1481,#409);
#283=LINE('',#1485,#410);
#284=LINE('',#1487,#411);
#285=LINE('',#1489,#412);
#286=LINE('',#1490,#413);
#287=LINE('',#1492,#414);
#288=LINE('',#1493,#415);
#289=LINE('',#1495,#416);
#290=LINE('',#1497,#417);
#291=VECTOR('',#1012,2.);
#292=VECTOR('',#1019,10.);
#293=VECTOR('',#1020,10.);
#294=VECTOR('',#1021,10.);
#295=VECTOR('',#1022,10.);
#296=VECTOR('',#1023,10.);
#297=VECTOR('',#1024,10.);
#298=VECTOR('',#1025,10.);
#299=VECTOR('',#1026,10.);
#300=VECTOR('',#1027,10.);
#301=VECTOR('',#1028,10.);
#302=VECTOR('',#1029,10.);
#303=VECTOR('',#1030,10.);
#304=VECTOR('',#1033,10.);
#305=VECTOR('',#1034,10.);
#306=VECTOR('',#1035,10.);
#307=VECTOR('',#1038,10.);
#308=VECTOR('',#1039,10.);
#309=VECTOR('',#1040,10.);
#310=VECTOR('',#1041,10.);
#311=VECTOR('',#1042,10.);
#312=VECTOR('',#1043,10.);
#313=VECTOR('',#1044,10.);
#314=VECTOR('',#1045,10.);
#315=VECTOR('',#1046,10.);
#316=VECTOR('',#1047,10.);
#317=VECTOR('',#1048,10.);
#318=VECTOR('',#1049,10.);
#319=VECTOR('',#1050,10.);
#320=VECTOR('',#1051,10.);
#321=VECTOR('',#1052,10.);
#322=VECTOR('',#1053,10.);
#323=VECTOR('',#1054,10.);
#324=VECTOR('',#1055,10.);
#325=VECTOR('',#1056,10.);
#326=VECTOR('',#1057,10.);
#327=VECTOR('',#1058,10.);
#328=VECTOR('',#1059,10.);
#329=VECTOR('',#1060,10.);
#330=VECTOR('',#1061,10.);
#331=VECTOR('',#1062,10.);
#332=VECTOR('',#1063,10.);
#333=VECTOR('',#1064,10.);
#334=VECTOR('',#1065,10.);
#335=VECTOR('',#1066,10.);
#336=VECTOR('',#1069,10.);
#337=VECTOR('',#1070,10.);
#338=VECTOR('',#1073,10.);
#339=VECTOR('',#1074,10.);
#340=VECTOR('',#1075,10.);
#341=VECTOR('',#1078,10.);
#342=VECTOR('',#1081,10.);
#343=VECTOR('',#1086,10.);
#344=VECTOR('',#1087,10.);
#345=VECTOR('',#1090,10.);
#346=VECTOR('',#1095,10.);
#347=VECTOR('',#1096,10.);
#348=VECTOR('',#1097,10.);
#349=VECTOR('',#1100,10.);
#350=VECTOR('',#1101,10.);
#351=VECTOR('',#1102,10.);
#352=VECTOR('',#1103,10.);
#353=VECTOR('',#1104,10.);
#354=VECTOR('',#1107,10.);
#355=VECTOR('',#1108,10.);
#356=VECTOR('',#1111,10.);
#357=VECTOR('',#1116,10.);
#358=VECTOR('',#1117,10.);
#359=VECTOR('',#1118,10.);
#360=VECTOR('',#1121,10.);
#361=VECTOR('',#1122,10.);
#362=VECTOR('',#1123,10.);
#363=VECTOR('',#1124,10.);
#364=VECTOR('',#1127,10.);
#365=VECTOR('',#1128,10.);
#366=VECTOR('',#1131,10.);
#367=VECTOR('',#1134,10.);
#368=VECTOR('',#1139,10.);
#369=VECTOR('',#1140,10.);
#370=VECTOR('',#1141,10.);
#371=VECTOR('',#1144,10.);
#372=VECTOR('',#1145,10.);
#373=VECTOR('',#1152,10.);
#374=VECTOR('',#1153,10.);
#375=VECTOR('',#1154,10.);
#376=VECTOR('',#1155,10.);
#377=VECTOR('',#1158,10.);
#378=VECTOR('',#1159,10.);
#379=VECTOR('',#1162,10.);
#380=VECTOR('',#1163,10.);
#381=VECTOR('',#1168,10.);
#382=VECTOR('',#1169,10.);
#383=VECTOR('',#1170,10.);
#384=VECTOR('',#1171,10.);
#385=VECTOR('',#1172,10.);
#386=VECTOR('',#1173,10.);
#387=VECTOR('',#1174,10.);
#388=VECTOR('',#1175,10.);
#389=VECTOR('',#1176,10.);
#390=VECTOR('',#1177,10.);
#391=VECTOR('',#1180,10.);
#392=VECTOR('',#1181,10.);
#393=VECTOR('',#1182,10.);
#394=VECTOR('',#1185,10.);
#395=VECTOR('',#1188,10.);
#396=VECTOR('',#1193,10.);
#397=VECTOR('',#1194,10.);
#398=VECTOR('',#1195,10.);
#399=VECTOR('',#1196,10.);
#400=VECTOR('',#1199,10.);
#401=VECTOR('',#1200,10.);
#402=VECTOR('',#1201,10.);
#403=VECTOR('',#1204,10.);
#404=VECTOR('',#1207,10.);
#405=VECTOR('',#1208,10.);
#406=VECTOR('',#1211,10.);
#407=VECTOR('',#1214,10.);
#408=VECTOR('',#1215,10.);
#409=VECTOR('',#1216,10.);
#410=VECTOR('',#1219,10.);
#411=VECTOR('',#1220,10.);
#412=VECTOR('',#1221,10.);
#413=VECTOR('',#1222,10.);
#414=VECTOR('',#1225,10.);
#415=VECTOR('',#1226,10.);
#416=VECTOR('',#1229,10.);
#417=VECTOR('',#1232,10.);
#418=CIRCLE('',#957,2.);
#419=CIRCLE('',#958,2.);
#420=VERTEX_POINT('',#1237);
#421=VERTEX_POINT('',#1239);
#422=VERTEX_POINT('',#1244);
#423=VERTEX_POINT('',#1245);
#424=VERTEX_POINT('',#1247);
#425=VERTEX_POINT('',#1249);
#426=VERTEX_POINT('',#1251);
#427=VERTEX_POINT('',#1253);
#428=VERTEX_POINT('',#1255);
#429=VERTEX_POINT('',#1257);
#430=VERTEX_POINT('',#1259);
#431=VERTEX_POINT('',#1261);
#432=VERTEX_POINT('',#1263);
#433=VERTEX_POINT('',#1265);
#434=VERTEX_POINT('',#1269);
#435=VERTEX_POINT('',#1270);
#436=VERTEX_POINT('',#1275);
#437=VERTEX_POINT('',#1277);
#438=VERTEX_POINT('',#1279);
#439=VERTEX_POINT('',#1281);
#440=VERTEX_POINT('',#1283);
#441=VERTEX_POINT('',#1285);
#442=VERTEX_POINT('',#1287);
#443=VERTEX_POINT('',#1289);
#444=VERTEX_POINT('',#1291);
#445=VERTEX_POINT('',#1293);
#446=VERTEX_POINT('',#1296);
#447=VERTEX_POINT('',#1298);
#448=VERTEX_POINT('',#1301);
#449=VERTEX_POINT('',#1303);
#450=VERTEX_POINT('',#1306);
#451=VERTEX_POINT('',#1307);
#452=VERTEX_POINT('',#1309);
#453=VERTEX_POINT('',#1311);
#454=VERTEX_POINT('',#1314);
#455=VERTEX_POINT('',#1315);
#456=VERTEX_POINT('',#1317);
#457=VERTEX_POINT('',#1319);
#458=VERTEX_POINT('',#1321);
#459=VERTEX_POINT('',#1323);
#460=VERTEX_POINT('',#1325);
#461=VERTEX_POINT('',#1327);
#462=VERTEX_POINT('',#1331);
#463=VERTEX_POINT('',#1335);
#464=VERTEX_POINT('',#1337);
#465=VERTEX_POINT('',#1346);
#466=VERTEX_POINT('',#1353);
#467=VERTEX_POINT('',#1355);
#468=VERTEX_POINT('',#1359);
#469=VERTEX_POINT('',#1361);
#470=VERTEX_POINT('',#1363);
#471=VERTEX_POINT('',#1365);
#472=VERTEX_POINT('',#1375);
#473=VERTEX_POINT('',#1377);
#474=VERTEX_POINT('',#1381);
#475=VERTEX_POINT('',#1382);
#476=VERTEX_POINT('',#1384);
#477=VERTEX_POINT('',#1386);
#478=VERTEX_POINT('',#1398);
#479=VERTEX_POINT('',#1400);
#480=VERTEX_POINT('',#1409);
#481=VERTEX_POINT('',#1410);
#482=VERTEX_POINT('',#1412);
#483=VERTEX_POINT('',#1414);
#484=VERTEX_POINT('',#1425);
#485=VERTEX_POINT('',#1427);
#486=VERTEX_POINT('',#1429);
#487=VERTEX_POINT('',#1431);
#488=VERTEX_POINT('',#1433);
#489=VERTEX_POINT('',#1435);
#490=VERTEX_POINT('',#1438);
#491=VERTEX_POINT('',#1440);
#492=VERTEX_POINT('',#1444);
#493=VERTEX_POINT('',#1445);
#494=VERTEX_POINT('',#1455);
#495=VERTEX_POINT('',#1456);
#496=VERTEX_POINT('',#1458);
#497=VERTEX_POINT('',#1460);
#498=VERTEX_POINT('',#1465);
#499=VERTEX_POINT('',#1471);
#500=VERTEX_POINT('',#1477);
#501=VERTEX_POINT('',#1479);
#502=VERTEX_POINT('',#1483);
#503=VERTEX_POINT('',#1484);
#504=VERTEX_POINT('',#1486);
#505=VERTEX_POINT('',#1488);
#506=EDGE_CURVE('',#420,#420,#418,.T.);
#507=EDGE_CURVE('',#420,#421,#164,.T.);
#508=EDGE_CURVE('',#421,#421,#419,.T.);
#509=EDGE_CURVE('',#422,#423,#165,.T.);
#510=EDGE_CURVE('',#424,#422,#166,.T.);
#511=EDGE_CURVE('',#425,#424,#167,.T.);
#512=EDGE_CURVE('',#426,#425,#168,.T.);
#513=EDGE_CURVE('',#427,#426,#169,.T.);
#514=EDGE_CURVE('',#428,#427,#170,.T.);
#515=EDGE_CURVE('',#429,#428,#171,.T.);
#516=EDGE_CURVE('',#430,#429,#172,.T.);
#517=EDGE_CURVE('',#431,#430,#173,.T.);
#518=EDGE_CURVE('',#432,#431,#174,.T.);
#519=EDGE_CURVE('',#432,#433,#175,.T.);
#520=EDGE_CURVE('',#423,#433,#176,.T.);
#521=EDGE_CURVE('',#434,#435,#177,.T.);
#522=EDGE_CURVE('',#435,#432,#178,.T.);
#523=EDGE_CURVE('',#431,#434,#179,.T.);
#524=EDGE_CURVE('',#433,#436,#180,.T.);
#525=EDGE_CURVE('',#436,#437,#181,.T.);
#526=EDGE_CURVE('',#437,#438,#182,.T.);
#527=EDGE_CURVE('',#438,#439,#183,.T.);
#528=EDGE_CURVE('',#439,#440,#184,.T.);
#529=EDGE_CURVE('',#440,#441,#185,.T.);
#530=EDGE_CURVE('',#441,#442,#186,.T.);
#531=EDGE_CURVE('',#442,#443,#187,.T.);
#532=EDGE_CURVE('',#443,#444,#188,.T.);
#533=EDGE_CURVE('',#444,#445,#189,.T.);
#534=EDGE_CURVE('',#445,#430,#190,.T.);
#535=EDGE_CURVE('',#429,#446,#191,.T.);
#536=EDGE_CURVE('',#446,#447,#192,.T.);
#537=EDGE_CURVE('',#447,#426,#193,.T.);
#538=EDGE_CURVE('',#425,#448,#194,.T.);
#539=EDGE_CURVE('',#448,#449,#195,.T.);
#540=EDGE_CURVE('',#449,#423,#196,.T.);
#541=EDGE_CURVE('',#450,#451,#197,.T.);
#542=EDGE_CURVE('',#451,#452,#198,.T.);
#543=EDGE_CURVE('',#452,#453,#199,.T.);
#544=EDGE_CURVE('',#453,#450,#200,.T.);
#545=EDGE_CURVE('',#454,#455,#201,.T.);
#546=EDGE_CURVE('',#455,#456,#202,.T.);
#547=EDGE_CURVE('',#456,#457,#203,.T.);
#548=EDGE_CURVE('',#457,#458,#204,.T.);
#549=EDGE_CURVE('',#458,#459,#205,.T.);
#550=EDGE_CURVE('',#459,#460,#206,.T.);
#551=EDGE_CURVE('',#460,#461,#207,.T.);
#552=EDGE_CURVE('',#461,#454,#208,.T.);
#553=EDGE_CURVE('',#462,#428,#209,.T.);
#554=EDGE_CURVE('',#462,#446,#210,.T.);
#555=EDGE_CURVE('',#422,#463,#211,.T.);
#556=EDGE_CURVE('',#463,#464,#212,.T.);
#557=EDGE_CURVE('',#464,#424,#213,.T.);
#558=EDGE_CURVE('',#464,#448,#214,.T.);
#559=EDGE_CURVE('',#463,#449,#215,.T.);
#560=EDGE_CURVE('',#427,#465,#216,.T.);
#561=EDGE_CURVE('',#465,#462,#217,.T.);
#562=EDGE_CURVE('',#465,#447,#218,.T.);
#563=EDGE_CURVE('',#455,#466,#219,.T.);
#564=EDGE_CURVE('',#467,#454,#220,.T.);
#565=EDGE_CURVE('',#466,#467,#221,.T.);
#566=EDGE_CURVE('',#466,#468,#222,.T.);
#567=EDGE_CURVE('',#467,#469,#223,.T.);
#568=EDGE_CURVE('',#469,#470,#224,.T.);
#569=EDGE_CURVE('',#470,#471,#225,.T.);
#570=EDGE_CURVE('',#468,#471,#226,.T.);
#571=EDGE_CURVE('',#471,#459,#227,.T.);
#572=EDGE_CURVE('',#470,#460,#228,.T.);
#573=EDGE_CURVE('',#469,#461,#229,.T.);
#574=EDGE_CURVE('',#472,#458,#230,.T.);
#575=EDGE_CURVE('',#473,#472,#231,.T.);
#576=EDGE_CURVE('',#473,#468,#232,.T.);
#577=EDGE_CURVE('',#474,#475,#233,.T.);
#578=EDGE_CURVE('',#475,#476,#234,.T.);
#579=EDGE_CURVE('',#476,#477,#235,.T.);
#580=EDGE_CURVE('',#477,#474,#236,.T.);
#581=EDGE_CURVE('',#477,#451,#237,.T.);
#582=EDGE_CURVE('',#474,#450,#238,.T.);
#583=EDGE_CURVE('',#476,#452,#239,.T.);
#584=EDGE_CURVE('',#475,#453,#240,.T.);
#585=EDGE_CURVE('',#478,#473,#241,.T.);
#586=EDGE_CURVE('',#472,#479,#242,.T.);
#587=EDGE_CURVE('',#479,#478,#243,.T.);
#588=EDGE_CURVE('',#479,#457,#244,.T.);
#589=EDGE_CURVE('',#478,#456,#245,.T.);
#590=EDGE_CURVE('',#480,#481,#246,.T.);
#591=EDGE_CURVE('',#481,#482,#247,.T.);
#592=EDGE_CURVE('',#483,#482,#248,.T.);
#593=EDGE_CURVE('',#483,#480,#249,.T.);
#594=EDGE_CURVE('',#440,#483,#250,.T.);
#595=EDGE_CURVE('',#480,#439,#251,.T.);
#596=EDGE_CURVE('',#481,#438,#252,.T.);
#597=EDGE_CURVE('',#482,#437,#253,.T.);
#598=EDGE_CURVE('',#484,#436,#254,.T.);
#599=EDGE_CURVE('',#485,#484,#255,.T.);
#600=EDGE_CURVE('',#485,#486,#256,.T.);
#601=EDGE_CURVE('',#486,#487,#257,.T.);
#602=EDGE_CURVE('',#487,#488,#258,.T.);
#603=EDGE_CURVE('',#489,#488,#259,.T.);
#604=EDGE_CURVE('',#489,#445,#260,.T.);
#605=EDGE_CURVE('',#444,#490,#261,.T.);
#606=EDGE_CURVE('',#490,#491,#262,.T.);
#607=EDGE_CURVE('',#491,#441,#263,.T.);
#608=EDGE_CURVE('',#492,#493,#264,.T.);
#609=EDGE_CURVE('',#493,#491,#265,.T.);
#610=EDGE_CURVE('',#490,#492,#266,.T.);
#611=EDGE_CURVE('',#492,#443,#267,.T.);
#612=EDGE_CURVE('',#493,#442,#268,.T.);
#613=EDGE_CURVE('',#494,#495,#269,.T.);
#614=EDGE_CURVE('',#495,#496,#270,.T.);
#615=EDGE_CURVE('',#496,#497,#271,.T.);
#616=EDGE_CURVE('',#497,#494,#272,.T.);
#617=EDGE_CURVE('',#486,#495,#273,.T.);
#618=EDGE_CURVE('',#498,#485,#274,.T.);
#619=EDGE_CURVE('',#498,#496,#275,.T.);
#620=EDGE_CURVE('',#494,#487,#276,.T.);
#621=EDGE_CURVE('',#499,#497,#277,.T.);
#622=EDGE_CURVE('',#488,#499,#278,.T.);
#623=EDGE_CURVE('',#499,#498,#279,.T.);
#624=EDGE_CURVE('',#484,#500,#280,.T.);
#625=EDGE_CURVE('',#500,#501,#281,.T.);
#626=EDGE_CURVE('',#501,#489,#282,.T.);
#627=EDGE_CURVE('',#502,#503,#283,.T.);
#628=EDGE_CURVE('',#503,#504,#284,.T.);
#629=EDGE_CURVE('',#504,#505,#285,.T.);
#630=EDGE_CURVE('',#505,#502,#286,.T.);
#631=EDGE_CURVE('',#501,#504,#287,.T.);
#632=EDGE_CURVE('',#434,#503,#288,.T.);
#633=EDGE_CURVE('',#500,#505,#289,.T.);
#634=EDGE_CURVE('',#435,#502,#290,.T.);
#635=ORIENTED_EDGE('',*,*,#506,.T.);
#636=ORIENTED_EDGE('',*,*,#507,.T.);
#637=ORIENTED_EDGE('',*,*,#508,.F.);
#638=ORIENTED_EDGE('',*,*,#507,.F.);
#639=ORIENTED_EDGE('',*,*,#506,.F.);
#640=ORIENTED_EDGE('',*,*,#509,.F.);
#641=ORIENTED_EDGE('',*,*,#510,.F.);
#642=ORIENTED_EDGE('',*,*,#511,.F.);
#643=ORIENTED_EDGE('',*,*,#512,.F.);
#644=ORIENTED_EDGE('',*,*,#513,.F.);
#645=ORIENTED_EDGE('',*,*,#514,.F.);
#646=ORIENTED_EDGE('',*,*,#515,.F.);
#647=ORIENTED_EDGE('',*,*,#516,.F.);
#648=ORIENTED_EDGE('',*,*,#517,.F.);
#649=ORIENTED_EDGE('',*,*,#518,.F.);
#650=ORIENTED_EDGE('',*,*,#519,.T.);
#651=ORIENTED_EDGE('',*,*,#520,.F.);
#652=ORIENTED_EDGE('',*,*,#521,.T.);
#653=ORIENTED_EDGE('',*,*,#522,.T.);
#654=ORIENTED_EDGE('',*,*,#518,.T.);
#655=ORIENTED_EDGE('',*,*,#523,.T.);
#656=ORIENTED_EDGE('',*,*,#508,.T.);
#657=ORIENTED_EDGE('',*,*,#520,.T.);
#658=ORIENTED_EDGE('',*,*,#524,.T.);
#659=ORIENTED_EDGE('',*,*,#525,.T.);
#660=ORIENTED_EDGE('',*,*,#526,.T.);
#661=ORIENTED_EDGE('',*,*,#527,.T.);
#662=ORIENTED_EDGE('',*,*,#528,.T.);
#663=ORIENTED_EDGE('',*,*,#529,.T.);
#664=ORIENTED_EDGE('',*,*,#530,.T.);
#665=ORIENTED_EDGE('',*,*,#531,.T.);
#666=ORIENTED_EDGE('',*,*,#532,.T.);
#667=ORIENTED_EDGE('',*,*,#533,.T.);
#668=ORIENTED_EDGE('',*,*,#534,.T.);
#669=ORIENTED_EDGE('',*,*,#516,.T.);
#670=ORIENTED_EDGE('',*,*,#535,.T.);
#671=ORIENTED_EDGE('',*,*,#536,.T.);
#672=ORIENTED_EDGE('',*,*,#537,.T.);
#673=ORIENTED_EDGE('',*,*,#512,.T.);
#674=ORIENTED_EDGE('',*,*,#538,.T.);
#675=ORIENTED_EDGE('',*,*,#539,.T.);
#676=ORIENTED_EDGE('',*,*,#540,.T.);
#677=ORIENTED_EDGE('',*,*,#541,.T.);
#678=ORIENTED_EDGE('',*,*,#542,.T.);
#679=ORIENTED_EDGE('',*,*,#543,.T.);
#680=ORIENTED_EDGE('',*,*,#544,.T.);
#681=ORIENTED_EDGE('',*,*,#545,.T.);
#682=ORIENTED_EDGE('',*,*,#546,.T.);
#683=ORIENTED_EDGE('',*,*,#547,.T.);
#684=ORIENTED_EDGE('',*,*,#548,.T.);
#685=ORIENTED_EDGE('',*,*,#549,.T.);
#686=ORIENTED_EDGE('',*,*,#550,.T.);
#687=ORIENTED_EDGE('',*,*,#551,.T.);
#688=ORIENTED_EDGE('',*,*,#552,.T.);
#689=ORIENTED_EDGE('',*,*,#515,.T.);
#690=ORIENTED_EDGE('',*,*,#553,.F.);
#691=ORIENTED_EDGE('',*,*,#554,.T.);
#692=ORIENTED_EDGE('',*,*,#535,.F.);
#693=ORIENTED_EDGE('',*,*,#510,.T.);
#694=ORIENTED_EDGE('',*,*,#555,.T.);
#695=ORIENTED_EDGE('',*,*,#556,.T.);
#696=ORIENTED_EDGE('',*,*,#557,.T.);
#697=ORIENTED_EDGE('',*,*,#511,.T.);
#698=ORIENTED_EDGE('',*,*,#557,.F.);
#699=ORIENTED_EDGE('',*,*,#558,.T.);
#700=ORIENTED_EDGE('',*,*,#538,.F.);
#701=ORIENTED_EDGE('',*,*,#559,.T.);
#702=ORIENTED_EDGE('',*,*,#539,.F.);
#703=ORIENTED_EDGE('',*,*,#558,.F.);
#704=ORIENTED_EDGE('',*,*,#556,.F.);
#705=ORIENTED_EDGE('',*,*,#509,.T.);
#706=ORIENTED_EDGE('',*,*,#540,.F.);
#707=ORIENTED_EDGE('',*,*,#559,.F.);
#708=ORIENTED_EDGE('',*,*,#555,.F.);
#709=ORIENTED_EDGE('',*,*,#514,.T.);
#710=ORIENTED_EDGE('',*,*,#560,.T.);
#711=ORIENTED_EDGE('',*,*,#561,.T.);
#712=ORIENTED_EDGE('',*,*,#553,.T.);
#713=ORIENTED_EDGE('',*,*,#562,.T.);
#714=ORIENTED_EDGE('',*,*,#536,.F.);
#715=ORIENTED_EDGE('',*,*,#554,.F.);
#716=ORIENTED_EDGE('',*,*,#561,.F.);
#717=ORIENTED_EDGE('',*,*,#513,.T.);
#718=ORIENTED_EDGE('',*,*,#537,.F.);
#719=ORIENTED_EDGE('',*,*,#562,.F.);
#720=ORIENTED_EDGE('',*,*,#560,.F.);
#721=ORIENTED_EDGE('',*,*,#563,.F.);
#722=ORIENTED_EDGE('',*,*,#545,.F.);
#723=ORIENTED_EDGE('',*,*,#564,.F.);
#724=ORIENTED_EDGE('',*,*,#565,.F.);
#725=ORIENTED_EDGE('',*,*,#566,.F.);
#726=ORIENTED_EDGE('',*,*,#565,.T.);
#727=ORIENTED_EDGE('',*,*,#567,.T.);
#728=ORIENTED_EDGE('',*,*,#568,.T.);
#729=ORIENTED_EDGE('',*,*,#569,.T.);
#730=ORIENTED_EDGE('',*,*,#570,.F.);
#731=ORIENTED_EDGE('',*,*,#571,.F.);
#732=ORIENTED_EDGE('',*,*,#569,.F.);
#733=ORIENTED_EDGE('',*,*,#572,.T.);
#734=ORIENTED_EDGE('',*,*,#550,.F.);
#735=ORIENTED_EDGE('',*,*,#573,.T.);
#736=ORIENTED_EDGE('',*,*,#551,.F.);
#737=ORIENTED_EDGE('',*,*,#572,.F.);
#738=ORIENTED_EDGE('',*,*,#568,.F.);
#739=ORIENTED_EDGE('',*,*,#564,.T.);
#740=ORIENTED_EDGE('',*,*,#552,.F.);
#741=ORIENTED_EDGE('',*,*,#573,.F.);
#742=ORIENTED_EDGE('',*,*,#567,.F.);
#743=ORIENTED_EDGE('',*,*,#570,.T.);
#744=ORIENTED_EDGE('',*,*,#571,.T.);
#745=ORIENTED_EDGE('',*,*,#549,.F.);
#746=ORIENTED_EDGE('',*,*,#574,.F.);
#747=ORIENTED_EDGE('',*,*,#575,.F.);
#748=ORIENTED_EDGE('',*,*,#576,.T.);
#749=ORIENTED_EDGE('',*,*,#577,.T.);
#750=ORIENTED_EDGE('',*,*,#578,.T.);
#751=ORIENTED_EDGE('',*,*,#579,.T.);
#752=ORIENTED_EDGE('',*,*,#580,.T.);
#753=ORIENTED_EDGE('',*,*,#581,.T.);
#754=ORIENTED_EDGE('',*,*,#541,.F.);
#755=ORIENTED_EDGE('',*,*,#582,.F.);
#756=ORIENTED_EDGE('',*,*,#580,.F.);
#757=ORIENTED_EDGE('',*,*,#583,.T.);
#758=ORIENTED_EDGE('',*,*,#542,.F.);
#759=ORIENTED_EDGE('',*,*,#581,.F.);
#760=ORIENTED_EDGE('',*,*,#579,.F.);
#761=ORIENTED_EDGE('',*,*,#584,.T.);
#762=ORIENTED_EDGE('',*,*,#543,.F.);
#763=ORIENTED_EDGE('',*,*,#583,.F.);
#764=ORIENTED_EDGE('',*,*,#578,.F.);
#765=ORIENTED_EDGE('',*,*,#582,.T.);
#766=ORIENTED_EDGE('',*,*,#544,.F.);
#767=ORIENTED_EDGE('',*,*,#584,.F.);
#768=ORIENTED_EDGE('',*,*,#577,.F.);
#769=ORIENTED_EDGE('',*,*,#585,.T.);
#770=ORIENTED_EDGE('',*,*,#575,.T.);
#771=ORIENTED_EDGE('',*,*,#586,.T.);
#772=ORIENTED_EDGE('',*,*,#587,.T.);
#773=ORIENTED_EDGE('',*,*,#588,.T.);
#774=ORIENTED_EDGE('',*,*,#547,.F.);
#775=ORIENTED_EDGE('',*,*,#589,.F.);
#776=ORIENTED_EDGE('',*,*,#587,.F.);
#777=ORIENTED_EDGE('',*,*,#574,.T.);
#778=ORIENTED_EDGE('',*,*,#548,.F.);
#779=ORIENTED_EDGE('',*,*,#588,.F.);
#780=ORIENTED_EDGE('',*,*,#586,.F.);
#781=ORIENTED_EDGE('',*,*,#566,.T.);
#782=ORIENTED_EDGE('',*,*,#576,.F.);
#783=ORIENTED_EDGE('',*,*,#585,.F.);
#784=ORIENTED_EDGE('',*,*,#589,.T.);
#785=ORIENTED_EDGE('',*,*,#546,.F.);
#786=ORIENTED_EDGE('',*,*,#563,.T.);
#787=ORIENTED_EDGE('',*,*,#590,.T.);
#788=ORIENTED_EDGE('',*,*,#591,.T.);
#789=ORIENTED_EDGE('',*,*,#592,.F.);
#790=ORIENTED_EDGE('',*,*,#593,.T.);
#791=ORIENTED_EDGE('',*,*,#594,.F.);
#792=ORIENTED_EDGE('',*,*,#528,.F.);
#793=ORIENTED_EDGE('',*,*,#595,.F.);
#794=ORIENTED_EDGE('',*,*,#593,.F.);
#795=ORIENTED_EDGE('',*,*,#596,.T.);
#796=ORIENTED_EDGE('',*,*,#526,.F.);
#797=ORIENTED_EDGE('',*,*,#597,.F.);
#798=ORIENTED_EDGE('',*,*,#591,.F.);
#799=ORIENTED_EDGE('',*,*,#595,.T.);
#800=ORIENTED_EDGE('',*,*,#527,.F.);
#801=ORIENTED_EDGE('',*,*,#596,.F.);
#802=ORIENTED_EDGE('',*,*,#590,.F.);
#803=ORIENTED_EDGE('',*,*,#594,.T.);
#804=ORIENTED_EDGE('',*,*,#592,.T.);
#805=ORIENTED_EDGE('',*,*,#597,.T.);
#806=ORIENTED_EDGE('',*,*,#525,.F.);
#807=ORIENTED_EDGE('',*,*,#598,.F.);
#808=ORIENTED_EDGE('',*,*,#599,.F.);
#809=ORIENTED_EDGE('',*,*,#600,.T.);
#810=ORIENTED_EDGE('',*,*,#601,.T.);
#811=ORIENTED_EDGE('',*,*,#602,.T.);
#812=ORIENTED_EDGE('',*,*,#603,.F.);
#813=ORIENTED_EDGE('',*,*,#604,.T.);
#814=ORIENTED_EDGE('',*,*,#533,.F.);
#815=ORIENTED_EDGE('',*,*,#605,.T.);
#816=ORIENTED_EDGE('',*,*,#606,.T.);
#817=ORIENTED_EDGE('',*,*,#607,.T.);
#818=ORIENTED_EDGE('',*,*,#529,.F.);
#819=ORIENTED_EDGE('',*,*,#608,.T.);
#820=ORIENTED_EDGE('',*,*,#609,.T.);
#821=ORIENTED_EDGE('',*,*,#606,.F.);
#822=ORIENTED_EDGE('',*,*,#610,.T.);
#823=ORIENTED_EDGE('',*,*,#605,.F.);
#824=ORIENTED_EDGE('',*,*,#532,.F.);
#825=ORIENTED_EDGE('',*,*,#611,.F.);
#826=ORIENTED_EDGE('',*,*,#610,.F.);
#827=ORIENTED_EDGE('',*,*,#612,.T.);
#828=ORIENTED_EDGE('',*,*,#530,.F.);
#829=ORIENTED_EDGE('',*,*,#607,.F.);
#830=ORIENTED_EDGE('',*,*,#609,.F.);
#831=ORIENTED_EDGE('',*,*,#611,.T.);
#832=ORIENTED_EDGE('',*,*,#531,.F.);
#833=ORIENTED_EDGE('',*,*,#612,.F.);
#834=ORIENTED_EDGE('',*,*,#608,.F.);
#835=ORIENTED_EDGE('',*,*,#613,.T.);
#836=ORIENTED_EDGE('',*,*,#614,.T.);
#837=ORIENTED_EDGE('',*,*,#615,.T.);
#838=ORIENTED_EDGE('',*,*,#616,.T.);
#839=ORIENTED_EDGE('',*,*,#614,.F.);
#840=ORIENTED_EDGE('',*,*,#617,.F.);
#841=ORIENTED_EDGE('',*,*,#600,.F.);
#842=ORIENTED_EDGE('',*,*,#618,.F.);
#843=ORIENTED_EDGE('',*,*,#619,.T.);
#844=ORIENTED_EDGE('',*,*,#613,.F.);
#845=ORIENTED_EDGE('',*,*,#620,.T.);
#846=ORIENTED_EDGE('',*,*,#601,.F.);
#847=ORIENTED_EDGE('',*,*,#617,.T.);
#848=ORIENTED_EDGE('',*,*,#616,.F.);
#849=ORIENTED_EDGE('',*,*,#621,.F.);
#850=ORIENTED_EDGE('',*,*,#622,.F.);
#851=ORIENTED_EDGE('',*,*,#602,.F.);
#852=ORIENTED_EDGE('',*,*,#620,.F.);
#853=ORIENTED_EDGE('',*,*,#615,.F.);
#854=ORIENTED_EDGE('',*,*,#619,.F.);
#855=ORIENTED_EDGE('',*,*,#623,.F.);
#856=ORIENTED_EDGE('',*,*,#621,.T.);
#857=ORIENTED_EDGE('',*,*,#603,.T.);
#858=ORIENTED_EDGE('',*,*,#622,.T.);
#859=ORIENTED_EDGE('',*,*,#623,.T.);
#860=ORIENTED_EDGE('',*,*,#618,.T.);
#861=ORIENTED_EDGE('',*,*,#599,.T.);
#862=ORIENTED_EDGE('',*,*,#624,.T.);
#863=ORIENTED_EDGE('',*,*,#625,.T.);
#864=ORIENTED_EDGE('',*,*,#626,.T.);
#865=ORIENTED_EDGE('',*,*,#627,.T.);
#866=ORIENTED_EDGE('',*,*,#628,.T.);
#867=ORIENTED_EDGE('',*,*,#629,.T.);
#868=ORIENTED_EDGE('',*,*,#630,.T.);
#869=ORIENTED_EDGE('',*,*,#631,.T.);
#870=ORIENTED_EDGE('',*,*,#628,.F.);
#871=ORIENTED_EDGE('',*,*,#632,.F.);
#872=ORIENTED_EDGE('',*,*,#523,.F.);
#873=ORIENTED_EDGE('',*,*,#517,.T.);
#874=ORIENTED_EDGE('',*,*,#534,.F.);
#875=ORIENTED_EDGE('',*,*,#604,.F.);
#876=ORIENTED_EDGE('',*,*,#626,.F.);
#877=ORIENTED_EDGE('',*,*,#633,.T.);
#878=ORIENTED_EDGE('',*,*,#629,.F.);
#879=ORIENTED_EDGE('',*,*,#631,.F.);
#880=ORIENTED_EDGE('',*,*,#625,.F.);
#881=ORIENTED_EDGE('',*,*,#634,.T.);
#882=ORIENTED_EDGE('',*,*,#630,.F.);
#883=ORIENTED_EDGE('',*,*,#633,.F.);
#884=ORIENTED_EDGE('',*,*,#624,.F.);
#885=ORIENTED_EDGE('',*,*,#598,.T.);
#886=ORIENTED_EDGE('',*,*,#524,.F.);
#887=ORIENTED_EDGE('',*,*,#519,.F.);
#888=ORIENTED_EDGE('',*,*,#522,.F.);
#889=ORIENTED_EDGE('',*,*,#632,.T.);
#890=ORIENTED_EDGE('',*,*,#627,.F.);
#891=ORIENTED_EDGE('',*,*,#634,.F.);
#892=ORIENTED_EDGE('',*,*,#521,.F.);
#893=CYLINDRICAL_SURFACE('',#956,2.);
#894=ADVANCED_FACE('',(#65),#893,.F.);
#895=ADVANCED_FACE('',(#66),#18,.F.);
#896=ADVANCED_FACE('',(#67),#19,.F.);
#897=ADVANCED_FACE('',(#68,#15),#20,.T.);
#898=ADVANCED_FACE('',(#69,#16,#17),#21,.T.);
#899=ADVANCED_FACE('',(#70),#22,.F.);
#900=ADVANCED_FACE('',(#71),#23,.T.);
#901=ADVANCED_FACE('',(#72),#24,.F.);
#902=ADVANCED_FACE('',(#73),#25,.F.);
#903=ADVANCED_FACE('',(#74),#26,.F.);
#904=ADVANCED_FACE('',(#75),#27,.T.);
#905=ADVANCED_FACE('',(#76),#28,.F.);
#906=ADVANCED_FACE('',(#77),#29,.F.);
#907=ADVANCED_FACE('',(#78),#30,.F.);
#908=ADVANCED_FACE('',(#79),#31,.T.);
#909=ADVANCED_FACE('',(#80),#32,.F.);
#910=ADVANCED_FACE('',(#81),#33,.F.);
#911=ADVANCED_FACE('',(#82),#34,.F.);
#912=ADVANCED_FACE('',(#83),#35,.F.);
#913=ADVANCED_FACE('',(#84),#36,.T.);
#914=ADVANCED_FACE('',(#85),#37,.F.);
#915=ADVANCED_FACE('',(#86),#38,.F.);
#916=ADVANCED_FACE('',(#87),#39,.F.);
#917=ADVANCED_FACE('',(#88),#40,.F.);
#918=ADVANCED_FACE('',(#89),#41,.T.);
#919=ADVANCED_FACE('',(#90),#42,.F.);
#920=ADVANCED_FACE('',(#91),#43,.F.);
#921=ADVANCED_FACE('',(#92),#44,.F.);
#922=ADVANCED_FACE('',(#93),#45,.T.);
#923=ADVANCED_FACE('',(#94),#46,.F.);
#924=ADVANCED_FACE('',(#95),#47,.F.);
#925=ADVANCED_FACE('',(#96),#48,.F.);
#926=ADVANCED_FACE('',(#97),#49,.F.);
#927=ADVANCED_FACE('',(#98),#50,.T.);
#928=ADVANCED_FACE('',(#99),#51,.F.);
#929=ADVANCED_FACE('',(#100),#52,.F.);
#930=ADVANCED_FACE('',(#101),#53,.F.);
#931=ADVANCED_FACE('',(#102),#54,.F.);
#932=ADVANCED_FACE('',(#103),#55,.F.);
#933=ADVANCED_FACE('',(#104),#56,.F.);
#934=ADVANCED_FACE('',(#105),#57,.F.);
#935=ADVANCED_FACE('',(#106),#58,.F.);
#936=ADVANCED_FACE('',(#107),#59,.T.);
#937=ADVANCED_FACE('',(#108),#60,.F.);
#938=ADVANCED_FACE('',(#109),#61,.F.);
#939=ADVANCED_FACE('',(#110),#62,.F.);
#940=ADVANCED_FACE('',(#111),#63,.F.);
#941=ADVANCED_FACE('',(#112),#64,.F.);
#942=CLOSED_SHELL('',(#894,#895,#896,#897,#898,#899,#900,#901,#902,#903,
#904,#905,#906,#907,#908,#909,#910,#911,#912,#913,#914,#915,#916,#917,#918,
#919,#920,#921,#922,#923,#924,#925,#926,#927,#928,#929,#930,#931,#932,#933,
#934,#935,#936,#937,#938,#939,#940,#941));
#943=DERIVED_UNIT_ELEMENT(#945,1.);
#944=DERIVED_UNIT_ELEMENT(#1504,-3.);
#945=(
MASS_UNIT()
NAMED_UNIT(*)
SI_UNIT(.KILO.,.GRAM.)
);
#946=DERIVED_UNIT((#943,#944));
#947=MEASURE_REPRESENTATION_ITEM('density measure',
POSITIVE_RATIO_MEASURE(7850.),#946);
#948=PROPERTY_DEFINITION_REPRESENTATION(#953,#950);
#949=PROPERTY_DEFINITION_REPRESENTATION(#954,#951);
#950=REPRESENTATION('material name',(#952),#1501);
#951=REPRESENTATION('density',(#947),#1501);
#952=DESCRIPTIVE_REPRESENTATION_ITEM('Steel','Steel');
#953=PROPERTY_DEFINITION('material property','material name',#1511);
#954=PROPERTY_DEFINITION('material property','density of part',#1511);
#955=AXIS2_PLACEMENT_3D('',#1235,#1006,#1007);
#956=AXIS2_PLACEMENT_3D('',#1236,#1008,#1009);
#957=AXIS2_PLACEMENT_3D('',#1238,#1010,#1011);
#958=AXIS2_PLACEMENT_3D('',#1241,#1013,#1014);
#959=AXIS2_PLACEMENT_3D('',#1242,#1015,#1016);
#960=AXIS2_PLACEMENT_3D('',#1243,#1017,#1018);
#961=AXIS2_PLACEMENT_3D('',#1268,#1031,#1032);
#962=AXIS2_PLACEMENT_3D('',#1274,#1036,#1037);
#963=AXIS2_PLACEMENT_3D('',#1330,#1067,#1068);
#964=AXIS2_PLACEMENT_3D('',#1334,#1071,#1072);
#965=AXIS2_PLACEMENT_3D('',#1340,#1076,#1077);
#966=AXIS2_PLACEMENT_3D('',#1342,#1079,#1080);
#967=AXIS2_PLACEMENT_3D('',#1344,#1082,#1083);
#968=AXIS2_PLACEMENT_3D('',#1345,#1084,#1085);
#969=AXIS2_PLACEMENT_3D('',#1349,#1088,#1089);
#970=AXIS2_PLACEMENT_3D('',#1351,#1091,#1092);
#971=AXIS2_PLACEMENT_3D('',#1352,#1093,#1094);
#972=AXIS2_PLACEMENT_3D('',#1358,#1098,#1099);
#973=AXIS2_PLACEMENT_3D('',#1368,#1105,#1106);
#974=AXIS2_PLACEMENT_3D('',#1371,#1109,#1110);
#975=AXIS2_PLACEMENT_3D('',#1373,#1112,#1113);
#976=AXIS2_PLACEMENT_3D('',#1374,#1114,#1115);
#977=AXIS2_PLACEMENT_3D('',#1380,#1119,#1120);
#978=AXIS2_PLACEMENT_3D('',#1389,#1125,#1126);
#979=AXIS2_PLACEMENT_3D('',#1392,#1129,#1130);
#980=AXIS2_PLACEMENT_3D('',#1394,#1132,#1133);
#981=AXIS2_PLACEMENT_3D('',#1396,#1135,#1136);
#982=AXIS2_PLACEMENT_3D('',#1397,#1137,#1138);
#983=AXIS2_PLACEMENT_3D('',#1403,#1142,#1143);
#984=AXIS2_PLACEMENT_3D('',#1406,#1146,#1147);
#985=AXIS2_PLACEMENT_3D('',#1407,#1148,#1149);
#986=AXIS2_PLACEMENT_3D('',#1408,#1150,#1151);
#987=AXIS2_PLACEMENT_3D('',#1417,#1156,#1157);
#988=AXIS2_PLACEMENT_3D('',#1420,#1160,#1161);
#989=AXIS2_PLACEMENT_3D('',#1423,#1164,#1165);
#990=AXIS2_PLACEMENT_3D('',#1424,#1166,#1167);
#991=AXIS2_PLACEMENT_3D('',#1443,#1178,#1179);
#992=AXIS2_PLACEMENT_3D('',#1449,#1183,#1184);
#993=AXIS2_PLACEMENT_3D('',#1451,#1186,#1187);
#994=AXIS2_PLACEMENT_3D('',#1453,#1189,#1190);
#995=AXIS2_PLACEMENT_3D('',#1454,#1191,#1192);
#996=AXIS2_PLACEMENT_3D('',#1463,#1197,#1198);
#997=AXIS2_PLACEMENT_3D('',#1468,#1202,#1203);
#998=AXIS2_PLACEMENT_3D('',#1470,#1205,#1206);
#999=AXIS2_PLACEMENT_3D('',#1474,#1209,#1210);
#1000=AXIS2_PLACEMENT_3D('',#1476,#1212,#1213);
#1001=AXIS2_PLACEMENT_3D('',#1482,#1217,#1218);
#1002=AXIS2_PLACEMENT_3D('',#1491,#1223,#1224);
#1003=AXIS2_PLACEMENT_3D('',#1494,#1227,#1228);
#1004=AXIS2_PLACEMENT_3D('',#1496,#1230,#1231);
#1005=AXIS2_PLACEMENT_3D('',#1498,#1233,#1234);
#1006=DIRECTION('axis',(0.,0.,1.));
#1007=DIRECTION('refdir',(1.,0.,0.));
#1008=DIRECTION('center_axis',(0.,0.,1.));
#1009=DIRECTION('ref_axis',(1.,0.,0.));
#1010=DIRECTION('center_axis',(0.,0.,-1.));
#1011=DIRECTION('ref_axis',(1.,0.,0.));
#1012=DIRECTION('',(0.,0.,1.));
#1013=DIRECTION('center_axis',(0.,0.,-1.));
#1014=DIRECTION('ref_axis',(1.,0.,0.));
#1015=DIRECTION('center_axis',(0.,0.,-1.));
#1016=DIRECTION('ref_axis',(-1.,0.,0.));
#1017=DIRECTION('center_axis',(1.,0.,0.));
#1018=DIRECTION('ref_axis',(0.,0.,-1.));
#1019=DIRECTION('',(0.,0.,-1.));
#1020=DIRECTION('',(0.,1.,0.));
#1021=DIRECTION('',(0.,0.,1.));
#1022=DIRECTION('',(0.,1.,0.));
#1023=DIRECTION('',(0.,0.,-1.));
#1024=DIRECTION('',(0.,1.,0.));
#1025=DIRECTION('',(0.,0.,1.));
#1026=DIRECTION('',(0.,1.,0.));
#1027=DIRECTION('',(0.,0.,-1.));
#1028=DIRECTION('',(0.,-1.,0.));
#1029=DIRECTION('',(0.,0.,-1.));
#1030=DIRECTION('',(0.,1.,0.));
#1031=DIRECTION('center_axis',(0.,0.,1.));
#1032=DIRECTION('ref_axis',(1.,0.,0.));
#1033=DIRECTION('',(0.,1.,0.));
#1034=DIRECTION('',(-1.,0.,0.));
#1035=DIRECTION('',(1.,0.,0.));
#1036=DIRECTION('center_axis',(0.,0.,1.));
#1037=DIRECTION('ref_axis',(1.,0.,0.));
#1038=DIRECTION('',(-1.,0.,0.));
#1039=DIRECTION('',(0.,-1.,0.));
#1040=DIRECTION('',(1.,0.,0.));
#1041=DIRECTION('',(0.,-1.,0.));
#1042=DIRECTION('',(-1.,0.,0.));
#1043=DIRECTION('',(0.,-1.,0.));
#1044=DIRECTION('',(1.,0.,0.));
#1045=DIRECTION('',(0.,-1.,0.));
#1046=DIRECTION('',(-1.,0.,0.));
#1047=DIRECTION('',(0.,-1.,0.));
#1048=DIRECTION('',(1.,0.,0.));
#1049=DIRECTION('',(-1.,0.,0.));
#1050=DIRECTION('',(0.,1.,0.));
#1051=DIRECTION('',(1.,0.,0.));
#1052=DIRECTION('',(-1.,0.,0.));
#1053=DIRECTION('',(0.,1.,0.));
#1054=DIRECTION('',(1.,0.,0.));
#1055=DIRECTION('',(-1.,0.,0.));
#1056=DIRECTION('',(0.,1.,0.));
#1057=DIRECTION('',(1.,0.,0.));
#1058=DIRECTION('',(0.,-1.,0.));
#1059=DIRECTION('',(-1.,0.,0.));
#1060=DIRECTION('',(0.,-1.,0.));
#1061=DIRECTION('',(-1.,0.,0.));
#1062=DIRECTION('',(0.,1.,0.));
#1063=DIRECTION('',(1.,0.,0.));
#1064=DIRECTION('',(0.,1.,0.));
#1065=DIRECTION('',(1.,0.,0.));
#1066=DIRECTION('',(0.,-1.,0.));
#1067=DIRECTION('center_axis',(0.,1.,0.));
#1068=DIRECTION('ref_axis',(0.,0.,1.));
#1069=DIRECTION('',(1.,0.,0.));
#1070=DIRECTION('',(0.,0.,-1.));
#1071=DIRECTION('center_axis',(0.,0.,1.));
#1072=DIRECTION('ref_axis',(1.,0.,0.));
#1073=DIRECTION('',(-1.,0.,0.));
#1074=DIRECTION('',(0.,-1.,0.));
#1075=DIRECTION('',(1.,0.,0.));
#1076=DIRECTION('center_axis',(0.,1.,0.));
#1077=DIRECTION('ref_axis',(0.,0.,1.));
#1078=DIRECTION('',(0.,0.,-1.));
#1079=DIRECTION('center_axis',(1.,0.,0.));
#1080=DIRECTION('ref_axis',(0.,0.,-1.));
#1081=DIRECTION('',(0.,0.,-1.));
#1082=DIRECTION('center_axis',(0.,-1.,0.));
#1083=DIRECTION('ref_axis',(0.,0.,-1.));
#1084=DIRECTION('center_axis',(0.,0.,1.));
#1085=DIRECTION('ref_axis',(1.,0.,0.));
#1086=DIRECTION('',(-1.,0.,0.));
#1087=DIRECTION('',(0.,-1.,0.));
#1088=DIRECTION('center_axis',(1.,0.,0.));
#1089=DIRECTION('ref_axis',(0.,0.,-1.));
#1090=DIRECTION('',(0.,0.,-1.));
#1091=DIRECTION('center_axis',(0.,-1.,0.));
#1092=DIRECTION('ref_axis',(0.,0.,-1.));
#1093=DIRECTION('center_axis',(0.,1.,0.));
#1094=DIRECTION('ref_axis',(0.,0.,1.));
#1095=DIRECTION('',(0.,0.,1.));
#1096=DIRECTION('',(0.,0.,-1.));
#1097=DIRECTION('',(1.,0.,0.));
#1098=DIRECTION('center_axis',(0.,0.,1.));
#1099=DIRECTION('ref_axis',(1.,0.,0.));
#1100=DIRECTION('',(0.,1.,0.));
#1101=DIRECTION('',(0.,1.,0.));
#1102=DIRECTION('',(-1.,0.,0.));
#1103=DIRECTION('',(0.,-1.,0.));
#1104=DIRECTION('',(-1.,0.,0.));
#1105=DIRECTION('center_axis',(1.,0.,0.));
#1106=DIRECTION('ref_axis',(0.,0.,-1.));
#1107=DIRECTION('',(0.,0.,-1.));
#1108=DIRECTION('',(0.,0.,-1.));
#1109=DIRECTION('center_axis',(0.,-1.,0.));
#1110=DIRECTION('ref_axis',(0.,0.,-1.));
#1111=DIRECTION('',(0.,0.,-1.));
#1112=DIRECTION('center_axis',(-1.,0.,0.));
#1113=DIRECTION('ref_axis',(0.,0.,1.));
#1114=DIRECTION('center_axis',(0.,-1.,0.));
#1115=DIRECTION('ref_axis',(0.,0.,-1.));
#1116=DIRECTION('',(0.,0.,-1.));
#1117=DIRECTION('',(-1.,0.,0.));
#1118=DIRECTION('',(0.,0.,-1.));
#1119=DIRECTION('center_axis',(0.,0.,1.));
#1120=DIRECTION('ref_axis',(1.,0.,0.));
#1121=DIRECTION('',(0.,1.,0.));
#1122=DIRECTION('',(-1.,0.,0.));
#1123=DIRECTION('',(0.,-1.,0.));
#1124=DIRECTION('',(1.,0.,0.));
#1125=DIRECTION('center_axis',(0.,1.,0.));
#1126=DIRECTION('ref_axis',(0.,0.,1.));
#1127=DIRECTION('',(0.,0.,-1.));
#1128=DIRECTION('',(0.,0.,-1.));
#1129=DIRECTION('center_axis',(1.,0.,0.));
#1130=DIRECTION('ref_axis',(0.,0.,-1.));
#1131=DIRECTION('',(0.,0.,-1.));
#1132=DIRECTION('center_axis',(0.,-1.,0.));
#1133=DIRECTION('ref_axis',(0.,0.,-1.));
#1134=DIRECTION('',(0.,0.,-1.));
#1135=DIRECTION('center_axis',(-1.,0.,0.));
#1136=DIRECTION('ref_axis',(0.,0.,1.));
#1137=DIRECTION('center_axis',(0.,0.,1.));
#1138=DIRECTION('ref_axis',(1.,0.,0.));
#1139=DIRECTION('',(0.,1.,0.));
#1140=DIRECTION('',(0.,-1.,0.));
#1141=DIRECTION('',(1.,0.,0.));
#1142=DIRECTION('center_axis',(0.,1.,0.));
#1143=DIRECTION('ref_axis',(0.,0.,1.));
#1144=DIRECTION('',(0.,0.,-1.));
#1145=DIRECTION('',(0.,0.,-1.));
#1146=DIRECTION('center_axis',(1.,0.,0.));
#1147=DIRECTION('ref_axis',(0.,0.,-1.));
#1148=DIRECTION('center_axis',(-1.,0.,0.));
#1149=DIRECTION('ref_axis',(0.,0.,1.));
#1150=DIRECTION('center_axis',(0.,0.,1.));
#1151=DIRECTION('ref_axis',(1.,0.,0.));
#1152=DIRECTION('',(0.,1.,0.));
#1153=DIRECTION('',(-1.,0.,0.));
#1154=DIRECTION('',(0.,1.,0.));
#1155=DIRECTION('',(1.,0.,0.));
#1156=DIRECTION('center_axis',(0.,1.,0.));
#1157=DIRECTION('ref_axis',(0.,0.,1.));
#1158=DIRECTION('',(0.,0.,1.));
#1159=DIRECTION('',(0.,0.,-1.));
#1160=DIRECTION('center_axis',(0.,-1.,0.));
#1161=DIRECTION('ref_axis',(0.,0.,-1.));
#1162=DIRECTION('',(0.,0.,-1.));
#1163=DIRECTION('',(0.,0.,-1.));
#1164=DIRECTION('center_axis',(-1.,0.,0.));
#1165=DIRECTION('ref_axis',(0.,0.,1.));
#1166=DIRECTION('center_axis',(-1.,0.,0.));
#1167=DIRECTION('ref_axis',(0.,0.,1.));
#1168=DIRECTION('',(0.,0.,-1.));
#1169=DIRECTION('',(0.,1.,0.));
#1170=DIRECTION('',(0.,0.,-1.));
#1171=DIRECTION('',(0.,-1.,0.));
#1172=DIRECTION('',(0.,0.,1.));
#1173=DIRECTION('',(0.,1.,0.));
#1174=DIRECTION('',(0.,0.,-1.));
#1175=DIRECTION('',(0.,0.,1.));
#1176=DIRECTION('',(0.,1.,0.));
#1177=DIRECTION('',(0.,0.,-1.));
#1178=DIRECTION('center_axis',(0.,0.,1.));
#1179=DIRECTION('ref_axis',(1.,0.,0.));
#1180=DIRECTION('',(0.,1.,0.));
#1181=DIRECTION('',(-1.,0.,0.));
#1182=DIRECTION('',(1.,0.,0.));
#1183=DIRECTION('center_axis',(0.,1.,0.));
#1184=DIRECTION('ref_axis',(0.,0.,1.));
#1185=DIRECTION('',(0.,0.,-1.));
#1186=DIRECTION('center_axis',(0.,-1.,0.));
#1187=DIRECTION('ref_axis',(0.,0.,-1.));
#1188=DIRECTION('',(0.,0.,-1.));
#1189=DIRECTION('center_axis',(-1.,0.,0.));
#1190=DIRECTION('ref_axis',(0.,0.,1.));
#1191=DIRECTION('center_axis',(-0.707106781186548,0.,0.707106781186548));
#1192=DIRECTION('ref_axis',(0.707106781186548,0.,0.707106781186548));
#1193=DIRECTION('',(0.,1.,0.));
#1194=DIRECTION('',(0.707106781186548,0.,0.707106781186548));
#1195=DIRECTION('',(0.,-1.,0.));
#1196=DIRECTION('',(-0.707106781186548,0.,-0.707106781186548));
#1197=DIRECTION('center_axis',(0.,-1.,0.));
#1198=DIRECTION('ref_axis',(0.,0.,-1.));
#1199=DIRECTION('',(1.,0.,0.));
#1200=DIRECTION('',(-1.,0.,0.));
#1201=DIRECTION('',(0.,0.,-1.));
#1202=DIRECTION('center_axis',(0.,0.,1.));
#1203=DIRECTION('ref_axis',(1.,0.,0.));
#1204=DIRECTION('',(-1.,0.,0.));
#1205=DIRECTION('center_axis',(0.,1.,0.));
#1206=DIRECTION('ref_axis',(0.,0.,1.));
#1207=DIRECTION('',(0.,0.,-1.));
#1208=DIRECTION('',(1.,0.,0.));
#1209=DIRECTION('center_axis',(-1.,0.,0.));
#1210=DIRECTION('ref_axis',(0.,0.,1.));
#1211=DIRECTION('',(0.,1.,0.));
#1212=DIRECTION('center_axis',(0.,0.,1.));
#1213=DIRECTION('ref_axis',(1.,0.,0.));
#1214=DIRECTION('',(-1.,0.,0.));
#1215=DIRECTION('',(0.,-1.,0.));
#1216=DIRECTION('',(1.,0.,0.));
#1217=DIRECTION('center_axis',(0.,0.,1.));
#1218=DIRECTION('ref_axis',(1.,0.,0.));
#1219=DIRECTION('',(0.,-1.,0.));
#1220=DIRECTION('',(-1.,0.,0.));
#1221=DIRECTION('',(0.,1.,0.));
#1222=DIRECTION('',(1.,0.,0.));
#1223=DIRECTION('center_axis',(0.,1.,0.));
#1224=DIRECTION('ref_axis',(0.,0.,1.));
#1225=DIRECTION('',(0.,0.,-1.));
#1226=DIRECTION('',(0.,0.,-1.));
#1227=DIRECTION('center_axis',(1.,0.,0.));
#1228=DIRECTION('ref_axis',(0.,0.,-1.));
#1229=DIRECTION('',(0.,0.,-1.));
#1230=DIRECTION('center_axis',(0.,-1.,0.));
#1231=DIRECTION('ref_axis',(0.,0.,-1.));
#1232=DIRECTION('',(0.,0.,-1.));
#1233=DIRECTION('center_axis',(-1.,0.,0.));
#1234=DIRECTION('ref_axis',(0.,0.,1.));
#1235=CARTESIAN_POINT('',(0.,0.,0.));
#1236=CARTESIAN_POINT('Origin',(38.1,0.,4.3));
#1237=CARTESIAN_POINT('',(36.1,-2.44929359829471E-16,1.3));
#1238=CARTESIAN_POINT('Origin',(38.1,0.,1.3));
#1239=CARTESIAN_POINT('',(36.1,2.44929359829471E-16,6.3));
#1240=CARTESIAN_POINT('',(36.1,-2.44929359829471E-16,4.3));
#1241=CARTESIAN_POINT('Origin',(38.1,0.,6.3));
#1242=CARTESIAN_POINT('Origin',(38.1,0.,1.3));
#1243=CARTESIAN_POINT('Origin',(34.5,0.,3.15));
#1244=CARTESIAN_POINT('',(34.5,4.,4.3));
#1245=CARTESIAN_POINT('',(34.5,4.,0.));
#1246=CARTESIAN_POINT('',(34.5,4.,2.65));
#1247=CARTESIAN_POINT('',(34.5,1.6,4.3));
#1248=CARTESIAN_POINT('',(34.5,1.4,4.3));
#1249=CARTESIAN_POINT('',(34.5,1.6,0.));
#1250=CARTESIAN_POINT('',(34.5,1.6,2.65));
#1251=CARTESIAN_POINT('',(34.5,0.799999999999999,0.));
#1252=CARTESIAN_POINT('',(34.5,0.,0.));
#1253=CARTESIAN_POINT('',(34.5,0.799999999999999,4.3));
#1254=CARTESIAN_POINT('',(34.5,0.799999999999999,2.65));
#1255=CARTESIAN_POINT('',(34.5,-1.6,4.3));
#1256=CARTESIAN_POINT('',(34.5,-0.2,4.3));
#1257=CARTESIAN_POINT('',(34.5,-1.6,0.));
#1258=CARTESIAN_POINT('',(34.5,-1.6,2.65));
#1259=CARTESIAN_POINT('',(34.5,-6.,0.));
#1260=CARTESIAN_POINT('',(34.5,0.,0.));
#1261=CARTESIAN_POINT('',(34.5,-6.,6.3));
#1262=CARTESIAN_POINT('',(34.5,-6.,3.15));
#1263=CARTESIAN_POINT('',(34.5,6.,6.3));
#1264=CARTESIAN_POINT('',(34.5,0.,6.3));
#1265=CARTESIAN_POINT('',(34.5,6.,0.));
#1266=CARTESIAN_POINT('',(34.5,6.,3.15));
#1267=CARTESIAN_POINT('',(34.5,0.,0.));
#1268=CARTESIAN_POINT('Origin',(38.1,0.,6.3));
#1269=CARTESIAN_POINT('',(41.7,-6.,6.3));
#1270=CARTESIAN_POINT('',(41.7,6.,6.3));
#1271=CARTESIAN_POINT('',(41.7,0.,6.3));
#1272=CARTESIAN_POINT('',(38.1,6.,6.3));
#1273=CARTESIAN_POINT('',(38.1,-6.,6.3));
#1274=CARTESIAN_POINT('Origin',(3.15,0.,0.));
#1275=CARTESIAN_POINT('',(-33.,6.,0.));
#1276=CARTESIAN_POINT('',(3.15,6.,0.));
#1277=CARTESIAN_POINT('',(-33.,5.,0.));
#1278=CARTESIAN_POINT('',(-33.,0.,0.));
#1279=CARTESIAN_POINT('',(-24.,5.,0.));
#1280=CARTESIAN_POINT('',(-12.675,5.,0.));
#1281=CARTESIAN_POINT('',(-24.,2.8,0.));
#1282=CARTESIAN_POINT('',(-24.,1.95,0.));
#1283=CARTESIAN_POINT('',(-33.,2.8,0.));
#1284=CARTESIAN_POINT('',(-12.675,2.8,0.));
#1285=CARTESIAN_POINT('',(-33.,-2.8,0.));
#1286=CARTESIAN_POINT('',(-33.,0.,0.));
#1287=CARTESIAN_POINT('',(-24.,-2.8,0.));
#1288=CARTESIAN_POINT('',(-12.675,-2.8,0.));
#1289=CARTESIAN_POINT('',(-24.,-5.,0.));
#1290=CARTESIAN_POINT('',(-24.,-1.95,0.));
#1291=CARTESIAN_POINT('',(-33.,-5.,0.));
#1292=CARTESIAN_POINT('',(-12.675,-5.,0.));
#1293=CARTESIAN_POINT('',(-33.,-6.,0.));
#1294=CARTESIAN_POINT('',(-33.,0.,0.));
#1295=CARTESIAN_POINT('',(3.15,-6.,0.));
#1296=CARTESIAN_POINT('',(33.,-1.6,0.));
#1297=CARTESIAN_POINT('',(18.475,-1.6,0.));
#1298=CARTESIAN_POINT('',(33.,0.799999999999999,0.));
#1299=CARTESIAN_POINT('',(33.,-0.2,0.));
#1300=CARTESIAN_POINT('',(18.475,0.799999999999999,0.));
#1301=CARTESIAN_POINT('',(34.,1.6,0.));
#1302=CARTESIAN_POINT('',(18.975,1.6,0.));
#1303=CARTESIAN_POINT('',(34.,4.,0.));
#1304=CARTESIAN_POINT('',(34.,1.4,0.));
#1305=CARTESIAN_POINT('',(18.975,4.,0.));
#1306=CARTESIAN_POINT('',(33.,2.8,0.));
#1307=CARTESIAN_POINT('',(24.,2.8,0.));
#1308=CARTESIAN_POINT('',(15.825,2.8,0.));
#1309=CARTESIAN_POINT('',(24.,5.,0.));
#1310=CARTESIAN_POINT('',(24.,1.95,0.));
#1311=CARTESIAN_POINT('',(33.,5.,0.));
#1312=CARTESIAN_POINT('',(15.825,5.,0.));
#1313=CARTESIAN_POINT('',(33.,1.95,0.));
#1314=CARTESIAN_POINT('',(33.6,-4.8,0.));
#1315=CARTESIAN_POINT('',(33.,-4.8,0.));
#1316=CARTESIAN_POINT('',(17.975,-4.8,0.));
#1317=CARTESIAN_POINT('',(33.,-5.,0.));
#1318=CARTESIAN_POINT('',(33.,-1.95,0.));
#1319=CARTESIAN_POINT('',(24.,-5.,0.));
#1320=CARTESIAN_POINT('',(15.825,-5.,0.));
#1321=CARTESIAN_POINT('',(24.,-2.8,0.));
#1322=CARTESIAN_POINT('',(24.,-1.95,0.));
#1323=CARTESIAN_POINT('',(32.,-2.8,0.));
#1324=CARTESIAN_POINT('',(15.825,-2.8,0.));
#1325=CARTESIAN_POINT('',(32.,-2.4,0.));
#1326=CARTESIAN_POINT('',(32.,-1.8,0.));
#1327=CARTESIAN_POINT('',(33.6,-2.4,0.));
#1328=CARTESIAN_POINT('',(17.975,-2.4,0.));
#1329=CARTESIAN_POINT('',(33.6,-1.8,0.));
#1330=CARTESIAN_POINT('Origin',(33.8,-1.6,2.15));
#1331=CARTESIAN_POINT('',(33.,-1.6,4.3));
#1332=CARTESIAN_POINT('',(33.8,-1.6,4.3));
#1333=CARTESIAN_POINT('',(33.,-1.6,2.15));
#1334=CARTESIAN_POINT('Origin',(34.8,2.8,4.3));
#1335=CARTESIAN_POINT('',(34.,4.,4.3));
#1336=CARTESIAN_POINT('',(34.8,4.,4.3));
#1337=CARTESIAN_POINT('',(34.,1.6,4.3));
#1338=CARTESIAN_POINT('',(34.,2.8,4.3));
#1339=CARTESIAN_POINT('',(34.8,1.6,4.3));
#1340=CARTESIAN_POINT('Origin',(34.8,1.6,2.15));
#1341=CARTESIAN_POINT('',(34.,1.6,2.15));
#1342=CARTESIAN_POINT('Origin',(34.,2.8,2.15));
#1343=CARTESIAN_POINT('',(34.,4.,2.15));
#1344=CARTESIAN_POINT('Origin',(34.8,4.,2.15));
#1345=CARTESIAN_POINT('Origin',(33.8,-0.4,4.3));
#1346=CARTESIAN_POINT('',(33.,0.799999999999999,4.3));
#1347=CARTESIAN_POINT('',(33.8,0.799999999999999,4.3));
#1348=CARTESIAN_POINT('',(33.,-0.4,4.3));
#1349=CARTESIAN_POINT('Origin',(33.,-0.4,2.15));
#1350=CARTESIAN_POINT('',(33.,0.799999999999999,2.15));
#1351=CARTESIAN_POINT('Origin',(33.8,0.799999999999999,2.15));
#1352=CARTESIAN_POINT('Origin',(32.8,-4.8,2.15));
#1353=CARTESIAN_POINT('',(33.,-4.8,4.3));
#1354=CARTESIAN_POINT('',(33.,-4.8,2.2));
#1355=CARTESIAN_POINT('',(33.6,-4.8,4.3));
#1356=CARTESIAN_POINT('',(33.6,-4.8,2.15));
#1357=CARTESIAN_POINT('',(32.8,-4.8,4.3));
#1358=CARTESIAN_POINT('Origin',(32.8,-3.6,4.3));
#1359=CARTESIAN_POINT('',(33.,-2.8,4.3));
#1360=CARTESIAN_POINT('',(33.,-3.75,4.3));
#1361=CARTESIAN_POINT('',(33.6,-2.4,4.3));
#1362=CARTESIAN_POINT('',(33.6,-3.6,4.3));
#1363=CARTESIAN_POINT('',(32.,-2.4,4.3));
#1364=CARTESIAN_POINT('',(32.8,-2.4,4.3));
#1365=CARTESIAN_POINT('',(32.,-2.8,4.3));
#1366=CARTESIAN_POINT('',(32.,-3.6,4.3));
#1367=CARTESIAN_POINT('',(30.65,-2.8,4.3));
#1368=CARTESIAN_POINT('Origin',(32.,-3.6,2.15));
#1369=CARTESIAN_POINT('',(32.,-2.8,2.2));
#1370=CARTESIAN_POINT('',(32.,-2.4,2.15));
#1371=CARTESIAN_POINT('Origin',(32.8,-2.4,2.15));
#1372=CARTESIAN_POINT('',(33.6,-2.4,2.15));
#1373=CARTESIAN_POINT('Origin',(33.6,-3.6,2.15));
#1374=CARTESIAN_POINT('Origin',(28.5,-2.8,2.25));
#1375=CARTESIAN_POINT('',(24.,-2.8,4.5));
#1376=CARTESIAN_POINT('',(24.,-2.8,2.25));
#1377=CARTESIAN_POINT('',(33.,-2.8,4.5));
#1378=CARTESIAN_POINT('',(28.5,-2.8,4.5));
#1379=CARTESIAN_POINT('',(33.,-2.8,2.25));
#1380=CARTESIAN_POINT('Origin',(28.5,3.9,4.5));
#1381=CARTESIAN_POINT('',(33.,2.8,4.5));
#1382=CARTESIAN_POINT('',(33.,5.,4.5));
#1383=CARTESIAN_POINT('',(33.,3.9,4.5));
#1384=CARTESIAN_POINT('',(24.,5.,4.5));
#1385=CARTESIAN_POINT('',(28.5,5.,4.5));
#1386=CARTESIAN_POINT('',(24.,2.8,4.5));
#1387=CARTESIAN_POINT('',(24.,3.9,4.5));
#1388=CARTESIAN_POINT('',(28.5,2.8,4.5));
#1389=CARTESIAN_POINT('Origin',(28.5,2.8,2.25));
#1390=CARTESIAN_POINT('',(24.,2.8,2.25));
#1391=CARTESIAN_POINT('',(33.,2.8,2.25));
#1392=CARTESIAN_POINT('Origin',(24.,3.9,2.25));
#1393=CARTESIAN_POINT('',(24.,5.,2.25));
#1394=CARTESIAN_POINT('Origin',(28.5,5.,2.25));
#1395=CARTESIAN_POINT('',(33.,5.,2.25));
#1396=CARTESIAN_POINT('Origin',(33.,3.9,2.25));
#1397=CARTESIAN_POINT('Origin',(28.5,-3.9,4.5));
#1398=CARTESIAN_POINT('',(33.,-5.,4.5));
#1399=CARTESIAN_POINT('',(33.,-3.9,4.5));
#1400=CARTESIAN_POINT('',(24.,-5.,4.5));
#1401=CARTESIAN_POINT('',(24.,-3.9,4.5));
#1402=CARTESIAN_POINT('',(28.5,-5.,4.5));
#1403=CARTESIAN_POINT('Origin',(28.5,-5.,2.25));
#1404=CARTESIAN_POINT('',(24.,-5.,2.25));
#1405=CARTESIAN_POINT('',(33.,-5.,2.25));
#1406=CARTESIAN_POINT('Origin',(24.,-3.9,2.25));
#1407=CARTESIAN_POINT('Origin',(33.,-3.9,2.25));
#1408=CARTESIAN_POINT('Origin',(-28.5,3.9,4.5));
#1409=CARTESIAN_POINT('',(-24.,2.8,4.5));
#1410=CARTESIAN_POINT('',(-24.,5.,4.5));
#1411=CARTESIAN_POINT('',(-24.,3.9,4.5));
#1412=CARTESIAN_POINT('',(-33.,5.,4.5));
#1413=CARTESIAN_POINT('',(-28.5,5.,4.5));
#1414=CARTESIAN_POINT('',(-33.,2.8,4.5));
#1415=CARTESIAN_POINT('',(-33.,1.95,4.5));
#1416=CARTESIAN_POINT('',(-28.5,2.8,4.5));
#1417=CARTESIAN_POINT('Origin',(-28.5,2.8,2.25));
#1418=CARTESIAN_POINT('',(-33.,2.8,3.375));
#1419=CARTESIAN_POINT('',(-24.,2.8,2.25));
#1420=CARTESIAN_POINT('Origin',(-28.5,5.,2.25));
#1421=CARTESIAN_POINT('',(-24.,5.,2.25));
#1422=CARTESIAN_POINT('',(-33.,5.,3.375));
#1423=CARTESIAN_POINT('Origin',(-24.,3.9,2.25));
#1424=CARTESIAN_POINT('Origin',(-33.,0.,4.5));
#1425=CARTESIAN_POINT('',(-33.,6.,9.));
#1426=CARTESIAN_POINT('',(-33.,6.,4.5));
#1427=CARTESIAN_POINT('',(-33.,5.,9.));
#1428=CARTESIAN_POINT('',(-33.,0.,9.));
#1429=CARTESIAN_POINT('',(-33.,5.,6.3));
#1430=CARTESIAN_POINT('',(-33.,5.,6.075));
#1431=CARTESIAN_POINT('',(-33.,-5.,6.3));
#1432=CARTESIAN_POINT('',(-33.,0.,6.3));
#1433=CARTESIAN_POINT('',(-33.,-5.,9.));
#1434=CARTESIAN_POINT('',(-33.,-5.,6.075));
#1435=CARTESIAN_POINT('',(-33.,-6.,9.));
#1436=CARTESIAN_POINT('',(-33.,0.,9.));
#1437=CARTESIAN_POINT('',(-33.,-6.,4.5));
#1438=CARTESIAN_POINT('',(-33.,-5.,4.5));
#1439=CARTESIAN_POINT('',(-33.,-5.,3.375));
#1440=CARTESIAN_POINT('',(-33.,-2.8,4.5));
#1441=CARTESIAN_POINT('',(-33.,-1.95,4.5));
#1442=CARTESIAN_POINT('',(-33.,-2.8,3.375));
#1443=CARTESIAN_POINT('Origin',(-28.5,-3.9,4.5));
#1444=CARTESIAN_POINT('',(-24.,-5.,4.5));
#1445=CARTESIAN_POINT('',(-24.,-2.8,4.5));
#1446=CARTESIAN_POINT('',(-24.,-3.9,4.5));
#1447=CARTESIAN_POINT('',(-28.5,-2.8,4.5));
#1448=CARTESIAN_POINT('',(-28.5,-5.,4.5));
#1449=CARTESIAN_POINT('Origin',(-28.5,-5.,2.25));
#1450=CARTESIAN_POINT('',(-24.,-5.,2.25));
#1451=CARTESIAN_POINT('Origin',(-28.5,-2.8,2.25));
#1452=CARTESIAN_POINT('',(-24.,-2.8,2.25));
#1453=CARTESIAN_POINT('Origin',(-24.,-3.9,2.25));
#1454=CARTESIAN_POINT('Origin',(-31.4,0.,6.69999999999999));
#1455=CARTESIAN_POINT('',(-31.8,-5.,6.3));
#1456=CARTESIAN_POINT('',(-31.8,5.,6.3));
#1457=CARTESIAN_POINT('',(-31.8,0.,6.3));
#1458=CARTESIAN_POINT('',(-31.,5.,7.09999999999998));
#1459=CARTESIAN_POINT('',(-31.3125,5.,6.78749999999999));
#1460=CARTESIAN_POINT('',(-31.,-5.,7.09999999999998));
#1461=CARTESIAN_POINT('',(-31.,0.,7.09999999999998));
#1462=CARTESIAN_POINT('',(-31.3125,-5.,6.78749999999999));
#1463=CARTESIAN_POINT('Origin',(-32.,5.,7.65));
#1464=CARTESIAN_POINT('',(-32.,5.,6.3));
#1465=CARTESIAN_POINT('',(-31.,5.,9.));
#1466=CARTESIAN_POINT('',(-32.,5.,9.));
#1467=CARTESIAN_POINT('',(-31.,5.,7.65));
#1468=CARTESIAN_POINT('Origin',(-32.,0.,6.3));
#1469=CARTESIAN_POINT('',(-32.,-5.,6.3));
#1470=CARTESIAN_POINT('Origin',(-32.,-5.,7.65));
#1471=CARTESIAN_POINT('',(-31.,-5.,9.));
#1472=CARTESIAN_POINT('',(-31.,-5.,7.65));
#1473=CARTESIAN_POINT('',(-32.,-5.,9.));
#1474=CARTESIAN_POINT('Origin',(-31.,0.,7.65));
#1475=CARTESIAN_POINT('',(-31.,0.,9.));
#1476=CARTESIAN_POINT('Origin',(-34.2,0.,9.));
#1477=CARTESIAN_POINT('',(-35.4,6.,9.));
#1478=CARTESIAN_POINT('',(-34.2,6.,9.));
#1479=CARTESIAN_POINT('',(-35.4,-6.,9.));
#1480=CARTESIAN_POINT('',(-35.4,0.,9.));
#1481=CARTESIAN_POINT('',(-34.2,-6.,9.));
#1482=CARTESIAN_POINT('Origin',(3.15,0.,-1.6));
#1483=CARTESIAN_POINT('',(41.7,6.,-1.6));
#1484=CARTESIAN_POINT('',(41.7,-6.,-1.6));
#1485=CARTESIAN_POINT('',(41.7,0.,-1.6));
#1486=CARTESIAN_POINT('',(-35.4,-6.,-1.6));
#1487=CARTESIAN_POINT('',(3.15,-6.,-1.6));
#1488=CARTESIAN_POINT('',(-35.4,6.,-1.6));
#1489=CARTESIAN_POINT('',(-35.4,0.,-1.6));
#1490=CARTESIAN_POINT('',(3.15,6.,-1.6));
#1491=CARTESIAN_POINT('Origin',(3.15,-6.,-0.8));
#1492=CARTESIAN_POINT('',(-35.4,-6.,4.5));
#1493=CARTESIAN_POINT('',(41.7,-6.,-0.8));
#1494=CARTESIAN_POINT('Origin',(-35.4,0.,-0.8));
#1495=CARTESIAN_POINT('',(-35.4,6.,4.5));
#1496=CARTESIAN_POINT('Origin',(3.15,6.,-0.8));
#1497=CARTESIAN_POINT('',(41.7,6.,3.15));
#1498=CARTESIAN_POINT('Origin',(41.7,0.,-0.8));
#1499=UNCERTAINTY_MEASURE_WITH_UNIT(LENGTH_MEASURE(0.01),#1503,
'DISTANCE_ACCURACY_VALUE',
'Maximum model space distance between geometric entities at asserted c
onnectivities');
#1500=UNCERTAINTY_MEASURE_WITH_UNIT(LENGTH_MEASURE(0.01),#1503,
'DISTANCE_ACCURACY_VALUE',
'Maximum model space distance between geometric entities at asserted c
onnectivities');
#1501=(
GEOMETRIC_REPRESENTATION_CONTEXT(3)
GLOBAL_UNCERTAINTY_ASSIGNED_CONTEXT((#1499))
GLOBAL_UNIT_ASSIGNED_CONTEXT((#1503,#1505,#1506))
REPRESENTATION_CONTEXT('','3D')
);
#1502=(
GEOMETRIC_REPRESENTATION_CONTEXT(3)
GLOBAL_UNCERTAINTY_ASSIGNED_CONTEXT((#1500))
GLOBAL_UNIT_ASSIGNED_CONTEXT((#1503,#1505,#1506))
REPRESENTATION_CONTEXT('','3D')
);
#1503=(
LENGTH_UNIT()
NAMED_UNIT(*)
SI_UNIT(.MILLI.,.METRE.)
);
#1504=(
LENGTH_UNIT()
NAMED_UNIT(*)
SI_UNIT($,.METRE.)
);
#1505=(
NAMED_UNIT(*)
PLANE_ANGLE_UNIT()
SI_UNIT($,.RADIAN.)
);
#1506=(
NAMED_UNIT(*)
SI_UNIT($,.STERADIAN.)
SOLID_ANGLE_UNIT()
);
#1507=SHAPE_DEFINITION_REPRESENTATION(#1508,#1509);
#1508=PRODUCT_DEFINITION_SHAPE('',$,#1511);
#1509=SHAPE_REPRESENTATION('',(#955),#1501);
#1510=PRODUCT_DEFINITION_CONTEXT('part definition',#1515,'design');
#1511=PRODUCT_DEFINITION('Carrier_Fit_Coupon','Carrier_Fit_Coupon',#1512,
#1510);
#1512=PRODUCT_DEFINITION_FORMATION('',$,#1517);
#1513=PRODUCT_RELATED_PRODUCT_CATEGORY('Carrier_Fit_Coupon',
'Carrier_Fit_Coupon',(#1517));
#1514=APPLICATION_PROTOCOL_DEFINITION('international standard',
'automotive_design',2009,#1515);
#1515=APPLICATION_CONTEXT(
'Core Data for Automotive Mechanical Design Process');
#1516=PRODUCT_CONTEXT('part definition',#1515,'mechanical');
#1517=PRODUCT('Carrier_Fit_Coupon','Carrier_Fit_Coupon',
'PROTOTYPE TOOL. Not a production part; excluded from the specificatio
n section 9 material gates.',(#1516));
#1518=PRESENTATION_STYLE_ASSIGNMENT((#1519));
#1519=SURFACE_STYLE_USAGE(.BOTH.,#1520);
#1520=SURFACE_SIDE_STYLE('',(#1521));
#1521=SURFACE_STYLE_FILL_AREA(#1522);
#1522=FILL_AREA_STYLE('Steel - Satin',(#1523));
#1523=FILL_AREA_STYLE_COLOUR('Steel - Satin',#1524);
#1524=COLOUR_RGB('Steel - Satin',0.627450980392157,0.627450980392157,0.627450980392157);
ENDSEC;
END-ISO-10303-21;
