ISO-10303-21;
HEADER;
/* Generated by software containing ST-Developer
 * from STEP Tools, Inc. (www.steptools.com) 
 */

FILE_DESCRIPTION(
/* description */ (
'PROTOTYPE TOOL. Not a production part; excluded from the specificatio
n section 9 material gates.'),
/* implementation_level */ '2;1');

FILE_NAME(
/* name */ 'ESP32_Controller_Insert_Fastener_Coupon.step',
/* time_stamp */ '2026-09-02T11:53:33+01:00',
/* author */ (''),
/* organization */ (''),
/* preprocessor_version */ 'ST-DEVELOPER v20.1',
/* originating_system */ 'Autodesk Translation Framework v15.8.0.0',
/* authorisation */ '');

FILE_SCHEMA (('AUTOMOTIVE_DESIGN { 1 0 10303 214 3 1 1 }'));
ENDSEC;

DATA;
#10=MECHANICAL_DESIGN_GEOMETRIC_PRESENTATION_REPRESENTATION('',(#13),#873);
#11=SHAPE_REPRESENTATION_RELATIONSHIP('SRR','None',#880,#12);
#12=ADVANCED_BREP_SHAPE_REPRESENTATION('',(#14),#872);
#13=STYLED_ITEM('',(#889),#14);
#14=MANIFOLD_SOLID_BREP('ESP32_Controller_Insert_Fastener_Coupon',#522);
#15=CONICAL_SURFACE('',#548,2.55,0.785104132238618);
#16=CYLINDRICAL_SURFACE('',#545,1.7);
#17=CYLINDRICAL_SURFACE('',#551,5.2);
#18=CYLINDRICAL_SURFACE('',#554,6.5);
#19=CYLINDRICAL_SURFACE('',#560,2.);
#20=CYLINDRICAL_SURFACE('',#566,2.);
#21=FACE_BOUND('',#71,.T.);
#22=FACE_BOUND('',#85,.T.);
#23=FACE_BOUND('',#94,.T.);
#24=FACE_BOUND('',#99,.T.);
#25=CIRCLE('',#539,5.2);
#26=CIRCLE('',#540,6.5);
#27=CIRCLE('',#541,3.39900058788948);
#28=CIRCLE('',#543,6.5);
#29=CIRCLE('',#544,5.2);
#30=CIRCLE('',#546,1.7);
#31=CIRCLE('',#547,1.7);
#32=CIRCLE('',#550,5.2);
#33=CIRCLE('',#552,5.2);
#34=CIRCLE('',#555,6.5);
#35=CIRCLE('',#556,6.5);
#36=CIRCLE('',#561,2.);
#37=CIRCLE('',#562,2.);
#38=CIRCLE('',#567,2.);
#39=CIRCLE('',#568,2.);
#40=FACE_OUTER_BOUND('',#68,.T.);
#41=FACE_OUTER_BOUND('',#69,.T.);
#42=FACE_OUTER_BOUND('',#70,.T.);
#43=FACE_OUTER_BOUND('',#72,.T.);
#44=FACE_OUTER_BOUND('',#73,.T.);
#45=FACE_OUTER_BOUND('',#74,.T.);
#46=FACE_OUTER_BOUND('',#75,.T.);
#47=FACE_OUTER_BOUND('',#76,.T.);
#48=FACE_OUTER_BOUND('',#77,.T.);
#49=FACE_OUTER_BOUND('',#78,.T.);
#50=FACE_OUTER_BOUND('',#79,.T.);
#51=FACE_OUTER_BOUND('',#80,.T.);
#52=FACE_OUTER_BOUND('',#81,.T.);
#53=FACE_OUTER_BOUND('',#82,.T.);
#54=FACE_OUTER_BOUND('',#83,.T.);
#55=FACE_OUTER_BOUND('',#84,.T.);
#56=FACE_OUTER_BOUND('',#86,.T.);
#57=FACE_OUTER_BOUND('',#87,.T.);
#58=FACE_OUTER_BOUND('',#88,.T.);
#59=FACE_OUTER_BOUND('',#89,.T.);
#60=FACE_OUTER_BOUND('',#90,.T.);
#61=FACE_OUTER_BOUND('',#91,.T.);
#62=FACE_OUTER_BOUND('',#92,.T.);
#63=FACE_OUTER_BOUND('',#93,.T.);
#64=FACE_OUTER_BOUND('',#95,.T.);
#65=FACE_OUTER_BOUND('',#96,.T.);
#66=FACE_OUTER_BOUND('',#97,.T.);
#67=FACE_OUTER_BOUND('',#98,.T.);
#68=EDGE_LOOP('',(#330,#331,#332,#333));
#69=EDGE_LOOP('',(#334,#335,#336,#337));
#70=EDGE_LOOP('',(#338,#339,#340,#341));
#71=EDGE_LOOP('',(#342));
#72=EDGE_LOOP('',(#343,#344,#345,#346,#347));
#73=EDGE_LOOP('',(#348,#349,#350,#351));
#74=EDGE_LOOP('',(#352,#353,#354,#355));
#75=EDGE_LOOP('',(#356,#357));
#76=EDGE_LOOP('',(#358,#359,#360,#361,#362,#363,#364,#365));
#77=EDGE_LOOP('',(#366,#367,#368,#369,#370,#371,#372,#373));
#78=EDGE_LOOP('',(#374,#375,#376,#377,#378,#379,#380,#381));
#79=EDGE_LOOP('',(#382,#383,#384,#385,#386));
#80=EDGE_LOOP('',(#387,#388,#389,#390,#391,#392,#393,#394,#395,#396,#397,
#398));
#81=EDGE_LOOP('',(#399,#400,#401,#402,#403,#404));
#82=EDGE_LOOP('',(#405,#406,#407,#408));
#83=EDGE_LOOP('',(#409));
#84=EDGE_LOOP('',(#410,#411,#412,#413));
#85=EDGE_LOOP('',(#414));
#86=EDGE_LOOP('',(#415,#416,#417,#418,#419,#420));
#87=EDGE_LOOP('',(#421,#422,#423,#424));
#88=EDGE_LOOP('',(#425));
#89=EDGE_LOOP('',(#426,#427,#428,#429));
#90=EDGE_LOOP('',(#430,#431,#432,#433));
#91=EDGE_LOOP('',(#434,#435,#436,#437));
#92=EDGE_LOOP('',(#438,#439,#440,#441));
#93=EDGE_LOOP('',(#442,#443,#444,#445));
#94=EDGE_LOOP('',(#446));
#95=EDGE_LOOP('',(#447,#448,#449,#450));
#96=EDGE_LOOP('',(#451,#452,#453,#454));
#97=EDGE_LOOP('',(#455,#456,#457,#458,#459,#460,#461,#462));
#98=EDGE_LOOP('',(#463,#464,#465,#466,#467,#468,#469,#470));
#99=EDGE_LOOP('',(#471));
#100=LINE('',#727,#156);
#101=LINE('',#729,#157);
#102=LINE('',#731,#158);
#103=LINE('',#732,#159);
#104=LINE('',#736,#160);
#105=LINE('',#738,#161);
#106=LINE('',#740,#162);
#107=LINE('',#741,#163);
#108=LINE('',#751,#164);
#109=LINE('',#753,#165);
#110=LINE('',#759,#166);
#111=LINE('',#762,#167);
#112=LINE('',#766,#168);
#113=LINE('',#769,#169);
#114=LINE('',#771,#170);
#115=LINE('',#775,#171);
#116=LINE('',#777,#172);
#117=LINE('',#779,#173);
#118=LINE('',#780,#174);
#119=LINE('',#785,#175);
#120=LINE('',#788,#176);
#121=LINE('',#790,#177);
#122=LINE('',#793,#178);
#123=LINE('',#795,#179);
#124=LINE('',#797,#180);
#125=LINE('',#799,#181);
#126=LINE('',#801,#182);
#127=LINE('',#803,#183);
#128=LINE('',#805,#184);
#129=LINE('',#807,#185);
#130=LINE('',#809,#186);
#131=LINE('',#811,#187);
#132=LINE('',#812,#188);
#133=LINE('',#815,#189);
#134=LINE('',#816,#190);
#135=LINE('',#821,#191);
#136=LINE('',#826,#192);
#137=LINE('',#827,#193);
#138=LINE('',#829,#194);
#139=LINE('',#834,#195);
#140=LINE('',#840,#196);
#141=LINE('',#842,#197);
#142=LINE('',#844,#198);
#143=LINE('',#845,#199);
#144=LINE('',#847,#200);
#145=LINE('',#848,#201);
#146=LINE('',#850,#202);
#147=LINE('',#852,#203);
#148=LINE('',#856,#204);
#149=LINE('',#858,#205);
#150=LINE('',#860,#206);
#151=LINE('',#861,#207);
#152=LINE('',#863,#208);
#153=LINE('',#864,#209);
#154=LINE('',#866,#210);
#155=LINE('',#868,#211);
#156=VECTOR('',#583,10.);
#157=VECTOR('',#584,10.);
#158=VECTOR('',#585,10.);
#159=VECTOR('',#586,10.);
#160=VECTOR('',#589,10.);
#161=VECTOR('',#590,10.);
#162=VECTOR('',#591,10.);
#163=VECTOR('',#592,10.);
#164=VECTOR('',#605,10.);
#165=VECTOR('',#606,10.);
#166=VECTOR('',#613,1.7);
#167=VECTOR('',#618,2.55);
#168=VECTOR('',#621,10.);
#169=VECTOR('',#626,10.);
#170=VECTOR('',#627,10.);
#171=VECTOR('',#632,10.);
#172=VECTOR('',#633,10.);
#173=VECTOR('',#634,10.);
#174=VECTOR('',#635,10.);
#175=VECTOR('',#640,10.);
#176=VECTOR('',#643,10.);
#177=VECTOR('',#646,10.);
#178=VECTOR('',#649,10.);
#179=VECTOR('',#650,10.);
#180=VECTOR('',#651,10.);
#181=VECTOR('',#652,10.);
#182=VECTOR('',#653,10.);
#183=VECTOR('',#654,10.);
#184=VECTOR('',#655,10.);
#185=VECTOR('',#656,10.);
#186=VECTOR('',#657,10.);
#187=VECTOR('',#658,10.);
#188=VECTOR('',#659,10.);
#189=VECTOR('',#662,10.);
#190=VECTOR('',#663,10.);
#191=VECTOR('',#668,2.);
#192=VECTOR('',#675,10.);
#193=VECTOR('',#676,10.);
#194=VECTOR('',#679,10.);
#195=VECTOR('',#684,2.);
#196=VECTOR('',#691,10.);
#197=VECTOR('',#692,10.);
#198=VECTOR('',#693,10.);
#199=VECTOR('',#694,10.);
#200=VECTOR('',#697,10.);
#201=VECTOR('',#698,10.);
#202=VECTOR('',#701,10.);
#203=VECTOR('',#704,10.);
#204=VECTOR('',#707,10.);
#205=VECTOR('',#708,10.);
#206=VECTOR('',#709,10.);
#207=VECTOR('',#710,10.);
#208=VECTOR('',#713,10.);
#209=VECTOR('',#714,10.);
#210=VECTOR('',#717,10.);
#211=VECTOR('',#720,10.);
#212=VERTEX_POINT('',#725);
#213=VERTEX_POINT('',#726);
#214=VERTEX_POINT('',#728);
#215=VERTEX_POINT('',#730);
#216=VERTEX_POINT('',#734);
#217=VERTEX_POINT('',#735);
#218=VERTEX_POINT('',#737);
#219=VERTEX_POINT('',#739);
#220=VERTEX_POINT('',#745);
#221=VERTEX_POINT('',#748);
#222=VERTEX_POINT('',#750);
#223=VERTEX_POINT('',#752);
#224=VERTEX_POINT('',#756);
#225=VERTEX_POINT('',#758);
#226=VERTEX_POINT('',#764);
#227=VERTEX_POINT('',#765);
#228=VERTEX_POINT('',#770);
#229=VERTEX_POINT('',#774);
#230=VERTEX_POINT('',#776);
#231=VERTEX_POINT('',#778);
#232=VERTEX_POINT('',#782);
#233=VERTEX_POINT('',#784);
#234=VERTEX_POINT('',#786);
#235=VERTEX_POINT('',#792);
#236=VERTEX_POINT('',#794);
#237=VERTEX_POINT('',#796);
#238=VERTEX_POINT('',#798);
#239=VERTEX_POINT('',#800);
#240=VERTEX_POINT('',#802);
#241=VERTEX_POINT('',#804);
#242=VERTEX_POINT('',#806);
#243=VERTEX_POINT('',#808);
#244=VERTEX_POINT('',#810);
#245=VERTEX_POINT('',#814);
#246=VERTEX_POINT('',#818);
#247=VERTEX_POINT('',#820);
#248=VERTEX_POINT('',#825);
#249=VERTEX_POINT('',#831);
#250=VERTEX_POINT('',#833);
#251=VERTEX_POINT('',#838);
#252=VERTEX_POINT('',#839);
#253=VERTEX_POINT('',#841);
#254=VERTEX_POINT('',#843);
#255=VERTEX_POINT('',#854);
#256=VERTEX_POINT('',#855);
#257=VERTEX_POINT('',#857);
#258=VERTEX_POINT('',#859);
#259=EDGE_CURVE('',#212,#213,#100,.T.);
#260=EDGE_CURVE('',#212,#214,#101,.T.);
#261=EDGE_CURVE('',#215,#214,#102,.T.);
#262=EDGE_CURVE('',#213,#215,#103,.T.);
#263=EDGE_CURVE('',#216,#217,#104,.T.);
#264=EDGE_CURVE('',#218,#216,#105,.T.);
#265=EDGE_CURVE('',#219,#218,#106,.T.);
#266=EDGE_CURVE('',#219,#217,#107,.T.);
#267=EDGE_CURVE('',#217,#212,#25,.T.);
#268=EDGE_CURVE('',#214,#219,#26,.T.);
#269=EDGE_CURVE('',#220,#220,#27,.T.);
#270=EDGE_CURVE('',#215,#221,#28,.T.);
#271=EDGE_CURVE('',#222,#221,#108,.T.);
#272=EDGE_CURVE('',#223,#222,#109,.T.);
#273=EDGE_CURVE('',#223,#213,#29,.T.);
#274=EDGE_CURVE('',#224,#224,#30,.T.);
#275=EDGE_CURVE('',#224,#225,#110,.T.);
#276=EDGE_CURVE('',#225,#225,#31,.T.);
#277=EDGE_CURVE('',#225,#220,#111,.T.);
#278=EDGE_CURVE('',#226,#227,#112,.T.);
#279=EDGE_CURVE('',#227,#226,#32,.T.);
#280=EDGE_CURVE('',#227,#223,#113,.T.);
#281=EDGE_CURVE('',#228,#226,#114,.T.);
#282=EDGE_CURVE('',#216,#228,#33,.T.);
#283=EDGE_CURVE('',#229,#222,#115,.T.);
#284=EDGE_CURVE('',#230,#229,#116,.T.);
#285=EDGE_CURVE('',#230,#231,#117,.T.);
#286=EDGE_CURVE('',#231,#228,#118,.T.);
#287=EDGE_CURVE('',#232,#218,#34,.T.);
#288=EDGE_CURVE('',#233,#232,#119,.T.);
#289=EDGE_CURVE('',#234,#233,#35,.T.);
#290=EDGE_CURVE('',#221,#234,#120,.T.);
#291=EDGE_CURVE('',#232,#231,#121,.T.);
#292=EDGE_CURVE('',#233,#235,#122,.T.);
#293=EDGE_CURVE('',#235,#236,#123,.T.);
#294=EDGE_CURVE('',#236,#237,#124,.T.);
#295=EDGE_CURVE('',#237,#238,#125,.T.);
#296=EDGE_CURVE('',#238,#239,#126,.T.);
#297=EDGE_CURVE('',#239,#240,#127,.T.);
#298=EDGE_CURVE('',#240,#241,#128,.T.);
#299=EDGE_CURVE('',#241,#242,#129,.T.);
#300=EDGE_CURVE('',#242,#243,#130,.T.);
#301=EDGE_CURVE('',#243,#244,#131,.T.);
#302=EDGE_CURVE('',#244,#234,#132,.T.);
#303=EDGE_CURVE('',#245,#230,#133,.T.);
#304=EDGE_CURVE('',#245,#235,#134,.T.);
#305=EDGE_CURVE('',#246,#246,#36,.T.);
#306=EDGE_CURVE('',#246,#247,#135,.T.);
#307=EDGE_CURVE('',#247,#247,#37,.T.);
#308=EDGE_CURVE('',#229,#248,#136,.T.);
#309=EDGE_CURVE('',#248,#245,#137,.T.);
#310=EDGE_CURVE('',#248,#244,#138,.T.);
#311=EDGE_CURVE('',#249,#249,#38,.T.);
#312=EDGE_CURVE('',#249,#250,#139,.T.);
#313=EDGE_CURVE('',#250,#250,#39,.T.);
#314=EDGE_CURVE('',#251,#252,#140,.T.);
#315=EDGE_CURVE('',#252,#253,#141,.T.);
#316=EDGE_CURVE('',#253,#254,#142,.T.);
#317=EDGE_CURVE('',#254,#251,#143,.T.);
#318=EDGE_CURVE('',#254,#240,#144,.T.);
#319=EDGE_CURVE('',#251,#239,#145,.T.);
#320=EDGE_CURVE('',#253,#241,#146,.T.);
#321=EDGE_CURVE('',#252,#242,#147,.T.);
#322=EDGE_CURVE('',#255,#256,#148,.T.);
#323=EDGE_CURVE('',#256,#257,#149,.T.);
#324=EDGE_CURVE('',#257,#258,#150,.T.);
#325=EDGE_CURVE('',#258,#255,#151,.T.);
#326=EDGE_CURVE('',#237,#257,#152,.T.);
#327=EDGE_CURVE('',#238,#256,#153,.T.);
#328=EDGE_CURVE('',#236,#258,#154,.T.);
#329=EDGE_CURVE('',#243,#255,#155,.T.);
#330=ORIENTED_EDGE('',*,*,#259,.F.);
#331=ORIENTED_EDGE('',*,*,#260,.T.);
#332=ORIENTED_EDGE('',*,*,#261,.F.);
#333=ORIENTED_EDGE('',*,*,#262,.F.);
#334=ORIENTED_EDGE('',*,*,#263,.F.);
#335=ORIENTED_EDGE('',*,*,#264,.F.);
#336=ORIENTED_EDGE('',*,*,#265,.F.);
#337=ORIENTED_EDGE('',*,*,#266,.T.);
#338=ORIENTED_EDGE('',*,*,#267,.F.);
#339=ORIENTED_EDGE('',*,*,#266,.F.);
#340=ORIENTED_EDGE('',*,*,#268,.F.);
#341=ORIENTED_EDGE('',*,*,#260,.F.);
#342=ORIENTED_EDGE('',*,*,#269,.T.);
#343=ORIENTED_EDGE('',*,*,#262,.T.);
#344=ORIENTED_EDGE('',*,*,#270,.T.);
#345=ORIENTED_EDGE('',*,*,#271,.F.);
#346=ORIENTED_EDGE('',*,*,#272,.F.);
#347=ORIENTED_EDGE('',*,*,#273,.T.);
#348=ORIENTED_EDGE('',*,*,#274,.F.);
#349=ORIENTED_EDGE('',*,*,#275,.T.);
#350=ORIENTED_EDGE('',*,*,#276,.F.);
#351=ORIENTED_EDGE('',*,*,#275,.F.);
#352=ORIENTED_EDGE('',*,*,#276,.T.);
#353=ORIENTED_EDGE('',*,*,#277,.T.);
#354=ORIENTED_EDGE('',*,*,#269,.F.);
#355=ORIENTED_EDGE('',*,*,#277,.F.);
#356=ORIENTED_EDGE('',*,*,#278,.F.);
#357=ORIENTED_EDGE('',*,*,#279,.F.);
#358=ORIENTED_EDGE('',*,*,#263,.T.);
#359=ORIENTED_EDGE('',*,*,#267,.T.);
#360=ORIENTED_EDGE('',*,*,#259,.T.);
#361=ORIENTED_EDGE('',*,*,#273,.F.);
#362=ORIENTED_EDGE('',*,*,#280,.F.);
#363=ORIENTED_EDGE('',*,*,#279,.T.);
#364=ORIENTED_EDGE('',*,*,#281,.F.);
#365=ORIENTED_EDGE('',*,*,#282,.F.);
#366=ORIENTED_EDGE('',*,*,#281,.T.);
#367=ORIENTED_EDGE('',*,*,#278,.T.);
#368=ORIENTED_EDGE('',*,*,#280,.T.);
#369=ORIENTED_EDGE('',*,*,#272,.T.);
#370=ORIENTED_EDGE('',*,*,#283,.F.);
#371=ORIENTED_EDGE('',*,*,#284,.F.);
#372=ORIENTED_EDGE('',*,*,#285,.T.);
#373=ORIENTED_EDGE('',*,*,#286,.T.);
#374=ORIENTED_EDGE('',*,*,#265,.T.);
#375=ORIENTED_EDGE('',*,*,#287,.F.);
#376=ORIENTED_EDGE('',*,*,#288,.F.);
#377=ORIENTED_EDGE('',*,*,#289,.F.);
#378=ORIENTED_EDGE('',*,*,#290,.F.);
#379=ORIENTED_EDGE('',*,*,#270,.F.);
#380=ORIENTED_EDGE('',*,*,#261,.T.);
#381=ORIENTED_EDGE('',*,*,#268,.T.);
#382=ORIENTED_EDGE('',*,*,#264,.T.);
#383=ORIENTED_EDGE('',*,*,#282,.T.);
#384=ORIENTED_EDGE('',*,*,#286,.F.);
#385=ORIENTED_EDGE('',*,*,#291,.F.);
#386=ORIENTED_EDGE('',*,*,#287,.T.);
#387=ORIENTED_EDGE('',*,*,#289,.T.);
#388=ORIENTED_EDGE('',*,*,#292,.T.);
#389=ORIENTED_EDGE('',*,*,#293,.T.);
#390=ORIENTED_EDGE('',*,*,#294,.T.);
#391=ORIENTED_EDGE('',*,*,#295,.T.);
#392=ORIENTED_EDGE('',*,*,#296,.T.);
#393=ORIENTED_EDGE('',*,*,#297,.T.);
#394=ORIENTED_EDGE('',*,*,#298,.T.);
#395=ORIENTED_EDGE('',*,*,#299,.T.);
#396=ORIENTED_EDGE('',*,*,#300,.T.);
#397=ORIENTED_EDGE('',*,*,#301,.T.);
#398=ORIENTED_EDGE('',*,*,#302,.T.);
#399=ORIENTED_EDGE('',*,*,#288,.T.);
#400=ORIENTED_EDGE('',*,*,#291,.T.);
#401=ORIENTED_EDGE('',*,*,#285,.F.);
#402=ORIENTED_EDGE('',*,*,#303,.F.);
#403=ORIENTED_EDGE('',*,*,#304,.T.);
#404=ORIENTED_EDGE('',*,*,#292,.F.);
#405=ORIENTED_EDGE('',*,*,#305,.T.);
#406=ORIENTED_EDGE('',*,*,#306,.T.);
#407=ORIENTED_EDGE('',*,*,#307,.F.);
#408=ORIENTED_EDGE('',*,*,#306,.F.);
#409=ORIENTED_EDGE('',*,*,#305,.F.);
#410=ORIENTED_EDGE('',*,*,#308,.T.);
#411=ORIENTED_EDGE('',*,*,#309,.T.);
#412=ORIENTED_EDGE('',*,*,#303,.T.);
#413=ORIENTED_EDGE('',*,*,#284,.T.);
#414=ORIENTED_EDGE('',*,*,#307,.T.);
#415=ORIENTED_EDGE('',*,*,#290,.T.);
#416=ORIENTED_EDGE('',*,*,#302,.F.);
#417=ORIENTED_EDGE('',*,*,#310,.F.);
#418=ORIENTED_EDGE('',*,*,#308,.F.);
#419=ORIENTED_EDGE('',*,*,#283,.T.);
#420=ORIENTED_EDGE('',*,*,#271,.T.);
#421=ORIENTED_EDGE('',*,*,#311,.T.);
#422=ORIENTED_EDGE('',*,*,#312,.T.);
#423=ORIENTED_EDGE('',*,*,#313,.F.);
#424=ORIENTED_EDGE('',*,*,#312,.F.);
#425=ORIENTED_EDGE('',*,*,#311,.F.);
#426=ORIENTED_EDGE('',*,*,#314,.T.);
#427=ORIENTED_EDGE('',*,*,#315,.T.);
#428=ORIENTED_EDGE('',*,*,#316,.T.);
#429=ORIENTED_EDGE('',*,*,#317,.T.);
#430=ORIENTED_EDGE('',*,*,#318,.T.);
#431=ORIENTED_EDGE('',*,*,#297,.F.);
#432=ORIENTED_EDGE('',*,*,#319,.F.);
#433=ORIENTED_EDGE('',*,*,#317,.F.);
#434=ORIENTED_EDGE('',*,*,#320,.T.);
#435=ORIENTED_EDGE('',*,*,#298,.F.);
#436=ORIENTED_EDGE('',*,*,#318,.F.);
#437=ORIENTED_EDGE('',*,*,#316,.F.);
#438=ORIENTED_EDGE('',*,*,#321,.T.);
#439=ORIENTED_EDGE('',*,*,#299,.F.);
#440=ORIENTED_EDGE('',*,*,#320,.F.);
#441=ORIENTED_EDGE('',*,*,#315,.F.);
#442=ORIENTED_EDGE('',*,*,#322,.T.);
#443=ORIENTED_EDGE('',*,*,#323,.T.);
#444=ORIENTED_EDGE('',*,*,#324,.T.);
#445=ORIENTED_EDGE('',*,*,#325,.T.);
#446=ORIENTED_EDGE('',*,*,#274,.T.);
#447=ORIENTED_EDGE('',*,*,#326,.T.);
#448=ORIENTED_EDGE('',*,*,#323,.F.);
#449=ORIENTED_EDGE('',*,*,#327,.F.);
#450=ORIENTED_EDGE('',*,*,#295,.F.);
#451=ORIENTED_EDGE('',*,*,#328,.T.);
#452=ORIENTED_EDGE('',*,*,#324,.F.);
#453=ORIENTED_EDGE('',*,*,#326,.F.);
#454=ORIENTED_EDGE('',*,*,#294,.F.);
#455=ORIENTED_EDGE('',*,*,#329,.T.);
#456=ORIENTED_EDGE('',*,*,#325,.F.);
#457=ORIENTED_EDGE('',*,*,#328,.F.);
#458=ORIENTED_EDGE('',*,*,#293,.F.);
#459=ORIENTED_EDGE('',*,*,#304,.F.);
#460=ORIENTED_EDGE('',*,*,#309,.F.);
#461=ORIENTED_EDGE('',*,*,#310,.T.);
#462=ORIENTED_EDGE('',*,*,#301,.F.);
#463=ORIENTED_EDGE('',*,*,#327,.T.);
#464=ORIENTED_EDGE('',*,*,#322,.F.);
#465=ORIENTED_EDGE('',*,*,#329,.F.);
#466=ORIENTED_EDGE('',*,*,#300,.F.);
#467=ORIENTED_EDGE('',*,*,#321,.F.);
#468=ORIENTED_EDGE('',*,*,#314,.F.);
#469=ORIENTED_EDGE('',*,*,#319,.T.);
#470=ORIENTED_EDGE('',*,*,#296,.F.);
#471=ORIENTED_EDGE('',*,*,#313,.T.);
#472=PLANE('',#536);
#473=PLANE('',#537);
#474=PLANE('',#538);
#475=PLANE('',#542);
#476=PLANE('',#549);
#477=PLANE('',#553);
#478=PLANE('',#557);
#479=PLANE('',#558);
#480=PLANE('',#559);
#481=PLANE('',#563);
#482=PLANE('',#564);
#483=PLANE('',#565);
#484=PLANE('',#569);
#485=PLANE('',#570);
#486=PLANE('',#571);
#487=PLANE('',#572);
#488=PLANE('',#573);
#489=PLANE('',#574);
#490=PLANE('',#575);
#491=PLANE('',#576);
#492=PLANE('',#577);
#493=PLANE('',#578);
#494=ADVANCED_FACE('',(#40),#472,.T.);
#495=ADVANCED_FACE('',(#41),#473,.T.);
#496=ADVANCED_FACE('',(#42,#21),#474,.F.);
#497=ADVANCED_FACE('',(#43),#475,.T.);
#498=ADVANCED_FACE('',(#44),#16,.F.);
#499=ADVANCED_FACE('',(#45),#15,.F.);
#500=ADVANCED_FACE('',(#46),#476,.F.);
#501=ADVANCED_FACE('',(#47),#17,.F.);
#502=ADVANCED_FACE('',(#48),#477,.F.);
#503=ADVANCED_FACE('',(#49),#18,.T.);
#504=ADVANCED_FACE('',(#50),#478,.T.);
#505=ADVANCED_FACE('',(#51),#479,.T.);
#506=ADVANCED_FACE('',(#52),#480,.F.);
#507=ADVANCED_FACE('',(#53),#19,.F.);
#508=ADVANCED_FACE('',(#54),#481,.F.);
#509=ADVANCED_FACE('',(#55,#22),#482,.T.);
#510=ADVANCED_FACE('',(#56),#483,.F.);
#511=ADVANCED_FACE('',(#57),#20,.F.);
#512=ADVANCED_FACE('',(#58),#484,.F.);
#513=ADVANCED_FACE('',(#59),#485,.T.);
#514=ADVANCED_FACE('',(#60),#486,.F.);
#515=ADVANCED_FACE('',(#61),#487,.F.);
#516=ADVANCED_FACE('',(#62),#488,.F.);
#517=ADVANCED_FACE('',(#63,#23),#489,.F.);
#518=ADVANCED_FACE('',(#64),#490,.F.);
#519=ADVANCED_FACE('',(#65),#491,.F.);
#520=ADVANCED_FACE('',(#66),#492,.F.);
#521=ADVANCED_FACE('',(#67,#24),#493,.F.);
#522=CLOSED_SHELL('',(#494,#495,#496,#497,#498,#499,#500,#501,#502,#503,
#504,#505,#506,#507,#508,#509,#510,#511,#512,#513,#514,#515,#516,#517,#518,
#519,#520,#521));
#523=DERIVED_UNIT_ELEMENT(#525,1.);
#524=DERIVED_UNIT_ELEMENT(#875,-3.);
#525=(
MASS_UNIT()
NAMED_UNIT(*)
SI_UNIT(.KILO.,.GRAM.)
);
#526=DERIVED_UNIT((#523,#524));
#527=MEASURE_REPRESENTATION_ITEM('density measure',
POSITIVE_RATIO_MEASURE(7850.),#526);
#528=PROPERTY_DEFINITION_REPRESENTATION(#533,#530);
#529=PROPERTY_DEFINITION_REPRESENTATION(#534,#531);
#530=REPRESENTATION('material name',(#532),#872);
#531=REPRESENTATION('density',(#527),#872);
#532=DESCRIPTIVE_REPRESENTATION_ITEM('Steel','Steel');
#533=PROPERTY_DEFINITION('material property','material name',#882);
#534=PROPERTY_DEFINITION('material property','density of part',#882);
#535=AXIS2_PLACEMENT_3D('',#723,#579,#580);
#536=AXIS2_PLACEMENT_3D('',#724,#581,#582);
#537=AXIS2_PLACEMENT_3D('',#733,#587,#588);
#538=AXIS2_PLACEMENT_3D('',#742,#593,#594);
#539=AXIS2_PLACEMENT_3D('',#743,#595,#596);
#540=AXIS2_PLACEMENT_3D('',#744,#597,#598);
#541=AXIS2_PLACEMENT_3D('',#746,#599,#600);
#542=AXIS2_PLACEMENT_3D('',#747,#601,#602);
#543=AXIS2_PLACEMENT_3D('',#749,#603,#604);
#544=AXIS2_PLACEMENT_3D('',#754,#607,#608);
#545=AXIS2_PLACEMENT_3D('',#755,#609,#610);
#546=AXIS2_PLACEMENT_3D('',#757,#611,#612);
#547=AXIS2_PLACEMENT_3D('',#760,#614,#615);
#548=AXIS2_PLACEMENT_3D('',#761,#616,#617);
#549=AXIS2_PLACEMENT_3D('',#763,#619,#620);
#550=AXIS2_PLACEMENT_3D('',#767,#622,#623);
#551=AXIS2_PLACEMENT_3D('',#768,#624,#625);
#552=AXIS2_PLACEMENT_3D('',#772,#628,#629);
#553=AXIS2_PLACEMENT_3D('',#773,#630,#631);
#554=AXIS2_PLACEMENT_3D('',#781,#636,#637);
#555=AXIS2_PLACEMENT_3D('',#783,#638,#639);
#556=AXIS2_PLACEMENT_3D('',#787,#641,#642);
#557=AXIS2_PLACEMENT_3D('',#789,#644,#645);
#558=AXIS2_PLACEMENT_3D('',#791,#647,#648);
#559=AXIS2_PLACEMENT_3D('',#813,#660,#661);
#560=AXIS2_PLACEMENT_3D('',#817,#664,#665);
#561=AXIS2_PLACEMENT_3D('',#819,#666,#667);
#562=AXIS2_PLACEMENT_3D('',#822,#669,#670);
#563=AXIS2_PLACEMENT_3D('',#823,#671,#672);
#564=AXIS2_PLACEMENT_3D('',#824,#673,#674);
#565=AXIS2_PLACEMENT_3D('',#828,#677,#678);
#566=AXIS2_PLACEMENT_3D('',#830,#680,#681);
#567=AXIS2_PLACEMENT_3D('',#832,#682,#683);
#568=AXIS2_PLACEMENT_3D('',#835,#685,#686);
#569=AXIS2_PLACEMENT_3D('',#836,#687,#688);
#570=AXIS2_PLACEMENT_3D('',#837,#689,#690);
#571=AXIS2_PLACEMENT_3D('',#846,#695,#696);
#572=AXIS2_PLACEMENT_3D('',#849,#699,#700);
#573=AXIS2_PLACEMENT_3D('',#851,#702,#703);
#574=AXIS2_PLACEMENT_3D('',#853,#705,#706);
#575=AXIS2_PLACEMENT_3D('',#862,#711,#712);
#576=AXIS2_PLACEMENT_3D('',#865,#715,#716);
#577=AXIS2_PLACEMENT_3D('',#867,#718,#719);
#578=AXIS2_PLACEMENT_3D('',#869,#721,#722);
#579=DIRECTION('axis',(0.,0.,1.));
#580=DIRECTION('refdir',(1.,0.,0.));
#581=DIRECTION('center_axis',(-1.,0.,0.));
#582=DIRECTION('ref_axis',(0.,0.,1.));
#583=DIRECTION('',(0.,0.,1.));
#584=DIRECTION('',(0.,-1.,0.));
#585=DIRECTION('',(0.,0.,-1.));
#586=DIRECTION('',(0.,-1.,0.));
#587=DIRECTION('center_axis',(1.,0.,0.));
#588=DIRECTION('ref_axis',(0.,0.,-1.));
#589=DIRECTION('',(0.,0.,-1.));
#590=DIRECTION('',(0.,1.,0.));
#591=DIRECTION('',(0.,0.,1.));
#592=DIRECTION('',(0.,1.,0.));
#593=DIRECTION('center_axis',(0.,0.,-1.));
#594=DIRECTION('ref_axis',(-1.,0.,0.));
#595=DIRECTION('center_axis',(0.,0.,-1.));
#596=DIRECTION('ref_axis',(1.,0.,0.));
#597=DIRECTION('center_axis',(0.,0.,-1.));
#598=DIRECTION('ref_axis',(1.,0.,0.));
#599=DIRECTION('center_axis',(0.,0.,-1.));
#600=DIRECTION('ref_axis',(1.,0.,0.));
#601=DIRECTION('center_axis',(0.,0.,1.));
#602=DIRECTION('ref_axis',(1.,0.,0.));
#603=DIRECTION('center_axis',(0.,0.,1.));
#604=DIRECTION('ref_axis',(1.,0.,0.));
#605=DIRECTION('',(0.,1.,0.));
#606=DIRECTION('',(1.,0.,0.));
#607=DIRECTION('center_axis',(0.,0.,-1.));
#608=DIRECTION('ref_axis',(1.,0.,0.));
#609=DIRECTION('center_axis',(0.,0.,1.));
#610=DIRECTION('ref_axis',(1.,0.,0.));
#611=DIRECTION('center_axis',(0.,0.,1.));
#612=DIRECTION('ref_axis',(1.,0.,0.));
#613=DIRECTION('',(0.,0.,1.));
#614=DIRECTION('center_axis',(0.,0.,-1.));
#615=DIRECTION('ref_axis',(1.,0.,0.));
#616=DIRECTION('center_axis',(0.,0.,1.));
#617=DIRECTION('ref_axis',(1.,0.,0.));
#618=DIRECTION('',(-0.706898839197036,-8.65701400743629E-17,0.707314662043622));
#619=DIRECTION('center_axis',(0.,0.,1.));
#620=DIRECTION('ref_axis',(1.,0.,0.));
#621=DIRECTION('',(1.,0.,0.));
#622=DIRECTION('center_axis',(0.,0.,1.));
#623=DIRECTION('ref_axis',(1.,0.,0.));
#624=DIRECTION('center_axis',(0.,0.,1.));
#625=DIRECTION('ref_axis',(-1.83697019872103E-16,1.,0.));
#626=DIRECTION('',(0.,0.,-1.));
#627=DIRECTION('',(0.,0.,1.));
#628=DIRECTION('center_axis',(0.,0.,-1.));
#629=DIRECTION('ref_axis',(1.,0.,0.));
#630=DIRECTION('center_axis',(0.,1.,0.));
#631=DIRECTION('ref_axis',(0.,0.,1.));
#632=DIRECTION('',(0.,0.,-1.));
#633=DIRECTION('',(1.,0.,0.));
#634=DIRECTION('',(0.,0.,-1.));
#635=DIRECTION('',(1.,0.,0.));
#636=DIRECTION('center_axis',(0.,0.,1.));
#637=DIRECTION('ref_axis',(6.12323399573677E-17,-1.,0.));
#638=DIRECTION('center_axis',(0.,0.,1.));
#639=DIRECTION('ref_axis',(1.,0.,0.));
#640=DIRECTION('',(0.,0.,1.));
#641=DIRECTION('center_axis',(0.,0.,-1.));
#642=DIRECTION('ref_axis',(1.,0.,0.));
#643=DIRECTION('',(0.,0.,-1.));
#644=DIRECTION('center_axis',(0.,0.,1.));
#645=DIRECTION('ref_axis',(1.,0.,0.));
#646=DIRECTION('',(0.,-1.,0.));
#647=DIRECTION('center_axis',(0.,0.,1.));
#648=DIRECTION('ref_axis',(1.,0.,0.));
#649=DIRECTION('',(0.,1.,0.));
#650=DIRECTION('',(-1.,0.,0.));
#651=DIRECTION('',(0.,-1.,0.));
#652=DIRECTION('',(1.,0.,0.));
#653=DIRECTION('',(0.,1.,0.));
#654=DIRECTION('',(-1.,0.,0.));
#655=DIRECTION('',(0.,1.,0.));
#656=DIRECTION('',(1.,0.,0.));
#657=DIRECTION('',(0.,1.,0.));
#658=DIRECTION('',(-1.,0.,0.));
#659=DIRECTION('',(0.,-1.,0.));
#660=DIRECTION('center_axis',(1.,0.,0.));
#661=DIRECTION('ref_axis',(0.,0.,-1.));
#662=DIRECTION('',(0.,-1.,0.));
#663=DIRECTION('',(0.,0.,-1.));
#664=DIRECTION('center_axis',(0.,0.,1.));
#665=DIRECTION('ref_axis',(1.,0.,0.));
#666=DIRECTION('center_axis',(0.,0.,-1.));
#667=DIRECTION('ref_axis',(1.,0.,0.));
#668=DIRECTION('',(0.,0.,1.));
#669=DIRECTION('center_axis',(0.,0.,-1.));
#670=DIRECTION('ref_axis',(1.,0.,0.));
#671=DIRECTION('center_axis',(0.,0.,-1.));
#672=DIRECTION('ref_axis',(-1.,0.,0.));
#673=DIRECTION('center_axis',(0.,0.,1.));
#674=DIRECTION('ref_axis',(1.,0.,0.));
#675=DIRECTION('',(0.,1.,0.));
#676=DIRECTION('',(-1.,0.,0.));
#677=DIRECTION('center_axis',(-1.,0.,0.));
#678=DIRECTION('ref_axis',(0.,0.,1.));
#679=DIRECTION('',(0.,0.,-1.));
#680=DIRECTION('center_axis',(1.,0.,0.));
#681=DIRECTION('ref_axis',(0.,0.,-1.));
#682=DIRECTION('center_axis',(-1.,0.,0.));
#683=DIRECTION('ref_axis',(0.,0.,-1.));
#684=DIRECTION('',(1.,0.,0.));
#685=DIRECTION('center_axis',(-1.,0.,0.));
#686=DIRECTION('ref_axis',(0.,0.,-1.));
#687=DIRECTION('center_axis',(-1.,0.,0.));
#688=DIRECTION('ref_axis',(0.,0.,1.));
#689=DIRECTION('center_axis',(0.,0.,1.));
#690=DIRECTION('ref_axis',(1.,0.,0.));
#691=DIRECTION('',(0.,1.,0.));
#692=DIRECTION('',(-1.,0.,0.));
#693=DIRECTION('',(0.,-1.,0.));
#694=DIRECTION('',(1.,0.,0.));
#695=DIRECTION('center_axis',(0.,1.,0.));
#696=DIRECTION('ref_axis',(0.,0.,1.));
#697=DIRECTION('',(0.,0.,-1.));
#698=DIRECTION('',(0.,0.,-1.));
#699=DIRECTION('center_axis',(1.,0.,0.));
#700=DIRECTION('ref_axis',(0.,0.,-1.));
#701=DIRECTION('',(0.,0.,-1.));
#702=DIRECTION('center_axis',(0.,-1.,0.));
#703=DIRECTION('ref_axis',(0.,0.,-1.));
#704=DIRECTION('',(0.,0.,-1.));
#705=DIRECTION('center_axis',(0.,0.,1.));
#706=DIRECTION('ref_axis',(1.,0.,0.));
#707=DIRECTION('',(0.,-1.,0.));
#708=DIRECTION('',(-1.,0.,0.));
#709=DIRECTION('',(0.,1.,0.));
#710=DIRECTION('',(1.,0.,0.));
#711=DIRECTION('center_axis',(0.,1.,0.));
#712=DIRECTION('ref_axis',(0.,0.,1.));
#713=DIRECTION('',(0.,0.,-1.));
#714=DIRECTION('',(0.,0.,-1.));
#715=DIRECTION('center_axis',(1.,0.,0.));
#716=DIRECTION('ref_axis',(0.,0.,-1.));
#717=DIRECTION('',(0.,0.,-1.));
#718=DIRECTION('center_axis',(0.,-1.,0.));
#719=DIRECTION('ref_axis',(0.,0.,-1.));
#720=DIRECTION('',(0.,0.,-1.));
#721=DIRECTION('center_axis',(-1.,0.,0.));
#722=DIRECTION('ref_axis',(0.,0.,1.));
#723=CARTESIAN_POINT('',(0.,0.,0.));
#724=CARTESIAN_POINT('Origin',(9.4,-8.55,2.4));
#725=CARTESIAN_POINT('',(9.4,-8.00799361021957,1.4));
#726=CARTESIAN_POINT('',(9.4,-8.00799361021957,2.4));
#727=CARTESIAN_POINT('',(9.4,-8.00799361021957,2.4));
#728=CARTESIAN_POINT('',(9.4,-9.34744042902334,1.4));
#729=CARTESIAN_POINT('',(9.4,-8.55,1.4));
#730=CARTESIAN_POINT('',(9.4,-9.34744042902334,2.4));
#731=CARTESIAN_POINT('',(9.4,-9.34744042902334,1.2));
#732=CARTESIAN_POINT('',(9.4,-5.775,2.4));
#733=CARTESIAN_POINT('Origin',(6.6,-8.55,2.4));
#734=CARTESIAN_POINT('',(6.6,-8.00799361021957,2.4));
#735=CARTESIAN_POINT('',(6.6,-8.00799361021957,1.4));
#736=CARTESIAN_POINT('',(6.6,-8.00799361021957,2.4));
#737=CARTESIAN_POINT('',(6.6,-9.34744042902334,2.4));
#738=CARTESIAN_POINT('',(6.6,-5.775,2.4));
#739=CARTESIAN_POINT('',(6.6,-9.34744042902334,1.4));
#740=CARTESIAN_POINT('',(6.6,-9.34744042902334,1.2));
#741=CARTESIAN_POINT('',(6.6,-8.55,1.4));
#742=CARTESIAN_POINT('Origin',(8.,-3.,1.4));
#743=CARTESIAN_POINT('Origin',(8.,-3.,1.4));
#744=CARTESIAN_POINT('Origin',(8.,-3.,1.4));
#745=CARTESIAN_POINT('',(4.60099941211052,-3.,1.4));
#746=CARTESIAN_POINT('Origin',(8.,-3.,1.4));
#747=CARTESIAN_POINT('Origin',(8.,-3.,2.4));
#748=CARTESIAN_POINT('',(12.5,1.69041575982343,2.4));
#749=CARTESIAN_POINT('Origin',(8.,-3.,2.4));
#750=CARTESIAN_POINT('',(12.5,1.,2.4));
#751=CARTESIAN_POINT('',(12.5,1.25,2.4));
#752=CARTESIAN_POINT('',(11.3226495451672,1.,2.4));
#753=CARTESIAN_POINT('',(8.,1.,2.4));
#754=CARTESIAN_POINT('Origin',(8.,-3.,2.4));
#755=CARTESIAN_POINT('Origin',(8.,-3.,-1.4495));
#756=CARTESIAN_POINT('',(6.3,-3.,-1.6));
#757=CARTESIAN_POINT('Origin',(8.,-3.,-1.6));
#758=CARTESIAN_POINT('',(6.3,-3.,-0.3));
#759=CARTESIAN_POINT('',(6.3,-3.,-1.4495));
#760=CARTESIAN_POINT('Origin',(8.,-3.,-0.3));
#761=CARTESIAN_POINT('Origin',(8.,-3.,0.5505));
#762=CARTESIAN_POINT('',(5.45,-3.,0.5505));
#763=CARTESIAN_POINT('Origin',(8.,-3.,3.4));
#764=CARTESIAN_POINT('',(4.67735045483277,1.,3.4));
#765=CARTESIAN_POINT('',(11.3226495451672,1.,3.4));
#766=CARTESIAN_POINT('',(8.,1.,3.4));
#767=CARTESIAN_POINT('Origin',(8.,-3.,3.4));
#768=CARTESIAN_POINT('Origin',(8.,-3.,2.4));
#769=CARTESIAN_POINT('',(11.3226495451672,1.,2.4));
#770=CARTESIAN_POINT('',(4.67735045483277,1.,2.4));
#771=CARTESIAN_POINT('',(4.67735045483277,1.,2.4));
#772=CARTESIAN_POINT('Origin',(8.,-3.,2.4));
#773=CARTESIAN_POINT('Origin',(8.,1.,3.15));
#774=CARTESIAN_POINT('',(12.5,1.,6.3));
#775=CARTESIAN_POINT('',(12.5,1.,3.15));
#776=CARTESIAN_POINT('',(3.5,1.,6.3));
#777=CARTESIAN_POINT('',(8.,1.,6.3));
#778=CARTESIAN_POINT('',(3.5,1.,2.4));
#779=CARTESIAN_POINT('',(3.5,1.,3.15));
#780=CARTESIAN_POINT('',(8.,1.,2.4));
#781=CARTESIAN_POINT('Origin',(8.,-3.,1.2));
#782=CARTESIAN_POINT('',(3.5,1.69041575982343,2.4));
#783=CARTESIAN_POINT('Origin',(8.,-3.,2.4));
#784=CARTESIAN_POINT('',(3.5,1.69041575982343,0.));
#785=CARTESIAN_POINT('',(3.5,1.69041575982343,1.2));
#786=CARTESIAN_POINT('',(12.5,1.69041575982343,0.));
#787=CARTESIAN_POINT('Origin',(8.,-3.,0.));
#788=CARTESIAN_POINT('',(12.5,1.69041575982343,1.2));
#789=CARTESIAN_POINT('Origin',(8.,-3.,2.4));
#790=CARTESIAN_POINT('',(3.5,1.25,2.4));
#791=CARTESIAN_POINT('Origin',(13.,0.,0.));
#792=CARTESIAN_POINT('',(3.5,10.,0.));
#793=CARTESIAN_POINT('',(3.5,2.75,0.));
#794=CARTESIAN_POINT('',(0.,10.,0.));
#795=CARTESIAN_POINT('',(13.,10.,0.));
#796=CARTESIAN_POINT('',(0.,-10.,0.));
#797=CARTESIAN_POINT('',(0.,0.,0.));
#798=CARTESIAN_POINT('',(26.,-10.,0.));
#799=CARTESIAN_POINT('',(13.,-10.,0.));
#800=CARTESIAN_POINT('',(26.,-4.,0.));
#801=CARTESIAN_POINT('',(26.,0.,0.));
#802=CARTESIAN_POINT('',(19.,-4.,0.));
#803=CARTESIAN_POINT('',(17.75,-4.,0.));
#804=CARTESIAN_POINT('',(19.,4.,0.));
#805=CARTESIAN_POINT('',(19.,0.,0.));
#806=CARTESIAN_POINT('',(26.,4.,0.));
#807=CARTESIAN_POINT('',(17.75,4.,0.));
#808=CARTESIAN_POINT('',(26.,10.,0.));
#809=CARTESIAN_POINT('',(26.,0.,0.));
#810=CARTESIAN_POINT('',(12.5,10.,0.));
#811=CARTESIAN_POINT('',(13.,10.,0.));
#812=CARTESIAN_POINT('',(12.5,2.75,0.));
#813=CARTESIAN_POINT('Origin',(3.5,5.5,3.15));
#814=CARTESIAN_POINT('',(3.5,10.,6.3));
#815=CARTESIAN_POINT('',(3.5,5.5,6.3));
#816=CARTESIAN_POINT('',(3.5,10.,3.15));
#817=CARTESIAN_POINT('Origin',(8.,5.5,4.3));
#818=CARTESIAN_POINT('',(6.,5.5,1.3));
#819=CARTESIAN_POINT('Origin',(8.,5.5,1.3));
#820=CARTESIAN_POINT('',(6.,5.5,6.3));
#821=CARTESIAN_POINT('',(6.,5.5,4.3));
#822=CARTESIAN_POINT('Origin',(8.,5.5,6.3));
#823=CARTESIAN_POINT('Origin',(8.,5.5,1.3));
#824=CARTESIAN_POINT('Origin',(8.,5.5,6.3));
#825=CARTESIAN_POINT('',(12.5,10.,6.3));
#826=CARTESIAN_POINT('',(12.5,5.5,6.3));
#827=CARTESIAN_POINT('',(8.,10.,6.3));
#828=CARTESIAN_POINT('Origin',(12.5,5.5,3.15));
#829=CARTESIAN_POINT('',(12.5,10.,3.15));
#830=CARTESIAN_POINT('Origin',(23.8,0.,8.5));
#831=CARTESIAN_POINT('',(20.6,-2.44929359829471E-16,10.5));
#832=CARTESIAN_POINT('Origin',(20.6,0.,8.5));
#833=CARTESIAN_POINT('',(26.,2.44929359829471E-16,10.5));
#834=CARTESIAN_POINT('',(23.8,-2.44929359829471E-16,10.5));
#835=CARTESIAN_POINT('Origin',(26.,0.,8.5));
#836=CARTESIAN_POINT('Origin',(20.6,0.,8.5));
#837=CARTESIAN_POINT('Origin',(22.5,0.,12.2));
#838=CARTESIAN_POINT('',(26.,-4.,12.2));
#839=CARTESIAN_POINT('',(26.,4.,12.2));
#840=CARTESIAN_POINT('',(26.,0.,12.2));
#841=CARTESIAN_POINT('',(19.,4.,12.2));
#842=CARTESIAN_POINT('',(22.5,4.,12.2));
#843=CARTESIAN_POINT('',(19.,-4.,12.2));
#844=CARTESIAN_POINT('',(19.,0.,12.2));
#845=CARTESIAN_POINT('',(22.5,-4.,12.2));
#846=CARTESIAN_POINT('Origin',(22.5,-4.,6.1));
#847=CARTESIAN_POINT('',(19.,-4.,6.1));
#848=CARTESIAN_POINT('',(26.,-4.,6.1));
#849=CARTESIAN_POINT('Origin',(19.,0.,6.1));
#850=CARTESIAN_POINT('',(19.,4.,6.1));
#851=CARTESIAN_POINT('Origin',(22.5,4.,6.1));
#852=CARTESIAN_POINT('',(26.,4.,6.1));
#853=CARTESIAN_POINT('Origin',(13.,0.,-1.6));
#854=CARTESIAN_POINT('',(26.,10.,-1.6));
#855=CARTESIAN_POINT('',(26.,-10.,-1.6));
#856=CARTESIAN_POINT('',(26.,0.,-1.6));
#857=CARTESIAN_POINT('',(0.,-10.,-1.6));
#858=CARTESIAN_POINT('',(13.,-10.,-1.6));
#859=CARTESIAN_POINT('',(0.,10.,-1.6));
#860=CARTESIAN_POINT('',(0.,0.,-1.6));
#861=CARTESIAN_POINT('',(13.,10.,-1.6));
#862=CARTESIAN_POINT('Origin',(13.,-10.,-0.8));
#863=CARTESIAN_POINT('',(0.,-10.,-0.8));
#864=CARTESIAN_POINT('',(26.,-10.,-0.8));
#865=CARTESIAN_POINT('Origin',(0.,0.,-0.8));
#866=CARTESIAN_POINT('',(0.,10.,-0.8));
#867=CARTESIAN_POINT('Origin',(13.,10.,-0.8));
#868=CARTESIAN_POINT('',(26.,10.,-0.8));
#869=CARTESIAN_POINT('Origin',(26.,0.,-0.8));
#870=UNCERTAINTY_MEASURE_WITH_UNIT(LENGTH_MEASURE(0.01),#874,
'DISTANCE_ACCURACY_VALUE',
'Maximum model space distance between geometric entities at asserted c
onnectivities');
#871=UNCERTAINTY_MEASURE_WITH_UNIT(LENGTH_MEASURE(0.01),#874,
'DISTANCE_ACCURACY_VALUE',
'Maximum model space distance between geometric entities at asserted c
onnectivities');
#872=(
GEOMETRIC_REPRESENTATION_CONTEXT(3)
GLOBAL_UNCERTAINTY_ASSIGNED_CONTEXT((#870))
GLOBAL_UNIT_ASSIGNED_CONTEXT((#874,#876,#877))
REPRESENTATION_CONTEXT('','3D')
);
#873=(
GEOMETRIC_REPRESENTATION_CONTEXT(3)
GLOBAL_UNCERTAINTY_ASSIGNED_CONTEXT((#871))
GLOBAL_UNIT_ASSIGNED_CONTEXT((#874,#876,#877))
REPRESENTATION_CONTEXT('','3D')
);
#874=(
LENGTH_UNIT()
NAMED_UNIT(*)
SI_UNIT(.MILLI.,.METRE.)
);
#875=(
LENGTH_UNIT()
NAMED_UNIT(*)
SI_UNIT($,.METRE.)
);
#876=(
NAMED_UNIT(*)
PLANE_ANGLE_UNIT()
SI_UNIT($,.RADIAN.)
);
#877=(
NAMED_UNIT(*)
SI_UNIT($,.STERADIAN.)
SOLID_ANGLE_UNIT()
);
#878=SHAPE_DEFINITION_REPRESENTATION(#879,#880);
#879=PRODUCT_DEFINITION_SHAPE('',$,#882);
#880=SHAPE_REPRESENTATION('',(#535),#872);
#881=PRODUCT_DEFINITION_CONTEXT('part definition',#886,'design');
#882=PRODUCT_DEFINITION('Insert_Fastener_Coupon',
'Insert_Fastener_Coupon',#883,#881);
#883=PRODUCT_DEFINITION_FORMATION('',$,#888);
#884=PRODUCT_RELATED_PRODUCT_CATEGORY('Insert_Fastener_Coupon',
'Insert_Fastener_Coupon',(#888));
#885=APPLICATION_PROTOCOL_DEFINITION('international standard',
'automotive_design',2009,#886);
#886=APPLICATION_CONTEXT(
'Core Data for Automotive Mechanical Design Process');
#887=PRODUCT_CONTEXT('part definition',#886,'mechanical');
#888=PRODUCT('Insert_Fastener_Coupon','Insert_Fastener_Coupon',
'PROTOTYPE TOOL. Not a production part; excluded from the specificatio
n section 9 material gates.',(#887));
#889=PRESENTATION_STYLE_ASSIGNMENT((#890));
#890=SURFACE_STYLE_USAGE(.BOTH.,#891);
#891=SURFACE_SIDE_STYLE('',(#892));
#892=SURFACE_STYLE_FILL_AREA(#893);
#893=FILL_AREA_STYLE('Steel - Satin',(#894));
#894=FILL_AREA_STYLE_COLOUR('Steel - Satin',#895);
#895=COLOUR_RGB('Steel - Satin',0.627450980392157,0.627450980392157,0.627450980392157);
ENDSEC;
END-ISO-10303-21;
