ISO-10303-21;
HEADER;
/* Generated by software containing ST-Developer
 * from STEP Tools, Inc. (www.steptools.com) 
 */

FILE_DESCRIPTION(
/* description */ (''),
/* implementation_level */ '2;1');

FILE_NAME(
/* name */ 'ESP32_Controller_Cabinet_Fastener_Cap.step',
/* time_stamp */ '2026-09-06T12:56:05+01:00',
/* author */ (''),
/* organization */ (''),
/* preprocessor_version */ 'ST-DEVELOPER v20.1',
/* originating_system */ 'Autodesk Translation Framework v15.8.0.0',
/* authorisation */ '');

FILE_SCHEMA (('AUTOMOTIVE_DESIGN { 1 0 10303 214 3 1 1 }'));
ENDSEC;

DATA;
#10=MECHANICAL_DESIGN_GEOMETRIC_PRESENTATION_REPRESENTATION('',(#13),#296);
#11=SHAPE_REPRESENTATION_RELATIONSHIP('SRR','None',#303,#12);
#12=ADVANCED_BREP_SHAPE_REPRESENTATION('',(#14),#295);
#13=STYLED_ITEM('',(#312),#14);
#14=MANIFOLD_SOLID_BREP('ESP32_Controller_Cabinet_Fastener_Cap',#156);
#15=PLANE('',#173);
#16=PLANE('',#186);
#17=PLANE('',#190);
#18=PLANE('',#191);
#19=PLANE('',#192);
#20=FACE_OUTER_BOUND('',#29,.T.);
#21=FACE_OUTER_BOUND('',#30,.T.);
#22=FACE_OUTER_BOUND('',#31,.T.);
#23=FACE_OUTER_BOUND('',#32,.T.);
#24=FACE_OUTER_BOUND('',#33,.T.);
#25=FACE_OUTER_BOUND('',#34,.T.);
#26=FACE_OUTER_BOUND('',#35,.T.);
#27=FACE_OUTER_BOUND('',#36,.T.);
#28=FACE_OUTER_BOUND('',#37,.T.);
#29=EDGE_LOOP('',(#101,#102,#103,#104));
#30=EDGE_LOOP('',(#105,#106));
#31=EDGE_LOOP('',(#107,#108,#109,#110,#111,#112,#113,#114,#115,#116,#117,
#118,#119,#120,#121,#122));
#32=EDGE_LOOP('',(#123,#124,#125,#126));
#33=EDGE_LOOP('',(#127,#128));
#34=EDGE_LOOP('',(#129,#130,#131,#132));
#35=EDGE_LOOP('',(#133,#134));
#36=EDGE_LOOP('',(#135));
#37=EDGE_LOOP('',(#136,#137,#138,#139,#140,#141,#142));
#38=CIRCLE('',#171,0.9);
#39=CIRCLE('',#172,0.9);
#40=CIRCLE('',#174,5.05);
#41=CIRCLE('',#176,5.05);
#42=CIRCLE('',#177,5.05);
#43=CIRCLE('',#178,5.05);
#44=CIRCLE('',#179,5.05);
#45=CIRCLE('',#180,5.05);
#46=CIRCLE('',#181,5.05);
#47=CIRCLE('',#182,5.05);
#48=CIRCLE('',#184,0.9);
#49=CIRCLE('',#185,0.9);
#50=CIRCLE('',#188,0.9);
#51=CIRCLE('',#189,0.9);
#52=LINE('',#252,#59);
#53=LINE('',#256,#60);
#54=LINE('',#264,#61);
#55=LINE('',#269,#62);
#56=LINE('',#273,#63);
#57=LINE('',#277,#64);
#58=LINE('',#281,#65);
#59=VECTOR('',#197,10.);
#60=VECTOR('',#200,10.);
#61=VECTOR('',#211,5.05);
#62=VECTOR('',#216,10.);
#63=VECTOR('',#219,10.);
#64=VECTOR('',#222,10.);
#65=VECTOR('',#225,10.);
#66=VERTEX_POINT('',#250);
#67=VERTEX_POINT('',#251);
#68=VERTEX_POINT('',#253);
#69=VERTEX_POINT('',#255);
#70=VERTEX_POINT('',#261);
#71=VERTEX_POINT('',#263);
#72=VERTEX_POINT('',#266);
#73=VERTEX_POINT('',#268);
#74=VERTEX_POINT('',#270);
#75=VERTEX_POINT('',#272);
#76=VERTEX_POINT('',#274);
#77=VERTEX_POINT('',#276);
#78=VERTEX_POINT('',#278);
#79=VERTEX_POINT('',#280);
#80=EDGE_CURVE('',#66,#67,#52,.T.);
#81=EDGE_CURVE('',#68,#66,#38,.T.);
#82=EDGE_CURVE('',#69,#68,#53,.T.);
#83=EDGE_CURVE('',#67,#69,#39,.T.);
#84=EDGE_CURVE('',#67,#69,#40,.T.);
#85=EDGE_CURVE('',#70,#68,#41,.T.);
#86=EDGE_CURVE('',#70,#71,#54,.T.);
#87=EDGE_CURVE('',#71,#71,#42,.T.);
#88=EDGE_CURVE('',#72,#70,#43,.T.);
#89=EDGE_CURVE('',#72,#73,#55,.T.);
#90=EDGE_CURVE('',#73,#74,#44,.T.);
#91=EDGE_CURVE('',#74,#75,#56,.T.);
#92=EDGE_CURVE('',#76,#75,#45,.T.);
#93=EDGE_CURVE('',#76,#77,#57,.T.);
#94=EDGE_CURVE('',#77,#78,#46,.T.);
#95=EDGE_CURVE('',#78,#79,#58,.T.);
#96=EDGE_CURVE('',#66,#79,#47,.T.);
#97=EDGE_CURVE('',#75,#72,#48,.T.);
#98=EDGE_CURVE('',#73,#74,#49,.T.);
#99=EDGE_CURVE('',#79,#76,#50,.T.);
#100=EDGE_CURVE('',#77,#78,#51,.T.);
#101=ORIENTED_EDGE('',*,*,#80,.F.);
#102=ORIENTED_EDGE('',*,*,#81,.F.);
#103=ORIENTED_EDGE('',*,*,#82,.F.);
#104=ORIENTED_EDGE('',*,*,#83,.F.);
#105=ORIENTED_EDGE('',*,*,#84,.F.);
#106=ORIENTED_EDGE('',*,*,#83,.T.);
#107=ORIENTED_EDGE('',*,*,#80,.T.);
#108=ORIENTED_EDGE('',*,*,#84,.T.);
#109=ORIENTED_EDGE('',*,*,#82,.T.);
#110=ORIENTED_EDGE('',*,*,#85,.F.);
#111=ORIENTED_EDGE('',*,*,#86,.T.);
#112=ORIENTED_EDGE('',*,*,#87,.F.);
#113=ORIENTED_EDGE('',*,*,#86,.F.);
#114=ORIENTED_EDGE('',*,*,#88,.F.);
#115=ORIENTED_EDGE('',*,*,#89,.T.);
#116=ORIENTED_EDGE('',*,*,#90,.T.);
#117=ORIENTED_EDGE('',*,*,#91,.T.);
#118=ORIENTED_EDGE('',*,*,#92,.F.);
#119=ORIENTED_EDGE('',*,*,#93,.T.);
#120=ORIENTED_EDGE('',*,*,#94,.T.);
#121=ORIENTED_EDGE('',*,*,#95,.T.);
#122=ORIENTED_EDGE('',*,*,#96,.F.);
#123=ORIENTED_EDGE('',*,*,#89,.F.);
#124=ORIENTED_EDGE('',*,*,#97,.F.);
#125=ORIENTED_EDGE('',*,*,#91,.F.);
#126=ORIENTED_EDGE('',*,*,#98,.F.);
#127=ORIENTED_EDGE('',*,*,#90,.F.);
#128=ORIENTED_EDGE('',*,*,#98,.T.);
#129=ORIENTED_EDGE('',*,*,#93,.F.);
#130=ORIENTED_EDGE('',*,*,#99,.F.);
#131=ORIENTED_EDGE('',*,*,#95,.F.);
#132=ORIENTED_EDGE('',*,*,#100,.F.);
#133=ORIENTED_EDGE('',*,*,#94,.F.);
#134=ORIENTED_EDGE('',*,*,#100,.T.);
#135=ORIENTED_EDGE('',*,*,#87,.T.);
#136=ORIENTED_EDGE('',*,*,#96,.T.);
#137=ORIENTED_EDGE('',*,*,#99,.T.);
#138=ORIENTED_EDGE('',*,*,#92,.T.);
#139=ORIENTED_EDGE('',*,*,#97,.T.);
#140=ORIENTED_EDGE('',*,*,#88,.T.);
#141=ORIENTED_EDGE('',*,*,#85,.T.);
#142=ORIENTED_EDGE('',*,*,#81,.T.);
#143=CYLINDRICAL_SURFACE('',#170,0.9);
#144=CYLINDRICAL_SURFACE('',#175,5.05);
#145=CYLINDRICAL_SURFACE('',#183,0.9);
#146=CYLINDRICAL_SURFACE('',#187,0.9);
#147=ADVANCED_FACE('',(#20),#143,.T.);
#148=ADVANCED_FACE('',(#21),#15,.T.);
#149=ADVANCED_FACE('',(#22),#144,.T.);
#150=ADVANCED_FACE('',(#23),#145,.T.);
#151=ADVANCED_FACE('',(#24),#16,.T.);
#152=ADVANCED_FACE('',(#25),#146,.T.);
#153=ADVANCED_FACE('',(#26),#17,.T.);
#154=ADVANCED_FACE('',(#27),#18,.T.);
#155=ADVANCED_FACE('',(#28),#19,.T.);
#156=CLOSED_SHELL('',(#147,#148,#149,#150,#151,#152,#153,#154,#155));
#157=DERIVED_UNIT_ELEMENT(#159,1.);
#158=DERIVED_UNIT_ELEMENT(#298,-3.);
#159=(
MASS_UNIT()
NAMED_UNIT(*)
SI_UNIT(.KILO.,.GRAM.)
);
#160=DERIVED_UNIT((#157,#158));
#161=MEASURE_REPRESENTATION_ITEM('density measure',
POSITIVE_RATIO_MEASURE(7850.),#160);
#162=PROPERTY_DEFINITION_REPRESENTATION(#167,#164);
#163=PROPERTY_DEFINITION_REPRESENTATION(#168,#165);
#164=REPRESENTATION('material name',(#166),#295);
#165=REPRESENTATION('density',(#161),#295);
#166=DESCRIPTIVE_REPRESENTATION_ITEM('Steel','Steel');
#167=PROPERTY_DEFINITION('material property','material name',#305);
#168=PROPERTY_DEFINITION('material property','density of part',#305);
#169=AXIS2_PLACEMENT_3D('',#248,#193,#194);
#170=AXIS2_PLACEMENT_3D('',#249,#195,#196);
#171=AXIS2_PLACEMENT_3D('',#254,#198,#199);
#172=AXIS2_PLACEMENT_3D('',#257,#201,#202);
#173=AXIS2_PLACEMENT_3D('',#258,#203,#204);
#174=AXIS2_PLACEMENT_3D('',#259,#205,#206);
#175=AXIS2_PLACEMENT_3D('',#260,#207,#208);
#176=AXIS2_PLACEMENT_3D('',#262,#209,#210);
#177=AXIS2_PLACEMENT_3D('',#265,#212,#213);
#178=AXIS2_PLACEMENT_3D('',#267,#214,#215);
#179=AXIS2_PLACEMENT_3D('',#271,#217,#218);
#180=AXIS2_PLACEMENT_3D('',#275,#220,#221);
#181=AXIS2_PLACEMENT_3D('',#279,#223,#224);
#182=AXIS2_PLACEMENT_3D('',#282,#226,#227);
#183=AXIS2_PLACEMENT_3D('',#283,#228,#229);
#184=AXIS2_PLACEMENT_3D('',#284,#230,#231);
#185=AXIS2_PLACEMENT_3D('',#285,#232,#233);
#186=AXIS2_PLACEMENT_3D('',#286,#234,#235);
#187=AXIS2_PLACEMENT_3D('',#287,#236,#237);
#188=AXIS2_PLACEMENT_3D('',#288,#238,#239);
#189=AXIS2_PLACEMENT_3D('',#289,#240,#241);
#190=AXIS2_PLACEMENT_3D('',#290,#242,#243);
#191=AXIS2_PLACEMENT_3D('',#291,#244,#245);
#192=AXIS2_PLACEMENT_3D('',#292,#246,#247);
#193=DIRECTION('axis',(0.,0.,1.));
#194=DIRECTION('refdir',(1.,0.,0.));
#195=DIRECTION('center_axis',(0.,0.,1.));
#196=DIRECTION('ref_axis',(1.,0.,0.));
#197=DIRECTION('',(0.,0.,-1.));
#198=DIRECTION('center_axis',(0.,0.,1.));
#199=DIRECTION('ref_axis',(1.,0.,0.));
#200=DIRECTION('',(0.,0.,1.));
#201=DIRECTION('center_axis',(0.,0.,-1.));
#202=DIRECTION('ref_axis',(1.,0.,0.));
#203=DIRECTION('center_axis',(0.,0.,-1.));
#204=DIRECTION('ref_axis',(-1.,0.,0.));
#205=DIRECTION('center_axis',(0.,0.,-1.));
#206=DIRECTION('ref_axis',(1.,0.,0.));
#207=DIRECTION('center_axis',(0.,0.,1.));
#208=DIRECTION('ref_axis',(1.,0.,0.));
#209=DIRECTION('center_axis',(0.,0.,1.));
#210=DIRECTION('ref_axis',(1.,0.,0.));
#211=DIRECTION('',(0.,0.,-1.));
#212=DIRECTION('center_axis',(0.,0.,-1.));
#213=DIRECTION('ref_axis',(1.,0.,0.));
#214=DIRECTION('center_axis',(0.,0.,1.));
#215=DIRECTION('ref_axis',(1.,0.,0.));
#216=DIRECTION('',(0.,0.,-1.));
#217=DIRECTION('center_axis',(0.,0.,-1.));
#218=DIRECTION('ref_axis',(1.,0.,0.));
#219=DIRECTION('',(0.,0.,1.));
#220=DIRECTION('center_axis',(0.,0.,1.));
#221=DIRECTION('ref_axis',(1.,0.,0.));
#222=DIRECTION('',(0.,0.,-1.));
#223=DIRECTION('center_axis',(0.,0.,-1.));
#224=DIRECTION('ref_axis',(1.,0.,0.));
#225=DIRECTION('',(0.,0.,1.));
#226=DIRECTION('center_axis',(0.,0.,1.));
#227=DIRECTION('ref_axis',(1.,0.,0.));
#228=DIRECTION('center_axis',(0.,0.,1.));
#229=DIRECTION('ref_axis',(1.,0.,0.));
#230=DIRECTION('center_axis',(0.,0.,1.));
#231=DIRECTION('ref_axis',(1.,0.,0.));
#232=DIRECTION('center_axis',(0.,0.,-1.));
#233=DIRECTION('ref_axis',(1.,0.,0.));
#234=DIRECTION('center_axis',(0.,0.,-1.));
#235=DIRECTION('ref_axis',(-1.,0.,0.));
#236=DIRECTION('center_axis',(0.,0.,1.));
#237=DIRECTION('ref_axis',(1.,0.,0.));
#238=DIRECTION('center_axis',(0.,0.,1.));
#239=DIRECTION('ref_axis',(1.,0.,0.));
#240=DIRECTION('center_axis',(0.,0.,-1.));
#241=DIRECTION('ref_axis',(1.,0.,0.));
#242=DIRECTION('center_axis',(0.,0.,-1.));
#243=DIRECTION('ref_axis',(-1.,0.,0.));
#244=DIRECTION('center_axis',(0.,0.,-1.));
#245=DIRECTION('ref_axis',(-1.,0.,0.));
#246=DIRECTION('center_axis',(0.,0.,1.));
#247=DIRECTION('ref_axis',(1.,0.,0.));
#248=CARTESIAN_POINT('',(0.,0.,0.));
#249=CARTESIAN_POINT('Origin',(-2.21,-3.82783228472722,0.65));
#250=CARTESIAN_POINT('',(-1.90804573970684,-4.67566695297971,1.));
#251=CARTESIAN_POINT('',(-1.90804573970684,-4.67566695297971,0.3));
#252=CARTESIAN_POINT('',(-1.90804573970684,-4.67566695297971,0.65));
#253=CARTESIAN_POINT('',(-3.09522349106239,-3.99024955865865,1.));
#254=CARTESIAN_POINT('Origin',(-2.21,-3.82783228472722,1.));
#255=CARTESIAN_POINT('',(-3.09522349106239,-3.99024955865865,0.3));
#256=CARTESIAN_POINT('',(-3.09522349106239,-3.99024955865865,0.65));
#257=CARTESIAN_POINT('Origin',(-2.21,-3.82783228472722,0.3));
#258=CARTESIAN_POINT('Origin',(-2.21,-3.82783228472722,0.3));
#259=CARTESIAN_POINT('Origin',(0.,0.,0.3));
#260=CARTESIAN_POINT('Origin',(0.,0.,0.5));
#261=CARTESIAN_POINT('',(-5.05,-6.18446633569413E-16,1.));
#262=CARTESIAN_POINT('Origin',(0.,0.,1.));
#263=CARTESIAN_POINT('',(-5.05,-6.18446633569413E-16,0.));
#264=CARTESIAN_POINT('',(-5.05,-6.18446633569413E-16,0.5));
#265=CARTESIAN_POINT('Origin',(0.,0.,0.));
#266=CARTESIAN_POINT('',(-3.09522349106239,3.99024955865865,1.));
#267=CARTESIAN_POINT('Origin',(0.,0.,1.));
#268=CARTESIAN_POINT('',(-3.09522349106239,3.99024955865865,0.3));
#269=CARTESIAN_POINT('',(-3.09522349106239,3.99024955865865,0.65));
#270=CARTESIAN_POINT('',(-1.90804573970684,4.67566695297971,0.3));
#271=CARTESIAN_POINT('Origin',(0.,0.,0.3));
#272=CARTESIAN_POINT('',(-1.90804573970684,4.67566695297971,1.));
#273=CARTESIAN_POINT('',(-1.90804573970684,4.67566695297971,0.65));
#274=CARTESIAN_POINT('',(5.00326923076923,0.685417394321059,1.));
#275=CARTESIAN_POINT('Origin',(0.,0.,1.));
#276=CARTESIAN_POINT('',(5.00326923076923,0.685417394321059,0.3));
#277=CARTESIAN_POINT('',(5.00326923076923,0.685417394321059,0.65));
#278=CARTESIAN_POINT('',(5.00326923076923,-0.685417394321059,0.3));
#279=CARTESIAN_POINT('Origin',(0.,0.,0.3));
#280=CARTESIAN_POINT('',(5.00326923076923,-0.685417394321059,1.));
#281=CARTESIAN_POINT('',(5.00326923076923,-0.685417394321059,0.65));
#282=CARTESIAN_POINT('Origin',(0.,0.,1.));
#283=CARTESIAN_POINT('Origin',(-2.21,3.82783228472722,0.65));
#284=CARTESIAN_POINT('Origin',(-2.21,3.82783228472722,1.));
#285=CARTESIAN_POINT('Origin',(-2.21,3.82783228472722,0.3));
#286=CARTESIAN_POINT('Origin',(-2.21,3.82783228472722,0.3));
#287=CARTESIAN_POINT('Origin',(4.42,0.,0.65));
#288=CARTESIAN_POINT('Origin',(4.42,0.,1.));
#289=CARTESIAN_POINT('Origin',(4.42,0.,0.3));
#290=CARTESIAN_POINT('Origin',(4.42,0.,0.3));
#291=CARTESIAN_POINT('Origin',(0.,0.,0.));
#292=CARTESIAN_POINT('Origin',(0.,0.,1.));
#293=UNCERTAINTY_MEASURE_WITH_UNIT(LENGTH_MEASURE(0.01),#297,
'DISTANCE_ACCURACY_VALUE',
'Maximum model space distance between geometric entities at asserted c
onnectivities');
#294=UNCERTAINTY_MEASURE_WITH_UNIT(LENGTH_MEASURE(0.01),#297,
'DISTANCE_ACCURACY_VALUE',
'Maximum model space distance between geometric entities at asserted c
onnectivities');
#295=(
GEOMETRIC_REPRESENTATION_CONTEXT(3)
GLOBAL_UNCERTAINTY_ASSIGNED_CONTEXT((#293))
GLOBAL_UNIT_ASSIGNED_CONTEXT((#297,#299,#300))
REPRESENTATION_CONTEXT('','3D')
);
#296=(
GEOMETRIC_REPRESENTATION_CONTEXT(3)
GLOBAL_UNCERTAINTY_ASSIGNED_CONTEXT((#294))
GLOBAL_UNIT_ASSIGNED_CONTEXT((#297,#299,#300))
REPRESENTATION_CONTEXT('','3D')
);
#297=(
LENGTH_UNIT()
NAMED_UNIT(*)
SI_UNIT(.MILLI.,.METRE.)
);
#298=(
LENGTH_UNIT()
NAMED_UNIT(*)
SI_UNIT($,.METRE.)
);
#299=(
NAMED_UNIT(*)
PLANE_ANGLE_UNIT()
SI_UNIT($,.RADIAN.)
);
#300=(
NAMED_UNIT(*)
SI_UNIT($,.STERADIAN.)
SOLID_ANGLE_UNIT()
);
#301=SHAPE_DEFINITION_REPRESENTATION(#302,#303);
#302=PRODUCT_DEFINITION_SHAPE('',$,#305);
#303=SHAPE_REPRESENTATION('',(#169),#295);
#304=PRODUCT_DEFINITION_CONTEXT('part definition',#309,'design');
#305=PRODUCT_DEFINITION('Cabinet_Fastener_Caps','Cabinet_Fastener_Caps',
#306,#304);
#306=PRODUCT_DEFINITION_FORMATION('',$,#311);
#307=PRODUCT_RELATED_PRODUCT_CATEGORY('Cabinet_Fastener_Caps',
'Cabinet_Fastener_Caps',(#311));
#308=APPLICATION_PROTOCOL_DEFINITION('international standard',
'automotive_design',2009,#309);
#309=APPLICATION_CONTEXT(
'Core Data for Automotive Mechanical Design Process');
#310=PRODUCT_CONTEXT('part definition',#309,'mechanical');
#311=PRODUCT('Cabinet_Fastener_Caps','Cabinet_Fastener_Caps',$,(#310));
#312=PRESENTATION_STYLE_ASSIGNMENT((#313));
#313=SURFACE_STYLE_USAGE(.BOTH.,#314);
#314=SURFACE_SIDE_STYLE('',(#315));
#315=SURFACE_STYLE_FILL_AREA(#316);
#316=FILL_AREA_STYLE('Steel - Satin',(#317));
#317=FILL_AREA_STYLE_COLOUR('Steel - Satin',#318);
#318=COLOUR_RGB('Steel - Satin',0.627450980392157,0.627450980392157,0.627450980392157);
ENDSEC;
END-ISO-10303-21;
