ISO-10303-21;
HEADER;
/* Generated by software containing ST-Developer
 * from STEP Tools, Inc. (www.steptools.com) 
 */

FILE_DESCRIPTION(
/* description */ (''),
/* implementation_level */ '2;1');

FILE_NAME(
/* name */ 'Front_Bezel.step',
/* time_stamp */ '2026-08-27T14:17:02+01:00',
/* author */ (''),
/* organization */ (''),
/* preprocessor_version */ 'ST-DEVELOPER v20.1',
/* originating_system */ 'Autodesk Translation Framework v15.8.0.0',
/* authorisation */ '');

FILE_SCHEMA (('AUTOMOTIVE_DESIGN { 1 0 10303 214 3 1 1 }'));
ENDSEC;

DATA;
#10=MECHANICAL_DESIGN_GEOMETRIC_PRESENTATION_REPRESENTATION('',(#13),#1767);
#11=SHAPE_REPRESENTATION_RELATIONSHIP('SRR','None',#1774,#12);
#12=ADVANCED_BREP_SHAPE_REPRESENTATION('',(#14),#1766);
#13=STYLED_ITEM('',(#1784),#14);
#14=MANIFOLD_SOLID_BREP('Front_Bezel',#1031);
#15=CONICAL_SURFACE('',#1107,1.05,0.785398163397448);
#16=CONICAL_SURFACE('',#1110,1.05,0.785398163397448);
#17=CONICAL_SURFACE('',#1114,1.05,0.785398163397448);
#18=CONICAL_SURFACE('',#1118,1.05,0.785398163397448);
#19=(
BOUNDED_CURVE()
B_SPLINE_CURVE(2,(#1583,#1584,#1585),.UNSPECIFIED.,.F.,.F.)
B_SPLINE_CURVE_WITH_KNOTS((3,3),(0.262678510731273,0.444174061082967),
 .UNSPECIFIED.)
CURVE()
GEOMETRIC_REPRESENTATION_ITEM()
RATIONAL_B_SPLINE_CURVE((1.9375,1.9375,1.48993702720837))
REPRESENTATION_ITEM('')
);
#20=(
BOUNDED_CURVE()
B_SPLINE_CURVE(2,(#1600,#1601,#1602),.UNSPECIFIED.,.F.,.F.)
B_SPLINE_CURVE_WITH_KNOTS((3,3),(0.0811829603795813,0.262678510731273),
 .UNSPECIFIED.)
CURVE()
GEOMETRIC_REPRESENTATION_ITEM()
RATIONAL_B_SPLINE_CURVE((1.48993702720837,1.9375,1.9375))
REPRESENTATION_ITEM('')
);
#21=(
BOUNDED_CURVE()
B_SPLINE_CURVE(2,(#1611,#1612,#1613),.UNSPECIFIED.,.F.,.F.)
B_SPLINE_CURVE_WITH_KNOTS((3,3),(0.262678510731273,0.444174061082967),
 .UNSPECIFIED.)
CURVE()
GEOMETRIC_REPRESENTATION_ITEM()
RATIONAL_B_SPLINE_CURVE((1.9375,1.9375,1.48993702720837))
REPRESENTATION_ITEM('')
);
#22=(
BOUNDED_CURVE()
B_SPLINE_CURVE(2,(#1618,#1619,#1620),.UNSPECIFIED.,.F.,.F.)
B_SPLINE_CURVE_WITH_KNOTS((3,3),(0.381210015976142,0.385252858005058),
 .UNSPECIFIED.)
CURVE()
GEOMETRIC_REPRESENTATION_ITEM()
RATIONAL_B_SPLINE_CURVE((1.44697186985867,1.44096606847469,1.43478260870297))
REPRESENTATION_ITEM('')
);
#23=(
BOUNDED_CURVE()
B_SPLINE_CURVE(2,(#1627,#1628,#1629),.UNSPECIFIED.,.F.,.F.)
B_SPLINE_CURVE_WITH_KNOTS((3,3),(0.103827912418047,0.107870754447199),
 .UNSPECIFIED.)
CURVE()
GEOMETRIC_REPRESENTATION_ITEM()
RATIONAL_B_SPLINE_CURVE((1.43478260869565,1.44096606846783,1.44697186985226))
REPRESENTATION_ITEM('')
);
#24=(
BOUNDED_CURVE()
B_SPLINE_CURVE(2,(#1653,#1654,#1655),.UNSPECIFIED.,.F.,.F.)
B_SPLINE_CURVE_WITH_KNOTS((3,3),(0.0811829603795813,0.262678510731273),
 .UNSPECIFIED.)
CURVE()
GEOMETRIC_REPRESENTATION_ITEM()
RATIONAL_B_SPLINE_CURVE((1.48993702720837,1.9375,1.9375))
REPRESENTATION_ITEM('')
);
#25=(
BOUNDED_CURVE()
B_SPLINE_CURVE(2,(#1664,#1665,#1666),.UNSPECIFIED.,.F.,.F.)
B_SPLINE_CURVE_WITH_KNOTS((3,3),(0.381210015976142,0.385252858005058),
 .UNSPECIFIED.)
CURVE()
GEOMETRIC_REPRESENTATION_ITEM()
RATIONAL_B_SPLINE_CURVE((1.44697186985867,1.44096606847469,1.43478260870297))
REPRESENTATION_ITEM('')
);
#26=(
BOUNDED_CURVE()
B_SPLINE_CURVE(2,(#1675,#1676,#1677),.UNSPECIFIED.,.F.,.F.)
B_SPLINE_CURVE_WITH_KNOTS((3,3),(0.103827912418047,0.107870754447199),
 .UNSPECIFIED.)
CURVE()
GEOMETRIC_REPRESENTATION_ITEM()
RATIONAL_B_SPLINE_CURVE((1.43478260869565,1.44096606846783,1.44697186985226))
REPRESENTATION_ITEM('')
);
#27=FACE_BOUND('',#338,.T.);
#28=FACE_BOUND('',#368,.T.);
#29=PLANE('',#1069);
#30=PLANE('',#1072);
#31=PLANE('',#1075);
#32=PLANE('',#1102);
#33=PLANE('',#1105);
#34=PLANE('',#1106);
#35=PLANE('',#1109);
#36=PLANE('',#1112);
#37=PLANE('',#1113);
#38=PLANE('',#1117);
#39=PLANE('',#1122);
#40=PLANE('',#1124);
#41=PLANE('',#1125);
#42=PLANE('',#1126);
#43=PLANE('',#1127);
#44=PLANE('',#1128);
#45=PLANE('',#1131);
#46=PLANE('',#1132);
#47=PLANE('',#1133);
#48=PLANE('',#1134);
#49=PLANE('',#1135);
#50=PLANE('',#1136);
#51=PLANE('',#1137);
#52=PLANE('',#1138);
#53=PLANE('',#1139);
#54=PLANE('',#1140);
#55=PLANE('',#1141);
#56=PLANE('',#1142);
#57=PLANE('',#1145);
#58=PLANE('',#1146);
#59=LINE('',#1463,#155);
#60=LINE('',#1464,#156);
#61=LINE('',#1475,#157);
#62=LINE('',#1476,#158);
#63=LINE('',#1487,#159);
#64=LINE('',#1488,#160);
#65=LINE('',#1496,#161);
#66=LINE('',#1497,#162);
#67=LINE('',#1500,#163);
#68=LINE('',#1502,#164);
#69=LINE('',#1503,#165);
#70=LINE('',#1506,#166);
#71=LINE('',#1510,#167);
#72=LINE('',#1511,#168);
#73=LINE('',#1514,#169);
#74=LINE('',#1519,#170);
#75=LINE('',#1523,#171);
#76=LINE('',#1527,#172);
#77=LINE('',#1531,#173);
#78=LINE('',#1537,#174);
#79=LINE('',#1546,#175);
#80=LINE('',#1554,#176);
#81=LINE('',#1562,#177);
#82=LINE('',#1567,#178);
#83=LINE('',#1570,#179);
#84=LINE('',#1573,#180);
#85=LINE('',#1574,#181);
#86=LINE('',#1577,#182);
#87=LINE('',#1581,#183);
#88=LINE('',#1587,#184);
#89=LINE('',#1589,#185);
#90=LINE('',#1591,#186);
#91=LINE('',#1593,#187);
#92=LINE('',#1595,#188);
#93=LINE('',#1597,#189);
#94=LINE('',#1599,#190);
#95=LINE('',#1605,#191);
#96=LINE('',#1607,#192);
#97=LINE('',#1608,#193);
#98=LINE('',#1615,#194);
#99=LINE('',#1623,#195);
#100=LINE('',#1624,#196);
#101=LINE('',#1634,#197);
#102=LINE('',#1636,#198);
#103=LINE('',#1638,#199);
#104=LINE('',#1639,#200);
#105=LINE('',#1642,#201);
#106=LINE('',#1644,#202);
#107=LINE('',#1645,#203);
#108=LINE('',#1647,#204);
#109=LINE('',#1649,#205);
#110=LINE('',#1651,#206);
#111=LINE('',#1656,#207);
#112=LINE('',#1661,#208);
#113=LINE('',#1670,#209);
#114=LINE('',#1671,#210);
#115=LINE('',#1672,#211);
#116=LINE('',#1681,#212);
#117=LINE('',#1683,#213);
#118=LINE('',#1688,#214);
#119=LINE('',#1689,#215);
#120=LINE('',#1690,#216);
#121=LINE('',#1693,#217);
#122=LINE('',#1694,#218);
#123=LINE('',#1697,#219);
#124=LINE('',#1698,#220);
#125=LINE('',#1700,#221);
#126=LINE('',#1703,#222);
#127=LINE('',#1707,#223);
#128=LINE('',#1710,#224);
#129=LINE('',#1712,#225);
#130=LINE('',#1713,#226);
#131=LINE('',#1715,#227);
#132=LINE('',#1717,#228);
#133=LINE('',#1718,#229);
#134=LINE('',#1720,#230);
#135=LINE('',#1722,#231);
#136=LINE('',#1723,#232);
#137=LINE('',#1727,#233);
#138=LINE('',#1728,#234);
#139=LINE('',#1729,#235);
#140=LINE('',#1731,#236);
#141=LINE('',#1733,#237);
#142=LINE('',#1737,#238);
#143=LINE('',#1739,#239);
#144=LINE('',#1740,#240);
#145=LINE('',#1742,#241);
#146=LINE('',#1744,#242);
#147=LINE('',#1748,#243);
#148=LINE('',#1750,#244);
#149=LINE('',#1751,#245);
#150=LINE('',#1753,#246);
#151=LINE('',#1755,#247);
#152=LINE('',#1758,#248);
#153=LINE('',#1759,#249);
#154=LINE('',#1761,#250);
#155=VECTOR('',#1163,10.);
#156=VECTOR('',#1164,10.);
#157=VECTOR('',#1177,10.);
#158=VECTOR('',#1178,10.);
#159=VECTOR('',#1191,10.);
#160=VECTOR('',#1192,10.);
#161=VECTOR('',#1203,10.);
#162=VECTOR('',#1204,10.);
#163=VECTOR('',#1207,10.);
#164=VECTOR('',#1208,10.);
#165=VECTOR('',#1209,10.);
#166=VECTOR('',#1212,10.);
#167=VECTOR('',#1217,10.);
#168=VECTOR('',#1218,10.);
#169=VECTOR('',#1221,10.);
#170=VECTOR('',#1226,10.);
#171=VECTOR('',#1229,10.);
#172=VECTOR('',#1232,10.);
#173=VECTOR('',#1235,10.);
#174=VECTOR('',#1242,10.);
#175=VECTOR('',#1255,10.);
#176=VECTOR('',#1266,10.);
#177=VECTOR('',#1277,10.);
#178=VECTOR('',#1284,10.);
#179=VECTOR('',#1287,10.);
#180=VECTOR('',#1290,10.);
#181=VECTOR('',#1291,10.);
#182=VECTOR('',#1294,10.);
#183=VECTOR('',#1299,10.);
#184=VECTOR('',#1300,10.);
#185=VECTOR('',#1301,10.);
#186=VECTOR('',#1302,10.);
#187=VECTOR('',#1303,10.);
#188=VECTOR('',#1304,10.);
#189=VECTOR('',#1305,10.);
#190=VECTOR('',#1306,10.);
#191=VECTOR('',#1309,10.);
#192=VECTOR('',#1310,10.);
#193=VECTOR('',#1311,10.);
#194=VECTOR('',#1314,10.);
#195=VECTOR('',#1319,10.);
#196=VECTOR('',#1320,10.);
#197=VECTOR('',#1327,10.);
#198=VECTOR('',#1328,10.);
#199=VECTOR('',#1329,10.);
#200=VECTOR('',#1330,10.);
#201=VECTOR('',#1333,10.);
#202=VECTOR('',#1334,10.);
#203=VECTOR('',#1335,10.);
#204=VECTOR('',#1336,10.);
#205=VECTOR('',#1337,10.);
#206=VECTOR('',#1338,10.);
#207=VECTOR('',#1339,10.);
#208=VECTOR('',#1344,10.);
#209=VECTOR('',#1349,10.);
#210=VECTOR('',#1350,10.);
#211=VECTOR('',#1351,10.);
#212=VECTOR('',#1360,10.);
#213=VECTOR('',#1363,10.);
#214=VECTOR('',#1368,10.);
#215=VECTOR('',#1369,10.);
#216=VECTOR('',#1370,10.);
#217=VECTOR('',#1373,10.);
#218=VECTOR('',#1374,10.);
#219=VECTOR('',#1377,10.);
#220=VECTOR('',#1378,10.);
#221=VECTOR('',#1381,10.);
#222=VECTOR('',#1384,10.);
#223=VECTOR('',#1387,10.);
#224=VECTOR('',#1390,10.);
#225=VECTOR('',#1391,10.);
#226=VECTOR('',#1392,10.);
#227=VECTOR('',#1393,10.);
#228=VECTOR('',#1394,10.);
#229=VECTOR('',#1395,10.);
#230=VECTOR('',#1396,10.);
#231=VECTOR('',#1397,10.);
#232=VECTOR('',#1398,10.);
#233=VECTOR('',#1401,10.);
#234=VECTOR('',#1402,10.);
#235=VECTOR('',#1403,10.);
#236=VECTOR('',#1406,10.);
#237=VECTOR('',#1409,10.);
#238=VECTOR('',#1414,10.);
#239=VECTOR('',#1415,10.);
#240=VECTOR('',#1416,10.);
#241=VECTOR('',#1419,10.);
#242=VECTOR('',#1422,10.);
#243=VECTOR('',#1427,10.);
#244=VECTOR('',#1428,10.);
#245=VECTOR('',#1429,10.);
#246=VECTOR('',#1432,10.);
#247=VECTOR('',#1435,10.);
#248=VECTOR('',#1440,10.);
#249=VECTOR('',#1441,10.);
#250=VECTOR('',#1444,10.);
#251=CYLINDRICAL_SURFACE('',#1050,0.4);
#252=CYLINDRICAL_SURFACE('',#1056,0.4);
#253=CYLINDRICAL_SURFACE('',#1062,0.4);
#254=CYLINDRICAL_SURFACE('',#1068,0.4);
#255=CYLINDRICAL_SURFACE('',#1070,2.);
#256=CYLINDRICAL_SURFACE('',#1073,2.);
#257=CYLINDRICAL_SURFACE('',#1080,0.4);
#258=CYLINDRICAL_SURFACE('',#1086,0.4);
#259=CYLINDRICAL_SURFACE('',#1091,0.4);
#260=CYLINDRICAL_SURFACE('',#1096,0.4);
#261=CYLINDRICAL_SURFACE('',#1100,0.8);
#262=CYLINDRICAL_SURFACE('',#1103,0.8);
#263=CYLINDRICAL_SURFACE('',#1121,0.8);
#264=CYLINDRICAL_SURFACE('',#1123,0.8);
#265=CYLINDRICAL_SURFACE('',#1143,2.);
#266=CYLINDRICAL_SURFACE('',#1144,2.);
#267=FACE_OUTER_BOUND('',#325,.T.);
#268=FACE_OUTER_BOUND('',#326,.T.);
#269=FACE_OUTER_BOUND('',#327,.T.);
#270=FACE_OUTER_BOUND('',#328,.T.);
#271=FACE_OUTER_BOUND('',#329,.T.);
#272=FACE_OUTER_BOUND('',#330,.T.);
#273=FACE_OUTER_BOUND('',#331,.T.);
#274=FACE_OUTER_BOUND('',#332,.T.);
#275=FACE_OUTER_BOUND('',#333,.T.);
#276=FACE_OUTER_BOUND('',#334,.T.);
#277=FACE_OUTER_BOUND('',#335,.T.);
#278=FACE_OUTER_BOUND('',#336,.T.);
#279=FACE_OUTER_BOUND('',#337,.T.);
#280=FACE_OUTER_BOUND('',#339,.T.);
#281=FACE_OUTER_BOUND('',#340,.T.);
#282=FACE_OUTER_BOUND('',#341,.T.);
#283=FACE_OUTER_BOUND('',#342,.T.);
#284=FACE_OUTER_BOUND('',#343,.T.);
#285=FACE_OUTER_BOUND('',#344,.T.);
#286=FACE_OUTER_BOUND('',#345,.T.);
#287=FACE_OUTER_BOUND('',#346,.T.);
#288=FACE_OUTER_BOUND('',#347,.T.);
#289=FACE_OUTER_BOUND('',#348,.T.);
#290=FACE_OUTER_BOUND('',#349,.T.);
#291=FACE_OUTER_BOUND('',#350,.T.);
#292=FACE_OUTER_BOUND('',#351,.T.);
#293=FACE_OUTER_BOUND('',#352,.T.);
#294=FACE_OUTER_BOUND('',#353,.T.);
#295=FACE_OUTER_BOUND('',#354,.T.);
#296=FACE_OUTER_BOUND('',#355,.T.);
#297=FACE_OUTER_BOUND('',#356,.T.);
#298=FACE_OUTER_BOUND('',#357,.T.);
#299=FACE_OUTER_BOUND('',#358,.T.);
#300=FACE_OUTER_BOUND('',#359,.T.);
#301=FACE_OUTER_BOUND('',#360,.T.);
#302=FACE_OUTER_BOUND('',#361,.T.);
#303=FACE_OUTER_BOUND('',#362,.T.);
#304=FACE_OUTER_BOUND('',#363,.T.);
#305=FACE_OUTER_BOUND('',#364,.T.);
#306=FACE_OUTER_BOUND('',#365,.T.);
#307=FACE_OUTER_BOUND('',#366,.T.);
#308=FACE_OUTER_BOUND('',#367,.T.);
#309=FACE_OUTER_BOUND('',#369,.T.);
#310=FACE_OUTER_BOUND('',#370,.T.);
#311=FACE_OUTER_BOUND('',#371,.T.);
#312=FACE_OUTER_BOUND('',#372,.T.);
#313=FACE_OUTER_BOUND('',#373,.T.);
#314=FACE_OUTER_BOUND('',#374,.T.);
#315=FACE_OUTER_BOUND('',#375,.T.);
#316=FACE_OUTER_BOUND('',#376,.T.);
#317=FACE_OUTER_BOUND('',#377,.T.);
#318=FACE_OUTER_BOUND('',#378,.T.);
#319=FACE_OUTER_BOUND('',#379,.T.);
#320=FACE_OUTER_BOUND('',#380,.T.);
#321=FACE_OUTER_BOUND('',#381,.T.);
#322=FACE_OUTER_BOUND('',#382,.T.);
#323=FACE_OUTER_BOUND('',#383,.T.);
#324=FACE_OUTER_BOUND('',#384,.T.);
#325=EDGE_LOOP('',(#669,#670,#671,#672));
#326=EDGE_LOOP('',(#673,#674,#675,#676));
#327=EDGE_LOOP('',(#677,#678,#679,#680));
#328=EDGE_LOOP('',(#681,#682,#683,#684));
#329=EDGE_LOOP('',(#685,#686,#687,#688));
#330=EDGE_LOOP('',(#689,#690,#691,#692));
#331=EDGE_LOOP('',(#693,#694,#695,#696));
#332=EDGE_LOOP('',(#697,#698,#699,#700));
#333=EDGE_LOOP('',(#701,#702,#703,#704));
#334=EDGE_LOOP('',(#705,#706,#707,#708));
#335=EDGE_LOOP('',(#709,#710,#711,#712));
#336=EDGE_LOOP('',(#713,#714,#715,#716));
#337=EDGE_LOOP('',(#717,#718,#719,#720,#721,#722,#723,#724));
#338=EDGE_LOOP('',(#725,#726,#727,#728,#729,#730,#731,#732));
#339=EDGE_LOOP('',(#733,#734,#735,#736));
#340=EDGE_LOOP('',(#737,#738,#739,#740));
#341=EDGE_LOOP('',(#741,#742,#743,#744));
#342=EDGE_LOOP('',(#745,#746,#747,#748));
#343=EDGE_LOOP('',(#749,#750,#751,#752));
#344=EDGE_LOOP('',(#753,#754,#755,#756));
#345=EDGE_LOOP('',(#757,#758,#759,#760));
#346=EDGE_LOOP('',(#761,#762,#763,#764));
#347=EDGE_LOOP('',(#765,#766,#767,#768));
#348=EDGE_LOOP('',(#769,#770,#771,#772));
#349=EDGE_LOOP('',(#773,#774,#775,#776));
#350=EDGE_LOOP('',(#777,#778,#779,#780,#781,#782,#783,#784,#785,#786,#787,
#788));
#351=EDGE_LOOP('',(#789,#790,#791,#792));
#352=EDGE_LOOP('',(#793,#794,#795,#796,#797));
#353=EDGE_LOOP('',(#798,#799,#800,#801));
#354=EDGE_LOOP('',(#802,#803,#804,#805,#806));
#355=EDGE_LOOP('',(#807,#808,#809,#810));
#356=EDGE_LOOP('',(#811,#812,#813,#814,#815,#816,#817,#818,#819,#820,#821,
#822));
#357=EDGE_LOOP('',(#823,#824,#825,#826,#827));
#358=EDGE_LOOP('',(#828,#829,#830,#831));
#359=EDGE_LOOP('',(#832,#833,#834,#835,#836));
#360=EDGE_LOOP('',(#837,#838,#839,#840));
#361=EDGE_LOOP('',(#841,#842,#843,#844));
#362=EDGE_LOOP('',(#845,#846,#847,#848));
#363=EDGE_LOOP('',(#849,#850,#851,#852));
#364=EDGE_LOOP('',(#853,#854,#855,#856,#857));
#365=EDGE_LOOP('',(#858,#859,#860,#861,#862));
#366=EDGE_LOOP('',(#863,#864,#865,#866));
#367=EDGE_LOOP('',(#867,#868,#869,#870,#871,#872,#873,#874));
#368=EDGE_LOOP('',(#875,#876,#877,#878,#879,#880,#881,#882,#883,#884,#885,
#886,#887,#888,#889,#890,#891,#892,#893,#894));
#369=EDGE_LOOP('',(#895,#896,#897,#898));
#370=EDGE_LOOP('',(#899,#900,#901,#902,#903));
#371=EDGE_LOOP('',(#904,#905,#906,#907,#908));
#372=EDGE_LOOP('',(#909,#910,#911,#912));
#373=EDGE_LOOP('',(#913,#914,#915,#916));
#374=EDGE_LOOP('',(#917,#918,#919,#920,#921));
#375=EDGE_LOOP('',(#922,#923,#924,#925));
#376=EDGE_LOOP('',(#926,#927,#928,#929,#930));
#377=EDGE_LOOP('',(#931,#932,#933,#934));
#378=EDGE_LOOP('',(#935,#936,#937,#938,#939));
#379=EDGE_LOOP('',(#940,#941,#942,#943));
#380=EDGE_LOOP('',(#944,#945,#946,#947,#948));
#381=EDGE_LOOP('',(#949,#950,#951,#952));
#382=EDGE_LOOP('',(#953,#954,#955,#956));
#383=EDGE_LOOP('',(#957,#958,#959,#960));
#384=EDGE_LOOP('',(#961,#962,#963,#964));
#385=CIRCLE('',#1046,0.4);
#386=CIRCLE('',#1047,2.);
#387=CIRCLE('',#1048,0.4);
#388=CIRCLE('',#1049,1.6);
#389=CIRCLE('',#1051,0.4);
#390=CIRCLE('',#1053,0.4);
#391=CIRCLE('',#1054,1.6);
#392=CIRCLE('',#1055,2.);
#393=CIRCLE('',#1057,0.4);
#394=CIRCLE('',#1059,0.4);
#395=CIRCLE('',#1060,1.6);
#396=CIRCLE('',#1061,2.);
#397=CIRCLE('',#1063,0.4);
#398=CIRCLE('',#1065,0.4);
#399=CIRCLE('',#1066,1.6);
#400=CIRCLE('',#1067,2.);
#401=CIRCLE('',#1071,2.);
#402=CIRCLE('',#1074,2.);
#403=CIRCLE('',#1076,1.2);
#404=CIRCLE('',#1077,1.2);
#405=CIRCLE('',#1078,1.2);
#406=CIRCLE('',#1079,1.2);
#407=CIRCLE('',#1081,0.4);
#408=CIRCLE('',#1082,0.4);
#409=CIRCLE('',#1084,0.400000000000001);
#410=CIRCLE('',#1085,0.8);
#411=CIRCLE('',#1087,0.4);
#412=CIRCLE('',#1089,0.4);
#413=CIRCLE('',#1090,0.8);
#414=CIRCLE('',#1092,0.4);
#415=CIRCLE('',#1094,0.400000000000001);
#416=CIRCLE('',#1095,0.8);
#417=CIRCLE('',#1097,0.4);
#418=CIRCLE('',#1099,0.8);
#419=CIRCLE('',#1101,0.8);
#420=CIRCLE('',#1104,0.8);
#421=CIRCLE('',#1108,1.3);
#422=CIRCLE('',#1111,1.3);
#423=CIRCLE('',#1115,0.8);
#424=CIRCLE('',#1116,1.3);
#425=CIRCLE('',#1119,1.3);
#426=CIRCLE('',#1120,0.8);
#427=CIRCLE('',#1129,2.);
#428=CIRCLE('',#1130,2.);
#429=VERTEX_POINT('',#1451);
#430=VERTEX_POINT('',#1452);
#431=VERTEX_POINT('',#1454);
#432=VERTEX_POINT('',#1456);
#433=VERTEX_POINT('',#1460);
#434=VERTEX_POINT('',#1461);
#435=VERTEX_POINT('',#1466);
#436=VERTEX_POINT('',#1467);
#437=VERTEX_POINT('',#1472);
#438=VERTEX_POINT('',#1473);
#439=VERTEX_POINT('',#1478);
#440=VERTEX_POINT('',#1479);
#441=VERTEX_POINT('',#1484);
#442=VERTEX_POINT('',#1485);
#443=VERTEX_POINT('',#1490);
#444=VERTEX_POINT('',#1491);
#445=VERTEX_POINT('',#1499);
#446=VERTEX_POINT('',#1501);
#447=VERTEX_POINT('',#1505);
#448=VERTEX_POINT('',#1509);
#449=VERTEX_POINT('',#1513);
#450=VERTEX_POINT('',#1517);
#451=VERTEX_POINT('',#1518);
#452=VERTEX_POINT('',#1520);
#453=VERTEX_POINT('',#1522);
#454=VERTEX_POINT('',#1524);
#455=VERTEX_POINT('',#1526);
#456=VERTEX_POINT('',#1528);
#457=VERTEX_POINT('',#1530);
#458=VERTEX_POINT('',#1534);
#459=VERTEX_POINT('',#1536);
#460=VERTEX_POINT('',#1540);
#461=VERTEX_POINT('',#1544);
#462=VERTEX_POINT('',#1548);
#463=VERTEX_POINT('',#1552);
#464=VERTEX_POINT('',#1556);
#465=VERTEX_POINT('',#1560);
#466=VERTEX_POINT('',#1566);
#467=VERTEX_POINT('',#1568);
#468=VERTEX_POINT('',#1572);
#469=VERTEX_POINT('',#1576);
#470=VERTEX_POINT('',#1580);
#471=VERTEX_POINT('',#1582);
#472=VERTEX_POINT('',#1586);
#473=VERTEX_POINT('',#1588);
#474=VERTEX_POINT('',#1590);
#475=VERTEX_POINT('',#1592);
#476=VERTEX_POINT('',#1594);
#477=VERTEX_POINT('',#1596);
#478=VERTEX_POINT('',#1598);
#479=VERTEX_POINT('',#1604);
#480=VERTEX_POINT('',#1606);
#481=VERTEX_POINT('',#1610);
#482=VERTEX_POINT('',#1614);
#483=VERTEX_POINT('',#1616);
#484=VERTEX_POINT('',#1622);
#485=VERTEX_POINT('',#1626);
#486=VERTEX_POINT('',#1632);
#487=VERTEX_POINT('',#1633);
#488=VERTEX_POINT('',#1635);
#489=VERTEX_POINT('',#1637);
#490=VERTEX_POINT('',#1641);
#491=VERTEX_POINT('',#1643);
#492=VERTEX_POINT('',#1646);
#493=VERTEX_POINT('',#1648);
#494=VERTEX_POINT('',#1650);
#495=VERTEX_POINT('',#1652);
#496=VERTEX_POINT('',#1658);
#497=VERTEX_POINT('',#1660);
#498=VERTEX_POINT('',#1662);
#499=VERTEX_POINT('',#1668);
#500=VERTEX_POINT('',#1669);
#501=VERTEX_POINT('',#1674);
#502=VERTEX_POINT('',#1686);
#503=VERTEX_POINT('',#1687);
#504=VERTEX_POINT('',#1692);
#505=VERTEX_POINT('',#1696);
#506=VERTEX_POINT('',#1702);
#507=VERTEX_POINT('',#1704);
#508=VERTEX_POINT('',#1706);
#509=VERTEX_POINT('',#1709);
#510=VERTEX_POINT('',#1711);
#511=VERTEX_POINT('',#1714);
#512=VERTEX_POINT('',#1716);
#513=VERTEX_POINT('',#1719);
#514=VERTEX_POINT('',#1721);
#515=VERTEX_POINT('',#1725);
#516=VERTEX_POINT('',#1726);
#517=VERTEX_POINT('',#1736);
#518=VERTEX_POINT('',#1738);
#519=VERTEX_POINT('',#1747);
#520=VERTEX_POINT('',#1749);
#521=EDGE_CURVE('',#429,#430,#385,.T.);
#522=EDGE_CURVE('',#430,#431,#386,.T.);
#523=EDGE_CURVE('',#431,#432,#387,.T.);
#524=EDGE_CURVE('',#432,#429,#388,.T.);
#525=EDGE_CURVE('',#433,#434,#389,.T.);
#526=EDGE_CURVE('',#434,#432,#59,.T.);
#527=EDGE_CURVE('',#431,#433,#60,.T.);
#528=EDGE_CURVE('',#435,#436,#390,.T.);
#529=EDGE_CURVE('',#436,#434,#391,.T.);
#530=EDGE_CURVE('',#433,#435,#392,.T.);
#531=EDGE_CURVE('',#437,#438,#393,.T.);
#532=EDGE_CURVE('',#438,#436,#61,.T.);
#533=EDGE_CURVE('',#435,#437,#62,.T.);
#534=EDGE_CURVE('',#439,#440,#394,.T.);
#535=EDGE_CURVE('',#440,#438,#395,.T.);
#536=EDGE_CURVE('',#437,#439,#396,.T.);
#537=EDGE_CURVE('',#441,#442,#397,.T.);
#538=EDGE_CURVE('',#442,#440,#63,.T.);
#539=EDGE_CURVE('',#439,#441,#64,.T.);
#540=EDGE_CURVE('',#443,#444,#398,.T.);
#541=EDGE_CURVE('',#444,#442,#399,.T.);
#542=EDGE_CURVE('',#441,#443,#400,.T.);
#543=EDGE_CURVE('',#429,#444,#65,.T.);
#544=EDGE_CURVE('',#443,#430,#66,.T.);
#545=EDGE_CURVE('',#435,#445,#67,.T.);
#546=EDGE_CURVE('',#446,#445,#68,.T.);
#547=EDGE_CURVE('',#437,#446,#69,.T.);
#548=EDGE_CURVE('',#433,#447,#70,.T.);
#549=EDGE_CURVE('',#445,#447,#401,.T.);
#550=EDGE_CURVE('',#431,#448,#71,.T.);
#551=EDGE_CURVE('',#447,#448,#72,.T.);
#552=EDGE_CURVE('',#430,#449,#73,.T.);
#553=EDGE_CURVE('',#448,#449,#402,.T.);
#554=EDGE_CURVE('',#450,#451,#74,.T.);
#555=EDGE_CURVE('',#452,#450,#403,.T.);
#556=EDGE_CURVE('',#453,#452,#75,.T.);
#557=EDGE_CURVE('',#454,#453,#404,.T.);
#558=EDGE_CURVE('',#455,#454,#76,.T.);
#559=EDGE_CURVE('',#456,#455,#405,.T.);
#560=EDGE_CURVE('',#457,#456,#77,.T.);
#561=EDGE_CURVE('',#451,#457,#406,.T.);
#562=EDGE_CURVE('',#451,#458,#407,.T.);
#563=EDGE_CURVE('',#458,#459,#78,.T.);
#564=EDGE_CURVE('',#459,#450,#408,.T.);
#565=EDGE_CURVE('',#460,#452,#409,.T.);
#566=EDGE_CURVE('',#459,#460,#410,.T.);
#567=EDGE_CURVE('',#461,#453,#411,.T.);
#568=EDGE_CURVE('',#460,#461,#79,.T.);
#569=EDGE_CURVE('',#462,#454,#412,.T.);
#570=EDGE_CURVE('',#461,#462,#413,.T.);
#571=EDGE_CURVE('',#463,#455,#414,.T.);
#572=EDGE_CURVE('',#462,#463,#80,.T.);
#573=EDGE_CURVE('',#464,#456,#415,.T.);
#574=EDGE_CURVE('',#463,#464,#416,.T.);
#575=EDGE_CURVE('',#465,#457,#417,.T.);
#576=EDGE_CURVE('',#464,#465,#81,.T.);
#577=EDGE_CURVE('',#465,#458,#418,.T.);
#578=EDGE_CURVE('',#461,#466,#82,.T.);
#579=EDGE_CURVE('',#467,#466,#419,.T.);
#580=EDGE_CURVE('',#462,#467,#83,.T.);
#581=EDGE_CURVE('',#460,#468,#84,.T.);
#582=EDGE_CURVE('',#466,#468,#85,.T.);
#583=EDGE_CURVE('',#459,#469,#86,.T.);
#584=EDGE_CURVE('',#468,#469,#420,.T.);
#585=EDGE_CURVE('',#458,#470,#87,.T.);
#586=EDGE_CURVE('',#470,#471,#19,.T.);
#587=EDGE_CURVE('',#471,#472,#88,.T.);
#588=EDGE_CURVE('',#473,#472,#89,.T.);
#589=EDGE_CURVE('',#474,#473,#90,.T.);
#590=EDGE_CURVE('',#475,#474,#91,.T.);
#591=EDGE_CURVE('',#475,#476,#92,.T.);
#592=EDGE_CURVE('',#477,#476,#93,.T.);
#593=EDGE_CURVE('',#478,#477,#94,.T.);
#594=EDGE_CURVE('',#469,#478,#20,.F.);
#595=EDGE_CURVE('',#479,#475,#95,.F.);
#596=EDGE_CURVE('',#474,#480,#96,.F.);
#597=EDGE_CURVE('',#480,#479,#97,.T.);
#598=EDGE_CURVE('',#467,#481,#21,.T.);
#599=EDGE_CURVE('',#466,#482,#98,.T.);
#600=EDGE_CURVE('',#482,#483,#421,.T.);
#601=EDGE_CURVE('',#483,#481,#22,.F.);
#602=EDGE_CURVE('',#468,#484,#99,.T.);
#603=EDGE_CURVE('',#484,#482,#100,.T.);
#604=EDGE_CURVE('',#485,#478,#23,.T.);
#605=EDGE_CURVE('',#485,#484,#422,.T.);
#606=EDGE_CURVE('',#486,#487,#101,.F.);
#607=EDGE_CURVE('',#487,#488,#102,.T.);
#608=EDGE_CURVE('',#488,#489,#103,.F.);
#609=EDGE_CURVE('',#489,#486,#104,.T.);
#610=EDGE_CURVE('',#481,#490,#105,.F.);
#611=EDGE_CURVE('',#491,#490,#106,.T.);
#612=EDGE_CURVE('',#488,#491,#107,.T.);
#613=EDGE_CURVE('',#487,#492,#108,.T.);
#614=EDGE_CURVE('',#493,#492,#109,.T.);
#615=EDGE_CURVE('',#494,#493,#110,.T.);
#616=EDGE_CURVE('',#495,#494,#24,.F.);
#617=EDGE_CURVE('',#463,#495,#111,.T.);
#618=EDGE_CURVE('',#470,#496,#423,.T.);
#619=EDGE_CURVE('',#496,#497,#112,.T.);
#620=EDGE_CURVE('',#497,#498,#424,.T.);
#621=EDGE_CURVE('',#498,#471,#25,.F.);
#622=EDGE_CURVE('',#499,#500,#113,.T.);
#623=EDGE_CURVE('',#500,#497,#114,.T.);
#624=EDGE_CURVE('',#496,#499,#115,.T.);
#625=EDGE_CURVE('',#501,#494,#26,.T.);
#626=EDGE_CURVE('',#501,#500,#425,.T.);
#627=EDGE_CURVE('',#499,#495,#426,.T.);
#628=EDGE_CURVE('',#464,#499,#116,.T.);
#629=EDGE_CURVE('',#465,#496,#117,.T.);
#630=EDGE_CURVE('',#502,#503,#118,.T.);
#631=EDGE_CURVE('',#503,#473,#119,.T.);
#632=EDGE_CURVE('',#472,#502,#120,.T.);
#633=EDGE_CURVE('',#504,#503,#121,.T.);
#634=EDGE_CURVE('',#480,#504,#122,.T.);
#635=EDGE_CURVE('',#505,#502,#123,.T.);
#636=EDGE_CURVE('',#505,#498,#124,.T.);
#637=EDGE_CURVE('',#504,#505,#125,.T.);
#638=EDGE_CURVE('',#449,#506,#126,.T.);
#639=EDGE_CURVE('',#506,#507,#427,.T.);
#640=EDGE_CURVE('',#507,#508,#127,.T.);
#641=EDGE_CURVE('',#508,#446,#428,.T.);
#642=EDGE_CURVE('',#501,#509,#128,.T.);
#643=EDGE_CURVE('',#509,#510,#129,.T.);
#644=EDGE_CURVE('',#510,#486,#130,.T.);
#645=EDGE_CURVE('',#489,#511,#131,.T.);
#646=EDGE_CURVE('',#511,#512,#132,.T.);
#647=EDGE_CURVE('',#512,#483,#133,.T.);
#648=EDGE_CURVE('',#485,#513,#134,.T.);
#649=EDGE_CURVE('',#513,#514,#135,.T.);
#650=EDGE_CURVE('',#514,#479,#136,.T.);
#651=EDGE_CURVE('',#515,#516,#137,.T.);
#652=EDGE_CURVE('',#516,#477,#138,.T.);
#653=EDGE_CURVE('',#476,#515,#139,.T.);
#654=EDGE_CURVE('',#513,#516,#140,.T.);
#655=EDGE_CURVE('',#514,#515,#141,.T.);
#656=EDGE_CURVE('',#492,#517,#142,.T.);
#657=EDGE_CURVE('',#517,#518,#143,.T.);
#658=EDGE_CURVE('',#518,#493,#144,.T.);
#659=EDGE_CURVE('',#510,#517,#145,.T.);
#660=EDGE_CURVE('',#509,#518,#146,.T.);
#661=EDGE_CURVE('',#490,#519,#147,.T.);
#662=EDGE_CURVE('',#519,#520,#148,.T.);
#663=EDGE_CURVE('',#520,#491,#149,.T.);
#664=EDGE_CURVE('',#512,#519,#150,.T.);
#665=EDGE_CURVE('',#511,#520,#151,.T.);
#666=EDGE_CURVE('',#441,#507,#152,.T.);
#667=EDGE_CURVE('',#443,#506,#153,.T.);
#668=EDGE_CURVE('',#439,#508,#154,.T.);
#669=ORIENTED_EDGE('',*,*,#521,.T.);
#670=ORIENTED_EDGE('',*,*,#522,.T.);
#671=ORIENTED_EDGE('',*,*,#523,.T.);
#672=ORIENTED_EDGE('',*,*,#524,.T.);
#673=ORIENTED_EDGE('',*,*,#525,.T.);
#674=ORIENTED_EDGE('',*,*,#526,.T.);
#675=ORIENTED_EDGE('',*,*,#523,.F.);
#676=ORIENTED_EDGE('',*,*,#527,.T.);
#677=ORIENTED_EDGE('',*,*,#528,.T.);
#678=ORIENTED_EDGE('',*,*,#529,.T.);
#679=ORIENTED_EDGE('',*,*,#525,.F.);
#680=ORIENTED_EDGE('',*,*,#530,.T.);
#681=ORIENTED_EDGE('',*,*,#531,.T.);
#682=ORIENTED_EDGE('',*,*,#532,.T.);
#683=ORIENTED_EDGE('',*,*,#528,.F.);
#684=ORIENTED_EDGE('',*,*,#533,.T.);
#685=ORIENTED_EDGE('',*,*,#534,.T.);
#686=ORIENTED_EDGE('',*,*,#535,.T.);
#687=ORIENTED_EDGE('',*,*,#531,.F.);
#688=ORIENTED_EDGE('',*,*,#536,.T.);
#689=ORIENTED_EDGE('',*,*,#537,.T.);
#690=ORIENTED_EDGE('',*,*,#538,.T.);
#691=ORIENTED_EDGE('',*,*,#534,.F.);
#692=ORIENTED_EDGE('',*,*,#539,.T.);
#693=ORIENTED_EDGE('',*,*,#540,.T.);
#694=ORIENTED_EDGE('',*,*,#541,.T.);
#695=ORIENTED_EDGE('',*,*,#537,.F.);
#696=ORIENTED_EDGE('',*,*,#542,.T.);
#697=ORIENTED_EDGE('',*,*,#521,.F.);
#698=ORIENTED_EDGE('',*,*,#543,.T.);
#699=ORIENTED_EDGE('',*,*,#540,.F.);
#700=ORIENTED_EDGE('',*,*,#544,.T.);
#701=ORIENTED_EDGE('',*,*,#533,.F.);
#702=ORIENTED_EDGE('',*,*,#545,.T.);
#703=ORIENTED_EDGE('',*,*,#546,.F.);
#704=ORIENTED_EDGE('',*,*,#547,.F.);
#705=ORIENTED_EDGE('',*,*,#530,.F.);
#706=ORIENTED_EDGE('',*,*,#548,.T.);
#707=ORIENTED_EDGE('',*,*,#549,.F.);
#708=ORIENTED_EDGE('',*,*,#545,.F.);
#709=ORIENTED_EDGE('',*,*,#527,.F.);
#710=ORIENTED_EDGE('',*,*,#550,.T.);
#711=ORIENTED_EDGE('',*,*,#551,.F.);
#712=ORIENTED_EDGE('',*,*,#548,.F.);
#713=ORIENTED_EDGE('',*,*,#522,.F.);
#714=ORIENTED_EDGE('',*,*,#552,.T.);
#715=ORIENTED_EDGE('',*,*,#553,.F.);
#716=ORIENTED_EDGE('',*,*,#550,.F.);
#717=ORIENTED_EDGE('',*,*,#524,.F.);
#718=ORIENTED_EDGE('',*,*,#526,.F.);
#719=ORIENTED_EDGE('',*,*,#529,.F.);
#720=ORIENTED_EDGE('',*,*,#532,.F.);
#721=ORIENTED_EDGE('',*,*,#535,.F.);
#722=ORIENTED_EDGE('',*,*,#538,.F.);
#723=ORIENTED_EDGE('',*,*,#541,.F.);
#724=ORIENTED_EDGE('',*,*,#543,.F.);
#725=ORIENTED_EDGE('',*,*,#554,.F.);
#726=ORIENTED_EDGE('',*,*,#555,.F.);
#727=ORIENTED_EDGE('',*,*,#556,.F.);
#728=ORIENTED_EDGE('',*,*,#557,.F.);
#729=ORIENTED_EDGE('',*,*,#558,.F.);
#730=ORIENTED_EDGE('',*,*,#559,.F.);
#731=ORIENTED_EDGE('',*,*,#560,.F.);
#732=ORIENTED_EDGE('',*,*,#561,.F.);
#733=ORIENTED_EDGE('',*,*,#562,.T.);
#734=ORIENTED_EDGE('',*,*,#563,.T.);
#735=ORIENTED_EDGE('',*,*,#564,.T.);
#736=ORIENTED_EDGE('',*,*,#554,.T.);
#737=ORIENTED_EDGE('',*,*,#565,.T.);
#738=ORIENTED_EDGE('',*,*,#555,.T.);
#739=ORIENTED_EDGE('',*,*,#564,.F.);
#740=ORIENTED_EDGE('',*,*,#566,.T.);
#741=ORIENTED_EDGE('',*,*,#567,.T.);
#742=ORIENTED_EDGE('',*,*,#556,.T.);
#743=ORIENTED_EDGE('',*,*,#565,.F.);
#744=ORIENTED_EDGE('',*,*,#568,.T.);
#745=ORIENTED_EDGE('',*,*,#569,.T.);
#746=ORIENTED_EDGE('',*,*,#557,.T.);
#747=ORIENTED_EDGE('',*,*,#567,.F.);
#748=ORIENTED_EDGE('',*,*,#570,.T.);
#749=ORIENTED_EDGE('',*,*,#571,.T.);
#750=ORIENTED_EDGE('',*,*,#558,.T.);
#751=ORIENTED_EDGE('',*,*,#569,.F.);
#752=ORIENTED_EDGE('',*,*,#572,.T.);
#753=ORIENTED_EDGE('',*,*,#573,.T.);
#754=ORIENTED_EDGE('',*,*,#559,.T.);
#755=ORIENTED_EDGE('',*,*,#571,.F.);
#756=ORIENTED_EDGE('',*,*,#574,.T.);
#757=ORIENTED_EDGE('',*,*,#575,.T.);
#758=ORIENTED_EDGE('',*,*,#560,.T.);
#759=ORIENTED_EDGE('',*,*,#573,.F.);
#760=ORIENTED_EDGE('',*,*,#576,.T.);
#761=ORIENTED_EDGE('',*,*,#562,.F.);
#762=ORIENTED_EDGE('',*,*,#561,.T.);
#763=ORIENTED_EDGE('',*,*,#575,.F.);
#764=ORIENTED_EDGE('',*,*,#577,.T.);
#765=ORIENTED_EDGE('',*,*,#570,.F.);
#766=ORIENTED_EDGE('',*,*,#578,.T.);
#767=ORIENTED_EDGE('',*,*,#579,.F.);
#768=ORIENTED_EDGE('',*,*,#580,.F.);
#769=ORIENTED_EDGE('',*,*,#568,.F.);
#770=ORIENTED_EDGE('',*,*,#581,.T.);
#771=ORIENTED_EDGE('',*,*,#582,.F.);
#772=ORIENTED_EDGE('',*,*,#578,.F.);
#773=ORIENTED_EDGE('',*,*,#566,.F.);
#774=ORIENTED_EDGE('',*,*,#583,.T.);
#775=ORIENTED_EDGE('',*,*,#584,.F.);
#776=ORIENTED_EDGE('',*,*,#581,.F.);
#777=ORIENTED_EDGE('',*,*,#563,.F.);
#778=ORIENTED_EDGE('',*,*,#585,.T.);
#779=ORIENTED_EDGE('',*,*,#586,.T.);
#780=ORIENTED_EDGE('',*,*,#587,.T.);
#781=ORIENTED_EDGE('',*,*,#588,.F.);
#782=ORIENTED_EDGE('',*,*,#589,.F.);
#783=ORIENTED_EDGE('',*,*,#590,.F.);
#784=ORIENTED_EDGE('',*,*,#591,.T.);
#785=ORIENTED_EDGE('',*,*,#592,.F.);
#786=ORIENTED_EDGE('',*,*,#593,.F.);
#787=ORIENTED_EDGE('',*,*,#594,.F.);
#788=ORIENTED_EDGE('',*,*,#583,.F.);
#789=ORIENTED_EDGE('',*,*,#595,.T.);
#790=ORIENTED_EDGE('',*,*,#590,.T.);
#791=ORIENTED_EDGE('',*,*,#596,.T.);
#792=ORIENTED_EDGE('',*,*,#597,.T.);
#793=ORIENTED_EDGE('',*,*,#598,.F.);
#794=ORIENTED_EDGE('',*,*,#579,.T.);
#795=ORIENTED_EDGE('',*,*,#599,.T.);
#796=ORIENTED_EDGE('',*,*,#600,.T.);
#797=ORIENTED_EDGE('',*,*,#601,.T.);
#798=ORIENTED_EDGE('',*,*,#602,.T.);
#799=ORIENTED_EDGE('',*,*,#603,.T.);
#800=ORIENTED_EDGE('',*,*,#599,.F.);
#801=ORIENTED_EDGE('',*,*,#582,.T.);
#802=ORIENTED_EDGE('',*,*,#604,.F.);
#803=ORIENTED_EDGE('',*,*,#605,.T.);
#804=ORIENTED_EDGE('',*,*,#602,.F.);
#805=ORIENTED_EDGE('',*,*,#584,.T.);
#806=ORIENTED_EDGE('',*,*,#594,.T.);
#807=ORIENTED_EDGE('',*,*,#606,.T.);
#808=ORIENTED_EDGE('',*,*,#607,.T.);
#809=ORIENTED_EDGE('',*,*,#608,.T.);
#810=ORIENTED_EDGE('',*,*,#609,.T.);
#811=ORIENTED_EDGE('',*,*,#572,.F.);
#812=ORIENTED_EDGE('',*,*,#580,.T.);
#813=ORIENTED_EDGE('',*,*,#598,.T.);
#814=ORIENTED_EDGE('',*,*,#610,.T.);
#815=ORIENTED_EDGE('',*,*,#611,.F.);
#816=ORIENTED_EDGE('',*,*,#612,.F.);
#817=ORIENTED_EDGE('',*,*,#607,.F.);
#818=ORIENTED_EDGE('',*,*,#613,.T.);
#819=ORIENTED_EDGE('',*,*,#614,.F.);
#820=ORIENTED_EDGE('',*,*,#615,.F.);
#821=ORIENTED_EDGE('',*,*,#616,.F.);
#822=ORIENTED_EDGE('',*,*,#617,.F.);
#823=ORIENTED_EDGE('',*,*,#586,.F.);
#824=ORIENTED_EDGE('',*,*,#618,.T.);
#825=ORIENTED_EDGE('',*,*,#619,.T.);
#826=ORIENTED_EDGE('',*,*,#620,.T.);
#827=ORIENTED_EDGE('',*,*,#621,.T.);
#828=ORIENTED_EDGE('',*,*,#622,.T.);
#829=ORIENTED_EDGE('',*,*,#623,.T.);
#830=ORIENTED_EDGE('',*,*,#619,.F.);
#831=ORIENTED_EDGE('',*,*,#624,.T.);
#832=ORIENTED_EDGE('',*,*,#625,.F.);
#833=ORIENTED_EDGE('',*,*,#626,.T.);
#834=ORIENTED_EDGE('',*,*,#622,.F.);
#835=ORIENTED_EDGE('',*,*,#627,.T.);
#836=ORIENTED_EDGE('',*,*,#616,.T.);
#837=ORIENTED_EDGE('',*,*,#574,.F.);
#838=ORIENTED_EDGE('',*,*,#617,.T.);
#839=ORIENTED_EDGE('',*,*,#627,.F.);
#840=ORIENTED_EDGE('',*,*,#628,.F.);
#841=ORIENTED_EDGE('',*,*,#576,.F.);
#842=ORIENTED_EDGE('',*,*,#628,.T.);
#843=ORIENTED_EDGE('',*,*,#624,.F.);
#844=ORIENTED_EDGE('',*,*,#629,.F.);
#845=ORIENTED_EDGE('',*,*,#577,.F.);
#846=ORIENTED_EDGE('',*,*,#629,.T.);
#847=ORIENTED_EDGE('',*,*,#618,.F.);
#848=ORIENTED_EDGE('',*,*,#585,.F.);
#849=ORIENTED_EDGE('',*,*,#630,.T.);
#850=ORIENTED_EDGE('',*,*,#631,.T.);
#851=ORIENTED_EDGE('',*,*,#588,.T.);
#852=ORIENTED_EDGE('',*,*,#632,.T.);
#853=ORIENTED_EDGE('',*,*,#589,.T.);
#854=ORIENTED_EDGE('',*,*,#631,.F.);
#855=ORIENTED_EDGE('',*,*,#633,.F.);
#856=ORIENTED_EDGE('',*,*,#634,.F.);
#857=ORIENTED_EDGE('',*,*,#596,.F.);
#858=ORIENTED_EDGE('',*,*,#635,.T.);
#859=ORIENTED_EDGE('',*,*,#632,.F.);
#860=ORIENTED_EDGE('',*,*,#587,.F.);
#861=ORIENTED_EDGE('',*,*,#621,.F.);
#862=ORIENTED_EDGE('',*,*,#636,.F.);
#863=ORIENTED_EDGE('',*,*,#633,.T.);
#864=ORIENTED_EDGE('',*,*,#630,.F.);
#865=ORIENTED_EDGE('',*,*,#635,.F.);
#866=ORIENTED_EDGE('',*,*,#637,.F.);
#867=ORIENTED_EDGE('',*,*,#638,.T.);
#868=ORIENTED_EDGE('',*,*,#639,.T.);
#869=ORIENTED_EDGE('',*,*,#640,.T.);
#870=ORIENTED_EDGE('',*,*,#641,.T.);
#871=ORIENTED_EDGE('',*,*,#546,.T.);
#872=ORIENTED_EDGE('',*,*,#549,.T.);
#873=ORIENTED_EDGE('',*,*,#551,.T.);
#874=ORIENTED_EDGE('',*,*,#553,.T.);
#875=ORIENTED_EDGE('',*,*,#597,.F.);
#876=ORIENTED_EDGE('',*,*,#634,.T.);
#877=ORIENTED_EDGE('',*,*,#637,.T.);
#878=ORIENTED_EDGE('',*,*,#636,.T.);
#879=ORIENTED_EDGE('',*,*,#620,.F.);
#880=ORIENTED_EDGE('',*,*,#623,.F.);
#881=ORIENTED_EDGE('',*,*,#626,.F.);
#882=ORIENTED_EDGE('',*,*,#642,.T.);
#883=ORIENTED_EDGE('',*,*,#643,.T.);
#884=ORIENTED_EDGE('',*,*,#644,.T.);
#885=ORIENTED_EDGE('',*,*,#609,.F.);
#886=ORIENTED_EDGE('',*,*,#645,.T.);
#887=ORIENTED_EDGE('',*,*,#646,.T.);
#888=ORIENTED_EDGE('',*,*,#647,.T.);
#889=ORIENTED_EDGE('',*,*,#600,.F.);
#890=ORIENTED_EDGE('',*,*,#603,.F.);
#891=ORIENTED_EDGE('',*,*,#605,.F.);
#892=ORIENTED_EDGE('',*,*,#648,.T.);
#893=ORIENTED_EDGE('',*,*,#649,.T.);
#894=ORIENTED_EDGE('',*,*,#650,.T.);
#895=ORIENTED_EDGE('',*,*,#651,.T.);
#896=ORIENTED_EDGE('',*,*,#652,.T.);
#897=ORIENTED_EDGE('',*,*,#592,.T.);
#898=ORIENTED_EDGE('',*,*,#653,.T.);
#899=ORIENTED_EDGE('',*,*,#593,.T.);
#900=ORIENTED_EDGE('',*,*,#652,.F.);
#901=ORIENTED_EDGE('',*,*,#654,.F.);
#902=ORIENTED_EDGE('',*,*,#648,.F.);
#903=ORIENTED_EDGE('',*,*,#604,.T.);
#904=ORIENTED_EDGE('',*,*,#655,.T.);
#905=ORIENTED_EDGE('',*,*,#653,.F.);
#906=ORIENTED_EDGE('',*,*,#591,.F.);
#907=ORIENTED_EDGE('',*,*,#595,.F.);
#908=ORIENTED_EDGE('',*,*,#650,.F.);
#909=ORIENTED_EDGE('',*,*,#654,.T.);
#910=ORIENTED_EDGE('',*,*,#651,.F.);
#911=ORIENTED_EDGE('',*,*,#655,.F.);
#912=ORIENTED_EDGE('',*,*,#649,.F.);
#913=ORIENTED_EDGE('',*,*,#614,.T.);
#914=ORIENTED_EDGE('',*,*,#656,.T.);
#915=ORIENTED_EDGE('',*,*,#657,.T.);
#916=ORIENTED_EDGE('',*,*,#658,.T.);
#917=ORIENTED_EDGE('',*,*,#659,.T.);
#918=ORIENTED_EDGE('',*,*,#656,.F.);
#919=ORIENTED_EDGE('',*,*,#613,.F.);
#920=ORIENTED_EDGE('',*,*,#606,.F.);
#921=ORIENTED_EDGE('',*,*,#644,.F.);
#922=ORIENTED_EDGE('',*,*,#660,.T.);
#923=ORIENTED_EDGE('',*,*,#657,.F.);
#924=ORIENTED_EDGE('',*,*,#659,.F.);
#925=ORIENTED_EDGE('',*,*,#643,.F.);
#926=ORIENTED_EDGE('',*,*,#615,.T.);
#927=ORIENTED_EDGE('',*,*,#658,.F.);
#928=ORIENTED_EDGE('',*,*,#660,.F.);
#929=ORIENTED_EDGE('',*,*,#642,.F.);
#930=ORIENTED_EDGE('',*,*,#625,.T.);
#931=ORIENTED_EDGE('',*,*,#611,.T.);
#932=ORIENTED_EDGE('',*,*,#661,.T.);
#933=ORIENTED_EDGE('',*,*,#662,.T.);
#934=ORIENTED_EDGE('',*,*,#663,.T.);
#935=ORIENTED_EDGE('',*,*,#664,.T.);
#936=ORIENTED_EDGE('',*,*,#661,.F.);
#937=ORIENTED_EDGE('',*,*,#610,.F.);
#938=ORIENTED_EDGE('',*,*,#601,.F.);
#939=ORIENTED_EDGE('',*,*,#647,.F.);
#940=ORIENTED_EDGE('',*,*,#665,.T.);
#941=ORIENTED_EDGE('',*,*,#662,.F.);
#942=ORIENTED_EDGE('',*,*,#664,.F.);
#943=ORIENTED_EDGE('',*,*,#646,.F.);
#944=ORIENTED_EDGE('',*,*,#612,.T.);
#945=ORIENTED_EDGE('',*,*,#663,.F.);
#946=ORIENTED_EDGE('',*,*,#665,.F.);
#947=ORIENTED_EDGE('',*,*,#645,.F.);
#948=ORIENTED_EDGE('',*,*,#608,.F.);
#949=ORIENTED_EDGE('',*,*,#542,.F.);
#950=ORIENTED_EDGE('',*,*,#666,.T.);
#951=ORIENTED_EDGE('',*,*,#639,.F.);
#952=ORIENTED_EDGE('',*,*,#667,.F.);
#953=ORIENTED_EDGE('',*,*,#536,.F.);
#954=ORIENTED_EDGE('',*,*,#547,.T.);
#955=ORIENTED_EDGE('',*,*,#641,.F.);
#956=ORIENTED_EDGE('',*,*,#668,.F.);
#957=ORIENTED_EDGE('',*,*,#544,.F.);
#958=ORIENTED_EDGE('',*,*,#667,.T.);
#959=ORIENTED_EDGE('',*,*,#638,.F.);
#960=ORIENTED_EDGE('',*,*,#552,.F.);
#961=ORIENTED_EDGE('',*,*,#539,.F.);
#962=ORIENTED_EDGE('',*,*,#668,.T.);
#963=ORIENTED_EDGE('',*,*,#640,.F.);
#964=ORIENTED_EDGE('',*,*,#666,.F.);
#965=TOROIDAL_SURFACE('',#1045,1.6,0.4);
#966=TOROIDAL_SURFACE('',#1052,1.6,0.4);
#967=TOROIDAL_SURFACE('',#1058,1.6,0.4);
#968=TOROIDAL_SURFACE('',#1064,1.6,0.4);
#969=TOROIDAL_SURFACE('',#1083,1.2,0.4);
#970=TOROIDAL_SURFACE('',#1088,1.2,0.4);
#971=TOROIDAL_SURFACE('',#1093,1.2,0.4);
#972=TOROIDAL_SURFACE('',#1098,1.2,0.4);
#973=ADVANCED_FACE('',(#267),#965,.T.);
#974=ADVANCED_FACE('',(#268),#251,.T.);
#975=ADVANCED_FACE('',(#269),#966,.T.);
#976=ADVANCED_FACE('',(#270),#252,.T.);
#977=ADVANCED_FACE('',(#271),#967,.T.);
#978=ADVANCED_FACE('',(#272),#253,.T.);
#979=ADVANCED_FACE('',(#273),#968,.T.);
#980=ADVANCED_FACE('',(#274),#254,.T.);
#981=ADVANCED_FACE('',(#275),#29,.F.);
#982=ADVANCED_FACE('',(#276),#255,.T.);
#983=ADVANCED_FACE('',(#277),#30,.F.);
#984=ADVANCED_FACE('',(#278),#256,.T.);
#985=ADVANCED_FACE('',(#279,#27),#31,.T.);
#986=ADVANCED_FACE('',(#280),#257,.T.);
#987=ADVANCED_FACE('',(#281),#969,.T.);
#988=ADVANCED_FACE('',(#282),#258,.T.);
#989=ADVANCED_FACE('',(#283),#970,.T.);
#990=ADVANCED_FACE('',(#284),#259,.T.);
#991=ADVANCED_FACE('',(#285),#971,.T.);
#992=ADVANCED_FACE('',(#286),#260,.T.);
#993=ADVANCED_FACE('',(#287),#972,.T.);
#994=ADVANCED_FACE('',(#288),#261,.F.);
#995=ADVANCED_FACE('',(#289),#32,.T.);
#996=ADVANCED_FACE('',(#290),#262,.F.);
#997=ADVANCED_FACE('',(#291),#33,.T.);
#998=ADVANCED_FACE('',(#292),#34,.T.);
#999=ADVANCED_FACE('',(#293),#15,.F.);
#1000=ADVANCED_FACE('',(#294),#35,.T.);
#1001=ADVANCED_FACE('',(#295),#16,.F.);
#1002=ADVANCED_FACE('',(#296),#36,.T.);
#1003=ADVANCED_FACE('',(#297),#37,.T.);
#1004=ADVANCED_FACE('',(#298),#17,.F.);
#1005=ADVANCED_FACE('',(#299),#38,.T.);
#1006=ADVANCED_FACE('',(#300),#18,.F.);
#1007=ADVANCED_FACE('',(#301),#263,.F.);
#1008=ADVANCED_FACE('',(#302),#39,.T.);
#1009=ADVANCED_FACE('',(#303),#264,.F.);
#1010=ADVANCED_FACE('',(#304),#40,.F.);
#1011=ADVANCED_FACE('',(#305),#41,.F.);
#1012=ADVANCED_FACE('',(#306),#42,.F.);
#1013=ADVANCED_FACE('',(#307),#43,.F.);
#1014=ADVANCED_FACE('',(#308,#28),#44,.F.);
#1015=ADVANCED_FACE('',(#309),#45,.F.);
#1016=ADVANCED_FACE('',(#310),#46,.F.);
#1017=ADVANCED_FACE('',(#311),#47,.F.);
#1018=ADVANCED_FACE('',(#312),#48,.F.);
#1019=ADVANCED_FACE('',(#313),#49,.F.);
#1020=ADVANCED_FACE('',(#314),#50,.F.);
#1021=ADVANCED_FACE('',(#315),#51,.F.);
#1022=ADVANCED_FACE('',(#316),#52,.F.);
#1023=ADVANCED_FACE('',(#317),#53,.F.);
#1024=ADVANCED_FACE('',(#318),#54,.F.);
#1025=ADVANCED_FACE('',(#319),#55,.F.);
#1026=ADVANCED_FACE('',(#320),#56,.F.);
#1027=ADVANCED_FACE('',(#321),#265,.T.);
#1028=ADVANCED_FACE('',(#322),#266,.T.);
#1029=ADVANCED_FACE('',(#323),#57,.F.);
#1030=ADVANCED_FACE('',(#324),#58,.F.);
#1031=CLOSED_SHELL('',(#973,#974,#975,#976,#977,#978,#979,#980,#981,#982,
#983,#984,#985,#986,#987,#988,#989,#990,#991,#992,#993,#994,#995,#996,#997,
#998,#999,#1000,#1001,#1002,#1003,#1004,#1005,#1006,#1007,#1008,#1009,#1010,
#1011,#1012,#1013,#1014,#1015,#1016,#1017,#1018,#1019,#1020,#1021,#1022,
#1023,#1024,#1025,#1026,#1027,#1028,#1029,#1030));
#1032=DERIVED_UNIT_ELEMENT(#1034,1.);
#1033=DERIVED_UNIT_ELEMENT(#1769,-3.);
#1034=(
MASS_UNIT()
NAMED_UNIT(*)
SI_UNIT(.KILO.,.GRAM.)
);
#1035=DERIVED_UNIT((#1032,#1033));
#1036=MEASURE_REPRESENTATION_ITEM('density measure',
POSITIVE_RATIO_MEASURE(7850.),#1035);
#1037=PROPERTY_DEFINITION_REPRESENTATION(#1042,#1039);
#1038=PROPERTY_DEFINITION_REPRESENTATION(#1043,#1040);
#1039=REPRESENTATION('material name',(#1041),#1766);
#1040=REPRESENTATION('density',(#1036),#1766);
#1041=DESCRIPTIVE_REPRESENTATION_ITEM('Steel','Steel');
#1042=PROPERTY_DEFINITION('material property','material name',#1776);
#1043=PROPERTY_DEFINITION('material property','density of part',#1776);
#1044=AXIS2_PLACEMENT_3D('',#1449,#1147,#1148);
#1045=AXIS2_PLACEMENT_3D('',#1450,#1149,#1150);
#1046=AXIS2_PLACEMENT_3D('',#1453,#1151,#1152);
#1047=AXIS2_PLACEMENT_3D('',#1455,#1153,#1154);
#1048=AXIS2_PLACEMENT_3D('',#1457,#1155,#1156);
#1049=AXIS2_PLACEMENT_3D('',#1458,#1157,#1158);
#1050=AXIS2_PLACEMENT_3D('',#1459,#1159,#1160);
#1051=AXIS2_PLACEMENT_3D('',#1462,#1161,#1162);
#1052=AXIS2_PLACEMENT_3D('',#1465,#1165,#1166);
#1053=AXIS2_PLACEMENT_3D('',#1468,#1167,#1168);
#1054=AXIS2_PLACEMENT_3D('',#1469,#1169,#1170);
#1055=AXIS2_PLACEMENT_3D('',#1470,#1171,#1172);
#1056=AXIS2_PLACEMENT_3D('',#1471,#1173,#1174);
#1057=AXIS2_PLACEMENT_3D('',#1474,#1175,#1176);
#1058=AXIS2_PLACEMENT_3D('',#1477,#1179,#1180);
#1059=AXIS2_PLACEMENT_3D('',#1480,#1181,#1182);
#1060=AXIS2_PLACEMENT_3D('',#1481,#1183,#1184);
#1061=AXIS2_PLACEMENT_3D('',#1482,#1185,#1186);
#1062=AXIS2_PLACEMENT_3D('',#1483,#1187,#1188);
#1063=AXIS2_PLACEMENT_3D('',#1486,#1189,#1190);
#1064=AXIS2_PLACEMENT_3D('',#1489,#1193,#1194);
#1065=AXIS2_PLACEMENT_3D('',#1492,#1195,#1196);
#1066=AXIS2_PLACEMENT_3D('',#1493,#1197,#1198);
#1067=AXIS2_PLACEMENT_3D('',#1494,#1199,#1200);
#1068=AXIS2_PLACEMENT_3D('',#1495,#1201,#1202);
#1069=AXIS2_PLACEMENT_3D('',#1498,#1205,#1206);
#1070=AXIS2_PLACEMENT_3D('',#1504,#1210,#1211);
#1071=AXIS2_PLACEMENT_3D('',#1507,#1213,#1214);
#1072=AXIS2_PLACEMENT_3D('',#1508,#1215,#1216);
#1073=AXIS2_PLACEMENT_3D('',#1512,#1219,#1220);
#1074=AXIS2_PLACEMENT_3D('',#1515,#1222,#1223);
#1075=AXIS2_PLACEMENT_3D('',#1516,#1224,#1225);
#1076=AXIS2_PLACEMENT_3D('',#1521,#1227,#1228);
#1077=AXIS2_PLACEMENT_3D('',#1525,#1230,#1231);
#1078=AXIS2_PLACEMENT_3D('',#1529,#1233,#1234);
#1079=AXIS2_PLACEMENT_3D('',#1532,#1236,#1237);
#1080=AXIS2_PLACEMENT_3D('',#1533,#1238,#1239);
#1081=AXIS2_PLACEMENT_3D('',#1535,#1240,#1241);
#1082=AXIS2_PLACEMENT_3D('',#1538,#1243,#1244);
#1083=AXIS2_PLACEMENT_3D('',#1539,#1245,#1246);
#1084=AXIS2_PLACEMENT_3D('',#1541,#1247,#1248);
#1085=AXIS2_PLACEMENT_3D('',#1542,#1249,#1250);
#1086=AXIS2_PLACEMENT_3D('',#1543,#1251,#1252);
#1087=AXIS2_PLACEMENT_3D('',#1545,#1253,#1254);
#1088=AXIS2_PLACEMENT_3D('',#1547,#1256,#1257);
#1089=AXIS2_PLACEMENT_3D('',#1549,#1258,#1259);
#1090=AXIS2_PLACEMENT_3D('',#1550,#1260,#1261);
#1091=AXIS2_PLACEMENT_3D('',#1551,#1262,#1263);
#1092=AXIS2_PLACEMENT_3D('',#1553,#1264,#1265);
#1093=AXIS2_PLACEMENT_3D('',#1555,#1267,#1268);
#1094=AXIS2_PLACEMENT_3D('',#1557,#1269,#1270);
#1095=AXIS2_PLACEMENT_3D('',#1558,#1271,#1272);
#1096=AXIS2_PLACEMENT_3D('',#1559,#1273,#1274);
#1097=AXIS2_PLACEMENT_3D('',#1561,#1275,#1276);
#1098=AXIS2_PLACEMENT_3D('',#1563,#1278,#1279);
#1099=AXIS2_PLACEMENT_3D('',#1564,#1280,#1281);
#1100=AXIS2_PLACEMENT_3D('',#1565,#1282,#1283);
#1101=AXIS2_PLACEMENT_3D('',#1569,#1285,#1286);
#1102=AXIS2_PLACEMENT_3D('',#1571,#1288,#1289);
#1103=AXIS2_PLACEMENT_3D('',#1575,#1292,#1293);
#1104=AXIS2_PLACEMENT_3D('',#1578,#1295,#1296);
#1105=AXIS2_PLACEMENT_3D('',#1579,#1297,#1298);
#1106=AXIS2_PLACEMENT_3D('',#1603,#1307,#1308);
#1107=AXIS2_PLACEMENT_3D('',#1609,#1312,#1313);
#1108=AXIS2_PLACEMENT_3D('',#1617,#1315,#1316);
#1109=AXIS2_PLACEMENT_3D('',#1621,#1317,#1318);
#1110=AXIS2_PLACEMENT_3D('',#1625,#1321,#1322);
#1111=AXIS2_PLACEMENT_3D('',#1630,#1323,#1324);
#1112=AXIS2_PLACEMENT_3D('',#1631,#1325,#1326);
#1113=AXIS2_PLACEMENT_3D('',#1640,#1331,#1332);
#1114=AXIS2_PLACEMENT_3D('',#1657,#1340,#1341);
#1115=AXIS2_PLACEMENT_3D('',#1659,#1342,#1343);
#1116=AXIS2_PLACEMENT_3D('',#1663,#1345,#1346);
#1117=AXIS2_PLACEMENT_3D('',#1667,#1347,#1348);
#1118=AXIS2_PLACEMENT_3D('',#1673,#1352,#1353);
#1119=AXIS2_PLACEMENT_3D('',#1678,#1354,#1355);
#1120=AXIS2_PLACEMENT_3D('',#1679,#1356,#1357);
#1121=AXIS2_PLACEMENT_3D('',#1680,#1358,#1359);
#1122=AXIS2_PLACEMENT_3D('',#1682,#1361,#1362);
#1123=AXIS2_PLACEMENT_3D('',#1684,#1364,#1365);
#1124=AXIS2_PLACEMENT_3D('',#1685,#1366,#1367);
#1125=AXIS2_PLACEMENT_3D('',#1691,#1371,#1372);
#1126=AXIS2_PLACEMENT_3D('',#1695,#1375,#1376);
#1127=AXIS2_PLACEMENT_3D('',#1699,#1379,#1380);
#1128=AXIS2_PLACEMENT_3D('',#1701,#1382,#1383);
#1129=AXIS2_PLACEMENT_3D('',#1705,#1385,#1386);
#1130=AXIS2_PLACEMENT_3D('',#1708,#1388,#1389);
#1131=AXIS2_PLACEMENT_3D('',#1724,#1399,#1400);
#1132=AXIS2_PLACEMENT_3D('',#1730,#1404,#1405);
#1133=AXIS2_PLACEMENT_3D('',#1732,#1407,#1408);
#1134=AXIS2_PLACEMENT_3D('',#1734,#1410,#1411);
#1135=AXIS2_PLACEMENT_3D('',#1735,#1412,#1413);
#1136=AXIS2_PLACEMENT_3D('',#1741,#1417,#1418);
#1137=AXIS2_PLACEMENT_3D('',#1743,#1420,#1421);
#1138=AXIS2_PLACEMENT_3D('',#1745,#1423,#1424);
#1139=AXIS2_PLACEMENT_3D('',#1746,#1425,#1426);
#1140=AXIS2_PLACEMENT_3D('',#1752,#1430,#1431);
#1141=AXIS2_PLACEMENT_3D('',#1754,#1433,#1434);
#1142=AXIS2_PLACEMENT_3D('',#1756,#1436,#1437);
#1143=AXIS2_PLACEMENT_3D('',#1757,#1438,#1439);
#1144=AXIS2_PLACEMENT_3D('',#1760,#1442,#1443);
#1145=AXIS2_PLACEMENT_3D('',#1762,#1445,#1446);
#1146=AXIS2_PLACEMENT_3D('',#1763,#1447,#1448);
#1147=DIRECTION('axis',(0.,0.,1.));
#1148=DIRECTION('refdir',(1.,0.,0.));
#1149=DIRECTION('center_axis',(0.,0.,1.));
#1150=DIRECTION('ref_axis',(1.,0.,0.));
#1151=DIRECTION('center_axis',(-2.77555756156289E-15,1.,0.));
#1152=DIRECTION('ref_axis',(0.,0.,1.));
#1153=DIRECTION('center_axis',(0.,0.,1.));
#1154=DIRECTION('ref_axis',(0.707106781186547,0.707106781186548,0.));
#1155=DIRECTION('center_axis',(1.,0.,0.));
#1156=DIRECTION('ref_axis',(0.,1.,0.));
#1157=DIRECTION('center_axis',(0.,0.,-1.));
#1158=DIRECTION('ref_axis',(0.707106781186547,0.707106781186548,0.));
#1159=DIRECTION('center_axis',(-1.,0.,0.));
#1160=DIRECTION('ref_axis',(0.,0.707106781186548,0.707106781186548));
#1161=DIRECTION('center_axis',(1.,0.,0.));
#1162=DIRECTION('ref_axis',(0.,1.,0.));
#1163=DIRECTION('',(1.,0.,0.));
#1164=DIRECTION('',(-1.,0.,0.));
#1165=DIRECTION('center_axis',(0.,0.,1.));
#1166=DIRECTION('ref_axis',(1.,0.,0.));
#1167=DIRECTION('center_axis',(2.77555756156289E-15,1.,0.));
#1168=DIRECTION('ref_axis',(-1.,2.77555756156289E-15,0.));
#1169=DIRECTION('center_axis',(0.,0.,-1.));
#1170=DIRECTION('ref_axis',(-0.707106781186547,0.707106781186548,0.));
#1171=DIRECTION('center_axis',(0.,0.,1.));
#1172=DIRECTION('ref_axis',(-0.707106781186547,0.707106781186548,0.));
#1173=DIRECTION('center_axis',(0.,-1.,0.));
#1174=DIRECTION('ref_axis',(-0.707106781186548,0.,0.707106781186548));
#1175=DIRECTION('center_axis',(0.,1.,0.));
#1176=DIRECTION('ref_axis',(-1.,0.,0.));
#1177=DIRECTION('',(0.,1.,0.));
#1178=DIRECTION('',(0.,-1.,0.));
#1179=DIRECTION('center_axis',(0.,0.,1.));
#1180=DIRECTION('ref_axis',(1.,0.,0.));
#1181=DIRECTION('center_axis',(-1.,0.,0.));
#1182=DIRECTION('ref_axis',(0.,-1.,0.));
#1183=DIRECTION('center_axis',(0.,0.,-1.));
#1184=DIRECTION('ref_axis',(-0.707106781186547,-0.707106781186548,0.));
#1185=DIRECTION('center_axis',(0.,0.,1.));
#1186=DIRECTION('ref_axis',(-0.707106781186547,-0.707106781186548,0.));
#1187=DIRECTION('center_axis',(1.,0.,0.));
#1188=DIRECTION('ref_axis',(0.,-0.707106781186548,0.707106781186548));
#1189=DIRECTION('center_axis',(-1.,0.,0.));
#1190=DIRECTION('ref_axis',(0.,-1.,0.));
#1191=DIRECTION('',(-1.,0.,0.));
#1192=DIRECTION('',(1.,0.,0.));
#1193=DIRECTION('center_axis',(0.,0.,1.));
#1194=DIRECTION('ref_axis',(1.,0.,0.));
#1195=DIRECTION('center_axis',(-2.77555756156289E-15,-1.,0.));
#1196=DIRECTION('ref_axis',(1.,-2.77555756156289E-15,0.));
#1197=DIRECTION('center_axis',(0.,0.,-1.));
#1198=DIRECTION('ref_axis',(0.707106781186547,-0.707106781186548,0.));
#1199=DIRECTION('center_axis',(0.,0.,1.));
#1200=DIRECTION('ref_axis',(0.707106781186547,-0.707106781186548,0.));
#1201=DIRECTION('center_axis',(0.,1.,0.));
#1202=DIRECTION('ref_axis',(0.707106781186548,0.,0.707106781186548));
#1203=DIRECTION('',(0.,-1.,0.));
#1204=DIRECTION('',(0.,1.,0.));
#1205=DIRECTION('center_axis',(1.,0.,0.));
#1206=DIRECTION('ref_axis',(0.,0.,-1.));
#1207=DIRECTION('',(0.,0.,-1.));
#1208=DIRECTION('',(0.,1.,0.));
#1209=DIRECTION('',(0.,0.,-1.));
#1210=DIRECTION('center_axis',(0.,0.,1.));
#1211=DIRECTION('ref_axis',(1.,0.,0.));
#1212=DIRECTION('',(0.,0.,-1.));
#1213=DIRECTION('center_axis',(0.,0.,-1.));
#1214=DIRECTION('ref_axis',(1.,0.,0.));
#1215=DIRECTION('center_axis',(0.,-1.,0.));
#1216=DIRECTION('ref_axis',(0.,0.,-1.));
#1217=DIRECTION('',(0.,0.,-1.));
#1218=DIRECTION('',(1.,0.,0.));
#1219=DIRECTION('center_axis',(0.,0.,1.));
#1220=DIRECTION('ref_axis',(1.,0.,0.));
#1221=DIRECTION('',(0.,0.,-1.));
#1222=DIRECTION('center_axis',(0.,0.,-1.));
#1223=DIRECTION('ref_axis',(1.,0.,0.));
#1224=DIRECTION('center_axis',(0.,0.,1.));
#1225=DIRECTION('ref_axis',(1.,0.,0.));
#1226=DIRECTION('',(0.,1.,0.));
#1227=DIRECTION('center_axis',(0.,0.,1.));
#1228=DIRECTION('ref_axis',(0.707106781186547,-0.707106781186547,0.));
#1229=DIRECTION('',(1.,0.,0.));
#1230=DIRECTION('center_axis',(0.,0.,1.));
#1231=DIRECTION('ref_axis',(-0.707106781186547,-0.707106781186547,0.));
#1232=DIRECTION('',(0.,-1.,0.));
#1233=DIRECTION('center_axis',(0.,0.,1.));
#1234=DIRECTION('ref_axis',(-0.707106781186547,0.707106781186547,0.));
#1235=DIRECTION('',(-1.,0.,0.));
#1236=DIRECTION('center_axis',(0.,0.,1.));
#1237=DIRECTION('ref_axis',(0.707106781186547,0.707106781186547,0.));
#1238=DIRECTION('center_axis',(0.,-1.,0.));
#1239=DIRECTION('ref_axis',(-0.707106781186548,0.,0.707106781186548));
#1240=DIRECTION('center_axis',(0.,-1.,0.));
#1241=DIRECTION('ref_axis',(0.,0.,1.));
#1242=DIRECTION('',(0.,-1.,0.));
#1243=DIRECTION('center_axis',(0.,1.,0.));
#1244=DIRECTION('ref_axis',(-1.,0.,0.));
#1245=DIRECTION('center_axis',(0.,0.,-1.));
#1246=DIRECTION('ref_axis',(-1.,0.,0.));
#1247=DIRECTION('center_axis',(1.,0.,0.));
#1248=DIRECTION('ref_axis',(0.,1.,0.));
#1249=DIRECTION('center_axis',(0.,0.,-1.));
#1250=DIRECTION('ref_axis',(0.707106781186548,-0.707106781186548,0.));
#1251=DIRECTION('center_axis',(-1.,0.,0.));
#1252=DIRECTION('ref_axis',(0.,0.707106781186548,0.707106781186548));
#1253=DIRECTION('center_axis',(1.,0.,0.));
#1254=DIRECTION('ref_axis',(0.,1.,0.));
#1255=DIRECTION('',(-1.,0.,0.));
#1256=DIRECTION('center_axis',(0.,0.,-1.));
#1257=DIRECTION('ref_axis',(-1.,0.,0.));
#1258=DIRECTION('center_axis',(0.,-1.,0.));
#1259=DIRECTION('ref_axis',(1.,0.,0.));
#1260=DIRECTION('center_axis',(0.,0.,-1.));
#1261=DIRECTION('ref_axis',(-0.707106781186548,-0.707106781186548,0.));
#1262=DIRECTION('center_axis',(0.,1.,0.));
#1263=DIRECTION('ref_axis',(0.707106781186548,0.,0.707106781186548));
#1264=DIRECTION('center_axis',(0.,-1.,0.));
#1265=DIRECTION('ref_axis',(1.,0.,0.));
#1266=DIRECTION('',(0.,1.,0.));
#1267=DIRECTION('center_axis',(0.,0.,-1.));
#1268=DIRECTION('ref_axis',(-1.,0.,0.));
#1269=DIRECTION('center_axis',(-1.,0.,0.));
#1270=DIRECTION('ref_axis',(0.,-1.,0.));
#1271=DIRECTION('center_axis',(0.,0.,-1.));
#1272=DIRECTION('ref_axis',(-0.707106781186548,0.707106781186548,0.));
#1273=DIRECTION('center_axis',(1.,0.,0.));
#1274=DIRECTION('ref_axis',(0.,-0.707106781186548,0.707106781186548));
#1275=DIRECTION('center_axis',(-1.,0.,0.));
#1276=DIRECTION('ref_axis',(0.,-1.,0.));
#1277=DIRECTION('',(1.,0.,0.));
#1278=DIRECTION('center_axis',(0.,0.,-1.));
#1279=DIRECTION('ref_axis',(-1.,0.,0.));
#1280=DIRECTION('center_axis',(0.,0.,-1.));
#1281=DIRECTION('ref_axis',(0.707106781186548,0.707106781186548,0.));
#1282=DIRECTION('center_axis',(0.,0.,1.));
#1283=DIRECTION('ref_axis',(1.,0.,0.));
#1284=DIRECTION('',(0.,0.,-1.));
#1285=DIRECTION('center_axis',(0.,0.,1.));
#1286=DIRECTION('ref_axis',(-1.,0.,0.));
#1287=DIRECTION('',(0.,0.,-1.));
#1288=DIRECTION('center_axis',(0.,1.,0.));
#1289=DIRECTION('ref_axis',(0.,0.,1.));
#1290=DIRECTION('',(0.,0.,-1.));
#1291=DIRECTION('',(1.,0.,0.));
#1292=DIRECTION('center_axis',(0.,0.,1.));
#1293=DIRECTION('ref_axis',(1.,0.,0.));
#1294=DIRECTION('',(0.,0.,-1.));
#1295=DIRECTION('center_axis',(0.,0.,1.));
#1296=DIRECTION('ref_axis',(1.,0.,0.));
#1297=DIRECTION('center_axis',(-1.,0.,0.));
#1298=DIRECTION('ref_axis',(0.,0.,1.));
#1299=DIRECTION('',(0.,0.,-1.));
#1300=DIRECTION('',(0.,0.,-1.));
#1301=DIRECTION('',(0.,1.,0.));
#1302=DIRECTION('',(0.,0.,-1.));
#1303=DIRECTION('',(0.,1.,0.));
#1304=DIRECTION('',(0.,0.,-1.));
#1305=DIRECTION('',(0.,1.,0.));
#1306=DIRECTION('',(0.,0.,-1.));
#1307=DIRECTION('center_axis',(-0.707106781186547,0.,-0.707106781186548));
#1308=DIRECTION('ref_axis',(-0.707106781186548,0.,0.707106781186547));
#1309=DIRECTION('',(0.707106781186548,0.,-0.707106781186547));
#1310=DIRECTION('',(-0.707106781186548,0.,0.707106781186547));
#1311=DIRECTION('',(0.,-1.,0.));
#1312=DIRECTION('center_axis',(0.,0.,-1.));
#1313=DIRECTION('ref_axis',(-1.,0.,0.));
#1314=DIRECTION('',(0.,-0.707106781186548,-0.707106781186547));
#1315=DIRECTION('center_axis',(0.,0.,-1.));
#1316=DIRECTION('ref_axis',(-1.,0.,0.));
#1317=DIRECTION('center_axis',(0.,0.707106781186547,-0.707106781186548));
#1318=DIRECTION('ref_axis',(-1.,0.,0.));
#1319=DIRECTION('',(0.,-0.707106781186548,-0.707106781186547));
#1320=DIRECTION('',(-1.,0.,0.));
#1321=DIRECTION('center_axis',(0.,0.,-1.));
#1322=DIRECTION('ref_axis',(1.,0.,0.));
#1323=DIRECTION('center_axis',(0.,0.,-1.));
#1324=DIRECTION('ref_axis',(1.,0.,0.));
#1325=DIRECTION('center_axis',(0.707106781186547,0.,-0.707106781186548));
#1326=DIRECTION('ref_axis',(-0.707106781186548,0.,-0.707106781186547));
#1327=DIRECTION('',(-0.707106781186548,0.,-0.707106781186547));
#1328=DIRECTION('',(0.,-1.,0.));
#1329=DIRECTION('',(0.707106781186548,0.,0.707106781186547));
#1330=DIRECTION('',(0.,1.,0.));
#1331=DIRECTION('center_axis',(1.,0.,0.));
#1332=DIRECTION('ref_axis',(0.,0.,-1.));
#1333=DIRECTION('',(0.,0.,1.));
#1334=DIRECTION('',(0.,-1.,0.));
#1335=DIRECTION('',(0.,0.,-1.));
#1336=DIRECTION('',(0.,0.,-1.));
#1337=DIRECTION('',(0.,-1.,0.));
#1338=DIRECTION('',(0.,0.,-1.));
#1339=DIRECTION('',(0.,0.,-1.));
#1340=DIRECTION('center_axis',(0.,0.,-1.));
#1341=DIRECTION('ref_axis',(1.,0.,0.));
#1342=DIRECTION('center_axis',(0.,0.,1.));
#1343=DIRECTION('ref_axis',(1.,0.,0.));
#1344=DIRECTION('',(0.,0.707106781186548,-0.707106781186547));
#1345=DIRECTION('center_axis',(0.,0.,-1.));
#1346=DIRECTION('ref_axis',(1.,0.,0.));
#1347=DIRECTION('center_axis',(0.,-0.707106781186547,-0.707106781186548));
#1348=DIRECTION('ref_axis',(-1.,0.,0.));
#1349=DIRECTION('',(0.,0.707106781186548,-0.707106781186547));
#1350=DIRECTION('',(1.,0.,0.));
#1351=DIRECTION('',(-1.,0.,0.));
#1352=DIRECTION('center_axis',(0.,0.,-1.));
#1353=DIRECTION('ref_axis',(-1.,0.,0.));
#1354=DIRECTION('center_axis',(0.,0.,-1.));
#1355=DIRECTION('ref_axis',(-1.,0.,0.));
#1356=DIRECTION('center_axis',(0.,0.,1.));
#1357=DIRECTION('ref_axis',(-1.,0.,0.));
#1358=DIRECTION('center_axis',(0.,0.,1.));
#1359=DIRECTION('ref_axis',(1.,0.,0.));
#1360=DIRECTION('',(0.,0.,-1.));
#1361=DIRECTION('center_axis',(0.,-1.,0.));
#1362=DIRECTION('ref_axis',(0.,0.,-1.));
#1363=DIRECTION('',(0.,0.,-1.));
#1364=DIRECTION('center_axis',(0.,0.,1.));
#1365=DIRECTION('ref_axis',(1.,0.,0.));
#1366=DIRECTION('center_axis',(0.,0.,1.));
#1367=DIRECTION('ref_axis',(1.,0.,0.));
#1368=DIRECTION('',(0.,-1.,0.));
#1369=DIRECTION('',(-1.,0.,0.));
#1370=DIRECTION('',(1.,0.,0.));
#1371=DIRECTION('center_axis',(0.,1.,0.));
#1372=DIRECTION('ref_axis',(0.,0.,1.));
#1373=DIRECTION('',(0.,0.,-1.));
#1374=DIRECTION('',(1.,0.,0.));
#1375=DIRECTION('center_axis',(0.,-1.,0.));
#1376=DIRECTION('ref_axis',(0.,0.,-1.));
#1377=DIRECTION('',(0.,0.,-1.));
#1378=DIRECTION('',(-1.,0.,0.));
#1379=DIRECTION('center_axis',(-1.,0.,0.));
#1380=DIRECTION('ref_axis',(0.,0.,1.));
#1381=DIRECTION('',(0.,1.,0.));
#1382=DIRECTION('center_axis',(0.,0.,1.));
#1383=DIRECTION('ref_axis',(1.,0.,0.));
#1384=DIRECTION('',(0.,-1.,0.));
#1385=DIRECTION('center_axis',(0.,0.,-1.));
#1386=DIRECTION('ref_axis',(1.,0.,0.));
#1387=DIRECTION('',(-1.,0.,0.));
#1388=DIRECTION('center_axis',(0.,0.,-1.));
#1389=DIRECTION('ref_axis',(1.,0.,0.));
#1390=DIRECTION('',(-1.,0.,0.));
#1391=DIRECTION('',(0.,-1.,0.));
#1392=DIRECTION('',(1.,0.,0.));
#1393=DIRECTION('',(-1.,0.,0.));
#1394=DIRECTION('',(0.,-1.,0.));
#1395=DIRECTION('',(1.,0.,0.));
#1396=DIRECTION('',(1.,0.,0.));
#1397=DIRECTION('',(0.,1.,0.));
#1398=DIRECTION('',(-1.,0.,0.));
#1399=DIRECTION('center_axis',(0.,0.,1.));
#1400=DIRECTION('ref_axis',(1.,0.,0.));
#1401=DIRECTION('',(0.,-1.,0.));
#1402=DIRECTION('',(-1.,0.,0.));
#1403=DIRECTION('',(1.,0.,0.));
#1404=DIRECTION('center_axis',(0.,1.,0.));
#1405=DIRECTION('ref_axis',(0.,0.,1.));
#1406=DIRECTION('',(0.,0.,-1.));
#1407=DIRECTION('center_axis',(0.,-1.,0.));
#1408=DIRECTION('ref_axis',(0.,0.,-1.));
#1409=DIRECTION('',(0.,0.,-1.));
#1410=DIRECTION('center_axis',(-1.,0.,0.));
#1411=DIRECTION('ref_axis',(0.,0.,1.));
#1412=DIRECTION('center_axis',(0.,0.,1.));
#1413=DIRECTION('ref_axis',(1.,0.,0.));
#1414=DIRECTION('',(-1.,0.,0.));
#1415=DIRECTION('',(0.,1.,0.));
#1416=DIRECTION('',(1.,0.,0.));
#1417=DIRECTION('center_axis',(0.,1.,0.));
#1418=DIRECTION('ref_axis',(0.,0.,1.));
#1419=DIRECTION('',(0.,0.,-1.));
#1420=DIRECTION('center_axis',(1.,0.,0.));
#1421=DIRECTION('ref_axis',(0.,0.,-1.));
#1422=DIRECTION('',(0.,0.,-1.));
#1423=DIRECTION('center_axis',(0.,-1.,0.));
#1424=DIRECTION('ref_axis',(0.,0.,-1.));
#1425=DIRECTION('center_axis',(0.,0.,1.));
#1426=DIRECTION('ref_axis',(1.,0.,0.));
#1427=DIRECTION('',(-1.,0.,0.));
#1428=DIRECTION('',(0.,1.,0.));
#1429=DIRECTION('',(1.,0.,0.));
#1430=DIRECTION('center_axis',(0.,1.,0.));
#1431=DIRECTION('ref_axis',(0.,0.,1.));
#1432=DIRECTION('',(0.,0.,-1.));
#1433=DIRECTION('center_axis',(1.,0.,0.));
#1434=DIRECTION('ref_axis',(0.,0.,-1.));
#1435=DIRECTION('',(0.,0.,-1.));
#1436=DIRECTION('center_axis',(0.,-1.,0.));
#1437=DIRECTION('ref_axis',(0.,0.,-1.));
#1438=DIRECTION('center_axis',(0.,0.,1.));
#1439=DIRECTION('ref_axis',(1.,0.,0.));
#1440=DIRECTION('',(0.,0.,-1.));
#1441=DIRECTION('',(0.,0.,-1.));
#1442=DIRECTION('center_axis',(0.,0.,1.));
#1443=DIRECTION('ref_axis',(1.,0.,0.));
#1444=DIRECTION('',(0.,0.,-1.));
#1445=DIRECTION('center_axis',(-1.,0.,0.));
#1446=DIRECTION('ref_axis',(0.,0.,1.));
#1447=DIRECTION('center_axis',(0.,1.,0.));
#1448=DIRECTION('ref_axis',(0.,0.,1.));
#1449=CARTESIAN_POINT('',(0.,0.,0.));
#1450=CARTESIAN_POINT('Origin',(18.,8.15,3.8));
#1451=CARTESIAN_POINT('',(19.6,8.15,4.2));
#1452=CARTESIAN_POINT('',(20.,8.15,3.8));
#1453=CARTESIAN_POINT('Origin',(19.6,8.15,3.8));
#1454=CARTESIAN_POINT('',(18.,10.15,3.8));
#1455=CARTESIAN_POINT('Origin',(18.,8.15,3.8));
#1456=CARTESIAN_POINT('',(18.,9.75,4.2));
#1457=CARTESIAN_POINT('Origin',(18.,9.75,3.8));
#1458=CARTESIAN_POINT('Origin',(18.,8.15,4.2));
#1459=CARTESIAN_POINT('Origin',(0.,9.75,3.8));
#1460=CARTESIAN_POINT('',(-18.,10.15,3.8));
#1461=CARTESIAN_POINT('',(-18.,9.75,4.2));
#1462=CARTESIAN_POINT('Origin',(-18.,9.75,3.8));
#1463=CARTESIAN_POINT('',(0.,9.75,4.2));
#1464=CARTESIAN_POINT('',(0.,10.15,3.8));
#1465=CARTESIAN_POINT('Origin',(-18.,8.15,3.8));
#1466=CARTESIAN_POINT('',(-20.,8.15,3.8));
#1467=CARTESIAN_POINT('',(-19.6,8.15,4.2));
#1468=CARTESIAN_POINT('Origin',(-19.6,8.15,3.8));
#1469=CARTESIAN_POINT('Origin',(-18.,8.15,4.2));
#1470=CARTESIAN_POINT('Origin',(-18.,8.15,3.8));
#1471=CARTESIAN_POINT('Origin',(-19.6,0.,3.8));
#1472=CARTESIAN_POINT('',(-20.,-8.15,3.8));
#1473=CARTESIAN_POINT('',(-19.6,-8.15,4.2));
#1474=CARTESIAN_POINT('Origin',(-19.6,-8.15,3.8));
#1475=CARTESIAN_POINT('',(-19.6,0.,4.2));
#1476=CARTESIAN_POINT('',(-20.,0.,3.8));
#1477=CARTESIAN_POINT('Origin',(-18.,-8.15,3.8));
#1478=CARTESIAN_POINT('',(-18.,-10.15,3.8));
#1479=CARTESIAN_POINT('',(-18.,-9.75,4.2));
#1480=CARTESIAN_POINT('Origin',(-18.,-9.75,3.8));
#1481=CARTESIAN_POINT('Origin',(-18.,-8.15,4.2));
#1482=CARTESIAN_POINT('Origin',(-18.,-8.15,3.8));
#1483=CARTESIAN_POINT('Origin',(0.,-9.75,3.8));
#1484=CARTESIAN_POINT('',(18.,-10.15,3.8));
#1485=CARTESIAN_POINT('',(18.,-9.75,4.2));
#1486=CARTESIAN_POINT('Origin',(18.,-9.75,3.8));
#1487=CARTESIAN_POINT('',(0.,-9.75,4.2));
#1488=CARTESIAN_POINT('',(0.,-10.15,3.8));
#1489=CARTESIAN_POINT('Origin',(18.,-8.15,3.8));
#1490=CARTESIAN_POINT('',(20.,-8.15,3.8));
#1491=CARTESIAN_POINT('',(19.6,-8.15,4.2));
#1492=CARTESIAN_POINT('Origin',(19.6,-8.15,3.8));
#1493=CARTESIAN_POINT('Origin',(18.,-8.15,4.2));
#1494=CARTESIAN_POINT('Origin',(18.,-8.15,3.8));
#1495=CARTESIAN_POINT('Origin',(19.6,0.,3.8));
#1496=CARTESIAN_POINT('',(19.6,0.,4.2));
#1497=CARTESIAN_POINT('',(20.,0.,3.8));
#1498=CARTESIAN_POINT('Origin',(-20.,0.,3.6));
#1499=CARTESIAN_POINT('',(-20.,8.15,3.));
#1500=CARTESIAN_POINT('',(-20.,8.15,3.6));
#1501=CARTESIAN_POINT('',(-20.,-8.15,3.));
#1502=CARTESIAN_POINT('',(-20.,0.,3.));
#1503=CARTESIAN_POINT('',(-20.,-8.15,3.6));
#1504=CARTESIAN_POINT('Origin',(-18.,8.15,3.6));
#1505=CARTESIAN_POINT('',(-18.,10.15,3.));
#1506=CARTESIAN_POINT('',(-18.,10.15,3.6));
#1507=CARTESIAN_POINT('Origin',(-18.,8.15,3.));
#1508=CARTESIAN_POINT('Origin',(0.,10.15,3.6));
#1509=CARTESIAN_POINT('',(18.,10.15,3.));
#1510=CARTESIAN_POINT('',(18.,10.15,3.6));
#1511=CARTESIAN_POINT('',(0.,10.15,3.));
#1512=CARTESIAN_POINT('Origin',(18.,8.15,3.6));
#1513=CARTESIAN_POINT('',(20.,8.15,3.));
#1514=CARTESIAN_POINT('',(20.,8.15,3.6));
#1515=CARTESIAN_POINT('Origin',(18.,8.15,3.));
#1516=CARTESIAN_POINT('Origin',(0.,0.,4.2));
#1517=CARTESIAN_POINT('',(15.6,-6.75,4.2));
#1518=CARTESIAN_POINT('',(15.6,6.75,4.2));
#1519=CARTESIAN_POINT('',(15.6,0.,4.2));
#1520=CARTESIAN_POINT('',(14.4,-7.95,4.2));
#1521=CARTESIAN_POINT('Origin',(14.4,-6.75,4.2));
#1522=CARTESIAN_POINT('',(-14.4,-7.95,4.2));
#1523=CARTESIAN_POINT('',(0.,-7.95,4.2));
#1524=CARTESIAN_POINT('',(-15.6,-6.75,4.2));
#1525=CARTESIAN_POINT('Origin',(-14.4,-6.75,4.2));
#1526=CARTESIAN_POINT('',(-15.6,6.75,4.2));
#1527=CARTESIAN_POINT('',(-15.6,0.,4.2));
#1528=CARTESIAN_POINT('',(-14.4,7.95,4.2));
#1529=CARTESIAN_POINT('Origin',(-14.4,6.75,4.2));
#1530=CARTESIAN_POINT('',(14.4,7.95,4.2));
#1531=CARTESIAN_POINT('',(0.,7.95,4.2));
#1532=CARTESIAN_POINT('Origin',(14.4,6.75,4.2));
#1533=CARTESIAN_POINT('Origin',(15.6,0.,3.8));
#1534=CARTESIAN_POINT('',(15.2,6.75,3.8));
#1535=CARTESIAN_POINT('Origin',(15.6,6.75,3.8));
#1536=CARTESIAN_POINT('',(15.2,-6.75,3.8));
#1537=CARTESIAN_POINT('',(15.2,0.,3.8));
#1538=CARTESIAN_POINT('Origin',(15.6,-6.75,3.8));
#1539=CARTESIAN_POINT('Origin',(14.4,-6.75,3.8));
#1540=CARTESIAN_POINT('',(14.4,-7.55,3.8));
#1541=CARTESIAN_POINT('Origin',(14.4,-7.95,3.8));
#1542=CARTESIAN_POINT('Origin',(14.4,-6.75,3.8));
#1543=CARTESIAN_POINT('Origin',(0.,-7.95,3.8));
#1544=CARTESIAN_POINT('',(-14.4,-7.55,3.8));
#1545=CARTESIAN_POINT('Origin',(-14.4,-7.95,3.8));
#1546=CARTESIAN_POINT('',(0.,-7.55,3.8));
#1547=CARTESIAN_POINT('Origin',(-14.4,-6.75,3.8));
#1548=CARTESIAN_POINT('',(-15.2,-6.75,3.8));
#1549=CARTESIAN_POINT('Origin',(-15.6,-6.75,3.8));
#1550=CARTESIAN_POINT('Origin',(-14.4,-6.75,3.8));
#1551=CARTESIAN_POINT('Origin',(-15.6,0.,3.8));
#1552=CARTESIAN_POINT('',(-15.2,6.75,3.8));
#1553=CARTESIAN_POINT('Origin',(-15.6,6.75,3.8));
#1554=CARTESIAN_POINT('',(-15.2,0.,3.8));
#1555=CARTESIAN_POINT('Origin',(-14.4,6.75,3.8));
#1556=CARTESIAN_POINT('',(-14.4,7.55,3.8));
#1557=CARTESIAN_POINT('Origin',(-14.4,7.95,3.8));
#1558=CARTESIAN_POINT('Origin',(-14.4,6.75,3.8));
#1559=CARTESIAN_POINT('Origin',(0.,7.95,3.8));
#1560=CARTESIAN_POINT('',(14.4,7.55,3.8));
#1561=CARTESIAN_POINT('Origin',(14.4,7.95,3.8));
#1562=CARTESIAN_POINT('',(0.,7.55,3.8));
#1563=CARTESIAN_POINT('Origin',(14.4,6.75,3.8));
#1564=CARTESIAN_POINT('Origin',(14.4,6.75,3.8));
#1565=CARTESIAN_POINT('Origin',(-14.4,-6.75,3.6));
#1566=CARTESIAN_POINT('',(-14.4,-7.55,3.5));
#1567=CARTESIAN_POINT('',(-14.4,-7.55,3.6));
#1568=CARTESIAN_POINT('',(-15.2,-6.75,3.5));
#1569=CARTESIAN_POINT('Origin',(-14.4,-6.75,3.5));
#1570=CARTESIAN_POINT('',(-15.2,-6.75,3.6));
#1571=CARTESIAN_POINT('Origin',(0.,-7.55,3.6));
#1572=CARTESIAN_POINT('',(14.4,-7.55,3.5));
#1573=CARTESIAN_POINT('',(14.4,-7.55,3.6));
#1574=CARTESIAN_POINT('',(0.,-7.55,3.5));
#1575=CARTESIAN_POINT('Origin',(14.4,-6.75,3.6));
#1576=CARTESIAN_POINT('',(15.2,-6.75,3.5));
#1577=CARTESIAN_POINT('',(15.2,-6.75,3.6));
#1578=CARTESIAN_POINT('Origin',(14.4,-6.75,3.5));
#1579=CARTESIAN_POINT('Origin',(15.2,0.,3.6));
#1580=CARTESIAN_POINT('',(15.2,6.75,3.5));
#1581=CARTESIAN_POINT('',(15.2,6.75,3.6));
#1582=CARTESIAN_POINT('',(15.2,7.75,3.01937515251343));
#1583=CARTESIAN_POINT('Ctrl Pts',(15.2,6.75,3.5));
#1584=CARTESIAN_POINT('Ctrl Pts',(15.2,7.13449987798925,3.5));
#1585=CARTESIAN_POINT('Ctrl Pts',(15.2,7.75,3.01937515251343));
#1586=CARTESIAN_POINT('',(15.2,7.75,2.3));
#1587=CARTESIAN_POINT('',(15.2,7.75,2.65));
#1588=CARTESIAN_POINT('',(15.2,5.55,2.3));
#1589=CARTESIAN_POINT('',(15.2,6.65,2.3));
#1590=CARTESIAN_POINT('',(15.2,5.55,3.5));
#1591=CARTESIAN_POINT('',(15.2,5.55,2.65));
#1592=CARTESIAN_POINT('',(15.2,-5.55,3.5));
#1593=CARTESIAN_POINT('',(15.2,0.,3.5));
#1594=CARTESIAN_POINT('',(15.2,-5.55,2.3));
#1595=CARTESIAN_POINT('',(15.2,-5.55,2.65));
#1596=CARTESIAN_POINT('',(15.2,-7.75,2.3));
#1597=CARTESIAN_POINT('',(15.2,-6.65,2.3));
#1598=CARTESIAN_POINT('',(15.2,-7.75,3.01937515251343));
#1599=CARTESIAN_POINT('',(15.2,-7.75,2.65));
#1600=CARTESIAN_POINT('Ctrl Pts',(15.2,-7.74999999999998,3.01937515251344));
#1601=CARTESIAN_POINT('Ctrl Pts',(15.2,-7.13449987798925,3.5));
#1602=CARTESIAN_POINT('Ctrl Pts',(15.2,-6.75,3.5));
#1603=CARTESIAN_POINT('Origin',(15.45,0.,3.25));
#1604=CARTESIAN_POINT('',(15.7,-5.55,3.));
#1605=CARTESIAN_POINT('',(15.8375,-5.55,2.8625));
#1606=CARTESIAN_POINT('',(15.7,5.55,3.));
#1607=CARTESIAN_POINT('',(15.8375,5.55,2.8625));
#1608=CARTESIAN_POINT('',(15.7,0.,3.));
#1609=CARTESIAN_POINT('Origin',(-14.4,-6.75,3.25));
#1610=CARTESIAN_POINT('',(-15.2,-7.75,3.01937515251343));
#1611=CARTESIAN_POINT('Ctrl Pts',(-15.2,-6.75,3.5));
#1612=CARTESIAN_POINT('Ctrl Pts',(-15.2,-7.13449987798925,3.5));
#1613=CARTESIAN_POINT('Ctrl Pts',(-15.2,-7.75,3.01937515251343));
#1614=CARTESIAN_POINT('',(-14.4,-8.05,3.));
#1615=CARTESIAN_POINT('',(-14.4,-7.55,3.5));
#1616=CARTESIAN_POINT('',(-15.2306623862918,-7.75,3.));
#1617=CARTESIAN_POINT('Origin',(-14.4,-6.75,3.));
#1618=CARTESIAN_POINT('Ctrl Pts',(-15.1999999999847,-7.75,3.01937515252296));
#1619=CARTESIAN_POINT('Ctrl Pts',(-15.2152160875935,-7.75,3.00986973795076));
#1620=CARTESIAN_POINT('Ctrl Pts',(-15.2306623862734,-7.75,3.00000000001174));
#1621=CARTESIAN_POINT('Origin',(0.,-7.8,3.25));
#1622=CARTESIAN_POINT('',(14.4,-8.05,3.));
#1623=CARTESIAN_POINT('',(14.4,-7.55,3.5));
#1624=CARTESIAN_POINT('',(0.,-8.05,3.));
#1625=CARTESIAN_POINT('Origin',(14.4,-6.75,3.25));
#1626=CARTESIAN_POINT('',(15.2306623862918,-7.75,3.));
#1627=CARTESIAN_POINT('Ctrl Pts',(15.2306623862918,-7.75,3.));
#1628=CARTESIAN_POINT('Ctrl Pts',(15.2152160876107,-7.75,3.00986973793986));
#1629=CARTESIAN_POINT('Ctrl Pts',(15.2000000000009,-7.75,3.01937515251286));
#1630=CARTESIAN_POINT('Origin',(14.4,-6.75,3.));
#1631=CARTESIAN_POINT('Origin',(-15.45,0.,3.25));
#1632=CARTESIAN_POINT('',(-15.7,5.55,3.));
#1633=CARTESIAN_POINT('',(-15.2,5.55,3.5));
#1634=CARTESIAN_POINT('',(-15.8375,5.55,2.8625));
#1635=CARTESIAN_POINT('',(-15.2,-5.55,3.5));
#1636=CARTESIAN_POINT('',(-15.2,0.,3.5));
#1637=CARTESIAN_POINT('',(-15.7,-5.55,3.));
#1638=CARTESIAN_POINT('',(-15.8375,-5.55,2.8625));
#1639=CARTESIAN_POINT('',(-15.7,0.,3.));
#1640=CARTESIAN_POINT('Origin',(-15.2,0.,3.6));
#1641=CARTESIAN_POINT('',(-15.2,-7.75,2.3));
#1642=CARTESIAN_POINT('',(-15.2,-7.75,3.125));
#1643=CARTESIAN_POINT('',(-15.2,-5.55,2.3));
#1644=CARTESIAN_POINT('',(-15.2,-6.65,2.3));
#1645=CARTESIAN_POINT('',(-15.2,-5.55,2.65));
#1646=CARTESIAN_POINT('',(-15.2,5.55,2.3));
#1647=CARTESIAN_POINT('',(-15.2,5.55,2.65));
#1648=CARTESIAN_POINT('',(-15.2,7.75,2.3));
#1649=CARTESIAN_POINT('',(-15.2,6.65,2.3));
#1650=CARTESIAN_POINT('',(-15.2,7.75,3.01937515251343));
#1651=CARTESIAN_POINT('',(-15.2,7.75,2.65));
#1652=CARTESIAN_POINT('',(-15.2,6.75,3.5));
#1653=CARTESIAN_POINT('Ctrl Pts',(-15.2,7.74999999999998,3.01937515251344));
#1654=CARTESIAN_POINT('Ctrl Pts',(-15.2,7.13449987798925,3.5));
#1655=CARTESIAN_POINT('Ctrl Pts',(-15.2,6.75,3.5));
#1656=CARTESIAN_POINT('',(-15.2,6.75,3.6));
#1657=CARTESIAN_POINT('Origin',(14.4,6.75,3.25));
#1658=CARTESIAN_POINT('',(14.4,7.55,3.5));
#1659=CARTESIAN_POINT('Origin',(14.4,6.75,3.5));
#1660=CARTESIAN_POINT('',(14.4,8.05,3.));
#1661=CARTESIAN_POINT('',(14.4,7.55,3.5));
#1662=CARTESIAN_POINT('',(15.2306623862918,7.75,3.));
#1663=CARTESIAN_POINT('Origin',(14.4,6.75,3.));
#1664=CARTESIAN_POINT('Ctrl Pts',(15.1999999999847,7.75,3.01937515252296));
#1665=CARTESIAN_POINT('Ctrl Pts',(15.2152160875935,7.75,3.00986973795076));
#1666=CARTESIAN_POINT('Ctrl Pts',(15.2306623862734,7.75,3.00000000001174));
#1667=CARTESIAN_POINT('Origin',(0.,7.8,3.25));
#1668=CARTESIAN_POINT('',(-14.4,7.55,3.5));
#1669=CARTESIAN_POINT('',(-14.4,8.05,3.));
#1670=CARTESIAN_POINT('',(-14.4,7.55,3.5));
#1671=CARTESIAN_POINT('',(0.,8.05,3.));
#1672=CARTESIAN_POINT('',(0.,7.55,3.5));
#1673=CARTESIAN_POINT('Origin',(-14.4,6.75,3.25));
#1674=CARTESIAN_POINT('',(-15.2306623862918,7.75,3.));
#1675=CARTESIAN_POINT('Ctrl Pts',(-15.2306623862918,7.75,3.));
#1676=CARTESIAN_POINT('Ctrl Pts',(-15.2152160876107,7.75,3.00986973793986));
#1677=CARTESIAN_POINT('Ctrl Pts',(-15.2000000000009,7.75,3.01937515251286));
#1678=CARTESIAN_POINT('Origin',(-14.4,6.75,3.));
#1679=CARTESIAN_POINT('Origin',(-14.4,6.75,3.5));
#1680=CARTESIAN_POINT('Origin',(-14.4,6.75,3.6));
#1681=CARTESIAN_POINT('',(-14.4,7.55,3.6));
#1682=CARTESIAN_POINT('Origin',(0.,7.55,3.6));
#1683=CARTESIAN_POINT('',(14.4,7.55,3.6));
#1684=CARTESIAN_POINT('Origin',(14.4,6.75,3.6));
#1685=CARTESIAN_POINT('Origin',(16.4,6.65,2.3));
#1686=CARTESIAN_POINT('',(17.6,7.75,2.3));
#1687=CARTESIAN_POINT('',(17.6,5.55,2.3));
#1688=CARTESIAN_POINT('',(17.6,6.65,2.3));
#1689=CARTESIAN_POINT('',(16.4,5.55,2.3));
#1690=CARTESIAN_POINT('',(16.4,7.75,2.3));
#1691=CARTESIAN_POINT('Origin',(16.4,5.55,2.65));
#1692=CARTESIAN_POINT('',(17.6,5.55,3.));
#1693=CARTESIAN_POINT('',(17.6,5.55,2.65));
#1694=CARTESIAN_POINT('',(8.2,5.55,3.));
#1695=CARTESIAN_POINT('Origin',(16.4,7.75,2.65));
#1696=CARTESIAN_POINT('',(17.6,7.75,3.));
#1697=CARTESIAN_POINT('',(17.6,7.75,2.65));
#1698=CARTESIAN_POINT('',(8.2,7.75,3.));
#1699=CARTESIAN_POINT('Origin',(17.6,6.65,2.65));
#1700=CARTESIAN_POINT('',(17.6,3.325,3.));
#1701=CARTESIAN_POINT('Origin',(0.,0.,3.));
#1702=CARTESIAN_POINT('',(20.,-8.15,3.));
#1703=CARTESIAN_POINT('',(20.,0.,3.));
#1704=CARTESIAN_POINT('',(18.,-10.15,3.));
#1705=CARTESIAN_POINT('Origin',(18.,-8.15,3.));
#1706=CARTESIAN_POINT('',(-18.,-10.15,3.));
#1707=CARTESIAN_POINT('',(0.,-10.15,3.));
#1708=CARTESIAN_POINT('Origin',(-18.,-8.15,3.));
#1709=CARTESIAN_POINT('',(-17.6,7.75,3.));
#1710=CARTESIAN_POINT('',(-8.2,7.75,3.));
#1711=CARTESIAN_POINT('',(-17.6,5.55,3.));
#1712=CARTESIAN_POINT('',(-17.6,3.325,3.));
#1713=CARTESIAN_POINT('',(-8.2,5.55,3.));
#1714=CARTESIAN_POINT('',(-17.6,-5.55,3.));
#1715=CARTESIAN_POINT('',(-8.2,-5.55,3.));
#1716=CARTESIAN_POINT('',(-17.6,-7.75,3.));
#1717=CARTESIAN_POINT('',(-17.6,-3.325,3.));
#1718=CARTESIAN_POINT('',(-8.2,-7.75,3.));
#1719=CARTESIAN_POINT('',(17.6,-7.75,3.));
#1720=CARTESIAN_POINT('',(8.2,-7.75,3.));
#1721=CARTESIAN_POINT('',(17.6,-5.55,3.));
#1722=CARTESIAN_POINT('',(17.6,-3.325,3.));
#1723=CARTESIAN_POINT('',(8.2,-5.55,3.));
#1724=CARTESIAN_POINT('Origin',(16.4,-6.65,2.3));
#1725=CARTESIAN_POINT('',(17.6,-5.55,2.3));
#1726=CARTESIAN_POINT('',(17.6,-7.75,2.3));
#1727=CARTESIAN_POINT('',(17.6,-6.65,2.3));
#1728=CARTESIAN_POINT('',(16.4,-7.75,2.3));
#1729=CARTESIAN_POINT('',(16.4,-5.55,2.3));
#1730=CARTESIAN_POINT('Origin',(16.4,-7.75,2.65));
#1731=CARTESIAN_POINT('',(17.6,-7.75,2.65));
#1732=CARTESIAN_POINT('Origin',(16.4,-5.55,2.65));
#1733=CARTESIAN_POINT('',(17.6,-5.55,2.65));
#1734=CARTESIAN_POINT('Origin',(17.6,-6.65,2.65));
#1735=CARTESIAN_POINT('Origin',(-16.4,6.65,2.3));
#1736=CARTESIAN_POINT('',(-17.6,5.55,2.3));
#1737=CARTESIAN_POINT('',(-16.4,5.55,2.3));
#1738=CARTESIAN_POINT('',(-17.6,7.75,2.3));
#1739=CARTESIAN_POINT('',(-17.6,6.65,2.3));
#1740=CARTESIAN_POINT('',(-16.4,7.75,2.3));
#1741=CARTESIAN_POINT('Origin',(-16.4,5.55,2.65));
#1742=CARTESIAN_POINT('',(-17.6,5.55,2.65));
#1743=CARTESIAN_POINT('Origin',(-17.6,6.65,2.65));
#1744=CARTESIAN_POINT('',(-17.6,7.75,2.65));
#1745=CARTESIAN_POINT('Origin',(-16.4,7.75,2.65));
#1746=CARTESIAN_POINT('Origin',(-16.4,-6.65,2.3));
#1747=CARTESIAN_POINT('',(-17.6,-7.75,2.3));
#1748=CARTESIAN_POINT('',(-16.4,-7.75,2.3));
#1749=CARTESIAN_POINT('',(-17.6,-5.55,2.3));
#1750=CARTESIAN_POINT('',(-17.6,-6.65,2.3));
#1751=CARTESIAN_POINT('',(-16.4,-5.55,2.3));
#1752=CARTESIAN_POINT('Origin',(-16.4,-7.75,2.65));
#1753=CARTESIAN_POINT('',(-17.6,-7.75,2.65));
#1754=CARTESIAN_POINT('Origin',(-17.6,-6.65,2.65));
#1755=CARTESIAN_POINT('',(-17.6,-5.55,2.65));
#1756=CARTESIAN_POINT('Origin',(-16.4,-5.55,2.65));
#1757=CARTESIAN_POINT('Origin',(18.,-8.15,3.6));
#1758=CARTESIAN_POINT('',(18.,-10.15,3.6));
#1759=CARTESIAN_POINT('',(20.,-8.15,3.6));
#1760=CARTESIAN_POINT('Origin',(-18.,-8.15,3.6));
#1761=CARTESIAN_POINT('',(-18.,-10.15,3.6));
#1762=CARTESIAN_POINT('Origin',(20.,0.,3.6));
#1763=CARTESIAN_POINT('Origin',(0.,-10.15,3.6));
#1764=UNCERTAINTY_MEASURE_WITH_UNIT(LENGTH_MEASURE(0.01),#1768,
'DISTANCE_ACCURACY_VALUE',
'Maximum model space distance between geometric entities at asserted c
onnectivities');
#1765=UNCERTAINTY_MEASURE_WITH_UNIT(LENGTH_MEASURE(0.01),#1768,
'DISTANCE_ACCURACY_VALUE',
'Maximum model space distance between geometric entities at asserted c
onnectivities');
#1766=(
GEOMETRIC_REPRESENTATION_CONTEXT(3)
GLOBAL_UNCERTAINTY_ASSIGNED_CONTEXT((#1764))
GLOBAL_UNIT_ASSIGNED_CONTEXT((#1768,#1770,#1771))
REPRESENTATION_CONTEXT('','3D')
);
#1767=(
GEOMETRIC_REPRESENTATION_CONTEXT(3)
GLOBAL_UNCERTAINTY_ASSIGNED_CONTEXT((#1765))
GLOBAL_UNIT_ASSIGNED_CONTEXT((#1768,#1770,#1771))
REPRESENTATION_CONTEXT('','3D')
);
#1768=(
LENGTH_UNIT()
NAMED_UNIT(*)
SI_UNIT(.MILLI.,.METRE.)
);
#1769=(
LENGTH_UNIT()
NAMED_UNIT(*)
SI_UNIT($,.METRE.)
);
#1770=(
NAMED_UNIT(*)
PLANE_ANGLE_UNIT()
SI_UNIT($,.RADIAN.)
);
#1771=(
NAMED_UNIT(*)
SI_UNIT($,.STERADIAN.)
SOLID_ANGLE_UNIT()
);
#1772=SHAPE_DEFINITION_REPRESENTATION(#1773,#1774);
#1773=PRODUCT_DEFINITION_SHAPE('',$,#1776);
#1774=SHAPE_REPRESENTATION('',(#1044),#1766);
#1775=PRODUCT_DEFINITION_CONTEXT('part definition',#1780,'design');
#1776=PRODUCT_DEFINITION('Front_Bezel','Front_Bezel',#1777,#1775);
#1777=PRODUCT_DEFINITION_FORMATION('',$,#1782);
#1778=PRODUCT_RELATED_PRODUCT_CATEGORY('Front_Bezel','Front_Bezel',(#1782));
#1779=APPLICATION_PROTOCOL_DEFINITION('international standard',
'automotive_design',2009,#1780);
#1780=APPLICATION_CONTEXT(
'Core Data for Automotive Mechanical Design Process');
#1781=PRODUCT_CONTEXT('part definition',#1780,'mechanical');
#1782=PRODUCT('Front_Bezel','Front_Bezel',$,(#1781));
#1783=PRESENTATION_STYLE_ASSIGNMENT((#1785));
#1784=PRESENTATION_STYLE_ASSIGNMENT((#1786));
#1785=SURFACE_STYLE_USAGE(.BOTH.,#1787);
#1786=SURFACE_STYLE_USAGE(.BOTH.,#1788);
#1787=SURFACE_SIDE_STYLE('',(#1789));
#1788=SURFACE_SIDE_STYLE('',(#1790));
#1789=SURFACE_STYLE_FILL_AREA(#1791);
#1790=SURFACE_STYLE_FILL_AREA(#1792);
#1791=FILL_AREA_STYLE('Steel - Satin',(#1793));
#1792=FILL_AREA_STYLE('Plastic - Matte (Black)',(#1794));
#1793=FILL_AREA_STYLE_COLOUR('Steel - Satin',#1795);
#1794=FILL_AREA_STYLE_COLOUR('Plastic - Matte (Black)',#1796);
#1795=COLOUR_RGB('Steel - Satin',0.627450980392157,0.627450980392157,0.627450980392157);
#1796=COLOUR_RGB('Plastic - Matte (Black)',0.0980392156862745,0.0980392156862745,
0.0980392156862745);
ENDSEC;
END-ISO-10303-21;
