ISO-10303-21;
HEADER;
/* Generated by software containing ST-Developer
 * from STEP Tools, Inc. (www.steptools.com) 
 */

FILE_DESCRIPTION(
/* description */ (''),
/* implementation_level */ '2;1');

FILE_NAME(
/* name */ 'Front_Bezel_revQ.step',
/* time_stamp */ '2026-08-30T11:06:28+01:00',
/* author */ (''),
/* organization */ (''),
/* preprocessor_version */ 'ST-DEVELOPER v20.1',
/* originating_system */ 'Autodesk Translation Framework v15.8.0.0',
/* authorisation */ '');

FILE_SCHEMA (('AUTOMOTIVE_DESIGN { 1 0 10303 214 3 1 1 }'));
ENDSEC;

DATA;
#10=MECHANICAL_DESIGN_GEOMETRIC_PRESENTATION_REPRESENTATION('',(#13),#2041);
#11=SHAPE_REPRESENTATION_RELATIONSHIP('SRR','None',#2048,#12);
#12=ADVANCED_BREP_SHAPE_REPRESENTATION('',(#14),#2040);
#13=STYLED_ITEM('',(#2057),#14);
#14=MANIFOLD_SOLID_BREP('BEZEL',#1185);
#15=TOROIDAL_SURFACE('',#1229,1.6,0.4);
#16=TOROIDAL_SURFACE('',#1235,1.6,0.4);
#17=TOROIDAL_SURFACE('',#1241,1.6,0.4);
#18=TOROIDAL_SURFACE('',#1247,1.6,0.4);
#19=TOROIDAL_SURFACE('',#1261,1.2,0.4);
#20=TOROIDAL_SURFACE('',#1267,1.2,0.4);
#21=TOROIDAL_SURFACE('',#1272,1.2,0.4);
#22=TOROIDAL_SURFACE('',#1277,1.2,0.4);
#23=FACE_BOUND('',#198,.T.);
#24=FACE_BOUND('',#212,.T.);
#25=FACE_BOUND('',#237,.T.);
#26=FACE_BOUND('',#238,.T.);
#27=FACE_BOUND('',#239,.T.);
#28=CYLINDRICAL_SURFACE('',#1215,0.6);
#29=CYLINDRICAL_SURFACE('',#1218,0.6);
#30=CYLINDRICAL_SURFACE('',#1226,0.4);
#31=CYLINDRICAL_SURFACE('',#1233,0.4);
#32=CYLINDRICAL_SURFACE('',#1239,0.4);
#33=CYLINDRICAL_SURFACE('',#1245,0.4);
#34=CYLINDRICAL_SURFACE('',#1250,2.);
#35=CYLINDRICAL_SURFACE('',#1253,2.);
#36=CYLINDRICAL_SURFACE('',#1265,0.4);
#37=CYLINDRICAL_SURFACE('',#1270,0.4);
#38=CYLINDRICAL_SURFACE('',#1275,0.4);
#39=CYLINDRICAL_SURFACE('',#1280,0.4);
#40=CYLINDRICAL_SURFACE('',#1282,0.8);
#41=CYLINDRICAL_SURFACE('',#1285,0.8);
#42=CYLINDRICAL_SURFACE('',#1287,0.2);
#43=CYLINDRICAL_SURFACE('',#1290,0.2);
#44=CYLINDRICAL_SURFACE('',#1292,0.2);
#45=CYLINDRICAL_SURFACE('',#1294,0.2);
#46=CYLINDRICAL_SURFACE('',#1297,0.6);
#47=CYLINDRICAL_SURFACE('',#1299,0.6);
#48=CYLINDRICAL_SURFACE('',#1317,0.8);
#49=CYLINDRICAL_SURFACE('',#1320,0.8);
#50=CYLINDRICAL_SURFACE('',#1323,2.);
#51=CYLINDRICAL_SURFACE('',#1324,2.);
#52=CIRCLE('',#1201,0.4);
#53=CIRCLE('',#1202,0.6);
#54=CIRCLE('',#1205,0.399999999999999);
#55=CIRCLE('',#1206,0.6);
#56=CIRCLE('',#1209,0.4);
#57=CIRCLE('',#1210,0.6);
#58=CIRCLE('',#1213,0.399999999999999);
#59=CIRCLE('',#1214,0.6);
#60=CIRCLE('',#1216,0.6);
#61=CIRCLE('',#1219,0.6);
#62=CIRCLE('',#1222,0.2);
#63=CIRCLE('',#1223,0.2);
#64=CIRCLE('',#1224,0.2);
#65=CIRCLE('',#1225,0.2);
#66=CIRCLE('',#1227,0.4);
#67=CIRCLE('',#1228,0.4);
#68=CIRCLE('',#1230,0.4);
#69=CIRCLE('',#1231,1.6);
#70=CIRCLE('',#1232,2.);
#71=CIRCLE('',#1234,0.4);
#72=CIRCLE('',#1236,0.4);
#73=CIRCLE('',#1237,1.6);
#74=CIRCLE('',#1238,2.);
#75=CIRCLE('',#1240,0.4);
#76=CIRCLE('',#1242,0.4);
#77=CIRCLE('',#1243,1.6);
#78=CIRCLE('',#1244,2.);
#79=CIRCLE('',#1246,0.4);
#80=CIRCLE('',#1248,1.6);
#81=CIRCLE('',#1249,2.);
#82=CIRCLE('',#1251,2.);
#83=CIRCLE('',#1254,2.);
#84=CIRCLE('',#1257,1.2);
#85=CIRCLE('',#1258,1.2);
#86=CIRCLE('',#1259,1.2);
#87=CIRCLE('',#1260,1.2);
#88=CIRCLE('',#1262,0.4);
#89=CIRCLE('',#1263,0.8);
#90=CIRCLE('',#1264,0.4);
#91=CIRCLE('',#1266,0.4);
#92=CIRCLE('',#1268,0.400000000000001);
#93=CIRCLE('',#1269,0.8);
#94=CIRCLE('',#1271,0.4);
#95=CIRCLE('',#1273,0.4);
#96=CIRCLE('',#1274,0.8);
#97=CIRCLE('',#1276,0.4);
#98=CIRCLE('',#1278,0.400000000000001);
#99=CIRCLE('',#1279,0.8);
#100=CIRCLE('',#1283,0.8);
#101=CIRCLE('',#1286,0.8);
#102=CIRCLE('',#1288,0.2);
#103=CIRCLE('',#1291,0.2);
#104=CIRCLE('',#1293,0.2);
#105=CIRCLE('',#1295,0.2);
#106=CIRCLE('',#1298,0.6);
#107=CIRCLE('',#1300,0.6);
#108=CIRCLE('',#1305,2.);
#109=CIRCLE('',#1306,2.);
#110=CIRCLE('',#1318,0.8);
#111=CIRCLE('',#1321,0.8);
#112=CONICAL_SURFACE('',#1200,0.5,0.785398163397448);
#113=CONICAL_SURFACE('',#1204,0.5,0.78539816339745);
#114=CONICAL_SURFACE('',#1208,0.5,0.785398163397449);
#115=CONICAL_SURFACE('',#1212,0.5,0.78539816339745);
#116=FACE_OUTER_BOUND('',#185,.T.);
#117=FACE_OUTER_BOUND('',#186,.T.);
#118=FACE_OUTER_BOUND('',#187,.T.);
#119=FACE_OUTER_BOUND('',#188,.T.);
#120=FACE_OUTER_BOUND('',#189,.T.);
#121=FACE_OUTER_BOUND('',#190,.T.);
#122=FACE_OUTER_BOUND('',#191,.T.);
#123=FACE_OUTER_BOUND('',#192,.T.);
#124=FACE_OUTER_BOUND('',#193,.T.);
#125=FACE_OUTER_BOUND('',#194,.T.);
#126=FACE_OUTER_BOUND('',#195,.T.);
#127=FACE_OUTER_BOUND('',#196,.T.);
#128=FACE_OUTER_BOUND('',#197,.T.);
#129=FACE_OUTER_BOUND('',#199,.T.);
#130=FACE_OUTER_BOUND('',#200,.T.);
#131=FACE_OUTER_BOUND('',#201,.T.);
#132=FACE_OUTER_BOUND('',#202,.T.);
#133=FACE_OUTER_BOUND('',#203,.T.);
#134=FACE_OUTER_BOUND('',#204,.T.);
#135=FACE_OUTER_BOUND('',#205,.T.);
#136=FACE_OUTER_BOUND('',#206,.T.);
#137=FACE_OUTER_BOUND('',#207,.T.);
#138=FACE_OUTER_BOUND('',#208,.T.);
#139=FACE_OUTER_BOUND('',#209,.T.);
#140=FACE_OUTER_BOUND('',#210,.T.);
#141=FACE_OUTER_BOUND('',#211,.T.);
#142=FACE_OUTER_BOUND('',#213,.T.);
#143=FACE_OUTER_BOUND('',#214,.T.);
#144=FACE_OUTER_BOUND('',#215,.T.);
#145=FACE_OUTER_BOUND('',#216,.T.);
#146=FACE_OUTER_BOUND('',#217,.T.);
#147=FACE_OUTER_BOUND('',#218,.T.);
#148=FACE_OUTER_BOUND('',#219,.T.);
#149=FACE_OUTER_BOUND('',#220,.T.);
#150=FACE_OUTER_BOUND('',#221,.T.);
#151=FACE_OUTER_BOUND('',#222,.T.);
#152=FACE_OUTER_BOUND('',#223,.T.);
#153=FACE_OUTER_BOUND('',#224,.T.);
#154=FACE_OUTER_BOUND('',#225,.T.);
#155=FACE_OUTER_BOUND('',#226,.T.);
#156=FACE_OUTER_BOUND('',#227,.T.);
#157=FACE_OUTER_BOUND('',#228,.T.);
#158=FACE_OUTER_BOUND('',#229,.T.);
#159=FACE_OUTER_BOUND('',#230,.T.);
#160=FACE_OUTER_BOUND('',#231,.T.);
#161=FACE_OUTER_BOUND('',#232,.T.);
#162=FACE_OUTER_BOUND('',#233,.T.);
#163=FACE_OUTER_BOUND('',#234,.T.);
#164=FACE_OUTER_BOUND('',#235,.T.);
#165=FACE_OUTER_BOUND('',#236,.T.);
#166=FACE_OUTER_BOUND('',#240,.T.);
#167=FACE_OUTER_BOUND('',#241,.T.);
#168=FACE_OUTER_BOUND('',#242,.T.);
#169=FACE_OUTER_BOUND('',#243,.T.);
#170=FACE_OUTER_BOUND('',#244,.T.);
#171=FACE_OUTER_BOUND('',#245,.T.);
#172=FACE_OUTER_BOUND('',#246,.T.);
#173=FACE_OUTER_BOUND('',#247,.T.);
#174=FACE_OUTER_BOUND('',#248,.T.);
#175=FACE_OUTER_BOUND('',#249,.T.);
#176=FACE_OUTER_BOUND('',#250,.T.);
#177=FACE_OUTER_BOUND('',#251,.T.);
#178=FACE_OUTER_BOUND('',#252,.T.);
#179=FACE_OUTER_BOUND('',#253,.T.);
#180=FACE_OUTER_BOUND('',#254,.T.);
#181=FACE_OUTER_BOUND('',#255,.T.);
#182=FACE_OUTER_BOUND('',#256,.T.);
#183=FACE_OUTER_BOUND('',#257,.T.);
#184=FACE_OUTER_BOUND('',#258,.T.);
#185=EDGE_LOOP('',(#747,#748,#749,#750));
#186=EDGE_LOOP('',(#751,#752,#753,#754));
#187=EDGE_LOOP('',(#755,#756,#757,#758));
#188=EDGE_LOOP('',(#759,#760,#761,#762));
#189=EDGE_LOOP('',(#763,#764,#765,#766));
#190=EDGE_LOOP('',(#767,#768,#769,#770));
#191=EDGE_LOOP('',(#771,#772,#773,#774));
#192=EDGE_LOOP('',(#775,#776,#777,#778));
#193=EDGE_LOOP('',(#779,#780,#781,#782));
#194=EDGE_LOOP('',(#783,#784,#785,#786));
#195=EDGE_LOOP('',(#787,#788,#789,#790));
#196=EDGE_LOOP('',(#791,#792,#793,#794));
#197=EDGE_LOOP('',(#795,#796,#797,#798,#799,#800,#801,#802));
#198=EDGE_LOOP('',(#803,#804,#805,#806,#807,#808,#809,#810));
#199=EDGE_LOOP('',(#811,#812,#813,#814));
#200=EDGE_LOOP('',(#815,#816,#817,#818));
#201=EDGE_LOOP('',(#819,#820,#821,#822));
#202=EDGE_LOOP('',(#823,#824,#825,#826));
#203=EDGE_LOOP('',(#827,#828,#829,#830));
#204=EDGE_LOOP('',(#831,#832,#833,#834));
#205=EDGE_LOOP('',(#835,#836,#837,#838));
#206=EDGE_LOOP('',(#839,#840,#841,#842));
#207=EDGE_LOOP('',(#843,#844,#845,#846));
#208=EDGE_LOOP('',(#847,#848,#849,#850));
#209=EDGE_LOOP('',(#851,#852,#853,#854));
#210=EDGE_LOOP('',(#855,#856,#857,#858));
#211=EDGE_LOOP('',(#859,#860,#861,#862,#863,#864,#865,#866));
#212=EDGE_LOOP('',(#867,#868,#869,#870,#871,#872,#873,#874));
#213=EDGE_LOOP('',(#875,#876,#877,#878));
#214=EDGE_LOOP('',(#879,#880,#881,#882));
#215=EDGE_LOOP('',(#883,#884,#885,#886));
#216=EDGE_LOOP('',(#887,#888,#889,#890));
#217=EDGE_LOOP('',(#891,#892,#893,#894));
#218=EDGE_LOOP('',(#895,#896,#897,#898));
#219=EDGE_LOOP('',(#899,#900,#901,#902));
#220=EDGE_LOOP('',(#903,#904,#905,#906));
#221=EDGE_LOOP('',(#907,#908,#909,#910,#911,#912,#913,#914));
#222=EDGE_LOOP('',(#915,#916,#917,#918));
#223=EDGE_LOOP('',(#919,#920,#921,#922));
#224=EDGE_LOOP('',(#923,#924,#925,#926));
#225=EDGE_LOOP('',(#927,#928,#929,#930));
#226=EDGE_LOOP('',(#931,#932,#933,#934));
#227=EDGE_LOOP('',(#935,#936,#937,#938));
#228=EDGE_LOOP('',(#939,#940,#941,#942));
#229=EDGE_LOOP('',(#943,#944,#945,#946));
#230=EDGE_LOOP('',(#947,#948,#949,#950));
#231=EDGE_LOOP('',(#951,#952,#953,#954));
#232=EDGE_LOOP('',(#955,#956,#957,#958));
#233=EDGE_LOOP('',(#959,#960,#961,#962));
#234=EDGE_LOOP('',(#963,#964,#965,#966));
#235=EDGE_LOOP('',(#967,#968,#969,#970,#971,#972,#973,#974));
#236=EDGE_LOOP('',(#975,#976,#977,#978,#979,#980,#981,#982));
#237=EDGE_LOOP('',(#983,#984,#985,#986));
#238=EDGE_LOOP('',(#987,#988,#989,#990));
#239=EDGE_LOOP('',(#991,#992,#993,#994,#995,#996,#997,#998));
#240=EDGE_LOOP('',(#999,#1000,#1001,#1002));
#241=EDGE_LOOP('',(#1003,#1004,#1005,#1006));
#242=EDGE_LOOP('',(#1007,#1008,#1009,#1010));
#243=EDGE_LOOP('',(#1011,#1012,#1013,#1014));
#244=EDGE_LOOP('',(#1015,#1016,#1017,#1018));
#245=EDGE_LOOP('',(#1019,#1020,#1021,#1022));
#246=EDGE_LOOP('',(#1023,#1024,#1025,#1026));
#247=EDGE_LOOP('',(#1027,#1028,#1029,#1030));
#248=EDGE_LOOP('',(#1031,#1032,#1033,#1034));
#249=EDGE_LOOP('',(#1035,#1036,#1037,#1038));
#250=EDGE_LOOP('',(#1039,#1040,#1041,#1042));
#251=EDGE_LOOP('',(#1043,#1044,#1045,#1046));
#252=EDGE_LOOP('',(#1047,#1048,#1049,#1050));
#253=EDGE_LOOP('',(#1051,#1052,#1053,#1054,#1055,#1056,#1057,#1058));
#254=EDGE_LOOP('',(#1059,#1060,#1061,#1062));
#255=EDGE_LOOP('',(#1063,#1064,#1065,#1066));
#256=EDGE_LOOP('',(#1067,#1068,#1069,#1070,#1071,#1072,#1073,#1074));
#257=EDGE_LOOP('',(#1075,#1076,#1077,#1078));
#258=EDGE_LOOP('',(#1079,#1080,#1081,#1082));
#259=LINE('',#1700,#367);
#260=LINE('',#1702,#368);
#261=LINE('',#1704,#369);
#262=LINE('',#1705,#370);
#263=LINE('',#1709,#371);
#264=LINE('',#1715,#372);
#265=LINE('',#1716,#373);
#266=LINE('',#1717,#374);
#267=LINE('',#1721,#375);
#268=LINE('',#1727,#376);
#269=LINE('',#1728,#377);
#270=LINE('',#1729,#378);
#271=LINE('',#1733,#379);
#272=LINE('',#1739,#380);
#273=LINE('',#1740,#381);
#274=LINE('',#1741,#382);
#275=LINE('',#1747,#383);
#276=LINE('',#1750,#384);
#277=LINE('',#1753,#385);
#278=LINE('',#1754,#386);
#279=LINE('',#1757,#387);
#280=LINE('',#1761,#388);
#281=LINE('',#1762,#389);
#282=LINE('',#1768,#390);
#283=LINE('',#1772,#391);
#284=LINE('',#1776,#392);
#285=LINE('',#1779,#393);
#286=LINE('',#1785,#394);
#287=LINE('',#1788,#395);
#288=LINE('',#1799,#396);
#289=LINE('',#1800,#397);
#290=LINE('',#1811,#398);
#291=LINE('',#1812,#399);
#292=LINE('',#1823,#400);
#293=LINE('',#1824,#401);
#294=LINE('',#1830,#402);
#295=LINE('',#1833,#403);
#296=LINE('',#1836,#404);
#297=LINE('',#1837,#405);
#298=LINE('',#1840,#406);
#299=LINE('',#1844,#407);
#300=LINE('',#1845,#408);
#301=LINE('',#1851,#409);
#302=LINE('',#1855,#410);
#303=LINE('',#1859,#411);
#304=LINE('',#1862,#412);
#305=LINE('',#1872,#413);
#306=LINE('',#1880,#414);
#307=LINE('',#1888,#415);
#308=LINE('',#1894,#416);
#309=LINE('',#1897,#417);
#310=LINE('',#1899,#418);
#311=LINE('',#1900,#419);
#312=LINE('',#1902,#420);
#313=LINE('',#1904,#421);
#314=LINE('',#1905,#422);
#315=LINE('',#1908,#423);
#316=LINE('',#1912,#424);
#317=LINE('',#1913,#425);
#318=LINE('',#1916,#426);
#319=LINE('',#1921,#427);
#320=LINE('',#1924,#428);
#321=LINE('',#1925,#429);
#322=LINE('',#1929,#430);
#323=LINE('',#1933,#431);
#324=LINE('',#1938,#432);
#325=LINE('',#1939,#433);
#326=LINE('',#1941,#434);
#327=LINE('',#1944,#435);
#328=LINE('',#1948,#436);
#329=LINE('',#1951,#437);
#330=LINE('',#1953,#438);
#331=LINE('',#1955,#439);
#332=LINE('',#1957,#440);
#333=LINE('',#1961,#441);
#334=LINE('',#1964,#442);
#335=LINE('',#1968,#443);
#336=LINE('',#1970,#444);
#337=LINE('',#1972,#445);
#338=LINE('',#1973,#446);
#339=LINE('',#1976,#447);
#340=LINE('',#1978,#448);
#341=LINE('',#1980,#449);
#342=LINE('',#1981,#450);
#343=LINE('',#1984,#451);
#344=LINE('',#1986,#452);
#345=LINE('',#1987,#453);
#346=LINE('',#1990,#454);
#347=LINE('',#1991,#455);
#348=LINE('',#1994,#456);
#349=LINE('',#1995,#457);
#350=LINE('',#1997,#458);
#351=LINE('',#2001,#459);
#352=LINE('',#2003,#460);
#353=LINE('',#2004,#461);
#354=LINE('',#2007,#462);
#355=LINE('',#2008,#463);
#356=LINE('',#2011,#464);
#357=LINE('',#2012,#465);
#358=LINE('',#2014,#466);
#359=LINE('',#2019,#467);
#360=LINE('',#2022,#468);
#361=LINE('',#2023,#469);
#362=LINE('',#2027,#470);
#363=LINE('',#2029,#471);
#364=LINE('',#2031,#472);
#365=LINE('',#2033,#473);
#366=LINE('',#2034,#474);
#367=VECTOR('',#1332,10.);
#368=VECTOR('',#1333,10.);
#369=VECTOR('',#1334,10.);
#370=VECTOR('',#1335,10.);
#371=VECTOR('',#1338,10.);
#372=VECTOR('',#1345,10.);
#373=VECTOR('',#1346,10.);
#374=VECTOR('',#1347,10.);
#375=VECTOR('',#1350,10.);
#376=VECTOR('',#1357,10.);
#377=VECTOR('',#1358,10.);
#378=VECTOR('',#1359,10.);
#379=VECTOR('',#1362,10.);
#380=VECTOR('',#1369,10.);
#381=VECTOR('',#1370,10.);
#382=VECTOR('',#1371,10.);
#383=VECTOR('',#1380,10.);
#384=VECTOR('',#1383,10.);
#385=VECTOR('',#1386,10.);
#386=VECTOR('',#1387,10.);
#387=VECTOR('',#1390,10.);
#388=VECTOR('',#1395,10.);
#389=VECTOR('',#1396,10.);
#390=VECTOR('',#1401,10.);
#391=VECTOR('',#1404,10.);
#392=VECTOR('',#1407,10.);
#393=VECTOR('',#1410,10.);
#394=VECTOR('',#1415,10.);
#395=VECTOR('',#1418,10.);
#396=VECTOR('',#1431,10.);
#397=VECTOR('',#1432,10.);
#398=VECTOR('',#1445,10.);
#399=VECTOR('',#1446,10.);
#400=VECTOR('',#1459,10.);
#401=VECTOR('',#1460,10.);
#402=VECTOR('',#1469,10.);
#403=VECTOR('',#1472,10.);
#404=VECTOR('',#1475,10.);
#405=VECTOR('',#1476,10.);
#406=VECTOR('',#1479,10.);
#407=VECTOR('',#1484,10.);
#408=VECTOR('',#1485,10.);
#409=VECTOR('',#1490,10.);
#410=VECTOR('',#1493,10.);
#411=VECTOR('',#1496,10.);
#412=VECTOR('',#1499,10.);
#413=VECTOR('',#1512,10.);
#414=VECTOR('',#1523,10.);
#415=VECTOR('',#1534,10.);
#416=VECTOR('',#1543,10.);
#417=VECTOR('',#1546,10.);
#418=VECTOR('',#1547,10.);
#419=VECTOR('',#1548,10.);
#420=VECTOR('',#1549,10.);
#421=VECTOR('',#1550,10.);
#422=VECTOR('',#1551,10.);
#423=VECTOR('',#1554,10.);
#424=VECTOR('',#1559,10.);
#425=VECTOR('',#1560,10.);
#426=VECTOR('',#1563,10.);
#427=VECTOR('',#1570,10.);
#428=VECTOR('',#1573,10.);
#429=VECTOR('',#1574,10.);
#430=VECTOR('',#1579,10.);
#431=VECTOR('',#1584,10.);
#432=VECTOR('',#1589,10.);
#433=VECTOR('',#1590,10.);
#434=VECTOR('',#1593,10.);
#435=VECTOR('',#1596,10.);
#436=VECTOR('',#1601,10.);
#437=VECTOR('',#1604,10.);
#438=VECTOR('',#1607,10.);
#439=VECTOR('',#1610,10.);
#440=VECTOR('',#1613,10.);
#441=VECTOR('',#1616,10.);
#442=VECTOR('',#1619,10.);
#443=VECTOR('',#1622,10.);
#444=VECTOR('',#1623,10.);
#445=VECTOR('',#1624,10.);
#446=VECTOR('',#1625,10.);
#447=VECTOR('',#1626,10.);
#448=VECTOR('',#1627,10.);
#449=VECTOR('',#1628,10.);
#450=VECTOR('',#1629,10.);
#451=VECTOR('',#1632,10.);
#452=VECTOR('',#1633,10.);
#453=VECTOR('',#1634,10.);
#454=VECTOR('',#1637,10.);
#455=VECTOR('',#1638,10.);
#456=VECTOR('',#1641,10.);
#457=VECTOR('',#1642,10.);
#458=VECTOR('',#1645,10.);
#459=VECTOR('',#1650,10.);
#460=VECTOR('',#1651,10.);
#461=VECTOR('',#1652,10.);
#462=VECTOR('',#1655,10.);
#463=VECTOR('',#1656,10.);
#464=VECTOR('',#1659,10.);
#465=VECTOR('',#1660,10.);
#466=VECTOR('',#1663,10.);
#467=VECTOR('',#1670,10.);
#468=VECTOR('',#1673,10.);
#469=VECTOR('',#1674,10.);
#470=VECTOR('',#1679,10.);
#471=VECTOR('',#1682,10.);
#472=VECTOR('',#1685,10.);
#473=VECTOR('',#1688,10.);
#474=VECTOR('',#1689,10.);
#475=VERTEX_POINT('',#1698);
#476=VERTEX_POINT('',#1699);
#477=VERTEX_POINT('',#1701);
#478=VERTEX_POINT('',#1703);
#479=VERTEX_POINT('',#1707);
#480=VERTEX_POINT('',#1708);
#481=VERTEX_POINT('',#1713);
#482=VERTEX_POINT('',#1714);
#483=VERTEX_POINT('',#1719);
#484=VERTEX_POINT('',#1720);
#485=VERTEX_POINT('',#1725);
#486=VERTEX_POINT('',#1726);
#487=VERTEX_POINT('',#1731);
#488=VERTEX_POINT('',#1732);
#489=VERTEX_POINT('',#1737);
#490=VERTEX_POINT('',#1738);
#491=VERTEX_POINT('',#1746);
#492=VERTEX_POINT('',#1748);
#493=VERTEX_POINT('',#1752);
#494=VERTEX_POINT('',#1756);
#495=VERTEX_POINT('',#1760);
#496=VERTEX_POINT('',#1764);
#497=VERTEX_POINT('',#1765);
#498=VERTEX_POINT('',#1767);
#499=VERTEX_POINT('',#1769);
#500=VERTEX_POINT('',#1771);
#501=VERTEX_POINT('',#1773);
#502=VERTEX_POINT('',#1775);
#503=VERTEX_POINT('',#1777);
#504=VERTEX_POINT('',#1781);
#505=VERTEX_POINT('',#1782);
#506=VERTEX_POINT('',#1784);
#507=VERTEX_POINT('',#1786);
#508=VERTEX_POINT('',#1790);
#509=VERTEX_POINT('',#1791);
#510=VERTEX_POINT('',#1796);
#511=VERTEX_POINT('',#1797);
#512=VERTEX_POINT('',#1802);
#513=VERTEX_POINT('',#1803);
#514=VERTEX_POINT('',#1808);
#515=VERTEX_POINT('',#1809);
#516=VERTEX_POINT('',#1814);
#517=VERTEX_POINT('',#1815);
#518=VERTEX_POINT('',#1820);
#519=VERTEX_POINT('',#1821);
#520=VERTEX_POINT('',#1829);
#521=VERTEX_POINT('',#1831);
#522=VERTEX_POINT('',#1835);
#523=VERTEX_POINT('',#1839);
#524=VERTEX_POINT('',#1843);
#525=VERTEX_POINT('',#1847);
#526=VERTEX_POINT('',#1848);
#527=VERTEX_POINT('',#1850);
#528=VERTEX_POINT('',#1852);
#529=VERTEX_POINT('',#1854);
#530=VERTEX_POINT('',#1856);
#531=VERTEX_POINT('',#1858);
#532=VERTEX_POINT('',#1860);
#533=VERTEX_POINT('',#1864);
#534=VERTEX_POINT('',#1866);
#535=VERTEX_POINT('',#1870);
#536=VERTEX_POINT('',#1874);
#537=VERTEX_POINT('',#1878);
#538=VERTEX_POINT('',#1882);
#539=VERTEX_POINT('',#1886);
#540=VERTEX_POINT('',#1890);
#541=VERTEX_POINT('',#1896);
#542=VERTEX_POINT('',#1898);
#543=VERTEX_POINT('',#1901);
#544=VERTEX_POINT('',#1903);
#545=VERTEX_POINT('',#1907);
#546=VERTEX_POINT('',#1911);
#547=VERTEX_POINT('',#1915);
#548=VERTEX_POINT('',#1919);
#549=VERTEX_POINT('',#1923);
#550=VERTEX_POINT('',#1927);
#551=VERTEX_POINT('',#1931);
#552=VERTEX_POINT('',#1935);
#553=VERTEX_POINT('',#1936);
#554=VERTEX_POINT('',#1943);
#555=VERTEX_POINT('',#1947);
#556=VERTEX_POINT('',#1949);
#557=VERTEX_POINT('',#1959);
#558=VERTEX_POINT('',#1960);
#559=VERTEX_POINT('',#1962);
#560=VERTEX_POINT('',#1966);
#561=VERTEX_POINT('',#1967);
#562=VERTEX_POINT('',#1969);
#563=VERTEX_POINT('',#1971);
#564=VERTEX_POINT('',#1974);
#565=VERTEX_POINT('',#1975);
#566=VERTEX_POINT('',#1977);
#567=VERTEX_POINT('',#1979);
#568=VERTEX_POINT('',#1983);
#569=VERTEX_POINT('',#1985);
#570=VERTEX_POINT('',#1989);
#571=VERTEX_POINT('',#1993);
#572=VERTEX_POINT('',#2000);
#573=VERTEX_POINT('',#2002);
#574=VERTEX_POINT('',#2006);
#575=VERTEX_POINT('',#2010);
#576=VERTEX_POINT('',#2017);
#577=VERTEX_POINT('',#2021);
#578=VERTEX_POINT('',#2025);
#579=EDGE_CURVE('',#475,#476,#259,.T.);
#580=EDGE_CURVE('',#476,#477,#260,.T.);
#581=EDGE_CURVE('',#477,#478,#261,.T.);
#582=EDGE_CURVE('',#478,#475,#262,.T.);
#583=EDGE_CURVE('',#479,#480,#263,.T.);
#584=EDGE_CURVE('',#480,#476,#52,.T.);
#585=EDGE_CURVE('',#475,#479,#53,.T.);
#586=EDGE_CURVE('',#481,#482,#264,.T.);
#587=EDGE_CURVE('',#482,#480,#265,.T.);
#588=EDGE_CURVE('',#479,#481,#266,.T.);
#589=EDGE_CURVE('',#483,#484,#267,.T.);
#590=EDGE_CURVE('',#484,#482,#54,.T.);
#591=EDGE_CURVE('',#481,#483,#55,.T.);
#592=EDGE_CURVE('',#485,#486,#268,.T.);
#593=EDGE_CURVE('',#486,#484,#269,.T.);
#594=EDGE_CURVE('',#483,#485,#270,.T.);
#595=EDGE_CURVE('',#487,#488,#271,.T.);
#596=EDGE_CURVE('',#488,#486,#56,.T.);
#597=EDGE_CURVE('',#485,#487,#57,.T.);
#598=EDGE_CURVE('',#489,#490,#272,.T.);
#599=EDGE_CURVE('',#490,#488,#273,.T.);
#600=EDGE_CURVE('',#487,#489,#274,.T.);
#601=EDGE_CURVE('',#477,#490,#58,.T.);
#602=EDGE_CURVE('',#489,#478,#59,.T.);
#603=EDGE_CURVE('',#491,#481,#275,.T.);
#604=EDGE_CURVE('',#492,#491,#60,.T.);
#605=EDGE_CURVE('',#492,#483,#276,.T.);
#606=EDGE_CURVE('',#493,#479,#277,.T.);
#607=EDGE_CURVE('',#491,#493,#278,.T.);
#608=EDGE_CURVE('',#494,#475,#279,.T.);
#609=EDGE_CURVE('',#493,#494,#61,.T.);
#610=EDGE_CURVE('',#495,#478,#280,.T.);
#611=EDGE_CURVE('',#494,#495,#281,.T.);
#612=EDGE_CURVE('',#496,#497,#62,.T.);
#613=EDGE_CURVE('',#497,#498,#282,.T.);
#614=EDGE_CURVE('',#498,#499,#63,.T.);
#615=EDGE_CURVE('',#499,#500,#283,.T.);
#616=EDGE_CURVE('',#500,#501,#64,.T.);
#617=EDGE_CURVE('',#501,#502,#284,.T.);
#618=EDGE_CURVE('',#502,#503,#65,.T.);
#619=EDGE_CURVE('',#503,#496,#285,.T.);
#620=EDGE_CURVE('',#504,#505,#66,.T.);
#621=EDGE_CURVE('',#505,#506,#286,.T.);
#622=EDGE_CURVE('',#506,#507,#67,.T.);
#623=EDGE_CURVE('',#507,#504,#287,.T.);
#624=EDGE_CURVE('',#508,#509,#68,.T.);
#625=EDGE_CURVE('',#509,#507,#69,.T.);
#626=EDGE_CURVE('',#506,#508,#70,.T.);
#627=EDGE_CURVE('',#510,#511,#71,.T.);
#628=EDGE_CURVE('',#511,#509,#288,.T.);
#629=EDGE_CURVE('',#508,#510,#289,.T.);
#630=EDGE_CURVE('',#512,#513,#72,.T.);
#631=EDGE_CURVE('',#513,#511,#73,.T.);
#632=EDGE_CURVE('',#510,#512,#74,.T.);
#633=EDGE_CURVE('',#514,#515,#75,.T.);
#634=EDGE_CURVE('',#515,#513,#290,.T.);
#635=EDGE_CURVE('',#512,#514,#291,.T.);
#636=EDGE_CURVE('',#516,#517,#76,.T.);
#637=EDGE_CURVE('',#517,#515,#77,.T.);
#638=EDGE_CURVE('',#514,#516,#78,.T.);
#639=EDGE_CURVE('',#518,#519,#79,.T.);
#640=EDGE_CURVE('',#519,#517,#292,.T.);
#641=EDGE_CURVE('',#516,#518,#293,.T.);
#642=EDGE_CURVE('',#504,#519,#80,.T.);
#643=EDGE_CURVE('',#518,#505,#81,.T.);
#644=EDGE_CURVE('',#510,#520,#294,.T.);
#645=EDGE_CURVE('',#521,#520,#82,.T.);
#646=EDGE_CURVE('',#512,#521,#295,.T.);
#647=EDGE_CURVE('',#508,#522,#296,.T.);
#648=EDGE_CURVE('',#520,#522,#297,.T.);
#649=EDGE_CURVE('',#506,#523,#298,.T.);
#650=EDGE_CURVE('',#522,#523,#83,.T.);
#651=EDGE_CURVE('',#505,#524,#299,.T.);
#652=EDGE_CURVE('',#523,#524,#300,.T.);
#653=EDGE_CURVE('',#525,#526,#84,.T.);
#654=EDGE_CURVE('',#527,#525,#301,.T.);
#655=EDGE_CURVE('',#528,#527,#85,.T.);
#656=EDGE_CURVE('',#529,#528,#302,.T.);
#657=EDGE_CURVE('',#530,#529,#86,.T.);
#658=EDGE_CURVE('',#531,#530,#303,.T.);
#659=EDGE_CURVE('',#532,#531,#87,.T.);
#660=EDGE_CURVE('',#526,#532,#304,.T.);
#661=EDGE_CURVE('',#526,#533,#88,.T.);
#662=EDGE_CURVE('',#533,#534,#89,.T.);
#663=EDGE_CURVE('',#534,#525,#90,.T.);
#664=EDGE_CURVE('',#535,#527,#91,.T.);
#665=EDGE_CURVE('',#534,#535,#305,.T.);
#666=EDGE_CURVE('',#536,#528,#92,.T.);
#667=EDGE_CURVE('',#535,#536,#93,.T.);
#668=EDGE_CURVE('',#537,#529,#94,.T.);
#669=EDGE_CURVE('',#536,#537,#306,.T.);
#670=EDGE_CURVE('',#538,#530,#95,.T.);
#671=EDGE_CURVE('',#537,#538,#96,.T.);
#672=EDGE_CURVE('',#539,#531,#97,.T.);
#673=EDGE_CURVE('',#538,#539,#307,.T.);
#674=EDGE_CURVE('',#540,#532,#98,.T.);
#675=EDGE_CURVE('',#539,#540,#99,.T.);
#676=EDGE_CURVE('',#540,#533,#308,.T.);
#677=EDGE_CURVE('',#536,#541,#309,.T.);
#678=EDGE_CURVE('',#542,#541,#310,.T.);
#679=EDGE_CURVE('',#542,#502,#311,.T.);
#680=EDGE_CURVE('',#543,#501,#312,.T.);
#681=EDGE_CURVE('',#544,#543,#313,.T.);
#682=EDGE_CURVE('',#537,#544,#314,.T.);
#683=EDGE_CURVE('',#535,#545,#315,.T.);
#684=EDGE_CURVE('',#541,#545,#100,.T.);
#685=EDGE_CURVE('',#534,#546,#316,.T.);
#686=EDGE_CURVE('',#545,#546,#317,.T.);
#687=EDGE_CURVE('',#533,#547,#318,.T.);
#688=EDGE_CURVE('',#546,#547,#101,.T.);
#689=EDGE_CURVE('',#543,#548,#102,.T.);
#690=EDGE_CURVE('',#548,#500,#319,.T.);
#691=EDGE_CURVE('',#548,#549,#320,.T.);
#692=EDGE_CURVE('',#549,#499,#321,.T.);
#693=EDGE_CURVE('',#549,#550,#103,.T.);
#694=EDGE_CURVE('',#550,#498,#322,.T.);
#695=EDGE_CURVE('',#551,#542,#104,.T.);
#696=EDGE_CURVE('',#551,#503,#323,.T.);
#697=EDGE_CURVE('',#552,#553,#105,.T.);
#698=EDGE_CURVE('',#552,#497,#324,.T.);
#699=EDGE_CURVE('',#553,#496,#325,.T.);
#700=EDGE_CURVE('',#553,#551,#326,.T.);
#701=EDGE_CURVE('',#554,#489,#327,.T.);
#702=EDGE_CURVE('',#495,#554,#106,.T.);
#703=EDGE_CURVE('',#555,#485,#328,.T.);
#704=EDGE_CURVE('',#556,#555,#107,.T.);
#705=EDGE_CURVE('',#556,#487,#329,.T.);
#706=EDGE_CURVE('',#555,#492,#330,.T.);
#707=EDGE_CURVE('',#554,#556,#331,.T.);
#708=EDGE_CURVE('',#547,#552,#332,.T.);
#709=EDGE_CURVE('',#557,#558,#333,.T.);
#710=EDGE_CURVE('',#558,#559,#108,.T.);
#711=EDGE_CURVE('',#559,#521,#334,.T.);
#712=EDGE_CURVE('',#524,#557,#109,.T.);
#713=EDGE_CURVE('',#560,#561,#335,.T.);
#714=EDGE_CURVE('',#561,#562,#336,.T.);
#715=EDGE_CURVE('',#562,#563,#337,.T.);
#716=EDGE_CURVE('',#563,#560,#338,.T.);
#717=EDGE_CURVE('',#564,#565,#339,.T.);
#718=EDGE_CURVE('',#565,#566,#340,.T.);
#719=EDGE_CURVE('',#566,#567,#341,.T.);
#720=EDGE_CURVE('',#567,#564,#342,.T.);
#721=EDGE_CURVE('',#568,#566,#343,.T.);
#722=EDGE_CURVE('',#568,#569,#344,.T.);
#723=EDGE_CURVE('',#569,#567,#345,.T.);
#724=EDGE_CURVE('',#569,#570,#346,.T.);
#725=EDGE_CURVE('',#570,#564,#347,.T.);
#726=EDGE_CURVE('',#571,#568,#348,.T.);
#727=EDGE_CURVE('',#570,#571,#349,.T.);
#728=EDGE_CURVE('',#571,#565,#350,.T.);
#729=EDGE_CURVE('',#572,#562,#351,.T.);
#730=EDGE_CURVE('',#572,#573,#352,.T.);
#731=EDGE_CURVE('',#573,#563,#353,.T.);
#732=EDGE_CURVE('',#573,#574,#354,.T.);
#733=EDGE_CURVE('',#574,#560,#355,.T.);
#734=EDGE_CURVE('',#575,#572,#356,.T.);
#735=EDGE_CURVE('',#574,#575,#357,.T.);
#736=EDGE_CURVE('',#575,#561,#358,.T.);
#737=EDGE_CURVE('',#576,#544,#110,.T.);
#738=EDGE_CURVE('',#538,#576,#359,.T.);
#739=EDGE_CURVE('',#577,#576,#360,.T.);
#740=EDGE_CURVE('',#539,#577,#361,.T.);
#741=EDGE_CURVE('',#578,#577,#111,.T.);
#742=EDGE_CURVE('',#540,#578,#362,.T.);
#743=EDGE_CURVE('',#550,#578,#363,.T.);
#744=EDGE_CURVE('',#518,#557,#364,.T.);
#745=EDGE_CURVE('',#514,#559,#365,.T.);
#746=EDGE_CURVE('',#516,#558,#366,.T.);
#747=ORIENTED_EDGE('',*,*,#579,.T.);
#748=ORIENTED_EDGE('',*,*,#580,.T.);
#749=ORIENTED_EDGE('',*,*,#581,.T.);
#750=ORIENTED_EDGE('',*,*,#582,.T.);
#751=ORIENTED_EDGE('',*,*,#583,.T.);
#752=ORIENTED_EDGE('',*,*,#584,.T.);
#753=ORIENTED_EDGE('',*,*,#579,.F.);
#754=ORIENTED_EDGE('',*,*,#585,.T.);
#755=ORIENTED_EDGE('',*,*,#586,.T.);
#756=ORIENTED_EDGE('',*,*,#587,.T.);
#757=ORIENTED_EDGE('',*,*,#583,.F.);
#758=ORIENTED_EDGE('',*,*,#588,.T.);
#759=ORIENTED_EDGE('',*,*,#589,.T.);
#760=ORIENTED_EDGE('',*,*,#590,.T.);
#761=ORIENTED_EDGE('',*,*,#586,.F.);
#762=ORIENTED_EDGE('',*,*,#591,.T.);
#763=ORIENTED_EDGE('',*,*,#592,.T.);
#764=ORIENTED_EDGE('',*,*,#593,.T.);
#765=ORIENTED_EDGE('',*,*,#589,.F.);
#766=ORIENTED_EDGE('',*,*,#594,.T.);
#767=ORIENTED_EDGE('',*,*,#595,.T.);
#768=ORIENTED_EDGE('',*,*,#596,.T.);
#769=ORIENTED_EDGE('',*,*,#592,.F.);
#770=ORIENTED_EDGE('',*,*,#597,.T.);
#771=ORIENTED_EDGE('',*,*,#598,.T.);
#772=ORIENTED_EDGE('',*,*,#599,.T.);
#773=ORIENTED_EDGE('',*,*,#595,.F.);
#774=ORIENTED_EDGE('',*,*,#600,.T.);
#775=ORIENTED_EDGE('',*,*,#581,.F.);
#776=ORIENTED_EDGE('',*,*,#601,.T.);
#777=ORIENTED_EDGE('',*,*,#598,.F.);
#778=ORIENTED_EDGE('',*,*,#602,.T.);
#779=ORIENTED_EDGE('',*,*,#591,.F.);
#780=ORIENTED_EDGE('',*,*,#603,.F.);
#781=ORIENTED_EDGE('',*,*,#604,.F.);
#782=ORIENTED_EDGE('',*,*,#605,.T.);
#783=ORIENTED_EDGE('',*,*,#588,.F.);
#784=ORIENTED_EDGE('',*,*,#606,.F.);
#785=ORIENTED_EDGE('',*,*,#607,.F.);
#786=ORIENTED_EDGE('',*,*,#603,.T.);
#787=ORIENTED_EDGE('',*,*,#585,.F.);
#788=ORIENTED_EDGE('',*,*,#608,.F.);
#789=ORIENTED_EDGE('',*,*,#609,.F.);
#790=ORIENTED_EDGE('',*,*,#606,.T.);
#791=ORIENTED_EDGE('',*,*,#582,.F.);
#792=ORIENTED_EDGE('',*,*,#610,.F.);
#793=ORIENTED_EDGE('',*,*,#611,.F.);
#794=ORIENTED_EDGE('',*,*,#608,.T.);
#795=ORIENTED_EDGE('',*,*,#580,.F.);
#796=ORIENTED_EDGE('',*,*,#584,.F.);
#797=ORIENTED_EDGE('',*,*,#587,.F.);
#798=ORIENTED_EDGE('',*,*,#590,.F.);
#799=ORIENTED_EDGE('',*,*,#593,.F.);
#800=ORIENTED_EDGE('',*,*,#596,.F.);
#801=ORIENTED_EDGE('',*,*,#599,.F.);
#802=ORIENTED_EDGE('',*,*,#601,.F.);
#803=ORIENTED_EDGE('',*,*,#612,.T.);
#804=ORIENTED_EDGE('',*,*,#613,.T.);
#805=ORIENTED_EDGE('',*,*,#614,.T.);
#806=ORIENTED_EDGE('',*,*,#615,.T.);
#807=ORIENTED_EDGE('',*,*,#616,.T.);
#808=ORIENTED_EDGE('',*,*,#617,.T.);
#809=ORIENTED_EDGE('',*,*,#618,.T.);
#810=ORIENTED_EDGE('',*,*,#619,.T.);
#811=ORIENTED_EDGE('',*,*,#620,.T.);
#812=ORIENTED_EDGE('',*,*,#621,.T.);
#813=ORIENTED_EDGE('',*,*,#622,.T.);
#814=ORIENTED_EDGE('',*,*,#623,.T.);
#815=ORIENTED_EDGE('',*,*,#624,.T.);
#816=ORIENTED_EDGE('',*,*,#625,.T.);
#817=ORIENTED_EDGE('',*,*,#622,.F.);
#818=ORIENTED_EDGE('',*,*,#626,.T.);
#819=ORIENTED_EDGE('',*,*,#627,.T.);
#820=ORIENTED_EDGE('',*,*,#628,.T.);
#821=ORIENTED_EDGE('',*,*,#624,.F.);
#822=ORIENTED_EDGE('',*,*,#629,.T.);
#823=ORIENTED_EDGE('',*,*,#630,.T.);
#824=ORIENTED_EDGE('',*,*,#631,.T.);
#825=ORIENTED_EDGE('',*,*,#627,.F.);
#826=ORIENTED_EDGE('',*,*,#632,.T.);
#827=ORIENTED_EDGE('',*,*,#633,.T.);
#828=ORIENTED_EDGE('',*,*,#634,.T.);
#829=ORIENTED_EDGE('',*,*,#630,.F.);
#830=ORIENTED_EDGE('',*,*,#635,.T.);
#831=ORIENTED_EDGE('',*,*,#636,.T.);
#832=ORIENTED_EDGE('',*,*,#637,.T.);
#833=ORIENTED_EDGE('',*,*,#633,.F.);
#834=ORIENTED_EDGE('',*,*,#638,.T.);
#835=ORIENTED_EDGE('',*,*,#639,.T.);
#836=ORIENTED_EDGE('',*,*,#640,.T.);
#837=ORIENTED_EDGE('',*,*,#636,.F.);
#838=ORIENTED_EDGE('',*,*,#641,.T.);
#839=ORIENTED_EDGE('',*,*,#620,.F.);
#840=ORIENTED_EDGE('',*,*,#642,.T.);
#841=ORIENTED_EDGE('',*,*,#639,.F.);
#842=ORIENTED_EDGE('',*,*,#643,.T.);
#843=ORIENTED_EDGE('',*,*,#632,.F.);
#844=ORIENTED_EDGE('',*,*,#644,.T.);
#845=ORIENTED_EDGE('',*,*,#645,.F.);
#846=ORIENTED_EDGE('',*,*,#646,.F.);
#847=ORIENTED_EDGE('',*,*,#629,.F.);
#848=ORIENTED_EDGE('',*,*,#647,.T.);
#849=ORIENTED_EDGE('',*,*,#648,.F.);
#850=ORIENTED_EDGE('',*,*,#644,.F.);
#851=ORIENTED_EDGE('',*,*,#626,.F.);
#852=ORIENTED_EDGE('',*,*,#649,.T.);
#853=ORIENTED_EDGE('',*,*,#650,.F.);
#854=ORIENTED_EDGE('',*,*,#647,.F.);
#855=ORIENTED_EDGE('',*,*,#621,.F.);
#856=ORIENTED_EDGE('',*,*,#651,.T.);
#857=ORIENTED_EDGE('',*,*,#652,.F.);
#858=ORIENTED_EDGE('',*,*,#649,.F.);
#859=ORIENTED_EDGE('',*,*,#623,.F.);
#860=ORIENTED_EDGE('',*,*,#625,.F.);
#861=ORIENTED_EDGE('',*,*,#628,.F.);
#862=ORIENTED_EDGE('',*,*,#631,.F.);
#863=ORIENTED_EDGE('',*,*,#634,.F.);
#864=ORIENTED_EDGE('',*,*,#637,.F.);
#865=ORIENTED_EDGE('',*,*,#640,.F.);
#866=ORIENTED_EDGE('',*,*,#642,.F.);
#867=ORIENTED_EDGE('',*,*,#653,.F.);
#868=ORIENTED_EDGE('',*,*,#654,.F.);
#869=ORIENTED_EDGE('',*,*,#655,.F.);
#870=ORIENTED_EDGE('',*,*,#656,.F.);
#871=ORIENTED_EDGE('',*,*,#657,.F.);
#872=ORIENTED_EDGE('',*,*,#658,.F.);
#873=ORIENTED_EDGE('',*,*,#659,.F.);
#874=ORIENTED_EDGE('',*,*,#660,.F.);
#875=ORIENTED_EDGE('',*,*,#661,.T.);
#876=ORIENTED_EDGE('',*,*,#662,.T.);
#877=ORIENTED_EDGE('',*,*,#663,.T.);
#878=ORIENTED_EDGE('',*,*,#653,.T.);
#879=ORIENTED_EDGE('',*,*,#664,.T.);
#880=ORIENTED_EDGE('',*,*,#654,.T.);
#881=ORIENTED_EDGE('',*,*,#663,.F.);
#882=ORIENTED_EDGE('',*,*,#665,.T.);
#883=ORIENTED_EDGE('',*,*,#666,.T.);
#884=ORIENTED_EDGE('',*,*,#655,.T.);
#885=ORIENTED_EDGE('',*,*,#664,.F.);
#886=ORIENTED_EDGE('',*,*,#667,.T.);
#887=ORIENTED_EDGE('',*,*,#668,.T.);
#888=ORIENTED_EDGE('',*,*,#656,.T.);
#889=ORIENTED_EDGE('',*,*,#666,.F.);
#890=ORIENTED_EDGE('',*,*,#669,.T.);
#891=ORIENTED_EDGE('',*,*,#670,.T.);
#892=ORIENTED_EDGE('',*,*,#657,.T.);
#893=ORIENTED_EDGE('',*,*,#668,.F.);
#894=ORIENTED_EDGE('',*,*,#671,.T.);
#895=ORIENTED_EDGE('',*,*,#672,.T.);
#896=ORIENTED_EDGE('',*,*,#658,.T.);
#897=ORIENTED_EDGE('',*,*,#670,.F.);
#898=ORIENTED_EDGE('',*,*,#673,.T.);
#899=ORIENTED_EDGE('',*,*,#674,.T.);
#900=ORIENTED_EDGE('',*,*,#659,.T.);
#901=ORIENTED_EDGE('',*,*,#672,.F.);
#902=ORIENTED_EDGE('',*,*,#675,.T.);
#903=ORIENTED_EDGE('',*,*,#661,.F.);
#904=ORIENTED_EDGE('',*,*,#660,.T.);
#905=ORIENTED_EDGE('',*,*,#674,.F.);
#906=ORIENTED_EDGE('',*,*,#676,.T.);
#907=ORIENTED_EDGE('',*,*,#669,.F.);
#908=ORIENTED_EDGE('',*,*,#677,.T.);
#909=ORIENTED_EDGE('',*,*,#678,.F.);
#910=ORIENTED_EDGE('',*,*,#679,.T.);
#911=ORIENTED_EDGE('',*,*,#617,.F.);
#912=ORIENTED_EDGE('',*,*,#680,.F.);
#913=ORIENTED_EDGE('',*,*,#681,.F.);
#914=ORIENTED_EDGE('',*,*,#682,.F.);
#915=ORIENTED_EDGE('',*,*,#667,.F.);
#916=ORIENTED_EDGE('',*,*,#683,.T.);
#917=ORIENTED_EDGE('',*,*,#684,.F.);
#918=ORIENTED_EDGE('',*,*,#677,.F.);
#919=ORIENTED_EDGE('',*,*,#665,.F.);
#920=ORIENTED_EDGE('',*,*,#685,.T.);
#921=ORIENTED_EDGE('',*,*,#686,.F.);
#922=ORIENTED_EDGE('',*,*,#683,.F.);
#923=ORIENTED_EDGE('',*,*,#662,.F.);
#924=ORIENTED_EDGE('',*,*,#687,.T.);
#925=ORIENTED_EDGE('',*,*,#688,.F.);
#926=ORIENTED_EDGE('',*,*,#685,.F.);
#927=ORIENTED_EDGE('',*,*,#689,.F.);
#928=ORIENTED_EDGE('',*,*,#680,.T.);
#929=ORIENTED_EDGE('',*,*,#616,.F.);
#930=ORIENTED_EDGE('',*,*,#690,.F.);
#931=ORIENTED_EDGE('',*,*,#691,.F.);
#932=ORIENTED_EDGE('',*,*,#690,.T.);
#933=ORIENTED_EDGE('',*,*,#615,.F.);
#934=ORIENTED_EDGE('',*,*,#692,.F.);
#935=ORIENTED_EDGE('',*,*,#693,.F.);
#936=ORIENTED_EDGE('',*,*,#692,.T.);
#937=ORIENTED_EDGE('',*,*,#614,.F.);
#938=ORIENTED_EDGE('',*,*,#694,.F.);
#939=ORIENTED_EDGE('',*,*,#695,.F.);
#940=ORIENTED_EDGE('',*,*,#696,.T.);
#941=ORIENTED_EDGE('',*,*,#618,.F.);
#942=ORIENTED_EDGE('',*,*,#679,.F.);
#943=ORIENTED_EDGE('',*,*,#697,.F.);
#944=ORIENTED_EDGE('',*,*,#698,.T.);
#945=ORIENTED_EDGE('',*,*,#612,.F.);
#946=ORIENTED_EDGE('',*,*,#699,.F.);
#947=ORIENTED_EDGE('',*,*,#700,.F.);
#948=ORIENTED_EDGE('',*,*,#699,.T.);
#949=ORIENTED_EDGE('',*,*,#619,.F.);
#950=ORIENTED_EDGE('',*,*,#696,.F.);
#951=ORIENTED_EDGE('',*,*,#602,.F.);
#952=ORIENTED_EDGE('',*,*,#701,.F.);
#953=ORIENTED_EDGE('',*,*,#702,.F.);
#954=ORIENTED_EDGE('',*,*,#610,.T.);
#955=ORIENTED_EDGE('',*,*,#597,.F.);
#956=ORIENTED_EDGE('',*,*,#703,.F.);
#957=ORIENTED_EDGE('',*,*,#704,.F.);
#958=ORIENTED_EDGE('',*,*,#705,.T.);
#959=ORIENTED_EDGE('',*,*,#594,.F.);
#960=ORIENTED_EDGE('',*,*,#605,.F.);
#961=ORIENTED_EDGE('',*,*,#706,.F.);
#962=ORIENTED_EDGE('',*,*,#703,.T.);
#963=ORIENTED_EDGE('',*,*,#600,.F.);
#964=ORIENTED_EDGE('',*,*,#705,.F.);
#965=ORIENTED_EDGE('',*,*,#707,.F.);
#966=ORIENTED_EDGE('',*,*,#701,.T.);
#967=ORIENTED_EDGE('',*,*,#708,.T.);
#968=ORIENTED_EDGE('',*,*,#697,.T.);
#969=ORIENTED_EDGE('',*,*,#700,.T.);
#970=ORIENTED_EDGE('',*,*,#695,.T.);
#971=ORIENTED_EDGE('',*,*,#678,.T.);
#972=ORIENTED_EDGE('',*,*,#684,.T.);
#973=ORIENTED_EDGE('',*,*,#686,.T.);
#974=ORIENTED_EDGE('',*,*,#688,.T.);
#975=ORIENTED_EDGE('',*,*,#709,.T.);
#976=ORIENTED_EDGE('',*,*,#710,.T.);
#977=ORIENTED_EDGE('',*,*,#711,.T.);
#978=ORIENTED_EDGE('',*,*,#645,.T.);
#979=ORIENTED_EDGE('',*,*,#648,.T.);
#980=ORIENTED_EDGE('',*,*,#650,.T.);
#981=ORIENTED_EDGE('',*,*,#652,.T.);
#982=ORIENTED_EDGE('',*,*,#712,.T.);
#983=ORIENTED_EDGE('',*,*,#713,.T.);
#984=ORIENTED_EDGE('',*,*,#714,.T.);
#985=ORIENTED_EDGE('',*,*,#715,.T.);
#986=ORIENTED_EDGE('',*,*,#716,.T.);
#987=ORIENTED_EDGE('',*,*,#717,.T.);
#988=ORIENTED_EDGE('',*,*,#718,.T.);
#989=ORIENTED_EDGE('',*,*,#719,.T.);
#990=ORIENTED_EDGE('',*,*,#720,.T.);
#991=ORIENTED_EDGE('',*,*,#604,.T.);
#992=ORIENTED_EDGE('',*,*,#607,.T.);
#993=ORIENTED_EDGE('',*,*,#609,.T.);
#994=ORIENTED_EDGE('',*,*,#611,.T.);
#995=ORIENTED_EDGE('',*,*,#702,.T.);
#996=ORIENTED_EDGE('',*,*,#707,.T.);
#997=ORIENTED_EDGE('',*,*,#704,.T.);
#998=ORIENTED_EDGE('',*,*,#706,.T.);
#999=ORIENTED_EDGE('',*,*,#719,.F.);
#1000=ORIENTED_EDGE('',*,*,#721,.F.);
#1001=ORIENTED_EDGE('',*,*,#722,.T.);
#1002=ORIENTED_EDGE('',*,*,#723,.T.);
#1003=ORIENTED_EDGE('',*,*,#720,.F.);
#1004=ORIENTED_EDGE('',*,*,#723,.F.);
#1005=ORIENTED_EDGE('',*,*,#724,.T.);
#1006=ORIENTED_EDGE('',*,*,#725,.T.);
#1007=ORIENTED_EDGE('',*,*,#726,.F.);
#1008=ORIENTED_EDGE('',*,*,#727,.F.);
#1009=ORIENTED_EDGE('',*,*,#724,.F.);
#1010=ORIENTED_EDGE('',*,*,#722,.F.);
#1011=ORIENTED_EDGE('',*,*,#717,.F.);
#1012=ORIENTED_EDGE('',*,*,#725,.F.);
#1013=ORIENTED_EDGE('',*,*,#727,.T.);
#1014=ORIENTED_EDGE('',*,*,#728,.T.);
#1015=ORIENTED_EDGE('',*,*,#718,.F.);
#1016=ORIENTED_EDGE('',*,*,#728,.F.);
#1017=ORIENTED_EDGE('',*,*,#726,.T.);
#1018=ORIENTED_EDGE('',*,*,#721,.T.);
#1019=ORIENTED_EDGE('',*,*,#715,.F.);
#1020=ORIENTED_EDGE('',*,*,#729,.F.);
#1021=ORIENTED_EDGE('',*,*,#730,.T.);
#1022=ORIENTED_EDGE('',*,*,#731,.T.);
#1023=ORIENTED_EDGE('',*,*,#716,.F.);
#1024=ORIENTED_EDGE('',*,*,#731,.F.);
#1025=ORIENTED_EDGE('',*,*,#732,.T.);
#1026=ORIENTED_EDGE('',*,*,#733,.T.);
#1027=ORIENTED_EDGE('',*,*,#734,.F.);
#1028=ORIENTED_EDGE('',*,*,#735,.F.);
#1029=ORIENTED_EDGE('',*,*,#732,.F.);
#1030=ORIENTED_EDGE('',*,*,#730,.F.);
#1031=ORIENTED_EDGE('',*,*,#713,.F.);
#1032=ORIENTED_EDGE('',*,*,#733,.F.);
#1033=ORIENTED_EDGE('',*,*,#735,.T.);
#1034=ORIENTED_EDGE('',*,*,#736,.T.);
#1035=ORIENTED_EDGE('',*,*,#714,.F.);
#1036=ORIENTED_EDGE('',*,*,#736,.F.);
#1037=ORIENTED_EDGE('',*,*,#734,.T.);
#1038=ORIENTED_EDGE('',*,*,#729,.T.);
#1039=ORIENTED_EDGE('',*,*,#671,.F.);
#1040=ORIENTED_EDGE('',*,*,#682,.T.);
#1041=ORIENTED_EDGE('',*,*,#737,.F.);
#1042=ORIENTED_EDGE('',*,*,#738,.F.);
#1043=ORIENTED_EDGE('',*,*,#673,.F.);
#1044=ORIENTED_EDGE('',*,*,#738,.T.);
#1045=ORIENTED_EDGE('',*,*,#739,.F.);
#1046=ORIENTED_EDGE('',*,*,#740,.F.);
#1047=ORIENTED_EDGE('',*,*,#675,.F.);
#1048=ORIENTED_EDGE('',*,*,#740,.T.);
#1049=ORIENTED_EDGE('',*,*,#741,.F.);
#1050=ORIENTED_EDGE('',*,*,#742,.F.);
#1051=ORIENTED_EDGE('',*,*,#676,.F.);
#1052=ORIENTED_EDGE('',*,*,#742,.T.);
#1053=ORIENTED_EDGE('',*,*,#743,.F.);
#1054=ORIENTED_EDGE('',*,*,#694,.T.);
#1055=ORIENTED_EDGE('',*,*,#613,.F.);
#1056=ORIENTED_EDGE('',*,*,#698,.F.);
#1057=ORIENTED_EDGE('',*,*,#708,.F.);
#1058=ORIENTED_EDGE('',*,*,#687,.F.);
#1059=ORIENTED_EDGE('',*,*,#643,.F.);
#1060=ORIENTED_EDGE('',*,*,#744,.T.);
#1061=ORIENTED_EDGE('',*,*,#712,.F.);
#1062=ORIENTED_EDGE('',*,*,#651,.F.);
#1063=ORIENTED_EDGE('',*,*,#638,.F.);
#1064=ORIENTED_EDGE('',*,*,#745,.T.);
#1065=ORIENTED_EDGE('',*,*,#710,.F.);
#1066=ORIENTED_EDGE('',*,*,#746,.F.);
#1067=ORIENTED_EDGE('',*,*,#743,.T.);
#1068=ORIENTED_EDGE('',*,*,#741,.T.);
#1069=ORIENTED_EDGE('',*,*,#739,.T.);
#1070=ORIENTED_EDGE('',*,*,#737,.T.);
#1071=ORIENTED_EDGE('',*,*,#681,.T.);
#1072=ORIENTED_EDGE('',*,*,#689,.T.);
#1073=ORIENTED_EDGE('',*,*,#691,.T.);
#1074=ORIENTED_EDGE('',*,*,#693,.T.);
#1075=ORIENTED_EDGE('',*,*,#641,.F.);
#1076=ORIENTED_EDGE('',*,*,#746,.T.);
#1077=ORIENTED_EDGE('',*,*,#709,.F.);
#1078=ORIENTED_EDGE('',*,*,#744,.F.);
#1079=ORIENTED_EDGE('',*,*,#635,.F.);
#1080=ORIENTED_EDGE('',*,*,#646,.T.);
#1081=ORIENTED_EDGE('',*,*,#711,.F.);
#1082=ORIENTED_EDGE('',*,*,#745,.F.);
#1083=PLANE('',#1199);
#1084=PLANE('',#1203);
#1085=PLANE('',#1207);
#1086=PLANE('',#1211);
#1087=PLANE('',#1217);
#1088=PLANE('',#1220);
#1089=PLANE('',#1221);
#1090=PLANE('',#1252);
#1091=PLANE('',#1255);
#1092=PLANE('',#1256);
#1093=PLANE('',#1281);
#1094=PLANE('',#1284);
#1095=PLANE('',#1289);
#1096=PLANE('',#1296);
#1097=PLANE('',#1301);
#1098=PLANE('',#1302);
#1099=PLANE('',#1303);
#1100=PLANE('',#1304);
#1101=PLANE('',#1307);
#1102=PLANE('',#1308);
#1103=PLANE('',#1309);
#1104=PLANE('',#1310);
#1105=PLANE('',#1311);
#1106=PLANE('',#1312);
#1107=PLANE('',#1313);
#1108=PLANE('',#1314);
#1109=PLANE('',#1315);
#1110=PLANE('',#1316);
#1111=PLANE('',#1319);
#1112=PLANE('',#1322);
#1113=PLANE('',#1325);
#1114=PLANE('',#1326);
#1115=PLANE('',#1327);
#1116=ADVANCED_FACE('',(#116),#1083,.T.);
#1117=ADVANCED_FACE('',(#117),#112,.T.);
#1118=ADVANCED_FACE('',(#118),#1084,.T.);
#1119=ADVANCED_FACE('',(#119),#113,.T.);
#1120=ADVANCED_FACE('',(#120),#1085,.T.);
#1121=ADVANCED_FACE('',(#121),#114,.T.);
#1122=ADVANCED_FACE('',(#122),#1086,.T.);
#1123=ADVANCED_FACE('',(#123),#115,.T.);
#1124=ADVANCED_FACE('',(#124),#28,.T.);
#1125=ADVANCED_FACE('',(#125),#1087,.F.);
#1126=ADVANCED_FACE('',(#126),#29,.T.);
#1127=ADVANCED_FACE('',(#127),#1088,.F.);
#1128=ADVANCED_FACE('',(#128,#23),#1089,.F.);
#1129=ADVANCED_FACE('',(#129),#30,.T.);
#1130=ADVANCED_FACE('',(#130),#15,.T.);
#1131=ADVANCED_FACE('',(#131),#31,.T.);
#1132=ADVANCED_FACE('',(#132),#16,.T.);
#1133=ADVANCED_FACE('',(#133),#32,.T.);
#1134=ADVANCED_FACE('',(#134),#17,.T.);
#1135=ADVANCED_FACE('',(#135),#33,.T.);
#1136=ADVANCED_FACE('',(#136),#18,.T.);
#1137=ADVANCED_FACE('',(#137),#34,.T.);
#1138=ADVANCED_FACE('',(#138),#1090,.F.);
#1139=ADVANCED_FACE('',(#139),#35,.T.);
#1140=ADVANCED_FACE('',(#140),#1091,.F.);
#1141=ADVANCED_FACE('',(#141,#24),#1092,.T.);
#1142=ADVANCED_FACE('',(#142),#19,.T.);
#1143=ADVANCED_FACE('',(#143),#36,.T.);
#1144=ADVANCED_FACE('',(#144),#20,.T.);
#1145=ADVANCED_FACE('',(#145),#37,.T.);
#1146=ADVANCED_FACE('',(#146),#21,.T.);
#1147=ADVANCED_FACE('',(#147),#38,.T.);
#1148=ADVANCED_FACE('',(#148),#22,.T.);
#1149=ADVANCED_FACE('',(#149),#39,.T.);
#1150=ADVANCED_FACE('',(#150),#1093,.T.);
#1151=ADVANCED_FACE('',(#151),#40,.F.);
#1152=ADVANCED_FACE('',(#152),#1094,.T.);
#1153=ADVANCED_FACE('',(#153),#41,.F.);
#1154=ADVANCED_FACE('',(#154),#42,.F.);
#1155=ADVANCED_FACE('',(#155),#1095,.T.);
#1156=ADVANCED_FACE('',(#156),#43,.F.);
#1157=ADVANCED_FACE('',(#157),#44,.F.);
#1158=ADVANCED_FACE('',(#158),#45,.F.);
#1159=ADVANCED_FACE('',(#159),#1096,.T.);
#1160=ADVANCED_FACE('',(#160),#46,.T.);
#1161=ADVANCED_FACE('',(#161),#47,.T.);
#1162=ADVANCED_FACE('',(#162),#1097,.F.);
#1163=ADVANCED_FACE('',(#163),#1098,.F.);
#1164=ADVANCED_FACE('',(#164),#1099,.F.);
#1165=ADVANCED_FACE('',(#165,#25,#26,#27),#1100,.F.);
#1166=ADVANCED_FACE('',(#166),#1101,.T.);
#1167=ADVANCED_FACE('',(#167),#1102,.T.);
#1168=ADVANCED_FACE('',(#168),#1103,.F.);
#1169=ADVANCED_FACE('',(#169),#1104,.T.);
#1170=ADVANCED_FACE('',(#170),#1105,.T.);
#1171=ADVANCED_FACE('',(#171),#1106,.T.);
#1172=ADVANCED_FACE('',(#172),#1107,.T.);
#1173=ADVANCED_FACE('',(#173),#1108,.F.);
#1174=ADVANCED_FACE('',(#174),#1109,.T.);
#1175=ADVANCED_FACE('',(#175),#1110,.T.);
#1176=ADVANCED_FACE('',(#176),#48,.F.);
#1177=ADVANCED_FACE('',(#177),#1111,.T.);
#1178=ADVANCED_FACE('',(#178),#49,.F.);
#1179=ADVANCED_FACE('',(#179),#1112,.T.);
#1180=ADVANCED_FACE('',(#180),#50,.T.);
#1181=ADVANCED_FACE('',(#181),#51,.T.);
#1182=ADVANCED_FACE('',(#182),#1113,.F.);
#1183=ADVANCED_FACE('',(#183),#1114,.F.);
#1184=ADVANCED_FACE('',(#184),#1115,.F.);
#1185=CLOSED_SHELL('',(#1116,#1117,#1118,#1119,#1120,#1121,#1122,#1123,
#1124,#1125,#1126,#1127,#1128,#1129,#1130,#1131,#1132,#1133,#1134,#1135,
#1136,#1137,#1138,#1139,#1140,#1141,#1142,#1143,#1144,#1145,#1146,#1147,
#1148,#1149,#1150,#1151,#1152,#1153,#1154,#1155,#1156,#1157,#1158,#1159,
#1160,#1161,#1162,#1163,#1164,#1165,#1166,#1167,#1168,#1169,#1170,#1171,
#1172,#1173,#1174,#1175,#1176,#1177,#1178,#1179,#1180,#1181,#1182,#1183,
#1184));
#1186=DERIVED_UNIT_ELEMENT(#1188,1.);
#1187=DERIVED_UNIT_ELEMENT(#2043,-3.);
#1188=(
MASS_UNIT()
NAMED_UNIT(*)
SI_UNIT(.KILO.,.GRAM.)
);
#1189=DERIVED_UNIT((#1186,#1187));
#1190=MEASURE_REPRESENTATION_ITEM('density measure',
POSITIVE_RATIO_MEASURE(7850.),#1189);
#1191=PROPERTY_DEFINITION_REPRESENTATION(#1196,#1193);
#1192=PROPERTY_DEFINITION_REPRESENTATION(#1197,#1194);
#1193=REPRESENTATION('material name',(#1195),#2040);
#1194=REPRESENTATION('density',(#1190),#2040);
#1195=DESCRIPTIVE_REPRESENTATION_ITEM('Steel','Steel');
#1196=PROPERTY_DEFINITION('material property','material name',#2050);
#1197=PROPERTY_DEFINITION('material property','density of part',#2050);
#1198=AXIS2_PLACEMENT_3D('',#1696,#1328,#1329);
#1199=AXIS2_PLACEMENT_3D('',#1697,#1330,#1331);
#1200=AXIS2_PLACEMENT_3D('',#1706,#1336,#1337);
#1201=AXIS2_PLACEMENT_3D('',#1710,#1339,#1340);
#1202=AXIS2_PLACEMENT_3D('',#1711,#1341,#1342);
#1203=AXIS2_PLACEMENT_3D('',#1712,#1343,#1344);
#1204=AXIS2_PLACEMENT_3D('',#1718,#1348,#1349);
#1205=AXIS2_PLACEMENT_3D('',#1722,#1351,#1352);
#1206=AXIS2_PLACEMENT_3D('',#1723,#1353,#1354);
#1207=AXIS2_PLACEMENT_3D('',#1724,#1355,#1356);
#1208=AXIS2_PLACEMENT_3D('',#1730,#1360,#1361);
#1209=AXIS2_PLACEMENT_3D('',#1734,#1363,#1364);
#1210=AXIS2_PLACEMENT_3D('',#1735,#1365,#1366);
#1211=AXIS2_PLACEMENT_3D('',#1736,#1367,#1368);
#1212=AXIS2_PLACEMENT_3D('',#1742,#1372,#1373);
#1213=AXIS2_PLACEMENT_3D('',#1743,#1374,#1375);
#1214=AXIS2_PLACEMENT_3D('',#1744,#1376,#1377);
#1215=AXIS2_PLACEMENT_3D('',#1745,#1378,#1379);
#1216=AXIS2_PLACEMENT_3D('',#1749,#1381,#1382);
#1217=AXIS2_PLACEMENT_3D('',#1751,#1384,#1385);
#1218=AXIS2_PLACEMENT_3D('',#1755,#1388,#1389);
#1219=AXIS2_PLACEMENT_3D('',#1758,#1391,#1392);
#1220=AXIS2_PLACEMENT_3D('',#1759,#1393,#1394);
#1221=AXIS2_PLACEMENT_3D('',#1763,#1397,#1398);
#1222=AXIS2_PLACEMENT_3D('',#1766,#1399,#1400);
#1223=AXIS2_PLACEMENT_3D('',#1770,#1402,#1403);
#1224=AXIS2_PLACEMENT_3D('',#1774,#1405,#1406);
#1225=AXIS2_PLACEMENT_3D('',#1778,#1408,#1409);
#1226=AXIS2_PLACEMENT_3D('',#1780,#1411,#1412);
#1227=AXIS2_PLACEMENT_3D('',#1783,#1413,#1414);
#1228=AXIS2_PLACEMENT_3D('',#1787,#1416,#1417);
#1229=AXIS2_PLACEMENT_3D('',#1789,#1419,#1420);
#1230=AXIS2_PLACEMENT_3D('',#1792,#1421,#1422);
#1231=AXIS2_PLACEMENT_3D('',#1793,#1423,#1424);
#1232=AXIS2_PLACEMENT_3D('',#1794,#1425,#1426);
#1233=AXIS2_PLACEMENT_3D('',#1795,#1427,#1428);
#1234=AXIS2_PLACEMENT_3D('',#1798,#1429,#1430);
#1235=AXIS2_PLACEMENT_3D('',#1801,#1433,#1434);
#1236=AXIS2_PLACEMENT_3D('',#1804,#1435,#1436);
#1237=AXIS2_PLACEMENT_3D('',#1805,#1437,#1438);
#1238=AXIS2_PLACEMENT_3D('',#1806,#1439,#1440);
#1239=AXIS2_PLACEMENT_3D('',#1807,#1441,#1442);
#1240=AXIS2_PLACEMENT_3D('',#1810,#1443,#1444);
#1241=AXIS2_PLACEMENT_3D('',#1813,#1447,#1448);
#1242=AXIS2_PLACEMENT_3D('',#1816,#1449,#1450);
#1243=AXIS2_PLACEMENT_3D('',#1817,#1451,#1452);
#1244=AXIS2_PLACEMENT_3D('',#1818,#1453,#1454);
#1245=AXIS2_PLACEMENT_3D('',#1819,#1455,#1456);
#1246=AXIS2_PLACEMENT_3D('',#1822,#1457,#1458);
#1247=AXIS2_PLACEMENT_3D('',#1825,#1461,#1462);
#1248=AXIS2_PLACEMENT_3D('',#1826,#1463,#1464);
#1249=AXIS2_PLACEMENT_3D('',#1827,#1465,#1466);
#1250=AXIS2_PLACEMENT_3D('',#1828,#1467,#1468);
#1251=AXIS2_PLACEMENT_3D('',#1832,#1470,#1471);
#1252=AXIS2_PLACEMENT_3D('',#1834,#1473,#1474);
#1253=AXIS2_PLACEMENT_3D('',#1838,#1477,#1478);
#1254=AXIS2_PLACEMENT_3D('',#1841,#1480,#1481);
#1255=AXIS2_PLACEMENT_3D('',#1842,#1482,#1483);
#1256=AXIS2_PLACEMENT_3D('',#1846,#1486,#1487);
#1257=AXIS2_PLACEMENT_3D('',#1849,#1488,#1489);
#1258=AXIS2_PLACEMENT_3D('',#1853,#1491,#1492);
#1259=AXIS2_PLACEMENT_3D('',#1857,#1494,#1495);
#1260=AXIS2_PLACEMENT_3D('',#1861,#1497,#1498);
#1261=AXIS2_PLACEMENT_3D('',#1863,#1500,#1501);
#1262=AXIS2_PLACEMENT_3D('',#1865,#1502,#1503);
#1263=AXIS2_PLACEMENT_3D('',#1867,#1504,#1505);
#1264=AXIS2_PLACEMENT_3D('',#1868,#1506,#1507);
#1265=AXIS2_PLACEMENT_3D('',#1869,#1508,#1509);
#1266=AXIS2_PLACEMENT_3D('',#1871,#1510,#1511);
#1267=AXIS2_PLACEMENT_3D('',#1873,#1513,#1514);
#1268=AXIS2_PLACEMENT_3D('',#1875,#1515,#1516);
#1269=AXIS2_PLACEMENT_3D('',#1876,#1517,#1518);
#1270=AXIS2_PLACEMENT_3D('',#1877,#1519,#1520);
#1271=AXIS2_PLACEMENT_3D('',#1879,#1521,#1522);
#1272=AXIS2_PLACEMENT_3D('',#1881,#1524,#1525);
#1273=AXIS2_PLACEMENT_3D('',#1883,#1526,#1527);
#1274=AXIS2_PLACEMENT_3D('',#1884,#1528,#1529);
#1275=AXIS2_PLACEMENT_3D('',#1885,#1530,#1531);
#1276=AXIS2_PLACEMENT_3D('',#1887,#1532,#1533);
#1277=AXIS2_PLACEMENT_3D('',#1889,#1535,#1536);
#1278=AXIS2_PLACEMENT_3D('',#1891,#1537,#1538);
#1279=AXIS2_PLACEMENT_3D('',#1892,#1539,#1540);
#1280=AXIS2_PLACEMENT_3D('',#1893,#1541,#1542);
#1281=AXIS2_PLACEMENT_3D('',#1895,#1544,#1545);
#1282=AXIS2_PLACEMENT_3D('',#1906,#1552,#1553);
#1283=AXIS2_PLACEMENT_3D('',#1909,#1555,#1556);
#1284=AXIS2_PLACEMENT_3D('',#1910,#1557,#1558);
#1285=AXIS2_PLACEMENT_3D('',#1914,#1561,#1562);
#1286=AXIS2_PLACEMENT_3D('',#1917,#1564,#1565);
#1287=AXIS2_PLACEMENT_3D('',#1918,#1566,#1567);
#1288=AXIS2_PLACEMENT_3D('',#1920,#1568,#1569);
#1289=AXIS2_PLACEMENT_3D('',#1922,#1571,#1572);
#1290=AXIS2_PLACEMENT_3D('',#1926,#1575,#1576);
#1291=AXIS2_PLACEMENT_3D('',#1928,#1577,#1578);
#1292=AXIS2_PLACEMENT_3D('',#1930,#1580,#1581);
#1293=AXIS2_PLACEMENT_3D('',#1932,#1582,#1583);
#1294=AXIS2_PLACEMENT_3D('',#1934,#1585,#1586);
#1295=AXIS2_PLACEMENT_3D('',#1937,#1587,#1588);
#1296=AXIS2_PLACEMENT_3D('',#1940,#1591,#1592);
#1297=AXIS2_PLACEMENT_3D('',#1942,#1594,#1595);
#1298=AXIS2_PLACEMENT_3D('',#1945,#1597,#1598);
#1299=AXIS2_PLACEMENT_3D('',#1946,#1599,#1600);
#1300=AXIS2_PLACEMENT_3D('',#1950,#1602,#1603);
#1301=AXIS2_PLACEMENT_3D('',#1952,#1605,#1606);
#1302=AXIS2_PLACEMENT_3D('',#1954,#1608,#1609);
#1303=AXIS2_PLACEMENT_3D('',#1956,#1611,#1612);
#1304=AXIS2_PLACEMENT_3D('',#1958,#1614,#1615);
#1305=AXIS2_PLACEMENT_3D('',#1963,#1617,#1618);
#1306=AXIS2_PLACEMENT_3D('',#1965,#1620,#1621);
#1307=AXIS2_PLACEMENT_3D('',#1982,#1630,#1631);
#1308=AXIS2_PLACEMENT_3D('',#1988,#1635,#1636);
#1309=AXIS2_PLACEMENT_3D('',#1992,#1639,#1640);
#1310=AXIS2_PLACEMENT_3D('',#1996,#1643,#1644);
#1311=AXIS2_PLACEMENT_3D('',#1998,#1646,#1647);
#1312=AXIS2_PLACEMENT_3D('',#1999,#1648,#1649);
#1313=AXIS2_PLACEMENT_3D('',#2005,#1653,#1654);
#1314=AXIS2_PLACEMENT_3D('',#2009,#1657,#1658);
#1315=AXIS2_PLACEMENT_3D('',#2013,#1661,#1662);
#1316=AXIS2_PLACEMENT_3D('',#2015,#1664,#1665);
#1317=AXIS2_PLACEMENT_3D('',#2016,#1666,#1667);
#1318=AXIS2_PLACEMENT_3D('',#2018,#1668,#1669);
#1319=AXIS2_PLACEMENT_3D('',#2020,#1671,#1672);
#1320=AXIS2_PLACEMENT_3D('',#2024,#1675,#1676);
#1321=AXIS2_PLACEMENT_3D('',#2026,#1677,#1678);
#1322=AXIS2_PLACEMENT_3D('',#2028,#1680,#1681);
#1323=AXIS2_PLACEMENT_3D('',#2030,#1683,#1684);
#1324=AXIS2_PLACEMENT_3D('',#2032,#1686,#1687);
#1325=AXIS2_PLACEMENT_3D('',#2035,#1690,#1691);
#1326=AXIS2_PLACEMENT_3D('',#2036,#1692,#1693);
#1327=AXIS2_PLACEMENT_3D('',#2037,#1694,#1695);
#1328=DIRECTION('axis',(0.,0.,1.));
#1329=DIRECTION('refdir',(1.,0.,0.));
#1330=DIRECTION('center_axis',(0.707106781186547,0.,-0.707106781186548));
#1331=DIRECTION('ref_axis',(-0.707106781186548,0.,-0.707106781186547));
#1332=DIRECTION('',(-0.707106781186548,0.,-0.707106781186547));
#1333=DIRECTION('',(0.,1.,0.));
#1334=DIRECTION('',(0.707106781186548,0.,0.707106781186547));
#1335=DIRECTION('',(0.,-1.,0.));
#1336=DIRECTION('center_axis',(0.,0.,1.));
#1337=DIRECTION('ref_axis',(1.,0.,0.));
#1338=DIRECTION('',(0.,0.707106781186546,-0.707106781186549));
#1339=DIRECTION('center_axis',(0.,0.,1.));
#1340=DIRECTION('ref_axis',(1.,0.,0.));
#1341=DIRECTION('center_axis',(0.,0.,-1.));
#1342=DIRECTION('ref_axis',(1.,0.,0.));
#1343=DIRECTION('center_axis',(0.,-0.707106781186547,-0.707106781186548));
#1344=DIRECTION('ref_axis',(-1.,0.,0.));
#1345=DIRECTION('',(0.,0.707106781186548,-0.707106781186547));
#1346=DIRECTION('',(1.,0.,0.));
#1347=DIRECTION('',(-1.,0.,0.));
#1348=DIRECTION('center_axis',(0.,0.,1.));
#1349=DIRECTION('ref_axis',(-1.,0.,0.));
#1350=DIRECTION('',(0.707106781186552,0.,-0.707106781186543));
#1351=DIRECTION('center_axis',(0.,0.,1.));
#1352=DIRECTION('ref_axis',(-1.,0.,0.));
#1353=DIRECTION('center_axis',(0.,0.,-1.));
#1354=DIRECTION('ref_axis',(-1.,0.,0.));
#1355=DIRECTION('center_axis',(-0.707106781186547,0.,-0.707106781186548));
#1356=DIRECTION('ref_axis',(-0.707106781186548,0.,0.707106781186547));
#1357=DIRECTION('',(0.707106781186548,0.,-0.707106781186547));
#1358=DIRECTION('',(0.,-1.,0.));
#1359=DIRECTION('',(0.,1.,0.));
#1360=DIRECTION('center_axis',(0.,0.,1.));
#1361=DIRECTION('ref_axis',(-1.,0.,0.));
#1362=DIRECTION('',(0.,-0.707106781186546,-0.707106781186549));
#1363=DIRECTION('center_axis',(0.,0.,1.));
#1364=DIRECTION('ref_axis',(-1.,0.,0.));
#1365=DIRECTION('center_axis',(0.,0.,-1.));
#1366=DIRECTION('ref_axis',(-1.,0.,0.));
#1367=DIRECTION('center_axis',(0.,0.707106781186547,-0.707106781186548));
#1368=DIRECTION('ref_axis',(-1.,0.,0.));
#1369=DIRECTION('',(0.,-0.707106781186548,-0.707106781186547));
#1370=DIRECTION('',(-1.,0.,0.));
#1371=DIRECTION('',(1.,0.,0.));
#1372=DIRECTION('center_axis',(0.,0.,1.));
#1373=DIRECTION('ref_axis',(1.,0.,0.));
#1374=DIRECTION('center_axis',(0.,0.,1.));
#1375=DIRECTION('ref_axis',(1.,0.,0.));
#1376=DIRECTION('center_axis',(0.,0.,-1.));
#1377=DIRECTION('ref_axis',(1.,0.,0.));
#1378=DIRECTION('center_axis',(0.,0.,1.));
#1379=DIRECTION('ref_axis',(1.,0.,0.));
#1380=DIRECTION('',(0.,0.,-1.));
#1381=DIRECTION('center_axis',(0.,0.,1.));
#1382=DIRECTION('ref_axis',(1.,0.,0.));
#1383=DIRECTION('',(0.,0.,-1.));
#1384=DIRECTION('center_axis',(0.,1.,0.));
#1385=DIRECTION('ref_axis',(0.,0.,1.));
#1386=DIRECTION('',(0.,0.,-1.));
#1387=DIRECTION('',(1.,0.,0.));
#1388=DIRECTION('center_axis',(0.,0.,1.));
#1389=DIRECTION('ref_axis',(1.,0.,0.));
#1390=DIRECTION('',(0.,0.,-1.));
#1391=DIRECTION('center_axis',(0.,0.,1.));
#1392=DIRECTION('ref_axis',(1.,0.,0.));
#1393=DIRECTION('center_axis',(-1.,0.,0.));
#1394=DIRECTION('ref_axis',(0.,0.,1.));
#1395=DIRECTION('',(0.,0.,-1.));
#1396=DIRECTION('',(0.,1.,0.));
#1397=DIRECTION('center_axis',(0.,0.,1.));
#1398=DIRECTION('ref_axis',(1.,0.,0.));
#1399=DIRECTION('center_axis',(0.,0.,1.));
#1400=DIRECTION('ref_axis',(1.,0.,0.));
#1401=DIRECTION('',(1.,0.,0.));
#1402=DIRECTION('center_axis',(0.,0.,1.));
#1403=DIRECTION('ref_axis',(1.,0.,0.));
#1404=DIRECTION('',(0.,1.,0.));
#1405=DIRECTION('center_axis',(0.,0.,1.));
#1406=DIRECTION('ref_axis',(1.,0.,0.));
#1407=DIRECTION('',(-1.,0.,0.));
#1408=DIRECTION('center_axis',(0.,0.,1.));
#1409=DIRECTION('ref_axis',(1.,0.,0.));
#1410=DIRECTION('',(0.,-1.,0.));
#1411=DIRECTION('center_axis',(-1.,0.,0.));
#1412=DIRECTION('ref_axis',(0.,0.707106781186548,0.707106781186548));
#1413=DIRECTION('center_axis',(-1.,0.,0.));
#1414=DIRECTION('ref_axis',(0.,0.,1.));
#1415=DIRECTION('',(-1.,0.,0.));
#1416=DIRECTION('center_axis',(1.,0.,0.));
#1417=DIRECTION('ref_axis',(0.,1.,0.));
#1418=DIRECTION('',(1.,0.,0.));
#1419=DIRECTION('center_axis',(0.,0.,1.));
#1420=DIRECTION('ref_axis',(1.,0.,0.));
#1421=DIRECTION('center_axis',(2.77555756156289E-15,1.,0.));
#1422=DIRECTION('ref_axis',(-1.,2.77555756156289E-15,0.));
#1423=DIRECTION('center_axis',(0.,0.,-1.));
#1424=DIRECTION('ref_axis',(-0.707106781186547,0.707106781186548,0.));
#1425=DIRECTION('center_axis',(0.,0.,1.));
#1426=DIRECTION('ref_axis',(-0.707106781186547,0.707106781186548,0.));
#1427=DIRECTION('center_axis',(0.,-1.,0.));
#1428=DIRECTION('ref_axis',(-0.707106781186548,0.,0.707106781186548));
#1429=DIRECTION('center_axis',(0.,1.,0.));
#1430=DIRECTION('ref_axis',(-1.,0.,0.));
#1431=DIRECTION('',(0.,1.,0.));
#1432=DIRECTION('',(0.,-1.,0.));
#1433=DIRECTION('center_axis',(0.,0.,1.));
#1434=DIRECTION('ref_axis',(1.,0.,0.));
#1435=DIRECTION('center_axis',(-1.,0.,0.));
#1436=DIRECTION('ref_axis',(0.,-1.,0.));
#1437=DIRECTION('center_axis',(0.,0.,-1.));
#1438=DIRECTION('ref_axis',(-0.707106781186547,-0.707106781186548,0.));
#1439=DIRECTION('center_axis',(0.,0.,1.));
#1440=DIRECTION('ref_axis',(-0.707106781186547,-0.707106781186548,0.));
#1441=DIRECTION('center_axis',(1.,0.,0.));
#1442=DIRECTION('ref_axis',(0.,-0.707106781186548,0.707106781186548));
#1443=DIRECTION('center_axis',(-1.,0.,0.));
#1444=DIRECTION('ref_axis',(0.,-1.,0.));
#1445=DIRECTION('',(-1.,0.,0.));
#1446=DIRECTION('',(1.,0.,0.));
#1447=DIRECTION('center_axis',(0.,0.,1.));
#1448=DIRECTION('ref_axis',(1.,0.,0.));
#1449=DIRECTION('center_axis',(-2.77555756156289E-15,-1.,0.));
#1450=DIRECTION('ref_axis',(1.,-2.77555756156289E-15,0.));
#1451=DIRECTION('center_axis',(0.,0.,-1.));
#1452=DIRECTION('ref_axis',(0.707106781186547,-0.707106781186548,0.));
#1453=DIRECTION('center_axis',(0.,0.,1.));
#1454=DIRECTION('ref_axis',(0.707106781186547,-0.707106781186548,0.));
#1455=DIRECTION('center_axis',(0.,1.,0.));
#1456=DIRECTION('ref_axis',(0.707106781186548,0.,0.707106781186548));
#1457=DIRECTION('center_axis',(0.,-1.,0.));
#1458=DIRECTION('ref_axis',(1.,0.,0.));
#1459=DIRECTION('',(0.,-1.,0.));
#1460=DIRECTION('',(0.,1.,0.));
#1461=DIRECTION('center_axis',(0.,0.,1.));
#1462=DIRECTION('ref_axis',(1.,0.,0.));
#1463=DIRECTION('center_axis',(0.,0.,-1.));
#1464=DIRECTION('ref_axis',(0.707106781186547,0.707106781186548,0.));
#1465=DIRECTION('center_axis',(0.,0.,1.));
#1466=DIRECTION('ref_axis',(0.707106781186547,0.707106781186548,0.));
#1467=DIRECTION('center_axis',(0.,0.,1.));
#1468=DIRECTION('ref_axis',(1.,0.,0.));
#1469=DIRECTION('',(0.,0.,-1.));
#1470=DIRECTION('center_axis',(0.,0.,-1.));
#1471=DIRECTION('ref_axis',(1.,0.,0.));
#1472=DIRECTION('',(0.,0.,-1.));
#1473=DIRECTION('center_axis',(1.,0.,0.));
#1474=DIRECTION('ref_axis',(0.,0.,-1.));
#1475=DIRECTION('',(0.,0.,-1.));
#1476=DIRECTION('',(0.,1.,0.));
#1477=DIRECTION('center_axis',(0.,0.,1.));
#1478=DIRECTION('ref_axis',(1.,0.,0.));
#1479=DIRECTION('',(0.,0.,-1.));
#1480=DIRECTION('center_axis',(0.,0.,-1.));
#1481=DIRECTION('ref_axis',(1.,0.,0.));
#1482=DIRECTION('center_axis',(0.,-1.,0.));
#1483=DIRECTION('ref_axis',(0.,0.,-1.));
#1484=DIRECTION('',(0.,0.,-1.));
#1485=DIRECTION('',(1.,0.,0.));
#1486=DIRECTION('center_axis',(0.,0.,1.));
#1487=DIRECTION('ref_axis',(1.,0.,0.));
#1488=DIRECTION('center_axis',(0.,0.,1.));
#1489=DIRECTION('ref_axis',(-0.707106781186547,-0.707106781186547,0.));
#1490=DIRECTION('',(0.,-1.,0.));
#1491=DIRECTION('center_axis',(0.,0.,1.));
#1492=DIRECTION('ref_axis',(-0.707106781186547,0.707106781186547,0.));
#1493=DIRECTION('',(-1.,0.,0.));
#1494=DIRECTION('center_axis',(0.,0.,1.));
#1495=DIRECTION('ref_axis',(0.707106781186547,0.707106781186547,0.));
#1496=DIRECTION('',(0.,1.,0.));
#1497=DIRECTION('center_axis',(0.,0.,1.));
#1498=DIRECTION('ref_axis',(0.707106781186547,-0.707106781186547,0.));
#1499=DIRECTION('',(1.,0.,0.));
#1500=DIRECTION('center_axis',(0.,0.,-1.));
#1501=DIRECTION('ref_axis',(-1.,0.,0.));
#1502=DIRECTION('center_axis',(-1.,0.,0.));
#1503=DIRECTION('ref_axis',(0.,0.,1.));
#1504=DIRECTION('center_axis',(0.,0.,-1.));
#1505=DIRECTION('ref_axis',(-0.707106781186548,-0.707106781186548,0.));
#1506=DIRECTION('center_axis',(0.,-1.,0.));
#1507=DIRECTION('ref_axis',(1.,0.,0.));
#1508=DIRECTION('center_axis',(0.,1.,0.));
#1509=DIRECTION('ref_axis',(0.707106781186548,0.,0.707106781186548));
#1510=DIRECTION('center_axis',(0.,-1.,0.));
#1511=DIRECTION('ref_axis',(1.,0.,0.));
#1512=DIRECTION('',(0.,1.,0.));
#1513=DIRECTION('center_axis',(0.,0.,-1.));
#1514=DIRECTION('ref_axis',(-1.,0.,0.));
#1515=DIRECTION('center_axis',(-1.,0.,0.));
#1516=DIRECTION('ref_axis',(0.,-1.,0.));
#1517=DIRECTION('center_axis',(0.,0.,-1.));
#1518=DIRECTION('ref_axis',(-0.707106781186548,0.707106781186548,0.));
#1519=DIRECTION('center_axis',(1.,0.,0.));
#1520=DIRECTION('ref_axis',(0.,-0.707106781186548,0.707106781186548));
#1521=DIRECTION('center_axis',(-1.,0.,0.));
#1522=DIRECTION('ref_axis',(0.,-1.,0.));
#1523=DIRECTION('',(1.,0.,0.));
#1524=DIRECTION('center_axis',(0.,0.,-1.));
#1525=DIRECTION('ref_axis',(-1.,0.,0.));
#1526=DIRECTION('center_axis',(0.,1.,0.));
#1527=DIRECTION('ref_axis',(-1.,0.,0.));
#1528=DIRECTION('center_axis',(0.,0.,-1.));
#1529=DIRECTION('ref_axis',(0.707106781186548,0.707106781186548,0.));
#1530=DIRECTION('center_axis',(0.,-1.,0.));
#1531=DIRECTION('ref_axis',(-0.707106781186548,0.,0.707106781186548));
#1532=DIRECTION('center_axis',(0.,1.,0.));
#1533=DIRECTION('ref_axis',(-1.,0.,0.));
#1534=DIRECTION('',(0.,-1.,0.));
#1535=DIRECTION('center_axis',(0.,0.,-1.));
#1536=DIRECTION('ref_axis',(-1.,0.,0.));
#1537=DIRECTION('center_axis',(1.,0.,0.));
#1538=DIRECTION('ref_axis',(0.,1.,0.));
#1539=DIRECTION('center_axis',(0.,0.,-1.));
#1540=DIRECTION('ref_axis',(0.707106781186548,-0.707106781186548,0.));
#1541=DIRECTION('center_axis',(-1.,0.,0.));
#1542=DIRECTION('ref_axis',(0.,0.707106781186548,0.707106781186548));
#1543=DIRECTION('',(-1.,0.,0.));
#1544=DIRECTION('center_axis',(0.,-1.,0.));
#1545=DIRECTION('ref_axis',(0.,0.,-1.));
#1546=DIRECTION('',(0.,0.,-1.));
#1547=DIRECTION('',(1.,0.,0.));
#1548=DIRECTION('',(0.,0.,-1.));
#1549=DIRECTION('',(0.,0.,-1.));
#1550=DIRECTION('',(1.,0.,0.));
#1551=DIRECTION('',(0.,0.,-1.));
#1552=DIRECTION('center_axis',(0.,0.,1.));
#1553=DIRECTION('ref_axis',(1.,0.,0.));
#1554=DIRECTION('',(0.,0.,-1.));
#1555=DIRECTION('center_axis',(0.,0.,1.));
#1556=DIRECTION('ref_axis',(1.,0.,0.));
#1557=DIRECTION('center_axis',(1.,0.,0.));
#1558=DIRECTION('ref_axis',(0.,0.,-1.));
#1559=DIRECTION('',(0.,0.,-1.));
#1560=DIRECTION('',(0.,-1.,0.));
#1561=DIRECTION('center_axis',(0.,0.,1.));
#1562=DIRECTION('ref_axis',(1.,0.,0.));
#1563=DIRECTION('',(0.,0.,-1.));
#1564=DIRECTION('center_axis',(0.,0.,1.));
#1565=DIRECTION('ref_axis',(1.,0.,0.));
#1566=DIRECTION('center_axis',(0.,0.,1.));
#1567=DIRECTION('ref_axis',(1.,0.,0.));
#1568=DIRECTION('center_axis',(0.,0.,-1.));
#1569=DIRECTION('ref_axis',(1.,0.,0.));
#1570=DIRECTION('',(0.,0.,-1.));
#1571=DIRECTION('center_axis',(-1.,0.,0.));
#1572=DIRECTION('ref_axis',(0.,0.,1.));
#1573=DIRECTION('',(0.,-1.,0.));
#1574=DIRECTION('',(0.,0.,-1.));
#1575=DIRECTION('center_axis',(0.,0.,1.));
#1576=DIRECTION('ref_axis',(1.,0.,0.));
#1577=DIRECTION('center_axis',(0.,0.,-1.));
#1578=DIRECTION('ref_axis',(1.,0.,0.));
#1579=DIRECTION('',(0.,0.,-1.));
#1580=DIRECTION('center_axis',(0.,0.,1.));
#1581=DIRECTION('ref_axis',(1.,0.,0.));
#1582=DIRECTION('center_axis',(0.,0.,-1.));
#1583=DIRECTION('ref_axis',(1.,0.,0.));
#1584=DIRECTION('',(0.,0.,-1.));
#1585=DIRECTION('center_axis',(0.,0.,1.));
#1586=DIRECTION('ref_axis',(1.,0.,0.));
#1587=DIRECTION('center_axis',(0.,0.,-1.));
#1588=DIRECTION('ref_axis',(1.,0.,0.));
#1589=DIRECTION('',(0.,0.,-1.));
#1590=DIRECTION('',(0.,0.,-1.));
#1591=DIRECTION('center_axis',(1.,0.,0.));
#1592=DIRECTION('ref_axis',(0.,0.,-1.));
#1593=DIRECTION('',(0.,1.,0.));
#1594=DIRECTION('center_axis',(0.,0.,1.));
#1595=DIRECTION('ref_axis',(1.,0.,0.));
#1596=DIRECTION('',(0.,0.,-1.));
#1597=DIRECTION('center_axis',(0.,0.,1.));
#1598=DIRECTION('ref_axis',(1.,0.,0.));
#1599=DIRECTION('center_axis',(0.,0.,1.));
#1600=DIRECTION('ref_axis',(1.,0.,0.));
#1601=DIRECTION('',(0.,0.,-1.));
#1602=DIRECTION('center_axis',(0.,0.,1.));
#1603=DIRECTION('ref_axis',(1.,0.,0.));
#1604=DIRECTION('',(0.,0.,-1.));
#1605=DIRECTION('center_axis',(1.,0.,0.));
#1606=DIRECTION('ref_axis',(0.,0.,-1.));
#1607=DIRECTION('',(0.,-1.,0.));
#1608=DIRECTION('center_axis',(0.,-1.,0.));
#1609=DIRECTION('ref_axis',(0.,0.,-1.));
#1610=DIRECTION('',(-1.,0.,0.));
#1611=DIRECTION('center_axis',(0.,0.,1.));
#1612=DIRECTION('ref_axis',(1.,0.,0.));
#1613=DIRECTION('',(-1.,0.,0.));
#1614=DIRECTION('center_axis',(0.,0.,1.));
#1615=DIRECTION('ref_axis',(1.,0.,0.));
#1616=DIRECTION('',(0.,-1.,0.));
#1617=DIRECTION('center_axis',(0.,0.,-1.));
#1618=DIRECTION('ref_axis',(1.,0.,0.));
#1619=DIRECTION('',(-1.,0.,0.));
#1620=DIRECTION('center_axis',(0.,0.,-1.));
#1621=DIRECTION('ref_axis',(1.,0.,0.));
#1622=DIRECTION('',(1.,0.,0.));
#1623=DIRECTION('',(0.,1.,0.));
#1624=DIRECTION('',(-1.,0.,0.));
#1625=DIRECTION('',(0.,-1.,0.));
#1626=DIRECTION('',(1.,0.,0.));
#1627=DIRECTION('',(0.,1.,0.));
#1628=DIRECTION('',(-1.,0.,0.));
#1629=DIRECTION('',(0.,-1.,0.));
#1630=DIRECTION('center_axis',(0.,-1.,0.));
#1631=DIRECTION('ref_axis',(0.,0.,-1.));
#1632=DIRECTION('',(0.,0.,-1.));
#1633=DIRECTION('',(-1.,0.,0.));
#1634=DIRECTION('',(0.,0.,-1.));
#1635=DIRECTION('center_axis',(1.,0.,0.));
#1636=DIRECTION('ref_axis',(0.,0.,-1.));
#1637=DIRECTION('',(0.,-1.,0.));
#1638=DIRECTION('',(0.,0.,-1.));
#1639=DIRECTION('center_axis',(0.,0.,1.));
#1640=DIRECTION('ref_axis',(1.,0.,0.));
#1641=DIRECTION('',(0.,1.,0.));
#1642=DIRECTION('',(1.,0.,0.));
#1643=DIRECTION('center_axis',(0.,1.,0.));
#1644=DIRECTION('ref_axis',(0.,0.,1.));
#1645=DIRECTION('',(0.,0.,-1.));
#1646=DIRECTION('center_axis',(-1.,0.,0.));
#1647=DIRECTION('ref_axis',(0.,0.,1.));
#1648=DIRECTION('center_axis',(0.,-1.,0.));
#1649=DIRECTION('ref_axis',(0.,0.,-1.));
#1650=DIRECTION('',(0.,0.,-1.));
#1651=DIRECTION('',(-1.,0.,0.));
#1652=DIRECTION('',(0.,0.,-1.));
#1653=DIRECTION('center_axis',(1.,0.,0.));
#1654=DIRECTION('ref_axis',(0.,0.,-1.));
#1655=DIRECTION('',(0.,-1.,0.));
#1656=DIRECTION('',(0.,0.,-1.));
#1657=DIRECTION('center_axis',(0.,0.,1.));
#1658=DIRECTION('ref_axis',(1.,0.,0.));
#1659=DIRECTION('',(0.,1.,0.));
#1660=DIRECTION('',(1.,0.,0.));
#1661=DIRECTION('center_axis',(0.,1.,0.));
#1662=DIRECTION('ref_axis',(0.,0.,1.));
#1663=DIRECTION('',(0.,0.,-1.));
#1664=DIRECTION('center_axis',(-1.,0.,0.));
#1665=DIRECTION('ref_axis',(0.,0.,1.));
#1666=DIRECTION('center_axis',(0.,0.,1.));
#1667=DIRECTION('ref_axis',(1.,0.,0.));
#1668=DIRECTION('center_axis',(0.,0.,1.));
#1669=DIRECTION('ref_axis',(1.,0.,0.));
#1670=DIRECTION('',(0.,0.,-1.));
#1671=DIRECTION('center_axis',(-1.,0.,0.));
#1672=DIRECTION('ref_axis',(0.,0.,1.));
#1673=DIRECTION('',(0.,1.,0.));
#1674=DIRECTION('',(0.,0.,-1.));
#1675=DIRECTION('center_axis',(0.,0.,1.));
#1676=DIRECTION('ref_axis',(1.,0.,0.));
#1677=DIRECTION('center_axis',(0.,0.,1.));
#1678=DIRECTION('ref_axis',(1.,0.,0.));
#1679=DIRECTION('',(0.,0.,-1.));
#1680=DIRECTION('center_axis',(0.,1.,0.));
#1681=DIRECTION('ref_axis',(0.,0.,1.));
#1682=DIRECTION('',(-1.,0.,0.));
#1683=DIRECTION('center_axis',(0.,0.,1.));
#1684=DIRECTION('ref_axis',(1.,0.,0.));
#1685=DIRECTION('',(0.,0.,-1.));
#1686=DIRECTION('center_axis',(0.,0.,1.));
#1687=DIRECTION('ref_axis',(1.,0.,0.));
#1688=DIRECTION('',(0.,0.,-1.));
#1689=DIRECTION('',(0.,0.,-1.));
#1690=DIRECTION('center_axis',(0.,0.,1.));
#1691=DIRECTION('ref_axis',(1.,0.,0.));
#1692=DIRECTION('center_axis',(-1.,0.,0.));
#1693=DIRECTION('ref_axis',(0.,0.,1.));
#1694=DIRECTION('center_axis',(0.,1.,0.));
#1695=DIRECTION('ref_axis',(0.,0.,1.));
#1696=CARTESIAN_POINT('',(0.,0.,0.));
#1697=CARTESIAN_POINT('Origin',(17.35,0.,0.3));
#1698=CARTESIAN_POINT('',(17.45,-6.9,0.4));
#1699=CARTESIAN_POINT('',(17.25,-6.9,0.2));
#1700=CARTESIAN_POINT('',(17.45,-6.9,0.4));
#1701=CARTESIAN_POINT('',(17.25,6.9,0.2));
#1702=CARTESIAN_POINT('',(17.25,0.,0.2));
#1703=CARTESIAN_POINT('',(17.45,6.9,0.4));
#1704=CARTESIAN_POINT('',(17.25,6.9,0.2));
#1705=CARTESIAN_POINT('',(17.45,0.,0.4));
#1706=CARTESIAN_POINT('Origin',(16.85,-6.9,0.3));
#1707=CARTESIAN_POINT('',(16.85,-7.5,0.4));
#1708=CARTESIAN_POINT('',(16.85,-7.3,0.2));
#1709=CARTESIAN_POINT('',(16.85,-7.5,0.4));
#1710=CARTESIAN_POINT('Origin',(16.85,-6.9,0.2));
#1711=CARTESIAN_POINT('Origin',(16.85,-6.9,0.4));
#1712=CARTESIAN_POINT('Origin',(0.,-7.4,0.3));
#1713=CARTESIAN_POINT('',(-16.85,-7.5,0.4));
#1714=CARTESIAN_POINT('',(-16.85,-7.3,0.2));
#1715=CARTESIAN_POINT('',(-16.85,-7.5,0.4));
#1716=CARTESIAN_POINT('',(0.,-7.3,0.2));
#1717=CARTESIAN_POINT('',(0.,-7.5,0.4));
#1718=CARTESIAN_POINT('Origin',(-16.85,-6.9,0.3));
#1719=CARTESIAN_POINT('',(-17.45,-6.9,0.4));
#1720=CARTESIAN_POINT('',(-17.25,-6.9,0.2));
#1721=CARTESIAN_POINT('',(-17.45,-6.9,0.4));
#1722=CARTESIAN_POINT('Origin',(-16.85,-6.9,0.2));
#1723=CARTESIAN_POINT('Origin',(-16.85,-6.9,0.4));
#1724=CARTESIAN_POINT('Origin',(-17.35,0.,0.3));
#1725=CARTESIAN_POINT('',(-17.45,6.9,0.4));
#1726=CARTESIAN_POINT('',(-17.25,6.9,0.2));
#1727=CARTESIAN_POINT('',(-17.45,6.9,0.4));
#1728=CARTESIAN_POINT('',(-17.25,0.,0.2));
#1729=CARTESIAN_POINT('',(-17.45,0.,0.4));
#1730=CARTESIAN_POINT('Origin',(-16.85,6.9,0.3));
#1731=CARTESIAN_POINT('',(-16.85,7.5,0.4));
#1732=CARTESIAN_POINT('',(-16.85,7.3,0.2));
#1733=CARTESIAN_POINT('',(-16.85,7.5,0.4));
#1734=CARTESIAN_POINT('Origin',(-16.85,6.9,0.2));
#1735=CARTESIAN_POINT('Origin',(-16.85,6.9,0.4));
#1736=CARTESIAN_POINT('Origin',(0.,7.4,0.3));
#1737=CARTESIAN_POINT('',(16.85,7.5,0.4));
#1738=CARTESIAN_POINT('',(16.85,7.3,0.2));
#1739=CARTESIAN_POINT('',(16.85,7.5,0.4));
#1740=CARTESIAN_POINT('',(0.,7.3,0.2));
#1741=CARTESIAN_POINT('',(0.,7.5,0.4));
#1742=CARTESIAN_POINT('Origin',(16.85,6.9,0.3));
#1743=CARTESIAN_POINT('Origin',(16.85,6.9,0.2));
#1744=CARTESIAN_POINT('Origin',(16.85,6.9,0.4));
#1745=CARTESIAN_POINT('Origin',(-16.85,-6.9,1.6));
#1746=CARTESIAN_POINT('',(-16.85,-7.5,3.));
#1747=CARTESIAN_POINT('',(-16.85,-7.5,1.6));
#1748=CARTESIAN_POINT('',(-17.45,-6.9,3.));
#1749=CARTESIAN_POINT('Origin',(-16.85,-6.9,3.));
#1750=CARTESIAN_POINT('',(-17.45,-6.9,1.6));
#1751=CARTESIAN_POINT('Origin',(0.,-7.5,1.6));
#1752=CARTESIAN_POINT('',(16.85,-7.5,3.));
#1753=CARTESIAN_POINT('',(16.85,-7.5,1.6));
#1754=CARTESIAN_POINT('',(0.,-7.5,3.));
#1755=CARTESIAN_POINT('Origin',(16.85,-6.9,1.6));
#1756=CARTESIAN_POINT('',(17.45,-6.9,3.));
#1757=CARTESIAN_POINT('',(17.45,-6.9,1.6));
#1758=CARTESIAN_POINT('Origin',(16.85,-6.9,3.));
#1759=CARTESIAN_POINT('Origin',(17.45,0.,1.6));
#1760=CARTESIAN_POINT('',(17.45,6.9,3.));
#1761=CARTESIAN_POINT('',(17.45,6.9,1.6));
#1762=CARTESIAN_POINT('',(17.45,0.,3.));
#1763=CARTESIAN_POINT('Origin',(0.,0.,0.2));
#1764=CARTESIAN_POINT('',(-17.05,-6.9,0.2));
#1765=CARTESIAN_POINT('',(-16.85,-7.1,0.2));
#1766=CARTESIAN_POINT('Origin',(-16.85,-6.9,0.2));
#1767=CARTESIAN_POINT('',(16.85,-7.1,0.2));
#1768=CARTESIAN_POINT('',(0.,-7.1,0.2));
#1769=CARTESIAN_POINT('',(17.05,-6.9,0.2));
#1770=CARTESIAN_POINT('Origin',(16.85,-6.9,0.2));
#1771=CARTESIAN_POINT('',(17.05,6.9,0.2));
#1772=CARTESIAN_POINT('',(17.05,0.,0.2));
#1773=CARTESIAN_POINT('',(16.85,7.1,0.2));
#1774=CARTESIAN_POINT('Origin',(16.85,6.9,0.2));
#1775=CARTESIAN_POINT('',(-16.85,7.1,0.2));
#1776=CARTESIAN_POINT('',(0.,7.1,0.2));
#1777=CARTESIAN_POINT('',(-17.05,6.9,0.2));
#1778=CARTESIAN_POINT('Origin',(-16.85,6.9,0.2));
#1779=CARTESIAN_POINT('',(-17.05,0.,0.2));
#1780=CARTESIAN_POINT('Origin',(0.,9.75,3.8));
#1781=CARTESIAN_POINT('',(18.,9.75,4.2));
#1782=CARTESIAN_POINT('',(18.,10.15,3.8));
#1783=CARTESIAN_POINT('Origin',(18.,9.75,3.8));
#1784=CARTESIAN_POINT('',(-18.,10.15,3.8));
#1785=CARTESIAN_POINT('',(0.,10.15,3.8));
#1786=CARTESIAN_POINT('',(-18.,9.75,4.2));
#1787=CARTESIAN_POINT('Origin',(-18.,9.75,3.8));
#1788=CARTESIAN_POINT('',(0.,9.75,4.2));
#1789=CARTESIAN_POINT('Origin',(-18.,8.15,3.8));
#1790=CARTESIAN_POINT('',(-20.,8.15,3.8));
#1791=CARTESIAN_POINT('',(-19.6,8.15,4.2));
#1792=CARTESIAN_POINT('Origin',(-19.6,8.15,3.8));
#1793=CARTESIAN_POINT('Origin',(-18.,8.15,4.2));
#1794=CARTESIAN_POINT('Origin',(-18.,8.15,3.8));
#1795=CARTESIAN_POINT('Origin',(-19.6,0.,3.8));
#1796=CARTESIAN_POINT('',(-20.,-8.15,3.8));
#1797=CARTESIAN_POINT('',(-19.6,-8.15,4.2));
#1798=CARTESIAN_POINT('Origin',(-19.6,-8.15,3.8));
#1799=CARTESIAN_POINT('',(-19.6,0.,4.2));
#1800=CARTESIAN_POINT('',(-20.,0.,3.8));
#1801=CARTESIAN_POINT('Origin',(-18.,-8.15,3.8));
#1802=CARTESIAN_POINT('',(-18.,-10.15,3.8));
#1803=CARTESIAN_POINT('',(-18.,-9.75,4.2));
#1804=CARTESIAN_POINT('Origin',(-18.,-9.75,3.8));
#1805=CARTESIAN_POINT('Origin',(-18.,-8.15,4.2));
#1806=CARTESIAN_POINT('Origin',(-18.,-8.15,3.8));
#1807=CARTESIAN_POINT('Origin',(0.,-9.75,3.8));
#1808=CARTESIAN_POINT('',(18.,-10.15,3.8));
#1809=CARTESIAN_POINT('',(18.,-9.75,4.2));
#1810=CARTESIAN_POINT('Origin',(18.,-9.75,3.8));
#1811=CARTESIAN_POINT('',(0.,-9.75,4.2));
#1812=CARTESIAN_POINT('',(0.,-10.15,3.8));
#1813=CARTESIAN_POINT('Origin',(18.,-8.15,3.8));
#1814=CARTESIAN_POINT('',(20.,-8.15,3.8));
#1815=CARTESIAN_POINT('',(19.6,-8.15,4.2));
#1816=CARTESIAN_POINT('Origin',(19.6,-8.15,3.8));
#1817=CARTESIAN_POINT('Origin',(18.,-8.15,4.2));
#1818=CARTESIAN_POINT('Origin',(18.,-8.15,3.8));
#1819=CARTESIAN_POINT('Origin',(19.6,0.,3.8));
#1820=CARTESIAN_POINT('',(20.,8.15,3.8));
#1821=CARTESIAN_POINT('',(19.6,8.15,4.2));
#1822=CARTESIAN_POINT('Origin',(19.6,8.15,3.8));
#1823=CARTESIAN_POINT('',(19.6,0.,4.2));
#1824=CARTESIAN_POINT('',(20.,0.,3.8));
#1825=CARTESIAN_POINT('Origin',(18.,8.15,3.8));
#1826=CARTESIAN_POINT('Origin',(18.,8.15,4.2));
#1827=CARTESIAN_POINT('Origin',(18.,8.15,3.8));
#1828=CARTESIAN_POINT('Origin',(-18.,-8.15,3.6));
#1829=CARTESIAN_POINT('',(-20.,-8.15,3.));
#1830=CARTESIAN_POINT('',(-20.,-8.15,3.6));
#1831=CARTESIAN_POINT('',(-18.,-10.15,3.));
#1832=CARTESIAN_POINT('Origin',(-18.,-8.15,3.));
#1833=CARTESIAN_POINT('',(-18.,-10.15,3.6));
#1834=CARTESIAN_POINT('Origin',(-20.,0.,3.6));
#1835=CARTESIAN_POINT('',(-20.,8.15,3.));
#1836=CARTESIAN_POINT('',(-20.,8.15,3.6));
#1837=CARTESIAN_POINT('',(-20.,0.,3.));
#1838=CARTESIAN_POINT('Origin',(-18.,8.15,3.6));
#1839=CARTESIAN_POINT('',(-18.,10.15,3.));
#1840=CARTESIAN_POINT('',(-18.,10.15,3.6));
#1841=CARTESIAN_POINT('Origin',(-18.,8.15,3.));
#1842=CARTESIAN_POINT('Origin',(0.,10.15,3.6));
#1843=CARTESIAN_POINT('',(18.,10.15,3.));
#1844=CARTESIAN_POINT('',(18.,10.15,3.6));
#1845=CARTESIAN_POINT('',(0.,10.15,3.));
#1846=CARTESIAN_POINT('Origin',(0.,0.,4.2));
#1847=CARTESIAN_POINT('',(-15.6,-6.3,4.2));
#1848=CARTESIAN_POINT('',(-14.4,-7.5,4.2));
#1849=CARTESIAN_POINT('Origin',(-14.4,-6.3,4.2));
#1850=CARTESIAN_POINT('',(-15.6,6.3,4.2));
#1851=CARTESIAN_POINT('',(-15.6,0.,4.2));
#1852=CARTESIAN_POINT('',(-14.4,7.5,4.2));
#1853=CARTESIAN_POINT('Origin',(-14.4,6.3,4.2));
#1854=CARTESIAN_POINT('',(14.4,7.5,4.2));
#1855=CARTESIAN_POINT('',(0.,7.5,4.2));
#1856=CARTESIAN_POINT('',(15.6,6.3,4.2));
#1857=CARTESIAN_POINT('Origin',(14.4,6.3,4.2));
#1858=CARTESIAN_POINT('',(15.6,-6.3,4.2));
#1859=CARTESIAN_POINT('',(15.6,0.,4.2));
#1860=CARTESIAN_POINT('',(14.4,-7.5,4.2));
#1861=CARTESIAN_POINT('Origin',(14.4,-6.3,4.2));
#1862=CARTESIAN_POINT('',(0.,-7.5,4.2));
#1863=CARTESIAN_POINT('Origin',(-14.4,-6.3,3.8));
#1864=CARTESIAN_POINT('',(-14.4,-7.1,3.8));
#1865=CARTESIAN_POINT('Origin',(-14.4,-7.5,3.8));
#1866=CARTESIAN_POINT('',(-15.2,-6.3,3.8));
#1867=CARTESIAN_POINT('Origin',(-14.4,-6.3,3.8));
#1868=CARTESIAN_POINT('Origin',(-15.6,-6.3,3.8));
#1869=CARTESIAN_POINT('Origin',(-15.6,0.,3.8));
#1870=CARTESIAN_POINT('',(-15.2,6.3,3.8));
#1871=CARTESIAN_POINT('Origin',(-15.6,6.3,3.8));
#1872=CARTESIAN_POINT('',(-15.2,0.,3.8));
#1873=CARTESIAN_POINT('Origin',(-14.4,6.3,3.8));
#1874=CARTESIAN_POINT('',(-14.4,7.1,3.8));
#1875=CARTESIAN_POINT('Origin',(-14.4,7.5,3.8));
#1876=CARTESIAN_POINT('Origin',(-14.4,6.3,3.8));
#1877=CARTESIAN_POINT('Origin',(0.,7.5,3.8));
#1878=CARTESIAN_POINT('',(14.4,7.1,3.8));
#1879=CARTESIAN_POINT('Origin',(14.4,7.5,3.8));
#1880=CARTESIAN_POINT('',(0.,7.1,3.8));
#1881=CARTESIAN_POINT('Origin',(14.4,6.3,3.8));
#1882=CARTESIAN_POINT('',(15.2,6.3,3.8));
#1883=CARTESIAN_POINT('Origin',(15.6,6.3,3.8));
#1884=CARTESIAN_POINT('Origin',(14.4,6.3,3.8));
#1885=CARTESIAN_POINT('Origin',(15.6,0.,3.8));
#1886=CARTESIAN_POINT('',(15.2,-6.3,3.8));
#1887=CARTESIAN_POINT('Origin',(15.6,-6.3,3.8));
#1888=CARTESIAN_POINT('',(15.2,0.,3.8));
#1889=CARTESIAN_POINT('Origin',(14.4,-6.3,3.8));
#1890=CARTESIAN_POINT('',(14.4,-7.1,3.8));
#1891=CARTESIAN_POINT('Origin',(14.4,-7.5,3.8));
#1892=CARTESIAN_POINT('Origin',(14.4,-6.3,3.8));
#1893=CARTESIAN_POINT('Origin',(0.,-7.5,3.8));
#1894=CARTESIAN_POINT('',(0.,-7.1,3.8));
#1895=CARTESIAN_POINT('Origin',(0.,7.1,3.6));
#1896=CARTESIAN_POINT('',(-14.4,7.1,3.));
#1897=CARTESIAN_POINT('',(-14.4,7.1,3.6));
#1898=CARTESIAN_POINT('',(-16.85,7.1,3.));
#1899=CARTESIAN_POINT('',(0.,7.1,3.));
#1900=CARTESIAN_POINT('',(-16.85,7.1,1.6));
#1901=CARTESIAN_POINT('',(16.85,7.1,3.));
#1902=CARTESIAN_POINT('',(16.85,7.1,1.6));
#1903=CARTESIAN_POINT('',(14.4,7.1,3.));
#1904=CARTESIAN_POINT('',(0.,7.1,3.));
#1905=CARTESIAN_POINT('',(14.4,7.1,3.6));
#1906=CARTESIAN_POINT('Origin',(-14.4,6.3,3.6));
#1907=CARTESIAN_POINT('',(-15.2,6.3,3.));
#1908=CARTESIAN_POINT('',(-15.2,6.3,3.6));
#1909=CARTESIAN_POINT('Origin',(-14.4,6.3,3.));
#1910=CARTESIAN_POINT('Origin',(-15.2,0.,3.6));
#1911=CARTESIAN_POINT('',(-15.2,-6.3,3.));
#1912=CARTESIAN_POINT('',(-15.2,-6.3,3.6));
#1913=CARTESIAN_POINT('',(-15.2,0.,3.));
#1914=CARTESIAN_POINT('Origin',(-14.4,-6.3,3.6));
#1915=CARTESIAN_POINT('',(-14.4,-7.1,3.));
#1916=CARTESIAN_POINT('',(-14.4,-7.1,3.6));
#1917=CARTESIAN_POINT('Origin',(-14.4,-6.3,3.));
#1918=CARTESIAN_POINT('Origin',(16.85,6.9,1.6));
#1919=CARTESIAN_POINT('',(17.05,6.9,3.));
#1920=CARTESIAN_POINT('Origin',(16.85,6.9,3.));
#1921=CARTESIAN_POINT('',(17.05,6.9,1.6));
#1922=CARTESIAN_POINT('Origin',(17.05,0.,1.6));
#1923=CARTESIAN_POINT('',(17.05,-6.9,3.));
#1924=CARTESIAN_POINT('',(17.05,0.,3.));
#1925=CARTESIAN_POINT('',(17.05,-6.9,1.6));
#1926=CARTESIAN_POINT('Origin',(16.85,-6.9,1.6));
#1927=CARTESIAN_POINT('',(16.85,-7.1,3.));
#1928=CARTESIAN_POINT('Origin',(16.85,-6.9,3.));
#1929=CARTESIAN_POINT('',(16.85,-7.1,1.6));
#1930=CARTESIAN_POINT('Origin',(-16.85,6.9,1.6));
#1931=CARTESIAN_POINT('',(-17.05,6.9,3.));
#1932=CARTESIAN_POINT('Origin',(-16.85,6.9,3.));
#1933=CARTESIAN_POINT('',(-17.05,6.9,1.6));
#1934=CARTESIAN_POINT('Origin',(-16.85,-6.9,1.6));
#1935=CARTESIAN_POINT('',(-16.85,-7.1,3.));
#1936=CARTESIAN_POINT('',(-17.05,-6.9,3.));
#1937=CARTESIAN_POINT('Origin',(-16.85,-6.9,3.));
#1938=CARTESIAN_POINT('',(-16.85,-7.1,1.6));
#1939=CARTESIAN_POINT('',(-17.05,-6.9,1.6));
#1940=CARTESIAN_POINT('Origin',(-17.05,0.,1.6));
#1941=CARTESIAN_POINT('',(-17.05,0.,3.));
#1942=CARTESIAN_POINT('Origin',(16.85,6.9,1.6));
#1943=CARTESIAN_POINT('',(16.85,7.5,3.));
#1944=CARTESIAN_POINT('',(16.85,7.5,1.6));
#1945=CARTESIAN_POINT('Origin',(16.85,6.9,3.));
#1946=CARTESIAN_POINT('Origin',(-16.85,6.9,1.6));
#1947=CARTESIAN_POINT('',(-17.45,6.9,3.));
#1948=CARTESIAN_POINT('',(-17.45,6.9,1.6));
#1949=CARTESIAN_POINT('',(-16.85,7.5,3.));
#1950=CARTESIAN_POINT('Origin',(-16.85,6.9,3.));
#1951=CARTESIAN_POINT('',(-16.85,7.5,1.6));
#1952=CARTESIAN_POINT('Origin',(-17.45,0.,1.6));
#1953=CARTESIAN_POINT('',(-17.45,0.,3.));
#1954=CARTESIAN_POINT('Origin',(0.,7.5,1.6));
#1955=CARTESIAN_POINT('',(0.,7.5,3.));
#1956=CARTESIAN_POINT('Origin',(0.,0.,3.));
#1957=CARTESIAN_POINT('',(0.,-7.1,3.));
#1958=CARTESIAN_POINT('Origin',(0.,0.,3.));
#1959=CARTESIAN_POINT('',(20.,8.15,3.));
#1960=CARTESIAN_POINT('',(20.,-8.15,3.));
#1961=CARTESIAN_POINT('',(20.,0.,3.));
#1962=CARTESIAN_POINT('',(18.,-10.15,3.));
#1963=CARTESIAN_POINT('Origin',(18.,-8.15,3.));
#1964=CARTESIAN_POINT('',(0.,-10.15,3.));
#1965=CARTESIAN_POINT('Origin',(18.,8.15,3.));
#1966=CARTESIAN_POINT('',(-12.,7.85,3.));
#1967=CARTESIAN_POINT('',(12.,7.85,3.));
#1968=CARTESIAN_POINT('',(0.,7.85,3.));
#1969=CARTESIAN_POINT('',(12.,9.85,3.));
#1970=CARTESIAN_POINT('',(12.,4.425,3.));
#1971=CARTESIAN_POINT('',(-12.,9.85,3.));
#1972=CARTESIAN_POINT('',(0.,9.85,3.));
#1973=CARTESIAN_POINT('',(-12.,4.425,3.));
#1974=CARTESIAN_POINT('',(-12.,-9.85,3.));
#1975=CARTESIAN_POINT('',(12.,-9.85,3.));
#1976=CARTESIAN_POINT('',(0.,-9.85,3.));
#1977=CARTESIAN_POINT('',(12.,-7.85,3.));
#1978=CARTESIAN_POINT('',(12.,-4.425,3.));
#1979=CARTESIAN_POINT('',(-12.,-7.85,3.));
#1980=CARTESIAN_POINT('',(0.,-7.85,3.));
#1981=CARTESIAN_POINT('',(-12.,-4.425,3.));
#1982=CARTESIAN_POINT('Origin',(0.,-7.85,2.9));
#1983=CARTESIAN_POINT('',(12.,-7.85,3.3));
#1984=CARTESIAN_POINT('',(12.,-7.85,2.9));
#1985=CARTESIAN_POINT('',(-12.,-7.85,3.3));
#1986=CARTESIAN_POINT('',(0.,-7.85,3.3));
#1987=CARTESIAN_POINT('',(-12.,-7.85,2.9));
#1988=CARTESIAN_POINT('Origin',(-12.,-8.85,2.9));
#1989=CARTESIAN_POINT('',(-12.,-9.85,3.3));
#1990=CARTESIAN_POINT('',(-12.,-8.85,3.3));
#1991=CARTESIAN_POINT('',(-12.,-9.85,2.9));
#1992=CARTESIAN_POINT('Origin',(0.,-8.85,3.3));
#1993=CARTESIAN_POINT('',(12.,-9.85,3.3));
#1994=CARTESIAN_POINT('',(12.,-8.85,3.3));
#1995=CARTESIAN_POINT('',(0.,-9.85,3.3));
#1996=CARTESIAN_POINT('Origin',(0.,-9.85,2.9));
#1997=CARTESIAN_POINT('',(12.,-9.85,2.9));
#1998=CARTESIAN_POINT('Origin',(12.,-8.85,2.9));
#1999=CARTESIAN_POINT('Origin',(0.,9.85,2.9));
#2000=CARTESIAN_POINT('',(12.,9.85,3.3));
#2001=CARTESIAN_POINT('',(12.,9.85,2.9));
#2002=CARTESIAN_POINT('',(-12.,9.85,3.3));
#2003=CARTESIAN_POINT('',(0.,9.85,3.3));
#2004=CARTESIAN_POINT('',(-12.,9.85,2.9));
#2005=CARTESIAN_POINT('Origin',(-12.,8.85,2.9));
#2006=CARTESIAN_POINT('',(-12.,7.85,3.3));
#2007=CARTESIAN_POINT('',(-12.,8.85,3.3));
#2008=CARTESIAN_POINT('',(-12.,7.85,2.9));
#2009=CARTESIAN_POINT('Origin',(0.,8.85,3.3));
#2010=CARTESIAN_POINT('',(12.,7.85,3.3));
#2011=CARTESIAN_POINT('',(12.,8.85,3.3));
#2012=CARTESIAN_POINT('',(0.,7.85,3.3));
#2013=CARTESIAN_POINT('Origin',(0.,7.85,2.9));
#2014=CARTESIAN_POINT('',(12.,7.85,2.9));
#2015=CARTESIAN_POINT('Origin',(12.,8.85,2.9));
#2016=CARTESIAN_POINT('Origin',(14.4,6.3,3.6));
#2017=CARTESIAN_POINT('',(15.2,6.3,3.));
#2018=CARTESIAN_POINT('Origin',(14.4,6.3,3.));
#2019=CARTESIAN_POINT('',(15.2,6.3,3.6));
#2020=CARTESIAN_POINT('Origin',(15.2,0.,3.6));
#2021=CARTESIAN_POINT('',(15.2,-6.3,3.));
#2022=CARTESIAN_POINT('',(15.2,0.,3.));
#2023=CARTESIAN_POINT('',(15.2,-6.3,3.6));
#2024=CARTESIAN_POINT('Origin',(14.4,-6.3,3.6));
#2025=CARTESIAN_POINT('',(14.4,-7.1,3.));
#2026=CARTESIAN_POINT('Origin',(14.4,-6.3,3.));
#2027=CARTESIAN_POINT('',(14.4,-7.1,3.6));
#2028=CARTESIAN_POINT('Origin',(0.,-7.1,3.6));
#2029=CARTESIAN_POINT('',(0.,-7.1,3.));
#2030=CARTESIAN_POINT('Origin',(18.,8.15,3.6));
#2031=CARTESIAN_POINT('',(20.,8.15,3.6));
#2032=CARTESIAN_POINT('Origin',(18.,-8.15,3.6));
#2033=CARTESIAN_POINT('',(18.,-10.15,3.6));
#2034=CARTESIAN_POINT('',(20.,-8.15,3.6));
#2035=CARTESIAN_POINT('Origin',(0.,0.,3.));
#2036=CARTESIAN_POINT('Origin',(20.,0.,3.6));
#2037=CARTESIAN_POINT('Origin',(0.,-10.15,3.6));
#2038=UNCERTAINTY_MEASURE_WITH_UNIT(LENGTH_MEASURE(0.01),#2042,
'DISTANCE_ACCURACY_VALUE',
'Maximum model space distance between geometric entities at asserted c
onnectivities');
#2039=UNCERTAINTY_MEASURE_WITH_UNIT(LENGTH_MEASURE(0.01),#2042,
'DISTANCE_ACCURACY_VALUE',
'Maximum model space distance between geometric entities at asserted c
onnectivities');
#2040=(
GEOMETRIC_REPRESENTATION_CONTEXT(3)
GLOBAL_UNCERTAINTY_ASSIGNED_CONTEXT((#2038))
GLOBAL_UNIT_ASSIGNED_CONTEXT((#2042,#2044,#2045))
REPRESENTATION_CONTEXT('','3D')
);
#2041=(
GEOMETRIC_REPRESENTATION_CONTEXT(3)
GLOBAL_UNCERTAINTY_ASSIGNED_CONTEXT((#2039))
GLOBAL_UNIT_ASSIGNED_CONTEXT((#2042,#2044,#2045))
REPRESENTATION_CONTEXT('','3D')
);
#2042=(
LENGTH_UNIT()
NAMED_UNIT(*)
SI_UNIT(.MILLI.,.METRE.)
);
#2043=(
LENGTH_UNIT()
NAMED_UNIT(*)
SI_UNIT($,.METRE.)
);
#2044=(
NAMED_UNIT(*)
PLANE_ANGLE_UNIT()
SI_UNIT($,.RADIAN.)
);
#2045=(
NAMED_UNIT(*)
SI_UNIT($,.STERADIAN.)
SOLID_ANGLE_UNIT()
);
#2046=SHAPE_DEFINITION_REPRESENTATION(#2047,#2048);
#2047=PRODUCT_DEFINITION_SHAPE('',$,#2050);
#2048=SHAPE_REPRESENTATION('',(#1198),#2040);
#2049=PRODUCT_DEFINITION_CONTEXT('part definition',#2054,'design');
#2050=PRODUCT_DEFINITION('Front_Bezel_revQ','Front_Bezel_revQ',#2051,#2049);
#2051=PRODUCT_DEFINITION_FORMATION('',$,#2056);
#2052=PRODUCT_RELATED_PRODUCT_CATEGORY('Front_Bezel_revQ',
'Front_Bezel_revQ',(#2056));
#2053=APPLICATION_PROTOCOL_DEFINITION('international standard',
'automotive_design',2009,#2054);
#2054=APPLICATION_CONTEXT(
'Core Data for Automotive Mechanical Design Process');
#2055=PRODUCT_CONTEXT('part definition',#2054,'mechanical');
#2056=PRODUCT('Front_Bezel_revQ','Front_Bezel_revQ',$,(#2055));
#2057=PRESENTATION_STYLE_ASSIGNMENT((#2058));
#2058=SURFACE_STYLE_USAGE(.BOTH.,#2059);
#2059=SURFACE_SIDE_STYLE('',(#2060));
#2060=SURFACE_STYLE_FILL_AREA(#2061);
#2061=FILL_AREA_STYLE('Steel - Satin',(#2062));
#2062=FILL_AREA_STYLE_COLOUR('Steel - Satin',#2063);
#2063=COLOUR_RGB('Steel - Satin',0.627450980392157,0.627450980392157,0.627450980392157);
ENDSEC;
END-ISO-10303-21;
