ISO-10303-21;
HEADER;
/* Generated by software containing ST-Developer
 * from STEP Tools, Inc. (www.steptools.com) 
 */

FILE_DESCRIPTION(
/* description */ (''),
/* implementation_level */ '2;1');

FILE_NAME(
/* name */ 'Front_Bezel.step',
/* time_stamp */ '2026-08-27T21:13:06+01:00',
/* author */ (''),
/* organization */ (''),
/* preprocessor_version */ 'ST-DEVELOPER v20.1',
/* originating_system */ 'Autodesk Translation Framework v15.8.0.0',
/* authorisation */ '');

FILE_SCHEMA (('AUTOMOTIVE_DESIGN { 1 0 10303 214 3 1 1 }'));
ENDSEC;

DATA;
#10=MECHANICAL_DESIGN_GEOMETRIC_PRESENTATION_REPRESENTATION('',(#13),#2049);
#11=SHAPE_REPRESENTATION_RELATIONSHIP('SRR','None',#2056,#12);
#12=ADVANCED_BREP_SHAPE_REPRESENTATION('',(#14),#2048);
#13=STYLED_ITEM('',(#2066),#14);
#14=MANIFOLD_SOLID_BREP('Front_Bezel',#1215);
#15=CONICAL_SURFACE('',#1291,1.05,0.785398163397449);
#16=CONICAL_SURFACE('',#1294,1.05,0.785398163397448);
#17=CONICAL_SURFACE('',#1305,1.05,0.785398163397448);
#18=CONICAL_SURFACE('',#1307,1.05,0.785398163397449);
#19=(
BOUNDED_CURVE()
B_SPLINE_CURVE(2,(#1836,#1837,#1838),.UNSPECIFIED.,.F.,.F.)
B_SPLINE_CURVE_WITH_KNOTS((3,3),(0.0784167921015473,0.262678510731274),
 .UNSPECIFIED.)
CURVE()
GEOMETRIC_REPRESENTATION_ITEM()
RATIONAL_B_SPLINE_CURVE((1.47619047619048,1.93749999999999,1.93749999999999))
REPRESENTATION_ITEM('')
);
#20=(
BOUNDED_CURVE()
B_SPLINE_CURVE(2,(#1848,#1849,#1850),.UNSPECIFIED.,.F.,.F.)
B_SPLINE_CURVE_WITH_KNOTS((3,3),(0.258263431402895,0.432412525505465),
 .UNSPECIFIED.)
CURVE()
GEOMETRIC_REPRESENTATION_ITEM()
RATIONAL_B_SPLINE_CURVE((1.85294117647059,1.8529411764706,1.46511627906977))
REPRESENTATION_ITEM('')
);
#21=(
BOUNDED_CURVE()
B_SPLINE_CURVE(2,(#1931,#1932,#1933),.UNSPECIFIED.,.F.,.F.)
B_SPLINE_CURVE_WITH_KNOTS((3,3),(0.0784167921015473,0.262678510731274),
 .UNSPECIFIED.)
CURVE()
GEOMETRIC_REPRESENTATION_ITEM()
RATIONAL_B_SPLINE_CURVE((1.47619047619048,1.9375,1.93749999999999))
REPRESENTATION_ITEM('')
);
#22=(
BOUNDED_CURVE()
B_SPLINE_CURVE(2,(#1937,#1938,#1939),.UNSPECIFIED.,.F.,.F.)
B_SPLINE_CURVE_WITH_KNOTS((3,3),(0.258263431402899,0.432412525505467),
 .UNSPECIFIED.)
CURVE()
GEOMETRIC_REPRESENTATION_ITEM()
RATIONAL_B_SPLINE_CURVE((1.85294117647059,1.85294117647059,1.46511627906976))
REPRESENTATION_ITEM('')
);
#23=ELLIPSE('',#1285,1.13137084989848,0.8);
#24=ELLIPSE('',#1315,1.13137084989848,0.8);
#25=FACE_BOUND('',#412,.T.);
#26=FACE_BOUND('',#430,.T.);
#27=PLANE('',#1253);
#28=PLANE('',#1256);
#29=PLANE('',#1259);
#30=PLANE('',#1286);
#31=PLANE('',#1289);
#32=PLANE('',#1290);
#33=PLANE('',#1293);
#34=PLANE('',#1296);
#35=PLANE('',#1301);
#36=PLANE('',#1302);
#37=PLANE('',#1303);
#38=PLANE('',#1304);
#39=PLANE('',#1306);
#40=PLANE('',#1309);
#41=PLANE('',#1310);
#42=PLANE('',#1311);
#43=PLANE('',#1312);
#44=PLANE('',#1313);
#45=PLANE('',#1314);
#46=PLANE('',#1316);
#47=PLANE('',#1317);
#48=PLANE('',#1318);
#49=PLANE('',#1319);
#50=PLANE('',#1320);
#51=PLANE('',#1321);
#52=PLANE('',#1322);
#53=PLANE('',#1323);
#54=PLANE('',#1324);
#55=PLANE('',#1325);
#56=PLANE('',#1326);
#57=PLANE('',#1327);
#58=PLANE('',#1328);
#59=PLANE('',#1329);
#60=PLANE('',#1330);
#61=PLANE('',#1331);
#62=PLANE('',#1334);
#63=PLANE('',#1337);
#64=PLANE('',#1338);
#65=LINE('',#1701,#191);
#66=LINE('',#1702,#192);
#67=LINE('',#1713,#193);
#68=LINE('',#1714,#194);
#69=LINE('',#1725,#195);
#70=LINE('',#1726,#196);
#71=LINE('',#1734,#197);
#72=LINE('',#1735,#198);
#73=LINE('',#1738,#199);
#74=LINE('',#1740,#200);
#75=LINE('',#1741,#201);
#76=LINE('',#1744,#202);
#77=LINE('',#1748,#203);
#78=LINE('',#1749,#204);
#79=LINE('',#1752,#205);
#80=LINE('',#1757,#206);
#81=LINE('',#1761,#207);
#82=LINE('',#1765,#208);
#83=LINE('',#1769,#209);
#84=LINE('',#1775,#210);
#85=LINE('',#1784,#211);
#86=LINE('',#1792,#212);
#87=LINE('',#1800,#213);
#88=LINE('',#1805,#214);
#89=LINE('',#1808,#215);
#90=LINE('',#1811,#216);
#91=LINE('',#1813,#217);
#92=LINE('',#1814,#218);
#93=LINE('',#1817,#219);
#94=LINE('',#1821,#220);
#95=LINE('',#1823,#221);
#96=LINE('',#1825,#222);
#97=LINE('',#1827,#223);
#98=LINE('',#1829,#224);
#99=LINE('',#1831,#225);
#100=LINE('',#1833,#226);
#101=LINE('',#1835,#227);
#102=LINE('',#1841,#228);
#103=LINE('',#1843,#229);
#104=LINE('',#1844,#230);
#105=LINE('',#1852,#231);
#106=LINE('',#1856,#232);
#107=LINE('',#1858,#233);
#108=LINE('',#1859,#234);
#109=LINE('',#1860,#235);
#110=LINE('',#1865,#236);
#111=LINE('',#1869,#237);
#112=LINE('',#1872,#238);
#113=LINE('',#1874,#239);
#114=LINE('',#1876,#240);
#115=LINE('',#1880,#241);
#116=LINE('',#1884,#242);
#117=LINE('',#1886,#243);
#118=LINE('',#1888,#244);
#119=LINE('',#1890,#245);
#120=LINE('',#1892,#246);
#121=LINE('',#1894,#247);
#122=LINE('',#1896,#248);
#123=LINE('',#1897,#249);
#124=LINE('',#1899,#250);
#125=LINE('',#1901,#251);
#126=LINE('',#1902,#252);
#127=LINE('',#1905,#253);
#128=LINE('',#1907,#254);
#129=LINE('',#1909,#255);
#130=LINE('',#1910,#256);
#131=LINE('',#1913,#257);
#132=LINE('',#1914,#258);
#133=LINE('',#1917,#259);
#134=LINE('',#1919,#260);
#135=LINE('',#1920,#261);
#136=LINE('',#1923,#262);
#137=LINE('',#1924,#263);
#138=LINE('',#1926,#264);
#139=LINE('',#1928,#265);
#140=LINE('',#1929,#266);
#141=LINE('',#1934,#267);
#142=LINE('',#1940,#268);
#143=LINE('',#1944,#269);
#144=LINE('',#1946,#270);
#145=LINE('',#1947,#271);
#146=LINE('',#1948,#272);
#147=LINE('',#1953,#273);
#148=LINE('',#1955,#274);
#149=LINE('',#1957,#275);
#150=LINE('',#1958,#276);
#151=LINE('',#1961,#277);
#152=LINE('',#1962,#278);
#153=LINE('',#1965,#279);
#154=LINE('',#1967,#280);
#155=LINE('',#1968,#281);
#156=LINE('',#1971,#282);
#157=LINE('',#1972,#283);
#158=LINE('',#1975,#284);
#159=LINE('',#1976,#285);
#160=LINE('',#1979,#286);
#161=LINE('',#1982,#287);
#162=LINE('',#1984,#288);
#163=LINE('',#1985,#289);
#164=LINE('',#1989,#290);
#165=LINE('',#1991,#291);
#166=LINE('',#1993,#292);
#167=LINE('',#1994,#293);
#168=LINE('',#1996,#294);
#169=LINE('',#1997,#295);
#170=LINE('',#1999,#296);
#171=LINE('',#2001,#297);
#172=LINE('',#2005,#298);
#173=LINE('',#2006,#299);
#174=LINE('',#2008,#300);
#175=LINE('',#2012,#301);
#176=LINE('',#2013,#302);
#177=LINE('',#2015,#303);
#178=LINE('',#2020,#304);
#179=LINE('',#2022,#305);
#180=LINE('',#2024,#306);
#181=LINE('',#2025,#307);
#182=LINE('',#2027,#308);
#183=LINE('',#2028,#309);
#184=LINE('',#2030,#310);
#185=LINE('',#2032,#311);
#186=LINE('',#2035,#312);
#187=LINE('',#2037,#313);
#188=LINE('',#2040,#314);
#189=LINE('',#2041,#315);
#190=LINE('',#2043,#316);
#191=VECTOR('',#1355,10.);
#192=VECTOR('',#1356,10.);
#193=VECTOR('',#1369,10.);
#194=VECTOR('',#1370,10.);
#195=VECTOR('',#1383,10.);
#196=VECTOR('',#1384,10.);
#197=VECTOR('',#1395,10.);
#198=VECTOR('',#1396,10.);
#199=VECTOR('',#1399,10.);
#200=VECTOR('',#1400,10.);
#201=VECTOR('',#1401,10.);
#202=VECTOR('',#1404,10.);
#203=VECTOR('',#1409,10.);
#204=VECTOR('',#1410,10.);
#205=VECTOR('',#1413,10.);
#206=VECTOR('',#1418,10.);
#207=VECTOR('',#1421,10.);
#208=VECTOR('',#1424,10.);
#209=VECTOR('',#1427,10.);
#210=VECTOR('',#1434,10.);
#211=VECTOR('',#1447,10.);
#212=VECTOR('',#1458,10.);
#213=VECTOR('',#1469,10.);
#214=VECTOR('',#1476,10.);
#215=VECTOR('',#1479,10.);
#216=VECTOR('',#1482,10.);
#217=VECTOR('',#1483,10.);
#218=VECTOR('',#1484,10.);
#219=VECTOR('',#1487,10.);
#220=VECTOR('',#1492,10.);
#221=VECTOR('',#1493,10.);
#222=VECTOR('',#1494,10.);
#223=VECTOR('',#1495,10.);
#224=VECTOR('',#1496,10.);
#225=VECTOR('',#1497,10.);
#226=VECTOR('',#1498,10.);
#227=VECTOR('',#1499,10.);
#228=VECTOR('',#1502,10.);
#229=VECTOR('',#1503,10.);
#230=VECTOR('',#1504,10.);
#231=VECTOR('',#1507,10.);
#232=VECTOR('',#1512,10.);
#233=VECTOR('',#1513,10.);
#234=VECTOR('',#1514,10.);
#235=VECTOR('',#1515,10.);
#236=VECTOR('',#1522,10.);
#237=VECTOR('',#1525,10.);
#238=VECTOR('',#1528,10.);
#239=VECTOR('',#1529,10.);
#240=VECTOR('',#1530,10.);
#241=VECTOR('',#1533,10.);
#242=VECTOR('',#1536,10.);
#243=VECTOR('',#1537,10.);
#244=VECTOR('',#1538,10.);
#245=VECTOR('',#1539,10.);
#246=VECTOR('',#1540,10.);
#247=VECTOR('',#1541,10.);
#248=VECTOR('',#1542,10.);
#249=VECTOR('',#1543,10.);
#250=VECTOR('',#1544,10.);
#251=VECTOR('',#1545,10.);
#252=VECTOR('',#1546,10.);
#253=VECTOR('',#1549,10.);
#254=VECTOR('',#1550,10.);
#255=VECTOR('',#1551,10.);
#256=VECTOR('',#1552,10.);
#257=VECTOR('',#1555,10.);
#258=VECTOR('',#1556,10.);
#259=VECTOR('',#1559,10.);
#260=VECTOR('',#1560,10.);
#261=VECTOR('',#1561,10.);
#262=VECTOR('',#1564,10.);
#263=VECTOR('',#1565,10.);
#264=VECTOR('',#1566,10.);
#265=VECTOR('',#1567,10.);
#266=VECTOR('',#1568,10.);
#267=VECTOR('',#1569,10.);
#268=VECTOR('',#1572,10.);
#269=VECTOR('',#1575,10.);
#270=VECTOR('',#1576,10.);
#271=VECTOR('',#1577,10.);
#272=VECTOR('',#1578,10.);
#273=VECTOR('',#1585,10.);
#274=VECTOR('',#1586,10.);
#275=VECTOR('',#1587,10.);
#276=VECTOR('',#1588,10.);
#277=VECTOR('',#1591,10.);
#278=VECTOR('',#1592,10.);
#279=VECTOR('',#1595,10.);
#280=VECTOR('',#1596,10.);
#281=VECTOR('',#1597,10.);
#282=VECTOR('',#1600,10.);
#283=VECTOR('',#1601,10.);
#284=VECTOR('',#1604,10.);
#285=VECTOR('',#1605,10.);
#286=VECTOR('',#1608,10.);
#287=VECTOR('',#1611,10.);
#288=VECTOR('',#1612,10.);
#289=VECTOR('',#1613,10.);
#290=VECTOR('',#1616,10.);
#291=VECTOR('',#1617,10.);
#292=VECTOR('',#1618,10.);
#293=VECTOR('',#1619,10.);
#294=VECTOR('',#1622,10.);
#295=VECTOR('',#1623,10.);
#296=VECTOR('',#1626,10.);
#297=VECTOR('',#1629,10.);
#298=VECTOR('',#1634,10.);
#299=VECTOR('',#1635,10.);
#300=VECTOR('',#1638,10.);
#301=VECTOR('',#1643,10.);
#302=VECTOR('',#1644,10.);
#303=VECTOR('',#1647,10.);
#304=VECTOR('',#1652,10.);
#305=VECTOR('',#1653,10.);
#306=VECTOR('',#1654,10.);
#307=VECTOR('',#1655,10.);
#308=VECTOR('',#1658,10.);
#309=VECTOR('',#1659,10.);
#310=VECTOR('',#1662,10.);
#311=VECTOR('',#1665,10.);
#312=VECTOR('',#1670,10.);
#313=VECTOR('',#1673,10.);
#314=VECTOR('',#1678,10.);
#315=VECTOR('',#1679,10.);
#316=VECTOR('',#1682,10.);
#317=CYLINDRICAL_SURFACE('',#1234,0.4);
#318=CYLINDRICAL_SURFACE('',#1240,0.4);
#319=CYLINDRICAL_SURFACE('',#1246,0.4);
#320=CYLINDRICAL_SURFACE('',#1252,0.4);
#321=CYLINDRICAL_SURFACE('',#1254,2.);
#322=CYLINDRICAL_SURFACE('',#1257,2.);
#323=CYLINDRICAL_SURFACE('',#1264,0.4);
#324=CYLINDRICAL_SURFACE('',#1270,0.4);
#325=CYLINDRICAL_SURFACE('',#1275,0.4);
#326=CYLINDRICAL_SURFACE('',#1280,0.4);
#327=CYLINDRICAL_SURFACE('',#1284,0.8);
#328=CYLINDRICAL_SURFACE('',#1287,0.8);
#329=CYLINDRICAL_SURFACE('',#1332,0.8);
#330=CYLINDRICAL_SURFACE('',#1333,0.8);
#331=CYLINDRICAL_SURFACE('',#1335,2.);
#332=CYLINDRICAL_SURFACE('',#1336,2.);
#333=FACE_OUTER_BOUND('',#399,.T.);
#334=FACE_OUTER_BOUND('',#400,.T.);
#335=FACE_OUTER_BOUND('',#401,.T.);
#336=FACE_OUTER_BOUND('',#402,.T.);
#337=FACE_OUTER_BOUND('',#403,.T.);
#338=FACE_OUTER_BOUND('',#404,.T.);
#339=FACE_OUTER_BOUND('',#405,.T.);
#340=FACE_OUTER_BOUND('',#406,.T.);
#341=FACE_OUTER_BOUND('',#407,.T.);
#342=FACE_OUTER_BOUND('',#408,.T.);
#343=FACE_OUTER_BOUND('',#409,.T.);
#344=FACE_OUTER_BOUND('',#410,.T.);
#345=FACE_OUTER_BOUND('',#411,.T.);
#346=FACE_OUTER_BOUND('',#413,.T.);
#347=FACE_OUTER_BOUND('',#414,.T.);
#348=FACE_OUTER_BOUND('',#415,.T.);
#349=FACE_OUTER_BOUND('',#416,.T.);
#350=FACE_OUTER_BOUND('',#417,.T.);
#351=FACE_OUTER_BOUND('',#418,.T.);
#352=FACE_OUTER_BOUND('',#419,.T.);
#353=FACE_OUTER_BOUND('',#420,.T.);
#354=FACE_OUTER_BOUND('',#421,.T.);
#355=FACE_OUTER_BOUND('',#422,.T.);
#356=FACE_OUTER_BOUND('',#423,.T.);
#357=FACE_OUTER_BOUND('',#424,.T.);
#358=FACE_OUTER_BOUND('',#425,.T.);
#359=FACE_OUTER_BOUND('',#426,.T.);
#360=FACE_OUTER_BOUND('',#427,.T.);
#361=FACE_OUTER_BOUND('',#428,.T.);
#362=FACE_OUTER_BOUND('',#429,.T.);
#363=FACE_OUTER_BOUND('',#431,.T.);
#364=FACE_OUTER_BOUND('',#432,.T.);
#365=FACE_OUTER_BOUND('',#433,.T.);
#366=FACE_OUTER_BOUND('',#434,.T.);
#367=FACE_OUTER_BOUND('',#435,.T.);
#368=FACE_OUTER_BOUND('',#436,.T.);
#369=FACE_OUTER_BOUND('',#437,.T.);
#370=FACE_OUTER_BOUND('',#438,.T.);
#371=FACE_OUTER_BOUND('',#439,.T.);
#372=FACE_OUTER_BOUND('',#440,.T.);
#373=FACE_OUTER_BOUND('',#441,.T.);
#374=FACE_OUTER_BOUND('',#442,.T.);
#375=FACE_OUTER_BOUND('',#443,.T.);
#376=FACE_OUTER_BOUND('',#444,.T.);
#377=FACE_OUTER_BOUND('',#445,.T.);
#378=FACE_OUTER_BOUND('',#446,.T.);
#379=FACE_OUTER_BOUND('',#447,.T.);
#380=FACE_OUTER_BOUND('',#448,.T.);
#381=FACE_OUTER_BOUND('',#449,.T.);
#382=FACE_OUTER_BOUND('',#450,.T.);
#383=FACE_OUTER_BOUND('',#451,.T.);
#384=FACE_OUTER_BOUND('',#452,.T.);
#385=FACE_OUTER_BOUND('',#453,.T.);
#386=FACE_OUTER_BOUND('',#454,.T.);
#387=FACE_OUTER_BOUND('',#455,.T.);
#388=FACE_OUTER_BOUND('',#456,.T.);
#389=FACE_OUTER_BOUND('',#457,.T.);
#390=FACE_OUTER_BOUND('',#458,.T.);
#391=FACE_OUTER_BOUND('',#459,.T.);
#392=FACE_OUTER_BOUND('',#460,.T.);
#393=FACE_OUTER_BOUND('',#461,.T.);
#394=FACE_OUTER_BOUND('',#462,.T.);
#395=FACE_OUTER_BOUND('',#463,.T.);
#396=FACE_OUTER_BOUND('',#464,.T.);
#397=FACE_OUTER_BOUND('',#465,.T.);
#398=FACE_OUTER_BOUND('',#466,.T.);
#399=EDGE_LOOP('',(#793,#794,#795,#796));
#400=EDGE_LOOP('',(#797,#798,#799,#800));
#401=EDGE_LOOP('',(#801,#802,#803,#804));
#402=EDGE_LOOP('',(#805,#806,#807,#808));
#403=EDGE_LOOP('',(#809,#810,#811,#812));
#404=EDGE_LOOP('',(#813,#814,#815,#816));
#405=EDGE_LOOP('',(#817,#818,#819,#820));
#406=EDGE_LOOP('',(#821,#822,#823,#824));
#407=EDGE_LOOP('',(#825,#826,#827,#828));
#408=EDGE_LOOP('',(#829,#830,#831,#832));
#409=EDGE_LOOP('',(#833,#834,#835,#836));
#410=EDGE_LOOP('',(#837,#838,#839,#840));
#411=EDGE_LOOP('',(#841,#842,#843,#844,#845,#846,#847,#848));
#412=EDGE_LOOP('',(#849,#850,#851,#852,#853,#854,#855,#856));
#413=EDGE_LOOP('',(#857,#858,#859,#860));
#414=EDGE_LOOP('',(#861,#862,#863,#864));
#415=EDGE_LOOP('',(#865,#866,#867,#868));
#416=EDGE_LOOP('',(#869,#870,#871,#872));
#417=EDGE_LOOP('',(#873,#874,#875,#876));
#418=EDGE_LOOP('',(#877,#878,#879,#880));
#419=EDGE_LOOP('',(#881,#882,#883,#884));
#420=EDGE_LOOP('',(#885,#886,#887,#888));
#421=EDGE_LOOP('',(#889,#890,#891,#892));
#422=EDGE_LOOP('',(#893,#894,#895,#896,#897));
#423=EDGE_LOOP('',(#898,#899,#900,#901));
#424=EDGE_LOOP('',(#902,#903,#904,#905,#906,#907,#908,#909,#910,#911,#912));
#425=EDGE_LOOP('',(#913,#914,#915,#916));
#426=EDGE_LOOP('',(#917,#918,#919));
#427=EDGE_LOOP('',(#920,#921,#922,#923,#924,#925));
#428=EDGE_LOOP('',(#926,#927,#928,#929));
#429=EDGE_LOOP('',(#930,#931,#932,#933,#934,#935,#936,#937));
#430=EDGE_LOOP('',(#938,#939,#940,#941,#942,#943,#944,#945,#946,#947,#948,
#949,#950,#951,#952,#953,#954,#955,#956,#957,#958,#959));
#431=EDGE_LOOP('',(#960,#961,#962,#963,#964,#965));
#432=EDGE_LOOP('',(#966,#967,#968,#969));
#433=EDGE_LOOP('',(#970,#971,#972,#973));
#434=EDGE_LOOP('',(#974,#975,#976,#977,#978,#979,#980,#981,#982,#983,#984));
#435=EDGE_LOOP('',(#985,#986,#987));
#436=EDGE_LOOP('',(#988,#989,#990,#991,#992,#993));
#437=EDGE_LOOP('',(#994,#995,#996,#997));
#438=EDGE_LOOP('',(#998,#999,#1000,#1001,#1002,#1003));
#439=EDGE_LOOP('',(#1004,#1005,#1006,#1007));
#440=EDGE_LOOP('',(#1008,#1009,#1010,#1011,#1012,#1013,#1014));
#441=EDGE_LOOP('',(#1015,#1016,#1017,#1018));
#442=EDGE_LOOP('',(#1019,#1020,#1021,#1022));
#443=EDGE_LOOP('',(#1023,#1024,#1025,#1026,#1027,#1028,#1029));
#444=EDGE_LOOP('',(#1030,#1031,#1032,#1033));
#445=EDGE_LOOP('',(#1034,#1035,#1036,#1037,#1038,#1039,#1040));
#446=EDGE_LOOP('',(#1041,#1042,#1043,#1044));
#447=EDGE_LOOP('',(#1045,#1046,#1047,#1048,#1049,#1050,#1051));
#448=EDGE_LOOP('',(#1052,#1053,#1054,#1055));
#449=EDGE_LOOP('',(#1056,#1057,#1058,#1059));
#450=EDGE_LOOP('',(#1060,#1061,#1062,#1063,#1064,#1065,#1066));
#451=EDGE_LOOP('',(#1067,#1068,#1069,#1070));
#452=EDGE_LOOP('',(#1071,#1072,#1073,#1074));
#453=EDGE_LOOP('',(#1075,#1076,#1077,#1078,#1079,#1080,#1081));
#454=EDGE_LOOP('',(#1082,#1083,#1084,#1085));
#455=EDGE_LOOP('',(#1086,#1087,#1088,#1089));
#456=EDGE_LOOP('',(#1090,#1091,#1092,#1093,#1094,#1095,#1096));
#457=EDGE_LOOP('',(#1097,#1098,#1099,#1100));
#458=EDGE_LOOP('',(#1101,#1102,#1103,#1104,#1105,#1106,#1107));
#459=EDGE_LOOP('',(#1108,#1109,#1110,#1111));
#460=EDGE_LOOP('',(#1112,#1113,#1114,#1115));
#461=EDGE_LOOP('',(#1116,#1117,#1118,#1119));
#462=EDGE_LOOP('',(#1120,#1121,#1122,#1123,#1124));
#463=EDGE_LOOP('',(#1125,#1126,#1127,#1128));
#464=EDGE_LOOP('',(#1129,#1130,#1131,#1132));
#465=EDGE_LOOP('',(#1133,#1134,#1135,#1136));
#466=EDGE_LOOP('',(#1137,#1138,#1139,#1140));
#467=CIRCLE('',#1230,0.4);
#468=CIRCLE('',#1231,2.);
#469=CIRCLE('',#1232,0.4);
#470=CIRCLE('',#1233,1.6);
#471=CIRCLE('',#1235,0.4);
#472=CIRCLE('',#1237,0.4);
#473=CIRCLE('',#1238,1.6);
#474=CIRCLE('',#1239,2.);
#475=CIRCLE('',#1241,0.4);
#476=CIRCLE('',#1243,0.4);
#477=CIRCLE('',#1244,1.6);
#478=CIRCLE('',#1245,2.);
#479=CIRCLE('',#1247,0.4);
#480=CIRCLE('',#1249,0.4);
#481=CIRCLE('',#1250,1.6);
#482=CIRCLE('',#1251,2.);
#483=CIRCLE('',#1255,2.);
#484=CIRCLE('',#1258,2.);
#485=CIRCLE('',#1260,1.2);
#486=CIRCLE('',#1261,1.2);
#487=CIRCLE('',#1262,1.2);
#488=CIRCLE('',#1263,1.2);
#489=CIRCLE('',#1265,0.4);
#490=CIRCLE('',#1266,0.4);
#491=CIRCLE('',#1268,0.400000000000001);
#492=CIRCLE('',#1269,0.8);
#493=CIRCLE('',#1271,0.4);
#494=CIRCLE('',#1273,0.4);
#495=CIRCLE('',#1274,0.8);
#496=CIRCLE('',#1276,0.4);
#497=CIRCLE('',#1278,0.400000000000001);
#498=CIRCLE('',#1279,0.8);
#499=CIRCLE('',#1281,0.4);
#500=CIRCLE('',#1283,0.8);
#501=CIRCLE('',#1288,0.8);
#502=CIRCLE('',#1292,1.3);
#503=CIRCLE('',#1295,1.3);
#504=CIRCLE('',#1297,2.);
#505=CIRCLE('',#1298,2.);
#506=CIRCLE('',#1299,1.3);
#507=CIRCLE('',#1300,1.3);
#508=CIRCLE('',#1308,0.8);
#509=VERTEX_POINT('',#1689);
#510=VERTEX_POINT('',#1690);
#511=VERTEX_POINT('',#1692);
#512=VERTEX_POINT('',#1694);
#513=VERTEX_POINT('',#1698);
#514=VERTEX_POINT('',#1699);
#515=VERTEX_POINT('',#1704);
#516=VERTEX_POINT('',#1705);
#517=VERTEX_POINT('',#1710);
#518=VERTEX_POINT('',#1711);
#519=VERTEX_POINT('',#1716);
#520=VERTEX_POINT('',#1717);
#521=VERTEX_POINT('',#1722);
#522=VERTEX_POINT('',#1723);
#523=VERTEX_POINT('',#1728);
#524=VERTEX_POINT('',#1729);
#525=VERTEX_POINT('',#1737);
#526=VERTEX_POINT('',#1739);
#527=VERTEX_POINT('',#1743);
#528=VERTEX_POINT('',#1747);
#529=VERTEX_POINT('',#1751);
#530=VERTEX_POINT('',#1755);
#531=VERTEX_POINT('',#1756);
#532=VERTEX_POINT('',#1758);
#533=VERTEX_POINT('',#1760);
#534=VERTEX_POINT('',#1762);
#535=VERTEX_POINT('',#1764);
#536=VERTEX_POINT('',#1766);
#537=VERTEX_POINT('',#1768);
#538=VERTEX_POINT('',#1772);
#539=VERTEX_POINT('',#1774);
#540=VERTEX_POINT('',#1778);
#541=VERTEX_POINT('',#1782);
#542=VERTEX_POINT('',#1786);
#543=VERTEX_POINT('',#1790);
#544=VERTEX_POINT('',#1794);
#545=VERTEX_POINT('',#1798);
#546=VERTEX_POINT('',#1804);
#547=VERTEX_POINT('',#1806);
#548=VERTEX_POINT('',#1810);
#549=VERTEX_POINT('',#1812);
#550=VERTEX_POINT('',#1816);
#551=VERTEX_POINT('',#1820);
#552=VERTEX_POINT('',#1822);
#553=VERTEX_POINT('',#1824);
#554=VERTEX_POINT('',#1826);
#555=VERTEX_POINT('',#1828);
#556=VERTEX_POINT('',#1830);
#557=VERTEX_POINT('',#1832);
#558=VERTEX_POINT('',#1834);
#559=VERTEX_POINT('',#1840);
#560=VERTEX_POINT('',#1842);
#561=VERTEX_POINT('',#1846);
#562=VERTEX_POINT('',#1847);
#563=VERTEX_POINT('',#1851);
#564=VERTEX_POINT('',#1855);
#565=VERTEX_POINT('',#1857);
#566=VERTEX_POINT('',#1864);
#567=VERTEX_POINT('',#1866);
#568=VERTEX_POINT('',#1868);
#569=VERTEX_POINT('',#1871);
#570=VERTEX_POINT('',#1873);
#571=VERTEX_POINT('',#1875);
#572=VERTEX_POINT('',#1877);
#573=VERTEX_POINT('',#1879);
#574=VERTEX_POINT('',#1881);
#575=VERTEX_POINT('',#1883);
#576=VERTEX_POINT('',#1885);
#577=VERTEX_POINT('',#1887);
#578=VERTEX_POINT('',#1889);
#579=VERTEX_POINT('',#1891);
#580=VERTEX_POINT('',#1893);
#581=VERTEX_POINT('',#1895);
#582=VERTEX_POINT('',#1898);
#583=VERTEX_POINT('',#1900);
#584=VERTEX_POINT('',#1904);
#585=VERTEX_POINT('',#1906);
#586=VERTEX_POINT('',#1908);
#587=VERTEX_POINT('',#1912);
#588=VERTEX_POINT('',#1916);
#589=VERTEX_POINT('',#1918);
#590=VERTEX_POINT('',#1922);
#591=VERTEX_POINT('',#1925);
#592=VERTEX_POINT('',#1927);
#593=VERTEX_POINT('',#1930);
#594=VERTEX_POINT('',#1936);
#595=VERTEX_POINT('',#1942);
#596=VERTEX_POINT('',#1943);
#597=VERTEX_POINT('',#1945);
#598=VERTEX_POINT('',#1952);
#599=VERTEX_POINT('',#1954);
#600=VERTEX_POINT('',#1956);
#601=VERTEX_POINT('',#1960);
#602=VERTEX_POINT('',#1964);
#603=VERTEX_POINT('',#1966);
#604=VERTEX_POINT('',#1970);
#605=VERTEX_POINT('',#1974);
#606=VERTEX_POINT('',#1978);
#607=VERTEX_POINT('',#1980);
#608=VERTEX_POINT('',#1983);
#609=VERTEX_POINT('',#1987);
#610=VERTEX_POINT('',#1988);
#611=VERTEX_POINT('',#1990);
#612=VERTEX_POINT('',#1992);
#613=VERTEX_POINT('',#2004);
#614=VERTEX_POINT('',#2011);
#615=VERTEX_POINT('',#2018);
#616=VERTEX_POINT('',#2019);
#617=VERTEX_POINT('',#2021);
#618=VERTEX_POINT('',#2023);
#619=EDGE_CURVE('',#509,#510,#467,.T.);
#620=EDGE_CURVE('',#510,#511,#468,.T.);
#621=EDGE_CURVE('',#511,#512,#469,.T.);
#622=EDGE_CURVE('',#512,#509,#470,.T.);
#623=EDGE_CURVE('',#513,#514,#471,.T.);
#624=EDGE_CURVE('',#514,#512,#65,.T.);
#625=EDGE_CURVE('',#511,#513,#66,.T.);
#626=EDGE_CURVE('',#515,#516,#472,.T.);
#627=EDGE_CURVE('',#516,#514,#473,.T.);
#628=EDGE_CURVE('',#513,#515,#474,.T.);
#629=EDGE_CURVE('',#517,#518,#475,.T.);
#630=EDGE_CURVE('',#518,#516,#67,.T.);
#631=EDGE_CURVE('',#515,#517,#68,.T.);
#632=EDGE_CURVE('',#519,#520,#476,.T.);
#633=EDGE_CURVE('',#520,#518,#477,.T.);
#634=EDGE_CURVE('',#517,#519,#478,.T.);
#635=EDGE_CURVE('',#521,#522,#479,.T.);
#636=EDGE_CURVE('',#522,#520,#69,.T.);
#637=EDGE_CURVE('',#519,#521,#70,.T.);
#638=EDGE_CURVE('',#523,#524,#480,.T.);
#639=EDGE_CURVE('',#524,#522,#481,.T.);
#640=EDGE_CURVE('',#521,#523,#482,.T.);
#641=EDGE_CURVE('',#509,#524,#71,.T.);
#642=EDGE_CURVE('',#523,#510,#72,.T.);
#643=EDGE_CURVE('',#515,#525,#73,.T.);
#644=EDGE_CURVE('',#526,#525,#74,.T.);
#645=EDGE_CURVE('',#517,#526,#75,.T.);
#646=EDGE_CURVE('',#513,#527,#76,.T.);
#647=EDGE_CURVE('',#525,#527,#483,.T.);
#648=EDGE_CURVE('',#511,#528,#77,.T.);
#649=EDGE_CURVE('',#527,#528,#78,.T.);
#650=EDGE_CURVE('',#510,#529,#79,.T.);
#651=EDGE_CURVE('',#528,#529,#484,.T.);
#652=EDGE_CURVE('',#530,#531,#80,.T.);
#653=EDGE_CURVE('',#532,#530,#485,.T.);
#654=EDGE_CURVE('',#533,#532,#81,.T.);
#655=EDGE_CURVE('',#534,#533,#486,.T.);
#656=EDGE_CURVE('',#535,#534,#82,.T.);
#657=EDGE_CURVE('',#536,#535,#487,.T.);
#658=EDGE_CURVE('',#537,#536,#83,.T.);
#659=EDGE_CURVE('',#531,#537,#488,.T.);
#660=EDGE_CURVE('',#531,#538,#489,.T.);
#661=EDGE_CURVE('',#538,#539,#84,.T.);
#662=EDGE_CURVE('',#539,#530,#490,.T.);
#663=EDGE_CURVE('',#540,#532,#491,.T.);
#664=EDGE_CURVE('',#539,#540,#492,.T.);
#665=EDGE_CURVE('',#541,#533,#493,.T.);
#666=EDGE_CURVE('',#540,#541,#85,.T.);
#667=EDGE_CURVE('',#542,#534,#494,.T.);
#668=EDGE_CURVE('',#541,#542,#495,.T.);
#669=EDGE_CURVE('',#543,#535,#496,.T.);
#670=EDGE_CURVE('',#542,#543,#86,.T.);
#671=EDGE_CURVE('',#544,#536,#497,.T.);
#672=EDGE_CURVE('',#543,#544,#498,.T.);
#673=EDGE_CURVE('',#545,#537,#499,.T.);
#674=EDGE_CURVE('',#544,#545,#87,.T.);
#675=EDGE_CURVE('',#545,#538,#500,.T.);
#676=EDGE_CURVE('',#541,#546,#88,.T.);
#677=EDGE_CURVE('',#547,#546,#23,.T.);
#678=EDGE_CURVE('',#542,#547,#89,.T.);
#679=EDGE_CURVE('',#540,#548,#90,.T.);
#680=EDGE_CURVE('',#549,#548,#91,.T.);
#681=EDGE_CURVE('',#546,#549,#92,.T.);
#682=EDGE_CURVE('',#550,#539,#93,.F.);
#683=EDGE_CURVE('',#548,#550,#501,.T.);
#684=EDGE_CURVE('',#538,#551,#94,.T.);
#685=EDGE_CURVE('',#552,#551,#95,.T.);
#686=EDGE_CURVE('',#553,#552,#96,.T.);
#687=EDGE_CURVE('',#554,#553,#97,.T.);
#688=EDGE_CURVE('',#554,#555,#98,.T.);
#689=EDGE_CURVE('',#555,#556,#99,.F.);
#690=EDGE_CURVE('',#556,#557,#100,.T.);
#691=EDGE_CURVE('',#557,#558,#101,.T.);
#692=EDGE_CURVE('',#558,#550,#19,.T.);
#693=EDGE_CURVE('',#559,#554,#102,.F.);
#694=EDGE_CURVE('',#553,#560,#103,.F.);
#695=EDGE_CURVE('',#560,#559,#104,.T.);
#696=EDGE_CURVE('',#561,#562,#20,.F.);
#697=EDGE_CURVE('',#562,#563,#105,.T.);
#698=EDGE_CURVE('',#563,#561,#502,.T.);
#699=EDGE_CURVE('',#549,#564,#106,.T.);
#700=EDGE_CURVE('',#548,#565,#107,.T.);
#701=EDGE_CURVE('',#565,#563,#108,.T.);
#702=EDGE_CURVE('',#562,#564,#109,.F.);
#703=EDGE_CURVE('',#558,#565,#503,.T.);
#704=EDGE_CURVE('',#529,#566,#110,.T.);
#705=EDGE_CURVE('',#566,#567,#504,.T.);
#706=EDGE_CURVE('',#567,#568,#111,.T.);
#707=EDGE_CURVE('',#568,#526,#505,.T.);
#708=EDGE_CURVE('',#560,#569,#112,.T.);
#709=EDGE_CURVE('',#569,#570,#113,.T.);
#710=EDGE_CURVE('',#570,#571,#114,.T.);
#711=EDGE_CURVE('',#572,#571,#506,.T.);
#712=EDGE_CURVE('',#573,#572,#115,.T.);
#713=EDGE_CURVE('',#574,#573,#507,.T.);
#714=EDGE_CURVE('',#575,#574,#116,.T.);
#715=EDGE_CURVE('',#575,#576,#117,.T.);
#716=EDGE_CURVE('',#576,#577,#118,.T.);
#717=EDGE_CURVE('',#577,#578,#119,.T.);
#718=EDGE_CURVE('',#579,#578,#120,.T.);
#719=EDGE_CURVE('',#579,#580,#121,.T.);
#720=EDGE_CURVE('',#580,#581,#122,.T.);
#721=EDGE_CURVE('',#581,#561,#123,.T.);
#722=EDGE_CURVE('',#557,#582,#124,.T.);
#723=EDGE_CURVE('',#582,#583,#125,.T.);
#724=EDGE_CURVE('',#583,#559,#126,.T.);
#725=EDGE_CURVE('',#584,#556,#127,.T.);
#726=EDGE_CURVE('',#584,#585,#128,.T.);
#727=EDGE_CURVE('',#586,#585,#129,.T.);
#728=EDGE_CURVE('',#582,#586,#130,.T.);
#729=EDGE_CURVE('',#587,#555,#131,.F.);
#730=EDGE_CURVE('',#587,#584,#132,.T.);
#731=EDGE_CURVE('',#578,#588,#133,.F.);
#732=EDGE_CURVE('',#588,#589,#134,.T.);
#733=EDGE_CURVE('',#589,#579,#135,.F.);
#734=EDGE_CURVE('',#590,#547,#136,.T.);
#735=EDGE_CURVE('',#589,#590,#137,.T.);
#736=EDGE_CURVE('',#588,#591,#138,.T.);
#737=EDGE_CURVE('',#591,#592,#139,.F.);
#738=EDGE_CURVE('',#592,#575,#140,.T.);
#739=EDGE_CURVE('',#574,#593,#21,.T.);
#740=EDGE_CURVE('',#593,#543,#141,.F.);
#741=EDGE_CURVE('',#571,#594,#22,.F.);
#742=EDGE_CURVE('',#594,#572,#142,.T.);
#743=EDGE_CURVE('',#595,#596,#143,.T.);
#744=EDGE_CURVE('',#595,#597,#144,.T.);
#745=EDGE_CURVE('',#597,#573,#145,.T.);
#746=EDGE_CURVE('',#594,#596,#146,.F.);
#747=EDGE_CURVE('',#597,#593,#508,.T.);
#748=EDGE_CURVE('',#598,#592,#147,.T.);
#749=EDGE_CURVE('',#598,#599,#148,.T.);
#750=EDGE_CURVE('',#600,#599,#149,.T.);
#751=EDGE_CURVE('',#576,#600,#150,.T.);
#752=EDGE_CURVE('',#601,#591,#151,.F.);
#753=EDGE_CURVE('',#601,#598,#152,.T.);
#754=EDGE_CURVE('',#602,#590,#153,.T.);
#755=EDGE_CURVE('',#564,#603,#154,.F.);
#756=EDGE_CURVE('',#603,#602,#155,.T.);
#757=EDGE_CURVE('',#601,#604,#156,.T.);
#758=EDGE_CURVE('',#599,#604,#157,.T.);
#759=EDGE_CURVE('',#587,#605,#158,.T.);
#760=EDGE_CURVE('',#585,#605,#159,.T.);
#761=EDGE_CURVE('',#606,#552,#160,.T.);
#762=EDGE_CURVE('',#551,#607,#24,.T.);
#763=EDGE_CURVE('',#607,#595,#161,.T.);
#764=EDGE_CURVE('',#596,#608,#162,.F.);
#765=EDGE_CURVE('',#608,#606,#163,.T.);
#766=EDGE_CURVE('',#609,#610,#164,.T.);
#767=EDGE_CURVE('',#610,#611,#165,.T.);
#768=EDGE_CURVE('',#611,#612,#166,.T.);
#769=EDGE_CURVE('',#612,#609,#167,.T.);
#770=EDGE_CURVE('',#606,#611,#168,.T.);
#771=EDGE_CURVE('',#569,#610,#169,.T.);
#772=EDGE_CURVE('',#608,#612,#170,.T.);
#773=EDGE_CURVE('',#570,#609,#171,.T.);
#774=EDGE_CURVE('',#613,#586,#172,.T.);
#775=EDGE_CURVE('',#605,#613,#173,.T.);
#776=EDGE_CURVE('',#583,#613,#174,.T.);
#777=EDGE_CURVE('',#604,#614,#175,.T.);
#778=EDGE_CURVE('',#614,#600,#176,.T.);
#779=EDGE_CURVE('',#577,#614,#177,.T.);
#780=EDGE_CURVE('',#615,#616,#178,.T.);
#781=EDGE_CURVE('',#616,#617,#179,.T.);
#782=EDGE_CURVE('',#617,#618,#180,.T.);
#783=EDGE_CURVE('',#618,#615,#181,.T.);
#784=EDGE_CURVE('',#581,#617,#182,.T.);
#785=EDGE_CURVE('',#603,#616,#183,.T.);
#786=EDGE_CURVE('',#580,#618,#184,.T.);
#787=EDGE_CURVE('',#602,#615,#185,.T.);
#788=EDGE_CURVE('',#545,#607,#186,.T.);
#789=EDGE_CURVE('',#544,#597,#187,.T.);
#790=EDGE_CURVE('',#521,#567,#188,.T.);
#791=EDGE_CURVE('',#523,#566,#189,.T.);
#792=EDGE_CURVE('',#519,#568,#190,.T.);
#793=ORIENTED_EDGE('',*,*,#619,.T.);
#794=ORIENTED_EDGE('',*,*,#620,.T.);
#795=ORIENTED_EDGE('',*,*,#621,.T.);
#796=ORIENTED_EDGE('',*,*,#622,.T.);
#797=ORIENTED_EDGE('',*,*,#623,.T.);
#798=ORIENTED_EDGE('',*,*,#624,.T.);
#799=ORIENTED_EDGE('',*,*,#621,.F.);
#800=ORIENTED_EDGE('',*,*,#625,.T.);
#801=ORIENTED_EDGE('',*,*,#626,.T.);
#802=ORIENTED_EDGE('',*,*,#627,.T.);
#803=ORIENTED_EDGE('',*,*,#623,.F.);
#804=ORIENTED_EDGE('',*,*,#628,.T.);
#805=ORIENTED_EDGE('',*,*,#629,.T.);
#806=ORIENTED_EDGE('',*,*,#630,.T.);
#807=ORIENTED_EDGE('',*,*,#626,.F.);
#808=ORIENTED_EDGE('',*,*,#631,.T.);
#809=ORIENTED_EDGE('',*,*,#632,.T.);
#810=ORIENTED_EDGE('',*,*,#633,.T.);
#811=ORIENTED_EDGE('',*,*,#629,.F.);
#812=ORIENTED_EDGE('',*,*,#634,.T.);
#813=ORIENTED_EDGE('',*,*,#635,.T.);
#814=ORIENTED_EDGE('',*,*,#636,.T.);
#815=ORIENTED_EDGE('',*,*,#632,.F.);
#816=ORIENTED_EDGE('',*,*,#637,.T.);
#817=ORIENTED_EDGE('',*,*,#638,.T.);
#818=ORIENTED_EDGE('',*,*,#639,.T.);
#819=ORIENTED_EDGE('',*,*,#635,.F.);
#820=ORIENTED_EDGE('',*,*,#640,.T.);
#821=ORIENTED_EDGE('',*,*,#619,.F.);
#822=ORIENTED_EDGE('',*,*,#641,.T.);
#823=ORIENTED_EDGE('',*,*,#638,.F.);
#824=ORIENTED_EDGE('',*,*,#642,.T.);
#825=ORIENTED_EDGE('',*,*,#631,.F.);
#826=ORIENTED_EDGE('',*,*,#643,.T.);
#827=ORIENTED_EDGE('',*,*,#644,.F.);
#828=ORIENTED_EDGE('',*,*,#645,.F.);
#829=ORIENTED_EDGE('',*,*,#628,.F.);
#830=ORIENTED_EDGE('',*,*,#646,.T.);
#831=ORIENTED_EDGE('',*,*,#647,.F.);
#832=ORIENTED_EDGE('',*,*,#643,.F.);
#833=ORIENTED_EDGE('',*,*,#625,.F.);
#834=ORIENTED_EDGE('',*,*,#648,.T.);
#835=ORIENTED_EDGE('',*,*,#649,.F.);
#836=ORIENTED_EDGE('',*,*,#646,.F.);
#837=ORIENTED_EDGE('',*,*,#620,.F.);
#838=ORIENTED_EDGE('',*,*,#650,.T.);
#839=ORIENTED_EDGE('',*,*,#651,.F.);
#840=ORIENTED_EDGE('',*,*,#648,.F.);
#841=ORIENTED_EDGE('',*,*,#622,.F.);
#842=ORIENTED_EDGE('',*,*,#624,.F.);
#843=ORIENTED_EDGE('',*,*,#627,.F.);
#844=ORIENTED_EDGE('',*,*,#630,.F.);
#845=ORIENTED_EDGE('',*,*,#633,.F.);
#846=ORIENTED_EDGE('',*,*,#636,.F.);
#847=ORIENTED_EDGE('',*,*,#639,.F.);
#848=ORIENTED_EDGE('',*,*,#641,.F.);
#849=ORIENTED_EDGE('',*,*,#652,.F.);
#850=ORIENTED_EDGE('',*,*,#653,.F.);
#851=ORIENTED_EDGE('',*,*,#654,.F.);
#852=ORIENTED_EDGE('',*,*,#655,.F.);
#853=ORIENTED_EDGE('',*,*,#656,.F.);
#854=ORIENTED_EDGE('',*,*,#657,.F.);
#855=ORIENTED_EDGE('',*,*,#658,.F.);
#856=ORIENTED_EDGE('',*,*,#659,.F.);
#857=ORIENTED_EDGE('',*,*,#660,.T.);
#858=ORIENTED_EDGE('',*,*,#661,.T.);
#859=ORIENTED_EDGE('',*,*,#662,.T.);
#860=ORIENTED_EDGE('',*,*,#652,.T.);
#861=ORIENTED_EDGE('',*,*,#663,.T.);
#862=ORIENTED_EDGE('',*,*,#653,.T.);
#863=ORIENTED_EDGE('',*,*,#662,.F.);
#864=ORIENTED_EDGE('',*,*,#664,.T.);
#865=ORIENTED_EDGE('',*,*,#665,.T.);
#866=ORIENTED_EDGE('',*,*,#654,.T.);
#867=ORIENTED_EDGE('',*,*,#663,.F.);
#868=ORIENTED_EDGE('',*,*,#666,.T.);
#869=ORIENTED_EDGE('',*,*,#667,.T.);
#870=ORIENTED_EDGE('',*,*,#655,.T.);
#871=ORIENTED_EDGE('',*,*,#665,.F.);
#872=ORIENTED_EDGE('',*,*,#668,.T.);
#873=ORIENTED_EDGE('',*,*,#669,.T.);
#874=ORIENTED_EDGE('',*,*,#656,.T.);
#875=ORIENTED_EDGE('',*,*,#667,.F.);
#876=ORIENTED_EDGE('',*,*,#670,.T.);
#877=ORIENTED_EDGE('',*,*,#671,.T.);
#878=ORIENTED_EDGE('',*,*,#657,.T.);
#879=ORIENTED_EDGE('',*,*,#669,.F.);
#880=ORIENTED_EDGE('',*,*,#672,.T.);
#881=ORIENTED_EDGE('',*,*,#673,.T.);
#882=ORIENTED_EDGE('',*,*,#658,.T.);
#883=ORIENTED_EDGE('',*,*,#671,.F.);
#884=ORIENTED_EDGE('',*,*,#674,.T.);
#885=ORIENTED_EDGE('',*,*,#660,.F.);
#886=ORIENTED_EDGE('',*,*,#659,.T.);
#887=ORIENTED_EDGE('',*,*,#673,.F.);
#888=ORIENTED_EDGE('',*,*,#675,.T.);
#889=ORIENTED_EDGE('',*,*,#668,.F.);
#890=ORIENTED_EDGE('',*,*,#676,.T.);
#891=ORIENTED_EDGE('',*,*,#677,.F.);
#892=ORIENTED_EDGE('',*,*,#678,.F.);
#893=ORIENTED_EDGE('',*,*,#666,.F.);
#894=ORIENTED_EDGE('',*,*,#679,.T.);
#895=ORIENTED_EDGE('',*,*,#680,.F.);
#896=ORIENTED_EDGE('',*,*,#681,.F.);
#897=ORIENTED_EDGE('',*,*,#676,.F.);
#898=ORIENTED_EDGE('',*,*,#664,.F.);
#899=ORIENTED_EDGE('',*,*,#682,.F.);
#900=ORIENTED_EDGE('',*,*,#683,.F.);
#901=ORIENTED_EDGE('',*,*,#679,.F.);
#902=ORIENTED_EDGE('',*,*,#661,.F.);
#903=ORIENTED_EDGE('',*,*,#684,.T.);
#904=ORIENTED_EDGE('',*,*,#685,.F.);
#905=ORIENTED_EDGE('',*,*,#686,.F.);
#906=ORIENTED_EDGE('',*,*,#687,.F.);
#907=ORIENTED_EDGE('',*,*,#688,.T.);
#908=ORIENTED_EDGE('',*,*,#689,.T.);
#909=ORIENTED_EDGE('',*,*,#690,.T.);
#910=ORIENTED_EDGE('',*,*,#691,.T.);
#911=ORIENTED_EDGE('',*,*,#692,.T.);
#912=ORIENTED_EDGE('',*,*,#682,.T.);
#913=ORIENTED_EDGE('',*,*,#693,.T.);
#914=ORIENTED_EDGE('',*,*,#687,.T.);
#915=ORIENTED_EDGE('',*,*,#694,.T.);
#916=ORIENTED_EDGE('',*,*,#695,.T.);
#917=ORIENTED_EDGE('',*,*,#696,.T.);
#918=ORIENTED_EDGE('',*,*,#697,.T.);
#919=ORIENTED_EDGE('',*,*,#698,.T.);
#920=ORIENTED_EDGE('',*,*,#699,.F.);
#921=ORIENTED_EDGE('',*,*,#680,.T.);
#922=ORIENTED_EDGE('',*,*,#700,.T.);
#923=ORIENTED_EDGE('',*,*,#701,.T.);
#924=ORIENTED_EDGE('',*,*,#697,.F.);
#925=ORIENTED_EDGE('',*,*,#702,.T.);
#926=ORIENTED_EDGE('',*,*,#692,.F.);
#927=ORIENTED_EDGE('',*,*,#703,.T.);
#928=ORIENTED_EDGE('',*,*,#700,.F.);
#929=ORIENTED_EDGE('',*,*,#683,.T.);
#930=ORIENTED_EDGE('',*,*,#704,.T.);
#931=ORIENTED_EDGE('',*,*,#705,.T.);
#932=ORIENTED_EDGE('',*,*,#706,.T.);
#933=ORIENTED_EDGE('',*,*,#707,.T.);
#934=ORIENTED_EDGE('',*,*,#644,.T.);
#935=ORIENTED_EDGE('',*,*,#647,.T.);
#936=ORIENTED_EDGE('',*,*,#649,.T.);
#937=ORIENTED_EDGE('',*,*,#651,.T.);
#938=ORIENTED_EDGE('',*,*,#695,.F.);
#939=ORIENTED_EDGE('',*,*,#708,.T.);
#940=ORIENTED_EDGE('',*,*,#709,.T.);
#941=ORIENTED_EDGE('',*,*,#710,.T.);
#942=ORIENTED_EDGE('',*,*,#711,.F.);
#943=ORIENTED_EDGE('',*,*,#712,.F.);
#944=ORIENTED_EDGE('',*,*,#713,.F.);
#945=ORIENTED_EDGE('',*,*,#714,.F.);
#946=ORIENTED_EDGE('',*,*,#715,.T.);
#947=ORIENTED_EDGE('',*,*,#716,.T.);
#948=ORIENTED_EDGE('',*,*,#717,.T.);
#949=ORIENTED_EDGE('',*,*,#718,.F.);
#950=ORIENTED_EDGE('',*,*,#719,.T.);
#951=ORIENTED_EDGE('',*,*,#720,.T.);
#952=ORIENTED_EDGE('',*,*,#721,.T.);
#953=ORIENTED_EDGE('',*,*,#698,.F.);
#954=ORIENTED_EDGE('',*,*,#701,.F.);
#955=ORIENTED_EDGE('',*,*,#703,.F.);
#956=ORIENTED_EDGE('',*,*,#691,.F.);
#957=ORIENTED_EDGE('',*,*,#722,.T.);
#958=ORIENTED_EDGE('',*,*,#723,.T.);
#959=ORIENTED_EDGE('',*,*,#724,.T.);
#960=ORIENTED_EDGE('',*,*,#690,.F.);
#961=ORIENTED_EDGE('',*,*,#725,.F.);
#962=ORIENTED_EDGE('',*,*,#726,.T.);
#963=ORIENTED_EDGE('',*,*,#727,.F.);
#964=ORIENTED_EDGE('',*,*,#728,.F.);
#965=ORIENTED_EDGE('',*,*,#722,.F.);
#966=ORIENTED_EDGE('',*,*,#689,.F.);
#967=ORIENTED_EDGE('',*,*,#729,.F.);
#968=ORIENTED_EDGE('',*,*,#730,.T.);
#969=ORIENTED_EDGE('',*,*,#725,.T.);
#970=ORIENTED_EDGE('',*,*,#731,.T.);
#971=ORIENTED_EDGE('',*,*,#732,.T.);
#972=ORIENTED_EDGE('',*,*,#733,.T.);
#973=ORIENTED_EDGE('',*,*,#718,.T.);
#974=ORIENTED_EDGE('',*,*,#670,.F.);
#975=ORIENTED_EDGE('',*,*,#678,.T.);
#976=ORIENTED_EDGE('',*,*,#734,.F.);
#977=ORIENTED_EDGE('',*,*,#735,.F.);
#978=ORIENTED_EDGE('',*,*,#732,.F.);
#979=ORIENTED_EDGE('',*,*,#736,.T.);
#980=ORIENTED_EDGE('',*,*,#737,.T.);
#981=ORIENTED_EDGE('',*,*,#738,.T.);
#982=ORIENTED_EDGE('',*,*,#714,.T.);
#983=ORIENTED_EDGE('',*,*,#739,.T.);
#984=ORIENTED_EDGE('',*,*,#740,.T.);
#985=ORIENTED_EDGE('',*,*,#741,.T.);
#986=ORIENTED_EDGE('',*,*,#742,.T.);
#987=ORIENTED_EDGE('',*,*,#711,.T.);
#988=ORIENTED_EDGE('',*,*,#743,.F.);
#989=ORIENTED_EDGE('',*,*,#744,.T.);
#990=ORIENTED_EDGE('',*,*,#745,.T.);
#991=ORIENTED_EDGE('',*,*,#712,.T.);
#992=ORIENTED_EDGE('',*,*,#742,.F.);
#993=ORIENTED_EDGE('',*,*,#746,.T.);
#994=ORIENTED_EDGE('',*,*,#739,.F.);
#995=ORIENTED_EDGE('',*,*,#713,.T.);
#996=ORIENTED_EDGE('',*,*,#745,.F.);
#997=ORIENTED_EDGE('',*,*,#747,.T.);
#998=ORIENTED_EDGE('',*,*,#738,.F.);
#999=ORIENTED_EDGE('',*,*,#748,.F.);
#1000=ORIENTED_EDGE('',*,*,#749,.T.);
#1001=ORIENTED_EDGE('',*,*,#750,.F.);
#1002=ORIENTED_EDGE('',*,*,#751,.F.);
#1003=ORIENTED_EDGE('',*,*,#715,.F.);
#1004=ORIENTED_EDGE('',*,*,#737,.F.);
#1005=ORIENTED_EDGE('',*,*,#752,.F.);
#1006=ORIENTED_EDGE('',*,*,#753,.T.);
#1007=ORIENTED_EDGE('',*,*,#748,.T.);
#1008=ORIENTED_EDGE('',*,*,#754,.T.);
#1009=ORIENTED_EDGE('',*,*,#734,.T.);
#1010=ORIENTED_EDGE('',*,*,#677,.T.);
#1011=ORIENTED_EDGE('',*,*,#681,.T.);
#1012=ORIENTED_EDGE('',*,*,#699,.T.);
#1013=ORIENTED_EDGE('',*,*,#755,.T.);
#1014=ORIENTED_EDGE('',*,*,#756,.T.);
#1015=ORIENTED_EDGE('',*,*,#753,.F.);
#1016=ORIENTED_EDGE('',*,*,#757,.T.);
#1017=ORIENTED_EDGE('',*,*,#758,.F.);
#1018=ORIENTED_EDGE('',*,*,#749,.F.);
#1019=ORIENTED_EDGE('',*,*,#730,.F.);
#1020=ORIENTED_EDGE('',*,*,#759,.T.);
#1021=ORIENTED_EDGE('',*,*,#760,.F.);
#1022=ORIENTED_EDGE('',*,*,#726,.F.);
#1023=ORIENTED_EDGE('',*,*,#761,.T.);
#1024=ORIENTED_EDGE('',*,*,#685,.T.);
#1025=ORIENTED_EDGE('',*,*,#762,.T.);
#1026=ORIENTED_EDGE('',*,*,#763,.T.);
#1027=ORIENTED_EDGE('',*,*,#743,.T.);
#1028=ORIENTED_EDGE('',*,*,#764,.T.);
#1029=ORIENTED_EDGE('',*,*,#765,.T.);
#1030=ORIENTED_EDGE('',*,*,#766,.T.);
#1031=ORIENTED_EDGE('',*,*,#767,.T.);
#1032=ORIENTED_EDGE('',*,*,#768,.T.);
#1033=ORIENTED_EDGE('',*,*,#769,.T.);
#1034=ORIENTED_EDGE('',*,*,#770,.T.);
#1035=ORIENTED_EDGE('',*,*,#767,.F.);
#1036=ORIENTED_EDGE('',*,*,#771,.F.);
#1037=ORIENTED_EDGE('',*,*,#708,.F.);
#1038=ORIENTED_EDGE('',*,*,#694,.F.);
#1039=ORIENTED_EDGE('',*,*,#686,.T.);
#1040=ORIENTED_EDGE('',*,*,#761,.F.);
#1041=ORIENTED_EDGE('',*,*,#765,.F.);
#1042=ORIENTED_EDGE('',*,*,#772,.T.);
#1043=ORIENTED_EDGE('',*,*,#768,.F.);
#1044=ORIENTED_EDGE('',*,*,#770,.F.);
#1045=ORIENTED_EDGE('',*,*,#773,.T.);
#1046=ORIENTED_EDGE('',*,*,#769,.F.);
#1047=ORIENTED_EDGE('',*,*,#772,.F.);
#1048=ORIENTED_EDGE('',*,*,#764,.F.);
#1049=ORIENTED_EDGE('',*,*,#746,.F.);
#1050=ORIENTED_EDGE('',*,*,#741,.F.);
#1051=ORIENTED_EDGE('',*,*,#710,.F.);
#1052=ORIENTED_EDGE('',*,*,#771,.T.);
#1053=ORIENTED_EDGE('',*,*,#766,.F.);
#1054=ORIENTED_EDGE('',*,*,#773,.F.);
#1055=ORIENTED_EDGE('',*,*,#709,.F.);
#1056=ORIENTED_EDGE('',*,*,#774,.T.);
#1057=ORIENTED_EDGE('',*,*,#727,.T.);
#1058=ORIENTED_EDGE('',*,*,#760,.T.);
#1059=ORIENTED_EDGE('',*,*,#775,.T.);
#1060=ORIENTED_EDGE('',*,*,#776,.T.);
#1061=ORIENTED_EDGE('',*,*,#775,.F.);
#1062=ORIENTED_EDGE('',*,*,#759,.F.);
#1063=ORIENTED_EDGE('',*,*,#729,.T.);
#1064=ORIENTED_EDGE('',*,*,#688,.F.);
#1065=ORIENTED_EDGE('',*,*,#693,.F.);
#1066=ORIENTED_EDGE('',*,*,#724,.F.);
#1067=ORIENTED_EDGE('',*,*,#728,.T.);
#1068=ORIENTED_EDGE('',*,*,#774,.F.);
#1069=ORIENTED_EDGE('',*,*,#776,.F.);
#1070=ORIENTED_EDGE('',*,*,#723,.F.);
#1071=ORIENTED_EDGE('',*,*,#758,.T.);
#1072=ORIENTED_EDGE('',*,*,#777,.T.);
#1073=ORIENTED_EDGE('',*,*,#778,.T.);
#1074=ORIENTED_EDGE('',*,*,#750,.T.);
#1075=ORIENTED_EDGE('',*,*,#779,.T.);
#1076=ORIENTED_EDGE('',*,*,#777,.F.);
#1077=ORIENTED_EDGE('',*,*,#757,.F.);
#1078=ORIENTED_EDGE('',*,*,#752,.T.);
#1079=ORIENTED_EDGE('',*,*,#736,.F.);
#1080=ORIENTED_EDGE('',*,*,#731,.F.);
#1081=ORIENTED_EDGE('',*,*,#717,.F.);
#1082=ORIENTED_EDGE('',*,*,#751,.T.);
#1083=ORIENTED_EDGE('',*,*,#778,.F.);
#1084=ORIENTED_EDGE('',*,*,#779,.F.);
#1085=ORIENTED_EDGE('',*,*,#716,.F.);
#1086=ORIENTED_EDGE('',*,*,#780,.T.);
#1087=ORIENTED_EDGE('',*,*,#781,.T.);
#1088=ORIENTED_EDGE('',*,*,#782,.T.);
#1089=ORIENTED_EDGE('',*,*,#783,.T.);
#1090=ORIENTED_EDGE('',*,*,#784,.T.);
#1091=ORIENTED_EDGE('',*,*,#781,.F.);
#1092=ORIENTED_EDGE('',*,*,#785,.F.);
#1093=ORIENTED_EDGE('',*,*,#755,.F.);
#1094=ORIENTED_EDGE('',*,*,#702,.F.);
#1095=ORIENTED_EDGE('',*,*,#696,.F.);
#1096=ORIENTED_EDGE('',*,*,#721,.F.);
#1097=ORIENTED_EDGE('',*,*,#786,.T.);
#1098=ORIENTED_EDGE('',*,*,#782,.F.);
#1099=ORIENTED_EDGE('',*,*,#784,.F.);
#1100=ORIENTED_EDGE('',*,*,#720,.F.);
#1101=ORIENTED_EDGE('',*,*,#787,.T.);
#1102=ORIENTED_EDGE('',*,*,#783,.F.);
#1103=ORIENTED_EDGE('',*,*,#786,.F.);
#1104=ORIENTED_EDGE('',*,*,#719,.F.);
#1105=ORIENTED_EDGE('',*,*,#733,.F.);
#1106=ORIENTED_EDGE('',*,*,#735,.T.);
#1107=ORIENTED_EDGE('',*,*,#754,.F.);
#1108=ORIENTED_EDGE('',*,*,#756,.F.);
#1109=ORIENTED_EDGE('',*,*,#785,.T.);
#1110=ORIENTED_EDGE('',*,*,#780,.F.);
#1111=ORIENTED_EDGE('',*,*,#787,.F.);
#1112=ORIENTED_EDGE('',*,*,#675,.F.);
#1113=ORIENTED_EDGE('',*,*,#788,.T.);
#1114=ORIENTED_EDGE('',*,*,#762,.F.);
#1115=ORIENTED_EDGE('',*,*,#684,.F.);
#1116=ORIENTED_EDGE('',*,*,#672,.F.);
#1117=ORIENTED_EDGE('',*,*,#740,.F.);
#1118=ORIENTED_EDGE('',*,*,#747,.F.);
#1119=ORIENTED_EDGE('',*,*,#789,.F.);
#1120=ORIENTED_EDGE('',*,*,#674,.F.);
#1121=ORIENTED_EDGE('',*,*,#789,.T.);
#1122=ORIENTED_EDGE('',*,*,#744,.F.);
#1123=ORIENTED_EDGE('',*,*,#763,.F.);
#1124=ORIENTED_EDGE('',*,*,#788,.F.);
#1125=ORIENTED_EDGE('',*,*,#640,.F.);
#1126=ORIENTED_EDGE('',*,*,#790,.T.);
#1127=ORIENTED_EDGE('',*,*,#705,.F.);
#1128=ORIENTED_EDGE('',*,*,#791,.F.);
#1129=ORIENTED_EDGE('',*,*,#634,.F.);
#1130=ORIENTED_EDGE('',*,*,#645,.T.);
#1131=ORIENTED_EDGE('',*,*,#707,.F.);
#1132=ORIENTED_EDGE('',*,*,#792,.F.);
#1133=ORIENTED_EDGE('',*,*,#642,.F.);
#1134=ORIENTED_EDGE('',*,*,#791,.T.);
#1135=ORIENTED_EDGE('',*,*,#704,.F.);
#1136=ORIENTED_EDGE('',*,*,#650,.F.);
#1137=ORIENTED_EDGE('',*,*,#637,.F.);
#1138=ORIENTED_EDGE('',*,*,#792,.T.);
#1139=ORIENTED_EDGE('',*,*,#706,.F.);
#1140=ORIENTED_EDGE('',*,*,#790,.F.);
#1141=TOROIDAL_SURFACE('',#1229,1.6,0.4);
#1142=TOROIDAL_SURFACE('',#1236,1.6,0.4);
#1143=TOROIDAL_SURFACE('',#1242,1.6,0.4);
#1144=TOROIDAL_SURFACE('',#1248,1.6,0.4);
#1145=TOROIDAL_SURFACE('',#1267,1.2,0.4);
#1146=TOROIDAL_SURFACE('',#1272,1.2,0.4);
#1147=TOROIDAL_SURFACE('',#1277,1.2,0.4);
#1148=TOROIDAL_SURFACE('',#1282,1.2,0.4);
#1149=ADVANCED_FACE('',(#333),#1141,.T.);
#1150=ADVANCED_FACE('',(#334),#317,.T.);
#1151=ADVANCED_FACE('',(#335),#1142,.T.);
#1152=ADVANCED_FACE('',(#336),#318,.T.);
#1153=ADVANCED_FACE('',(#337),#1143,.T.);
#1154=ADVANCED_FACE('',(#338),#319,.T.);
#1155=ADVANCED_FACE('',(#339),#1144,.T.);
#1156=ADVANCED_FACE('',(#340),#320,.T.);
#1157=ADVANCED_FACE('',(#341),#27,.F.);
#1158=ADVANCED_FACE('',(#342),#321,.T.);
#1159=ADVANCED_FACE('',(#343),#28,.F.);
#1160=ADVANCED_FACE('',(#344),#322,.T.);
#1161=ADVANCED_FACE('',(#345,#25),#29,.T.);
#1162=ADVANCED_FACE('',(#346),#323,.T.);
#1163=ADVANCED_FACE('',(#347),#1145,.T.);
#1164=ADVANCED_FACE('',(#348),#324,.T.);
#1165=ADVANCED_FACE('',(#349),#1146,.T.);
#1166=ADVANCED_FACE('',(#350),#325,.T.);
#1167=ADVANCED_FACE('',(#351),#1147,.T.);
#1168=ADVANCED_FACE('',(#352),#326,.T.);
#1169=ADVANCED_FACE('',(#353),#1148,.T.);
#1170=ADVANCED_FACE('',(#354),#327,.F.);
#1171=ADVANCED_FACE('',(#355),#30,.T.);
#1172=ADVANCED_FACE('',(#356),#328,.F.);
#1173=ADVANCED_FACE('',(#357),#31,.T.);
#1174=ADVANCED_FACE('',(#358),#32,.T.);
#1175=ADVANCED_FACE('',(#359),#15,.F.);
#1176=ADVANCED_FACE('',(#360),#33,.T.);
#1177=ADVANCED_FACE('',(#361),#16,.F.);
#1178=ADVANCED_FACE('',(#362,#26),#34,.F.);
#1179=ADVANCED_FACE('',(#363),#35,.F.);
#1180=ADVANCED_FACE('',(#364),#36,.T.);
#1181=ADVANCED_FACE('',(#365),#37,.T.);
#1182=ADVANCED_FACE('',(#366),#38,.T.);
#1183=ADVANCED_FACE('',(#367),#17,.F.);
#1184=ADVANCED_FACE('',(#368),#39,.T.);
#1185=ADVANCED_FACE('',(#369),#18,.F.);
#1186=ADVANCED_FACE('',(#370),#40,.F.);
#1187=ADVANCED_FACE('',(#371),#41,.T.);
#1188=ADVANCED_FACE('',(#372),#42,.T.);
#1189=ADVANCED_FACE('',(#373),#43,.F.);
#1190=ADVANCED_FACE('',(#374),#44,.F.);
#1191=ADVANCED_FACE('',(#375),#45,.T.);
#1192=ADVANCED_FACE('',(#376),#46,.F.);
#1193=ADVANCED_FACE('',(#377),#47,.F.);
#1194=ADVANCED_FACE('',(#378),#48,.F.);
#1195=ADVANCED_FACE('',(#379),#49,.F.);
#1196=ADVANCED_FACE('',(#380),#50,.F.);
#1197=ADVANCED_FACE('',(#381),#51,.F.);
#1198=ADVANCED_FACE('',(#382),#52,.F.);
#1199=ADVANCED_FACE('',(#383),#53,.F.);
#1200=ADVANCED_FACE('',(#384),#54,.F.);
#1201=ADVANCED_FACE('',(#385),#55,.F.);
#1202=ADVANCED_FACE('',(#386),#56,.F.);
#1203=ADVANCED_FACE('',(#387),#57,.F.);
#1204=ADVANCED_FACE('',(#388),#58,.F.);
#1205=ADVANCED_FACE('',(#389),#59,.F.);
#1206=ADVANCED_FACE('',(#390),#60,.F.);
#1207=ADVANCED_FACE('',(#391),#61,.F.);
#1208=ADVANCED_FACE('',(#392),#329,.F.);
#1209=ADVANCED_FACE('',(#393),#330,.F.);
#1210=ADVANCED_FACE('',(#394),#62,.T.);
#1211=ADVANCED_FACE('',(#395),#331,.T.);
#1212=ADVANCED_FACE('',(#396),#332,.T.);
#1213=ADVANCED_FACE('',(#397),#63,.F.);
#1214=ADVANCED_FACE('',(#398),#64,.F.);
#1215=CLOSED_SHELL('',(#1149,#1150,#1151,#1152,#1153,#1154,#1155,#1156,
#1157,#1158,#1159,#1160,#1161,#1162,#1163,#1164,#1165,#1166,#1167,#1168,
#1169,#1170,#1171,#1172,#1173,#1174,#1175,#1176,#1177,#1178,#1179,#1180,
#1181,#1182,#1183,#1184,#1185,#1186,#1187,#1188,#1189,#1190,#1191,#1192,
#1193,#1194,#1195,#1196,#1197,#1198,#1199,#1200,#1201,#1202,#1203,#1204,
#1205,#1206,#1207,#1208,#1209,#1210,#1211,#1212,#1213,#1214));
#1216=DERIVED_UNIT_ELEMENT(#1218,1.);
#1217=DERIVED_UNIT_ELEMENT(#2051,-3.);
#1218=(
MASS_UNIT()
NAMED_UNIT(*)
SI_UNIT(.KILO.,.GRAM.)
);
#1219=DERIVED_UNIT((#1216,#1217));
#1220=MEASURE_REPRESENTATION_ITEM('density measure',
POSITIVE_RATIO_MEASURE(7850.),#1219);
#1221=PROPERTY_DEFINITION_REPRESENTATION(#1226,#1223);
#1222=PROPERTY_DEFINITION_REPRESENTATION(#1227,#1224);
#1223=REPRESENTATION('material name',(#1225),#2048);
#1224=REPRESENTATION('density',(#1220),#2048);
#1225=DESCRIPTIVE_REPRESENTATION_ITEM('Steel','Steel');
#1226=PROPERTY_DEFINITION('material property','material name',#2058);
#1227=PROPERTY_DEFINITION('material property','density of part',#2058);
#1228=AXIS2_PLACEMENT_3D('',#1687,#1339,#1340);
#1229=AXIS2_PLACEMENT_3D('',#1688,#1341,#1342);
#1230=AXIS2_PLACEMENT_3D('',#1691,#1343,#1344);
#1231=AXIS2_PLACEMENT_3D('',#1693,#1345,#1346);
#1232=AXIS2_PLACEMENT_3D('',#1695,#1347,#1348);
#1233=AXIS2_PLACEMENT_3D('',#1696,#1349,#1350);
#1234=AXIS2_PLACEMENT_3D('',#1697,#1351,#1352);
#1235=AXIS2_PLACEMENT_3D('',#1700,#1353,#1354);
#1236=AXIS2_PLACEMENT_3D('',#1703,#1357,#1358);
#1237=AXIS2_PLACEMENT_3D('',#1706,#1359,#1360);
#1238=AXIS2_PLACEMENT_3D('',#1707,#1361,#1362);
#1239=AXIS2_PLACEMENT_3D('',#1708,#1363,#1364);
#1240=AXIS2_PLACEMENT_3D('',#1709,#1365,#1366);
#1241=AXIS2_PLACEMENT_3D('',#1712,#1367,#1368);
#1242=AXIS2_PLACEMENT_3D('',#1715,#1371,#1372);
#1243=AXIS2_PLACEMENT_3D('',#1718,#1373,#1374);
#1244=AXIS2_PLACEMENT_3D('',#1719,#1375,#1376);
#1245=AXIS2_PLACEMENT_3D('',#1720,#1377,#1378);
#1246=AXIS2_PLACEMENT_3D('',#1721,#1379,#1380);
#1247=AXIS2_PLACEMENT_3D('',#1724,#1381,#1382);
#1248=AXIS2_PLACEMENT_3D('',#1727,#1385,#1386);
#1249=AXIS2_PLACEMENT_3D('',#1730,#1387,#1388);
#1250=AXIS2_PLACEMENT_3D('',#1731,#1389,#1390);
#1251=AXIS2_PLACEMENT_3D('',#1732,#1391,#1392);
#1252=AXIS2_PLACEMENT_3D('',#1733,#1393,#1394);
#1253=AXIS2_PLACEMENT_3D('',#1736,#1397,#1398);
#1254=AXIS2_PLACEMENT_3D('',#1742,#1402,#1403);
#1255=AXIS2_PLACEMENT_3D('',#1745,#1405,#1406);
#1256=AXIS2_PLACEMENT_3D('',#1746,#1407,#1408);
#1257=AXIS2_PLACEMENT_3D('',#1750,#1411,#1412);
#1258=AXIS2_PLACEMENT_3D('',#1753,#1414,#1415);
#1259=AXIS2_PLACEMENT_3D('',#1754,#1416,#1417);
#1260=AXIS2_PLACEMENT_3D('',#1759,#1419,#1420);
#1261=AXIS2_PLACEMENT_3D('',#1763,#1422,#1423);
#1262=AXIS2_PLACEMENT_3D('',#1767,#1425,#1426);
#1263=AXIS2_PLACEMENT_3D('',#1770,#1428,#1429);
#1264=AXIS2_PLACEMENT_3D('',#1771,#1430,#1431);
#1265=AXIS2_PLACEMENT_3D('',#1773,#1432,#1433);
#1266=AXIS2_PLACEMENT_3D('',#1776,#1435,#1436);
#1267=AXIS2_PLACEMENT_3D('',#1777,#1437,#1438);
#1268=AXIS2_PLACEMENT_3D('',#1779,#1439,#1440);
#1269=AXIS2_PLACEMENT_3D('',#1780,#1441,#1442);
#1270=AXIS2_PLACEMENT_3D('',#1781,#1443,#1444);
#1271=AXIS2_PLACEMENT_3D('',#1783,#1445,#1446);
#1272=AXIS2_PLACEMENT_3D('',#1785,#1448,#1449);
#1273=AXIS2_PLACEMENT_3D('',#1787,#1450,#1451);
#1274=AXIS2_PLACEMENT_3D('',#1788,#1452,#1453);
#1275=AXIS2_PLACEMENT_3D('',#1789,#1454,#1455);
#1276=AXIS2_PLACEMENT_3D('',#1791,#1456,#1457);
#1277=AXIS2_PLACEMENT_3D('',#1793,#1459,#1460);
#1278=AXIS2_PLACEMENT_3D('',#1795,#1461,#1462);
#1279=AXIS2_PLACEMENT_3D('',#1796,#1463,#1464);
#1280=AXIS2_PLACEMENT_3D('',#1797,#1465,#1466);
#1281=AXIS2_PLACEMENT_3D('',#1799,#1467,#1468);
#1282=AXIS2_PLACEMENT_3D('',#1801,#1470,#1471);
#1283=AXIS2_PLACEMENT_3D('',#1802,#1472,#1473);
#1284=AXIS2_PLACEMENT_3D('',#1803,#1474,#1475);
#1285=AXIS2_PLACEMENT_3D('',#1807,#1477,#1478);
#1286=AXIS2_PLACEMENT_3D('',#1809,#1480,#1481);
#1287=AXIS2_PLACEMENT_3D('',#1815,#1485,#1486);
#1288=AXIS2_PLACEMENT_3D('',#1818,#1488,#1489);
#1289=AXIS2_PLACEMENT_3D('',#1819,#1490,#1491);
#1290=AXIS2_PLACEMENT_3D('',#1839,#1500,#1501);
#1291=AXIS2_PLACEMENT_3D('',#1845,#1505,#1506);
#1292=AXIS2_PLACEMENT_3D('',#1853,#1508,#1509);
#1293=AXIS2_PLACEMENT_3D('',#1854,#1510,#1511);
#1294=AXIS2_PLACEMENT_3D('',#1861,#1516,#1517);
#1295=AXIS2_PLACEMENT_3D('',#1862,#1518,#1519);
#1296=AXIS2_PLACEMENT_3D('',#1863,#1520,#1521);
#1297=AXIS2_PLACEMENT_3D('',#1867,#1523,#1524);
#1298=AXIS2_PLACEMENT_3D('',#1870,#1526,#1527);
#1299=AXIS2_PLACEMENT_3D('',#1878,#1531,#1532);
#1300=AXIS2_PLACEMENT_3D('',#1882,#1534,#1535);
#1301=AXIS2_PLACEMENT_3D('',#1903,#1547,#1548);
#1302=AXIS2_PLACEMENT_3D('',#1911,#1553,#1554);
#1303=AXIS2_PLACEMENT_3D('',#1915,#1557,#1558);
#1304=AXIS2_PLACEMENT_3D('',#1921,#1562,#1563);
#1305=AXIS2_PLACEMENT_3D('',#1935,#1570,#1571);
#1306=AXIS2_PLACEMENT_3D('',#1941,#1573,#1574);
#1307=AXIS2_PLACEMENT_3D('',#1949,#1579,#1580);
#1308=AXIS2_PLACEMENT_3D('',#1950,#1581,#1582);
#1309=AXIS2_PLACEMENT_3D('',#1951,#1583,#1584);
#1310=AXIS2_PLACEMENT_3D('',#1959,#1589,#1590);
#1311=AXIS2_PLACEMENT_3D('',#1963,#1593,#1594);
#1312=AXIS2_PLACEMENT_3D('',#1969,#1598,#1599);
#1313=AXIS2_PLACEMENT_3D('',#1973,#1602,#1603);
#1314=AXIS2_PLACEMENT_3D('',#1977,#1606,#1607);
#1315=AXIS2_PLACEMENT_3D('',#1981,#1609,#1610);
#1316=AXIS2_PLACEMENT_3D('',#1986,#1614,#1615);
#1317=AXIS2_PLACEMENT_3D('',#1995,#1620,#1621);
#1318=AXIS2_PLACEMENT_3D('',#1998,#1624,#1625);
#1319=AXIS2_PLACEMENT_3D('',#2000,#1627,#1628);
#1320=AXIS2_PLACEMENT_3D('',#2002,#1630,#1631);
#1321=AXIS2_PLACEMENT_3D('',#2003,#1632,#1633);
#1322=AXIS2_PLACEMENT_3D('',#2007,#1636,#1637);
#1323=AXIS2_PLACEMENT_3D('',#2009,#1639,#1640);
#1324=AXIS2_PLACEMENT_3D('',#2010,#1641,#1642);
#1325=AXIS2_PLACEMENT_3D('',#2014,#1645,#1646);
#1326=AXIS2_PLACEMENT_3D('',#2016,#1648,#1649);
#1327=AXIS2_PLACEMENT_3D('',#2017,#1650,#1651);
#1328=AXIS2_PLACEMENT_3D('',#2026,#1656,#1657);
#1329=AXIS2_PLACEMENT_3D('',#2029,#1660,#1661);
#1330=AXIS2_PLACEMENT_3D('',#2031,#1663,#1664);
#1331=AXIS2_PLACEMENT_3D('',#2033,#1666,#1667);
#1332=AXIS2_PLACEMENT_3D('',#2034,#1668,#1669);
#1333=AXIS2_PLACEMENT_3D('',#2036,#1671,#1672);
#1334=AXIS2_PLACEMENT_3D('',#2038,#1674,#1675);
#1335=AXIS2_PLACEMENT_3D('',#2039,#1676,#1677);
#1336=AXIS2_PLACEMENT_3D('',#2042,#1680,#1681);
#1337=AXIS2_PLACEMENT_3D('',#2044,#1683,#1684);
#1338=AXIS2_PLACEMENT_3D('',#2045,#1685,#1686);
#1339=DIRECTION('axis',(0.,0.,1.));
#1340=DIRECTION('refdir',(1.,0.,0.));
#1341=DIRECTION('center_axis',(0.,0.,1.));
#1342=DIRECTION('ref_axis',(1.,0.,0.));
#1343=DIRECTION('center_axis',(-2.77555756156289E-15,1.,0.));
#1344=DIRECTION('ref_axis',(0.,0.,1.));
#1345=DIRECTION('center_axis',(0.,0.,1.));
#1346=DIRECTION('ref_axis',(0.707106781186547,0.707106781186548,0.));
#1347=DIRECTION('center_axis',(1.,0.,0.));
#1348=DIRECTION('ref_axis',(0.,1.,0.));
#1349=DIRECTION('center_axis',(0.,0.,-1.));
#1350=DIRECTION('ref_axis',(0.707106781186547,0.707106781186548,0.));
#1351=DIRECTION('center_axis',(-1.,0.,0.));
#1352=DIRECTION('ref_axis',(0.,0.707106781186548,0.707106781186548));
#1353=DIRECTION('center_axis',(1.,0.,0.));
#1354=DIRECTION('ref_axis',(0.,1.,0.));
#1355=DIRECTION('',(1.,0.,0.));
#1356=DIRECTION('',(-1.,0.,0.));
#1357=DIRECTION('center_axis',(0.,0.,1.));
#1358=DIRECTION('ref_axis',(1.,0.,0.));
#1359=DIRECTION('center_axis',(2.77555756156289E-15,1.,0.));
#1360=DIRECTION('ref_axis',(-1.,2.77555756156289E-15,0.));
#1361=DIRECTION('center_axis',(0.,0.,-1.));
#1362=DIRECTION('ref_axis',(-0.707106781186547,0.707106781186548,0.));
#1363=DIRECTION('center_axis',(0.,0.,1.));
#1364=DIRECTION('ref_axis',(-0.707106781186547,0.707106781186548,0.));
#1365=DIRECTION('center_axis',(0.,-1.,0.));
#1366=DIRECTION('ref_axis',(-0.707106781186548,0.,0.707106781186548));
#1367=DIRECTION('center_axis',(0.,1.,0.));
#1368=DIRECTION('ref_axis',(-1.,0.,0.));
#1369=DIRECTION('',(0.,1.,0.));
#1370=DIRECTION('',(0.,-1.,0.));
#1371=DIRECTION('center_axis',(0.,0.,1.));
#1372=DIRECTION('ref_axis',(1.,0.,0.));
#1373=DIRECTION('center_axis',(-1.,0.,0.));
#1374=DIRECTION('ref_axis',(0.,-1.,0.));
#1375=DIRECTION('center_axis',(0.,0.,-1.));
#1376=DIRECTION('ref_axis',(-0.707106781186547,-0.707106781186548,0.));
#1377=DIRECTION('center_axis',(0.,0.,1.));
#1378=DIRECTION('ref_axis',(-0.707106781186547,-0.707106781186548,0.));
#1379=DIRECTION('center_axis',(1.,0.,0.));
#1380=DIRECTION('ref_axis',(0.,-0.707106781186548,0.707106781186548));
#1381=DIRECTION('center_axis',(-1.,0.,0.));
#1382=DIRECTION('ref_axis',(0.,-1.,0.));
#1383=DIRECTION('',(-1.,0.,0.));
#1384=DIRECTION('',(1.,0.,0.));
#1385=DIRECTION('center_axis',(0.,0.,1.));
#1386=DIRECTION('ref_axis',(1.,0.,0.));
#1387=DIRECTION('center_axis',(-2.77555756156289E-15,-1.,0.));
#1388=DIRECTION('ref_axis',(1.,-2.77555756156289E-15,0.));
#1389=DIRECTION('center_axis',(0.,0.,-1.));
#1390=DIRECTION('ref_axis',(0.707106781186547,-0.707106781186548,0.));
#1391=DIRECTION('center_axis',(0.,0.,1.));
#1392=DIRECTION('ref_axis',(0.707106781186547,-0.707106781186548,0.));
#1393=DIRECTION('center_axis',(0.,1.,0.));
#1394=DIRECTION('ref_axis',(0.707106781186548,0.,0.707106781186548));
#1395=DIRECTION('',(0.,-1.,0.));
#1396=DIRECTION('',(0.,1.,0.));
#1397=DIRECTION('center_axis',(1.,0.,0.));
#1398=DIRECTION('ref_axis',(0.,0.,-1.));
#1399=DIRECTION('',(0.,0.,-1.));
#1400=DIRECTION('',(0.,1.,0.));
#1401=DIRECTION('',(0.,0.,-1.));
#1402=DIRECTION('center_axis',(0.,0.,1.));
#1403=DIRECTION('ref_axis',(1.,0.,0.));
#1404=DIRECTION('',(0.,0.,-1.));
#1405=DIRECTION('center_axis',(0.,0.,-1.));
#1406=DIRECTION('ref_axis',(1.,0.,0.));
#1407=DIRECTION('center_axis',(0.,-1.,0.));
#1408=DIRECTION('ref_axis',(0.,0.,-1.));
#1409=DIRECTION('',(0.,0.,-1.));
#1410=DIRECTION('',(1.,0.,0.));
#1411=DIRECTION('center_axis',(0.,0.,1.));
#1412=DIRECTION('ref_axis',(1.,0.,0.));
#1413=DIRECTION('',(0.,0.,-1.));
#1414=DIRECTION('center_axis',(0.,0.,-1.));
#1415=DIRECTION('ref_axis',(1.,0.,0.));
#1416=DIRECTION('center_axis',(0.,0.,1.));
#1417=DIRECTION('ref_axis',(1.,0.,0.));
#1418=DIRECTION('',(0.,1.,0.));
#1419=DIRECTION('center_axis',(0.,0.,1.));
#1420=DIRECTION('ref_axis',(0.707106781186547,-0.707106781186547,0.));
#1421=DIRECTION('',(1.,0.,0.));
#1422=DIRECTION('center_axis',(0.,0.,1.));
#1423=DIRECTION('ref_axis',(-0.707106781186547,-0.707106781186547,0.));
#1424=DIRECTION('',(0.,-1.,0.));
#1425=DIRECTION('center_axis',(0.,0.,1.));
#1426=DIRECTION('ref_axis',(-0.707106781186547,0.707106781186547,0.));
#1427=DIRECTION('',(-1.,0.,0.));
#1428=DIRECTION('center_axis',(0.,0.,1.));
#1429=DIRECTION('ref_axis',(0.707106781186547,0.707106781186547,0.));
#1430=DIRECTION('center_axis',(0.,-1.,0.));
#1431=DIRECTION('ref_axis',(-0.707106781186548,0.,0.707106781186548));
#1432=DIRECTION('center_axis',(0.,-1.,0.));
#1433=DIRECTION('ref_axis',(0.,0.,1.));
#1434=DIRECTION('',(0.,-1.,0.));
#1435=DIRECTION('center_axis',(0.,1.,0.));
#1436=DIRECTION('ref_axis',(-1.,0.,0.));
#1437=DIRECTION('center_axis',(0.,0.,-1.));
#1438=DIRECTION('ref_axis',(-1.,0.,0.));
#1439=DIRECTION('center_axis',(1.,0.,0.));
#1440=DIRECTION('ref_axis',(0.,1.,0.));
#1441=DIRECTION('center_axis',(0.,0.,-1.));
#1442=DIRECTION('ref_axis',(0.707106781186548,-0.707106781186548,0.));
#1443=DIRECTION('center_axis',(-1.,0.,0.));
#1444=DIRECTION('ref_axis',(0.,0.707106781186548,0.707106781186548));
#1445=DIRECTION('center_axis',(1.,0.,0.));
#1446=DIRECTION('ref_axis',(0.,1.,0.));
#1447=DIRECTION('',(-1.,0.,0.));
#1448=DIRECTION('center_axis',(0.,0.,-1.));
#1449=DIRECTION('ref_axis',(-1.,0.,0.));
#1450=DIRECTION('center_axis',(0.,-1.,0.));
#1451=DIRECTION('ref_axis',(1.,0.,0.));
#1452=DIRECTION('center_axis',(0.,0.,-1.));
#1453=DIRECTION('ref_axis',(-0.707106781186548,-0.707106781186548,0.));
#1454=DIRECTION('center_axis',(0.,1.,0.));
#1455=DIRECTION('ref_axis',(0.707106781186548,0.,0.707106781186548));
#1456=DIRECTION('center_axis',(0.,-1.,0.));
#1457=DIRECTION('ref_axis',(1.,0.,0.));
#1458=DIRECTION('',(0.,1.,0.));
#1459=DIRECTION('center_axis',(0.,0.,-1.));
#1460=DIRECTION('ref_axis',(-1.,0.,0.));
#1461=DIRECTION('center_axis',(-1.,0.,0.));
#1462=DIRECTION('ref_axis',(0.,-1.,0.));
#1463=DIRECTION('center_axis',(0.,0.,-1.));
#1464=DIRECTION('ref_axis',(-0.707106781186548,0.707106781186548,0.));
#1465=DIRECTION('center_axis',(1.,0.,0.));
#1466=DIRECTION('ref_axis',(0.,-0.707106781186548,0.707106781186548));
#1467=DIRECTION('center_axis',(-1.,0.,0.));
#1468=DIRECTION('ref_axis',(0.,-1.,0.));
#1469=DIRECTION('',(1.,0.,0.));
#1470=DIRECTION('center_axis',(0.,0.,-1.));
#1471=DIRECTION('ref_axis',(-1.,0.,0.));
#1472=DIRECTION('center_axis',(0.,0.,-1.));
#1473=DIRECTION('ref_axis',(0.707106781186548,0.707106781186548,0.));
#1474=DIRECTION('center_axis',(0.,0.,1.));
#1475=DIRECTION('ref_axis',(1.,0.,0.));
#1476=DIRECTION('',(0.,0.,-1.));
#1477=DIRECTION('center_axis',(-0.707106781186547,0.,0.707106781186548));
#1478=DIRECTION('ref_axis',(0.707106781186548,0.,0.707106781186547));
#1479=DIRECTION('',(0.,0.,-1.));
#1480=DIRECTION('center_axis',(0.,1.,0.));
#1481=DIRECTION('ref_axis',(0.,0.,1.));
#1482=DIRECTION('',(0.,0.,-1.));
#1483=DIRECTION('',(1.,0.,0.));
#1484=DIRECTION('',(0.707106781186548,0.,0.707106781186547));
#1485=DIRECTION('center_axis',(0.,0.,1.));
#1486=DIRECTION('ref_axis',(1.,0.,0.));
#1487=DIRECTION('',(0.,0.,-1.));
#1488=DIRECTION('center_axis',(0.,0.,1.));
#1489=DIRECTION('ref_axis',(1.,0.,0.));
#1490=DIRECTION('center_axis',(-1.,0.,0.));
#1491=DIRECTION('ref_axis',(0.,0.,1.));
#1492=DIRECTION('',(0.,0.,-1.));
#1493=DIRECTION('',(0.,1.,0.));
#1494=DIRECTION('',(0.,0.,-1.));
#1495=DIRECTION('',(0.,1.,0.));
#1496=DIRECTION('',(0.,0.,-1.));
#1497=DIRECTION('',(0.,1.,0.));
#1498=DIRECTION('',(0.,0.,1.));
#1499=DIRECTION('',(0.,-1.,0.));
#1500=DIRECTION('center_axis',(-0.707106781186547,0.,-0.707106781186548));
#1501=DIRECTION('ref_axis',(-0.707106781186548,0.,0.707106781186547));
#1502=DIRECTION('',(0.707106781186548,0.,-0.707106781186547));
#1503=DIRECTION('',(-0.707106781186548,0.,0.707106781186547));
#1504=DIRECTION('',(0.,-1.,0.));
#1505=DIRECTION('center_axis',(0.,0.,-1.));
#1506=DIRECTION('ref_axis',(-1.,0.,0.));
#1507=DIRECTION('',(0.,-0.707106781186549,-0.707106781186546));
#1508=DIRECTION('center_axis',(0.,0.,-1.));
#1509=DIRECTION('ref_axis',(-1.,0.,0.));
#1510=DIRECTION('center_axis',(0.,0.707106781186547,-0.707106781186548));
#1511=DIRECTION('ref_axis',(-1.,0.,0.));
#1512=DIRECTION('',(-0.577350269189626,-0.577350269189626,-0.577350269189625));
#1513=DIRECTION('',(0.,-0.707106781186548,-0.707106781186547));
#1514=DIRECTION('',(-1.,0.,0.));
#1515=DIRECTION('',(-1.,0.,0.));
#1516=DIRECTION('center_axis',(0.,0.,-1.));
#1517=DIRECTION('ref_axis',(1.,0.,0.));
#1518=DIRECTION('center_axis',(0.,0.,-1.));
#1519=DIRECTION('ref_axis',(1.,0.,0.));
#1520=DIRECTION('center_axis',(0.,0.,1.));
#1521=DIRECTION('ref_axis',(1.,0.,0.));
#1522=DIRECTION('',(0.,-1.,0.));
#1523=DIRECTION('center_axis',(0.,0.,-1.));
#1524=DIRECTION('ref_axis',(1.,0.,0.));
#1525=DIRECTION('',(-1.,0.,0.));
#1526=DIRECTION('center_axis',(0.,0.,-1.));
#1527=DIRECTION('ref_axis',(1.,0.,0.));
#1528=DIRECTION('',(1.,0.,0.));
#1529=DIRECTION('',(0.,1.,0.));
#1530=DIRECTION('',(-1.,0.,0.));
#1531=DIRECTION('center_axis',(0.,0.,-1.));
#1532=DIRECTION('ref_axis',(1.,0.,0.));
#1533=DIRECTION('',(1.,0.,0.));
#1534=DIRECTION('center_axis',(0.,0.,-1.));
#1535=DIRECTION('ref_axis',(-1.,0.,0.));
#1536=DIRECTION('',(0.,1.,0.));
#1537=DIRECTION('',(-1.,0.,0.));
#1538=DIRECTION('',(0.,-1.,0.));
#1539=DIRECTION('',(1.,0.,0.));
#1540=DIRECTION('',(0.,1.,0.));
#1541=DIRECTION('',(-1.,0.,0.));
#1542=DIRECTION('',(0.,-1.,0.));
#1543=DIRECTION('',(1.,0.,0.));
#1544=DIRECTION('',(1.,0.,0.));
#1545=DIRECTION('',(0.,1.,0.));
#1546=DIRECTION('',(-1.,0.,0.));
#1547=DIRECTION('center_axis',(0.,1.,0.));
#1548=DIRECTION('ref_axis',(0.,0.,1.));
#1549=DIRECTION('',(-0.707106781186548,0.,0.707106781186547));
#1550=DIRECTION('',(0.,0.,-1.));
#1551=DIRECTION('',(-1.,0.,0.));
#1552=DIRECTION('',(0.,0.,-1.));
#1553=DIRECTION('center_axis',(-0.707106781186547,0.,-0.707106781186548));
#1554=DIRECTION('ref_axis',(-0.707106781186548,0.,0.707106781186547));
#1555=DIRECTION('',(0.707106781186548,0.,-0.707106781186547));
#1556=DIRECTION('',(0.,-1.,0.));
#1557=DIRECTION('center_axis',(0.707106781186547,0.,-0.707106781186548));
#1558=DIRECTION('ref_axis',(-0.707106781186548,0.,-0.707106781186547));
#1559=DIRECTION('',(-0.707106781186548,0.,-0.707106781186547));
#1560=DIRECTION('',(0.,-1.,0.));
#1561=DIRECTION('',(0.707106781186548,0.,0.707106781186547));
#1562=DIRECTION('center_axis',(1.,0.,0.));
#1563=DIRECTION('ref_axis',(0.,0.,-1.));
#1564=DIRECTION('',(0.,-1.,0.));
#1565=DIRECTION('',(0.,0.,-1.));
#1566=DIRECTION('',(0.,0.,-1.));
#1567=DIRECTION('',(0.,-1.,0.));
#1568=DIRECTION('',(0.,0.,1.));
#1569=DIRECTION('',(0.,0.,-1.));
#1570=DIRECTION('center_axis',(0.,0.,-1.));
#1571=DIRECTION('ref_axis',(1.,0.,0.));
#1572=DIRECTION('',(0.,0.707106781186548,-0.707106781186547));
#1573=DIRECTION('center_axis',(0.,-0.707106781186547,-0.707106781186548));
#1574=DIRECTION('ref_axis',(-1.,0.,0.));
#1575=DIRECTION('',(0.577350269189626,0.577350269189626,-0.577350269189625));
#1576=DIRECTION('',(-1.,0.,0.));
#1577=DIRECTION('',(0.,0.707106781186548,-0.707106781186547));
#1578=DIRECTION('',(1.,0.,0.));
#1579=DIRECTION('center_axis',(0.,0.,-1.));
#1580=DIRECTION('ref_axis',(-1.,0.,0.));
#1581=DIRECTION('center_axis',(0.,0.,1.));
#1582=DIRECTION('ref_axis',(-1.,0.,0.));
#1583=DIRECTION('center_axis',(0.,-1.,0.));
#1584=DIRECTION('ref_axis',(0.,0.,-1.));
#1585=DIRECTION('',(0.707106781186548,0.,0.707106781186547));
#1586=DIRECTION('',(0.,0.,-1.));
#1587=DIRECTION('',(1.,0.,0.));
#1588=DIRECTION('',(0.,0.,-1.));
#1589=DIRECTION('center_axis',(0.707106781186547,0.,-0.707106781186548));
#1590=DIRECTION('ref_axis',(-0.707106781186548,0.,-0.707106781186547));
#1591=DIRECTION('',(-0.707106781186548,0.,-0.707106781186547));
#1592=DIRECTION('',(0.,1.,0.));
#1593=DIRECTION('center_axis',(0.707106781186547,0.,-0.707106781186548));
#1594=DIRECTION('ref_axis',(-0.707106781186548,0.,-0.707106781186547));
#1595=DIRECTION('',(0.707106781186548,0.,0.707106781186547));
#1596=DIRECTION('',(0.707106781186548,0.,0.707106781186547));
#1597=DIRECTION('',(0.,1.,0.));
#1598=DIRECTION('center_axis',(-1.,0.,0.));
#1599=DIRECTION('ref_axis',(0.,0.,1.));
#1600=DIRECTION('',(0.,0.,-1.));
#1601=DIRECTION('',(0.,-1.,0.));
#1602=DIRECTION('center_axis',(1.,0.,0.));
#1603=DIRECTION('ref_axis',(0.,0.,-1.));
#1604=DIRECTION('',(0.,0.,-1.));
#1605=DIRECTION('',(0.,1.,0.));
#1606=DIRECTION('center_axis',(-0.707106781186547,0.,-0.707106781186548));
#1607=DIRECTION('ref_axis',(-0.707106781186548,0.,0.707106781186547));
#1608=DIRECTION('',(-0.707106781186548,0.,0.707106781186547));
#1609=DIRECTION('center_axis',(0.707106781186547,0.,0.707106781186548));
#1610=DIRECTION('ref_axis',(0.707106781186548,0.,-0.707106781186547));
#1611=DIRECTION('',(-0.707106781186548,0.,0.707106781186547));
#1612=DIRECTION('',(-0.707106781186548,0.,0.707106781186547));
#1613=DIRECTION('',(0.,-1.,0.));
#1614=DIRECTION('center_axis',(0.,0.,1.));
#1615=DIRECTION('ref_axis',(1.,0.,0.));
#1616=DIRECTION('',(0.,-1.,0.));
#1617=DIRECTION('',(-1.,0.,0.));
#1618=DIRECTION('',(0.,1.,0.));
#1619=DIRECTION('',(1.,0.,0.));
#1620=DIRECTION('center_axis',(0.,1.,0.));
#1621=DIRECTION('ref_axis',(0.,0.,1.));
#1622=DIRECTION('',(0.,0.,-1.));
#1623=DIRECTION('',(0.,0.,-1.));
#1624=DIRECTION('center_axis',(1.,0.,0.));
#1625=DIRECTION('ref_axis',(0.,0.,-1.));
#1626=DIRECTION('',(0.,0.,-1.));
#1627=DIRECTION('center_axis',(0.,-1.,0.));
#1628=DIRECTION('ref_axis',(0.,0.,-1.));
#1629=DIRECTION('',(0.,0.,-1.));
#1630=DIRECTION('center_axis',(-1.,0.,0.));
#1631=DIRECTION('ref_axis',(0.,0.,1.));
#1632=DIRECTION('center_axis',(0.,0.,1.));
#1633=DIRECTION('ref_axis',(1.,0.,0.));
#1634=DIRECTION('',(0.,-1.,0.));
#1635=DIRECTION('',(1.,0.,0.));
#1636=DIRECTION('center_axis',(0.,-1.,0.));
#1637=DIRECTION('ref_axis',(0.,0.,-1.));
#1638=DIRECTION('',(0.,0.,-1.));
#1639=DIRECTION('center_axis',(-1.,0.,0.));
#1640=DIRECTION('ref_axis',(0.,0.,1.));
#1641=DIRECTION('center_axis',(0.,0.,1.));
#1642=DIRECTION('ref_axis',(1.,0.,0.));
#1643=DIRECTION('',(-1.,0.,0.));
#1644=DIRECTION('',(0.,1.,0.));
#1645=DIRECTION('center_axis',(0.,1.,0.));
#1646=DIRECTION('ref_axis',(0.,0.,1.));
#1647=DIRECTION('',(0.,0.,-1.));
#1648=DIRECTION('center_axis',(1.,0.,0.));
#1649=DIRECTION('ref_axis',(0.,0.,-1.));
#1650=DIRECTION('center_axis',(0.,0.,1.));
#1651=DIRECTION('ref_axis',(1.,0.,0.));
#1652=DIRECTION('',(0.,-1.,0.));
#1653=DIRECTION('',(-1.,0.,0.));
#1654=DIRECTION('',(0.,1.,0.));
#1655=DIRECTION('',(1.,0.,0.));
#1656=DIRECTION('center_axis',(0.,1.,0.));
#1657=DIRECTION('ref_axis',(0.,0.,1.));
#1658=DIRECTION('',(0.,0.,-1.));
#1659=DIRECTION('',(0.,0.,-1.));
#1660=DIRECTION('center_axis',(1.,0.,0.));
#1661=DIRECTION('ref_axis',(0.,0.,-1.));
#1662=DIRECTION('',(0.,0.,-1.));
#1663=DIRECTION('center_axis',(0.,-1.,0.));
#1664=DIRECTION('ref_axis',(0.,0.,-1.));
#1665=DIRECTION('',(0.,0.,-1.));
#1666=DIRECTION('center_axis',(-1.,0.,0.));
#1667=DIRECTION('ref_axis',(0.,0.,1.));
#1668=DIRECTION('center_axis',(0.,0.,1.));
#1669=DIRECTION('ref_axis',(1.,0.,0.));
#1670=DIRECTION('',(0.,0.,-1.));
#1671=DIRECTION('center_axis',(0.,0.,1.));
#1672=DIRECTION('ref_axis',(1.,0.,0.));
#1673=DIRECTION('',(0.,0.,-1.));
#1674=DIRECTION('center_axis',(0.,-1.,0.));
#1675=DIRECTION('ref_axis',(0.,0.,-1.));
#1676=DIRECTION('center_axis',(0.,0.,1.));
#1677=DIRECTION('ref_axis',(1.,0.,0.));
#1678=DIRECTION('',(0.,0.,-1.));
#1679=DIRECTION('',(0.,0.,-1.));
#1680=DIRECTION('center_axis',(0.,0.,1.));
#1681=DIRECTION('ref_axis',(1.,0.,0.));
#1682=DIRECTION('',(0.,0.,-1.));
#1683=DIRECTION('center_axis',(-1.,0.,0.));
#1684=DIRECTION('ref_axis',(0.,0.,1.));
#1685=DIRECTION('center_axis',(0.,1.,0.));
#1686=DIRECTION('ref_axis',(0.,0.,1.));
#1687=CARTESIAN_POINT('',(0.,0.,0.));
#1688=CARTESIAN_POINT('Origin',(18.,8.15,3.8));
#1689=CARTESIAN_POINT('',(19.6,8.15,4.2));
#1690=CARTESIAN_POINT('',(20.,8.15,3.8));
#1691=CARTESIAN_POINT('Origin',(19.6,8.15,3.8));
#1692=CARTESIAN_POINT('',(18.,10.15,3.8));
#1693=CARTESIAN_POINT('Origin',(18.,8.15,3.8));
#1694=CARTESIAN_POINT('',(18.,9.75,4.2));
#1695=CARTESIAN_POINT('Origin',(18.,9.75,3.8));
#1696=CARTESIAN_POINT('Origin',(18.,8.15,4.2));
#1697=CARTESIAN_POINT('Origin',(0.,9.75,3.8));
#1698=CARTESIAN_POINT('',(-18.,10.15,3.8));
#1699=CARTESIAN_POINT('',(-18.,9.75,4.2));
#1700=CARTESIAN_POINT('Origin',(-18.,9.75,3.8));
#1701=CARTESIAN_POINT('',(0.,9.75,4.2));
#1702=CARTESIAN_POINT('',(0.,10.15,3.8));
#1703=CARTESIAN_POINT('Origin',(-18.,8.15,3.8));
#1704=CARTESIAN_POINT('',(-20.,8.15,3.8));
#1705=CARTESIAN_POINT('',(-19.6,8.15,4.2));
#1706=CARTESIAN_POINT('Origin',(-19.6,8.15,3.8));
#1707=CARTESIAN_POINT('Origin',(-18.,8.15,4.2));
#1708=CARTESIAN_POINT('Origin',(-18.,8.15,3.8));
#1709=CARTESIAN_POINT('Origin',(-19.6,0.,3.8));
#1710=CARTESIAN_POINT('',(-20.,-8.15,3.8));
#1711=CARTESIAN_POINT('',(-19.6,-8.15,4.2));
#1712=CARTESIAN_POINT('Origin',(-19.6,-8.15,3.8));
#1713=CARTESIAN_POINT('',(-19.6,0.,4.2));
#1714=CARTESIAN_POINT('',(-20.,0.,3.8));
#1715=CARTESIAN_POINT('Origin',(-18.,-8.15,3.8));
#1716=CARTESIAN_POINT('',(-18.,-10.15,3.8));
#1717=CARTESIAN_POINT('',(-18.,-9.75,4.2));
#1718=CARTESIAN_POINT('Origin',(-18.,-9.75,3.8));
#1719=CARTESIAN_POINT('Origin',(-18.,-8.15,4.2));
#1720=CARTESIAN_POINT('Origin',(-18.,-8.15,3.8));
#1721=CARTESIAN_POINT('Origin',(0.,-9.75,3.8));
#1722=CARTESIAN_POINT('',(18.,-10.15,3.8));
#1723=CARTESIAN_POINT('',(18.,-9.75,4.2));
#1724=CARTESIAN_POINT('Origin',(18.,-9.75,3.8));
#1725=CARTESIAN_POINT('',(0.,-9.75,4.2));
#1726=CARTESIAN_POINT('',(0.,-10.15,3.8));
#1727=CARTESIAN_POINT('Origin',(18.,-8.15,3.8));
#1728=CARTESIAN_POINT('',(20.,-8.15,3.8));
#1729=CARTESIAN_POINT('',(19.6,-8.15,4.2));
#1730=CARTESIAN_POINT('Origin',(19.6,-8.15,3.8));
#1731=CARTESIAN_POINT('Origin',(18.,-8.15,4.2));
#1732=CARTESIAN_POINT('Origin',(18.,-8.15,3.8));
#1733=CARTESIAN_POINT('Origin',(19.6,0.,3.8));
#1734=CARTESIAN_POINT('',(19.6,0.,4.2));
#1735=CARTESIAN_POINT('',(20.,0.,3.8));
#1736=CARTESIAN_POINT('Origin',(-20.,0.,3.6));
#1737=CARTESIAN_POINT('',(-20.,8.15,3.));
#1738=CARTESIAN_POINT('',(-20.,8.15,3.6));
#1739=CARTESIAN_POINT('',(-20.,-8.15,3.));
#1740=CARTESIAN_POINT('',(-20.,0.,3.));
#1741=CARTESIAN_POINT('',(-20.,-8.15,3.6));
#1742=CARTESIAN_POINT('Origin',(-18.,8.15,3.6));
#1743=CARTESIAN_POINT('',(-18.,10.15,3.));
#1744=CARTESIAN_POINT('',(-18.,10.15,3.6));
#1745=CARTESIAN_POINT('Origin',(-18.,8.15,3.));
#1746=CARTESIAN_POINT('Origin',(0.,10.15,3.6));
#1747=CARTESIAN_POINT('',(18.,10.15,3.));
#1748=CARTESIAN_POINT('',(18.,10.15,3.6));
#1749=CARTESIAN_POINT('',(0.,10.15,3.));
#1750=CARTESIAN_POINT('Origin',(18.,8.15,3.6));
#1751=CARTESIAN_POINT('',(20.,8.15,3.));
#1752=CARTESIAN_POINT('',(20.,8.15,3.6));
#1753=CARTESIAN_POINT('Origin',(18.,8.15,3.));
#1754=CARTESIAN_POINT('Origin',(0.,0.,4.2));
#1755=CARTESIAN_POINT('',(15.6,-6.65,4.2));
#1756=CARTESIAN_POINT('',(15.6,6.65,4.2));
#1757=CARTESIAN_POINT('',(15.6,0.,4.2));
#1758=CARTESIAN_POINT('',(14.4,-7.85,4.2));
#1759=CARTESIAN_POINT('Origin',(14.4,-6.65,4.2));
#1760=CARTESIAN_POINT('',(-14.4,-7.85,4.2));
#1761=CARTESIAN_POINT('',(0.,-7.85,4.2));
#1762=CARTESIAN_POINT('',(-15.6,-6.65,4.2));
#1763=CARTESIAN_POINT('Origin',(-14.4,-6.65,4.2));
#1764=CARTESIAN_POINT('',(-15.6,6.65,4.2));
#1765=CARTESIAN_POINT('',(-15.6,0.,4.2));
#1766=CARTESIAN_POINT('',(-14.4,7.85,4.2));
#1767=CARTESIAN_POINT('Origin',(-14.4,6.65,4.2));
#1768=CARTESIAN_POINT('',(14.4,7.85,4.2));
#1769=CARTESIAN_POINT('',(0.,7.85,4.2));
#1770=CARTESIAN_POINT('Origin',(14.4,6.65,4.2));
#1771=CARTESIAN_POINT('Origin',(15.6,0.,3.8));
#1772=CARTESIAN_POINT('',(15.2,6.65,3.8));
#1773=CARTESIAN_POINT('Origin',(15.6,6.65,3.8));
#1774=CARTESIAN_POINT('',(15.2,-6.65,3.8));
#1775=CARTESIAN_POINT('',(15.2,0.,3.8));
#1776=CARTESIAN_POINT('Origin',(15.6,-6.65,3.8));
#1777=CARTESIAN_POINT('Origin',(14.4,-6.65,3.8));
#1778=CARTESIAN_POINT('',(14.4,-7.45,3.8));
#1779=CARTESIAN_POINT('Origin',(14.4,-7.85,3.8));
#1780=CARTESIAN_POINT('Origin',(14.4,-6.65,3.8));
#1781=CARTESIAN_POINT('Origin',(0.,-7.85,3.8));
#1782=CARTESIAN_POINT('',(-14.4,-7.45,3.8));
#1783=CARTESIAN_POINT('Origin',(-14.4,-7.85,3.8));
#1784=CARTESIAN_POINT('',(0.,-7.45,3.8));
#1785=CARTESIAN_POINT('Origin',(-14.4,-6.65,3.8));
#1786=CARTESIAN_POINT('',(-15.2,-6.65,3.8));
#1787=CARTESIAN_POINT('Origin',(-15.6,-6.65,3.8));
#1788=CARTESIAN_POINT('Origin',(-14.4,-6.65,3.8));
#1789=CARTESIAN_POINT('Origin',(-15.6,0.,3.8));
#1790=CARTESIAN_POINT('',(-15.2,6.65,3.8));
#1791=CARTESIAN_POINT('Origin',(-15.6,6.65,3.8));
#1792=CARTESIAN_POINT('',(-15.2,0.,3.8));
#1793=CARTESIAN_POINT('Origin',(-14.4,6.65,3.8));
#1794=CARTESIAN_POINT('',(-14.4,7.45,3.8));
#1795=CARTESIAN_POINT('Origin',(-14.4,7.85,3.8));
#1796=CARTESIAN_POINT('Origin',(-14.4,6.65,3.8));
#1797=CARTESIAN_POINT('Origin',(0.,7.85,3.8));
#1798=CARTESIAN_POINT('',(14.4,7.45,3.8));
#1799=CARTESIAN_POINT('Origin',(14.4,7.85,3.8));
#1800=CARTESIAN_POINT('',(0.,7.45,3.8));
#1801=CARTESIAN_POINT('Origin',(14.4,6.65,3.8));
#1802=CARTESIAN_POINT('Origin',(14.4,6.65,3.8));
#1803=CARTESIAN_POINT('Origin',(-14.4,-6.65,2.1));
#1804=CARTESIAN_POINT('',(-14.4,-7.45,3.35));
#1805=CARTESIAN_POINT('',(-14.4,-7.45,2.1));
#1806=CARTESIAN_POINT('',(-15.2,-6.65,2.55000000000001));
#1807=CARTESIAN_POINT('Origin',(-14.4,-6.65,3.35));
#1808=CARTESIAN_POINT('',(-15.2,-6.65,2.1));
#1809=CARTESIAN_POINT('Origin',(0.,-7.45,2.1));
#1810=CARTESIAN_POINT('',(14.4,-7.45,3.5));
#1811=CARTESIAN_POINT('',(14.4,-7.45,2.1));
#1812=CARTESIAN_POINT('',(-14.25,-7.45,3.5));
#1813=CARTESIAN_POINT('',(0.,-7.45,3.5));
#1814=CARTESIAN_POINT('',(-11.4125,-7.45,6.3375));
#1815=CARTESIAN_POINT('Origin',(14.4,-6.65,2.1));
#1816=CARTESIAN_POINT('',(15.2,-6.65,3.5));
#1817=CARTESIAN_POINT('',(15.2,-6.65,2.1));
#1818=CARTESIAN_POINT('Origin',(14.4,-6.65,3.5));
#1819=CARTESIAN_POINT('Origin',(15.2,0.,2.1));
#1820=CARTESIAN_POINT('',(15.2,6.65,2.55000000000001));
#1821=CARTESIAN_POINT('',(15.2,6.65,2.1));
#1822=CARTESIAN_POINT('',(15.2,5.3,2.55000000000001));
#1823=CARTESIAN_POINT('',(15.2,1.6,2.55000000000001));
#1824=CARTESIAN_POINT('',(15.2,5.3,3.5));
#1825=CARTESIAN_POINT('',(15.2,5.3,1.85));
#1826=CARTESIAN_POINT('',(15.2,-5.3,3.5));
#1827=CARTESIAN_POINT('',(15.2,0.,3.5));
#1828=CARTESIAN_POINT('',(15.2,-5.3,2.55000000000001));
#1829=CARTESIAN_POINT('',(15.2,-5.3,1.85));
#1830=CARTESIAN_POINT('',(15.2,-7.5,2.55000000000001));
#1831=CARTESIAN_POINT('',(15.2,-1.6,2.55000000000001));
#1832=CARTESIAN_POINT('',(15.2,-7.5,3.));
#1833=CARTESIAN_POINT('',(15.2,-7.5,1.85));
#1834=CARTESIAN_POINT('',(15.2,-7.67469507659596,3.));
#1835=CARTESIAN_POINT('',(15.2,0.,3.));
#1836=CARTESIAN_POINT('Ctrl Pts',(15.2,-7.67469507659595,3.));
#1837=CARTESIAN_POINT('Ctrl Pts',(15.2,-7.04036002917941,3.5));
#1838=CARTESIAN_POINT('Ctrl Pts',(15.2,-6.65,3.5));
#1839=CARTESIAN_POINT('Origin',(15.45,0.,3.25));
#1840=CARTESIAN_POINT('',(15.7,-5.3,3.));
#1841=CARTESIAN_POINT('',(16.0875,-5.3,2.6125));
#1842=CARTESIAN_POINT('',(15.7,5.3,3.));
#1843=CARTESIAN_POINT('',(16.0875,5.3,2.6125));
#1844=CARTESIAN_POINT('',(15.7,0.,3.));
#1845=CARTESIAN_POINT('Origin',(-14.4,-6.65,3.25));
#1846=CARTESIAN_POINT('',(-15.3836157786453,-7.5,3.));
#1847=CARTESIAN_POINT('',(-14.4,-7.5,3.45));
#1848=CARTESIAN_POINT('Ctrl Pts',(-14.4,-7.5,3.45));
#1849=CARTESIAN_POINT('Ctrl Pts',(-14.7888713543481,-7.5,3.45000000000001));
#1850=CARTESIAN_POINT('Ctrl Pts',(-15.3836157786453,-7.5,3.00000000000001));
#1851=CARTESIAN_POINT('',(-14.4,-7.95,3.));
#1852=CARTESIAN_POINT('',(-14.4,-7.45,3.5));
#1853=CARTESIAN_POINT('Origin',(-14.4,-6.65,3.));
#1854=CARTESIAN_POINT('Origin',(0.,-7.7,3.25));
#1855=CARTESIAN_POINT('',(-14.3,-7.5,3.45));
#1856=CARTESIAN_POINT('',(-11.5,-4.7,6.25));
#1857=CARTESIAN_POINT('',(14.4,-7.95,3.));
#1858=CARTESIAN_POINT('',(14.4,-7.45,3.5));
#1859=CARTESIAN_POINT('',(0.,-7.95,3.));
#1860=CARTESIAN_POINT('',(-8.175,-7.5,3.45));
#1861=CARTESIAN_POINT('Origin',(14.4,-6.65,3.25));
#1862=CARTESIAN_POINT('Origin',(14.4,-6.65,3.));
#1863=CARTESIAN_POINT('Origin',(0.,0.,3.));
#1864=CARTESIAN_POINT('',(20.,-8.15,3.));
#1865=CARTESIAN_POINT('',(20.,0.,3.));
#1866=CARTESIAN_POINT('',(18.,-10.15,3.));
#1867=CARTESIAN_POINT('Origin',(18.,-8.15,3.));
#1868=CARTESIAN_POINT('',(-18.,-10.15,3.));
#1869=CARTESIAN_POINT('',(0.,-10.15,3.));
#1870=CARTESIAN_POINT('Origin',(-18.,-8.15,3.));
#1871=CARTESIAN_POINT('',(17.45,5.3,3.));
#1872=CARTESIAN_POINT('',(8.175,5.3,3.));
#1873=CARTESIAN_POINT('',(17.45,7.5,3.));
#1874=CARTESIAN_POINT('',(17.45,3.2,3.));
#1875=CARTESIAN_POINT('',(15.3836157786453,7.5,3.));
#1876=CARTESIAN_POINT('',(8.175,7.5,3.));
#1877=CARTESIAN_POINT('',(14.4,7.95,3.));
#1878=CARTESIAN_POINT('Origin',(14.4,6.65,3.));
#1879=CARTESIAN_POINT('',(-14.4,7.95,3.));
#1880=CARTESIAN_POINT('',(0.,7.95,3.));
#1881=CARTESIAN_POINT('',(-15.2,7.67469507659596,3.));
#1882=CARTESIAN_POINT('Origin',(-14.4,6.65,3.));
#1883=CARTESIAN_POINT('',(-15.2,7.5,3.));
#1884=CARTESIAN_POINT('',(-15.2,0.,3.));
#1885=CARTESIAN_POINT('',(-17.45,7.5,3.));
#1886=CARTESIAN_POINT('',(-8.175,7.5,3.));
#1887=CARTESIAN_POINT('',(-17.45,5.3,3.));
#1888=CARTESIAN_POINT('',(-17.45,3.2,3.));
#1889=CARTESIAN_POINT('',(-15.7,5.3,3.));
#1890=CARTESIAN_POINT('',(-8.175,5.3,3.));
#1891=CARTESIAN_POINT('',(-15.7,-5.3,3.));
#1892=CARTESIAN_POINT('',(-15.7,0.,3.));
#1893=CARTESIAN_POINT('',(-17.45,-5.3,3.));
#1894=CARTESIAN_POINT('',(-8.175,-5.3,3.));
#1895=CARTESIAN_POINT('',(-17.45,-7.5,3.));
#1896=CARTESIAN_POINT('',(-17.45,-3.2,3.));
#1897=CARTESIAN_POINT('',(-8.175,-7.5,3.));
#1898=CARTESIAN_POINT('',(17.45,-7.5,3.));
#1899=CARTESIAN_POINT('',(8.175,-7.5,3.));
#1900=CARTESIAN_POINT('',(17.45,-5.3,3.));
#1901=CARTESIAN_POINT('',(17.45,-3.2,3.));
#1902=CARTESIAN_POINT('',(8.175,-5.3,3.));
#1903=CARTESIAN_POINT('Origin',(16.35,-7.5,1.6));
#1904=CARTESIAN_POINT('',(15.25,-7.5,2.5));
#1905=CARTESIAN_POINT('',(15.625,-7.5,2.125));
#1906=CARTESIAN_POINT('',(15.25,-7.5,0.2));
#1907=CARTESIAN_POINT('',(15.25,-7.5,1.6));
#1908=CARTESIAN_POINT('',(17.45,-7.5,0.2));
#1909=CARTESIAN_POINT('',(16.35,-7.5,0.2));
#1910=CARTESIAN_POINT('',(17.45,-7.5,1.6));
#1911=CARTESIAN_POINT('Origin',(15.,-3.2,2.75));
#1912=CARTESIAN_POINT('',(15.25,-5.3,2.5));
#1913=CARTESIAN_POINT('',(15.625,-5.3,2.125));
#1914=CARTESIAN_POINT('',(15.25,-3.2,2.5));
#1915=CARTESIAN_POINT('Origin',(-15.45,0.,3.25));
#1916=CARTESIAN_POINT('',(-15.2,5.3,3.5));
#1917=CARTESIAN_POINT('',(-16.0875,5.3,2.6125));
#1918=CARTESIAN_POINT('',(-15.2,-5.3,3.5));
#1919=CARTESIAN_POINT('',(-15.2,0.,3.5));
#1920=CARTESIAN_POINT('',(-16.0875,-5.3,2.6125));
#1921=CARTESIAN_POINT('Origin',(-15.2,0.,2.1));
#1922=CARTESIAN_POINT('',(-15.2,-5.3,2.55000000000001));
#1923=CARTESIAN_POINT('',(-15.2,-1.6,2.55000000000001));
#1924=CARTESIAN_POINT('',(-15.2,-5.3,1.85));
#1925=CARTESIAN_POINT('',(-15.2,5.3,2.55000000000001));
#1926=CARTESIAN_POINT('',(-15.2,5.3,1.85));
#1927=CARTESIAN_POINT('',(-15.2,7.5,2.55000000000001));
#1928=CARTESIAN_POINT('',(-15.2,1.6,2.55000000000001));
#1929=CARTESIAN_POINT('',(-15.2,7.5,1.85));
#1930=CARTESIAN_POINT('',(-15.2,6.65,3.5));
#1931=CARTESIAN_POINT('Ctrl Pts',(-15.2,7.67469507659595,3.));
#1932=CARTESIAN_POINT('Ctrl Pts',(-15.2,7.04036002917941,3.5));
#1933=CARTESIAN_POINT('Ctrl Pts',(-15.2,6.65,3.5));
#1934=CARTESIAN_POINT('',(-15.2,6.65,2.1));
#1935=CARTESIAN_POINT('Origin',(14.4,6.65,3.25));
#1936=CARTESIAN_POINT('',(14.4,7.5,3.45));
#1937=CARTESIAN_POINT('Ctrl Pts',(14.4,7.5,3.45));
#1938=CARTESIAN_POINT('Ctrl Pts',(14.7888713543481,7.5,3.45));
#1939=CARTESIAN_POINT('Ctrl Pts',(15.3836157786453,7.5,2.99999999999999));
#1940=CARTESIAN_POINT('',(14.4,7.45,3.5));
#1941=CARTESIAN_POINT('Origin',(0.,7.7,3.25));
#1942=CARTESIAN_POINT('',(14.25,7.45,3.5));
#1943=CARTESIAN_POINT('',(14.3,7.5,3.45));
#1944=CARTESIAN_POINT('',(11.5,4.7,6.25));
#1945=CARTESIAN_POINT('',(-14.4,7.45,3.5));
#1946=CARTESIAN_POINT('',(0.,7.45,3.5));
#1947=CARTESIAN_POINT('',(-14.4,7.45,3.5));
#1948=CARTESIAN_POINT('',(8.175,7.5,3.45));
#1949=CARTESIAN_POINT('Origin',(-14.4,6.65,3.25));
#1950=CARTESIAN_POINT('Origin',(-14.4,6.65,3.5));
#1951=CARTESIAN_POINT('Origin',(-16.35,7.5,1.6));
#1952=CARTESIAN_POINT('',(-15.25,7.5,2.5));
#1953=CARTESIAN_POINT('',(-15.625,7.5,2.125));
#1954=CARTESIAN_POINT('',(-15.25,7.5,0.2));
#1955=CARTESIAN_POINT('',(-15.25,7.5,1.6));
#1956=CARTESIAN_POINT('',(-17.45,7.5,0.2));
#1957=CARTESIAN_POINT('',(-16.35,7.5,0.2));
#1958=CARTESIAN_POINT('',(-17.45,7.5,1.6));
#1959=CARTESIAN_POINT('Origin',(-15.,3.2,2.75));
#1960=CARTESIAN_POINT('',(-15.25,5.3,2.5));
#1961=CARTESIAN_POINT('',(-15.625,5.3,2.125));
#1962=CARTESIAN_POINT('',(-15.25,3.2,2.5));
#1963=CARTESIAN_POINT('Origin',(-15.,-3.2,2.75));
#1964=CARTESIAN_POINT('',(-15.25,-5.3,2.5));
#1965=CARTESIAN_POINT('',(-15.625,-5.3,2.125));
#1966=CARTESIAN_POINT('',(-15.25,-7.5,2.5));
#1967=CARTESIAN_POINT('',(-15.625,-7.5,2.125));
#1968=CARTESIAN_POINT('',(-15.25,-3.2,2.5));
#1969=CARTESIAN_POINT('Origin',(-15.25,6.4,1.6));
#1970=CARTESIAN_POINT('',(-15.25,5.3,0.2));
#1971=CARTESIAN_POINT('',(-15.25,5.3,1.6));
#1972=CARTESIAN_POINT('',(-15.25,6.4,0.2));
#1973=CARTESIAN_POINT('Origin',(15.25,-6.4,1.6));
#1974=CARTESIAN_POINT('',(15.25,-5.3,0.2));
#1975=CARTESIAN_POINT('',(15.25,-5.3,1.6));
#1976=CARTESIAN_POINT('',(15.25,-6.4,0.2));
#1977=CARTESIAN_POINT('Origin',(15.,3.2,2.75));
#1978=CARTESIAN_POINT('',(15.25,5.3,2.5));
#1979=CARTESIAN_POINT('',(15.625,5.3,2.125));
#1980=CARTESIAN_POINT('',(14.4,7.45,3.35));
#1981=CARTESIAN_POINT('Origin',(14.4,6.65,3.35));
#1982=CARTESIAN_POINT('',(11.4125,7.45,6.3375));
#1983=CARTESIAN_POINT('',(15.25,7.5,2.5));
#1984=CARTESIAN_POINT('',(15.625,7.5,2.125));
#1985=CARTESIAN_POINT('',(15.25,3.2,2.5));
#1986=CARTESIAN_POINT('Origin',(16.35,6.4,0.2));
#1987=CARTESIAN_POINT('',(17.45,7.5,0.2));
#1988=CARTESIAN_POINT('',(17.45,5.3,0.2));
#1989=CARTESIAN_POINT('',(17.45,6.4,0.2));
#1990=CARTESIAN_POINT('',(15.25,5.3,0.2));
#1991=CARTESIAN_POINT('',(16.35,5.3,0.2));
#1992=CARTESIAN_POINT('',(15.25,7.5,0.2));
#1993=CARTESIAN_POINT('',(15.25,6.4,0.2));
#1994=CARTESIAN_POINT('',(16.35,7.5,0.2));
#1995=CARTESIAN_POINT('Origin',(16.35,5.3,1.6));
#1996=CARTESIAN_POINT('',(15.25,5.3,1.6));
#1997=CARTESIAN_POINT('',(17.45,5.3,1.6));
#1998=CARTESIAN_POINT('Origin',(15.25,6.4,1.6));
#1999=CARTESIAN_POINT('',(15.25,7.5,1.6));
#2000=CARTESIAN_POINT('Origin',(16.35,7.5,1.6));
#2001=CARTESIAN_POINT('',(17.45,7.5,1.6));
#2002=CARTESIAN_POINT('Origin',(17.45,6.4,1.6));
#2003=CARTESIAN_POINT('Origin',(16.35,-6.4,0.2));
#2004=CARTESIAN_POINT('',(17.45,-5.3,0.2));
#2005=CARTESIAN_POINT('',(17.45,-6.4,0.2));
#2006=CARTESIAN_POINT('',(16.35,-5.3,0.2));
#2007=CARTESIAN_POINT('Origin',(16.35,-5.3,1.6));
#2008=CARTESIAN_POINT('',(17.45,-5.3,1.6));
#2009=CARTESIAN_POINT('Origin',(17.45,-6.4,1.6));
#2010=CARTESIAN_POINT('Origin',(-16.35,6.4,0.2));
#2011=CARTESIAN_POINT('',(-17.45,5.3,0.2));
#2012=CARTESIAN_POINT('',(-16.35,5.3,0.2));
#2013=CARTESIAN_POINT('',(-17.45,6.4,0.2));
#2014=CARTESIAN_POINT('Origin',(-16.35,5.3,1.6));
#2015=CARTESIAN_POINT('',(-17.45,5.3,1.6));
#2016=CARTESIAN_POINT('Origin',(-17.45,6.4,1.6));
#2017=CARTESIAN_POINT('Origin',(-16.35,-6.4,0.2));
#2018=CARTESIAN_POINT('',(-15.25,-5.3,0.2));
#2019=CARTESIAN_POINT('',(-15.25,-7.5,0.2));
#2020=CARTESIAN_POINT('',(-15.25,-6.4,0.2));
#2021=CARTESIAN_POINT('',(-17.45,-7.5,0.2));
#2022=CARTESIAN_POINT('',(-16.35,-7.5,0.2));
#2023=CARTESIAN_POINT('',(-17.45,-5.3,0.2));
#2024=CARTESIAN_POINT('',(-17.45,-6.4,0.2));
#2025=CARTESIAN_POINT('',(-16.35,-5.3,0.2));
#2026=CARTESIAN_POINT('Origin',(-16.35,-7.5,1.6));
#2027=CARTESIAN_POINT('',(-17.45,-7.5,1.6));
#2028=CARTESIAN_POINT('',(-15.25,-7.5,1.6));
#2029=CARTESIAN_POINT('Origin',(-17.45,-6.4,1.6));
#2030=CARTESIAN_POINT('',(-17.45,-5.3,1.6));
#2031=CARTESIAN_POINT('Origin',(-16.35,-5.3,1.6));
#2032=CARTESIAN_POINT('',(-15.25,-5.3,1.6));
#2033=CARTESIAN_POINT('Origin',(-15.25,-6.4,1.6));
#2034=CARTESIAN_POINT('Origin',(14.4,6.65,2.1));
#2035=CARTESIAN_POINT('',(14.4,7.45,2.1));
#2036=CARTESIAN_POINT('Origin',(-14.4,6.65,2.1));
#2037=CARTESIAN_POINT('',(-14.4,7.45,2.1));
#2038=CARTESIAN_POINT('Origin',(0.,7.45,2.1));
#2039=CARTESIAN_POINT('Origin',(18.,-8.15,3.6));
#2040=CARTESIAN_POINT('',(18.,-10.15,3.6));
#2041=CARTESIAN_POINT('',(20.,-8.15,3.6));
#2042=CARTESIAN_POINT('Origin',(-18.,-8.15,3.6));
#2043=CARTESIAN_POINT('',(-18.,-10.15,3.6));
#2044=CARTESIAN_POINT('Origin',(20.,0.,3.6));
#2045=CARTESIAN_POINT('Origin',(0.,-10.15,3.6));
#2046=UNCERTAINTY_MEASURE_WITH_UNIT(LENGTH_MEASURE(0.01),#2050,
'DISTANCE_ACCURACY_VALUE',
'Maximum model space distance between geometric entities at asserted c
onnectivities');
#2047=UNCERTAINTY_MEASURE_WITH_UNIT(LENGTH_MEASURE(0.01),#2050,
'DISTANCE_ACCURACY_VALUE',
'Maximum model space distance between geometric entities at asserted c
onnectivities');
#2048=(
GEOMETRIC_REPRESENTATION_CONTEXT(3)
GLOBAL_UNCERTAINTY_ASSIGNED_CONTEXT((#2046))
GLOBAL_UNIT_ASSIGNED_CONTEXT((#2050,#2052,#2053))
REPRESENTATION_CONTEXT('','3D')
);
#2049=(
GEOMETRIC_REPRESENTATION_CONTEXT(3)
GLOBAL_UNCERTAINTY_ASSIGNED_CONTEXT((#2047))
GLOBAL_UNIT_ASSIGNED_CONTEXT((#2050,#2052,#2053))
REPRESENTATION_CONTEXT('','3D')
);
#2050=(
LENGTH_UNIT()
NAMED_UNIT(*)
SI_UNIT(.MILLI.,.METRE.)
);
#2051=(
LENGTH_UNIT()
NAMED_UNIT(*)
SI_UNIT($,.METRE.)
);
#2052=(
NAMED_UNIT(*)
PLANE_ANGLE_UNIT()
SI_UNIT($,.RADIAN.)
);
#2053=(
NAMED_UNIT(*)
SI_UNIT($,.STERADIAN.)
SOLID_ANGLE_UNIT()
);
#2054=SHAPE_DEFINITION_REPRESENTATION(#2055,#2056);
#2055=PRODUCT_DEFINITION_SHAPE('',$,#2058);
#2056=SHAPE_REPRESENTATION('',(#1228),#2048);
#2057=PRODUCT_DEFINITION_CONTEXT('part definition',#2062,'design');
#2058=PRODUCT_DEFINITION('Front_Bezel','Front_Bezel',#2059,#2057);
#2059=PRODUCT_DEFINITION_FORMATION('',$,#2064);
#2060=PRODUCT_RELATED_PRODUCT_CATEGORY('Front_Bezel','Front_Bezel',(#2064));
#2061=APPLICATION_PROTOCOL_DEFINITION('international standard',
'automotive_design',2009,#2062);
#2062=APPLICATION_CONTEXT(
'Core Data for Automotive Mechanical Design Process');
#2063=PRODUCT_CONTEXT('part definition',#2062,'mechanical');
#2064=PRODUCT('Front_Bezel','Front_Bezel',$,(#2063));
#2065=PRESENTATION_STYLE_ASSIGNMENT((#2067));
#2066=PRESENTATION_STYLE_ASSIGNMENT((#2068));
#2067=SURFACE_STYLE_USAGE(.BOTH.,#2069);
#2068=SURFACE_STYLE_USAGE(.BOTH.,#2070);
#2069=SURFACE_SIDE_STYLE('',(#2071));
#2070=SURFACE_SIDE_STYLE('',(#2072));
#2071=SURFACE_STYLE_FILL_AREA(#2073);
#2072=SURFACE_STYLE_FILL_AREA(#2074);
#2073=FILL_AREA_STYLE('Steel - Satin',(#2075));
#2074=FILL_AREA_STYLE('Plastic - Matte (Black)',(#2076));
#2075=FILL_AREA_STYLE_COLOUR('Steel - Satin',#2077);
#2076=FILL_AREA_STYLE_COLOUR('Plastic - Matte (Black)',#2078);
#2077=COLOUR_RGB('Steel - Satin',0.627450980392157,0.627450980392157,0.627450980392157);
#2078=COLOUR_RGB('Plastic - Matte (Black)',0.0980392156862745,0.0980392156862745,
0.0980392156862745);
ENDSEC;
END-ISO-10303-21;
