ISO-10303-21;
HEADER;
/* Generated by software containing ST-Developer
 * from STEP Tools, Inc. (www.steptools.com) 
 */

FILE_DESCRIPTION(
/* description */ (''),
/* implementation_level */ '2;1');

FILE_NAME(
/* name */ 'Front_Bezel.step',
/* time_stamp */ '2026-08-27T21:36:43+01:00',
/* author */ (''),
/* organization */ (''),
/* preprocessor_version */ 'ST-DEVELOPER v20.1',
/* originating_system */ 'Autodesk Translation Framework v15.8.0.0',
/* authorisation */ '');

FILE_SCHEMA (('AUTOMOTIVE_DESIGN { 1 0 10303 214 3 1 1 }'));
ENDSEC;

DATA;
#10=MECHANICAL_DESIGN_GEOMETRIC_PRESENTATION_REPRESENTATION('',(#13),#1855);
#11=SHAPE_REPRESENTATION_RELATIONSHIP('SRR','None',#1862,#12);
#12=ADVANCED_BREP_SHAPE_REPRESENTATION('',(#14),#1854);
#13=STYLED_ITEM('',(#1872),#14);
#14=MANIFOLD_SOLID_BREP('Front_Bezel',#1075);
#15=FACE_BOUND('',#342,.T.);
#16=FACE_BOUND('',#389,.T.);
#17=FACE_BOUND('',#390,.T.);
#18=FACE_BOUND('',#391,.T.);
#19=FACE_BOUND('',#392,.T.);
#20=FACE_BOUND('',#393,.T.);
#21=PLANE('',#1113);
#22=PLANE('',#1116);
#23=PLANE('',#1119);
#24=PLANE('',#1144);
#25=PLANE('',#1147);
#26=PLANE('',#1150);
#27=PLANE('',#1151);
#28=PLANE('',#1152);
#29=PLANE('',#1153);
#30=PLANE('',#1154);
#31=PLANE('',#1155);
#32=PLANE('',#1156);
#33=PLANE('',#1157);
#34=PLANE('',#1158);
#35=PLANE('',#1159);
#36=PLANE('',#1169);
#37=PLANE('',#1173);
#38=PLANE('',#1174);
#39=PLANE('',#1175);
#40=PLANE('',#1176);
#41=PLANE('',#1186);
#42=PLANE('',#1190);
#43=PLANE('',#1191);
#44=PLANE('',#1192);
#45=PLANE('',#1193);
#46=PLANE('',#1198);
#47=PLANE('',#1199);
#48=PLANE('',#1202);
#49=PLANE('',#1205);
#50=PLANE('',#1206);
#51=LINE('',#1555,#147);
#52=LINE('',#1556,#148);
#53=LINE('',#1567,#149);
#54=LINE('',#1568,#150);
#55=LINE('',#1579,#151);
#56=LINE('',#1580,#152);
#57=LINE('',#1588,#153);
#58=LINE('',#1589,#154);
#59=LINE('',#1592,#155);
#60=LINE('',#1594,#156);
#61=LINE('',#1595,#157);
#62=LINE('',#1598,#158);
#63=LINE('',#1602,#159);
#64=LINE('',#1603,#160);
#65=LINE('',#1606,#161);
#66=LINE('',#1613,#162);
#67=LINE('',#1617,#163);
#68=LINE('',#1621,#164);
#69=LINE('',#1624,#165);
#70=LINE('',#1634,#166);
#71=LINE('',#1642,#167);
#72=LINE('',#1650,#168);
#73=LINE('',#1656,#169);
#74=LINE('',#1659,#170);
#75=LINE('',#1661,#171);
#76=LINE('',#1662,#172);
#77=LINE('',#1665,#173);
#78=LINE('',#1669,#174);
#79=LINE('',#1670,#175);
#80=LINE('',#1673,#176);
#81=LINE('',#1678,#177);
#82=LINE('',#1680,#178);
#83=LINE('',#1682,#179);
#84=LINE('',#1683,#180);
#85=LINE('',#1686,#181);
#86=LINE('',#1688,#182);
#87=LINE('',#1689,#183);
#88=LINE('',#1692,#184);
#89=LINE('',#1693,#185);
#90=LINE('',#1696,#186);
#91=LINE('',#1697,#187);
#92=LINE('',#1699,#188);
#93=LINE('',#1703,#189);
#94=LINE('',#1705,#190);
#95=LINE('',#1707,#191);
#96=LINE('',#1708,#192);
#97=LINE('',#1711,#193);
#98=LINE('',#1713,#194);
#99=LINE('',#1714,#195);
#100=LINE('',#1717,#196);
#101=LINE('',#1718,#197);
#102=LINE('',#1721,#198);
#103=LINE('',#1722,#199);
#104=LINE('',#1724,#200);
#105=LINE('',#1728,#201);
#106=LINE('',#1732,#202);
#107=LINE('',#1737,#203);
#108=LINE('',#1741,#204);
#109=LINE('',#1746,#205);
#110=LINE('',#1750,#206);
#111=LINE('',#1753,#207);
#112=LINE('',#1755,#208);
#113=LINE('',#1758,#209);
#114=LINE('',#1759,#210);
#115=LINE('',#1762,#211);
#116=LINE('',#1765,#212);
#117=LINE('',#1767,#213);
#118=LINE('',#1769,#214);
#119=LINE('',#1771,#215);
#120=LINE('',#1773,#216);
#121=LINE('',#1777,#217);
#122=LINE('',#1781,#218);
#123=LINE('',#1786,#219);
#124=LINE('',#1790,#220);
#125=LINE('',#1795,#221);
#126=LINE('',#1799,#222);
#127=LINE('',#1802,#223);
#128=LINE('',#1804,#224);
#129=LINE('',#1807,#225);
#130=LINE('',#1808,#226);
#131=LINE('',#1811,#227);
#132=LINE('',#1814,#228);
#133=LINE('',#1816,#229);
#134=LINE('',#1818,#230);
#135=LINE('',#1820,#231);
#136=LINE('',#1822,#232);
#137=LINE('',#1825,#233);
#138=LINE('',#1828,#234);
#139=LINE('',#1832,#235);
#140=LINE('',#1834,#236);
#141=LINE('',#1836,#237);
#142=LINE('',#1839,#238);
#143=LINE('',#1842,#239);
#144=LINE('',#1844,#240);
#145=LINE('',#1846,#241);
#146=LINE('',#1849,#242);
#147=VECTOR('',#1223,10.);
#148=VECTOR('',#1224,10.);
#149=VECTOR('',#1237,10.);
#150=VECTOR('',#1238,10.);
#151=VECTOR('',#1251,10.);
#152=VECTOR('',#1252,10.);
#153=VECTOR('',#1263,10.);
#154=VECTOR('',#1264,10.);
#155=VECTOR('',#1267,10.);
#156=VECTOR('',#1268,10.);
#157=VECTOR('',#1269,10.);
#158=VECTOR('',#1272,10.);
#159=VECTOR('',#1277,10.);
#160=VECTOR('',#1278,10.);
#161=VECTOR('',#1281,10.);
#162=VECTOR('',#1288,10.);
#163=VECTOR('',#1291,10.);
#164=VECTOR('',#1294,10.);
#165=VECTOR('',#1297,10.);
#166=VECTOR('',#1310,10.);
#167=VECTOR('',#1321,10.);
#168=VECTOR('',#1332,10.);
#169=VECTOR('',#1341,10.);
#170=VECTOR('',#1344,10.);
#171=VECTOR('',#1345,10.);
#172=VECTOR('',#1346,10.);
#173=VECTOR('',#1349,10.);
#174=VECTOR('',#1354,10.);
#175=VECTOR('',#1355,10.);
#176=VECTOR('',#1358,10.);
#177=VECTOR('',#1363,10.);
#178=VECTOR('',#1364,10.);
#179=VECTOR('',#1365,10.);
#180=VECTOR('',#1366,10.);
#181=VECTOR('',#1369,10.);
#182=VECTOR('',#1370,10.);
#183=VECTOR('',#1371,10.);
#184=VECTOR('',#1374,10.);
#185=VECTOR('',#1375,10.);
#186=VECTOR('',#1378,10.);
#187=VECTOR('',#1379,10.);
#188=VECTOR('',#1382,10.);
#189=VECTOR('',#1385,10.);
#190=VECTOR('',#1386,10.);
#191=VECTOR('',#1387,10.);
#192=VECTOR('',#1388,10.);
#193=VECTOR('',#1391,10.);
#194=VECTOR('',#1392,10.);
#195=VECTOR('',#1393,10.);
#196=VECTOR('',#1396,10.);
#197=VECTOR('',#1397,10.);
#198=VECTOR('',#1400,10.);
#199=VECTOR('',#1401,10.);
#200=VECTOR('',#1404,10.);
#201=VECTOR('',#1407,10.);
#202=VECTOR('',#1410,10.);
#203=VECTOR('',#1415,10.);
#204=VECTOR('',#1418,10.);
#205=VECTOR('',#1423,10.);
#206=VECTOR('',#1426,10.);
#207=VECTOR('',#1431,10.);
#208=VECTOR('',#1432,10.);
#209=VECTOR('',#1435,10.);
#210=VECTOR('',#1436,10.);
#211=VECTOR('',#1439,10.);
#212=VECTOR('',#1442,10.);
#213=VECTOR('',#1445,10.);
#214=VECTOR('',#1448,10.);
#215=VECTOR('',#1451,10.);
#216=VECTOR('',#1454,10.);
#217=VECTOR('',#1457,10.);
#218=VECTOR('',#1460,10.);
#219=VECTOR('',#1465,10.);
#220=VECTOR('',#1468,10.);
#221=VECTOR('',#1473,10.);
#222=VECTOR('',#1476,10.);
#223=VECTOR('',#1481,10.);
#224=VECTOR('',#1482,10.);
#225=VECTOR('',#1485,10.);
#226=VECTOR('',#1486,10.);
#227=VECTOR('',#1489,10.);
#228=VECTOR('',#1492,10.);
#229=VECTOR('',#1495,10.);
#230=VECTOR('',#1498,10.);
#231=VECTOR('',#1501,10.);
#232=VECTOR('',#1504,10.);
#233=VECTOR('',#1507,10.);
#234=VECTOR('',#1510,10.);
#235=VECTOR('',#1515,10.);
#236=VECTOR('',#1518,10.);
#237=VECTOR('',#1521,10.);
#238=VECTOR('',#1524,10.);
#239=VECTOR('',#1527,10.);
#240=VECTOR('',#1530,10.);
#241=VECTOR('',#1531,10.);
#242=VECTOR('',#1536,10.);
#243=CYLINDRICAL_SURFACE('',#1094,0.4);
#244=CYLINDRICAL_SURFACE('',#1100,0.4);
#245=CYLINDRICAL_SURFACE('',#1106,0.4);
#246=CYLINDRICAL_SURFACE('',#1112,0.4);
#247=CYLINDRICAL_SURFACE('',#1114,2.);
#248=CYLINDRICAL_SURFACE('',#1117,2.);
#249=CYLINDRICAL_SURFACE('',#1128,0.4);
#250=CYLINDRICAL_SURFACE('',#1133,0.4);
#251=CYLINDRICAL_SURFACE('',#1138,0.4);
#252=CYLINDRICAL_SURFACE('',#1143,0.4);
#253=CYLINDRICAL_SURFACE('',#1145,0.8);
#254=CYLINDRICAL_SURFACE('',#1148,0.8);
#255=CYLINDRICAL_SURFACE('',#1160,0.6);
#256=CYLINDRICAL_SURFACE('',#1163,0.6);
#257=CYLINDRICAL_SURFACE('',#1166,0.6);
#258=CYLINDRICAL_SURFACE('',#1171,0.6);
#259=CYLINDRICAL_SURFACE('',#1177,0.6);
#260=CYLINDRICAL_SURFACE('',#1180,0.6);
#261=CYLINDRICAL_SURFACE('',#1183,0.6);
#262=CYLINDRICAL_SURFACE('',#1188,0.6);
#263=CYLINDRICAL_SURFACE('',#1194,0.8);
#264=CYLINDRICAL_SURFACE('',#1196,0.8);
#265=CYLINDRICAL_SURFACE('',#1200,2.);
#266=CYLINDRICAL_SURFACE('',#1204,2.);
#267=FACE_OUTER_BOUND('',#329,.T.);
#268=FACE_OUTER_BOUND('',#330,.T.);
#269=FACE_OUTER_BOUND('',#331,.T.);
#270=FACE_OUTER_BOUND('',#332,.T.);
#271=FACE_OUTER_BOUND('',#333,.T.);
#272=FACE_OUTER_BOUND('',#334,.T.);
#273=FACE_OUTER_BOUND('',#335,.T.);
#274=FACE_OUTER_BOUND('',#336,.T.);
#275=FACE_OUTER_BOUND('',#337,.T.);
#276=FACE_OUTER_BOUND('',#338,.T.);
#277=FACE_OUTER_BOUND('',#339,.T.);
#278=FACE_OUTER_BOUND('',#340,.T.);
#279=FACE_OUTER_BOUND('',#341,.T.);
#280=FACE_OUTER_BOUND('',#343,.T.);
#281=FACE_OUTER_BOUND('',#344,.T.);
#282=FACE_OUTER_BOUND('',#345,.T.);
#283=FACE_OUTER_BOUND('',#346,.T.);
#284=FACE_OUTER_BOUND('',#347,.T.);
#285=FACE_OUTER_BOUND('',#348,.T.);
#286=FACE_OUTER_BOUND('',#349,.T.);
#287=FACE_OUTER_BOUND('',#350,.T.);
#288=FACE_OUTER_BOUND('',#351,.T.);
#289=FACE_OUTER_BOUND('',#352,.T.);
#290=FACE_OUTER_BOUND('',#353,.T.);
#291=FACE_OUTER_BOUND('',#354,.T.);
#292=FACE_OUTER_BOUND('',#355,.T.);
#293=FACE_OUTER_BOUND('',#356,.T.);
#294=FACE_OUTER_BOUND('',#357,.T.);
#295=FACE_OUTER_BOUND('',#358,.T.);
#296=FACE_OUTER_BOUND('',#359,.T.);
#297=FACE_OUTER_BOUND('',#360,.T.);
#298=FACE_OUTER_BOUND('',#361,.T.);
#299=FACE_OUTER_BOUND('',#362,.T.);
#300=FACE_OUTER_BOUND('',#363,.T.);
#301=FACE_OUTER_BOUND('',#364,.T.);
#302=FACE_OUTER_BOUND('',#365,.T.);
#303=FACE_OUTER_BOUND('',#366,.T.);
#304=FACE_OUTER_BOUND('',#367,.T.);
#305=FACE_OUTER_BOUND('',#368,.T.);
#306=FACE_OUTER_BOUND('',#369,.T.);
#307=FACE_OUTER_BOUND('',#370,.T.);
#308=FACE_OUTER_BOUND('',#371,.T.);
#309=FACE_OUTER_BOUND('',#372,.T.);
#310=FACE_OUTER_BOUND('',#373,.T.);
#311=FACE_OUTER_BOUND('',#374,.T.);
#312=FACE_OUTER_BOUND('',#375,.T.);
#313=FACE_OUTER_BOUND('',#376,.T.);
#314=FACE_OUTER_BOUND('',#377,.T.);
#315=FACE_OUTER_BOUND('',#378,.T.);
#316=FACE_OUTER_BOUND('',#379,.T.);
#317=FACE_OUTER_BOUND('',#380,.T.);
#318=FACE_OUTER_BOUND('',#381,.T.);
#319=FACE_OUTER_BOUND('',#382,.T.);
#320=FACE_OUTER_BOUND('',#383,.T.);
#321=FACE_OUTER_BOUND('',#384,.T.);
#322=FACE_OUTER_BOUND('',#385,.T.);
#323=FACE_OUTER_BOUND('',#386,.T.);
#324=FACE_OUTER_BOUND('',#387,.T.);
#325=FACE_OUTER_BOUND('',#388,.T.);
#326=FACE_OUTER_BOUND('',#394,.T.);
#327=FACE_OUTER_BOUND('',#395,.T.);
#328=FACE_OUTER_BOUND('',#396,.T.);
#329=EDGE_LOOP('',(#701,#702,#703,#704));
#330=EDGE_LOOP('',(#705,#706,#707,#708));
#331=EDGE_LOOP('',(#709,#710,#711,#712));
#332=EDGE_LOOP('',(#713,#714,#715,#716));
#333=EDGE_LOOP('',(#717,#718,#719,#720));
#334=EDGE_LOOP('',(#721,#722,#723,#724));
#335=EDGE_LOOP('',(#725,#726,#727,#728));
#336=EDGE_LOOP('',(#729,#730,#731,#732));
#337=EDGE_LOOP('',(#733,#734,#735,#736));
#338=EDGE_LOOP('',(#737,#738,#739,#740));
#339=EDGE_LOOP('',(#741,#742,#743,#744));
#340=EDGE_LOOP('',(#745,#746,#747,#748));
#341=EDGE_LOOP('',(#749,#750,#751,#752,#753,#754,#755,#756));
#342=EDGE_LOOP('',(#757,#758,#759,#760,#761,#762,#763,#764));
#343=EDGE_LOOP('',(#765,#766,#767,#768));
#344=EDGE_LOOP('',(#769,#770,#771,#772));
#345=EDGE_LOOP('',(#773,#774,#775,#776));
#346=EDGE_LOOP('',(#777,#778,#779,#780));
#347=EDGE_LOOP('',(#781,#782,#783,#784));
#348=EDGE_LOOP('',(#785,#786,#787,#788));
#349=EDGE_LOOP('',(#789,#790,#791,#792));
#350=EDGE_LOOP('',(#793,#794,#795,#796));
#351=EDGE_LOOP('',(#797,#798,#799,#800));
#352=EDGE_LOOP('',(#801,#802,#803,#804));
#353=EDGE_LOOP('',(#805,#806,#807,#808));
#354=EDGE_LOOP('',(#809,#810,#811,#812));
#355=EDGE_LOOP('',(#813,#814,#815,#816));
#356=EDGE_LOOP('',(#817,#818,#819,#820));
#357=EDGE_LOOP('',(#821,#822,#823,#824));
#358=EDGE_LOOP('',(#825,#826,#827,#828));
#359=EDGE_LOOP('',(#829,#830,#831,#832));
#360=EDGE_LOOP('',(#833,#834,#835,#836));
#361=EDGE_LOOP('',(#837,#838,#839,#840));
#362=EDGE_LOOP('',(#841,#842,#843,#844));
#363=EDGE_LOOP('',(#845,#846,#847,#848));
#364=EDGE_LOOP('',(#849,#850,#851,#852));
#365=EDGE_LOOP('',(#853,#854,#855,#856));
#366=EDGE_LOOP('',(#857,#858,#859,#860));
#367=EDGE_LOOP('',(#861,#862,#863,#864));
#368=EDGE_LOOP('',(#865,#866,#867,#868,#869,#870,#871,#872));
#369=EDGE_LOOP('',(#873,#874,#875,#876));
#370=EDGE_LOOP('',(#877,#878,#879,#880));
#371=EDGE_LOOP('',(#881,#882,#883,#884));
#372=EDGE_LOOP('',(#885,#886,#887,#888));
#373=EDGE_LOOP('',(#889,#890,#891,#892));
#374=EDGE_LOOP('',(#893,#894,#895,#896));
#375=EDGE_LOOP('',(#897,#898,#899,#900));
#376=EDGE_LOOP('',(#901,#902,#903,#904));
#377=EDGE_LOOP('',(#905,#906,#907,#908,#909,#910,#911,#912));
#378=EDGE_LOOP('',(#913,#914,#915,#916));
#379=EDGE_LOOP('',(#917,#918,#919,#920));
#380=EDGE_LOOP('',(#921,#922,#923,#924));
#381=EDGE_LOOP('',(#925,#926,#927,#928));
#382=EDGE_LOOP('',(#929,#930,#931,#932));
#383=EDGE_LOOP('',(#933,#934,#935,#936));
#384=EDGE_LOOP('',(#937,#938,#939,#940));
#385=EDGE_LOOP('',(#941,#942,#943,#944));
#386=EDGE_LOOP('',(#945,#946,#947,#948));
#387=EDGE_LOOP('',(#949,#950,#951,#952));
#388=EDGE_LOOP('',(#953,#954,#955,#956,#957,#958,#959,#960));
#389=EDGE_LOOP('',(#961,#962,#963,#964));
#390=EDGE_LOOP('',(#965,#966,#967,#968));
#391=EDGE_LOOP('',(#969,#970,#971,#972,#973,#974,#975,#976));
#392=EDGE_LOOP('',(#977,#978,#979,#980,#981,#982,#983,#984));
#393=EDGE_LOOP('',(#985,#986,#987,#988,#989,#990,#991,#992));
#394=EDGE_LOOP('',(#993,#994,#995,#996));
#395=EDGE_LOOP('',(#997,#998,#999,#1000));
#396=EDGE_LOOP('',(#1001,#1002,#1003,#1004));
#397=CIRCLE('',#1090,0.4);
#398=CIRCLE('',#1091,2.);
#399=CIRCLE('',#1092,0.4);
#400=CIRCLE('',#1093,1.6);
#401=CIRCLE('',#1095,0.4);
#402=CIRCLE('',#1097,0.4);
#403=CIRCLE('',#1098,1.6);
#404=CIRCLE('',#1099,2.);
#405=CIRCLE('',#1101,0.4);
#406=CIRCLE('',#1103,0.4);
#407=CIRCLE('',#1104,1.6);
#408=CIRCLE('',#1105,2.);
#409=CIRCLE('',#1107,0.4);
#410=CIRCLE('',#1109,0.4);
#411=CIRCLE('',#1110,1.6);
#412=CIRCLE('',#1111,2.);
#413=CIRCLE('',#1115,2.);
#414=CIRCLE('',#1118,2.);
#415=CIRCLE('',#1120,1.2);
#416=CIRCLE('',#1121,1.2);
#417=CIRCLE('',#1122,1.2);
#418=CIRCLE('',#1123,1.2);
#419=CIRCLE('',#1125,0.4);
#420=CIRCLE('',#1126,0.8);
#421=CIRCLE('',#1127,0.4);
#422=CIRCLE('',#1129,0.4);
#423=CIRCLE('',#1131,0.400000000000001);
#424=CIRCLE('',#1132,0.8);
#425=CIRCLE('',#1134,0.4);
#426=CIRCLE('',#1136,0.4);
#427=CIRCLE('',#1137,0.8);
#428=CIRCLE('',#1139,0.4);
#429=CIRCLE('',#1141,0.400000000000001);
#430=CIRCLE('',#1142,0.8);
#431=CIRCLE('',#1146,0.8);
#432=CIRCLE('',#1149,0.8);
#433=CIRCLE('',#1161,0.6);
#434=CIRCLE('',#1162,0.6);
#435=CIRCLE('',#1164,0.6);
#436=CIRCLE('',#1165,0.6);
#437=CIRCLE('',#1167,0.6);
#438=CIRCLE('',#1168,0.6);
#439=CIRCLE('',#1170,0.6);
#440=CIRCLE('',#1172,0.6);
#441=CIRCLE('',#1178,0.6);
#442=CIRCLE('',#1179,0.6);
#443=CIRCLE('',#1181,0.6);
#444=CIRCLE('',#1182,0.6);
#445=CIRCLE('',#1184,0.6);
#446=CIRCLE('',#1185,0.6);
#447=CIRCLE('',#1187,0.6);
#448=CIRCLE('',#1189,0.6);
#449=CIRCLE('',#1195,0.8);
#450=CIRCLE('',#1197,0.8);
#451=CIRCLE('',#1201,2.);
#452=CIRCLE('',#1203,2.);
#453=VERTEX_POINT('',#1543);
#454=VERTEX_POINT('',#1544);
#455=VERTEX_POINT('',#1546);
#456=VERTEX_POINT('',#1548);
#457=VERTEX_POINT('',#1552);
#458=VERTEX_POINT('',#1553);
#459=VERTEX_POINT('',#1558);
#460=VERTEX_POINT('',#1559);
#461=VERTEX_POINT('',#1564);
#462=VERTEX_POINT('',#1565);
#463=VERTEX_POINT('',#1570);
#464=VERTEX_POINT('',#1571);
#465=VERTEX_POINT('',#1576);
#466=VERTEX_POINT('',#1577);
#467=VERTEX_POINT('',#1582);
#468=VERTEX_POINT('',#1583);
#469=VERTEX_POINT('',#1591);
#470=VERTEX_POINT('',#1593);
#471=VERTEX_POINT('',#1597);
#472=VERTEX_POINT('',#1601);
#473=VERTEX_POINT('',#1605);
#474=VERTEX_POINT('',#1609);
#475=VERTEX_POINT('',#1610);
#476=VERTEX_POINT('',#1612);
#477=VERTEX_POINT('',#1614);
#478=VERTEX_POINT('',#1616);
#479=VERTEX_POINT('',#1618);
#480=VERTEX_POINT('',#1620);
#481=VERTEX_POINT('',#1622);
#482=VERTEX_POINT('',#1626);
#483=VERTEX_POINT('',#1628);
#484=VERTEX_POINT('',#1632);
#485=VERTEX_POINT('',#1636);
#486=VERTEX_POINT('',#1640);
#487=VERTEX_POINT('',#1644);
#488=VERTEX_POINT('',#1648);
#489=VERTEX_POINT('',#1652);
#490=VERTEX_POINT('',#1658);
#491=VERTEX_POINT('',#1660);
#492=VERTEX_POINT('',#1664);
#493=VERTEX_POINT('',#1668);
#494=VERTEX_POINT('',#1672);
#495=VERTEX_POINT('',#1676);
#496=VERTEX_POINT('',#1677);
#497=VERTEX_POINT('',#1679);
#498=VERTEX_POINT('',#1681);
#499=VERTEX_POINT('',#1685);
#500=VERTEX_POINT('',#1687);
#501=VERTEX_POINT('',#1691);
#502=VERTEX_POINT('',#1695);
#503=VERTEX_POINT('',#1701);
#504=VERTEX_POINT('',#1702);
#505=VERTEX_POINT('',#1704);
#506=VERTEX_POINT('',#1706);
#507=VERTEX_POINT('',#1710);
#508=VERTEX_POINT('',#1712);
#509=VERTEX_POINT('',#1716);
#510=VERTEX_POINT('',#1720);
#511=VERTEX_POINT('',#1726);
#512=VERTEX_POINT('',#1727);
#513=VERTEX_POINT('',#1729);
#514=VERTEX_POINT('',#1731);
#515=VERTEX_POINT('',#1735);
#516=VERTEX_POINT('',#1736);
#517=VERTEX_POINT('',#1738);
#518=VERTEX_POINT('',#1740);
#519=VERTEX_POINT('',#1744);
#520=VERTEX_POINT('',#1745);
#521=VERTEX_POINT('',#1747);
#522=VERTEX_POINT('',#1749);
#523=VERTEX_POINT('',#1754);
#524=VERTEX_POINT('',#1756);
#525=VERTEX_POINT('',#1761);
#526=VERTEX_POINT('',#1763);
#527=VERTEX_POINT('',#1775);
#528=VERTEX_POINT('',#1776);
#529=VERTEX_POINT('',#1778);
#530=VERTEX_POINT('',#1780);
#531=VERTEX_POINT('',#1784);
#532=VERTEX_POINT('',#1785);
#533=VERTEX_POINT('',#1787);
#534=VERTEX_POINT('',#1789);
#535=VERTEX_POINT('',#1793);
#536=VERTEX_POINT('',#1794);
#537=VERTEX_POINT('',#1796);
#538=VERTEX_POINT('',#1798);
#539=VERTEX_POINT('',#1803);
#540=VERTEX_POINT('',#1805);
#541=VERTEX_POINT('',#1810);
#542=VERTEX_POINT('',#1812);
#543=VERTEX_POINT('',#1824);
#544=VERTEX_POINT('',#1826);
#545=VERTEX_POINT('',#1830);
#546=VERTEX_POINT('',#1838);
#547=VERTEX_POINT('',#1840);
#548=VERTEX_POINT('',#1845);
#549=EDGE_CURVE('',#453,#454,#397,.T.);
#550=EDGE_CURVE('',#454,#455,#398,.T.);
#551=EDGE_CURVE('',#455,#456,#399,.T.);
#552=EDGE_CURVE('',#456,#453,#400,.T.);
#553=EDGE_CURVE('',#457,#458,#401,.T.);
#554=EDGE_CURVE('',#458,#456,#51,.T.);
#555=EDGE_CURVE('',#455,#457,#52,.T.);
#556=EDGE_CURVE('',#459,#460,#402,.T.);
#557=EDGE_CURVE('',#460,#458,#403,.T.);
#558=EDGE_CURVE('',#457,#459,#404,.T.);
#559=EDGE_CURVE('',#461,#462,#405,.T.);
#560=EDGE_CURVE('',#462,#460,#53,.T.);
#561=EDGE_CURVE('',#459,#461,#54,.T.);
#562=EDGE_CURVE('',#463,#464,#406,.T.);
#563=EDGE_CURVE('',#464,#462,#407,.T.);
#564=EDGE_CURVE('',#461,#463,#408,.T.);
#565=EDGE_CURVE('',#465,#466,#409,.T.);
#566=EDGE_CURVE('',#466,#464,#55,.T.);
#567=EDGE_CURVE('',#463,#465,#56,.T.);
#568=EDGE_CURVE('',#467,#468,#410,.T.);
#569=EDGE_CURVE('',#468,#466,#411,.T.);
#570=EDGE_CURVE('',#465,#467,#412,.T.);
#571=EDGE_CURVE('',#453,#468,#57,.T.);
#572=EDGE_CURVE('',#467,#454,#58,.T.);
#573=EDGE_CURVE('',#459,#469,#59,.T.);
#574=EDGE_CURVE('',#470,#469,#60,.T.);
#575=EDGE_CURVE('',#461,#470,#61,.T.);
#576=EDGE_CURVE('',#457,#471,#62,.T.);
#577=EDGE_CURVE('',#469,#471,#413,.T.);
#578=EDGE_CURVE('',#455,#472,#63,.T.);
#579=EDGE_CURVE('',#471,#472,#64,.T.);
#580=EDGE_CURVE('',#454,#473,#65,.T.);
#581=EDGE_CURVE('',#472,#473,#414,.T.);
#582=EDGE_CURVE('',#474,#475,#415,.T.);
#583=EDGE_CURVE('',#476,#474,#66,.T.);
#584=EDGE_CURVE('',#477,#476,#416,.T.);
#585=EDGE_CURVE('',#478,#477,#67,.T.);
#586=EDGE_CURVE('',#479,#478,#417,.T.);
#587=EDGE_CURVE('',#480,#479,#68,.T.);
#588=EDGE_CURVE('',#481,#480,#418,.T.);
#589=EDGE_CURVE('',#475,#481,#69,.T.);
#590=EDGE_CURVE('',#475,#482,#419,.T.);
#591=EDGE_CURVE('',#482,#483,#420,.T.);
#592=EDGE_CURVE('',#483,#474,#421,.T.);
#593=EDGE_CURVE('',#484,#476,#422,.T.);
#594=EDGE_CURVE('',#483,#484,#70,.T.);
#595=EDGE_CURVE('',#485,#477,#423,.T.);
#596=EDGE_CURVE('',#484,#485,#424,.T.);
#597=EDGE_CURVE('',#486,#478,#425,.T.);
#598=EDGE_CURVE('',#485,#486,#71,.T.);
#599=EDGE_CURVE('',#487,#479,#426,.T.);
#600=EDGE_CURVE('',#486,#487,#427,.T.);
#601=EDGE_CURVE('',#488,#480,#428,.T.);
#602=EDGE_CURVE('',#487,#488,#72,.T.);
#603=EDGE_CURVE('',#489,#481,#429,.T.);
#604=EDGE_CURVE('',#488,#489,#430,.T.);
#605=EDGE_CURVE('',#489,#482,#73,.T.);
#606=EDGE_CURVE('',#485,#490,#74,.T.);
#607=EDGE_CURVE('',#491,#490,#75,.T.);
#608=EDGE_CURVE('',#486,#491,#76,.T.);
#609=EDGE_CURVE('',#484,#492,#77,.T.);
#610=EDGE_CURVE('',#490,#492,#431,.T.);
#611=EDGE_CURVE('',#483,#493,#78,.T.);
#612=EDGE_CURVE('',#492,#493,#79,.T.);
#613=EDGE_CURVE('',#482,#494,#80,.T.);
#614=EDGE_CURVE('',#493,#494,#432,.T.);
#615=EDGE_CURVE('',#495,#496,#81,.T.);
#616=EDGE_CURVE('',#497,#495,#82,.T.);
#617=EDGE_CURVE('',#497,#498,#83,.T.);
#618=EDGE_CURVE('',#498,#496,#84,.T.);
#619=EDGE_CURVE('',#496,#499,#85,.T.);
#620=EDGE_CURVE('',#498,#500,#86,.T.);
#621=EDGE_CURVE('',#500,#499,#87,.T.);
#622=EDGE_CURVE('',#501,#497,#88,.T.);
#623=EDGE_CURVE('',#500,#501,#89,.T.);
#624=EDGE_CURVE('',#499,#502,#90,.T.);
#625=EDGE_CURVE('',#501,#502,#91,.T.);
#626=EDGE_CURVE('',#502,#495,#92,.T.);
#627=EDGE_CURVE('',#503,#504,#93,.T.);
#628=EDGE_CURVE('',#505,#503,#94,.T.);
#629=EDGE_CURVE('',#505,#506,#95,.T.);
#630=EDGE_CURVE('',#506,#504,#96,.T.);
#631=EDGE_CURVE('',#504,#507,#97,.T.);
#632=EDGE_CURVE('',#506,#508,#98,.T.);
#633=EDGE_CURVE('',#508,#507,#99,.T.);
#634=EDGE_CURVE('',#509,#505,#100,.T.);
#635=EDGE_CURVE('',#508,#509,#101,.T.);
#636=EDGE_CURVE('',#507,#510,#102,.T.);
#637=EDGE_CURVE('',#509,#510,#103,.T.);
#638=EDGE_CURVE('',#510,#503,#104,.T.);
#639=EDGE_CURVE('',#511,#512,#105,.T.);
#640=EDGE_CURVE('',#513,#512,#433,.T.);
#641=EDGE_CURVE('',#514,#513,#106,.T.);
#642=EDGE_CURVE('',#511,#514,#434,.T.);
#643=EDGE_CURVE('',#515,#516,#107,.T.);
#644=EDGE_CURVE('',#517,#516,#435,.T.);
#645=EDGE_CURVE('',#518,#517,#108,.T.);
#646=EDGE_CURVE('',#515,#518,#436,.T.);
#647=EDGE_CURVE('',#519,#520,#109,.T.);
#648=EDGE_CURVE('',#521,#519,#437,.T.);
#649=EDGE_CURVE('',#521,#522,#110,.T.);
#650=EDGE_CURVE('',#520,#522,#438,.T.);
#651=EDGE_CURVE('',#512,#517,#111,.T.);
#652=EDGE_CURVE('',#516,#523,#112,.T.);
#653=EDGE_CURVE('',#523,#524,#439,.T.);
#654=EDGE_CURVE('',#524,#520,#113,.T.);
#655=EDGE_CURVE('',#522,#513,#114,.T.);
#656=EDGE_CURVE('',#525,#523,#115,.T.);
#657=EDGE_CURVE('',#526,#525,#440,.T.);
#658=EDGE_CURVE('',#526,#524,#116,.T.);
#659=EDGE_CURVE('',#519,#526,#117,.T.);
#660=EDGE_CURVE('',#518,#511,#118,.T.);
#661=EDGE_CURVE('',#525,#515,#119,.T.);
#662=EDGE_CURVE('',#514,#521,#120,.T.);
#663=EDGE_CURVE('',#527,#528,#121,.T.);
#664=EDGE_CURVE('',#529,#528,#441,.T.);
#665=EDGE_CURVE('',#530,#529,#122,.T.);
#666=EDGE_CURVE('',#527,#530,#442,.T.);
#667=EDGE_CURVE('',#531,#532,#123,.T.);
#668=EDGE_CURVE('',#533,#532,#443,.T.);
#669=EDGE_CURVE('',#534,#533,#124,.T.);
#670=EDGE_CURVE('',#531,#534,#444,.T.);
#671=EDGE_CURVE('',#535,#536,#125,.T.);
#672=EDGE_CURVE('',#537,#535,#445,.T.);
#673=EDGE_CURVE('',#537,#538,#126,.T.);
#674=EDGE_CURVE('',#536,#538,#446,.T.);
#675=EDGE_CURVE('',#528,#533,#127,.T.);
#676=EDGE_CURVE('',#532,#539,#128,.T.);
#677=EDGE_CURVE('',#539,#540,#447,.T.);
#678=EDGE_CURVE('',#540,#536,#129,.T.);
#679=EDGE_CURVE('',#538,#529,#130,.T.);
#680=EDGE_CURVE('',#541,#539,#131,.T.);
#681=EDGE_CURVE('',#542,#541,#448,.T.);
#682=EDGE_CURVE('',#542,#540,#132,.T.);
#683=EDGE_CURVE('',#535,#542,#133,.T.);
#684=EDGE_CURVE('',#534,#527,#134,.T.);
#685=EDGE_CURVE('',#541,#531,#135,.T.);
#686=EDGE_CURVE('',#530,#537,#136,.T.);
#687=EDGE_CURVE('',#488,#543,#137,.T.);
#688=EDGE_CURVE('',#544,#543,#449,.T.);
#689=EDGE_CURVE('',#489,#544,#138,.T.);
#690=EDGE_CURVE('',#545,#491,#450,.T.);
#691=EDGE_CURVE('',#487,#545,#139,.T.);
#692=EDGE_CURVE('',#543,#545,#140,.T.);
#693=EDGE_CURVE('',#494,#544,#141,.T.);
#694=EDGE_CURVE('',#465,#546,#142,.T.);
#695=EDGE_CURVE('',#547,#546,#451,.T.);
#696=EDGE_CURVE('',#467,#547,#143,.T.);
#697=EDGE_CURVE('',#473,#547,#144,.T.);
#698=EDGE_CURVE('',#546,#548,#145,.T.);
#699=EDGE_CURVE('',#548,#470,#452,.T.);
#700=EDGE_CURVE('',#463,#548,#146,.T.);
#701=ORIENTED_EDGE('',*,*,#549,.T.);
#702=ORIENTED_EDGE('',*,*,#550,.T.);
#703=ORIENTED_EDGE('',*,*,#551,.T.);
#704=ORIENTED_EDGE('',*,*,#552,.T.);
#705=ORIENTED_EDGE('',*,*,#553,.T.);
#706=ORIENTED_EDGE('',*,*,#554,.T.);
#707=ORIENTED_EDGE('',*,*,#551,.F.);
#708=ORIENTED_EDGE('',*,*,#555,.T.);
#709=ORIENTED_EDGE('',*,*,#556,.T.);
#710=ORIENTED_EDGE('',*,*,#557,.T.);
#711=ORIENTED_EDGE('',*,*,#553,.F.);
#712=ORIENTED_EDGE('',*,*,#558,.T.);
#713=ORIENTED_EDGE('',*,*,#559,.T.);
#714=ORIENTED_EDGE('',*,*,#560,.T.);
#715=ORIENTED_EDGE('',*,*,#556,.F.);
#716=ORIENTED_EDGE('',*,*,#561,.T.);
#717=ORIENTED_EDGE('',*,*,#562,.T.);
#718=ORIENTED_EDGE('',*,*,#563,.T.);
#719=ORIENTED_EDGE('',*,*,#559,.F.);
#720=ORIENTED_EDGE('',*,*,#564,.T.);
#721=ORIENTED_EDGE('',*,*,#565,.T.);
#722=ORIENTED_EDGE('',*,*,#566,.T.);
#723=ORIENTED_EDGE('',*,*,#562,.F.);
#724=ORIENTED_EDGE('',*,*,#567,.T.);
#725=ORIENTED_EDGE('',*,*,#568,.T.);
#726=ORIENTED_EDGE('',*,*,#569,.T.);
#727=ORIENTED_EDGE('',*,*,#565,.F.);
#728=ORIENTED_EDGE('',*,*,#570,.T.);
#729=ORIENTED_EDGE('',*,*,#549,.F.);
#730=ORIENTED_EDGE('',*,*,#571,.T.);
#731=ORIENTED_EDGE('',*,*,#568,.F.);
#732=ORIENTED_EDGE('',*,*,#572,.T.);
#733=ORIENTED_EDGE('',*,*,#561,.F.);
#734=ORIENTED_EDGE('',*,*,#573,.T.);
#735=ORIENTED_EDGE('',*,*,#574,.F.);
#736=ORIENTED_EDGE('',*,*,#575,.F.);
#737=ORIENTED_EDGE('',*,*,#558,.F.);
#738=ORIENTED_EDGE('',*,*,#576,.T.);
#739=ORIENTED_EDGE('',*,*,#577,.F.);
#740=ORIENTED_EDGE('',*,*,#573,.F.);
#741=ORIENTED_EDGE('',*,*,#555,.F.);
#742=ORIENTED_EDGE('',*,*,#578,.T.);
#743=ORIENTED_EDGE('',*,*,#579,.F.);
#744=ORIENTED_EDGE('',*,*,#576,.F.);
#745=ORIENTED_EDGE('',*,*,#550,.F.);
#746=ORIENTED_EDGE('',*,*,#580,.T.);
#747=ORIENTED_EDGE('',*,*,#581,.F.);
#748=ORIENTED_EDGE('',*,*,#578,.F.);
#749=ORIENTED_EDGE('',*,*,#552,.F.);
#750=ORIENTED_EDGE('',*,*,#554,.F.);
#751=ORIENTED_EDGE('',*,*,#557,.F.);
#752=ORIENTED_EDGE('',*,*,#560,.F.);
#753=ORIENTED_EDGE('',*,*,#563,.F.);
#754=ORIENTED_EDGE('',*,*,#566,.F.);
#755=ORIENTED_EDGE('',*,*,#569,.F.);
#756=ORIENTED_EDGE('',*,*,#571,.F.);
#757=ORIENTED_EDGE('',*,*,#582,.F.);
#758=ORIENTED_EDGE('',*,*,#583,.F.);
#759=ORIENTED_EDGE('',*,*,#584,.F.);
#760=ORIENTED_EDGE('',*,*,#585,.F.);
#761=ORIENTED_EDGE('',*,*,#586,.F.);
#762=ORIENTED_EDGE('',*,*,#587,.F.);
#763=ORIENTED_EDGE('',*,*,#588,.F.);
#764=ORIENTED_EDGE('',*,*,#589,.F.);
#765=ORIENTED_EDGE('',*,*,#590,.T.);
#766=ORIENTED_EDGE('',*,*,#591,.T.);
#767=ORIENTED_EDGE('',*,*,#592,.T.);
#768=ORIENTED_EDGE('',*,*,#582,.T.);
#769=ORIENTED_EDGE('',*,*,#593,.T.);
#770=ORIENTED_EDGE('',*,*,#583,.T.);
#771=ORIENTED_EDGE('',*,*,#592,.F.);
#772=ORIENTED_EDGE('',*,*,#594,.T.);
#773=ORIENTED_EDGE('',*,*,#595,.T.);
#774=ORIENTED_EDGE('',*,*,#584,.T.);
#775=ORIENTED_EDGE('',*,*,#593,.F.);
#776=ORIENTED_EDGE('',*,*,#596,.T.);
#777=ORIENTED_EDGE('',*,*,#597,.T.);
#778=ORIENTED_EDGE('',*,*,#585,.T.);
#779=ORIENTED_EDGE('',*,*,#595,.F.);
#780=ORIENTED_EDGE('',*,*,#598,.T.);
#781=ORIENTED_EDGE('',*,*,#599,.T.);
#782=ORIENTED_EDGE('',*,*,#586,.T.);
#783=ORIENTED_EDGE('',*,*,#597,.F.);
#784=ORIENTED_EDGE('',*,*,#600,.T.);
#785=ORIENTED_EDGE('',*,*,#601,.T.);
#786=ORIENTED_EDGE('',*,*,#587,.T.);
#787=ORIENTED_EDGE('',*,*,#599,.F.);
#788=ORIENTED_EDGE('',*,*,#602,.T.);
#789=ORIENTED_EDGE('',*,*,#603,.T.);
#790=ORIENTED_EDGE('',*,*,#588,.T.);
#791=ORIENTED_EDGE('',*,*,#601,.F.);
#792=ORIENTED_EDGE('',*,*,#604,.T.);
#793=ORIENTED_EDGE('',*,*,#590,.F.);
#794=ORIENTED_EDGE('',*,*,#589,.T.);
#795=ORIENTED_EDGE('',*,*,#603,.F.);
#796=ORIENTED_EDGE('',*,*,#605,.T.);
#797=ORIENTED_EDGE('',*,*,#598,.F.);
#798=ORIENTED_EDGE('',*,*,#606,.T.);
#799=ORIENTED_EDGE('',*,*,#607,.F.);
#800=ORIENTED_EDGE('',*,*,#608,.F.);
#801=ORIENTED_EDGE('',*,*,#596,.F.);
#802=ORIENTED_EDGE('',*,*,#609,.T.);
#803=ORIENTED_EDGE('',*,*,#610,.F.);
#804=ORIENTED_EDGE('',*,*,#606,.F.);
#805=ORIENTED_EDGE('',*,*,#594,.F.);
#806=ORIENTED_EDGE('',*,*,#611,.T.);
#807=ORIENTED_EDGE('',*,*,#612,.F.);
#808=ORIENTED_EDGE('',*,*,#609,.F.);
#809=ORIENTED_EDGE('',*,*,#591,.F.);
#810=ORIENTED_EDGE('',*,*,#613,.T.);
#811=ORIENTED_EDGE('',*,*,#614,.F.);
#812=ORIENTED_EDGE('',*,*,#611,.F.);
#813=ORIENTED_EDGE('',*,*,#615,.F.);
#814=ORIENTED_EDGE('',*,*,#616,.F.);
#815=ORIENTED_EDGE('',*,*,#617,.T.);
#816=ORIENTED_EDGE('',*,*,#618,.T.);
#817=ORIENTED_EDGE('',*,*,#619,.F.);
#818=ORIENTED_EDGE('',*,*,#618,.F.);
#819=ORIENTED_EDGE('',*,*,#620,.T.);
#820=ORIENTED_EDGE('',*,*,#621,.T.);
#821=ORIENTED_EDGE('',*,*,#622,.F.);
#822=ORIENTED_EDGE('',*,*,#623,.F.);
#823=ORIENTED_EDGE('',*,*,#620,.F.);
#824=ORIENTED_EDGE('',*,*,#617,.F.);
#825=ORIENTED_EDGE('',*,*,#624,.F.);
#826=ORIENTED_EDGE('',*,*,#621,.F.);
#827=ORIENTED_EDGE('',*,*,#623,.T.);
#828=ORIENTED_EDGE('',*,*,#625,.T.);
#829=ORIENTED_EDGE('',*,*,#626,.F.);
#830=ORIENTED_EDGE('',*,*,#625,.F.);
#831=ORIENTED_EDGE('',*,*,#622,.T.);
#832=ORIENTED_EDGE('',*,*,#616,.T.);
#833=ORIENTED_EDGE('',*,*,#627,.F.);
#834=ORIENTED_EDGE('',*,*,#628,.F.);
#835=ORIENTED_EDGE('',*,*,#629,.T.);
#836=ORIENTED_EDGE('',*,*,#630,.T.);
#837=ORIENTED_EDGE('',*,*,#631,.F.);
#838=ORIENTED_EDGE('',*,*,#630,.F.);
#839=ORIENTED_EDGE('',*,*,#632,.T.);
#840=ORIENTED_EDGE('',*,*,#633,.T.);
#841=ORIENTED_EDGE('',*,*,#634,.F.);
#842=ORIENTED_EDGE('',*,*,#635,.F.);
#843=ORIENTED_EDGE('',*,*,#632,.F.);
#844=ORIENTED_EDGE('',*,*,#629,.F.);
#845=ORIENTED_EDGE('',*,*,#636,.F.);
#846=ORIENTED_EDGE('',*,*,#633,.F.);
#847=ORIENTED_EDGE('',*,*,#635,.T.);
#848=ORIENTED_EDGE('',*,*,#637,.T.);
#849=ORIENTED_EDGE('',*,*,#638,.F.);
#850=ORIENTED_EDGE('',*,*,#637,.F.);
#851=ORIENTED_EDGE('',*,*,#634,.T.);
#852=ORIENTED_EDGE('',*,*,#628,.T.);
#853=ORIENTED_EDGE('',*,*,#639,.T.);
#854=ORIENTED_EDGE('',*,*,#640,.F.);
#855=ORIENTED_EDGE('',*,*,#641,.F.);
#856=ORIENTED_EDGE('',*,*,#642,.F.);
#857=ORIENTED_EDGE('',*,*,#643,.T.);
#858=ORIENTED_EDGE('',*,*,#644,.F.);
#859=ORIENTED_EDGE('',*,*,#645,.F.);
#860=ORIENTED_EDGE('',*,*,#646,.F.);
#861=ORIENTED_EDGE('',*,*,#647,.F.);
#862=ORIENTED_EDGE('',*,*,#648,.F.);
#863=ORIENTED_EDGE('',*,*,#649,.T.);
#864=ORIENTED_EDGE('',*,*,#650,.F.);
#865=ORIENTED_EDGE('',*,*,#651,.T.);
#866=ORIENTED_EDGE('',*,*,#644,.T.);
#867=ORIENTED_EDGE('',*,*,#652,.T.);
#868=ORIENTED_EDGE('',*,*,#653,.T.);
#869=ORIENTED_EDGE('',*,*,#654,.T.);
#870=ORIENTED_EDGE('',*,*,#650,.T.);
#871=ORIENTED_EDGE('',*,*,#655,.T.);
#872=ORIENTED_EDGE('',*,*,#640,.T.);
#873=ORIENTED_EDGE('',*,*,#656,.F.);
#874=ORIENTED_EDGE('',*,*,#657,.F.);
#875=ORIENTED_EDGE('',*,*,#658,.T.);
#876=ORIENTED_EDGE('',*,*,#653,.F.);
#877=ORIENTED_EDGE('',*,*,#647,.T.);
#878=ORIENTED_EDGE('',*,*,#654,.F.);
#879=ORIENTED_EDGE('',*,*,#658,.F.);
#880=ORIENTED_EDGE('',*,*,#659,.F.);
#881=ORIENTED_EDGE('',*,*,#645,.T.);
#882=ORIENTED_EDGE('',*,*,#651,.F.);
#883=ORIENTED_EDGE('',*,*,#639,.F.);
#884=ORIENTED_EDGE('',*,*,#660,.F.);
#885=ORIENTED_EDGE('',*,*,#656,.T.);
#886=ORIENTED_EDGE('',*,*,#652,.F.);
#887=ORIENTED_EDGE('',*,*,#643,.F.);
#888=ORIENTED_EDGE('',*,*,#661,.F.);
#889=ORIENTED_EDGE('',*,*,#641,.T.);
#890=ORIENTED_EDGE('',*,*,#655,.F.);
#891=ORIENTED_EDGE('',*,*,#649,.F.);
#892=ORIENTED_EDGE('',*,*,#662,.F.);
#893=ORIENTED_EDGE('',*,*,#663,.T.);
#894=ORIENTED_EDGE('',*,*,#664,.F.);
#895=ORIENTED_EDGE('',*,*,#665,.F.);
#896=ORIENTED_EDGE('',*,*,#666,.F.);
#897=ORIENTED_EDGE('',*,*,#667,.T.);
#898=ORIENTED_EDGE('',*,*,#668,.F.);
#899=ORIENTED_EDGE('',*,*,#669,.F.);
#900=ORIENTED_EDGE('',*,*,#670,.F.);
#901=ORIENTED_EDGE('',*,*,#671,.F.);
#902=ORIENTED_EDGE('',*,*,#672,.F.);
#903=ORIENTED_EDGE('',*,*,#673,.T.);
#904=ORIENTED_EDGE('',*,*,#674,.F.);
#905=ORIENTED_EDGE('',*,*,#675,.T.);
#906=ORIENTED_EDGE('',*,*,#668,.T.);
#907=ORIENTED_EDGE('',*,*,#676,.T.);
#908=ORIENTED_EDGE('',*,*,#677,.T.);
#909=ORIENTED_EDGE('',*,*,#678,.T.);
#910=ORIENTED_EDGE('',*,*,#674,.T.);
#911=ORIENTED_EDGE('',*,*,#679,.T.);
#912=ORIENTED_EDGE('',*,*,#664,.T.);
#913=ORIENTED_EDGE('',*,*,#680,.F.);
#914=ORIENTED_EDGE('',*,*,#681,.F.);
#915=ORIENTED_EDGE('',*,*,#682,.T.);
#916=ORIENTED_EDGE('',*,*,#677,.F.);
#917=ORIENTED_EDGE('',*,*,#671,.T.);
#918=ORIENTED_EDGE('',*,*,#678,.F.);
#919=ORIENTED_EDGE('',*,*,#682,.F.);
#920=ORIENTED_EDGE('',*,*,#683,.F.);
#921=ORIENTED_EDGE('',*,*,#669,.T.);
#922=ORIENTED_EDGE('',*,*,#675,.F.);
#923=ORIENTED_EDGE('',*,*,#663,.F.);
#924=ORIENTED_EDGE('',*,*,#684,.F.);
#925=ORIENTED_EDGE('',*,*,#680,.T.);
#926=ORIENTED_EDGE('',*,*,#676,.F.);
#927=ORIENTED_EDGE('',*,*,#667,.F.);
#928=ORIENTED_EDGE('',*,*,#685,.F.);
#929=ORIENTED_EDGE('',*,*,#665,.T.);
#930=ORIENTED_EDGE('',*,*,#679,.F.);
#931=ORIENTED_EDGE('',*,*,#673,.F.);
#932=ORIENTED_EDGE('',*,*,#686,.F.);
#933=ORIENTED_EDGE('',*,*,#604,.F.);
#934=ORIENTED_EDGE('',*,*,#687,.T.);
#935=ORIENTED_EDGE('',*,*,#688,.F.);
#936=ORIENTED_EDGE('',*,*,#689,.F.);
#937=ORIENTED_EDGE('',*,*,#600,.F.);
#938=ORIENTED_EDGE('',*,*,#608,.T.);
#939=ORIENTED_EDGE('',*,*,#690,.F.);
#940=ORIENTED_EDGE('',*,*,#691,.F.);
#941=ORIENTED_EDGE('',*,*,#602,.F.);
#942=ORIENTED_EDGE('',*,*,#691,.T.);
#943=ORIENTED_EDGE('',*,*,#692,.F.);
#944=ORIENTED_EDGE('',*,*,#687,.F.);
#945=ORIENTED_EDGE('',*,*,#605,.F.);
#946=ORIENTED_EDGE('',*,*,#689,.T.);
#947=ORIENTED_EDGE('',*,*,#693,.F.);
#948=ORIENTED_EDGE('',*,*,#613,.F.);
#949=ORIENTED_EDGE('',*,*,#570,.F.);
#950=ORIENTED_EDGE('',*,*,#694,.T.);
#951=ORIENTED_EDGE('',*,*,#695,.F.);
#952=ORIENTED_EDGE('',*,*,#696,.F.);
#953=ORIENTED_EDGE('',*,*,#697,.T.);
#954=ORIENTED_EDGE('',*,*,#695,.T.);
#955=ORIENTED_EDGE('',*,*,#698,.T.);
#956=ORIENTED_EDGE('',*,*,#699,.T.);
#957=ORIENTED_EDGE('',*,*,#574,.T.);
#958=ORIENTED_EDGE('',*,*,#577,.T.);
#959=ORIENTED_EDGE('',*,*,#579,.T.);
#960=ORIENTED_EDGE('',*,*,#581,.T.);
#961=ORIENTED_EDGE('',*,*,#624,.T.);
#962=ORIENTED_EDGE('',*,*,#626,.T.);
#963=ORIENTED_EDGE('',*,*,#615,.T.);
#964=ORIENTED_EDGE('',*,*,#619,.T.);
#965=ORIENTED_EDGE('',*,*,#636,.T.);
#966=ORIENTED_EDGE('',*,*,#638,.T.);
#967=ORIENTED_EDGE('',*,*,#627,.T.);
#968=ORIENTED_EDGE('',*,*,#631,.T.);
#969=ORIENTED_EDGE('',*,*,#657,.T.);
#970=ORIENTED_EDGE('',*,*,#661,.T.);
#971=ORIENTED_EDGE('',*,*,#646,.T.);
#972=ORIENTED_EDGE('',*,*,#660,.T.);
#973=ORIENTED_EDGE('',*,*,#642,.T.);
#974=ORIENTED_EDGE('',*,*,#662,.T.);
#975=ORIENTED_EDGE('',*,*,#648,.T.);
#976=ORIENTED_EDGE('',*,*,#659,.T.);
#977=ORIENTED_EDGE('',*,*,#681,.T.);
#978=ORIENTED_EDGE('',*,*,#685,.T.);
#979=ORIENTED_EDGE('',*,*,#670,.T.);
#980=ORIENTED_EDGE('',*,*,#684,.T.);
#981=ORIENTED_EDGE('',*,*,#666,.T.);
#982=ORIENTED_EDGE('',*,*,#686,.T.);
#983=ORIENTED_EDGE('',*,*,#672,.T.);
#984=ORIENTED_EDGE('',*,*,#683,.T.);
#985=ORIENTED_EDGE('',*,*,#690,.T.);
#986=ORIENTED_EDGE('',*,*,#607,.T.);
#987=ORIENTED_EDGE('',*,*,#610,.T.);
#988=ORIENTED_EDGE('',*,*,#612,.T.);
#989=ORIENTED_EDGE('',*,*,#614,.T.);
#990=ORIENTED_EDGE('',*,*,#693,.T.);
#991=ORIENTED_EDGE('',*,*,#688,.T.);
#992=ORIENTED_EDGE('',*,*,#692,.T.);
#993=ORIENTED_EDGE('',*,*,#564,.F.);
#994=ORIENTED_EDGE('',*,*,#575,.T.);
#995=ORIENTED_EDGE('',*,*,#699,.F.);
#996=ORIENTED_EDGE('',*,*,#700,.F.);
#997=ORIENTED_EDGE('',*,*,#572,.F.);
#998=ORIENTED_EDGE('',*,*,#696,.T.);
#999=ORIENTED_EDGE('',*,*,#697,.F.);
#1000=ORIENTED_EDGE('',*,*,#580,.F.);
#1001=ORIENTED_EDGE('',*,*,#567,.F.);
#1002=ORIENTED_EDGE('',*,*,#700,.T.);
#1003=ORIENTED_EDGE('',*,*,#698,.F.);
#1004=ORIENTED_EDGE('',*,*,#694,.F.);
#1005=TOROIDAL_SURFACE('',#1089,1.6,0.4);
#1006=TOROIDAL_SURFACE('',#1096,1.6,0.4);
#1007=TOROIDAL_SURFACE('',#1102,1.6,0.4);
#1008=TOROIDAL_SURFACE('',#1108,1.6,0.4);
#1009=TOROIDAL_SURFACE('',#1124,1.2,0.4);
#1010=TOROIDAL_SURFACE('',#1130,1.2,0.4);
#1011=TOROIDAL_SURFACE('',#1135,1.2,0.4);
#1012=TOROIDAL_SURFACE('',#1140,1.2,0.4);
#1013=ADVANCED_FACE('',(#267),#1005,.T.);
#1014=ADVANCED_FACE('',(#268),#243,.T.);
#1015=ADVANCED_FACE('',(#269),#1006,.T.);
#1016=ADVANCED_FACE('',(#270),#244,.T.);
#1017=ADVANCED_FACE('',(#271),#1007,.T.);
#1018=ADVANCED_FACE('',(#272),#245,.T.);
#1019=ADVANCED_FACE('',(#273),#1008,.T.);
#1020=ADVANCED_FACE('',(#274),#246,.T.);
#1021=ADVANCED_FACE('',(#275),#21,.F.);
#1022=ADVANCED_FACE('',(#276),#247,.T.);
#1023=ADVANCED_FACE('',(#277),#22,.F.);
#1024=ADVANCED_FACE('',(#278),#248,.T.);
#1025=ADVANCED_FACE('',(#279,#15),#23,.T.);
#1026=ADVANCED_FACE('',(#280),#1009,.T.);
#1027=ADVANCED_FACE('',(#281),#249,.T.);
#1028=ADVANCED_FACE('',(#282),#1010,.T.);
#1029=ADVANCED_FACE('',(#283),#250,.T.);
#1030=ADVANCED_FACE('',(#284),#1011,.T.);
#1031=ADVANCED_FACE('',(#285),#251,.T.);
#1032=ADVANCED_FACE('',(#286),#1012,.T.);
#1033=ADVANCED_FACE('',(#287),#252,.T.);
#1034=ADVANCED_FACE('',(#288),#24,.T.);
#1035=ADVANCED_FACE('',(#289),#253,.F.);
#1036=ADVANCED_FACE('',(#290),#25,.T.);
#1037=ADVANCED_FACE('',(#291),#254,.F.);
#1038=ADVANCED_FACE('',(#292),#26,.T.);
#1039=ADVANCED_FACE('',(#293),#27,.T.);
#1040=ADVANCED_FACE('',(#294),#28,.F.);
#1041=ADVANCED_FACE('',(#295),#29,.T.);
#1042=ADVANCED_FACE('',(#296),#30,.T.);
#1043=ADVANCED_FACE('',(#297),#31,.T.);
#1044=ADVANCED_FACE('',(#298),#32,.T.);
#1045=ADVANCED_FACE('',(#299),#33,.F.);
#1046=ADVANCED_FACE('',(#300),#34,.T.);
#1047=ADVANCED_FACE('',(#301),#35,.T.);
#1048=ADVANCED_FACE('',(#302),#255,.T.);
#1049=ADVANCED_FACE('',(#303),#256,.T.);
#1050=ADVANCED_FACE('',(#304),#257,.T.);
#1051=ADVANCED_FACE('',(#305),#36,.F.);
#1052=ADVANCED_FACE('',(#306),#258,.T.);
#1053=ADVANCED_FACE('',(#307),#37,.F.);
#1054=ADVANCED_FACE('',(#308),#38,.F.);
#1055=ADVANCED_FACE('',(#309),#39,.F.);
#1056=ADVANCED_FACE('',(#310),#40,.F.);
#1057=ADVANCED_FACE('',(#311),#259,.T.);
#1058=ADVANCED_FACE('',(#312),#260,.T.);
#1059=ADVANCED_FACE('',(#313),#261,.T.);
#1060=ADVANCED_FACE('',(#314),#41,.F.);
#1061=ADVANCED_FACE('',(#315),#262,.T.);
#1062=ADVANCED_FACE('',(#316),#42,.F.);
#1063=ADVANCED_FACE('',(#317),#43,.F.);
#1064=ADVANCED_FACE('',(#318),#44,.F.);
#1065=ADVANCED_FACE('',(#319),#45,.F.);
#1066=ADVANCED_FACE('',(#320),#263,.F.);
#1067=ADVANCED_FACE('',(#321),#264,.F.);
#1068=ADVANCED_FACE('',(#322),#46,.T.);
#1069=ADVANCED_FACE('',(#323),#47,.T.);
#1070=ADVANCED_FACE('',(#324),#265,.T.);
#1071=ADVANCED_FACE('',(#325,#16,#17,#18,#19,#20),#48,.F.);
#1072=ADVANCED_FACE('',(#326),#266,.T.);
#1073=ADVANCED_FACE('',(#327),#49,.F.);
#1074=ADVANCED_FACE('',(#328),#50,.F.);
#1075=CLOSED_SHELL('',(#1013,#1014,#1015,#1016,#1017,#1018,#1019,#1020,
#1021,#1022,#1023,#1024,#1025,#1026,#1027,#1028,#1029,#1030,#1031,#1032,
#1033,#1034,#1035,#1036,#1037,#1038,#1039,#1040,#1041,#1042,#1043,#1044,
#1045,#1046,#1047,#1048,#1049,#1050,#1051,#1052,#1053,#1054,#1055,#1056,
#1057,#1058,#1059,#1060,#1061,#1062,#1063,#1064,#1065,#1066,#1067,#1068,
#1069,#1070,#1071,#1072,#1073,#1074));
#1076=DERIVED_UNIT_ELEMENT(#1078,1.);
#1077=DERIVED_UNIT_ELEMENT(#1857,-3.);
#1078=(
MASS_UNIT()
NAMED_UNIT(*)
SI_UNIT(.KILO.,.GRAM.)
);
#1079=DERIVED_UNIT((#1076,#1077));
#1080=MEASURE_REPRESENTATION_ITEM('density measure',
POSITIVE_RATIO_MEASURE(7850.),#1079);
#1081=PROPERTY_DEFINITION_REPRESENTATION(#1086,#1083);
#1082=PROPERTY_DEFINITION_REPRESENTATION(#1087,#1084);
#1083=REPRESENTATION('material name',(#1085),#1854);
#1084=REPRESENTATION('density',(#1080),#1854);
#1085=DESCRIPTIVE_REPRESENTATION_ITEM('Steel','Steel');
#1086=PROPERTY_DEFINITION('material property','material name',#1864);
#1087=PROPERTY_DEFINITION('material property','density of part',#1864);
#1088=AXIS2_PLACEMENT_3D('',#1541,#1207,#1208);
#1089=AXIS2_PLACEMENT_3D('',#1542,#1209,#1210);
#1090=AXIS2_PLACEMENT_3D('',#1545,#1211,#1212);
#1091=AXIS2_PLACEMENT_3D('',#1547,#1213,#1214);
#1092=AXIS2_PLACEMENT_3D('',#1549,#1215,#1216);
#1093=AXIS2_PLACEMENT_3D('',#1550,#1217,#1218);
#1094=AXIS2_PLACEMENT_3D('',#1551,#1219,#1220);
#1095=AXIS2_PLACEMENT_3D('',#1554,#1221,#1222);
#1096=AXIS2_PLACEMENT_3D('',#1557,#1225,#1226);
#1097=AXIS2_PLACEMENT_3D('',#1560,#1227,#1228);
#1098=AXIS2_PLACEMENT_3D('',#1561,#1229,#1230);
#1099=AXIS2_PLACEMENT_3D('',#1562,#1231,#1232);
#1100=AXIS2_PLACEMENT_3D('',#1563,#1233,#1234);
#1101=AXIS2_PLACEMENT_3D('',#1566,#1235,#1236);
#1102=AXIS2_PLACEMENT_3D('',#1569,#1239,#1240);
#1103=AXIS2_PLACEMENT_3D('',#1572,#1241,#1242);
#1104=AXIS2_PLACEMENT_3D('',#1573,#1243,#1244);
#1105=AXIS2_PLACEMENT_3D('',#1574,#1245,#1246);
#1106=AXIS2_PLACEMENT_3D('',#1575,#1247,#1248);
#1107=AXIS2_PLACEMENT_3D('',#1578,#1249,#1250);
#1108=AXIS2_PLACEMENT_3D('',#1581,#1253,#1254);
#1109=AXIS2_PLACEMENT_3D('',#1584,#1255,#1256);
#1110=AXIS2_PLACEMENT_3D('',#1585,#1257,#1258);
#1111=AXIS2_PLACEMENT_3D('',#1586,#1259,#1260);
#1112=AXIS2_PLACEMENT_3D('',#1587,#1261,#1262);
#1113=AXIS2_PLACEMENT_3D('',#1590,#1265,#1266);
#1114=AXIS2_PLACEMENT_3D('',#1596,#1270,#1271);
#1115=AXIS2_PLACEMENT_3D('',#1599,#1273,#1274);
#1116=AXIS2_PLACEMENT_3D('',#1600,#1275,#1276);
#1117=AXIS2_PLACEMENT_3D('',#1604,#1279,#1280);
#1118=AXIS2_PLACEMENT_3D('',#1607,#1282,#1283);
#1119=AXIS2_PLACEMENT_3D('',#1608,#1284,#1285);
#1120=AXIS2_PLACEMENT_3D('',#1611,#1286,#1287);
#1121=AXIS2_PLACEMENT_3D('',#1615,#1289,#1290);
#1122=AXIS2_PLACEMENT_3D('',#1619,#1292,#1293);
#1123=AXIS2_PLACEMENT_3D('',#1623,#1295,#1296);
#1124=AXIS2_PLACEMENT_3D('',#1625,#1298,#1299);
#1125=AXIS2_PLACEMENT_3D('',#1627,#1300,#1301);
#1126=AXIS2_PLACEMENT_3D('',#1629,#1302,#1303);
#1127=AXIS2_PLACEMENT_3D('',#1630,#1304,#1305);
#1128=AXIS2_PLACEMENT_3D('',#1631,#1306,#1307);
#1129=AXIS2_PLACEMENT_3D('',#1633,#1308,#1309);
#1130=AXIS2_PLACEMENT_3D('',#1635,#1311,#1312);
#1131=AXIS2_PLACEMENT_3D('',#1637,#1313,#1314);
#1132=AXIS2_PLACEMENT_3D('',#1638,#1315,#1316);
#1133=AXIS2_PLACEMENT_3D('',#1639,#1317,#1318);
#1134=AXIS2_PLACEMENT_3D('',#1641,#1319,#1320);
#1135=AXIS2_PLACEMENT_3D('',#1643,#1322,#1323);
#1136=AXIS2_PLACEMENT_3D('',#1645,#1324,#1325);
#1137=AXIS2_PLACEMENT_3D('',#1646,#1326,#1327);
#1138=AXIS2_PLACEMENT_3D('',#1647,#1328,#1329);
#1139=AXIS2_PLACEMENT_3D('',#1649,#1330,#1331);
#1140=AXIS2_PLACEMENT_3D('',#1651,#1333,#1334);
#1141=AXIS2_PLACEMENT_3D('',#1653,#1335,#1336);
#1142=AXIS2_PLACEMENT_3D('',#1654,#1337,#1338);
#1143=AXIS2_PLACEMENT_3D('',#1655,#1339,#1340);
#1144=AXIS2_PLACEMENT_3D('',#1657,#1342,#1343);
#1145=AXIS2_PLACEMENT_3D('',#1663,#1347,#1348);
#1146=AXIS2_PLACEMENT_3D('',#1666,#1350,#1351);
#1147=AXIS2_PLACEMENT_3D('',#1667,#1352,#1353);
#1148=AXIS2_PLACEMENT_3D('',#1671,#1356,#1357);
#1149=AXIS2_PLACEMENT_3D('',#1674,#1359,#1360);
#1150=AXIS2_PLACEMENT_3D('',#1675,#1361,#1362);
#1151=AXIS2_PLACEMENT_3D('',#1684,#1367,#1368);
#1152=AXIS2_PLACEMENT_3D('',#1690,#1372,#1373);
#1153=AXIS2_PLACEMENT_3D('',#1694,#1376,#1377);
#1154=AXIS2_PLACEMENT_3D('',#1698,#1380,#1381);
#1155=AXIS2_PLACEMENT_3D('',#1700,#1383,#1384);
#1156=AXIS2_PLACEMENT_3D('',#1709,#1389,#1390);
#1157=AXIS2_PLACEMENT_3D('',#1715,#1394,#1395);
#1158=AXIS2_PLACEMENT_3D('',#1719,#1398,#1399);
#1159=AXIS2_PLACEMENT_3D('',#1723,#1402,#1403);
#1160=AXIS2_PLACEMENT_3D('',#1725,#1405,#1406);
#1161=AXIS2_PLACEMENT_3D('',#1730,#1408,#1409);
#1162=AXIS2_PLACEMENT_3D('',#1733,#1411,#1412);
#1163=AXIS2_PLACEMENT_3D('',#1734,#1413,#1414);
#1164=AXIS2_PLACEMENT_3D('',#1739,#1416,#1417);
#1165=AXIS2_PLACEMENT_3D('',#1742,#1419,#1420);
#1166=AXIS2_PLACEMENT_3D('',#1743,#1421,#1422);
#1167=AXIS2_PLACEMENT_3D('',#1748,#1424,#1425);
#1168=AXIS2_PLACEMENT_3D('',#1751,#1427,#1428);
#1169=AXIS2_PLACEMENT_3D('',#1752,#1429,#1430);
#1170=AXIS2_PLACEMENT_3D('',#1757,#1433,#1434);
#1171=AXIS2_PLACEMENT_3D('',#1760,#1437,#1438);
#1172=AXIS2_PLACEMENT_3D('',#1764,#1440,#1441);
#1173=AXIS2_PLACEMENT_3D('',#1766,#1443,#1444);
#1174=AXIS2_PLACEMENT_3D('',#1768,#1446,#1447);
#1175=AXIS2_PLACEMENT_3D('',#1770,#1449,#1450);
#1176=AXIS2_PLACEMENT_3D('',#1772,#1452,#1453);
#1177=AXIS2_PLACEMENT_3D('',#1774,#1455,#1456);
#1178=AXIS2_PLACEMENT_3D('',#1779,#1458,#1459);
#1179=AXIS2_PLACEMENT_3D('',#1782,#1461,#1462);
#1180=AXIS2_PLACEMENT_3D('',#1783,#1463,#1464);
#1181=AXIS2_PLACEMENT_3D('',#1788,#1466,#1467);
#1182=AXIS2_PLACEMENT_3D('',#1791,#1469,#1470);
#1183=AXIS2_PLACEMENT_3D('',#1792,#1471,#1472);
#1184=AXIS2_PLACEMENT_3D('',#1797,#1474,#1475);
#1185=AXIS2_PLACEMENT_3D('',#1800,#1477,#1478);
#1186=AXIS2_PLACEMENT_3D('',#1801,#1479,#1480);
#1187=AXIS2_PLACEMENT_3D('',#1806,#1483,#1484);
#1188=AXIS2_PLACEMENT_3D('',#1809,#1487,#1488);
#1189=AXIS2_PLACEMENT_3D('',#1813,#1490,#1491);
#1190=AXIS2_PLACEMENT_3D('',#1815,#1493,#1494);
#1191=AXIS2_PLACEMENT_3D('',#1817,#1496,#1497);
#1192=AXIS2_PLACEMENT_3D('',#1819,#1499,#1500);
#1193=AXIS2_PLACEMENT_3D('',#1821,#1502,#1503);
#1194=AXIS2_PLACEMENT_3D('',#1823,#1505,#1506);
#1195=AXIS2_PLACEMENT_3D('',#1827,#1508,#1509);
#1196=AXIS2_PLACEMENT_3D('',#1829,#1511,#1512);
#1197=AXIS2_PLACEMENT_3D('',#1831,#1513,#1514);
#1198=AXIS2_PLACEMENT_3D('',#1833,#1516,#1517);
#1199=AXIS2_PLACEMENT_3D('',#1835,#1519,#1520);
#1200=AXIS2_PLACEMENT_3D('',#1837,#1522,#1523);
#1201=AXIS2_PLACEMENT_3D('',#1841,#1525,#1526);
#1202=AXIS2_PLACEMENT_3D('',#1843,#1528,#1529);
#1203=AXIS2_PLACEMENT_3D('',#1847,#1532,#1533);
#1204=AXIS2_PLACEMENT_3D('',#1848,#1534,#1535);
#1205=AXIS2_PLACEMENT_3D('',#1850,#1537,#1538);
#1206=AXIS2_PLACEMENT_3D('',#1851,#1539,#1540);
#1207=DIRECTION('axis',(0.,0.,1.));
#1208=DIRECTION('refdir',(1.,0.,0.));
#1209=DIRECTION('center_axis',(0.,0.,1.));
#1210=DIRECTION('ref_axis',(1.,0.,0.));
#1211=DIRECTION('center_axis',(-2.77555756156289E-15,1.,0.));
#1212=DIRECTION('ref_axis',(0.,0.,1.));
#1213=DIRECTION('center_axis',(0.,0.,1.));
#1214=DIRECTION('ref_axis',(0.707106781186547,0.707106781186548,0.));
#1215=DIRECTION('center_axis',(1.,0.,0.));
#1216=DIRECTION('ref_axis',(0.,1.,0.));
#1217=DIRECTION('center_axis',(0.,0.,-1.));
#1218=DIRECTION('ref_axis',(0.707106781186547,0.707106781186548,0.));
#1219=DIRECTION('center_axis',(-1.,0.,0.));
#1220=DIRECTION('ref_axis',(0.,0.707106781186548,0.707106781186548));
#1221=DIRECTION('center_axis',(1.,0.,0.));
#1222=DIRECTION('ref_axis',(0.,1.,0.));
#1223=DIRECTION('',(1.,0.,0.));
#1224=DIRECTION('',(-1.,0.,0.));
#1225=DIRECTION('center_axis',(0.,0.,1.));
#1226=DIRECTION('ref_axis',(1.,0.,0.));
#1227=DIRECTION('center_axis',(2.77555756156289E-15,1.,0.));
#1228=DIRECTION('ref_axis',(-1.,2.77555756156289E-15,0.));
#1229=DIRECTION('center_axis',(0.,0.,-1.));
#1230=DIRECTION('ref_axis',(-0.707106781186547,0.707106781186548,0.));
#1231=DIRECTION('center_axis',(0.,0.,1.));
#1232=DIRECTION('ref_axis',(-0.707106781186547,0.707106781186548,0.));
#1233=DIRECTION('center_axis',(0.,-1.,0.));
#1234=DIRECTION('ref_axis',(-0.707106781186548,0.,0.707106781186548));
#1235=DIRECTION('center_axis',(0.,1.,0.));
#1236=DIRECTION('ref_axis',(-1.,0.,0.));
#1237=DIRECTION('',(0.,1.,0.));
#1238=DIRECTION('',(0.,-1.,0.));
#1239=DIRECTION('center_axis',(0.,0.,1.));
#1240=DIRECTION('ref_axis',(1.,0.,0.));
#1241=DIRECTION('center_axis',(-1.,0.,0.));
#1242=DIRECTION('ref_axis',(0.,-1.,0.));
#1243=DIRECTION('center_axis',(0.,0.,-1.));
#1244=DIRECTION('ref_axis',(-0.707106781186547,-0.707106781186548,0.));
#1245=DIRECTION('center_axis',(0.,0.,1.));
#1246=DIRECTION('ref_axis',(-0.707106781186547,-0.707106781186548,0.));
#1247=DIRECTION('center_axis',(1.,0.,0.));
#1248=DIRECTION('ref_axis',(0.,-0.707106781186548,0.707106781186548));
#1249=DIRECTION('center_axis',(-1.,0.,0.));
#1250=DIRECTION('ref_axis',(0.,-1.,0.));
#1251=DIRECTION('',(-1.,0.,0.));
#1252=DIRECTION('',(1.,0.,0.));
#1253=DIRECTION('center_axis',(0.,0.,1.));
#1254=DIRECTION('ref_axis',(1.,0.,0.));
#1255=DIRECTION('center_axis',(-2.77555756156289E-15,-1.,0.));
#1256=DIRECTION('ref_axis',(1.,-2.77555756156289E-15,0.));
#1257=DIRECTION('center_axis',(0.,0.,-1.));
#1258=DIRECTION('ref_axis',(0.707106781186547,-0.707106781186548,0.));
#1259=DIRECTION('center_axis',(0.,0.,1.));
#1260=DIRECTION('ref_axis',(0.707106781186547,-0.707106781186548,0.));
#1261=DIRECTION('center_axis',(0.,1.,0.));
#1262=DIRECTION('ref_axis',(0.707106781186548,0.,0.707106781186548));
#1263=DIRECTION('',(0.,-1.,0.));
#1264=DIRECTION('',(0.,1.,0.));
#1265=DIRECTION('center_axis',(1.,0.,0.));
#1266=DIRECTION('ref_axis',(0.,0.,-1.));
#1267=DIRECTION('',(0.,0.,-1.));
#1268=DIRECTION('',(0.,1.,0.));
#1269=DIRECTION('',(0.,0.,-1.));
#1270=DIRECTION('center_axis',(0.,0.,1.));
#1271=DIRECTION('ref_axis',(1.,0.,0.));
#1272=DIRECTION('',(0.,0.,-1.));
#1273=DIRECTION('center_axis',(0.,0.,-1.));
#1274=DIRECTION('ref_axis',(1.,0.,0.));
#1275=DIRECTION('center_axis',(0.,-1.,0.));
#1276=DIRECTION('ref_axis',(0.,0.,-1.));
#1277=DIRECTION('',(0.,0.,-1.));
#1278=DIRECTION('',(1.,0.,0.));
#1279=DIRECTION('center_axis',(0.,0.,1.));
#1280=DIRECTION('ref_axis',(1.,0.,0.));
#1281=DIRECTION('',(0.,0.,-1.));
#1282=DIRECTION('center_axis',(0.,0.,-1.));
#1283=DIRECTION('ref_axis',(1.,0.,0.));
#1284=DIRECTION('center_axis',(0.,0.,1.));
#1285=DIRECTION('ref_axis',(1.,0.,0.));
#1286=DIRECTION('center_axis',(0.,0.,1.));
#1287=DIRECTION('ref_axis',(0.707106781186547,0.707106781186547,0.));
#1288=DIRECTION('',(0.,1.,0.));
#1289=DIRECTION('center_axis',(0.,0.,1.));
#1290=DIRECTION('ref_axis',(0.707106781186547,-0.707106781186547,0.));
#1291=DIRECTION('',(1.,0.,0.));
#1292=DIRECTION('center_axis',(0.,0.,1.));
#1293=DIRECTION('ref_axis',(-0.707106781186547,-0.707106781186547,0.));
#1294=DIRECTION('',(0.,-1.,0.));
#1295=DIRECTION('center_axis',(0.,0.,1.));
#1296=DIRECTION('ref_axis',(-0.707106781186547,0.707106781186547,0.));
#1297=DIRECTION('',(-1.,0.,0.));
#1298=DIRECTION('center_axis',(0.,0.,-1.));
#1299=DIRECTION('ref_axis',(-1.,0.,0.));
#1300=DIRECTION('center_axis',(1.,0.,0.));
#1301=DIRECTION('ref_axis',(0.,0.,1.));
#1302=DIRECTION('center_axis',(0.,0.,-1.));
#1303=DIRECTION('ref_axis',(0.707106781186548,0.707106781186548,0.));
#1304=DIRECTION('center_axis',(0.,1.,0.));
#1305=DIRECTION('ref_axis',(-1.,0.,0.));
#1306=DIRECTION('center_axis',(0.,-1.,0.));
#1307=DIRECTION('ref_axis',(-0.707106781186548,0.,0.707106781186548));
#1308=DIRECTION('center_axis',(0.,1.,0.));
#1309=DIRECTION('ref_axis',(-1.,0.,0.));
#1310=DIRECTION('',(0.,-1.,0.));
#1311=DIRECTION('center_axis',(0.,0.,-1.));
#1312=DIRECTION('ref_axis',(-1.,0.,0.));
#1313=DIRECTION('center_axis',(1.,0.,0.));
#1314=DIRECTION('ref_axis',(0.,1.,0.));
#1315=DIRECTION('center_axis',(0.,0.,-1.));
#1316=DIRECTION('ref_axis',(0.707106781186548,-0.707106781186548,0.));
#1317=DIRECTION('center_axis',(-1.,0.,0.));
#1318=DIRECTION('ref_axis',(0.,0.707106781186548,0.707106781186548));
#1319=DIRECTION('center_axis',(1.,0.,0.));
#1320=DIRECTION('ref_axis',(0.,1.,0.));
#1321=DIRECTION('',(-1.,0.,0.));
#1322=DIRECTION('center_axis',(0.,0.,-1.));
#1323=DIRECTION('ref_axis',(-1.,0.,0.));
#1324=DIRECTION('center_axis',(0.,-1.,0.));
#1325=DIRECTION('ref_axis',(1.,0.,0.));
#1326=DIRECTION('center_axis',(0.,0.,-1.));
#1327=DIRECTION('ref_axis',(-0.707106781186548,-0.707106781186548,0.));
#1328=DIRECTION('center_axis',(0.,1.,0.));
#1329=DIRECTION('ref_axis',(0.707106781186548,0.,0.707106781186548));
#1330=DIRECTION('center_axis',(0.,-1.,0.));
#1331=DIRECTION('ref_axis',(1.,0.,0.));
#1332=DIRECTION('',(0.,1.,0.));
#1333=DIRECTION('center_axis',(0.,0.,-1.));
#1334=DIRECTION('ref_axis',(-1.,0.,0.));
#1335=DIRECTION('center_axis',(-1.,0.,0.));
#1336=DIRECTION('ref_axis',(0.,-1.,0.));
#1337=DIRECTION('center_axis',(0.,0.,-1.));
#1338=DIRECTION('ref_axis',(-0.707106781186548,0.707106781186548,0.));
#1339=DIRECTION('center_axis',(1.,0.,0.));
#1340=DIRECTION('ref_axis',(0.,-0.707106781186548,0.707106781186548));
#1341=DIRECTION('',(1.,0.,0.));
#1342=DIRECTION('center_axis',(0.,1.,0.));
#1343=DIRECTION('ref_axis',(0.,0.,1.));
#1344=DIRECTION('',(0.,0.,-1.));
#1345=DIRECTION('',(1.,0.,0.));
#1346=DIRECTION('',(0.,0.,-1.));
#1347=DIRECTION('center_axis',(0.,0.,1.));
#1348=DIRECTION('ref_axis',(1.,0.,0.));
#1349=DIRECTION('',(0.,0.,-1.));
#1350=DIRECTION('center_axis',(0.,0.,1.));
#1351=DIRECTION('ref_axis',(1.,0.,0.));
#1352=DIRECTION('center_axis',(-1.,0.,0.));
#1353=DIRECTION('ref_axis',(0.,0.,1.));
#1354=DIRECTION('',(0.,0.,-1.));
#1355=DIRECTION('',(0.,1.,0.));
#1356=DIRECTION('center_axis',(0.,0.,1.));
#1357=DIRECTION('ref_axis',(1.,0.,0.));
#1358=DIRECTION('',(0.,0.,-1.));
#1359=DIRECTION('center_axis',(0.,0.,1.));
#1360=DIRECTION('ref_axis',(1.,0.,0.));
#1361=DIRECTION('center_axis',(0.,-1.,0.));
#1362=DIRECTION('ref_axis',(0.,0.,-1.));
#1363=DIRECTION('',(-1.,0.,0.));
#1364=DIRECTION('',(0.,0.,-1.));
#1365=DIRECTION('',(-1.,0.,0.));
#1366=DIRECTION('',(0.,0.,-1.));
#1367=DIRECTION('center_axis',(1.,0.,0.));
#1368=DIRECTION('ref_axis',(0.,0.,-1.));
#1369=DIRECTION('',(0.,-1.,0.));
#1370=DIRECTION('',(0.,-1.,0.));
#1371=DIRECTION('',(0.,0.,-1.));
#1372=DIRECTION('center_axis',(0.,0.,1.));
#1373=DIRECTION('ref_axis',(1.,0.,0.));
#1374=DIRECTION('',(0.,1.,0.));
#1375=DIRECTION('',(1.,0.,0.));
#1376=DIRECTION('center_axis',(0.,1.,0.));
#1377=DIRECTION('ref_axis',(0.,0.,1.));
#1378=DIRECTION('',(1.,0.,0.));
#1379=DIRECTION('',(0.,0.,-1.));
#1380=DIRECTION('center_axis',(-1.,0.,0.));
#1381=DIRECTION('ref_axis',(0.,0.,1.));
#1382=DIRECTION('',(0.,1.,0.));
#1383=DIRECTION('center_axis',(0.,-1.,0.));
#1384=DIRECTION('ref_axis',(0.,0.,-1.));
#1385=DIRECTION('',(-1.,0.,0.));
#1386=DIRECTION('',(0.,0.,-1.));
#1387=DIRECTION('',(-1.,0.,0.));
#1388=DIRECTION('',(0.,0.,-1.));
#1389=DIRECTION('center_axis',(1.,0.,0.));
#1390=DIRECTION('ref_axis',(0.,0.,-1.));
#1391=DIRECTION('',(0.,-1.,0.));
#1392=DIRECTION('',(0.,-1.,0.));
#1393=DIRECTION('',(0.,0.,-1.));
#1394=DIRECTION('center_axis',(0.,0.,1.));
#1395=DIRECTION('ref_axis',(1.,0.,0.));
#1396=DIRECTION('',(0.,1.,0.));
#1397=DIRECTION('',(1.,0.,0.));
#1398=DIRECTION('center_axis',(0.,1.,0.));
#1399=DIRECTION('ref_axis',(0.,0.,1.));
#1400=DIRECTION('',(1.,0.,0.));
#1401=DIRECTION('',(0.,0.,-1.));
#1402=DIRECTION('center_axis',(-1.,0.,0.));
#1403=DIRECTION('ref_axis',(0.,0.,1.));
#1404=DIRECTION('',(0.,1.,0.));
#1405=DIRECTION('center_axis',(0.,0.,1.));
#1406=DIRECTION('ref_axis',(1.,0.,0.));
#1407=DIRECTION('',(0.,0.,-1.));
#1408=DIRECTION('center_axis',(0.,0.,-1.));
#1409=DIRECTION('ref_axis',(1.,0.,0.));
#1410=DIRECTION('',(0.,0.,-1.));
#1411=DIRECTION('center_axis',(0.,0.,1.));
#1412=DIRECTION('ref_axis',(1.,0.,0.));
#1413=DIRECTION('center_axis',(0.,0.,1.));
#1414=DIRECTION('ref_axis',(1.,0.,0.));
#1415=DIRECTION('',(0.,0.,-1.));
#1416=DIRECTION('center_axis',(0.,0.,-1.));
#1417=DIRECTION('ref_axis',(1.,0.,0.));
#1418=DIRECTION('',(0.,0.,-1.));
#1419=DIRECTION('center_axis',(0.,0.,1.));
#1420=DIRECTION('ref_axis',(1.,0.,0.));
#1421=DIRECTION('center_axis',(0.,0.,1.));
#1422=DIRECTION('ref_axis',(1.,0.,0.));
#1423=DIRECTION('',(0.,0.,-1.));
#1424=DIRECTION('center_axis',(0.,0.,1.));
#1425=DIRECTION('ref_axis',(1.,0.,0.));
#1426=DIRECTION('',(0.,0.,-1.));
#1427=DIRECTION('center_axis',(0.,0.,-1.));
#1428=DIRECTION('ref_axis',(1.,0.,0.));
#1429=DIRECTION('center_axis',(0.,0.,1.));
#1430=DIRECTION('ref_axis',(1.,0.,0.));
#1431=DIRECTION('',(0.,-1.,0.));
#1432=DIRECTION('',(-1.,0.,0.));
#1433=DIRECTION('center_axis',(0.,0.,-1.));
#1434=DIRECTION('ref_axis',(1.,0.,0.));
#1435=DIRECTION('',(0.,1.,0.));
#1436=DIRECTION('',(1.,0.,0.));
#1437=DIRECTION('center_axis',(0.,0.,1.));
#1438=DIRECTION('ref_axis',(1.,0.,0.));
#1439=DIRECTION('',(0.,0.,-1.));
#1440=DIRECTION('center_axis',(0.,0.,1.));
#1441=DIRECTION('ref_axis',(1.,0.,0.));
#1442=DIRECTION('',(0.,0.,-1.));
#1443=DIRECTION('center_axis',(1.,0.,0.));
#1444=DIRECTION('ref_axis',(0.,0.,-1.));
#1445=DIRECTION('',(0.,-1.,0.));
#1446=DIRECTION('center_axis',(-1.,0.,0.));
#1447=DIRECTION('ref_axis',(0.,0.,1.));
#1448=DIRECTION('',(0.,1.,0.));
#1449=DIRECTION('center_axis',(0.,1.,0.));
#1450=DIRECTION('ref_axis',(0.,0.,1.));
#1451=DIRECTION('',(1.,0.,0.));
#1452=DIRECTION('center_axis',(0.,-1.,0.));
#1453=DIRECTION('ref_axis',(0.,0.,-1.));
#1454=DIRECTION('',(-1.,0.,0.));
#1455=DIRECTION('center_axis',(0.,0.,1.));
#1456=DIRECTION('ref_axis',(1.,0.,0.));
#1457=DIRECTION('',(0.,0.,-1.));
#1458=DIRECTION('center_axis',(0.,0.,-1.));
#1459=DIRECTION('ref_axis',(1.,0.,0.));
#1460=DIRECTION('',(0.,0.,-1.));
#1461=DIRECTION('center_axis',(0.,0.,1.));
#1462=DIRECTION('ref_axis',(1.,0.,0.));
#1463=DIRECTION('center_axis',(0.,0.,1.));
#1464=DIRECTION('ref_axis',(1.,0.,0.));
#1465=DIRECTION('',(0.,0.,-1.));
#1466=DIRECTION('center_axis',(0.,0.,-1.));
#1467=DIRECTION('ref_axis',(1.,0.,0.));
#1468=DIRECTION('',(0.,0.,-1.));
#1469=DIRECTION('center_axis',(0.,0.,1.));
#1470=DIRECTION('ref_axis',(1.,0.,0.));
#1471=DIRECTION('center_axis',(0.,0.,1.));
#1472=DIRECTION('ref_axis',(1.,0.,0.));
#1473=DIRECTION('',(0.,0.,-1.));
#1474=DIRECTION('center_axis',(0.,0.,1.));
#1475=DIRECTION('ref_axis',(1.,0.,0.));
#1476=DIRECTION('',(0.,0.,-1.));
#1477=DIRECTION('center_axis',(0.,0.,-1.));
#1478=DIRECTION('ref_axis',(1.,0.,0.));
#1479=DIRECTION('center_axis',(0.,0.,1.));
#1480=DIRECTION('ref_axis',(1.,0.,0.));
#1481=DIRECTION('',(0.,-1.,0.));
#1482=DIRECTION('',(-1.,0.,0.));
#1483=DIRECTION('center_axis',(0.,0.,-1.));
#1484=DIRECTION('ref_axis',(1.,0.,0.));
#1485=DIRECTION('',(0.,1.,0.));
#1486=DIRECTION('',(1.,0.,0.));
#1487=DIRECTION('center_axis',(0.,0.,1.));
#1488=DIRECTION('ref_axis',(1.,0.,0.));
#1489=DIRECTION('',(0.,0.,-1.));
#1490=DIRECTION('center_axis',(0.,0.,1.));
#1491=DIRECTION('ref_axis',(1.,0.,0.));
#1492=DIRECTION('',(0.,0.,-1.));
#1493=DIRECTION('center_axis',(1.,0.,0.));
#1494=DIRECTION('ref_axis',(0.,0.,-1.));
#1495=DIRECTION('',(0.,-1.,0.));
#1496=DIRECTION('center_axis',(-1.,0.,0.));
#1497=DIRECTION('ref_axis',(0.,0.,1.));
#1498=DIRECTION('',(0.,1.,0.));
#1499=DIRECTION('center_axis',(0.,1.,0.));
#1500=DIRECTION('ref_axis',(0.,0.,1.));
#1501=DIRECTION('',(1.,0.,0.));
#1502=DIRECTION('center_axis',(0.,-1.,0.));
#1503=DIRECTION('ref_axis',(0.,0.,-1.));
#1504=DIRECTION('',(-1.,0.,0.));
#1505=DIRECTION('center_axis',(0.,0.,1.));
#1506=DIRECTION('ref_axis',(1.,0.,0.));
#1507=DIRECTION('',(0.,0.,-1.));
#1508=DIRECTION('center_axis',(0.,0.,1.));
#1509=DIRECTION('ref_axis',(1.,0.,0.));
#1510=DIRECTION('',(0.,0.,-1.));
#1511=DIRECTION('center_axis',(0.,0.,1.));
#1512=DIRECTION('ref_axis',(1.,0.,0.));
#1513=DIRECTION('center_axis',(0.,0.,1.));
#1514=DIRECTION('ref_axis',(1.,0.,0.));
#1515=DIRECTION('',(0.,0.,-1.));
#1516=DIRECTION('center_axis',(1.,0.,0.));
#1517=DIRECTION('ref_axis',(0.,0.,-1.));
#1518=DIRECTION('',(0.,-1.,0.));
#1519=DIRECTION('center_axis',(0.,-1.,0.));
#1520=DIRECTION('ref_axis',(0.,0.,-1.));
#1521=DIRECTION('',(-1.,0.,0.));
#1522=DIRECTION('center_axis',(0.,0.,1.));
#1523=DIRECTION('ref_axis',(1.,0.,0.));
#1524=DIRECTION('',(0.,0.,-1.));
#1525=DIRECTION('center_axis',(0.,0.,-1.));
#1526=DIRECTION('ref_axis',(1.,0.,0.));
#1527=DIRECTION('',(0.,0.,-1.));
#1528=DIRECTION('center_axis',(0.,0.,1.));
#1529=DIRECTION('ref_axis',(1.,0.,0.));
#1530=DIRECTION('',(0.,-1.,0.));
#1531=DIRECTION('',(-1.,0.,0.));
#1532=DIRECTION('center_axis',(0.,0.,-1.));
#1533=DIRECTION('ref_axis',(1.,0.,0.));
#1534=DIRECTION('center_axis',(0.,0.,1.));
#1535=DIRECTION('ref_axis',(1.,0.,0.));
#1536=DIRECTION('',(0.,0.,-1.));
#1537=DIRECTION('center_axis',(-1.,0.,0.));
#1538=DIRECTION('ref_axis',(0.,0.,1.));
#1539=DIRECTION('center_axis',(0.,1.,0.));
#1540=DIRECTION('ref_axis',(0.,0.,1.));
#1541=CARTESIAN_POINT('',(0.,0.,0.));
#1542=CARTESIAN_POINT('Origin',(18.,8.15,3.8));
#1543=CARTESIAN_POINT('',(19.6,8.15,4.2));
#1544=CARTESIAN_POINT('',(20.,8.15,3.8));
#1545=CARTESIAN_POINT('Origin',(19.6,8.15,3.8));
#1546=CARTESIAN_POINT('',(18.,10.15,3.8));
#1547=CARTESIAN_POINT('Origin',(18.,8.15,3.8));
#1548=CARTESIAN_POINT('',(18.,9.75,4.2));
#1549=CARTESIAN_POINT('Origin',(18.,9.75,3.8));
#1550=CARTESIAN_POINT('Origin',(18.,8.15,4.2));
#1551=CARTESIAN_POINT('Origin',(0.,9.75,3.8));
#1552=CARTESIAN_POINT('',(-18.,10.15,3.8));
#1553=CARTESIAN_POINT('',(-18.,9.75,4.2));
#1554=CARTESIAN_POINT('Origin',(-18.,9.75,3.8));
#1555=CARTESIAN_POINT('',(0.,9.75,4.2));
#1556=CARTESIAN_POINT('',(0.,10.15,3.8));
#1557=CARTESIAN_POINT('Origin',(-18.,8.15,3.8));
#1558=CARTESIAN_POINT('',(-20.,8.15,3.8));
#1559=CARTESIAN_POINT('',(-19.6,8.15,4.2));
#1560=CARTESIAN_POINT('Origin',(-19.6,8.15,3.8));
#1561=CARTESIAN_POINT('Origin',(-18.,8.15,4.2));
#1562=CARTESIAN_POINT('Origin',(-18.,8.15,3.8));
#1563=CARTESIAN_POINT('Origin',(-19.6,0.,3.8));
#1564=CARTESIAN_POINT('',(-20.,-8.15,3.8));
#1565=CARTESIAN_POINT('',(-19.6,-8.15,4.2));
#1566=CARTESIAN_POINT('Origin',(-19.6,-8.15,3.8));
#1567=CARTESIAN_POINT('',(-19.6,0.,4.2));
#1568=CARTESIAN_POINT('',(-20.,0.,3.8));
#1569=CARTESIAN_POINT('Origin',(-18.,-8.15,3.8));
#1570=CARTESIAN_POINT('',(-18.,-10.15,3.8));
#1571=CARTESIAN_POINT('',(-18.,-9.75,4.2));
#1572=CARTESIAN_POINT('Origin',(-18.,-9.75,3.8));
#1573=CARTESIAN_POINT('Origin',(-18.,-8.15,4.2));
#1574=CARTESIAN_POINT('Origin',(-18.,-8.15,3.8));
#1575=CARTESIAN_POINT('Origin',(0.,-9.75,3.8));
#1576=CARTESIAN_POINT('',(18.,-10.15,3.8));
#1577=CARTESIAN_POINT('',(18.,-9.75,4.2));
#1578=CARTESIAN_POINT('Origin',(18.,-9.75,3.8));
#1579=CARTESIAN_POINT('',(0.,-9.75,4.2));
#1580=CARTESIAN_POINT('',(0.,-10.15,3.8));
#1581=CARTESIAN_POINT('Origin',(18.,-8.15,3.8));
#1582=CARTESIAN_POINT('',(20.,-8.15,3.8));
#1583=CARTESIAN_POINT('',(19.6,-8.15,4.2));
#1584=CARTESIAN_POINT('Origin',(19.6,-8.15,3.8));
#1585=CARTESIAN_POINT('Origin',(18.,-8.15,4.2));
#1586=CARTESIAN_POINT('Origin',(18.,-8.15,3.8));
#1587=CARTESIAN_POINT('Origin',(19.6,0.,3.8));
#1588=CARTESIAN_POINT('',(19.6,0.,4.2));
#1589=CARTESIAN_POINT('',(20.,0.,3.8));
#1590=CARTESIAN_POINT('Origin',(-20.,0.,3.6));
#1591=CARTESIAN_POINT('',(-20.,8.15,3.));
#1592=CARTESIAN_POINT('',(-20.,8.15,3.6));
#1593=CARTESIAN_POINT('',(-20.,-8.15,3.));
#1594=CARTESIAN_POINT('',(-20.,0.,3.));
#1595=CARTESIAN_POINT('',(-20.,-8.15,3.6));
#1596=CARTESIAN_POINT('Origin',(-18.,8.15,3.6));
#1597=CARTESIAN_POINT('',(-18.,10.15,3.));
#1598=CARTESIAN_POINT('',(-18.,10.15,3.6));
#1599=CARTESIAN_POINT('Origin',(-18.,8.15,3.));
#1600=CARTESIAN_POINT('Origin',(0.,10.15,3.6));
#1601=CARTESIAN_POINT('',(18.,10.15,3.));
#1602=CARTESIAN_POINT('',(18.,10.15,3.6));
#1603=CARTESIAN_POINT('',(0.,10.15,3.));
#1604=CARTESIAN_POINT('Origin',(18.,8.15,3.6));
#1605=CARTESIAN_POINT('',(20.,8.15,3.));
#1606=CARTESIAN_POINT('',(20.,8.15,3.6));
#1607=CARTESIAN_POINT('Origin',(18.,8.15,3.));
#1608=CARTESIAN_POINT('Origin',(0.,0.,4.2));
#1609=CARTESIAN_POINT('',(15.6,6.65,4.2));
#1610=CARTESIAN_POINT('',(14.4,7.85,4.2));
#1611=CARTESIAN_POINT('Origin',(14.4,6.65,4.2));
#1612=CARTESIAN_POINT('',(15.6,-6.65,4.2));
#1613=CARTESIAN_POINT('',(15.6,0.,4.2));
#1614=CARTESIAN_POINT('',(14.4,-7.85,4.2));
#1615=CARTESIAN_POINT('Origin',(14.4,-6.65,4.2));
#1616=CARTESIAN_POINT('',(-14.4,-7.85,4.2));
#1617=CARTESIAN_POINT('',(0.,-7.85,4.2));
#1618=CARTESIAN_POINT('',(-15.6,-6.65,4.2));
#1619=CARTESIAN_POINT('Origin',(-14.4,-6.65,4.2));
#1620=CARTESIAN_POINT('',(-15.6,6.65,4.2));
#1621=CARTESIAN_POINT('',(-15.6,0.,4.2));
#1622=CARTESIAN_POINT('',(-14.4,7.85,4.2));
#1623=CARTESIAN_POINT('Origin',(-14.4,6.65,4.2));
#1624=CARTESIAN_POINT('',(0.,7.85,4.2));
#1625=CARTESIAN_POINT('Origin',(14.4,6.65,3.8));
#1626=CARTESIAN_POINT('',(14.4,7.45,3.8));
#1627=CARTESIAN_POINT('Origin',(14.4,7.85,3.8));
#1628=CARTESIAN_POINT('',(15.2,6.65,3.8));
#1629=CARTESIAN_POINT('Origin',(14.4,6.65,3.8));
#1630=CARTESIAN_POINT('Origin',(15.6,6.65,3.8));
#1631=CARTESIAN_POINT('Origin',(15.6,0.,3.8));
#1632=CARTESIAN_POINT('',(15.2,-6.65,3.8));
#1633=CARTESIAN_POINT('Origin',(15.6,-6.65,3.8));
#1634=CARTESIAN_POINT('',(15.2,0.,3.8));
#1635=CARTESIAN_POINT('Origin',(14.4,-6.65,3.8));
#1636=CARTESIAN_POINT('',(14.4,-7.45,3.8));
#1637=CARTESIAN_POINT('Origin',(14.4,-7.85,3.8));
#1638=CARTESIAN_POINT('Origin',(14.4,-6.65,3.8));
#1639=CARTESIAN_POINT('Origin',(0.,-7.85,3.8));
#1640=CARTESIAN_POINT('',(-14.4,-7.45,3.8));
#1641=CARTESIAN_POINT('Origin',(-14.4,-7.85,3.8));
#1642=CARTESIAN_POINT('',(0.,-7.45,3.8));
#1643=CARTESIAN_POINT('Origin',(-14.4,-6.65,3.8));
#1644=CARTESIAN_POINT('',(-15.2,-6.65,3.8));
#1645=CARTESIAN_POINT('Origin',(-15.6,-6.65,3.8));
#1646=CARTESIAN_POINT('Origin',(-14.4,-6.65,3.8));
#1647=CARTESIAN_POINT('Origin',(-15.6,0.,3.8));
#1648=CARTESIAN_POINT('',(-15.2,6.65,3.8));
#1649=CARTESIAN_POINT('Origin',(-15.6,6.65,3.8));
#1650=CARTESIAN_POINT('',(-15.2,0.,3.8));
#1651=CARTESIAN_POINT('Origin',(-14.4,6.65,3.8));
#1652=CARTESIAN_POINT('',(-14.4,7.45,3.8));
#1653=CARTESIAN_POINT('Origin',(-14.4,7.85,3.8));
#1654=CARTESIAN_POINT('Origin',(-14.4,6.65,3.8));
#1655=CARTESIAN_POINT('Origin',(0.,7.85,3.8));
#1656=CARTESIAN_POINT('',(0.,7.45,3.8));
#1657=CARTESIAN_POINT('Origin',(0.,-7.45,2.1));
#1658=CARTESIAN_POINT('',(14.4,-7.45,3.));
#1659=CARTESIAN_POINT('',(14.4,-7.45,2.1));
#1660=CARTESIAN_POINT('',(-14.4,-7.45,3.));
#1661=CARTESIAN_POINT('',(0.,-7.45,3.));
#1662=CARTESIAN_POINT('',(-14.4,-7.45,2.1));
#1663=CARTESIAN_POINT('Origin',(14.4,-6.65,2.1));
#1664=CARTESIAN_POINT('',(15.2,-6.65,3.));
#1665=CARTESIAN_POINT('',(15.2,-6.65,2.1));
#1666=CARTESIAN_POINT('Origin',(14.4,-6.65,3.));
#1667=CARTESIAN_POINT('Origin',(15.2,0.,2.1));
#1668=CARTESIAN_POINT('',(15.2,6.65,3.));
#1669=CARTESIAN_POINT('',(15.2,6.65,2.1));
#1670=CARTESIAN_POINT('',(15.2,0.,3.));
#1671=CARTESIAN_POINT('Origin',(14.4,6.65,2.1));
#1672=CARTESIAN_POINT('',(14.4,7.45,3.));
#1673=CARTESIAN_POINT('',(14.4,7.45,2.1));
#1674=CARTESIAN_POINT('Origin',(14.4,6.65,3.));
#1675=CARTESIAN_POINT('Origin',(0.,9.85,3.1495));
#1676=CARTESIAN_POINT('',(12.,9.85,3.));
#1677=CARTESIAN_POINT('',(-12.,9.85,3.));
#1678=CARTESIAN_POINT('',(0.,9.85,3.));
#1679=CARTESIAN_POINT('',(12.,9.85,3.3));
#1680=CARTESIAN_POINT('',(12.,9.85,3.1495));
#1681=CARTESIAN_POINT('',(-12.,9.85,3.3));
#1682=CARTESIAN_POINT('',(0.,9.85,3.3));
#1683=CARTESIAN_POINT('',(-12.,9.85,3.1495));
#1684=CARTESIAN_POINT('Origin',(-12.,8.85,3.1495));
#1685=CARTESIAN_POINT('',(-12.,7.85,3.));
#1686=CARTESIAN_POINT('',(-12.,4.425,3.));
#1687=CARTESIAN_POINT('',(-12.,7.85,3.3));
#1688=CARTESIAN_POINT('',(-12.,8.85,3.3));
#1689=CARTESIAN_POINT('',(-12.,7.85,3.1495));
#1690=CARTESIAN_POINT('Origin',(0.,8.85,3.3));
#1691=CARTESIAN_POINT('',(12.,7.85,3.3));
#1692=CARTESIAN_POINT('',(12.,8.85,3.3));
#1693=CARTESIAN_POINT('',(0.,7.85,3.3));
#1694=CARTESIAN_POINT('Origin',(0.,7.85,3.1495));
#1695=CARTESIAN_POINT('',(12.,7.85,3.));
#1696=CARTESIAN_POINT('',(0.,7.85,3.));
#1697=CARTESIAN_POINT('',(12.,7.85,3.1495));
#1698=CARTESIAN_POINT('Origin',(12.,8.85,3.1495));
#1699=CARTESIAN_POINT('',(12.,4.425,3.));
#1700=CARTESIAN_POINT('Origin',(0.,-7.85,3.1495));
#1701=CARTESIAN_POINT('',(12.,-7.85,3.));
#1702=CARTESIAN_POINT('',(-12.,-7.85,3.));
#1703=CARTESIAN_POINT('',(0.,-7.85,3.));
#1704=CARTESIAN_POINT('',(12.,-7.85,3.3));
#1705=CARTESIAN_POINT('',(12.,-7.85,3.1495));
#1706=CARTESIAN_POINT('',(-12.,-7.85,3.3));
#1707=CARTESIAN_POINT('',(0.,-7.85,3.3));
#1708=CARTESIAN_POINT('',(-12.,-7.85,3.1495));
#1709=CARTESIAN_POINT('Origin',(-12.,-8.85,3.1495));
#1710=CARTESIAN_POINT('',(-12.,-9.85,3.));
#1711=CARTESIAN_POINT('',(-12.,-4.425,3.));
#1712=CARTESIAN_POINT('',(-12.,-9.85,3.3));
#1713=CARTESIAN_POINT('',(-12.,-8.85,3.3));
#1714=CARTESIAN_POINT('',(-12.,-9.85,3.1495));
#1715=CARTESIAN_POINT('Origin',(0.,-8.85,3.3));
#1716=CARTESIAN_POINT('',(12.,-9.85,3.3));
#1717=CARTESIAN_POINT('',(12.,-8.85,3.3));
#1718=CARTESIAN_POINT('',(0.,-9.85,3.3));
#1719=CARTESIAN_POINT('Origin',(0.,-9.85,3.1495));
#1720=CARTESIAN_POINT('',(12.,-9.85,3.));
#1721=CARTESIAN_POINT('',(0.,-9.85,3.));
#1722=CARTESIAN_POINT('',(12.,-9.85,3.1495));
#1723=CARTESIAN_POINT('Origin',(12.,-8.85,3.1495));
#1724=CARTESIAN_POINT('',(12.,-4.425,3.));
#1725=CARTESIAN_POINT('Origin',(16.85,3.4,1.6));
#1726=CARTESIAN_POINT('',(17.45,3.4,3.));
#1727=CARTESIAN_POINT('',(17.45,3.4,0.2));
#1728=CARTESIAN_POINT('',(17.45,3.4,1.6));
#1729=CARTESIAN_POINT('',(16.85,4.,0.2));
#1730=CARTESIAN_POINT('Origin',(16.85,3.4,0.2));
#1731=CARTESIAN_POINT('',(16.85,4.,3.));
#1732=CARTESIAN_POINT('',(16.85,4.,1.6));
#1733=CARTESIAN_POINT('Origin',(16.85,3.4,3.));
#1734=CARTESIAN_POINT('Origin',(16.85,-3.4,1.6));
#1735=CARTESIAN_POINT('',(16.85,-4.,3.));
#1736=CARTESIAN_POINT('',(16.85,-4.,0.2));
#1737=CARTESIAN_POINT('',(16.85,-4.,1.6));
#1738=CARTESIAN_POINT('',(17.45,-3.4,0.2));
#1739=CARTESIAN_POINT('Origin',(16.85,-3.4,0.2));
#1740=CARTESIAN_POINT('',(17.45,-3.4,3.));
#1741=CARTESIAN_POINT('',(17.45,-3.4,1.6));
#1742=CARTESIAN_POINT('Origin',(16.85,-3.4,3.));
#1743=CARTESIAN_POINT('Origin',(15.9,3.4,1.6));
#1744=CARTESIAN_POINT('',(15.3,3.4,3.));
#1745=CARTESIAN_POINT('',(15.3,3.4,0.2));
#1746=CARTESIAN_POINT('',(15.3,3.4,1.6));
#1747=CARTESIAN_POINT('',(15.9,4.,3.));
#1748=CARTESIAN_POINT('Origin',(15.9,3.4,3.));
#1749=CARTESIAN_POINT('',(15.9,4.,0.2));
#1750=CARTESIAN_POINT('',(15.9,4.,1.6));
#1751=CARTESIAN_POINT('Origin',(15.9,3.4,0.2));
#1752=CARTESIAN_POINT('Origin',(16.375,0.,0.2));
#1753=CARTESIAN_POINT('',(17.45,0.,0.2));
#1754=CARTESIAN_POINT('',(15.9,-4.,0.2));
#1755=CARTESIAN_POINT('',(16.375,-4.,0.2));
#1756=CARTESIAN_POINT('',(15.3,-3.4,0.2));
#1757=CARTESIAN_POINT('Origin',(15.9,-3.4,0.2));
#1758=CARTESIAN_POINT('',(15.3,0.,0.2));
#1759=CARTESIAN_POINT('',(16.375,4.,0.2));
#1760=CARTESIAN_POINT('Origin',(15.9,-3.4,1.6));
#1761=CARTESIAN_POINT('',(15.9,-4.,3.));
#1762=CARTESIAN_POINT('',(15.9,-4.,1.6));
#1763=CARTESIAN_POINT('',(15.3,-3.4,3.));
#1764=CARTESIAN_POINT('Origin',(15.9,-3.4,3.));
#1765=CARTESIAN_POINT('',(15.3,-3.4,1.6));
#1766=CARTESIAN_POINT('Origin',(15.3,0.,1.6));
#1767=CARTESIAN_POINT('',(15.3,0.,3.));
#1768=CARTESIAN_POINT('Origin',(17.45,0.,1.6));
#1769=CARTESIAN_POINT('',(17.45,0.,3.));
#1770=CARTESIAN_POINT('Origin',(16.375,-4.,1.6));
#1771=CARTESIAN_POINT('',(8.1875,-4.,3.));
#1772=CARTESIAN_POINT('Origin',(16.375,4.,1.6));
#1773=CARTESIAN_POINT('',(8.1875,4.,3.));
#1774=CARTESIAN_POINT('Origin',(-15.9,3.4,1.6));
#1775=CARTESIAN_POINT('',(-15.3,3.4,3.));
#1776=CARTESIAN_POINT('',(-15.3,3.4,0.2));
#1777=CARTESIAN_POINT('',(-15.3,3.4,1.6));
#1778=CARTESIAN_POINT('',(-15.9,4.,0.2));
#1779=CARTESIAN_POINT('Origin',(-15.9,3.4,0.2));
#1780=CARTESIAN_POINT('',(-15.9,4.,3.));
#1781=CARTESIAN_POINT('',(-15.9,4.,1.6));
#1782=CARTESIAN_POINT('Origin',(-15.9,3.4,3.));
#1783=CARTESIAN_POINT('Origin',(-15.9,-3.4,1.6));
#1784=CARTESIAN_POINT('',(-15.9,-4.,3.));
#1785=CARTESIAN_POINT('',(-15.9,-4.,0.2));
#1786=CARTESIAN_POINT('',(-15.9,-4.,1.6));
#1787=CARTESIAN_POINT('',(-15.3,-3.4,0.2));
#1788=CARTESIAN_POINT('Origin',(-15.9,-3.4,0.2));
#1789=CARTESIAN_POINT('',(-15.3,-3.4,3.));
#1790=CARTESIAN_POINT('',(-15.3,-3.4,1.6));
#1791=CARTESIAN_POINT('Origin',(-15.9,-3.4,3.));
#1792=CARTESIAN_POINT('Origin',(-16.85,3.4,1.6));
#1793=CARTESIAN_POINT('',(-17.45,3.4,3.));
#1794=CARTESIAN_POINT('',(-17.45,3.4,0.2));
#1795=CARTESIAN_POINT('',(-17.45,3.4,1.6));
#1796=CARTESIAN_POINT('',(-16.85,4.,3.));
#1797=CARTESIAN_POINT('Origin',(-16.85,3.4,3.));
#1798=CARTESIAN_POINT('',(-16.85,4.,0.2));
#1799=CARTESIAN_POINT('',(-16.85,4.,1.6));
#1800=CARTESIAN_POINT('Origin',(-16.85,3.4,0.2));
#1801=CARTESIAN_POINT('Origin',(-16.375,0.,0.2));
#1802=CARTESIAN_POINT('',(-15.3,0.,0.2));
#1803=CARTESIAN_POINT('',(-16.85,-4.,0.2));
#1804=CARTESIAN_POINT('',(-16.375,-4.,0.2));
#1805=CARTESIAN_POINT('',(-17.45,-3.4,0.2));
#1806=CARTESIAN_POINT('Origin',(-16.85,-3.4,0.2));
#1807=CARTESIAN_POINT('',(-17.45,0.,0.2));
#1808=CARTESIAN_POINT('',(-16.375,4.,0.2));
#1809=CARTESIAN_POINT('Origin',(-16.85,-3.4,1.6));
#1810=CARTESIAN_POINT('',(-16.85,-4.,3.));
#1811=CARTESIAN_POINT('',(-16.85,-4.,1.6));
#1812=CARTESIAN_POINT('',(-17.45,-3.4,3.));
#1813=CARTESIAN_POINT('Origin',(-16.85,-3.4,3.));
#1814=CARTESIAN_POINT('',(-17.45,-3.4,1.6));
#1815=CARTESIAN_POINT('Origin',(-17.45,0.,1.6));
#1816=CARTESIAN_POINT('',(-17.45,0.,3.));
#1817=CARTESIAN_POINT('Origin',(-15.3,0.,1.6));
#1818=CARTESIAN_POINT('',(-15.3,0.,3.));
#1819=CARTESIAN_POINT('Origin',(-16.375,-4.,1.6));
#1820=CARTESIAN_POINT('',(-8.1875,-4.,3.));
#1821=CARTESIAN_POINT('Origin',(-16.375,4.,1.6));
#1822=CARTESIAN_POINT('',(-8.1875,4.,3.));
#1823=CARTESIAN_POINT('Origin',(-14.4,6.65,2.1));
#1824=CARTESIAN_POINT('',(-15.2,6.65,3.));
#1825=CARTESIAN_POINT('',(-15.2,6.65,2.1));
#1826=CARTESIAN_POINT('',(-14.4,7.45,3.));
#1827=CARTESIAN_POINT('Origin',(-14.4,6.65,3.));
#1828=CARTESIAN_POINT('',(-14.4,7.45,2.1));
#1829=CARTESIAN_POINT('Origin',(-14.4,-6.65,2.1));
#1830=CARTESIAN_POINT('',(-15.2,-6.65,3.));
#1831=CARTESIAN_POINT('Origin',(-14.4,-6.65,3.));
#1832=CARTESIAN_POINT('',(-15.2,-6.65,2.1));
#1833=CARTESIAN_POINT('Origin',(-15.2,0.,2.1));
#1834=CARTESIAN_POINT('',(-15.2,0.,3.));
#1835=CARTESIAN_POINT('Origin',(0.,7.45,2.1));
#1836=CARTESIAN_POINT('',(0.,7.45,3.));
#1837=CARTESIAN_POINT('Origin',(18.,-8.15,3.6));
#1838=CARTESIAN_POINT('',(18.,-10.15,3.));
#1839=CARTESIAN_POINT('',(18.,-10.15,3.6));
#1840=CARTESIAN_POINT('',(20.,-8.15,3.));
#1841=CARTESIAN_POINT('Origin',(18.,-8.15,3.));
#1842=CARTESIAN_POINT('',(20.,-8.15,3.6));
#1843=CARTESIAN_POINT('Origin',(0.,0.,3.));
#1844=CARTESIAN_POINT('',(20.,0.,3.));
#1845=CARTESIAN_POINT('',(-18.,-10.15,3.));
#1846=CARTESIAN_POINT('',(0.,-10.15,3.));
#1847=CARTESIAN_POINT('Origin',(-18.,-8.15,3.));
#1848=CARTESIAN_POINT('Origin',(-18.,-8.15,3.6));
#1849=CARTESIAN_POINT('',(-18.,-10.15,3.6));
#1850=CARTESIAN_POINT('Origin',(20.,0.,3.6));
#1851=CARTESIAN_POINT('Origin',(0.,-10.15,3.6));
#1852=UNCERTAINTY_MEASURE_WITH_UNIT(LENGTH_MEASURE(0.01),#1856,
'DISTANCE_ACCURACY_VALUE',
'Maximum model space distance between geometric entities at asserted c
onnectivities');
#1853=UNCERTAINTY_MEASURE_WITH_UNIT(LENGTH_MEASURE(0.01),#1856,
'DISTANCE_ACCURACY_VALUE',
'Maximum model space distance between geometric entities at asserted c
onnectivities');
#1854=(
GEOMETRIC_REPRESENTATION_CONTEXT(3)
GLOBAL_UNCERTAINTY_ASSIGNED_CONTEXT((#1852))
GLOBAL_UNIT_ASSIGNED_CONTEXT((#1856,#1858,#1859))
REPRESENTATION_CONTEXT('','3D')
);
#1855=(
GEOMETRIC_REPRESENTATION_CONTEXT(3)
GLOBAL_UNCERTAINTY_ASSIGNED_CONTEXT((#1853))
GLOBAL_UNIT_ASSIGNED_CONTEXT((#1856,#1858,#1859))
REPRESENTATION_CONTEXT('','3D')
);
#1856=(
LENGTH_UNIT()
NAMED_UNIT(*)
SI_UNIT(.MILLI.,.METRE.)
);
#1857=(
LENGTH_UNIT()
NAMED_UNIT(*)
SI_UNIT($,.METRE.)
);
#1858=(
NAMED_UNIT(*)
PLANE_ANGLE_UNIT()
SI_UNIT($,.RADIAN.)
);
#1859=(
NAMED_UNIT(*)
SI_UNIT($,.STERADIAN.)
SOLID_ANGLE_UNIT()
);
#1860=SHAPE_DEFINITION_REPRESENTATION(#1861,#1862);
#1861=PRODUCT_DEFINITION_SHAPE('',$,#1864);
#1862=SHAPE_REPRESENTATION('',(#1088),#1854);
#1863=PRODUCT_DEFINITION_CONTEXT('part definition',#1868,'design');
#1864=PRODUCT_DEFINITION('Front_Bezel','Front_Bezel',#1865,#1863);
#1865=PRODUCT_DEFINITION_FORMATION('',$,#1870);
#1866=PRODUCT_RELATED_PRODUCT_CATEGORY('Front_Bezel','Front_Bezel',(#1870));
#1867=APPLICATION_PROTOCOL_DEFINITION('international standard',
'automotive_design',2009,#1868);
#1868=APPLICATION_CONTEXT(
'Core Data for Automotive Mechanical Design Process');
#1869=PRODUCT_CONTEXT('part definition',#1868,'mechanical');
#1870=PRODUCT('Front_Bezel','Front_Bezel',$,(#1869));
#1871=PRESENTATION_STYLE_ASSIGNMENT((#1873));
#1872=PRESENTATION_STYLE_ASSIGNMENT((#1874));
#1873=SURFACE_STYLE_USAGE(.BOTH.,#1875);
#1874=SURFACE_STYLE_USAGE(.BOTH.,#1876);
#1875=SURFACE_SIDE_STYLE('',(#1877));
#1876=SURFACE_SIDE_STYLE('',(#1878));
#1877=SURFACE_STYLE_FILL_AREA(#1879);
#1878=SURFACE_STYLE_FILL_AREA(#1880);
#1879=FILL_AREA_STYLE('Steel - Satin',(#1881));
#1880=FILL_AREA_STYLE('Plastic - Matte (Black)',(#1882));
#1881=FILL_AREA_STYLE_COLOUR('Steel - Satin',#1883);
#1882=FILL_AREA_STYLE_COLOUR('Plastic - Matte (Black)',#1884);
#1883=COLOUR_RGB('Steel - Satin',0.627450980392157,0.627450980392157,0.627450980392157);
#1884=COLOUR_RGB('Plastic - Matte (Black)',0.0980392156862745,0.0980392156862745,
0.0980392156862745);
ENDSEC;
END-ISO-10303-21;
