ISO-10303-21;
HEADER;
/* Generated by software containing ST-Developer
 * from STEP Tools, Inc. (www.steptools.com) 
 */

FILE_DESCRIPTION(
/* description */ (''),
/* implementation_level */ '2;1');

FILE_NAME(
/* name */ 'Retainer_Bar.step',
/* time_stamp */ '2026-08-28T11:04:41+01:00',
/* author */ (''),
/* organization */ (''),
/* preprocessor_version */ 'ST-DEVELOPER v20.1',
/* originating_system */ 'Autodesk Translation Framework v15.8.0.0',
/* authorisation */ '');

FILE_SCHEMA (('AUTOMOTIVE_DESIGN { 1 0 10303 214 3 1 1 }'));
ENDSEC;

DATA;
#10=MECHANICAL_DESIGN_GEOMETRIC_PRESENTATION_REPRESENTATION('',(#13),#493);
#11=SHAPE_REPRESENTATION_RELATIONSHIP('SRR','None',#500,#12);
#12=ADVANCED_BREP_SHAPE_REPRESENTATION('',(#14),#492);
#13=STYLED_ITEM('',(#509),#14);
#14=MANIFOLD_SOLID_BREP('Retainer_Bar',#277);
#15=PLANE('',#296);
#16=PLANE('',#297);
#17=PLANE('',#303);
#18=PLANE('',#304);
#19=PLANE('',#308);
#20=PLANE('',#316);
#21=PLANE('',#319);
#22=PLANE('',#320);
#23=PLANE('',#321);
#24=PLANE('',#322);
#25=FACE_OUTER_BOUND('',#41,.T.);
#26=FACE_OUTER_BOUND('',#42,.T.);
#27=FACE_OUTER_BOUND('',#43,.T.);
#28=FACE_OUTER_BOUND('',#44,.T.);
#29=FACE_OUTER_BOUND('',#45,.T.);
#30=FACE_OUTER_BOUND('',#46,.T.);
#31=FACE_OUTER_BOUND('',#47,.T.);
#32=FACE_OUTER_BOUND('',#48,.T.);
#33=FACE_OUTER_BOUND('',#49,.T.);
#34=FACE_OUTER_BOUND('',#50,.T.);
#35=FACE_OUTER_BOUND('',#51,.T.);
#36=FACE_OUTER_BOUND('',#52,.T.);
#37=FACE_OUTER_BOUND('',#53,.T.);
#38=FACE_OUTER_BOUND('',#54,.T.);
#39=FACE_OUTER_BOUND('',#55,.T.);
#40=FACE_OUTER_BOUND('',#56,.T.);
#41=EDGE_LOOP('',(#179,#180,#181,#182,#183,#184));
#42=EDGE_LOOP('',(#185,#186));
#43=EDGE_LOOP('',(#187));
#44=EDGE_LOOP('',(#188,#189,#190,#191,#192,#193));
#45=EDGE_LOOP('',(#194,#195));
#46=EDGE_LOOP('',(#196));
#47=EDGE_LOOP('',(#197,#198,#199,#200));
#48=EDGE_LOOP('',(#201,#202,#203,#204,#205,#206,#207,#208,#209,#210,#211,
#212,#213,#214));
#49=EDGE_LOOP('',(#215,#216,#217,#218));
#50=EDGE_LOOP('',(#219,#220,#221,#222));
#51=EDGE_LOOP('',(#223,#224,#225,#226,#227,#228,#229,#230));
#52=EDGE_LOOP('',(#231,#232,#233,#234));
#53=EDGE_LOOP('',(#235,#236,#237,#238));
#54=EDGE_LOOP('',(#239,#240,#241,#242));
#55=EDGE_LOOP('',(#243,#244,#245,#246));
#56=EDGE_LOOP('',(#247,#248,#249,#250,#251,#252,#253,#254));
#57=LINE('',#416,#79);
#58=LINE('',#423,#80);
#59=LINE('',#429,#81);
#60=LINE('',#436,#82);
#61=LINE('',#441,#83);
#62=LINE('',#445,#84);
#63=LINE('',#448,#85);
#64=LINE('',#450,#86);
#65=LINE('',#454,#87);
#66=LINE('',#458,#88);
#67=LINE('',#461,#89);
#68=LINE('',#462,#90);
#69=LINE('',#465,#91);
#70=LINE('',#468,#92);
#71=LINE('',#471,#93);
#72=LINE('',#473,#94);
#73=LINE('',#476,#95);
#74=LINE('',#478,#96);
#75=LINE('',#481,#97);
#76=LINE('',#482,#98);
#77=LINE('',#484,#99);
#78=LINE('',#485,#100);
#79=VECTOR('',#329,1.2);
#80=VECTOR('',#338,10.);
#81=VECTOR('',#345,1.2);
#82=VECTOR('',#354,10.);
#83=VECTOR('',#359,10.);
#84=VECTOR('',#362,10.);
#85=VECTOR('',#367,10.);
#86=VECTOR('',#368,10.);
#87=VECTOR('',#371,10.);
#88=VECTOR('',#374,10.);
#89=VECTOR('',#377,10.);
#90=VECTOR('',#378,10.);
#91=VECTOR('',#381,10.);
#92=VECTOR('',#384,10.);
#93=VECTOR('',#387,10.);
#94=VECTOR('',#388,10.);
#95=VECTOR('',#393,10.);
#96=VECTOR('',#394,10.);
#97=VECTOR('',#397,10.);
#98=VECTOR('',#398,10.);
#99=VECTOR('',#401,10.);
#100=VECTOR('',#402,10.);
#101=CIRCLE('',#292,1.2);
#102=CIRCLE('',#293,1.2);
#103=CIRCLE('',#294,1.2);
#104=CIRCLE('',#295,1.2);
#105=CIRCLE('',#299,1.2);
#106=CIRCLE('',#300,1.2);
#107=CIRCLE('',#301,1.2);
#108=CIRCLE('',#302,1.2);
#109=CIRCLE('',#306,1.);
#110=CIRCLE('',#307,1.);
#111=CIRCLE('',#309,1.);
#112=CIRCLE('',#310,1.);
#113=CIRCLE('',#311,1.);
#114=CIRCLE('',#313,1.);
#115=CIRCLE('',#315,1.);
#116=CIRCLE('',#317,1.);
#117=VERTEX_POINT('',#413);
#118=VERTEX_POINT('',#415);
#119=VERTEX_POINT('',#417);
#120=VERTEX_POINT('',#419);
#121=VERTEX_POINT('',#426);
#122=VERTEX_POINT('',#428);
#123=VERTEX_POINT('',#430);
#124=VERTEX_POINT('',#432);
#125=VERTEX_POINT('',#439);
#126=VERTEX_POINT('',#440);
#127=VERTEX_POINT('',#442);
#128=VERTEX_POINT('',#444);
#129=VERTEX_POINT('',#449);
#130=VERTEX_POINT('',#451);
#131=VERTEX_POINT('',#453);
#132=VERTEX_POINT('',#455);
#133=VERTEX_POINT('',#457);
#134=VERTEX_POINT('',#459);
#135=VERTEX_POINT('',#464);
#136=VERTEX_POINT('',#466);
#137=VERTEX_POINT('',#470);
#138=VERTEX_POINT('',#472);
#139=VERTEX_POINT('',#477);
#140=VERTEX_POINT('',#479);
#141=EDGE_CURVE('',#117,#117,#101,.T.);
#142=EDGE_CURVE('',#117,#118,#57,.T.);
#143=EDGE_CURVE('',#119,#118,#102,.T.);
#144=EDGE_CURVE('',#120,#119,#103,.T.);
#145=EDGE_CURVE('',#118,#120,#104,.T.);
#146=EDGE_CURVE('',#119,#120,#58,.T.);
#147=EDGE_CURVE('',#121,#121,#105,.T.);
#148=EDGE_CURVE('',#121,#122,#59,.T.);
#149=EDGE_CURVE('',#123,#122,#106,.T.);
#150=EDGE_CURVE('',#124,#123,#107,.T.);
#151=EDGE_CURVE('',#122,#124,#108,.T.);
#152=EDGE_CURVE('',#123,#124,#60,.T.);
#153=EDGE_CURVE('',#125,#126,#61,.T.);
#154=EDGE_CURVE('',#127,#126,#109,.T.);
#155=EDGE_CURVE('',#128,#127,#62,.T.);
#156=EDGE_CURVE('',#125,#128,#110,.T.);
#157=EDGE_CURVE('',#120,#123,#63,.T.);
#158=EDGE_CURVE('',#124,#129,#64,.T.);
#159=EDGE_CURVE('',#129,#130,#111,.T.);
#160=EDGE_CURVE('',#130,#131,#65,.T.);
#161=EDGE_CURVE('',#131,#132,#112,.T.);
#162=EDGE_CURVE('',#132,#133,#66,.T.);
#163=EDGE_CURVE('',#133,#134,#113,.T.);
#164=EDGE_CURVE('',#134,#125,#67,.T.);
#165=EDGE_CURVE('',#128,#119,#68,.T.);
#166=EDGE_CURVE('',#133,#135,#69,.T.);
#167=EDGE_CURVE('',#136,#135,#114,.T.);
#168=EDGE_CURVE('',#134,#136,#70,.T.);
#169=EDGE_CURVE('',#130,#137,#71,.T.);
#170=EDGE_CURVE('',#129,#138,#72,.T.);
#171=EDGE_CURVE('',#137,#138,#115,.T.);
#172=EDGE_CURVE('',#126,#136,#73,.T.);
#173=EDGE_CURVE('',#135,#139,#74,.T.);
#174=EDGE_CURVE('',#139,#140,#116,.T.);
#175=EDGE_CURVE('',#140,#137,#75,.T.);
#176=EDGE_CURVE('',#138,#127,#76,.T.);
#177=EDGE_CURVE('',#132,#139,#77,.T.);
#178=EDGE_CURVE('',#131,#140,#78,.T.);
#179=ORIENTED_EDGE('',*,*,#141,.F.);
#180=ORIENTED_EDGE('',*,*,#142,.T.);
#181=ORIENTED_EDGE('',*,*,#143,.F.);
#182=ORIENTED_EDGE('',*,*,#144,.F.);
#183=ORIENTED_EDGE('',*,*,#145,.F.);
#184=ORIENTED_EDGE('',*,*,#142,.F.);
#185=ORIENTED_EDGE('',*,*,#146,.T.);
#186=ORIENTED_EDGE('',*,*,#144,.T.);
#187=ORIENTED_EDGE('',*,*,#141,.T.);
#188=ORIENTED_EDGE('',*,*,#147,.F.);
#189=ORIENTED_EDGE('',*,*,#148,.T.);
#190=ORIENTED_EDGE('',*,*,#149,.F.);
#191=ORIENTED_EDGE('',*,*,#150,.F.);
#192=ORIENTED_EDGE('',*,*,#151,.F.);
#193=ORIENTED_EDGE('',*,*,#148,.F.);
#194=ORIENTED_EDGE('',*,*,#152,.T.);
#195=ORIENTED_EDGE('',*,*,#150,.T.);
#196=ORIENTED_EDGE('',*,*,#147,.T.);
#197=ORIENTED_EDGE('',*,*,#153,.T.);
#198=ORIENTED_EDGE('',*,*,#154,.F.);
#199=ORIENTED_EDGE('',*,*,#155,.F.);
#200=ORIENTED_EDGE('',*,*,#156,.F.);
#201=ORIENTED_EDGE('',*,*,#143,.T.);
#202=ORIENTED_EDGE('',*,*,#145,.T.);
#203=ORIENTED_EDGE('',*,*,#157,.T.);
#204=ORIENTED_EDGE('',*,*,#149,.T.);
#205=ORIENTED_EDGE('',*,*,#151,.T.);
#206=ORIENTED_EDGE('',*,*,#158,.T.);
#207=ORIENTED_EDGE('',*,*,#159,.T.);
#208=ORIENTED_EDGE('',*,*,#160,.T.);
#209=ORIENTED_EDGE('',*,*,#161,.T.);
#210=ORIENTED_EDGE('',*,*,#162,.T.);
#211=ORIENTED_EDGE('',*,*,#163,.T.);
#212=ORIENTED_EDGE('',*,*,#164,.T.);
#213=ORIENTED_EDGE('',*,*,#156,.T.);
#214=ORIENTED_EDGE('',*,*,#165,.T.);
#215=ORIENTED_EDGE('',*,*,#166,.T.);
#216=ORIENTED_EDGE('',*,*,#167,.F.);
#217=ORIENTED_EDGE('',*,*,#168,.F.);
#218=ORIENTED_EDGE('',*,*,#163,.F.);
#219=ORIENTED_EDGE('',*,*,#169,.F.);
#220=ORIENTED_EDGE('',*,*,#159,.F.);
#221=ORIENTED_EDGE('',*,*,#170,.T.);
#222=ORIENTED_EDGE('',*,*,#171,.F.);
#223=ORIENTED_EDGE('',*,*,#172,.T.);
#224=ORIENTED_EDGE('',*,*,#167,.T.);
#225=ORIENTED_EDGE('',*,*,#173,.T.);
#226=ORIENTED_EDGE('',*,*,#174,.T.);
#227=ORIENTED_EDGE('',*,*,#175,.T.);
#228=ORIENTED_EDGE('',*,*,#171,.T.);
#229=ORIENTED_EDGE('',*,*,#176,.T.);
#230=ORIENTED_EDGE('',*,*,#154,.T.);
#231=ORIENTED_EDGE('',*,*,#177,.F.);
#232=ORIENTED_EDGE('',*,*,#161,.F.);
#233=ORIENTED_EDGE('',*,*,#178,.T.);
#234=ORIENTED_EDGE('',*,*,#174,.F.);
#235=ORIENTED_EDGE('',*,*,#169,.T.);
#236=ORIENTED_EDGE('',*,*,#175,.F.);
#237=ORIENTED_EDGE('',*,*,#178,.F.);
#238=ORIENTED_EDGE('',*,*,#160,.F.);
#239=ORIENTED_EDGE('',*,*,#168,.T.);
#240=ORIENTED_EDGE('',*,*,#172,.F.);
#241=ORIENTED_EDGE('',*,*,#153,.F.);
#242=ORIENTED_EDGE('',*,*,#164,.F.);
#243=ORIENTED_EDGE('',*,*,#177,.T.);
#244=ORIENTED_EDGE('',*,*,#173,.F.);
#245=ORIENTED_EDGE('',*,*,#166,.F.);
#246=ORIENTED_EDGE('',*,*,#162,.F.);
#247=ORIENTED_EDGE('',*,*,#155,.T.);
#248=ORIENTED_EDGE('',*,*,#176,.F.);
#249=ORIENTED_EDGE('',*,*,#170,.F.);
#250=ORIENTED_EDGE('',*,*,#158,.F.);
#251=ORIENTED_EDGE('',*,*,#152,.F.);
#252=ORIENTED_EDGE('',*,*,#157,.F.);
#253=ORIENTED_EDGE('',*,*,#146,.F.);
#254=ORIENTED_EDGE('',*,*,#165,.F.);
#255=CYLINDRICAL_SURFACE('',#291,1.2);
#256=CYLINDRICAL_SURFACE('',#298,1.2);
#257=CYLINDRICAL_SURFACE('',#305,1.);
#258=CYLINDRICAL_SURFACE('',#312,1.);
#259=CYLINDRICAL_SURFACE('',#314,1.);
#260=CYLINDRICAL_SURFACE('',#318,1.);
#261=ADVANCED_FACE('',(#25),#255,.T.);
#262=ADVANCED_FACE('',(#26),#15,.T.);
#263=ADVANCED_FACE('',(#27),#16,.T.);
#264=ADVANCED_FACE('',(#28),#256,.T.);
#265=ADVANCED_FACE('',(#29),#17,.T.);
#266=ADVANCED_FACE('',(#30),#18,.T.);
#267=ADVANCED_FACE('',(#31),#257,.T.);
#268=ADVANCED_FACE('',(#32),#19,.T.);
#269=ADVANCED_FACE('',(#33),#258,.T.);
#270=ADVANCED_FACE('',(#34),#259,.T.);
#271=ADVANCED_FACE('',(#35),#20,.F.);
#272=ADVANCED_FACE('',(#36),#260,.T.);
#273=ADVANCED_FACE('',(#37),#21,.F.);
#274=ADVANCED_FACE('',(#38),#22,.F.);
#275=ADVANCED_FACE('',(#39),#23,.F.);
#276=ADVANCED_FACE('',(#40),#24,.F.);
#277=CLOSED_SHELL('',(#261,#262,#263,#264,#265,#266,#267,#268,#269,#270,
#271,#272,#273,#274,#275,#276));
#278=DERIVED_UNIT_ELEMENT(#280,1.);
#279=DERIVED_UNIT_ELEMENT(#495,-3.);
#280=(
MASS_UNIT()
NAMED_UNIT(*)
SI_UNIT(.KILO.,.GRAM.)
);
#281=DERIVED_UNIT((#278,#279));
#282=MEASURE_REPRESENTATION_ITEM('density measure',
POSITIVE_RATIO_MEASURE(7850.),#281);
#283=PROPERTY_DEFINITION_REPRESENTATION(#288,#285);
#284=PROPERTY_DEFINITION_REPRESENTATION(#289,#286);
#285=REPRESENTATION('material name',(#287),#492);
#286=REPRESENTATION('density',(#282),#492);
#287=DESCRIPTIVE_REPRESENTATION_ITEM('Steel','Steel');
#288=PROPERTY_DEFINITION('material property','material name',#502);
#289=PROPERTY_DEFINITION('material property','density of part',#502);
#290=AXIS2_PLACEMENT_3D('',#411,#323,#324);
#291=AXIS2_PLACEMENT_3D('',#412,#325,#326);
#292=AXIS2_PLACEMENT_3D('',#414,#327,#328);
#293=AXIS2_PLACEMENT_3D('',#418,#330,#331);
#294=AXIS2_PLACEMENT_3D('',#420,#332,#333);
#295=AXIS2_PLACEMENT_3D('',#421,#334,#335);
#296=AXIS2_PLACEMENT_3D('',#422,#336,#337);
#297=AXIS2_PLACEMENT_3D('',#424,#339,#340);
#298=AXIS2_PLACEMENT_3D('',#425,#341,#342);
#299=AXIS2_PLACEMENT_3D('',#427,#343,#344);
#300=AXIS2_PLACEMENT_3D('',#431,#346,#347);
#301=AXIS2_PLACEMENT_3D('',#433,#348,#349);
#302=AXIS2_PLACEMENT_3D('',#434,#350,#351);
#303=AXIS2_PLACEMENT_3D('',#435,#352,#353);
#304=AXIS2_PLACEMENT_3D('',#437,#355,#356);
#305=AXIS2_PLACEMENT_3D('',#438,#357,#358);
#306=AXIS2_PLACEMENT_3D('',#443,#360,#361);
#307=AXIS2_PLACEMENT_3D('',#446,#363,#364);
#308=AXIS2_PLACEMENT_3D('',#447,#365,#366);
#309=AXIS2_PLACEMENT_3D('',#452,#369,#370);
#310=AXIS2_PLACEMENT_3D('',#456,#372,#373);
#311=AXIS2_PLACEMENT_3D('',#460,#375,#376);
#312=AXIS2_PLACEMENT_3D('',#463,#379,#380);
#313=AXIS2_PLACEMENT_3D('',#467,#382,#383);
#314=AXIS2_PLACEMENT_3D('',#469,#385,#386);
#315=AXIS2_PLACEMENT_3D('',#474,#389,#390);
#316=AXIS2_PLACEMENT_3D('',#475,#391,#392);
#317=AXIS2_PLACEMENT_3D('',#480,#395,#396);
#318=AXIS2_PLACEMENT_3D('',#483,#399,#400);
#319=AXIS2_PLACEMENT_3D('',#486,#403,#404);
#320=AXIS2_PLACEMENT_3D('',#487,#405,#406);
#321=AXIS2_PLACEMENT_3D('',#488,#407,#408);
#322=AXIS2_PLACEMENT_3D('',#489,#409,#410);
#323=DIRECTION('axis',(0.,0.,1.));
#324=DIRECTION('refdir',(1.,0.,0.));
#325=DIRECTION('center_axis',(0.,0.,1.));
#326=DIRECTION('ref_axis',(-1.,1.22464679914735E-16,0.));
#327=DIRECTION('center_axis',(0.,0.,1.));
#328=DIRECTION('ref_axis',(-1.,1.22464679914735E-16,0.));
#329=DIRECTION('',(0.,0.,-1.));
#330=DIRECTION('center_axis',(0.,0.,-1.));
#331=DIRECTION('ref_axis',(-1.,1.22464679914735E-16,0.));
#332=DIRECTION('center_axis',(0.,0.,-1.));
#333=DIRECTION('ref_axis',(-1.,1.22464679914735E-16,0.));
#334=DIRECTION('center_axis',(0.,0.,-1.));
#335=DIRECTION('ref_axis',(-1.,1.22464679914735E-16,0.));
#336=DIRECTION('center_axis',(0.,0.,-1.));
#337=DIRECTION('ref_axis',(1.,-1.22464679914735E-16,0.));
#338=DIRECTION('',(1.,-1.22464679914735E-16,0.));
#339=DIRECTION('center_axis',(0.,0.,1.));
#340=DIRECTION('ref_axis',(-1.,1.22464679914735E-16,0.));
#341=DIRECTION('center_axis',(0.,0.,1.));
#342=DIRECTION('ref_axis',(-1.,1.22464679914735E-16,0.));
#343=DIRECTION('center_axis',(0.,0.,1.));
#344=DIRECTION('ref_axis',(-1.,1.22464679914735E-16,0.));
#345=DIRECTION('',(0.,0.,-1.));
#346=DIRECTION('center_axis',(0.,0.,-1.));
#347=DIRECTION('ref_axis',(-1.,1.22464679914735E-16,0.));
#348=DIRECTION('center_axis',(0.,0.,-1.));
#349=DIRECTION('ref_axis',(-1.,1.22464679914735E-16,0.));
#350=DIRECTION('center_axis',(0.,0.,-1.));
#351=DIRECTION('ref_axis',(-1.,1.22464679914735E-16,0.));
#352=DIRECTION('center_axis',(0.,0.,-1.));
#353=DIRECTION('ref_axis',(1.,-1.22464679914735E-16,0.));
#354=DIRECTION('',(1.,-1.22464679914735E-16,0.));
#355=DIRECTION('center_axis',(0.,0.,1.));
#356=DIRECTION('ref_axis',(-1.,1.22464679914735E-16,0.));
#357=DIRECTION('center_axis',(0.,0.,-1.));
#358=DIRECTION('ref_axis',(-1.,1.22464679914735E-16,0.));
#359=DIRECTION('',(0.,0.,-1.));
#360=DIRECTION('center_axis',(0.,0.,-1.));
#361=DIRECTION('ref_axis',(-1.,1.22464679914735E-16,0.));
#362=DIRECTION('',(0.,0.,-1.));
#363=DIRECTION('center_axis',(0.,0.,1.));
#364=DIRECTION('ref_axis',(-1.,1.22464679914735E-16,0.));
#365=DIRECTION('center_axis',(0.,0.,1.));
#366=DIRECTION('ref_axis',(-1.,1.22464679914735E-16,0.));
#367=DIRECTION('',(1.,-1.22464679914735E-16,0.));
#368=DIRECTION('',(1.,-1.22464679914735E-16,0.));
#369=DIRECTION('center_axis',(0.,0.,1.));
#370=DIRECTION('ref_axis',(-1.,1.22464679914735E-16,0.));
#371=DIRECTION('',(1.22464679914735E-16,1.,0.));
#372=DIRECTION('center_axis',(0.,0.,1.));
#373=DIRECTION('ref_axis',(-1.,1.22464679914735E-16,0.));
#374=DIRECTION('',(-1.,1.22464679914735E-16,0.));
#375=DIRECTION('center_axis',(0.,0.,1.));
#376=DIRECTION('ref_axis',(-1.,1.22464679914735E-16,0.));
#377=DIRECTION('',(-1.22464679914735E-16,-1.,0.));
#378=DIRECTION('',(1.,-1.22464679914735E-16,0.));
#379=DIRECTION('center_axis',(0.,0.,-1.));
#380=DIRECTION('ref_axis',(-1.,1.22464679914735E-16,0.));
#381=DIRECTION('',(0.,0.,-1.));
#382=DIRECTION('center_axis',(0.,0.,-1.));
#383=DIRECTION('ref_axis',(-1.,1.22464679914735E-16,0.));
#384=DIRECTION('',(0.,0.,-1.));
#385=DIRECTION('center_axis',(0.,0.,-1.));
#386=DIRECTION('ref_axis',(-1.,1.22464679914735E-16,0.));
#387=DIRECTION('',(0.,0.,-1.));
#388=DIRECTION('',(0.,0.,-1.));
#389=DIRECTION('center_axis',(0.,0.,-1.));
#390=DIRECTION('ref_axis',(-1.,1.22464679914735E-16,0.));
#391=DIRECTION('center_axis',(0.,0.,1.));
#392=DIRECTION('ref_axis',(-1.,1.22464679914735E-16,0.));
#393=DIRECTION('',(1.22464679914735E-16,1.,0.));
#394=DIRECTION('',(1.,-1.22464679914735E-16,0.));
#395=DIRECTION('center_axis',(0.,0.,-1.));
#396=DIRECTION('ref_axis',(-1.,1.22464679914735E-16,0.));
#397=DIRECTION('',(-1.22464679914735E-16,-1.,0.));
#398=DIRECTION('',(-1.,1.22464679914735E-16,0.));
#399=DIRECTION('center_axis',(0.,0.,-1.));
#400=DIRECTION('ref_axis',(-1.,1.22464679914735E-16,0.));
#401=DIRECTION('',(0.,0.,-1.));
#402=DIRECTION('',(0.,0.,-1.));
#403=DIRECTION('center_axis',(-1.,1.22464679914735E-16,0.));
#404=DIRECTION('ref_axis',(0.,0.,-1.));
#405=DIRECTION('center_axis',(1.,-1.22464679914735E-16,0.));
#406=DIRECTION('ref_axis',(0.,0.,1.));
#407=DIRECTION('center_axis',(-1.22464679914735E-16,-1.,0.));
#408=DIRECTION('ref_axis',(0.,0.,1.));
#409=DIRECTION('center_axis',(1.22464679914735E-16,1.,0.));
#410=DIRECTION('ref_axis',(0.,0.,-1.));
#411=CARTESIAN_POINT('',(0.,0.,0.));
#412=CARTESIAN_POINT('Origin',(-12.,-14.15,-3.25));
#413=CARTESIAN_POINT('',(-10.8,-14.15,-2.6));
#414=CARTESIAN_POINT('Origin',(-12.,-14.15,-2.6));
#415=CARTESIAN_POINT('',(-10.8,-14.15,-3.9));
#416=CARTESIAN_POINT('',(-10.8,-14.15,-3.25));
#417=CARTESIAN_POINT('',(-12.7937253933194,-15.05,-3.9));
#418=CARTESIAN_POINT('Origin',(-12.,-14.15,-3.9));
#419=CARTESIAN_POINT('',(-11.2062746066806,-15.05,-3.9));
#420=CARTESIAN_POINT('Origin',(-12.,-14.15,-3.9));
#421=CARTESIAN_POINT('Origin',(-12.,-14.15,-3.9));
#422=CARTESIAN_POINT('Origin',(-12.,-14.15,-3.9));
#423=CARTESIAN_POINT('',(-1.84309343271677E-15,-15.05,-3.9));
#424=CARTESIAN_POINT('Origin',(-12.,-14.15,-2.6));
#425=CARTESIAN_POINT('Origin',(12.,-14.15,-3.25));
#426=CARTESIAN_POINT('',(13.2,-14.15,-2.6));
#427=CARTESIAN_POINT('Origin',(12.,-14.15,-2.6));
#428=CARTESIAN_POINT('',(13.2,-14.15,-3.9));
#429=CARTESIAN_POINT('',(13.2,-14.15,-3.25));
#430=CARTESIAN_POINT('',(11.2062746066806,-15.05,-3.9));
#431=CARTESIAN_POINT('Origin',(12.,-14.15,-3.9));
#432=CARTESIAN_POINT('',(12.7937253933194,-15.05,-3.9));
#433=CARTESIAN_POINT('Origin',(12.,-14.15,-3.9));
#434=CARTESIAN_POINT('Origin',(12.,-14.15,-3.9));
#435=CARTESIAN_POINT('Origin',(12.,-14.15,-3.9));
#436=CARTESIAN_POINT('',(-1.84309343271677E-15,-15.05,-3.9));
#437=CARTESIAN_POINT('Origin',(12.,-14.15,-2.6));
#438=CARTESIAN_POINT('Origin',(-13.925,-14.05,-4.6));
#439=CARTESIAN_POINT('',(-14.925,-14.05,-3.9));
#440=CARTESIAN_POINT('',(-14.925,-14.05,-5.3));
#441=CARTESIAN_POINT('',(-14.925,-14.05,-4.6));
#442=CARTESIAN_POINT('',(-13.925,-15.05,-5.3));
#443=CARTESIAN_POINT('Origin',(-13.925,-14.05,-5.3));
#444=CARTESIAN_POINT('',(-13.925,-15.05,-3.9));
#445=CARTESIAN_POINT('',(-13.925,-15.05,-4.6));
#446=CARTESIAN_POINT('Origin',(-13.925,-14.05,-3.9));
#447=CARTESIAN_POINT('Origin',(-1.65327317884893E-15,-13.5,-3.9));
#448=CARTESIAN_POINT('',(-1.84309343271677E-15,-15.05,-3.9));
#449=CARTESIAN_POINT('',(13.925,-15.05,-3.9));
#450=CARTESIAN_POINT('',(-1.84309343271677E-15,-15.05,-3.9));
#451=CARTESIAN_POINT('',(14.925,-14.05,-3.9));
#452=CARTESIAN_POINT('Origin',(13.925,-14.05,-3.9));
#453=CARTESIAN_POINT('',(14.925,-12.95,-3.9));
#454=CARTESIAN_POINT('',(14.925,-13.5,-3.9));
#455=CARTESIAN_POINT('',(13.925,-11.95,-3.9));
#456=CARTESIAN_POINT('Origin',(13.925,-12.95,-3.9));
#457=CARTESIAN_POINT('',(-13.925,-11.95,-3.9));
#458=CARTESIAN_POINT('',(-1.46345292498109E-15,-11.95,-3.9));
#459=CARTESIAN_POINT('',(-14.925,-12.95,-3.9));
#460=CARTESIAN_POINT('Origin',(-13.925,-12.95,-3.9));
#461=CARTESIAN_POINT('',(-14.925,-13.5,-3.9));
#462=CARTESIAN_POINT('',(-1.84309343271677E-15,-15.05,-3.9));
#463=CARTESIAN_POINT('Origin',(-13.925,-12.95,-4.6));
#464=CARTESIAN_POINT('',(-13.925,-11.95,-5.3));
#465=CARTESIAN_POINT('',(-13.925,-11.95,-4.6));
#466=CARTESIAN_POINT('',(-14.925,-12.95,-5.3));
#467=CARTESIAN_POINT('Origin',(-13.925,-12.95,-5.3));
#468=CARTESIAN_POINT('',(-14.925,-12.95,-4.6));
#469=CARTESIAN_POINT('Origin',(13.925,-14.05,-4.6));
#470=CARTESIAN_POINT('',(14.925,-14.05,-5.3));
#471=CARTESIAN_POINT('',(14.925,-14.05,-4.6));
#472=CARTESIAN_POINT('',(13.925,-15.05,-5.3));
#473=CARTESIAN_POINT('',(13.925,-15.05,-4.6));
#474=CARTESIAN_POINT('Origin',(13.925,-14.05,-5.3));
#475=CARTESIAN_POINT('Origin',(-1.65327317884893E-15,-13.5,-5.3));
#476=CARTESIAN_POINT('',(-14.925,-13.5,-5.3));
#477=CARTESIAN_POINT('',(13.925,-11.95,-5.3));
#478=CARTESIAN_POINT('',(-1.46345292498109E-15,-11.95,-5.3));
#479=CARTESIAN_POINT('',(14.925,-12.95,-5.3));
#480=CARTESIAN_POINT('Origin',(13.925,-12.95,-5.3));
#481=CARTESIAN_POINT('',(14.925,-13.5,-5.3));
#482=CARTESIAN_POINT('',(-1.84309343271677E-15,-15.05,-5.3));
#483=CARTESIAN_POINT('Origin',(13.925,-12.95,-4.6));
#484=CARTESIAN_POINT('',(13.925,-11.95,-4.6));
#485=CARTESIAN_POINT('',(14.925,-12.95,-4.6));
#486=CARTESIAN_POINT('Origin',(14.925,-13.5,-4.6));
#487=CARTESIAN_POINT('Origin',(-14.925,-13.5,-4.6));
#488=CARTESIAN_POINT('Origin',(-1.46345292498109E-15,-11.95,-4.6));
#489=CARTESIAN_POINT('Origin',(-1.84309343271677E-15,-15.05,-4.6));
#490=UNCERTAINTY_MEASURE_WITH_UNIT(LENGTH_MEASURE(0.01),#494,
'DISTANCE_ACCURACY_VALUE',
'Maximum model space distance between geometric entities at asserted c
onnectivities');
#491=UNCERTAINTY_MEASURE_WITH_UNIT(LENGTH_MEASURE(0.01),#494,
'DISTANCE_ACCURACY_VALUE',
'Maximum model space distance between geometric entities at asserted c
onnectivities');
#492=(
GEOMETRIC_REPRESENTATION_CONTEXT(3)
GLOBAL_UNCERTAINTY_ASSIGNED_CONTEXT((#490))
GLOBAL_UNIT_ASSIGNED_CONTEXT((#494,#496,#497))
REPRESENTATION_CONTEXT('','3D')
);
#493=(
GEOMETRIC_REPRESENTATION_CONTEXT(3)
GLOBAL_UNCERTAINTY_ASSIGNED_CONTEXT((#491))
GLOBAL_UNIT_ASSIGNED_CONTEXT((#494,#496,#497))
REPRESENTATION_CONTEXT('','3D')
);
#494=(
LENGTH_UNIT()
NAMED_UNIT(*)
SI_UNIT(.MILLI.,.METRE.)
);
#495=(
LENGTH_UNIT()
NAMED_UNIT(*)
SI_UNIT($,.METRE.)
);
#496=(
NAMED_UNIT(*)
PLANE_ANGLE_UNIT()
SI_UNIT($,.RADIAN.)
);
#497=(
NAMED_UNIT(*)
SI_UNIT($,.STERADIAN.)
SOLID_ANGLE_UNIT()
);
#498=SHAPE_DEFINITION_REPRESENTATION(#499,#500);
#499=PRODUCT_DEFINITION_SHAPE('',$,#502);
#500=SHAPE_REPRESENTATION('',(#290),#492);
#501=PRODUCT_DEFINITION_CONTEXT('part definition',#506,'design');
#502=PRODUCT_DEFINITION('Retainer_Bar','Retainer_Bar',#503,#501);
#503=PRODUCT_DEFINITION_FORMATION('',$,#508);
#504=PRODUCT_RELATED_PRODUCT_CATEGORY('Retainer_Bar','Retainer_Bar',(#508));
#505=APPLICATION_PROTOCOL_DEFINITION('international standard',
'automotive_design',2009,#506);
#506=APPLICATION_CONTEXT(
'Core Data for Automotive Mechanical Design Process');
#507=PRODUCT_CONTEXT('part definition',#506,'mechanical');
#508=PRODUCT('Retainer_Bar','Retainer_Bar',$,(#507));
#509=PRESENTATION_STYLE_ASSIGNMENT((#510));
#510=SURFACE_STYLE_USAGE(.BOTH.,#511);
#511=SURFACE_SIDE_STYLE('',(#512));
#512=SURFACE_STYLE_FILL_AREA(#513);
#513=FILL_AREA_STYLE('Steel - Satin',(#514));
#514=FILL_AREA_STYLE_COLOUR('Steel - Satin',#515);
#515=COLOUR_RGB('Steel - Satin',0.627450980392157,0.627450980392157,0.627450980392157);
ENDSEC;
END-ISO-10303-21;
