ISO-10303-21;
HEADER;
/* Generated by software containing ST-Developer
 * from STEP Tools, Inc. (www.steptools.com) 
 */

FILE_DESCRIPTION(
/* description */ (''),
/* implementation_level */ '2;1');

FILE_NAME(
/* name */ 'Retainer_Bar.step',
/* time_stamp */ '2026-08-28T13:34:38+01:00',
/* author */ (''),
/* organization */ (''),
/* preprocessor_version */ 'ST-DEVELOPER v20.1',
/* originating_system */ 'Autodesk Translation Framework v15.8.0.0',
/* authorisation */ '');

FILE_SCHEMA (('AUTOMOTIVE_DESIGN { 1 0 10303 214 3 1 1 }'));
ENDSEC;

DATA;
#10=MECHANICAL_DESIGN_GEOMETRIC_PRESENTATION_REPRESENTATION('',(#13),#323);
#11=SHAPE_REPRESENTATION_RELATIONSHIP('SRR','None',#330,#12);
#12=ADVANCED_BREP_SHAPE_REPRESENTATION('',(#14),#322);
#13=STYLED_ITEM('',(#339),#14);
#14=MANIFOLD_SOLID_BREP('Retainer_Bar',#183);
#15=PLANE('',#200);
#16=PLANE('',#208);
#17=PLANE('',#211);
#18=PLANE('',#212);
#19=PLANE('',#213);
#20=PLANE('',#214);
#21=FACE_OUTER_BOUND('',#31,.T.);
#22=FACE_OUTER_BOUND('',#32,.T.);
#23=FACE_OUTER_BOUND('',#33,.T.);
#24=FACE_OUTER_BOUND('',#34,.T.);
#25=FACE_OUTER_BOUND('',#35,.T.);
#26=FACE_OUTER_BOUND('',#36,.T.);
#27=FACE_OUTER_BOUND('',#37,.T.);
#28=FACE_OUTER_BOUND('',#38,.T.);
#29=FACE_OUTER_BOUND('',#39,.T.);
#30=FACE_OUTER_BOUND('',#40,.T.);
#31=EDGE_LOOP('',(#121,#122,#123,#124));
#32=EDGE_LOOP('',(#125,#126,#127,#128,#129,#130,#131,#132));
#33=EDGE_LOOP('',(#133,#134,#135,#136));
#34=EDGE_LOOP('',(#137,#138,#139,#140));
#35=EDGE_LOOP('',(#141,#142,#143,#144,#145,#146,#147,#148));
#36=EDGE_LOOP('',(#149,#150,#151,#152));
#37=EDGE_LOOP('',(#153,#154,#155,#156));
#38=EDGE_LOOP('',(#157,#158,#159,#160));
#39=EDGE_LOOP('',(#161,#162,#163,#164));
#40=EDGE_LOOP('',(#165,#166,#167,#168));
#41=CIRCLE('',#198,1.);
#42=CIRCLE('',#199,1.);
#43=CIRCLE('',#201,1.);
#44=CIRCLE('',#202,1.);
#45=CIRCLE('',#203,1.);
#46=CIRCLE('',#205,1.);
#47=CIRCLE('',#207,1.);
#48=CIRCLE('',#209,1.);
#49=LINE('',#273,#65);
#50=LINE('',#277,#66);
#51=LINE('',#281,#67);
#52=LINE('',#285,#68);
#53=LINE('',#289,#69);
#54=LINE('',#292,#70);
#55=LINE('',#295,#71);
#56=LINE('',#298,#72);
#57=LINE('',#301,#73);
#58=LINE('',#303,#74);
#59=LINE('',#306,#75);
#60=LINE('',#308,#76);
#61=LINE('',#311,#77);
#62=LINE('',#312,#78);
#63=LINE('',#314,#79);
#64=LINE('',#315,#80);
#65=VECTOR('',#219,10.);
#66=VECTOR('',#222,10.);
#67=VECTOR('',#227,10.);
#68=VECTOR('',#230,10.);
#69=VECTOR('',#233,10.);
#70=VECTOR('',#236,10.);
#71=VECTOR('',#239,10.);
#72=VECTOR('',#242,10.);
#73=VECTOR('',#245,10.);
#74=VECTOR('',#246,10.);
#75=VECTOR('',#251,10.);
#76=VECTOR('',#252,10.);
#77=VECTOR('',#255,10.);
#78=VECTOR('',#256,10.);
#79=VECTOR('',#259,10.);
#80=VECTOR('',#260,10.);
#81=VERTEX_POINT('',#271);
#82=VERTEX_POINT('',#272);
#83=VERTEX_POINT('',#274);
#84=VERTEX_POINT('',#276);
#85=VERTEX_POINT('',#280);
#86=VERTEX_POINT('',#282);
#87=VERTEX_POINT('',#284);
#88=VERTEX_POINT('',#286);
#89=VERTEX_POINT('',#288);
#90=VERTEX_POINT('',#290);
#91=VERTEX_POINT('',#294);
#92=VERTEX_POINT('',#296);
#93=VERTEX_POINT('',#300);
#94=VERTEX_POINT('',#302);
#95=VERTEX_POINT('',#307);
#96=VERTEX_POINT('',#309);
#97=EDGE_CURVE('',#81,#82,#49,.T.);
#98=EDGE_CURVE('',#83,#82,#41,.T.);
#99=EDGE_CURVE('',#84,#83,#50,.T.);
#100=EDGE_CURVE('',#81,#84,#42,.T.);
#101=EDGE_CURVE('',#84,#85,#51,.T.);
#102=EDGE_CURVE('',#85,#86,#43,.T.);
#103=EDGE_CURVE('',#86,#87,#52,.T.);
#104=EDGE_CURVE('',#87,#88,#44,.T.);
#105=EDGE_CURVE('',#88,#89,#53,.T.);
#106=EDGE_CURVE('',#89,#90,#45,.T.);
#107=EDGE_CURVE('',#90,#81,#54,.T.);
#108=EDGE_CURVE('',#89,#91,#55,.T.);
#109=EDGE_CURVE('',#92,#91,#46,.T.);
#110=EDGE_CURVE('',#90,#92,#56,.T.);
#111=EDGE_CURVE('',#86,#93,#57,.T.);
#112=EDGE_CURVE('',#85,#94,#58,.T.);
#113=EDGE_CURVE('',#93,#94,#47,.T.);
#114=EDGE_CURVE('',#82,#92,#59,.T.);
#115=EDGE_CURVE('',#91,#95,#60,.T.);
#116=EDGE_CURVE('',#95,#96,#48,.T.);
#117=EDGE_CURVE('',#96,#93,#61,.T.);
#118=EDGE_CURVE('',#94,#83,#62,.T.);
#119=EDGE_CURVE('',#88,#95,#63,.T.);
#120=EDGE_CURVE('',#87,#96,#64,.T.);
#121=ORIENTED_EDGE('',*,*,#97,.T.);
#122=ORIENTED_EDGE('',*,*,#98,.F.);
#123=ORIENTED_EDGE('',*,*,#99,.F.);
#124=ORIENTED_EDGE('',*,*,#100,.F.);
#125=ORIENTED_EDGE('',*,*,#101,.T.);
#126=ORIENTED_EDGE('',*,*,#102,.T.);
#127=ORIENTED_EDGE('',*,*,#103,.T.);
#128=ORIENTED_EDGE('',*,*,#104,.T.);
#129=ORIENTED_EDGE('',*,*,#105,.T.);
#130=ORIENTED_EDGE('',*,*,#106,.T.);
#131=ORIENTED_EDGE('',*,*,#107,.T.);
#132=ORIENTED_EDGE('',*,*,#100,.T.);
#133=ORIENTED_EDGE('',*,*,#108,.T.);
#134=ORIENTED_EDGE('',*,*,#109,.F.);
#135=ORIENTED_EDGE('',*,*,#110,.F.);
#136=ORIENTED_EDGE('',*,*,#106,.F.);
#137=ORIENTED_EDGE('',*,*,#111,.F.);
#138=ORIENTED_EDGE('',*,*,#102,.F.);
#139=ORIENTED_EDGE('',*,*,#112,.T.);
#140=ORIENTED_EDGE('',*,*,#113,.F.);
#141=ORIENTED_EDGE('',*,*,#114,.T.);
#142=ORIENTED_EDGE('',*,*,#109,.T.);
#143=ORIENTED_EDGE('',*,*,#115,.T.);
#144=ORIENTED_EDGE('',*,*,#116,.T.);
#145=ORIENTED_EDGE('',*,*,#117,.T.);
#146=ORIENTED_EDGE('',*,*,#113,.T.);
#147=ORIENTED_EDGE('',*,*,#118,.T.);
#148=ORIENTED_EDGE('',*,*,#98,.T.);
#149=ORIENTED_EDGE('',*,*,#119,.F.);
#150=ORIENTED_EDGE('',*,*,#104,.F.);
#151=ORIENTED_EDGE('',*,*,#120,.T.);
#152=ORIENTED_EDGE('',*,*,#116,.F.);
#153=ORIENTED_EDGE('',*,*,#111,.T.);
#154=ORIENTED_EDGE('',*,*,#117,.F.);
#155=ORIENTED_EDGE('',*,*,#120,.F.);
#156=ORIENTED_EDGE('',*,*,#103,.F.);
#157=ORIENTED_EDGE('',*,*,#110,.T.);
#158=ORIENTED_EDGE('',*,*,#114,.F.);
#159=ORIENTED_EDGE('',*,*,#97,.F.);
#160=ORIENTED_EDGE('',*,*,#107,.F.);
#161=ORIENTED_EDGE('',*,*,#119,.T.);
#162=ORIENTED_EDGE('',*,*,#115,.F.);
#163=ORIENTED_EDGE('',*,*,#108,.F.);
#164=ORIENTED_EDGE('',*,*,#105,.F.);
#165=ORIENTED_EDGE('',*,*,#99,.T.);
#166=ORIENTED_EDGE('',*,*,#118,.F.);
#167=ORIENTED_EDGE('',*,*,#112,.F.);
#168=ORIENTED_EDGE('',*,*,#101,.F.);
#169=CYLINDRICAL_SURFACE('',#197,1.);
#170=CYLINDRICAL_SURFACE('',#204,1.);
#171=CYLINDRICAL_SURFACE('',#206,1.);
#172=CYLINDRICAL_SURFACE('',#210,1.);
#173=ADVANCED_FACE('',(#21),#169,.T.);
#174=ADVANCED_FACE('',(#22),#15,.T.);
#175=ADVANCED_FACE('',(#23),#170,.T.);
#176=ADVANCED_FACE('',(#24),#171,.T.);
#177=ADVANCED_FACE('',(#25),#16,.F.);
#178=ADVANCED_FACE('',(#26),#172,.T.);
#179=ADVANCED_FACE('',(#27),#17,.F.);
#180=ADVANCED_FACE('',(#28),#18,.F.);
#181=ADVANCED_FACE('',(#29),#19,.F.);
#182=ADVANCED_FACE('',(#30),#20,.F.);
#183=CLOSED_SHELL('',(#173,#174,#175,#176,#177,#178,#179,#180,#181,#182));
#184=DERIVED_UNIT_ELEMENT(#186,1.);
#185=DERIVED_UNIT_ELEMENT(#325,-3.);
#186=(
MASS_UNIT()
NAMED_UNIT(*)
SI_UNIT(.KILO.,.GRAM.)
);
#187=DERIVED_UNIT((#184,#185));
#188=MEASURE_REPRESENTATION_ITEM('density measure',
POSITIVE_RATIO_MEASURE(7850.),#187);
#189=PROPERTY_DEFINITION_REPRESENTATION(#194,#191);
#190=PROPERTY_DEFINITION_REPRESENTATION(#195,#192);
#191=REPRESENTATION('material name',(#193),#322);
#192=REPRESENTATION('density',(#188),#322);
#193=DESCRIPTIVE_REPRESENTATION_ITEM('Steel','Steel');
#194=PROPERTY_DEFINITION('material property','material name',#332);
#195=PROPERTY_DEFINITION('material property','density of part',#332);
#196=AXIS2_PLACEMENT_3D('',#269,#215,#216);
#197=AXIS2_PLACEMENT_3D('',#270,#217,#218);
#198=AXIS2_PLACEMENT_3D('',#275,#220,#221);
#199=AXIS2_PLACEMENT_3D('',#278,#223,#224);
#200=AXIS2_PLACEMENT_3D('',#279,#225,#226);
#201=AXIS2_PLACEMENT_3D('',#283,#228,#229);
#202=AXIS2_PLACEMENT_3D('',#287,#231,#232);
#203=AXIS2_PLACEMENT_3D('',#291,#234,#235);
#204=AXIS2_PLACEMENT_3D('',#293,#237,#238);
#205=AXIS2_PLACEMENT_3D('',#297,#240,#241);
#206=AXIS2_PLACEMENT_3D('',#299,#243,#244);
#207=AXIS2_PLACEMENT_3D('',#304,#247,#248);
#208=AXIS2_PLACEMENT_3D('',#305,#249,#250);
#209=AXIS2_PLACEMENT_3D('',#310,#253,#254);
#210=AXIS2_PLACEMENT_3D('',#313,#257,#258);
#211=AXIS2_PLACEMENT_3D('',#316,#261,#262);
#212=AXIS2_PLACEMENT_3D('',#317,#263,#264);
#213=AXIS2_PLACEMENT_3D('',#318,#265,#266);
#214=AXIS2_PLACEMENT_3D('',#319,#267,#268);
#215=DIRECTION('axis',(0.,0.,1.));
#216=DIRECTION('refdir',(1.,0.,0.));
#217=DIRECTION('center_axis',(0.,0.,-1.));
#218=DIRECTION('ref_axis',(-1.,1.22464679914735E-16,0.));
#219=DIRECTION('',(0.,0.,-1.));
#220=DIRECTION('center_axis',(0.,0.,-1.));
#221=DIRECTION('ref_axis',(-1.,1.22464679914735E-16,0.));
#222=DIRECTION('',(0.,0.,-1.));
#223=DIRECTION('center_axis',(0.,0.,1.));
#224=DIRECTION('ref_axis',(-1.,1.22464679914735E-16,0.));
#225=DIRECTION('center_axis',(0.,0.,1.));
#226=DIRECTION('ref_axis',(-1.,1.22464679914735E-16,0.));
#227=DIRECTION('',(1.,-1.22464679914735E-16,0.));
#228=DIRECTION('center_axis',(0.,0.,1.));
#229=DIRECTION('ref_axis',(-1.,1.22464679914735E-16,0.));
#230=DIRECTION('',(1.22464679914735E-16,1.,0.));
#231=DIRECTION('center_axis',(0.,0.,1.));
#232=DIRECTION('ref_axis',(-1.,1.22464679914735E-16,0.));
#233=DIRECTION('',(-1.,1.22464679914735E-16,0.));
#234=DIRECTION('center_axis',(0.,0.,1.));
#235=DIRECTION('ref_axis',(-1.,1.22464679914735E-16,0.));
#236=DIRECTION('',(-1.22464679914735E-16,-1.,0.));
#237=DIRECTION('center_axis',(0.,0.,-1.));
#238=DIRECTION('ref_axis',(-1.,1.22464679914735E-16,0.));
#239=DIRECTION('',(0.,0.,-1.));
#240=DIRECTION('center_axis',(0.,0.,-1.));
#241=DIRECTION('ref_axis',(-1.,1.22464679914735E-16,0.));
#242=DIRECTION('',(0.,0.,-1.));
#243=DIRECTION('center_axis',(0.,0.,-1.));
#244=DIRECTION('ref_axis',(-1.,1.22464679914735E-16,0.));
#245=DIRECTION('',(0.,0.,-1.));
#246=DIRECTION('',(0.,0.,-1.));
#247=DIRECTION('center_axis',(0.,0.,-1.));
#248=DIRECTION('ref_axis',(-1.,1.22464679914735E-16,0.));
#249=DIRECTION('center_axis',(0.,0.,1.));
#250=DIRECTION('ref_axis',(-1.,1.22464679914735E-16,0.));
#251=DIRECTION('',(1.22464679914735E-16,1.,0.));
#252=DIRECTION('',(1.,-1.22464679914735E-16,0.));
#253=DIRECTION('center_axis',(0.,0.,-1.));
#254=DIRECTION('ref_axis',(-1.,1.22464679914735E-16,0.));
#255=DIRECTION('',(-1.22464679914735E-16,-1.,0.));
#256=DIRECTION('',(-1.,1.22464679914735E-16,0.));
#257=DIRECTION('center_axis',(0.,0.,-1.));
#258=DIRECTION('ref_axis',(-1.,1.22464679914735E-16,0.));
#259=DIRECTION('',(0.,0.,-1.));
#260=DIRECTION('',(0.,0.,-1.));
#261=DIRECTION('center_axis',(-1.,1.22464679914735E-16,0.));
#262=DIRECTION('ref_axis',(0.,0.,-1.));
#263=DIRECTION('center_axis',(1.,-1.22464679914735E-16,0.));
#264=DIRECTION('ref_axis',(0.,0.,1.));
#265=DIRECTION('center_axis',(-1.22464679914735E-16,-1.,0.));
#266=DIRECTION('ref_axis',(0.,0.,1.));
#267=DIRECTION('center_axis',(1.22464679914735E-16,1.,0.));
#268=DIRECTION('ref_axis',(0.,0.,-1.));
#269=CARTESIAN_POINT('',(0.,0.,0.));
#270=CARTESIAN_POINT('Origin',(-18.325,6.,-4.275));
#271=CARTESIAN_POINT('',(-19.325,6.,-2.75));
#272=CARTESIAN_POINT('',(-19.325,6.,-5.8));
#273=CARTESIAN_POINT('',(-19.325,6.,-4.275));
#274=CARTESIAN_POINT('',(-18.325,5.,-5.8));
#275=CARTESIAN_POINT('Origin',(-18.325,6.,-5.8));
#276=CARTESIAN_POINT('',(-18.325,5.,-2.75));
#277=CARTESIAN_POINT('',(-18.325,5.,-4.275));
#278=CARTESIAN_POINT('Origin',(-18.325,6.,-2.75));
#279=CARTESIAN_POINT('Origin',(9.79717439317883E-16,8.,-2.75));
#280=CARTESIAN_POINT('',(18.325,5.,-2.75));
#281=CARTESIAN_POINT('',(6.12323399573677E-16,5.,-2.75));
#282=CARTESIAN_POINT('',(19.325,6.,-2.75));
#283=CARTESIAN_POINT('Origin',(18.325,6.,-2.75));
#284=CARTESIAN_POINT('',(19.325,10.,-2.75));
#285=CARTESIAN_POINT('',(19.325,8.,-2.75));
#286=CARTESIAN_POINT('',(18.325,11.,-2.75));
#287=CARTESIAN_POINT('Origin',(18.325,10.,-2.75));
#288=CARTESIAN_POINT('',(-18.325,11.,-2.75));
#289=CARTESIAN_POINT('',(1.34711147906209E-15,11.,-2.75));
#290=CARTESIAN_POINT('',(-19.325,10.,-2.75));
#291=CARTESIAN_POINT('Origin',(-18.325,10.,-2.75));
#292=CARTESIAN_POINT('',(-19.325,8.,-2.75));
#293=CARTESIAN_POINT('Origin',(-18.325,10.,-4.275));
#294=CARTESIAN_POINT('',(-18.325,11.,-5.8));
#295=CARTESIAN_POINT('',(-18.325,11.,-4.275));
#296=CARTESIAN_POINT('',(-19.325,10.,-5.8));
#297=CARTESIAN_POINT('Origin',(-18.325,10.,-5.8));
#298=CARTESIAN_POINT('',(-19.325,10.,-4.275));
#299=CARTESIAN_POINT('Origin',(18.325,6.,-4.275));
#300=CARTESIAN_POINT('',(19.325,6.,-5.8));
#301=CARTESIAN_POINT('',(19.325,6.,-4.275));
#302=CARTESIAN_POINT('',(18.325,5.,-5.8));
#303=CARTESIAN_POINT('',(18.325,5.,-4.275));
#304=CARTESIAN_POINT('Origin',(18.325,6.,-5.8));
#305=CARTESIAN_POINT('Origin',(9.79717439317883E-16,8.,-5.8));
#306=CARTESIAN_POINT('',(-19.325,8.,-5.8));
#307=CARTESIAN_POINT('',(18.325,11.,-5.8));
#308=CARTESIAN_POINT('',(1.34711147906209E-15,11.,-5.8));
#309=CARTESIAN_POINT('',(19.325,10.,-5.8));
#310=CARTESIAN_POINT('Origin',(18.325,10.,-5.8));
#311=CARTESIAN_POINT('',(19.325,8.,-5.8));
#312=CARTESIAN_POINT('',(6.12323399573677E-16,5.,-5.8));
#313=CARTESIAN_POINT('Origin',(18.325,10.,-4.275));
#314=CARTESIAN_POINT('',(18.325,11.,-4.275));
#315=CARTESIAN_POINT('',(19.325,10.,-4.275));
#316=CARTESIAN_POINT('Origin',(19.325,8.,-4.275));
#317=CARTESIAN_POINT('Origin',(-19.325,8.,-4.275));
#318=CARTESIAN_POINT('Origin',(1.34711147906209E-15,11.,-4.275));
#319=CARTESIAN_POINT('Origin',(6.12323399573677E-16,5.,-4.275));
#320=UNCERTAINTY_MEASURE_WITH_UNIT(LENGTH_MEASURE(0.01),#324,
'DISTANCE_ACCURACY_VALUE',
'Maximum model space distance between geometric entities at asserted c
onnectivities');
#321=UNCERTAINTY_MEASURE_WITH_UNIT(LENGTH_MEASURE(0.01),#324,
'DISTANCE_ACCURACY_VALUE',
'Maximum model space distance between geometric entities at asserted c
onnectivities');
#322=(
GEOMETRIC_REPRESENTATION_CONTEXT(3)
GLOBAL_UNCERTAINTY_ASSIGNED_CONTEXT((#320))
GLOBAL_UNIT_ASSIGNED_CONTEXT((#324,#326,#327))
REPRESENTATION_CONTEXT('','3D')
);
#323=(
GEOMETRIC_REPRESENTATION_CONTEXT(3)
GLOBAL_UNCERTAINTY_ASSIGNED_CONTEXT((#321))
GLOBAL_UNIT_ASSIGNED_CONTEXT((#324,#326,#327))
REPRESENTATION_CONTEXT('','3D')
);
#324=(
LENGTH_UNIT()
NAMED_UNIT(*)
SI_UNIT(.MILLI.,.METRE.)
);
#325=(
LENGTH_UNIT()
NAMED_UNIT(*)
SI_UNIT($,.METRE.)
);
#326=(
NAMED_UNIT(*)
PLANE_ANGLE_UNIT()
SI_UNIT($,.RADIAN.)
);
#327=(
NAMED_UNIT(*)
SI_UNIT($,.STERADIAN.)
SOLID_ANGLE_UNIT()
);
#328=SHAPE_DEFINITION_REPRESENTATION(#329,#330);
#329=PRODUCT_DEFINITION_SHAPE('',$,#332);
#330=SHAPE_REPRESENTATION('',(#196),#322);
#331=PRODUCT_DEFINITION_CONTEXT('part definition',#336,'design');
#332=PRODUCT_DEFINITION('Retainer_Bar','Retainer_Bar',#333,#331);
#333=PRODUCT_DEFINITION_FORMATION('',$,#338);
#334=PRODUCT_RELATED_PRODUCT_CATEGORY('Retainer_Bar','Retainer_Bar',(#338));
#335=APPLICATION_PROTOCOL_DEFINITION('international standard',
'automotive_design',2009,#336);
#336=APPLICATION_CONTEXT(
'Core Data for Automotive Mechanical Design Process');
#337=PRODUCT_CONTEXT('part definition',#336,'mechanical');
#338=PRODUCT('Retainer_Bar','Retainer_Bar',$,(#337));
#339=PRESENTATION_STYLE_ASSIGNMENT((#340));
#340=SURFACE_STYLE_USAGE(.BOTH.,#341);
#341=SURFACE_SIDE_STYLE('',(#342));
#342=SURFACE_STYLE_FILL_AREA(#343);
#343=FILL_AREA_STYLE('Steel - Satin',(#344));
#344=FILL_AREA_STYLE_COLOUR('Steel - Satin',#345);
#345=COLOUR_RGB('Steel - Satin',0.627450980392157,0.627450980392157,0.627450980392157);
ENDSEC;
END-ISO-10303-21;
